M48
; DRILL file {KiCad (5.1.5)-3} date 30.07.2020 21:21:31
; FORMAT={-:-/ absolute / inch / decimal}
; #@! TF.CreationDate,2020-07-30T21:21:31+02:00
; #@! TF.GenerationSoftware,Kicad,Pcbnew,(5.1.5)-3
FMAT,2
INCH
T1C0.0157
T2C0.0236
T3C0.0335
T4C0.0362
T5C0.0394
T6C0.0400
T7C0.0917
T8C0.1063
%
G90
G05
T1
X5.46Y-5.09
X5.46Y-5.26
X5.51Y-5.09
X5.51Y-5.26
X5.56Y-5.28
X5.7882Y-5.3407
X6.575Y-5.4657
X6.85Y-5.1407
X6.9266Y-5.1423
X7.0Y-5.3157
T3
X6.8266Y-5.4242
X7.0234Y-5.4242
T4
X6.8888Y-4.9303
X6.8888Y-5.0091
X6.9872Y-4.9303
X6.9872Y-5.0091
T6
X4.9Y-2.1407
X4.9Y-2.2407
X4.9Y-2.3407
X5.0Y-2.1407
X5.0Y-2.2407
X5.0Y-2.3407
X5.1Y-2.1407
X5.1Y-2.2407
X5.1Y-2.3407
X5.4Y-2.0407
X6.6Y-2.1407
X4.1Y-2.2407
X4.1Y-2.3407
X4.2Y-2.2407
X4.2Y-2.3407
X5.1Y-2.0407
X6.2Y-4.2407
X6.2Y-4.3407
X6.3Y-4.2407
X6.3Y-4.3407
X4.1Y-4.2407
X4.1Y-4.3407
X4.2Y-4.2407
X4.2Y-4.3407
X6.1Y-4.7407
X6.8Y-2.2407
X4.0Y-1.8407
X4.0Y-1.9407
X4.1Y-1.8407
X4.1Y-1.9407
X6.4Y-4.7407
X6.4Y-4.8407
X6.5Y-4.7407
X6.5Y-4.8407
X6.2Y-3.6407
X6.2Y-3.7407
X6.3Y-3.6407
X6.3Y-3.7407
X5.1Y-3.3407
X5.0Y-5.4407
X4.3Y-2.7407
X4.3Y-2.8407
X4.3Y-2.9407
X4.4Y-2.7407
X4.4Y-2.8407
X4.4Y-2.9407
X4.5Y-2.7407
X4.5Y-2.8407
X4.5Y-2.9407
X3.8Y-2.6407
X3.8Y-2.7407
X3.8Y-2.8407
X3.9Y-2.6407
X3.9Y-2.7407
X3.9Y-2.8407
X4.0Y-2.6407
X4.0Y-2.7407
X4.0Y-2.8407
X6.4Y-2.1407
X5.6Y-1.8407
X5.6Y-1.9407
X5.7Y-1.8407
X5.7Y-1.9407
X6.8Y-2.0407
X7.1Y-2.8407
X6.0Y-1.8407
X6.0Y-1.9407
X6.1Y-1.8407
X6.1Y-1.9407
X6.2Y-3.8407
X6.2Y-3.9407
X6.3Y-3.8407
X6.3Y-3.9407
X6.4Y-2.3407
X6.8Y-1.8407
X6.8Y-1.9407
X6.9Y-1.8407
X6.9Y-1.9407
X4.9Y-5.2407
X6.1Y-5.0407
X7.4Y-3.3407
X7.3Y-4.2407
X7.3Y-4.3407
X7.4Y-4.2407
X7.4Y-4.3407
X7.3Y-3.6407
X7.3Y-3.7407
X7.4Y-3.6407
X7.4Y-3.7407
X5.65Y-3.4907
X7.2Y-1.9407
X5.4Y-3.0407
X5.4Y-3.1407
X5.5Y-3.0407
X5.5Y-3.1407
X4.3Y-3.0407
X4.3Y-3.1407
X4.3Y-3.2407
X4.4Y-3.0407
X4.4Y-3.1407
X4.4Y-3.2407
X4.5Y-3.0407
X4.5Y-3.1407
X4.5Y-3.2407
X3.9Y-1.9407
X4.6Y-2.7407
X4.6Y-2.8407
X4.6Y-2.9407
X4.7Y-2.7407
X4.7Y-2.8407
X4.7Y-2.9407
X4.8Y-2.7407
X4.8Y-2.8407
X4.8Y-2.9407
X6.0Y-2.0407
X4.6Y-5.4407
X4.3Y-4.5407
X4.3Y-4.6407
X4.3Y-4.7407
X4.4Y-4.5407
X4.4Y-4.6407
X4.4Y-4.7407
X4.5Y-4.5407
X4.5Y-4.6407
X4.5Y-4.7407
X5.5Y-2.1407
X5.5Y-2.2407
X5.5Y-2.3407
X5.6Y-2.1407
X5.6Y-2.2407
X5.6Y-2.3407
X5.7Y-2.1407
X5.7Y-2.2407
X5.7Y-2.3407
X6.9Y-2.0407
X6.4Y-3.3407
X6.4Y-3.4407
X6.4Y-3.5407
X6.5Y-3.3407
X6.5Y-3.4407
X6.5Y-3.5407
X6.6Y-3.3407
X6.6Y-3.4407
X6.6Y-3.5407
X4.7Y-2.0407
X7.1Y-3.3407
X4.1Y-2.0407
X4.1Y-2.1407
X4.2Y-2.0407
X4.2Y-2.1407
X6.1Y-4.4407
X7.0Y-2.8407
X6.2Y-4.0407
X6.2Y-4.1407
X6.3Y-4.0407
X6.3Y-4.1407
X4.1Y-2.8407
X4.1Y-2.9407
X4.2Y-2.8407
X4.2Y-2.9407
X6.1Y-4.8407
X7.0Y-4.2407
X7.0Y-4.3407
X7.0Y-4.4407
X7.1Y-4.2407
X7.1Y-4.3407
X7.1Y-4.4407
X7.2Y-4.2407
X7.2Y-4.3407
X7.2Y-4.4407
X4.4Y-1.8407
X4.4Y-1.9407
X4.5Y-1.8407
X4.5Y-1.9407
X7.1Y-2.9407
X7.0Y-2.2407
X7.0Y-2.3407
X7.1Y-2.2407
X7.1Y-2.3407
X6.1Y-3.6407
X5.9Y-2.0407
X6.6Y-1.8407
X6.6Y-1.9407
X6.7Y-1.8407
X6.7Y-1.9407
X6.7Y-2.1407
X4.6Y-4.2407
X4.6Y-4.3407
X4.6Y-4.4407
X4.7Y-4.2407
X4.7Y-4.3407
X4.7Y-4.4407
X4.8Y-4.2407
X4.8Y-4.3407
X4.8Y-4.4407
X4.5Y-4.8407
X7.0Y-3.1407
X7.0Y-3.2407
X7.1Y-3.1407
X7.1Y-3.2407
X6.4Y-1.8407
X6.4Y-1.9407
X6.5Y-1.8407
X6.5Y-1.9407
X5.0Y-5.2407
X6.6Y-4.5407
X6.6Y-4.6407
X6.7Y-4.5407
X6.7Y-4.6407
X6.8Y-4.5407
X6.8Y-4.6407
X6.9Y-4.5407
X6.9Y-4.6407
X7.3Y-4.0407
X7.3Y-4.1407
X7.4Y-4.0407
X7.4Y-4.1407
X7.2Y-1.8407
X5.3Y-3.34
X5.3Y-3.44
X5.3Y-3.54
X5.3Y-3.64
X5.3Y-3.74
X5.3Y-3.84
X5.3Y-3.94
X5.3Y-4.04
X5.3Y-4.14
X5.3Y-4.24
X5.3Y-4.34
X5.3Y-4.44
X5.3Y-4.54
X5.3Y-4.64
X5.3Y-4.74
X5.3Y-4.84
X5.3Y-4.94
X5.3Y-5.04
X5.3Y-5.14
X5.3Y-5.24
X5.9Y-3.34
X5.9Y-3.44
X5.9Y-3.54
X5.9Y-3.64
X5.9Y-3.74
X5.9Y-3.84
X5.9Y-3.94
X5.9Y-4.04
X5.9Y-4.14
X5.9Y-4.24
X5.9Y-4.34
X5.9Y-4.44
X5.9Y-4.54
X5.9Y-4.64
X5.9Y-4.74
X5.9Y-4.84
X5.9Y-4.94
X5.9Y-5.04
X5.9Y-5.14
X5.9Y-5.24
X4.6Y-3.3407
X4.6Y-3.4407
X4.6Y-3.5407
X4.7Y-3.3407
X4.7Y-3.4407
X4.7Y-3.5407
X4.8Y-3.3407
X4.8Y-3.4407
X4.8Y-3.5407
X4.9Y-4.34
X4.9Y-4.44
X4.9Y-4.54
X5.0Y-4.34
X5.0Y-4.44
X5.0Y-4.54
X5.1Y-4.34
X5.1Y-4.44
X5.1Y-4.54
X4.6Y-2.1407
X4.6Y-2.2407
X4.6Y-2.3407
X4.7Y-2.1407
X4.7Y-2.2407
X4.7Y-2.3407
X4.8Y-2.1407
X4.8Y-2.2407
X4.8Y-2.3407
X6.4Y-2.0407
X6.5Y-2.0407
X4.1Y-3.0407
X4.1Y-3.1407
X4.2Y-3.0407
X4.2Y-3.1407
X6.7Y-2.2407
X7.0Y-3.3407
X4.1Y-3.6407
X4.1Y-3.7407
X4.2Y-3.6407
X4.2Y-3.7407
X6.1Y-3.9415
X3.8Y-3.8407
X3.8Y-3.9407
X3.8Y-4.0407
X3.9Y-3.8407
X3.9Y-3.9407
X3.9Y-4.0407
X4.0Y-3.8407
X4.0Y-3.9407
X4.0Y-4.0407
X6.7Y-2.0407
X6.4Y-4.9407
X6.4Y-5.0407
X6.5Y-4.9407
X6.5Y-5.0407
X4.6Y-4.9407
X6.1Y-4.3415
X6.2Y-2.0407
X3.8Y-2.3407
X3.8Y-2.4407
X3.8Y-2.5407
X3.9Y-2.3407
X3.9Y-2.4407
X3.9Y-2.5407
X4.0Y-2.3407
X4.0Y-2.4407
X4.0Y-2.5407
X6.5Y-2.1407
X6.2Y-5.0407
X6.2Y-5.1407
X6.3Y-5.0407
X6.3Y-5.1407
X6.1Y-3.7415
X5.23Y-5.4407
X7.0Y-3.4407
X7.0Y-3.5407
X7.0Y-3.6407
X7.1Y-3.4407
X7.1Y-3.5407
X7.1Y-3.6407
X7.2Y-3.4407
X7.2Y-3.5407
X7.2Y-3.6407
X5.8Y-1.8407
X5.8Y-1.9407
X5.9Y-1.8407
X5.9Y-1.9407
X7.4Y-3.2407
X4.1Y-3.4407
X4.1Y-3.5407
X4.2Y-3.4407
X4.2Y-3.5407
X6.9Y-2.2407
X5.8Y-2.7407
X5.8Y-2.8407
X5.8Y-2.9407
X5.9Y-2.7407
X5.9Y-2.8407
X5.9Y-2.9407
X6.0Y-2.7407
X6.0Y-2.8407
X6.0Y-2.9407
X6.1Y-4.9415
X5.45Y-3.4907
X7.4Y-4.5407
X4.9Y-4.94
X4.9Y-5.04
X4.9Y-5.14
X5.0Y-4.94
X5.0Y-5.04
X5.0Y-5.14
X5.1Y-4.94
X5.1Y-5.04
X5.1Y-5.14
X5.5Y-2.7407
X5.5Y-2.8407
X5.5Y-2.9407
X5.6Y-2.7407
X5.6Y-2.8407
X5.6Y-2.9407
X5.7Y-2.7407
X5.7Y-2.8407
X5.7Y-2.9407
X5.6Y-3.0407
X5.6Y-3.1407
X5.7Y-3.0407
X5.7Y-3.1407
X4.3Y-3.9407
X4.3Y-4.0407
X4.3Y-4.1407
X4.4Y-3.9407
X4.4Y-4.0407
X4.4Y-4.1407
X4.5Y-3.9407
X4.5Y-4.0407
X4.5Y-4.1407
X6.7Y-3.7407
X6.7Y-3.8407
X6.7Y-3.9407
X6.8Y-3.7407
X6.8Y-3.8407
X6.8Y-3.9407
X6.9Y-3.7407
X6.9Y-3.8407
X6.9Y-3.9407
X4.8Y-2.0407
X6.9Y-4.7407
X5.6Y-2.0407
X6.2Y-4.4407
X6.2Y-4.5407
X6.3Y-4.4407
X6.3Y-4.5407
X6.9Y-2.9407
X6.9Y-3.0407
X7.0Y-2.9407
X7.0Y-3.0407
X6.1Y-4.6407
X6.7Y-2.3407
X6.7Y-2.4407
X6.7Y-2.5407
X6.8Y-2.3407
X6.8Y-2.4407
X6.8Y-2.5407
X6.9Y-2.3407
X6.9Y-2.4407
X6.9Y-2.5407
X4.6Y-1.8407
X4.6Y-1.9407
X4.7Y-1.8407
X4.7Y-1.9407
X5.5Y-2.0407
X6.9Y-2.1407
X4.1Y-2.6407
X4.1Y-2.7407
X4.2Y-2.6407
X4.2Y-2.7407
X6.0Y-3.1407
X4.8Y-5.4407
X6.4Y-3.9407
X6.4Y-4.0407
X6.4Y-4.1407
X6.5Y-3.9407
X6.5Y-4.0407
X6.5Y-4.1407
X6.6Y-3.9407
X6.6Y-4.0407
X6.6Y-4.1407
X3.8Y-2.9407
X3.8Y-3.0407
X3.8Y-3.1407
X3.9Y-2.9407
X3.9Y-3.0407
X3.9Y-3.1407
X4.0Y-2.9407
X4.0Y-3.0407
X4.0Y-3.1407
X6.8Y-2.1407
X7.0Y-4.5407
X7.0Y-4.6407
X7.1Y-4.5407
X7.1Y-4.6407
X6.1Y-3.8407
X4.3Y-2.4407
X4.3Y-2.5407
X4.3Y-2.6407
X4.4Y-2.4407
X4.4Y-2.5407
X4.4Y-2.6407
X4.5Y-2.4407
X4.5Y-2.5407
X4.5Y-2.6407
X4.0Y-4.7407
X7.2Y-2.6407
X7.2Y-2.7407
X7.2Y-2.8407
X7.3Y-2.6407
X7.3Y-2.7407
X7.3Y-2.8407
X7.4Y-2.6407
X7.4Y-2.7407
X7.4Y-2.8407
X5.4Y-1.8407
X5.4Y-1.9407
X5.5Y-1.8407
X5.5Y-1.9407
X4.1Y-3.2407
X4.1Y-3.3407
X4.2Y-3.2407
X4.2Y-3.3407
X7.2Y-2.0407
X7.2Y-2.1407
X7.2Y-2.2407
X7.3Y-2.0407
X7.3Y-2.1407
X7.3Y-2.2407
X7.4Y-2.0407
X7.4Y-2.1407
X7.4Y-2.2407
X5.8Y-2.1407
X5.8Y-2.2407
X5.8Y-2.3407
X5.9Y-2.1407
X5.9Y-2.2407
X5.9Y-2.3407
X6.0Y-2.1407
X6.0Y-2.2407
X6.0Y-2.3407
X7.2Y-2.9407
X7.2Y-3.0407
X7.2Y-3.1407
X7.3Y-2.9407
X7.3Y-3.0407
X7.3Y-3.1407
X7.4Y-2.9407
X7.4Y-3.0407
X7.4Y-3.1407
X4.5Y-5.4407
X7.4Y-4.4407
X7.4Y-4.6407
X4.9Y-4.04
X4.9Y-4.14
X4.9Y-4.24
X5.0Y-4.04
X5.0Y-4.14
X5.0Y-4.24
X5.1Y-4.04
X5.1Y-4.14
X5.1Y-4.24
X6.4Y-2.7407
X6.4Y-2.8407
X6.4Y-2.9407
X6.5Y-2.7407
X6.5Y-2.8407
X6.5Y-2.9407
X6.6Y-2.7407
X6.6Y-2.8407
X6.6Y-2.9407
X3.8Y-4.4407
X3.8Y-4.5407
X3.8Y-4.6407
X3.9Y-4.4407
X3.9Y-4.5407
X3.9Y-4.6407
X4.0Y-4.4407
X4.0Y-4.5407
X4.0Y-4.6407
X4.6Y-3.6407
X4.6Y-3.7407
X4.6Y-3.8407
X4.7Y-3.6407
X4.7Y-3.7407
X4.7Y-3.8407
X4.8Y-3.6407
X4.8Y-3.7407
X4.8Y-3.8407
X4.3Y-3.3407
X4.3Y-3.4407
X4.3Y-3.5407
X4.4Y-3.3407
X4.4Y-3.4407
X4.4Y-3.5407
X4.5Y-3.3407
X4.5Y-3.4407
X4.5Y-3.5407
X4.6Y-3.0407
X4.6Y-3.1407
X4.6Y-3.2407
X4.7Y-3.0407
X4.7Y-3.1407
X4.7Y-3.2407
X4.8Y-3.0407
X4.8Y-3.1407
X4.8Y-3.2407
X5.3Y-2.0407
X7.0Y-4.7407
X6.8Y-4.7407
X4.7Y-4.8407
X4.7Y-4.9407
X4.8Y-4.8407
X4.8Y-4.9407
X7.1Y-4.7407
X6.1Y-4.0407
X5.1Y-5.4407
X6.7Y-3.4407
X6.7Y-3.5407
X6.7Y-3.6407
X6.8Y-3.4407
X6.8Y-3.5407
X6.8Y-3.6407
X6.9Y-3.4407
X6.9Y-3.5407
X6.9Y-3.6407
X4.8Y-1.8407
X4.8Y-1.9407
X4.9Y-1.8407
X4.9Y-1.9407
X5.8Y-2.0407
X4.5Y-5.2407
X4.5Y-5.3407
X4.6Y-5.2407
X4.6Y-5.3407
X6.7Y-2.9407
X6.7Y-3.0407
X6.8Y-2.9407
X6.8Y-3.0407
X6.0Y-3.0407
X4.9Y-3.0407
X4.9Y-3.1407
X4.9Y-3.2407
X5.0Y-3.0407
X5.0Y-3.1407
X5.0Y-3.2407
X5.1Y-3.0407
X5.1Y-3.1407
X5.1Y-3.2407
X3.8Y-3.2407
X3.8Y-3.3407
X3.8Y-3.4407
X3.9Y-3.2407
X3.9Y-3.3407
X3.9Y-3.4407
X4.0Y-3.2407
X4.0Y-3.3407
X4.0Y-3.4407
X6.4Y-2.2407
X5.8Y-2.4407
X5.8Y-2.5407
X5.8Y-2.6407
X5.9Y-2.4407
X5.9Y-2.5407
X5.9Y-2.6407
X6.0Y-2.4407
X6.0Y-2.5407
X6.0Y-2.6407
X4.1Y-4.0407
X4.1Y-4.1407
X4.2Y-4.0407
X4.2Y-4.1407
X6.1Y-4.1407
X6.7Y-4.2407
X6.7Y-4.3407
X6.7Y-4.4407
X6.8Y-4.2407
X6.8Y-4.3407
X6.8Y-4.4407
X6.9Y-4.2407
X6.9Y-4.3407
X6.9Y-4.4407
X3.9Y-4.7407
X7.1Y-4.0407
X7.1Y-4.1407
X7.2Y-4.0407
X7.2Y-4.1407
X5.2Y-2.1407
X5.2Y-2.2407
X5.2Y-2.3407
X5.3Y-2.1407
X5.3Y-2.2407
X5.3Y-2.3407
X5.4Y-2.1407
X5.4Y-2.2407
X5.4Y-2.3407
X6.5Y-2.2407
X6.5Y-2.3407
X6.6Y-2.2407
X6.6Y-2.3407
X6.2Y-4.6407
X6.2Y-4.7407
X6.3Y-4.6407
X6.3Y-4.7407
X6.4Y-2.4407
X6.4Y-2.5407
X6.4Y-2.6407
X6.5Y-2.4407
X6.5Y-2.5407
X6.5Y-2.6407
X6.6Y-2.4407
X6.6Y-2.5407
X6.6Y-2.6407
X6.1Y-5.2407
X7.3Y-3.8407
X7.3Y-3.9407
X7.4Y-3.8407
X7.4Y-3.9407
X7.3Y-1.9407
X6.4Y-4.5407
X6.4Y-4.6407
X6.5Y-4.5407
X6.5Y-4.6407
X5.8Y-3.0407
X5.8Y-3.1407
X5.9Y-3.0407
X5.9Y-3.1407
X4.3Y-3.6407
X4.3Y-3.7407
X4.3Y-3.8407
X4.4Y-3.6407
X4.4Y-3.7407
X4.4Y-3.8407
X4.5Y-3.6407
X4.5Y-3.7407
X4.5Y-3.8407
X5.2Y-3.0407
X5.2Y-3.1407
X5.3Y-3.0407
X5.3Y-3.1407
X5.5Y-2.4407
X5.5Y-2.5407
X5.5Y-2.6407
X5.6Y-2.4407
X5.6Y-2.5407
X5.6Y-2.6407
X5.7Y-2.4407
X5.7Y-2.5407
X5.7Y-2.6407
X6.1Y-2.0407
X4.9Y-3.44
X4.9Y-3.54
X4.9Y-3.64
X5.0Y-3.44
X5.0Y-3.54
X5.0Y-3.64
X5.1Y-3.44
X5.1Y-3.54
X5.1Y-3.64
X6.1Y-2.7407
X6.1Y-2.8407
X6.1Y-2.9407
X6.2Y-2.7407
X6.2Y-2.8407
X6.2Y-2.9407
X6.3Y-2.7407
X6.3Y-2.8407
X6.3Y-2.9407
X6.4Y-3.6407
X6.4Y-3.7407
X6.4Y-3.8407
X6.5Y-3.6407
X6.5Y-3.7407
X6.5Y-3.8407
X6.6Y-3.6407
X6.6Y-3.7407
X6.6Y-3.8407
X7.0Y-3.7407
X7.0Y-3.8407
X7.0Y-3.9407
X7.1Y-3.7407
X7.1Y-3.8407
X7.1Y-3.9407
X7.2Y-3.7407
X7.2Y-3.8407
X7.2Y-3.9407
X4.3Y-2.0407
X7.0Y-2.4407
X7.0Y-2.5407
X7.1Y-2.4407
X7.1Y-2.5407
X4.6Y-2.0407
X6.2Y-5.3407
X6.2Y-5.4407
X6.3Y-5.3407
X6.3Y-5.4407
X4.1Y-3.8407
X4.1Y-3.9407
X4.2Y-3.8407
X4.2Y-3.9407
X6.1Y-4.2407
X5.33Y-5.4407
X4.3Y-2.1407
X4.3Y-2.2407
X4.3Y-2.3407
X4.4Y-2.1407
X4.4Y-2.2407
X4.4Y-2.3407
X4.5Y-2.1407
X4.5Y-2.2407
X4.5Y-2.3407
X3.8Y-4.7407
X5.2Y-2.0407
X6.2Y-4.8407
X6.2Y-4.9407
X6.3Y-4.8407
X6.3Y-4.9407
X7.2Y-4.5407
X7.2Y-4.6407
X7.3Y-4.5407
X7.3Y-4.6407
X4.9Y-3.3407
X6.3Y-2.0407
X4.2Y-1.8407
X4.2Y-1.9407
X4.3Y-1.8407
X4.3Y-1.9407
X7.2Y-3.2407
X7.2Y-3.3407
X7.3Y-3.2407
X7.3Y-3.3407
X5.2Y-1.8407
X5.2Y-1.9407
X5.3Y-1.8407
X5.3Y-1.9407
X4.1Y-2.4407
X4.1Y-2.5407
X4.2Y-2.4407
X4.2Y-2.5407
X6.7Y-2.6407
X6.7Y-2.7407
X6.7Y-2.8407
X6.8Y-2.6407
X6.8Y-2.7407
X6.8Y-2.8407
X6.9Y-2.6407
X6.9Y-2.7407
X6.9Y-2.8407
X5.0Y-1.8407
X5.0Y-1.9407
X5.1Y-1.8407
X5.1Y-1.9407
X4.9Y-2.0407
X4.6Y-3.9407
X4.6Y-4.0407
X4.6Y-4.1407
X4.7Y-3.9407
X4.7Y-4.0407
X4.7Y-4.1407
X4.8Y-3.9407
X4.8Y-4.0407
X4.8Y-4.1407
X4.1Y-4.4407
X4.1Y-4.5407
X4.2Y-4.4407
X4.2Y-4.5407
X4.7Y-5.0407
X4.7Y-5.1407
X4.8Y-5.0407
X4.8Y-5.1407
X6.1Y-2.1407
X6.1Y-2.2407
X6.1Y-2.3407
X6.2Y-2.1407
X6.2Y-2.2407
X6.2Y-2.3407
X6.3Y-2.1407
X6.3Y-2.2407
X6.3Y-2.3407
X5.1Y-5.2407
X5.75Y-3.4907
X4.9Y-5.4407
X5.55Y-3.4907
X6.3Y-5.2407
X6.1Y-2.4407
X6.1Y-2.5407
X6.1Y-2.6407
X6.2Y-2.4407
X6.2Y-2.5407
X6.2Y-2.6407
X6.3Y-2.4407
X6.3Y-2.5407
X6.3Y-2.6407
X6.1Y-3.3407
X6.1Y-3.4407
X6.1Y-3.5407
X6.2Y-3.3407
X6.2Y-3.4407
X6.2Y-3.5407
X6.3Y-3.3407
X6.3Y-3.4407
X6.3Y-3.5407
X4.3Y-4.2407
X4.3Y-4.3407
X4.3Y-4.4407
X4.4Y-4.2407
X4.4Y-4.3407
X4.4Y-4.4407
X4.5Y-4.2407
X4.5Y-4.3407
X4.5Y-4.4407
X6.7Y-3.1407
X6.7Y-3.2407
X6.7Y-3.3407
X6.8Y-3.1407
X6.8Y-3.2407
X6.8Y-3.3407
X6.9Y-3.1407
X6.9Y-3.2407
X6.9Y-3.3407
X4.9Y-4.64
X4.9Y-4.74
X4.9Y-4.84
X5.0Y-4.64
X5.0Y-4.74
X5.0Y-4.84
X5.1Y-4.64
X5.1Y-4.74
X5.1Y-4.84
X4.6Y-4.5407
X4.6Y-4.6407
X4.6Y-4.7407
X4.7Y-4.5407
X4.7Y-4.6407
X4.7Y-4.7407
X4.8Y-4.5407
X4.8Y-4.6407
X4.8Y-4.7407
X6.6Y-2.0407
X4.6Y-2.4407
X4.6Y-2.5407
X4.6Y-2.6407
X4.7Y-2.4407
X4.7Y-2.5407
X4.7Y-2.6407
X4.8Y-2.4407
X4.8Y-2.5407
X4.8Y-2.6407
X5.0Y-2.0407
X4.1Y-4.6407
X4.1Y-4.7407
X4.2Y-4.6407
X4.2Y-4.7407
X4.5Y-2.0407
X7.1Y-3.0407
X6.9Y-4.0407
X6.9Y-4.1407
X7.0Y-4.0407
X7.0Y-4.1407
X6.1Y-4.5407
X5.7Y-2.0407
X3.8Y-3.5407
X3.8Y-3.6407
X3.8Y-3.7407
X3.9Y-3.5407
X3.9Y-3.6407
X3.9Y-3.7407
X4.0Y-3.5407
X4.0Y-3.6407
X4.0Y-3.7407
X4.4Y-2.0407
X6.7Y-4.0407
X6.7Y-4.1407
X6.8Y-4.0407
X6.8Y-4.1407
X6.4Y-5.1407
X6.4Y-5.2407
X6.5Y-5.1407
X6.5Y-5.2407
X5.0Y-3.3407
X6.4Y-4.2407
X6.4Y-4.3407
X6.4Y-4.4407
X6.5Y-4.2407
X6.5Y-4.3407
X6.5Y-4.4407
X6.6Y-4.2407
X6.6Y-4.3407
X6.6Y-4.4407
X6.2Y-1.8407
X6.2Y-1.9407
X6.3Y-1.8407
X6.3Y-1.9407
X7.3Y-4.4407
X4.6Y-4.8407
X6.4Y-3.0407
X6.4Y-3.1407
X6.4Y-3.2407
X6.5Y-3.0407
X6.5Y-3.1407
X6.5Y-3.2407
X6.6Y-3.0407
X6.6Y-3.1407
X6.6Y-3.2407
X7.2Y-2.3407
X7.2Y-2.4407
X7.2Y-2.5407
X7.3Y-2.3407
X7.3Y-2.4407
X7.3Y-2.5407
X7.4Y-2.3407
X7.4Y-2.4407
X7.4Y-2.5407
X7.0Y-2.6407
X7.0Y-2.7407
X7.1Y-2.6407
X7.1Y-2.7407
X7.0Y-2.0407
X7.0Y-2.1407
X7.1Y-2.0407
X7.1Y-2.1407
X7.0Y-1.8407
X7.0Y-1.9407
X7.1Y-1.8407
X7.1Y-1.9407
X6.1Y-5.1415
X7.3Y-3.4407
X7.3Y-3.5407
X7.4Y-3.4407
X7.4Y-3.5407
X4.9Y-3.74
X4.9Y-3.84
X4.9Y-3.94
X5.0Y-3.74
X5.0Y-3.84
X5.0Y-3.94
X5.1Y-3.74
X5.1Y-3.84
X5.1Y-3.94
X5.2Y-2.7407
X5.2Y-2.8407
X5.2Y-2.9407
X5.3Y-2.7407
X5.3Y-2.8407
X5.3Y-2.9407
X5.4Y-2.7407
X5.4Y-2.8407
X5.4Y-2.9407
X3.8Y-2.0407
X3.8Y-2.1407
X3.8Y-2.2407
X3.9Y-2.0407
X3.9Y-2.1407
X3.9Y-2.2407
X4.0Y-2.0407
X4.0Y-2.1407
X4.0Y-2.2407
X4.9Y-2.7407
X4.9Y-2.8407
X4.9Y-2.9407
X5.0Y-2.7407
X5.0Y-2.8407
X5.0Y-2.9407
X5.1Y-2.7407
X5.1Y-2.8407
X5.1Y-2.9407
X6.1Y-3.0407
X6.1Y-3.1407
X6.1Y-3.2407
X6.2Y-3.0407
X6.2Y-3.1407
X6.2Y-3.2407
X6.3Y-3.0407
X6.3Y-3.1407
X6.3Y-3.2407
X3.8Y-4.1407
X3.8Y-4.2407
X3.8Y-4.3407
X3.9Y-4.1407
X3.9Y-4.2407
X3.9Y-4.3407
X4.0Y-4.1407
X4.0Y-4.2407
X4.0Y-4.3407
X4.9Y-2.4407
X4.9Y-2.5407
X4.9Y-2.6407
X5.0Y-2.4407
X5.0Y-2.5407
X5.0Y-2.6407
X5.1Y-2.4407
X5.1Y-2.5407
X5.1Y-2.6407
X5.2Y-2.4407
X5.2Y-2.5407
X5.2Y-2.6407
X5.3Y-2.4407
X5.3Y-2.5407
X5.3Y-2.6407
X5.4Y-2.4407
X5.4Y-2.5407
X5.4Y-2.6407
X6.2Y-5.2407
T7
X6.701Y-5.1157
X7.175Y-5.1157
T8
X3.7886Y-5.425
X3.7886Y-1.8157
X7.425Y-1.8157
X7.4Y-5.425
T2
G00X6.7872Y-5.5443
M15
G01X6.7872Y-5.5167
M16
G05
G00X7.0628Y-5.5167
M15
G01X7.0628Y-5.5443
M16
G05
T5
G00X4.1106Y-4.9407
M15
G01X4.1894Y-4.9407
M16
G05
G00X4.1106Y-5.177
M15
G01X4.1894Y-5.177
M16
G05
G00X4.335Y-5.0982
M15
G01X4.335Y-5.0195
M16
G05
T0
M30
