G04 #@! TF.GenerationSoftware,KiCad,Pcbnew,(5.1.5)-3*
G04 #@! TF.CreationDate,2020-07-30T21:21:22+02:00*
G04 #@! TF.ProjectId,BluePill_Breadboard,426c7565-5069-46c6-9c5f-427265616462,rev?*
G04 #@! TF.SameCoordinates,Original*
G04 #@! TF.FileFunction,Legend,Top*
G04 #@! TF.FilePolarity,Positive*
%FSLAX46Y46*%
G04 Gerber Fmt 4.6, Leading zero omitted, Abs format (unit mm)*
G04 Created by KiCad (PCBNEW (5.1.5)-3) date 2020-07-30 21:21:22*
%MOMM*%
%LPD*%
G04 APERTURE LIST*
%ADD10C,0.120000*%
%ADD11C,0.150000*%
%ADD12C,0.750000*%
%ADD13C,0.125000*%
%ADD14C,0.300000*%
%ADD15C,0.200000*%
%ADD16C,0.100000*%
%ADD17C,0.010000*%
%ADD18C,1.500000*%
G04 APERTURE END LIST*
D10*
X136652000Y-136906000D02*
X131572000Y-136906000D01*
X136652000Y-139446000D02*
X136652000Y-136906000D01*
X131572000Y-139446000D02*
X136652000Y-139446000D01*
X131572000Y-136906000D02*
X131572000Y-139446000D01*
X124460000Y-136906000D02*
X124206000Y-136652000D01*
X124460000Y-136906000D02*
X124714000Y-136652000D01*
X129286000Y-136652000D02*
X129540000Y-136906000D01*
X129794000Y-136652000D02*
X129540000Y-136906000D01*
X129540000Y-136906000D02*
X129794000Y-136652000D01*
X127000000Y-139446000D02*
X127254000Y-139700000D01*
X126746000Y-139700000D02*
X127000000Y-139446000D01*
X121920000Y-139446000D02*
X122174000Y-139700000D01*
X121666000Y-139700000D02*
X121920000Y-139446000D01*
D11*
X122452095Y-136294761D02*
X122594952Y-136342380D01*
X122833047Y-136342380D01*
X122928285Y-136294761D01*
X122975904Y-136247142D01*
X123023523Y-136151904D01*
X123023523Y-136056666D01*
X122975904Y-135961428D01*
X122928285Y-135913809D01*
X122833047Y-135866190D01*
X122642571Y-135818571D01*
X122547333Y-135770952D01*
X122499714Y-135723333D01*
X122452095Y-135628095D01*
X122452095Y-135532857D01*
X122499714Y-135437619D01*
X122547333Y-135390000D01*
X122642571Y-135342380D01*
X122880666Y-135342380D01*
X123023523Y-135390000D01*
X123356857Y-135342380D02*
X123594952Y-136342380D01*
X123785428Y-135628095D01*
X123975904Y-136342380D01*
X124214000Y-135342380D01*
X125166380Y-136247142D02*
X125118761Y-136294761D01*
X124975904Y-136342380D01*
X124880666Y-136342380D01*
X124737809Y-136294761D01*
X124642571Y-136199523D01*
X124594952Y-136104285D01*
X124547333Y-135913809D01*
X124547333Y-135770952D01*
X124594952Y-135580476D01*
X124642571Y-135485238D01*
X124737809Y-135390000D01*
X124880666Y-135342380D01*
X124975904Y-135342380D01*
X125118761Y-135390000D01*
X125166380Y-135437619D01*
X126071142Y-136342380D02*
X125594952Y-136342380D01*
X125594952Y-135342380D01*
X126404476Y-136342380D02*
X126404476Y-135342380D01*
X126975904Y-136342380D02*
X126547333Y-135770952D01*
X126975904Y-135342380D02*
X126404476Y-135913809D01*
X125619047Y-140866761D02*
X125761904Y-140914380D01*
X126000000Y-140914380D01*
X126095238Y-140866761D01*
X126142857Y-140819142D01*
X126190476Y-140723904D01*
X126190476Y-140628666D01*
X126142857Y-140533428D01*
X126095238Y-140485809D01*
X126000000Y-140438190D01*
X125809523Y-140390571D01*
X125714285Y-140342952D01*
X125666666Y-140295333D01*
X125619047Y-140200095D01*
X125619047Y-140104857D01*
X125666666Y-140009619D01*
X125714285Y-139962000D01*
X125809523Y-139914380D01*
X126047619Y-139914380D01*
X126190476Y-139962000D01*
X126523809Y-139914380D02*
X126761904Y-140914380D01*
X126952380Y-140200095D01*
X127142857Y-140914380D01*
X127380952Y-139914380D01*
X127952380Y-139914380D02*
X128142857Y-139914380D01*
X128238095Y-139962000D01*
X128333333Y-140057238D01*
X128380952Y-140247714D01*
X128380952Y-140581047D01*
X128333333Y-140771523D01*
X128238095Y-140866761D01*
X128142857Y-140914380D01*
X127952380Y-140914380D01*
X127857142Y-140866761D01*
X127761904Y-140771523D01*
X127714285Y-140581047D01*
X127714285Y-140247714D01*
X127761904Y-140057238D01*
X127857142Y-139962000D01*
X127952380Y-139914380D01*
X128301904Y-135342380D02*
X128920952Y-135342380D01*
X128587619Y-135723333D01*
X128730476Y-135723333D01*
X128825714Y-135770952D01*
X128873333Y-135818571D01*
X128920952Y-135913809D01*
X128920952Y-136151904D01*
X128873333Y-136247142D01*
X128825714Y-136294761D01*
X128730476Y-136342380D01*
X128444761Y-136342380D01*
X128349523Y-136294761D01*
X128301904Y-136247142D01*
X129206666Y-135342380D02*
X129540000Y-136342380D01*
X129873333Y-135342380D01*
X130111428Y-135342380D02*
X130730476Y-135342380D01*
X130397142Y-135723333D01*
X130540000Y-135723333D01*
X130635238Y-135770952D01*
X130682857Y-135818571D01*
X130730476Y-135913809D01*
X130730476Y-136151904D01*
X130682857Y-136247142D01*
X130635238Y-136294761D01*
X130540000Y-136342380D01*
X130254285Y-136342380D01*
X130159047Y-136294761D01*
X130111428Y-136247142D01*
X121158095Y-139962000D02*
X121062857Y-139914380D01*
X120920000Y-139914380D01*
X120777142Y-139962000D01*
X120681904Y-140057238D01*
X120634285Y-140152476D01*
X120586666Y-140342952D01*
X120586666Y-140485809D01*
X120634285Y-140676285D01*
X120681904Y-140771523D01*
X120777142Y-140866761D01*
X120920000Y-140914380D01*
X121015238Y-140914380D01*
X121158095Y-140866761D01*
X121205714Y-140819142D01*
X121205714Y-140485809D01*
X121015238Y-140485809D01*
X121634285Y-140914380D02*
X121634285Y-139914380D01*
X122205714Y-140914380D01*
X122205714Y-139914380D01*
X122681904Y-140914380D02*
X122681904Y-139914380D01*
X122920000Y-139914380D01*
X123062857Y-139962000D01*
X123158095Y-140057238D01*
X123205714Y-140152476D01*
X123253333Y-140342952D01*
X123253333Y-140485809D01*
X123205714Y-140676285D01*
X123158095Y-140771523D01*
X123062857Y-140866761D01*
X122920000Y-140914380D01*
X122681904Y-140914380D01*
D12*
X133604000Y-138176000D02*
X134874000Y-138176000D01*
D10*
X155702000Y-89154000D02*
X156718000Y-89154000D01*
X136652000Y-122428000D02*
X138684000Y-122428000D01*
D11*
X136868571Y-122027904D02*
X136868571Y-121227904D01*
X137173333Y-121227904D01*
X137249523Y-121266000D01*
X137287619Y-121304095D01*
X137325714Y-121380285D01*
X137325714Y-121494571D01*
X137287619Y-121570761D01*
X137249523Y-121608857D01*
X137173333Y-121646952D01*
X136868571Y-121646952D01*
X137668571Y-122027904D02*
X137668571Y-121227904D01*
X138049523Y-122027904D02*
X138049523Y-121227904D01*
X138506666Y-122027904D01*
X138506666Y-121227904D01*
X139497142Y-121723142D02*
X140106666Y-121723142D01*
X141478095Y-121227904D02*
X141097142Y-121227904D01*
X141059047Y-121608857D01*
X141097142Y-121570761D01*
X141173333Y-121532666D01*
X141363809Y-121532666D01*
X141440000Y-121570761D01*
X141478095Y-121608857D01*
X141516190Y-121685047D01*
X141516190Y-121875523D01*
X141478095Y-121951714D01*
X141440000Y-121989809D01*
X141363809Y-122027904D01*
X141173333Y-122027904D01*
X141097142Y-121989809D01*
X141059047Y-121951714D01*
X141744761Y-121227904D02*
X142011428Y-122027904D01*
X142278095Y-121227904D01*
X143040000Y-121227904D02*
X143497142Y-121227904D01*
X143268571Y-122027904D02*
X143268571Y-121227904D01*
X143878095Y-122027904D02*
X143801904Y-121989809D01*
X143763809Y-121951714D01*
X143725714Y-121875523D01*
X143725714Y-121646952D01*
X143763809Y-121570761D01*
X143801904Y-121532666D01*
X143878095Y-121494571D01*
X143992380Y-121494571D01*
X144068571Y-121532666D01*
X144106666Y-121570761D01*
X144144761Y-121646952D01*
X144144761Y-121875523D01*
X144106666Y-121951714D01*
X144068571Y-121989809D01*
X143992380Y-122027904D01*
X143878095Y-122027904D01*
X144601904Y-122027904D02*
X144525714Y-121989809D01*
X144487619Y-121913619D01*
X144487619Y-121227904D01*
X145211428Y-121989809D02*
X145135238Y-122027904D01*
X144982857Y-122027904D01*
X144906666Y-121989809D01*
X144868571Y-121913619D01*
X144868571Y-121608857D01*
X144906666Y-121532666D01*
X144982857Y-121494571D01*
X145135238Y-121494571D01*
X145211428Y-121532666D01*
X145249523Y-121608857D01*
X145249523Y-121685047D01*
X144868571Y-121761238D01*
X145592380Y-122027904D02*
X145592380Y-121494571D01*
X145592380Y-121646952D02*
X145630476Y-121570761D01*
X145668571Y-121532666D01*
X145744761Y-121494571D01*
X145820952Y-121494571D01*
X146430476Y-122027904D02*
X146430476Y-121608857D01*
X146392380Y-121532666D01*
X146316190Y-121494571D01*
X146163809Y-121494571D01*
X146087619Y-121532666D01*
X146430476Y-121989809D02*
X146354285Y-122027904D01*
X146163809Y-122027904D01*
X146087619Y-121989809D01*
X146049523Y-121913619D01*
X146049523Y-121837428D01*
X146087619Y-121761238D01*
X146163809Y-121723142D01*
X146354285Y-121723142D01*
X146430476Y-121685047D01*
X146811428Y-121494571D02*
X146811428Y-122027904D01*
X146811428Y-121570761D02*
X146849523Y-121532666D01*
X146925714Y-121494571D01*
X147040000Y-121494571D01*
X147116190Y-121532666D01*
X147154285Y-121608857D01*
X147154285Y-122027904D01*
X147420952Y-121494571D02*
X147725714Y-121494571D01*
X147535238Y-121227904D02*
X147535238Y-121913619D01*
X147573333Y-121989809D01*
X147649523Y-122027904D01*
X147725714Y-122027904D01*
X137611428Y-119995904D02*
X137611428Y-119195904D01*
X137916190Y-119195904D01*
X137992380Y-119234000D01*
X138030476Y-119272095D01*
X138068571Y-119348285D01*
X138068571Y-119462571D01*
X138030476Y-119538761D01*
X137992380Y-119576857D01*
X137916190Y-119614952D01*
X137611428Y-119614952D01*
X138411428Y-119995904D02*
X138411428Y-119195904D01*
X138792380Y-119995904D02*
X138792380Y-119195904D01*
X139249523Y-119995904D01*
X139249523Y-119195904D01*
X140240000Y-119691142D02*
X140849523Y-119691142D01*
X141763809Y-119195904D02*
X142259047Y-119195904D01*
X141992380Y-119500666D01*
X142106666Y-119500666D01*
X142182857Y-119538761D01*
X142220952Y-119576857D01*
X142259047Y-119653047D01*
X142259047Y-119843523D01*
X142220952Y-119919714D01*
X142182857Y-119957809D01*
X142106666Y-119995904D01*
X141878095Y-119995904D01*
X141801904Y-119957809D01*
X141763809Y-119919714D01*
X142487619Y-119195904D02*
X142754285Y-119995904D01*
X143020952Y-119195904D01*
X143211428Y-119195904D02*
X143706666Y-119195904D01*
X143440000Y-119500666D01*
X143554285Y-119500666D01*
X143630476Y-119538761D01*
X143668571Y-119576857D01*
X143706666Y-119653047D01*
X143706666Y-119843523D01*
X143668571Y-119919714D01*
X143630476Y-119957809D01*
X143554285Y-119995904D01*
X143325714Y-119995904D01*
X143249523Y-119957809D01*
X143211428Y-119919714D01*
X144811428Y-119195904D02*
X144963809Y-119195904D01*
X145040000Y-119234000D01*
X145116190Y-119310190D01*
X145154285Y-119462571D01*
X145154285Y-119729238D01*
X145116190Y-119881619D01*
X145040000Y-119957809D01*
X144963809Y-119995904D01*
X144811428Y-119995904D01*
X144735238Y-119957809D01*
X144659047Y-119881619D01*
X144620952Y-119729238D01*
X144620952Y-119462571D01*
X144659047Y-119310190D01*
X144735238Y-119234000D01*
X144811428Y-119195904D01*
X145497142Y-119462571D02*
X145497142Y-119995904D01*
X145497142Y-119538761D02*
X145535238Y-119500666D01*
X145611428Y-119462571D01*
X145725714Y-119462571D01*
X145801904Y-119500666D01*
X145840000Y-119576857D01*
X145840000Y-119995904D01*
X146335238Y-119995904D02*
X146259047Y-119957809D01*
X146220952Y-119881619D01*
X146220952Y-119195904D01*
X146563809Y-119462571D02*
X146754285Y-119995904D01*
X146944761Y-119462571D02*
X146754285Y-119995904D01*
X146678095Y-120186380D01*
X146640000Y-120224476D01*
X146563809Y-120262571D01*
X139525714Y-109404571D02*
X139668571Y-109452190D01*
X139716190Y-109499809D01*
X139763809Y-109595047D01*
X139763809Y-109737904D01*
X139716190Y-109833142D01*
X139668571Y-109880761D01*
X139573333Y-109928380D01*
X139192380Y-109928380D01*
X139192380Y-108928380D01*
X139525714Y-108928380D01*
X139620952Y-108976000D01*
X139668571Y-109023619D01*
X139716190Y-109118857D01*
X139716190Y-109214095D01*
X139668571Y-109309333D01*
X139620952Y-109356952D01*
X139525714Y-109404571D01*
X139192380Y-109404571D01*
X140335238Y-109928380D02*
X140240000Y-109880761D01*
X140192380Y-109785523D01*
X140192380Y-108928380D01*
X141144761Y-109261714D02*
X141144761Y-109928380D01*
X140716190Y-109261714D02*
X140716190Y-109785523D01*
X140763809Y-109880761D01*
X140859047Y-109928380D01*
X141001904Y-109928380D01*
X141097142Y-109880761D01*
X141144761Y-109833142D01*
X142001904Y-109880761D02*
X141906666Y-109928380D01*
X141716190Y-109928380D01*
X141620952Y-109880761D01*
X141573333Y-109785523D01*
X141573333Y-109404571D01*
X141620952Y-109309333D01*
X141716190Y-109261714D01*
X141906666Y-109261714D01*
X142001904Y-109309333D01*
X142049523Y-109404571D01*
X142049523Y-109499809D01*
X141573333Y-109595047D01*
X142478095Y-109928380D02*
X142478095Y-108928380D01*
X142859047Y-108928380D01*
X142954285Y-108976000D01*
X143001904Y-109023619D01*
X143049523Y-109118857D01*
X143049523Y-109261714D01*
X143001904Y-109356952D01*
X142954285Y-109404571D01*
X142859047Y-109452190D01*
X142478095Y-109452190D01*
X143478095Y-109928380D02*
X143478095Y-109261714D01*
X143478095Y-108928380D02*
X143430476Y-108976000D01*
X143478095Y-109023619D01*
X143525714Y-108976000D01*
X143478095Y-108928380D01*
X143478095Y-109023619D01*
X144097142Y-109928380D02*
X144001904Y-109880761D01*
X143954285Y-109785523D01*
X143954285Y-108928380D01*
X144620952Y-109928380D02*
X144525714Y-109880761D01*
X144478095Y-109785523D01*
X144478095Y-108928380D01*
X136906666Y-111959333D02*
X136859047Y-111911714D01*
X136763809Y-111768857D01*
X136716190Y-111673619D01*
X136668571Y-111530761D01*
X136620952Y-111292666D01*
X136620952Y-111102190D01*
X136668571Y-110864095D01*
X136716190Y-110721238D01*
X136763809Y-110626000D01*
X136859047Y-110483142D01*
X136906666Y-110435523D01*
X137859047Y-111483142D02*
X137811428Y-111530761D01*
X137668571Y-111578380D01*
X137573333Y-111578380D01*
X137430476Y-111530761D01*
X137335238Y-111435523D01*
X137287619Y-111340285D01*
X137240000Y-111149809D01*
X137240000Y-111006952D01*
X137287619Y-110816476D01*
X137335238Y-110721238D01*
X137430476Y-110626000D01*
X137573333Y-110578380D01*
X137668571Y-110578380D01*
X137811428Y-110626000D01*
X137859047Y-110673619D01*
X138287619Y-111578380D02*
X138287619Y-110578380D01*
X138716190Y-111578380D02*
X138716190Y-111054571D01*
X138668571Y-110959333D01*
X138573333Y-110911714D01*
X138430476Y-110911714D01*
X138335238Y-110959333D01*
X138287619Y-111006952D01*
X139192380Y-111578380D02*
X139192380Y-110911714D01*
X139192380Y-110578380D02*
X139144761Y-110626000D01*
X139192380Y-110673619D01*
X139240000Y-110626000D01*
X139192380Y-110578380D01*
X139192380Y-110673619D01*
X139668571Y-110911714D02*
X139668571Y-111578380D01*
X139668571Y-111006952D02*
X139716190Y-110959333D01*
X139811428Y-110911714D01*
X139954285Y-110911714D01*
X140049523Y-110959333D01*
X140097142Y-111054571D01*
X140097142Y-111578380D01*
X141001904Y-111578380D02*
X141001904Y-111054571D01*
X140954285Y-110959333D01*
X140859047Y-110911714D01*
X140668571Y-110911714D01*
X140573333Y-110959333D01*
X141001904Y-111530761D02*
X140906666Y-111578380D01*
X140668571Y-111578380D01*
X140573333Y-111530761D01*
X140525714Y-111435523D01*
X140525714Y-111340285D01*
X140573333Y-111245047D01*
X140668571Y-111197428D01*
X140906666Y-111197428D01*
X141001904Y-111149809D01*
X142097142Y-110578380D02*
X142430476Y-111578380D01*
X142763809Y-110578380D01*
X143478095Y-111530761D02*
X143382857Y-111578380D01*
X143192380Y-111578380D01*
X143097142Y-111530761D01*
X143049523Y-111435523D01*
X143049523Y-111054571D01*
X143097142Y-110959333D01*
X143192380Y-110911714D01*
X143382857Y-110911714D01*
X143478095Y-110959333D01*
X143525714Y-111054571D01*
X143525714Y-111149809D01*
X143049523Y-111245047D01*
X143954285Y-111578380D02*
X143954285Y-110911714D01*
X143954285Y-111102190D02*
X144001904Y-111006952D01*
X144049523Y-110959333D01*
X144144761Y-110911714D01*
X144240000Y-110911714D01*
X144525714Y-111530761D02*
X144620952Y-111578380D01*
X144811428Y-111578380D01*
X144906666Y-111530761D01*
X144954285Y-111435523D01*
X144954285Y-111387904D01*
X144906666Y-111292666D01*
X144811428Y-111245047D01*
X144668571Y-111245047D01*
X144573333Y-111197428D01*
X144525714Y-111102190D01*
X144525714Y-111054571D01*
X144573333Y-110959333D01*
X144668571Y-110911714D01*
X144811428Y-110911714D01*
X144906666Y-110959333D01*
X145382857Y-111578380D02*
X145382857Y-110911714D01*
X145382857Y-110578380D02*
X145335238Y-110626000D01*
X145382857Y-110673619D01*
X145430476Y-110626000D01*
X145382857Y-110578380D01*
X145382857Y-110673619D01*
X146001904Y-111578380D02*
X145906666Y-111530761D01*
X145859047Y-111483142D01*
X145811428Y-111387904D01*
X145811428Y-111102190D01*
X145859047Y-111006952D01*
X145906666Y-110959333D01*
X146001904Y-110911714D01*
X146144761Y-110911714D01*
X146240000Y-110959333D01*
X146287619Y-111006952D01*
X146335238Y-111102190D01*
X146335238Y-111387904D01*
X146287619Y-111483142D01*
X146240000Y-111530761D01*
X146144761Y-111578380D01*
X146001904Y-111578380D01*
X146763809Y-110911714D02*
X146763809Y-111578380D01*
X146763809Y-111006952D02*
X146811428Y-110959333D01*
X146906666Y-110911714D01*
X147049523Y-110911714D01*
X147144761Y-110959333D01*
X147192380Y-111054571D01*
X147192380Y-111578380D01*
X147573333Y-111959333D02*
X147620952Y-111911714D01*
X147716190Y-111768857D01*
X147763809Y-111673619D01*
X147811428Y-111530761D01*
X147859047Y-111292666D01*
X147859047Y-111102190D01*
X147811428Y-110864095D01*
X147763809Y-110721238D01*
X147716190Y-110626000D01*
X147620952Y-110483142D01*
X147573333Y-110435523D01*
X138549523Y-112704571D02*
X138692380Y-112752190D01*
X138740000Y-112799809D01*
X138787619Y-112895047D01*
X138787619Y-113037904D01*
X138740000Y-113133142D01*
X138692380Y-113180761D01*
X138597142Y-113228380D01*
X138216190Y-113228380D01*
X138216190Y-112228380D01*
X138549523Y-112228380D01*
X138644761Y-112276000D01*
X138692380Y-112323619D01*
X138740000Y-112418857D01*
X138740000Y-112514095D01*
X138692380Y-112609333D01*
X138644761Y-112656952D01*
X138549523Y-112704571D01*
X138216190Y-112704571D01*
X139216190Y-113228380D02*
X139216190Y-112561714D01*
X139216190Y-112752190D02*
X139263809Y-112656952D01*
X139311428Y-112609333D01*
X139406666Y-112561714D01*
X139501904Y-112561714D01*
X140216190Y-113180761D02*
X140120952Y-113228380D01*
X139930476Y-113228380D01*
X139835238Y-113180761D01*
X139787619Y-113085523D01*
X139787619Y-112704571D01*
X139835238Y-112609333D01*
X139930476Y-112561714D01*
X140120952Y-112561714D01*
X140216190Y-112609333D01*
X140263809Y-112704571D01*
X140263809Y-112799809D01*
X139787619Y-112895047D01*
X141120952Y-113228380D02*
X141120952Y-112704571D01*
X141073333Y-112609333D01*
X140978095Y-112561714D01*
X140787619Y-112561714D01*
X140692380Y-112609333D01*
X141120952Y-113180761D02*
X141025714Y-113228380D01*
X140787619Y-113228380D01*
X140692380Y-113180761D01*
X140644761Y-113085523D01*
X140644761Y-112990285D01*
X140692380Y-112895047D01*
X140787619Y-112847428D01*
X141025714Y-112847428D01*
X141120952Y-112799809D01*
X142025714Y-113228380D02*
X142025714Y-112228380D01*
X142025714Y-113180761D02*
X141930476Y-113228380D01*
X141740000Y-113228380D01*
X141644761Y-113180761D01*
X141597142Y-113133142D01*
X141549523Y-113037904D01*
X141549523Y-112752190D01*
X141597142Y-112656952D01*
X141644761Y-112609333D01*
X141740000Y-112561714D01*
X141930476Y-112561714D01*
X142025714Y-112609333D01*
X142501904Y-113228380D02*
X142501904Y-112228380D01*
X142501904Y-112609333D02*
X142597142Y-112561714D01*
X142787619Y-112561714D01*
X142882857Y-112609333D01*
X142930476Y-112656952D01*
X142978095Y-112752190D01*
X142978095Y-113037904D01*
X142930476Y-113133142D01*
X142882857Y-113180761D01*
X142787619Y-113228380D01*
X142597142Y-113228380D01*
X142501904Y-113180761D01*
X143549523Y-113228380D02*
X143454285Y-113180761D01*
X143406666Y-113133142D01*
X143359047Y-113037904D01*
X143359047Y-112752190D01*
X143406666Y-112656952D01*
X143454285Y-112609333D01*
X143549523Y-112561714D01*
X143692380Y-112561714D01*
X143787619Y-112609333D01*
X143835238Y-112656952D01*
X143882857Y-112752190D01*
X143882857Y-113037904D01*
X143835238Y-113133142D01*
X143787619Y-113180761D01*
X143692380Y-113228380D01*
X143549523Y-113228380D01*
X144740000Y-113228380D02*
X144740000Y-112704571D01*
X144692380Y-112609333D01*
X144597142Y-112561714D01*
X144406666Y-112561714D01*
X144311428Y-112609333D01*
X144740000Y-113180761D02*
X144644761Y-113228380D01*
X144406666Y-113228380D01*
X144311428Y-113180761D01*
X144263809Y-113085523D01*
X144263809Y-112990285D01*
X144311428Y-112895047D01*
X144406666Y-112847428D01*
X144644761Y-112847428D01*
X144740000Y-112799809D01*
X145216190Y-113228380D02*
X145216190Y-112561714D01*
X145216190Y-112752190D02*
X145263809Y-112656952D01*
X145311428Y-112609333D01*
X145406666Y-112561714D01*
X145501904Y-112561714D01*
X146263809Y-113228380D02*
X146263809Y-112228380D01*
X146263809Y-113180761D02*
X146168571Y-113228380D01*
X145978095Y-113228380D01*
X145882857Y-113180761D01*
X145835238Y-113133142D01*
X145787619Y-113037904D01*
X145787619Y-112752190D01*
X145835238Y-112656952D01*
X145882857Y-112609333D01*
X145978095Y-112561714D01*
X146168571Y-112561714D01*
X146263809Y-112609333D01*
X138168571Y-114830761D02*
X138311428Y-114878380D01*
X138549523Y-114878380D01*
X138644761Y-114830761D01*
X138692380Y-114783142D01*
X138740000Y-114687904D01*
X138740000Y-114592666D01*
X138692380Y-114497428D01*
X138644761Y-114449809D01*
X138549523Y-114402190D01*
X138359047Y-114354571D01*
X138263809Y-114306952D01*
X138216190Y-114259333D01*
X138168571Y-114164095D01*
X138168571Y-114068857D01*
X138216190Y-113973619D01*
X138263809Y-113926000D01*
X138359047Y-113878380D01*
X138597142Y-113878380D01*
X138740000Y-113926000D01*
X139168571Y-114878380D02*
X139168571Y-113878380D01*
X139597142Y-114878380D02*
X139597142Y-114354571D01*
X139549523Y-114259333D01*
X139454285Y-114211714D01*
X139311428Y-114211714D01*
X139216190Y-114259333D01*
X139168571Y-114306952D01*
X140073333Y-114878380D02*
X140073333Y-114211714D01*
X140073333Y-113878380D02*
X140025714Y-113926000D01*
X140073333Y-113973619D01*
X140120952Y-113926000D01*
X140073333Y-113878380D01*
X140073333Y-113973619D01*
X140930476Y-114830761D02*
X140835238Y-114878380D01*
X140644761Y-114878380D01*
X140549523Y-114830761D01*
X140501904Y-114735523D01*
X140501904Y-114354571D01*
X140549523Y-114259333D01*
X140644761Y-114211714D01*
X140835238Y-114211714D01*
X140930476Y-114259333D01*
X140978095Y-114354571D01*
X140978095Y-114449809D01*
X140501904Y-114545047D01*
X141549523Y-114878380D02*
X141454285Y-114830761D01*
X141406666Y-114735523D01*
X141406666Y-113878380D01*
X142359047Y-114878380D02*
X142359047Y-113878380D01*
X142359047Y-114830761D02*
X142263809Y-114878380D01*
X142073333Y-114878380D01*
X141978095Y-114830761D01*
X141930476Y-114783142D01*
X141882857Y-114687904D01*
X141882857Y-114402190D01*
X141930476Y-114306952D01*
X141978095Y-114259333D01*
X142073333Y-114211714D01*
X142263809Y-114211714D01*
X142359047Y-114259333D01*
X143501904Y-114211714D02*
X143740000Y-114878380D01*
X143978095Y-114211714D01*
X144882857Y-114878380D02*
X144311428Y-114878380D01*
X144597142Y-114878380D02*
X144597142Y-113878380D01*
X144501904Y-114021238D01*
X144406666Y-114116476D01*
X144311428Y-114164095D01*
X145311428Y-114783142D02*
X145359047Y-114830761D01*
X145311428Y-114878380D01*
X145263809Y-114830761D01*
X145311428Y-114783142D01*
X145311428Y-114878380D01*
X145978095Y-113878380D02*
X146073333Y-113878380D01*
X146168571Y-113926000D01*
X146216190Y-113973619D01*
X146263809Y-114068857D01*
X146311428Y-114259333D01*
X146311428Y-114497428D01*
X146263809Y-114687904D01*
X146216190Y-114783142D01*
X146168571Y-114830761D01*
X146073333Y-114878380D01*
X145978095Y-114878380D01*
X145882857Y-114830761D01*
X145835238Y-114783142D01*
X145787619Y-114687904D01*
X145740000Y-114497428D01*
X145740000Y-114259333D01*
X145787619Y-114068857D01*
X145835238Y-113973619D01*
X145882857Y-113926000D01*
X145978095Y-113878380D01*
X137716190Y-116528380D02*
X137716190Y-115528380D01*
X137716190Y-115909333D02*
X137811428Y-115861714D01*
X138001904Y-115861714D01*
X138097142Y-115909333D01*
X138144761Y-115956952D01*
X138192380Y-116052190D01*
X138192380Y-116337904D01*
X138144761Y-116433142D01*
X138097142Y-116480761D01*
X138001904Y-116528380D01*
X137811428Y-116528380D01*
X137716190Y-116480761D01*
X138525714Y-115861714D02*
X138763809Y-116528380D01*
X139001904Y-115861714D02*
X138763809Y-116528380D01*
X138668571Y-116766476D01*
X138620952Y-116814095D01*
X138525714Y-116861714D01*
X140763809Y-116052190D02*
X140716190Y-116004571D01*
X140620952Y-115956952D01*
X140525714Y-115956952D01*
X140430476Y-116004571D01*
X140382857Y-116052190D01*
X140335238Y-116147428D01*
X140335238Y-116242666D01*
X140382857Y-116337904D01*
X140430476Y-116385523D01*
X140525714Y-116433142D01*
X140620952Y-116433142D01*
X140716190Y-116385523D01*
X140763809Y-116337904D01*
X140763809Y-115956952D02*
X140763809Y-116337904D01*
X140811428Y-116385523D01*
X140859047Y-116385523D01*
X140954285Y-116337904D01*
X141001904Y-116242666D01*
X141001904Y-116004571D01*
X140906666Y-115861714D01*
X140763809Y-115766476D01*
X140573333Y-115718857D01*
X140382857Y-115766476D01*
X140240000Y-115861714D01*
X140144761Y-116004571D01*
X140097142Y-116195047D01*
X140144761Y-116385523D01*
X140240000Y-116528380D01*
X140382857Y-116623619D01*
X140573333Y-116671238D01*
X140763809Y-116623619D01*
X140906666Y-116528380D01*
X141430476Y-116528380D02*
X141430476Y-115528380D01*
X141430476Y-116004571D02*
X142001904Y-116004571D01*
X142001904Y-116528380D02*
X142001904Y-115528380D01*
X142478095Y-116528380D02*
X142478095Y-115861714D01*
X142478095Y-115528380D02*
X142430476Y-115576000D01*
X142478095Y-115623619D01*
X142525714Y-115576000D01*
X142478095Y-115528380D01*
X142478095Y-115623619D01*
X142811428Y-115861714D02*
X143192380Y-115861714D01*
X142954285Y-115528380D02*
X142954285Y-116385523D01*
X143001904Y-116480761D01*
X143097142Y-116528380D01*
X143192380Y-116528380D01*
X143525714Y-116528380D02*
X143525714Y-115861714D01*
X143525714Y-115956952D02*
X143573333Y-115909333D01*
X143668571Y-115861714D01*
X143811428Y-115861714D01*
X143906666Y-115909333D01*
X143954285Y-116004571D01*
X143954285Y-116528380D01*
X143954285Y-116004571D02*
X144001904Y-115909333D01*
X144097142Y-115861714D01*
X144239999Y-115861714D01*
X144335238Y-115909333D01*
X144382857Y-116004571D01*
X144382857Y-116528380D01*
X145287619Y-116528380D02*
X145287619Y-116004571D01*
X145239999Y-115909333D01*
X145144761Y-115861714D01*
X144954285Y-115861714D01*
X144859047Y-115909333D01*
X145287619Y-116480761D02*
X145192380Y-116528380D01*
X144954285Y-116528380D01*
X144859047Y-116480761D01*
X144811428Y-116385523D01*
X144811428Y-116290285D01*
X144859047Y-116195047D01*
X144954285Y-116147428D01*
X145192380Y-116147428D01*
X145287619Y-116099809D01*
X145763809Y-116528380D02*
X145763809Y-115861714D01*
X145763809Y-116052190D02*
X145811428Y-115956952D01*
X145859047Y-115909333D01*
X145954285Y-115861714D01*
X146049523Y-115861714D01*
X146763809Y-116480761D02*
X146668571Y-116528380D01*
X146478095Y-116528380D01*
X146382857Y-116480761D01*
X146335238Y-116385523D01*
X146335238Y-116004571D01*
X146382857Y-115909333D01*
X146478095Y-115861714D01*
X146668571Y-115861714D01*
X146763809Y-115909333D01*
X146811428Y-116004571D01*
X146811428Y-116099809D01*
X146335238Y-116195047D01*
D10*
X127508000Y-119634000D02*
X129032000Y-119634000D01*
X127508000Y-122174000D02*
X129032000Y-122174000D01*
X155448000Y-132334000D02*
X156972000Y-132334000D01*
X155448000Y-129794000D02*
X156972000Y-129794000D01*
X155448000Y-127254000D02*
X156972000Y-127254000D01*
X155448000Y-124714000D02*
X156972000Y-124714000D01*
X155448000Y-122174000D02*
X156972000Y-122174000D01*
X155448000Y-119634000D02*
X156972000Y-119634000D01*
X155448000Y-117094000D02*
X156972000Y-117094000D01*
X155448000Y-114554000D02*
X156972000Y-114554000D01*
X155448000Y-112014000D02*
X156972000Y-112014000D01*
X155448000Y-109474000D02*
X156972000Y-109474000D01*
X155448000Y-104394000D02*
X156972000Y-104394000D01*
X155448000Y-99314000D02*
X156972000Y-99314000D01*
X155448000Y-96774000D02*
X156972000Y-96774000D01*
X155448000Y-94234000D02*
X156972000Y-94234000D01*
X155448000Y-91694000D02*
X156972000Y-91694000D01*
D13*
X155352857Y-132052190D02*
X155352857Y-131552190D01*
X155543333Y-131552190D01*
X155590952Y-131576000D01*
X155614761Y-131599809D01*
X155638571Y-131647428D01*
X155638571Y-131718857D01*
X155614761Y-131766476D01*
X155590952Y-131790285D01*
X155543333Y-131814095D01*
X155352857Y-131814095D01*
X156019523Y-131790285D02*
X156090952Y-131814095D01*
X156114761Y-131837904D01*
X156138571Y-131885523D01*
X156138571Y-131956952D01*
X156114761Y-132004571D01*
X156090952Y-132028380D01*
X156043333Y-132052190D01*
X155852857Y-132052190D01*
X155852857Y-131552190D01*
X156019523Y-131552190D01*
X156067142Y-131576000D01*
X156090952Y-131599809D01*
X156114761Y-131647428D01*
X156114761Y-131695047D01*
X156090952Y-131742666D01*
X156067142Y-131766476D01*
X156019523Y-131790285D01*
X155852857Y-131790285D01*
X156614761Y-132052190D02*
X156329047Y-132052190D01*
X156471904Y-132052190D02*
X156471904Y-131552190D01*
X156424285Y-131623619D01*
X156376666Y-131671238D01*
X156329047Y-131695047D01*
X156805238Y-131599809D02*
X156829047Y-131576000D01*
X156876666Y-131552190D01*
X156995714Y-131552190D01*
X157043333Y-131576000D01*
X157067142Y-131599809D01*
X157090952Y-131647428D01*
X157090952Y-131695047D01*
X157067142Y-131766476D01*
X156781428Y-132052190D01*
X157090952Y-132052190D01*
X155352857Y-129512190D02*
X155352857Y-129012190D01*
X155543333Y-129012190D01*
X155590952Y-129036000D01*
X155614761Y-129059809D01*
X155638571Y-129107428D01*
X155638571Y-129178857D01*
X155614761Y-129226476D01*
X155590952Y-129250285D01*
X155543333Y-129274095D01*
X155352857Y-129274095D01*
X156019523Y-129250285D02*
X156090952Y-129274095D01*
X156114761Y-129297904D01*
X156138571Y-129345523D01*
X156138571Y-129416952D01*
X156114761Y-129464571D01*
X156090952Y-129488380D01*
X156043333Y-129512190D01*
X155852857Y-129512190D01*
X155852857Y-129012190D01*
X156019523Y-129012190D01*
X156067142Y-129036000D01*
X156090952Y-129059809D01*
X156114761Y-129107428D01*
X156114761Y-129155047D01*
X156090952Y-129202666D01*
X156067142Y-129226476D01*
X156019523Y-129250285D01*
X155852857Y-129250285D01*
X156614761Y-129512190D02*
X156329047Y-129512190D01*
X156471904Y-129512190D02*
X156471904Y-129012190D01*
X156424285Y-129083619D01*
X156376666Y-129131238D01*
X156329047Y-129155047D01*
X156781428Y-129012190D02*
X157090952Y-129012190D01*
X156924285Y-129202666D01*
X156995714Y-129202666D01*
X157043333Y-129226476D01*
X157067142Y-129250285D01*
X157090952Y-129297904D01*
X157090952Y-129416952D01*
X157067142Y-129464571D01*
X157043333Y-129488380D01*
X156995714Y-129512190D01*
X156852857Y-129512190D01*
X156805238Y-129488380D01*
X156781428Y-129464571D01*
X155352857Y-126972190D02*
X155352857Y-126472190D01*
X155543333Y-126472190D01*
X155590952Y-126496000D01*
X155614761Y-126519809D01*
X155638571Y-126567428D01*
X155638571Y-126638857D01*
X155614761Y-126686476D01*
X155590952Y-126710285D01*
X155543333Y-126734095D01*
X155352857Y-126734095D01*
X156019523Y-126710285D02*
X156090952Y-126734095D01*
X156114761Y-126757904D01*
X156138571Y-126805523D01*
X156138571Y-126876952D01*
X156114761Y-126924571D01*
X156090952Y-126948380D01*
X156043333Y-126972190D01*
X155852857Y-126972190D01*
X155852857Y-126472190D01*
X156019523Y-126472190D01*
X156067142Y-126496000D01*
X156090952Y-126519809D01*
X156114761Y-126567428D01*
X156114761Y-126615047D01*
X156090952Y-126662666D01*
X156067142Y-126686476D01*
X156019523Y-126710285D01*
X155852857Y-126710285D01*
X156614761Y-126972190D02*
X156329047Y-126972190D01*
X156471904Y-126972190D02*
X156471904Y-126472190D01*
X156424285Y-126543619D01*
X156376666Y-126591238D01*
X156329047Y-126615047D01*
X157043333Y-126638857D02*
X157043333Y-126972190D01*
X156924285Y-126448380D02*
X156805238Y-126805523D01*
X157114761Y-126805523D01*
X155352857Y-124432190D02*
X155352857Y-123932190D01*
X155543333Y-123932190D01*
X155590952Y-123956000D01*
X155614761Y-123979809D01*
X155638571Y-124027428D01*
X155638571Y-124098857D01*
X155614761Y-124146476D01*
X155590952Y-124170285D01*
X155543333Y-124194095D01*
X155352857Y-124194095D01*
X156019523Y-124170285D02*
X156090952Y-124194095D01*
X156114761Y-124217904D01*
X156138571Y-124265523D01*
X156138571Y-124336952D01*
X156114761Y-124384571D01*
X156090952Y-124408380D01*
X156043333Y-124432190D01*
X155852857Y-124432190D01*
X155852857Y-123932190D01*
X156019523Y-123932190D01*
X156067142Y-123956000D01*
X156090952Y-123979809D01*
X156114761Y-124027428D01*
X156114761Y-124075047D01*
X156090952Y-124122666D01*
X156067142Y-124146476D01*
X156019523Y-124170285D01*
X155852857Y-124170285D01*
X156614761Y-124432190D02*
X156329047Y-124432190D01*
X156471904Y-124432190D02*
X156471904Y-123932190D01*
X156424285Y-124003619D01*
X156376666Y-124051238D01*
X156329047Y-124075047D01*
X157067142Y-123932190D02*
X156829047Y-123932190D01*
X156805238Y-124170285D01*
X156829047Y-124146476D01*
X156876666Y-124122666D01*
X156995714Y-124122666D01*
X157043333Y-124146476D01*
X157067142Y-124170285D01*
X157090952Y-124217904D01*
X157090952Y-124336952D01*
X157067142Y-124384571D01*
X157043333Y-124408380D01*
X156995714Y-124432190D01*
X156876666Y-124432190D01*
X156829047Y-124408380D01*
X156805238Y-124384571D01*
X155626666Y-121892190D02*
X155626666Y-121392190D01*
X155817142Y-121392190D01*
X155864761Y-121416000D01*
X155888571Y-121439809D01*
X155912380Y-121487428D01*
X155912380Y-121558857D01*
X155888571Y-121606476D01*
X155864761Y-121630285D01*
X155817142Y-121654095D01*
X155626666Y-121654095D01*
X156102857Y-121749333D02*
X156340952Y-121749333D01*
X156055238Y-121892190D02*
X156221904Y-121392190D01*
X156388571Y-121892190D01*
X156626666Y-121606476D02*
X156579047Y-121582666D01*
X156555238Y-121558857D01*
X156531428Y-121511238D01*
X156531428Y-121487428D01*
X156555238Y-121439809D01*
X156579047Y-121416000D01*
X156626666Y-121392190D01*
X156721904Y-121392190D01*
X156769523Y-121416000D01*
X156793333Y-121439809D01*
X156817142Y-121487428D01*
X156817142Y-121511238D01*
X156793333Y-121558857D01*
X156769523Y-121582666D01*
X156721904Y-121606476D01*
X156626666Y-121606476D01*
X156579047Y-121630285D01*
X156555238Y-121654095D01*
X156531428Y-121701714D01*
X156531428Y-121796952D01*
X156555238Y-121844571D01*
X156579047Y-121868380D01*
X156626666Y-121892190D01*
X156721904Y-121892190D01*
X156769523Y-121868380D01*
X156793333Y-121844571D01*
X156817142Y-121796952D01*
X156817142Y-121701714D01*
X156793333Y-121654095D01*
X156769523Y-121630285D01*
X156721904Y-121606476D01*
X155626666Y-119352190D02*
X155626666Y-118852190D01*
X155817142Y-118852190D01*
X155864761Y-118876000D01*
X155888571Y-118899809D01*
X155912380Y-118947428D01*
X155912380Y-119018857D01*
X155888571Y-119066476D01*
X155864761Y-119090285D01*
X155817142Y-119114095D01*
X155626666Y-119114095D01*
X156102857Y-119209333D02*
X156340952Y-119209333D01*
X156055238Y-119352190D02*
X156221904Y-118852190D01*
X156388571Y-119352190D01*
X156579047Y-119352190D02*
X156674285Y-119352190D01*
X156721904Y-119328380D01*
X156745714Y-119304571D01*
X156793333Y-119233142D01*
X156817142Y-119137904D01*
X156817142Y-118947428D01*
X156793333Y-118899809D01*
X156769523Y-118876000D01*
X156721904Y-118852190D01*
X156626666Y-118852190D01*
X156579047Y-118876000D01*
X156555238Y-118899809D01*
X156531428Y-118947428D01*
X156531428Y-119066476D01*
X156555238Y-119114095D01*
X156579047Y-119137904D01*
X156626666Y-119161714D01*
X156721904Y-119161714D01*
X156769523Y-119137904D01*
X156793333Y-119114095D01*
X156817142Y-119066476D01*
X155388571Y-116812190D02*
X155388571Y-116312190D01*
X155579047Y-116312190D01*
X155626666Y-116336000D01*
X155650476Y-116359809D01*
X155674285Y-116407428D01*
X155674285Y-116478857D01*
X155650476Y-116526476D01*
X155626666Y-116550285D01*
X155579047Y-116574095D01*
X155388571Y-116574095D01*
X155864761Y-116669333D02*
X156102857Y-116669333D01*
X155817142Y-116812190D02*
X155983809Y-116312190D01*
X156150476Y-116812190D01*
X156579047Y-116812190D02*
X156293333Y-116812190D01*
X156436190Y-116812190D02*
X156436190Y-116312190D01*
X156388571Y-116383619D01*
X156340952Y-116431238D01*
X156293333Y-116455047D01*
X156888571Y-116312190D02*
X156936190Y-116312190D01*
X156983809Y-116336000D01*
X157007619Y-116359809D01*
X157031428Y-116407428D01*
X157055238Y-116502666D01*
X157055238Y-116621714D01*
X157031428Y-116716952D01*
X157007619Y-116764571D01*
X156983809Y-116788380D01*
X156936190Y-116812190D01*
X156888571Y-116812190D01*
X156840952Y-116788380D01*
X156817142Y-116764571D01*
X156793333Y-116716952D01*
X156769523Y-116621714D01*
X156769523Y-116502666D01*
X156793333Y-116407428D01*
X156817142Y-116359809D01*
X156840952Y-116336000D01*
X156888571Y-116312190D01*
X155388571Y-114272190D02*
X155388571Y-113772190D01*
X155579047Y-113772190D01*
X155626666Y-113796000D01*
X155650476Y-113819809D01*
X155674285Y-113867428D01*
X155674285Y-113938857D01*
X155650476Y-113986476D01*
X155626666Y-114010285D01*
X155579047Y-114034095D01*
X155388571Y-114034095D01*
X155864761Y-114129333D02*
X156102857Y-114129333D01*
X155817142Y-114272190D02*
X155983809Y-113772190D01*
X156150476Y-114272190D01*
X156579047Y-114272190D02*
X156293333Y-114272190D01*
X156436190Y-114272190D02*
X156436190Y-113772190D01*
X156388571Y-113843619D01*
X156340952Y-113891238D01*
X156293333Y-113915047D01*
X157055238Y-114272190D02*
X156769523Y-114272190D01*
X156912380Y-114272190D02*
X156912380Y-113772190D01*
X156864761Y-113843619D01*
X156817142Y-113891238D01*
X156769523Y-113915047D01*
X155388571Y-111732190D02*
X155388571Y-111232190D01*
X155579047Y-111232190D01*
X155626666Y-111256000D01*
X155650476Y-111279809D01*
X155674285Y-111327428D01*
X155674285Y-111398857D01*
X155650476Y-111446476D01*
X155626666Y-111470285D01*
X155579047Y-111494095D01*
X155388571Y-111494095D01*
X155864761Y-111589333D02*
X156102857Y-111589333D01*
X155817142Y-111732190D02*
X155983809Y-111232190D01*
X156150476Y-111732190D01*
X156579047Y-111732190D02*
X156293333Y-111732190D01*
X156436190Y-111732190D02*
X156436190Y-111232190D01*
X156388571Y-111303619D01*
X156340952Y-111351238D01*
X156293333Y-111375047D01*
X156769523Y-111279809D02*
X156793333Y-111256000D01*
X156840952Y-111232190D01*
X156960000Y-111232190D01*
X157007619Y-111256000D01*
X157031428Y-111279809D01*
X157055238Y-111327428D01*
X157055238Y-111375047D01*
X157031428Y-111446476D01*
X156745714Y-111732190D01*
X157055238Y-111732190D01*
X155388571Y-109192190D02*
X155388571Y-108692190D01*
X155579047Y-108692190D01*
X155626666Y-108716000D01*
X155650476Y-108739809D01*
X155674285Y-108787428D01*
X155674285Y-108858857D01*
X155650476Y-108906476D01*
X155626666Y-108930285D01*
X155579047Y-108954095D01*
X155388571Y-108954095D01*
X155864761Y-109049333D02*
X156102857Y-109049333D01*
X155817142Y-109192190D02*
X155983809Y-108692190D01*
X156150476Y-109192190D01*
X156579047Y-109192190D02*
X156293333Y-109192190D01*
X156436190Y-109192190D02*
X156436190Y-108692190D01*
X156388571Y-108763619D01*
X156340952Y-108811238D01*
X156293333Y-108835047D01*
X157031428Y-108692190D02*
X156793333Y-108692190D01*
X156769523Y-108930285D01*
X156793333Y-108906476D01*
X156840952Y-108882666D01*
X156960000Y-108882666D01*
X157007619Y-108906476D01*
X157031428Y-108930285D01*
X157055238Y-108977904D01*
X157055238Y-109096952D01*
X157031428Y-109144571D01*
X157007619Y-109168380D01*
X156960000Y-109192190D01*
X156840952Y-109192190D01*
X156793333Y-109168380D01*
X156769523Y-109144571D01*
X155590952Y-106652190D02*
X155590952Y-106152190D01*
X155781428Y-106152190D01*
X155829047Y-106176000D01*
X155852857Y-106199809D01*
X155876666Y-106247428D01*
X155876666Y-106318857D01*
X155852857Y-106366476D01*
X155829047Y-106390285D01*
X155781428Y-106414095D01*
X155590952Y-106414095D01*
X156257619Y-106390285D02*
X156329047Y-106414095D01*
X156352857Y-106437904D01*
X156376666Y-106485523D01*
X156376666Y-106556952D01*
X156352857Y-106604571D01*
X156329047Y-106628380D01*
X156281428Y-106652190D01*
X156090952Y-106652190D01*
X156090952Y-106152190D01*
X156257619Y-106152190D01*
X156305238Y-106176000D01*
X156329047Y-106199809D01*
X156352857Y-106247428D01*
X156352857Y-106295047D01*
X156329047Y-106342666D01*
X156305238Y-106366476D01*
X156257619Y-106390285D01*
X156090952Y-106390285D01*
X156543333Y-106152190D02*
X156852857Y-106152190D01*
X156686190Y-106342666D01*
X156757619Y-106342666D01*
X156805238Y-106366476D01*
X156829047Y-106390285D01*
X156852857Y-106437904D01*
X156852857Y-106556952D01*
X156829047Y-106604571D01*
X156805238Y-106628380D01*
X156757619Y-106652190D01*
X156614761Y-106652190D01*
X156567142Y-106628380D01*
X156543333Y-106604571D01*
X155590952Y-104112190D02*
X155590952Y-103612190D01*
X155781428Y-103612190D01*
X155829047Y-103636000D01*
X155852857Y-103659809D01*
X155876666Y-103707428D01*
X155876666Y-103778857D01*
X155852857Y-103826476D01*
X155829047Y-103850285D01*
X155781428Y-103874095D01*
X155590952Y-103874095D01*
X156257619Y-103850285D02*
X156329047Y-103874095D01*
X156352857Y-103897904D01*
X156376666Y-103945523D01*
X156376666Y-104016952D01*
X156352857Y-104064571D01*
X156329047Y-104088380D01*
X156281428Y-104112190D01*
X156090952Y-104112190D01*
X156090952Y-103612190D01*
X156257619Y-103612190D01*
X156305238Y-103636000D01*
X156329047Y-103659809D01*
X156352857Y-103707428D01*
X156352857Y-103755047D01*
X156329047Y-103802666D01*
X156305238Y-103826476D01*
X156257619Y-103850285D01*
X156090952Y-103850285D01*
X156805238Y-103778857D02*
X156805238Y-104112190D01*
X156686190Y-103588380D02*
X156567142Y-103945523D01*
X156876666Y-103945523D01*
X155590952Y-101572190D02*
X155590952Y-101072190D01*
X155781428Y-101072190D01*
X155829047Y-101096000D01*
X155852857Y-101119809D01*
X155876666Y-101167428D01*
X155876666Y-101238857D01*
X155852857Y-101286476D01*
X155829047Y-101310285D01*
X155781428Y-101334095D01*
X155590952Y-101334095D01*
X156257619Y-101310285D02*
X156329047Y-101334095D01*
X156352857Y-101357904D01*
X156376666Y-101405523D01*
X156376666Y-101476952D01*
X156352857Y-101524571D01*
X156329047Y-101548380D01*
X156281428Y-101572190D01*
X156090952Y-101572190D01*
X156090952Y-101072190D01*
X156257619Y-101072190D01*
X156305238Y-101096000D01*
X156329047Y-101119809D01*
X156352857Y-101167428D01*
X156352857Y-101215047D01*
X156329047Y-101262666D01*
X156305238Y-101286476D01*
X156257619Y-101310285D01*
X156090952Y-101310285D01*
X156829047Y-101072190D02*
X156590952Y-101072190D01*
X156567142Y-101310285D01*
X156590952Y-101286476D01*
X156638571Y-101262666D01*
X156757619Y-101262666D01*
X156805238Y-101286476D01*
X156829047Y-101310285D01*
X156852857Y-101357904D01*
X156852857Y-101476952D01*
X156829047Y-101524571D01*
X156805238Y-101548380D01*
X156757619Y-101572190D01*
X156638571Y-101572190D01*
X156590952Y-101548380D01*
X156567142Y-101524571D01*
X155590952Y-99032190D02*
X155590952Y-98532190D01*
X155781428Y-98532190D01*
X155829047Y-98556000D01*
X155852857Y-98579809D01*
X155876666Y-98627428D01*
X155876666Y-98698857D01*
X155852857Y-98746476D01*
X155829047Y-98770285D01*
X155781428Y-98794095D01*
X155590952Y-98794095D01*
X156257619Y-98770285D02*
X156329047Y-98794095D01*
X156352857Y-98817904D01*
X156376666Y-98865523D01*
X156376666Y-98936952D01*
X156352857Y-98984571D01*
X156329047Y-99008380D01*
X156281428Y-99032190D01*
X156090952Y-99032190D01*
X156090952Y-98532190D01*
X156257619Y-98532190D01*
X156305238Y-98556000D01*
X156329047Y-98579809D01*
X156352857Y-98627428D01*
X156352857Y-98675047D01*
X156329047Y-98722666D01*
X156305238Y-98746476D01*
X156257619Y-98770285D01*
X156090952Y-98770285D01*
X156805238Y-98532190D02*
X156710000Y-98532190D01*
X156662380Y-98556000D01*
X156638571Y-98579809D01*
X156590952Y-98651238D01*
X156567142Y-98746476D01*
X156567142Y-98936952D01*
X156590952Y-98984571D01*
X156614761Y-99008380D01*
X156662380Y-99032190D01*
X156757619Y-99032190D01*
X156805238Y-99008380D01*
X156829047Y-98984571D01*
X156852857Y-98936952D01*
X156852857Y-98817904D01*
X156829047Y-98770285D01*
X156805238Y-98746476D01*
X156757619Y-98722666D01*
X156662380Y-98722666D01*
X156614761Y-98746476D01*
X156590952Y-98770285D01*
X156567142Y-98817904D01*
X155590952Y-96492190D02*
X155590952Y-95992190D01*
X155781428Y-95992190D01*
X155829047Y-96016000D01*
X155852857Y-96039809D01*
X155876666Y-96087428D01*
X155876666Y-96158857D01*
X155852857Y-96206476D01*
X155829047Y-96230285D01*
X155781428Y-96254095D01*
X155590952Y-96254095D01*
X156257619Y-96230285D02*
X156329047Y-96254095D01*
X156352857Y-96277904D01*
X156376666Y-96325523D01*
X156376666Y-96396952D01*
X156352857Y-96444571D01*
X156329047Y-96468380D01*
X156281428Y-96492190D01*
X156090952Y-96492190D01*
X156090952Y-95992190D01*
X156257619Y-95992190D01*
X156305238Y-96016000D01*
X156329047Y-96039809D01*
X156352857Y-96087428D01*
X156352857Y-96135047D01*
X156329047Y-96182666D01*
X156305238Y-96206476D01*
X156257619Y-96230285D01*
X156090952Y-96230285D01*
X156543333Y-95992190D02*
X156876666Y-95992190D01*
X156662380Y-96492190D01*
X155590952Y-93952190D02*
X155590952Y-93452190D01*
X155781428Y-93452190D01*
X155829047Y-93476000D01*
X155852857Y-93499809D01*
X155876666Y-93547428D01*
X155876666Y-93618857D01*
X155852857Y-93666476D01*
X155829047Y-93690285D01*
X155781428Y-93714095D01*
X155590952Y-93714095D01*
X156257619Y-93690285D02*
X156329047Y-93714095D01*
X156352857Y-93737904D01*
X156376666Y-93785523D01*
X156376666Y-93856952D01*
X156352857Y-93904571D01*
X156329047Y-93928380D01*
X156281428Y-93952190D01*
X156090952Y-93952190D01*
X156090952Y-93452190D01*
X156257619Y-93452190D01*
X156305238Y-93476000D01*
X156329047Y-93499809D01*
X156352857Y-93547428D01*
X156352857Y-93595047D01*
X156329047Y-93642666D01*
X156305238Y-93666476D01*
X156257619Y-93690285D01*
X156090952Y-93690285D01*
X156662380Y-93666476D02*
X156614761Y-93642666D01*
X156590952Y-93618857D01*
X156567142Y-93571238D01*
X156567142Y-93547428D01*
X156590952Y-93499809D01*
X156614761Y-93476000D01*
X156662380Y-93452190D01*
X156757619Y-93452190D01*
X156805238Y-93476000D01*
X156829047Y-93499809D01*
X156852857Y-93547428D01*
X156852857Y-93571238D01*
X156829047Y-93618857D01*
X156805238Y-93642666D01*
X156757619Y-93666476D01*
X156662380Y-93666476D01*
X156614761Y-93690285D01*
X156590952Y-93714095D01*
X156567142Y-93761714D01*
X156567142Y-93856952D01*
X156590952Y-93904571D01*
X156614761Y-93928380D01*
X156662380Y-93952190D01*
X156757619Y-93952190D01*
X156805238Y-93928380D01*
X156829047Y-93904571D01*
X156852857Y-93856952D01*
X156852857Y-93761714D01*
X156829047Y-93714095D01*
X156805238Y-93690285D01*
X156757619Y-93666476D01*
X155590952Y-91412190D02*
X155590952Y-90912190D01*
X155781428Y-90912190D01*
X155829047Y-90936000D01*
X155852857Y-90959809D01*
X155876666Y-91007428D01*
X155876666Y-91078857D01*
X155852857Y-91126476D01*
X155829047Y-91150285D01*
X155781428Y-91174095D01*
X155590952Y-91174095D01*
X156257619Y-91150285D02*
X156329047Y-91174095D01*
X156352857Y-91197904D01*
X156376666Y-91245523D01*
X156376666Y-91316952D01*
X156352857Y-91364571D01*
X156329047Y-91388380D01*
X156281428Y-91412190D01*
X156090952Y-91412190D01*
X156090952Y-90912190D01*
X156257619Y-90912190D01*
X156305238Y-90936000D01*
X156329047Y-90959809D01*
X156352857Y-91007428D01*
X156352857Y-91055047D01*
X156329047Y-91102666D01*
X156305238Y-91126476D01*
X156257619Y-91150285D01*
X156090952Y-91150285D01*
X156614761Y-91412190D02*
X156710000Y-91412190D01*
X156757619Y-91388380D01*
X156781428Y-91364571D01*
X156829047Y-91293142D01*
X156852857Y-91197904D01*
X156852857Y-91007428D01*
X156829047Y-90959809D01*
X156805238Y-90936000D01*
X156757619Y-90912190D01*
X156662380Y-90912190D01*
X156614761Y-90936000D01*
X156590952Y-90959809D01*
X156567142Y-91007428D01*
X156567142Y-91126476D01*
X156590952Y-91174095D01*
X156614761Y-91197904D01*
X156662380Y-91221714D01*
X156757619Y-91221714D01*
X156805238Y-91197904D01*
X156829047Y-91174095D01*
X156852857Y-91126476D01*
X156114761Y-88372190D02*
X155876666Y-88372190D01*
X155852857Y-88610285D01*
X155876666Y-88586476D01*
X155924285Y-88562666D01*
X156043333Y-88562666D01*
X156090952Y-88586476D01*
X156114761Y-88610285D01*
X156138571Y-88657904D01*
X156138571Y-88776952D01*
X156114761Y-88824571D01*
X156090952Y-88848380D01*
X156043333Y-88872190D01*
X155924285Y-88872190D01*
X155876666Y-88848380D01*
X155852857Y-88824571D01*
X156281428Y-88372190D02*
X156448095Y-88872190D01*
X156614761Y-88372190D01*
X155829047Y-85856000D02*
X155781428Y-85832190D01*
X155710000Y-85832190D01*
X155638571Y-85856000D01*
X155590952Y-85903619D01*
X155567142Y-85951238D01*
X155543333Y-86046476D01*
X155543333Y-86117904D01*
X155567142Y-86213142D01*
X155590952Y-86260761D01*
X155638571Y-86308380D01*
X155710000Y-86332190D01*
X155757619Y-86332190D01*
X155829047Y-86308380D01*
X155852857Y-86284571D01*
X155852857Y-86117904D01*
X155757619Y-86117904D01*
X156067142Y-86332190D02*
X156067142Y-85832190D01*
X156352857Y-86332190D01*
X156352857Y-85832190D01*
X156590952Y-86332190D02*
X156590952Y-85832190D01*
X156710000Y-85832190D01*
X156781428Y-85856000D01*
X156829047Y-85903619D01*
X156852857Y-85951238D01*
X156876666Y-86046476D01*
X156876666Y-86117904D01*
X156852857Y-86213142D01*
X156829047Y-86260761D01*
X156781428Y-86308380D01*
X156710000Y-86332190D01*
X156590952Y-86332190D01*
D10*
X158750000Y-83566000D02*
X157226000Y-83566000D01*
D13*
X155590952Y-83292190D02*
X155900476Y-83292190D01*
X155733809Y-83482666D01*
X155805238Y-83482666D01*
X155852857Y-83506476D01*
X155876666Y-83530285D01*
X155900476Y-83577904D01*
X155900476Y-83696952D01*
X155876666Y-83744571D01*
X155852857Y-83768380D01*
X155805238Y-83792190D01*
X155662380Y-83792190D01*
X155614761Y-83768380D01*
X155590952Y-83744571D01*
X156043333Y-83292190D02*
X156210000Y-83792190D01*
X156376666Y-83292190D01*
X156495714Y-83292190D02*
X156805238Y-83292190D01*
X156638571Y-83482666D01*
X156710000Y-83482666D01*
X156757619Y-83506476D01*
X156781428Y-83530285D01*
X156805238Y-83577904D01*
X156805238Y-83696952D01*
X156781428Y-83744571D01*
X156757619Y-83768380D01*
X156710000Y-83792190D01*
X156567142Y-83792190D01*
X156519523Y-83768380D01*
X156495714Y-83744571D01*
D10*
X130810000Y-83566000D02*
X129286000Y-83566000D01*
D13*
X127448571Y-83292190D02*
X127615238Y-83792190D01*
X127781904Y-83292190D01*
X128115238Y-83530285D02*
X128186666Y-83554095D01*
X128210476Y-83577904D01*
X128234285Y-83625523D01*
X128234285Y-83696952D01*
X128210476Y-83744571D01*
X128186666Y-83768380D01*
X128139047Y-83792190D01*
X127948571Y-83792190D01*
X127948571Y-83292190D01*
X128115238Y-83292190D01*
X128162857Y-83316000D01*
X128186666Y-83339809D01*
X128210476Y-83387428D01*
X128210476Y-83435047D01*
X128186666Y-83482666D01*
X128162857Y-83506476D01*
X128115238Y-83530285D01*
X127948571Y-83530285D01*
X128424761Y-83649333D02*
X128662857Y-83649333D01*
X128377142Y-83792190D02*
X128543809Y-83292190D01*
X128710476Y-83792190D01*
X128805714Y-83292190D02*
X129091428Y-83292190D01*
X128948571Y-83792190D02*
X128948571Y-83292190D01*
X127412857Y-86332190D02*
X127412857Y-85832190D01*
X127603333Y-85832190D01*
X127650952Y-85856000D01*
X127674761Y-85879809D01*
X127698571Y-85927428D01*
X127698571Y-85998857D01*
X127674761Y-86046476D01*
X127650952Y-86070285D01*
X127603333Y-86094095D01*
X127412857Y-86094095D01*
X128198571Y-86284571D02*
X128174761Y-86308380D01*
X128103333Y-86332190D01*
X128055714Y-86332190D01*
X127984285Y-86308380D01*
X127936666Y-86260761D01*
X127912857Y-86213142D01*
X127889047Y-86117904D01*
X127889047Y-86046476D01*
X127912857Y-85951238D01*
X127936666Y-85903619D01*
X127984285Y-85856000D01*
X128055714Y-85832190D01*
X128103333Y-85832190D01*
X128174761Y-85856000D01*
X128198571Y-85879809D01*
X128674761Y-86332190D02*
X128389047Y-86332190D01*
X128531904Y-86332190D02*
X128531904Y-85832190D01*
X128484285Y-85903619D01*
X128436666Y-85951238D01*
X128389047Y-85975047D01*
X128841428Y-85832190D02*
X129150952Y-85832190D01*
X128984285Y-86022666D01*
X129055714Y-86022666D01*
X129103333Y-86046476D01*
X129127142Y-86070285D01*
X129150952Y-86117904D01*
X129150952Y-86236952D01*
X129127142Y-86284571D01*
X129103333Y-86308380D01*
X129055714Y-86332190D01*
X128912857Y-86332190D01*
X128865238Y-86308380D01*
X128841428Y-86284571D01*
X127412857Y-88872190D02*
X127412857Y-88372190D01*
X127603333Y-88372190D01*
X127650952Y-88396000D01*
X127674761Y-88419809D01*
X127698571Y-88467428D01*
X127698571Y-88538857D01*
X127674761Y-88586476D01*
X127650952Y-88610285D01*
X127603333Y-88634095D01*
X127412857Y-88634095D01*
X128198571Y-88824571D02*
X128174761Y-88848380D01*
X128103333Y-88872190D01*
X128055714Y-88872190D01*
X127984285Y-88848380D01*
X127936666Y-88800761D01*
X127912857Y-88753142D01*
X127889047Y-88657904D01*
X127889047Y-88586476D01*
X127912857Y-88491238D01*
X127936666Y-88443619D01*
X127984285Y-88396000D01*
X128055714Y-88372190D01*
X128103333Y-88372190D01*
X128174761Y-88396000D01*
X128198571Y-88419809D01*
X128674761Y-88872190D02*
X128389047Y-88872190D01*
X128531904Y-88872190D02*
X128531904Y-88372190D01*
X128484285Y-88443619D01*
X128436666Y-88491238D01*
X128389047Y-88515047D01*
X129103333Y-88538857D02*
X129103333Y-88872190D01*
X128984285Y-88348380D02*
X128865238Y-88705523D01*
X129174761Y-88705523D01*
X127412857Y-91412190D02*
X127412857Y-90912190D01*
X127603333Y-90912190D01*
X127650952Y-90936000D01*
X127674761Y-90959809D01*
X127698571Y-91007428D01*
X127698571Y-91078857D01*
X127674761Y-91126476D01*
X127650952Y-91150285D01*
X127603333Y-91174095D01*
X127412857Y-91174095D01*
X128198571Y-91364571D02*
X128174761Y-91388380D01*
X128103333Y-91412190D01*
X128055714Y-91412190D01*
X127984285Y-91388380D01*
X127936666Y-91340761D01*
X127912857Y-91293142D01*
X127889047Y-91197904D01*
X127889047Y-91126476D01*
X127912857Y-91031238D01*
X127936666Y-90983619D01*
X127984285Y-90936000D01*
X128055714Y-90912190D01*
X128103333Y-90912190D01*
X128174761Y-90936000D01*
X128198571Y-90959809D01*
X128674761Y-91412190D02*
X128389047Y-91412190D01*
X128531904Y-91412190D02*
X128531904Y-90912190D01*
X128484285Y-90983619D01*
X128436666Y-91031238D01*
X128389047Y-91055047D01*
X129127142Y-90912190D02*
X128889047Y-90912190D01*
X128865238Y-91150285D01*
X128889047Y-91126476D01*
X128936666Y-91102666D01*
X129055714Y-91102666D01*
X129103333Y-91126476D01*
X129127142Y-91150285D01*
X129150952Y-91197904D01*
X129150952Y-91316952D01*
X129127142Y-91364571D01*
X129103333Y-91388380D01*
X129055714Y-91412190D01*
X128936666Y-91412190D01*
X128889047Y-91388380D01*
X128865238Y-91364571D01*
X127686666Y-93952190D02*
X127686666Y-93452190D01*
X127877142Y-93452190D01*
X127924761Y-93476000D01*
X127948571Y-93499809D01*
X127972380Y-93547428D01*
X127972380Y-93618857D01*
X127948571Y-93666476D01*
X127924761Y-93690285D01*
X127877142Y-93714095D01*
X127686666Y-93714095D01*
X128162857Y-93809333D02*
X128400952Y-93809333D01*
X128115238Y-93952190D02*
X128281904Y-93452190D01*
X128448571Y-93952190D01*
X128710476Y-93452190D02*
X128758095Y-93452190D01*
X128805714Y-93476000D01*
X128829523Y-93499809D01*
X128853333Y-93547428D01*
X128877142Y-93642666D01*
X128877142Y-93761714D01*
X128853333Y-93856952D01*
X128829523Y-93904571D01*
X128805714Y-93928380D01*
X128758095Y-93952190D01*
X128710476Y-93952190D01*
X128662857Y-93928380D01*
X128639047Y-93904571D01*
X128615238Y-93856952D01*
X128591428Y-93761714D01*
X128591428Y-93642666D01*
X128615238Y-93547428D01*
X128639047Y-93499809D01*
X128662857Y-93476000D01*
X128710476Y-93452190D01*
X127686666Y-96492190D02*
X127686666Y-95992190D01*
X127877142Y-95992190D01*
X127924761Y-96016000D01*
X127948571Y-96039809D01*
X127972380Y-96087428D01*
X127972380Y-96158857D01*
X127948571Y-96206476D01*
X127924761Y-96230285D01*
X127877142Y-96254095D01*
X127686666Y-96254095D01*
X128162857Y-96349333D02*
X128400952Y-96349333D01*
X128115238Y-96492190D02*
X128281904Y-95992190D01*
X128448571Y-96492190D01*
X128877142Y-96492190D02*
X128591428Y-96492190D01*
X128734285Y-96492190D02*
X128734285Y-95992190D01*
X128686666Y-96063619D01*
X128639047Y-96111238D01*
X128591428Y-96135047D01*
X127686666Y-99032190D02*
X127686666Y-98532190D01*
X127877142Y-98532190D01*
X127924761Y-98556000D01*
X127948571Y-98579809D01*
X127972380Y-98627428D01*
X127972380Y-98698857D01*
X127948571Y-98746476D01*
X127924761Y-98770285D01*
X127877142Y-98794095D01*
X127686666Y-98794095D01*
X128162857Y-98889333D02*
X128400952Y-98889333D01*
X128115238Y-99032190D02*
X128281904Y-98532190D01*
X128448571Y-99032190D01*
X128591428Y-98579809D02*
X128615238Y-98556000D01*
X128662857Y-98532190D01*
X128781904Y-98532190D01*
X128829523Y-98556000D01*
X128853333Y-98579809D01*
X128877142Y-98627428D01*
X128877142Y-98675047D01*
X128853333Y-98746476D01*
X128567619Y-99032190D01*
X128877142Y-99032190D01*
X127686666Y-101572190D02*
X127686666Y-101072190D01*
X127877142Y-101072190D01*
X127924761Y-101096000D01*
X127948571Y-101119809D01*
X127972380Y-101167428D01*
X127972380Y-101238857D01*
X127948571Y-101286476D01*
X127924761Y-101310285D01*
X127877142Y-101334095D01*
X127686666Y-101334095D01*
X128162857Y-101429333D02*
X128400952Y-101429333D01*
X128115238Y-101572190D02*
X128281904Y-101072190D01*
X128448571Y-101572190D01*
X128567619Y-101072190D02*
X128877142Y-101072190D01*
X128710476Y-101262666D01*
X128781904Y-101262666D01*
X128829523Y-101286476D01*
X128853333Y-101310285D01*
X128877142Y-101357904D01*
X128877142Y-101476952D01*
X128853333Y-101524571D01*
X128829523Y-101548380D01*
X128781904Y-101572190D01*
X128639047Y-101572190D01*
X128591428Y-101548380D01*
X128567619Y-101524571D01*
X127686666Y-104112190D02*
X127686666Y-103612190D01*
X127877142Y-103612190D01*
X127924761Y-103636000D01*
X127948571Y-103659809D01*
X127972380Y-103707428D01*
X127972380Y-103778857D01*
X127948571Y-103826476D01*
X127924761Y-103850285D01*
X127877142Y-103874095D01*
X127686666Y-103874095D01*
X128162857Y-103969333D02*
X128400952Y-103969333D01*
X128115238Y-104112190D02*
X128281904Y-103612190D01*
X128448571Y-104112190D01*
X128829523Y-103778857D02*
X128829523Y-104112190D01*
X128710476Y-103588380D02*
X128591428Y-103945523D01*
X128900952Y-103945523D01*
X127686666Y-106652190D02*
X127686666Y-106152190D01*
X127877142Y-106152190D01*
X127924761Y-106176000D01*
X127948571Y-106199809D01*
X127972380Y-106247428D01*
X127972380Y-106318857D01*
X127948571Y-106366476D01*
X127924761Y-106390285D01*
X127877142Y-106414095D01*
X127686666Y-106414095D01*
X128162857Y-106509333D02*
X128400952Y-106509333D01*
X128115238Y-106652190D02*
X128281904Y-106152190D01*
X128448571Y-106652190D01*
X128853333Y-106152190D02*
X128615238Y-106152190D01*
X128591428Y-106390285D01*
X128615238Y-106366476D01*
X128662857Y-106342666D01*
X128781904Y-106342666D01*
X128829523Y-106366476D01*
X128853333Y-106390285D01*
X128877142Y-106437904D01*
X128877142Y-106556952D01*
X128853333Y-106604571D01*
X128829523Y-106628380D01*
X128781904Y-106652190D01*
X128662857Y-106652190D01*
X128615238Y-106628380D01*
X128591428Y-106604571D01*
X127686666Y-109192190D02*
X127686666Y-108692190D01*
X127877142Y-108692190D01*
X127924761Y-108716000D01*
X127948571Y-108739809D01*
X127972380Y-108787428D01*
X127972380Y-108858857D01*
X127948571Y-108906476D01*
X127924761Y-108930285D01*
X127877142Y-108954095D01*
X127686666Y-108954095D01*
X128162857Y-109049333D02*
X128400952Y-109049333D01*
X128115238Y-109192190D02*
X128281904Y-108692190D01*
X128448571Y-109192190D01*
X128829523Y-108692190D02*
X128734285Y-108692190D01*
X128686666Y-108716000D01*
X128662857Y-108739809D01*
X128615238Y-108811238D01*
X128591428Y-108906476D01*
X128591428Y-109096952D01*
X128615238Y-109144571D01*
X128639047Y-109168380D01*
X128686666Y-109192190D01*
X128781904Y-109192190D01*
X128829523Y-109168380D01*
X128853333Y-109144571D01*
X128877142Y-109096952D01*
X128877142Y-108977904D01*
X128853333Y-108930285D01*
X128829523Y-108906476D01*
X128781904Y-108882666D01*
X128686666Y-108882666D01*
X128639047Y-108906476D01*
X128615238Y-108930285D01*
X128591428Y-108977904D01*
X127686666Y-111732190D02*
X127686666Y-111232190D01*
X127877142Y-111232190D01*
X127924761Y-111256000D01*
X127948571Y-111279809D01*
X127972380Y-111327428D01*
X127972380Y-111398857D01*
X127948571Y-111446476D01*
X127924761Y-111470285D01*
X127877142Y-111494095D01*
X127686666Y-111494095D01*
X128162857Y-111589333D02*
X128400952Y-111589333D01*
X128115238Y-111732190D02*
X128281904Y-111232190D01*
X128448571Y-111732190D01*
X128567619Y-111232190D02*
X128900952Y-111232190D01*
X128686666Y-111732190D01*
X127650952Y-114272190D02*
X127650952Y-113772190D01*
X127841428Y-113772190D01*
X127889047Y-113796000D01*
X127912857Y-113819809D01*
X127936666Y-113867428D01*
X127936666Y-113938857D01*
X127912857Y-113986476D01*
X127889047Y-114010285D01*
X127841428Y-114034095D01*
X127650952Y-114034095D01*
X128317619Y-114010285D02*
X128389047Y-114034095D01*
X128412857Y-114057904D01*
X128436666Y-114105523D01*
X128436666Y-114176952D01*
X128412857Y-114224571D01*
X128389047Y-114248380D01*
X128341428Y-114272190D01*
X128150952Y-114272190D01*
X128150952Y-113772190D01*
X128317619Y-113772190D01*
X128365238Y-113796000D01*
X128389047Y-113819809D01*
X128412857Y-113867428D01*
X128412857Y-113915047D01*
X128389047Y-113962666D01*
X128365238Y-113986476D01*
X128317619Y-114010285D01*
X128150952Y-114010285D01*
X128746190Y-113772190D02*
X128793809Y-113772190D01*
X128841428Y-113796000D01*
X128865238Y-113819809D01*
X128889047Y-113867428D01*
X128912857Y-113962666D01*
X128912857Y-114081714D01*
X128889047Y-114176952D01*
X128865238Y-114224571D01*
X128841428Y-114248380D01*
X128793809Y-114272190D01*
X128746190Y-114272190D01*
X128698571Y-114248380D01*
X128674761Y-114224571D01*
X128650952Y-114176952D01*
X128627142Y-114081714D01*
X128627142Y-113962666D01*
X128650952Y-113867428D01*
X128674761Y-113819809D01*
X128698571Y-113796000D01*
X128746190Y-113772190D01*
X127650952Y-116812190D02*
X127650952Y-116312190D01*
X127841428Y-116312190D01*
X127889047Y-116336000D01*
X127912857Y-116359809D01*
X127936666Y-116407428D01*
X127936666Y-116478857D01*
X127912857Y-116526476D01*
X127889047Y-116550285D01*
X127841428Y-116574095D01*
X127650952Y-116574095D01*
X128317619Y-116550285D02*
X128389047Y-116574095D01*
X128412857Y-116597904D01*
X128436666Y-116645523D01*
X128436666Y-116716952D01*
X128412857Y-116764571D01*
X128389047Y-116788380D01*
X128341428Y-116812190D01*
X128150952Y-116812190D01*
X128150952Y-116312190D01*
X128317619Y-116312190D01*
X128365238Y-116336000D01*
X128389047Y-116359809D01*
X128412857Y-116407428D01*
X128412857Y-116455047D01*
X128389047Y-116502666D01*
X128365238Y-116526476D01*
X128317619Y-116550285D01*
X128150952Y-116550285D01*
X128912857Y-116812190D02*
X128627142Y-116812190D01*
X128770000Y-116812190D02*
X128770000Y-116312190D01*
X128722380Y-116383619D01*
X128674761Y-116431238D01*
X128627142Y-116455047D01*
X127412857Y-119352190D02*
X127412857Y-118852190D01*
X127603333Y-118852190D01*
X127650952Y-118876000D01*
X127674761Y-118899809D01*
X127698571Y-118947428D01*
X127698571Y-119018857D01*
X127674761Y-119066476D01*
X127650952Y-119090285D01*
X127603333Y-119114095D01*
X127412857Y-119114095D01*
X128079523Y-119090285D02*
X128150952Y-119114095D01*
X128174761Y-119137904D01*
X128198571Y-119185523D01*
X128198571Y-119256952D01*
X128174761Y-119304571D01*
X128150952Y-119328380D01*
X128103333Y-119352190D01*
X127912857Y-119352190D01*
X127912857Y-118852190D01*
X128079523Y-118852190D01*
X128127142Y-118876000D01*
X128150952Y-118899809D01*
X128174761Y-118947428D01*
X128174761Y-118995047D01*
X128150952Y-119042666D01*
X128127142Y-119066476D01*
X128079523Y-119090285D01*
X127912857Y-119090285D01*
X128674761Y-119352190D02*
X128389047Y-119352190D01*
X128531904Y-119352190D02*
X128531904Y-118852190D01*
X128484285Y-118923619D01*
X128436666Y-118971238D01*
X128389047Y-118995047D01*
X128984285Y-118852190D02*
X129031904Y-118852190D01*
X129079523Y-118876000D01*
X129103333Y-118899809D01*
X129127142Y-118947428D01*
X129150952Y-119042666D01*
X129150952Y-119161714D01*
X129127142Y-119256952D01*
X129103333Y-119304571D01*
X129079523Y-119328380D01*
X129031904Y-119352190D01*
X128984285Y-119352190D01*
X128936666Y-119328380D01*
X128912857Y-119304571D01*
X128889047Y-119256952D01*
X128865238Y-119161714D01*
X128865238Y-119042666D01*
X128889047Y-118947428D01*
X128912857Y-118899809D01*
X128936666Y-118876000D01*
X128984285Y-118852190D01*
X127412857Y-121892190D02*
X127412857Y-121392190D01*
X127603333Y-121392190D01*
X127650952Y-121416000D01*
X127674761Y-121439809D01*
X127698571Y-121487428D01*
X127698571Y-121558857D01*
X127674761Y-121606476D01*
X127650952Y-121630285D01*
X127603333Y-121654095D01*
X127412857Y-121654095D01*
X128079523Y-121630285D02*
X128150952Y-121654095D01*
X128174761Y-121677904D01*
X128198571Y-121725523D01*
X128198571Y-121796952D01*
X128174761Y-121844571D01*
X128150952Y-121868380D01*
X128103333Y-121892190D01*
X127912857Y-121892190D01*
X127912857Y-121392190D01*
X128079523Y-121392190D01*
X128127142Y-121416000D01*
X128150952Y-121439809D01*
X128174761Y-121487428D01*
X128174761Y-121535047D01*
X128150952Y-121582666D01*
X128127142Y-121606476D01*
X128079523Y-121630285D01*
X127912857Y-121630285D01*
X128674761Y-121892190D02*
X128389047Y-121892190D01*
X128531904Y-121892190D02*
X128531904Y-121392190D01*
X128484285Y-121463619D01*
X128436666Y-121511238D01*
X128389047Y-121535047D01*
X129150952Y-121892190D02*
X128865238Y-121892190D01*
X129008095Y-121892190D02*
X129008095Y-121392190D01*
X128960476Y-121463619D01*
X128912857Y-121511238D01*
X128865238Y-121535047D01*
X127996190Y-124432190D02*
X127829523Y-124194095D01*
X127710476Y-124432190D02*
X127710476Y-123932190D01*
X127900952Y-123932190D01*
X127948571Y-123956000D01*
X127972380Y-123979809D01*
X127996190Y-124027428D01*
X127996190Y-124098857D01*
X127972380Y-124146476D01*
X127948571Y-124170285D01*
X127900952Y-124194095D01*
X127710476Y-124194095D01*
X128186666Y-124408380D02*
X128258095Y-124432190D01*
X128377142Y-124432190D01*
X128424761Y-124408380D01*
X128448571Y-124384571D01*
X128472380Y-124336952D01*
X128472380Y-124289333D01*
X128448571Y-124241714D01*
X128424761Y-124217904D01*
X128377142Y-124194095D01*
X128281904Y-124170285D01*
X128234285Y-124146476D01*
X128210476Y-124122666D01*
X128186666Y-124075047D01*
X128186666Y-124027428D01*
X128210476Y-123979809D01*
X128234285Y-123956000D01*
X128281904Y-123932190D01*
X128400952Y-123932190D01*
X128472380Y-123956000D01*
X128615238Y-123932190D02*
X128900952Y-123932190D01*
X128758095Y-124432190D02*
X128758095Y-123932190D01*
X127650952Y-126472190D02*
X127960476Y-126472190D01*
X127793809Y-126662666D01*
X127865238Y-126662666D01*
X127912857Y-126686476D01*
X127936666Y-126710285D01*
X127960476Y-126757904D01*
X127960476Y-126876952D01*
X127936666Y-126924571D01*
X127912857Y-126948380D01*
X127865238Y-126972190D01*
X127722380Y-126972190D01*
X127674761Y-126948380D01*
X127650952Y-126924571D01*
X128103333Y-126472190D02*
X128270000Y-126972190D01*
X128436666Y-126472190D01*
X128555714Y-126472190D02*
X128865238Y-126472190D01*
X128698571Y-126662666D01*
X128770000Y-126662666D01*
X128817619Y-126686476D01*
X128841428Y-126710285D01*
X128865238Y-126757904D01*
X128865238Y-126876952D01*
X128841428Y-126924571D01*
X128817619Y-126948380D01*
X128770000Y-126972190D01*
X128627142Y-126972190D01*
X128579523Y-126948380D01*
X128555714Y-126924571D01*
X127889047Y-129036000D02*
X127841428Y-129012190D01*
X127770000Y-129012190D01*
X127698571Y-129036000D01*
X127650952Y-129083619D01*
X127627142Y-129131238D01*
X127603333Y-129226476D01*
X127603333Y-129297904D01*
X127627142Y-129393142D01*
X127650952Y-129440761D01*
X127698571Y-129488380D01*
X127770000Y-129512190D01*
X127817619Y-129512190D01*
X127889047Y-129488380D01*
X127912857Y-129464571D01*
X127912857Y-129297904D01*
X127817619Y-129297904D01*
X128127142Y-129512190D02*
X128127142Y-129012190D01*
X128412857Y-129512190D01*
X128412857Y-129012190D01*
X128650952Y-129512190D02*
X128650952Y-129012190D01*
X128770000Y-129012190D01*
X128841428Y-129036000D01*
X128889047Y-129083619D01*
X128912857Y-129131238D01*
X128936666Y-129226476D01*
X128936666Y-129297904D01*
X128912857Y-129393142D01*
X128889047Y-129440761D01*
X128841428Y-129488380D01*
X128770000Y-129512190D01*
X128650952Y-129512190D01*
X127889047Y-131576000D02*
X127841428Y-131552190D01*
X127770000Y-131552190D01*
X127698571Y-131576000D01*
X127650952Y-131623619D01*
X127627142Y-131671238D01*
X127603333Y-131766476D01*
X127603333Y-131837904D01*
X127627142Y-131933142D01*
X127650952Y-131980761D01*
X127698571Y-132028380D01*
X127770000Y-132052190D01*
X127817619Y-132052190D01*
X127889047Y-132028380D01*
X127912857Y-132004571D01*
X127912857Y-131837904D01*
X127817619Y-131837904D01*
X128127142Y-132052190D02*
X128127142Y-131552190D01*
X128412857Y-132052190D01*
X128412857Y-131552190D01*
X128650952Y-132052190D02*
X128650952Y-131552190D01*
X128770000Y-131552190D01*
X128841428Y-131576000D01*
X128889047Y-131623619D01*
X128912857Y-131671238D01*
X128936666Y-131766476D01*
X128936666Y-131837904D01*
X128912857Y-131933142D01*
X128889047Y-131980761D01*
X128841428Y-132028380D01*
X128770000Y-132052190D01*
X128650952Y-132052190D01*
D10*
X153670000Y-83566000D02*
X153670000Y-134366000D01*
X155194000Y-83566000D02*
X153670000Y-83566000D01*
X158750000Y-134366000D02*
X158750000Y-83566000D01*
X153670000Y-134366000D02*
X158750000Y-134366000D01*
X130810000Y-134366000D02*
X125730000Y-134366000D01*
X130810000Y-83566000D02*
X130810000Y-134366000D01*
X125730000Y-83566000D02*
X127254000Y-83566000D01*
X125730000Y-103886000D02*
X125730000Y-83566000D01*
X125730000Y-134366000D02*
X125730000Y-103886000D01*
D14*
X152698910Y-137335869D02*
X152556053Y-137264440D01*
X152341768Y-137264440D01*
X152127482Y-137335869D01*
X151984625Y-137478726D01*
X151913196Y-137621583D01*
X151841768Y-137907297D01*
X151841768Y-138121583D01*
X151913196Y-138407297D01*
X151984625Y-138550154D01*
X152127482Y-138693011D01*
X152341768Y-138764440D01*
X152484625Y-138764440D01*
X152698910Y-138693011D01*
X152770339Y-138621583D01*
X152770339Y-138121583D01*
X152484625Y-138121583D01*
X153413196Y-138764440D02*
X153413196Y-137264440D01*
X154270339Y-138764440D01*
X154270339Y-137264440D01*
X154984625Y-138764440D02*
X154984625Y-137264440D01*
X155341768Y-137264440D01*
X155556053Y-137335869D01*
X155698910Y-137478726D01*
X155770339Y-137621583D01*
X155841768Y-137907297D01*
X155841768Y-138121583D01*
X155770339Y-138407297D01*
X155698910Y-138550154D01*
X155556053Y-138693011D01*
X155341768Y-138764440D01*
X154984625Y-138764440D01*
X118284857Y-134833571D02*
X119213428Y-134833571D01*
X118713428Y-135405000D01*
X118927714Y-135405000D01*
X119070571Y-135476428D01*
X119142000Y-135547857D01*
X119213428Y-135690714D01*
X119213428Y-136047857D01*
X119142000Y-136190714D01*
X119070571Y-136262142D01*
X118927714Y-136333571D01*
X118499142Y-136333571D01*
X118356285Y-136262142D01*
X118284857Y-136190714D01*
X119642000Y-134833571D02*
X120142000Y-136333571D01*
X120642000Y-134833571D01*
X120999142Y-134833571D02*
X121927714Y-134833571D01*
X121427714Y-135405000D01*
X121642000Y-135405000D01*
X121784857Y-135476428D01*
X121856285Y-135547857D01*
X121927714Y-135690714D01*
X121927714Y-136047857D01*
X121856285Y-136190714D01*
X121784857Y-136262142D01*
X121642000Y-136333571D01*
X121213428Y-136333571D01*
X121070571Y-136262142D01*
X120999142Y-136190714D01*
X118999142Y-132365000D02*
X118856285Y-132293571D01*
X118642000Y-132293571D01*
X118427714Y-132365000D01*
X118284857Y-132507857D01*
X118213428Y-132650714D01*
X118142000Y-132936428D01*
X118142000Y-133150714D01*
X118213428Y-133436428D01*
X118284857Y-133579285D01*
X118427714Y-133722142D01*
X118642000Y-133793571D01*
X118784857Y-133793571D01*
X118999142Y-133722142D01*
X119070571Y-133650714D01*
X119070571Y-133150714D01*
X118784857Y-133150714D01*
X119713428Y-133793571D02*
X119713428Y-132293571D01*
X120570571Y-133793571D01*
X120570571Y-132293571D01*
X121284857Y-133793571D02*
X121284857Y-132293571D01*
X121642000Y-132293571D01*
X121856285Y-132365000D01*
X121999142Y-132507857D01*
X122070571Y-132650714D01*
X122142000Y-132936428D01*
X122142000Y-133150714D01*
X122070571Y-133436428D01*
X121999142Y-133579285D01*
X121856285Y-133722142D01*
X121642000Y-133793571D01*
X121284857Y-133793571D01*
D15*
X162814047Y-135296428D02*
X163575952Y-135296428D01*
X163195000Y-135677380D02*
X163195000Y-134915476D01*
X161933095Y-136377380D02*
X161933095Y-137186904D01*
X161980714Y-137282142D01*
X162028333Y-137329761D01*
X162123571Y-137377380D01*
X162314047Y-137377380D01*
X162409285Y-137329761D01*
X162456904Y-137282142D01*
X162504523Y-137186904D01*
X162504523Y-136377380D01*
X162933095Y-137329761D02*
X163075952Y-137377380D01*
X163314047Y-137377380D01*
X163409285Y-137329761D01*
X163456904Y-137282142D01*
X163504523Y-137186904D01*
X163504523Y-137091666D01*
X163456904Y-136996428D01*
X163409285Y-136948809D01*
X163314047Y-136901190D01*
X163123571Y-136853571D01*
X163028333Y-136805952D01*
X162980714Y-136758333D01*
X162933095Y-136663095D01*
X162933095Y-136567857D01*
X162980714Y-136472619D01*
X163028333Y-136425000D01*
X163123571Y-136377380D01*
X163361666Y-136377380D01*
X163504523Y-136425000D01*
X164266428Y-136853571D02*
X164409285Y-136901190D01*
X164456904Y-136948809D01*
X164504523Y-137044047D01*
X164504523Y-137186904D01*
X164456904Y-137282142D01*
X164409285Y-137329761D01*
X164314047Y-137377380D01*
X163933095Y-137377380D01*
X163933095Y-136377380D01*
X164266428Y-136377380D01*
X164361666Y-136425000D01*
X164409285Y-136472619D01*
X164456904Y-136567857D01*
X164456904Y-136663095D01*
X164409285Y-136758333D01*
X164361666Y-136805952D01*
X164266428Y-136853571D01*
X163933095Y-136853571D01*
X162814047Y-138696428D02*
X163575952Y-138696428D01*
D11*
X174599285Y-122659285D02*
X174599285Y-121909285D01*
X174777857Y-121909285D01*
X174885000Y-121945000D01*
X174956428Y-122016428D01*
X174992142Y-122087857D01*
X175027857Y-122230714D01*
X175027857Y-122337857D01*
X174992142Y-122480714D01*
X174956428Y-122552142D01*
X174885000Y-122623571D01*
X174777857Y-122659285D01*
X174599285Y-122659285D01*
X175349285Y-122373571D02*
X175920714Y-122373571D01*
X177139285Y-122659285D02*
X177139285Y-121909285D01*
X177317857Y-121909285D01*
X177425000Y-121945000D01*
X177496428Y-122016428D01*
X177532142Y-122087857D01*
X177567857Y-122230714D01*
X177567857Y-122337857D01*
X177532142Y-122480714D01*
X177496428Y-122552142D01*
X177425000Y-122623571D01*
X177317857Y-122659285D01*
X177139285Y-122659285D01*
X177889285Y-122373571D02*
X178460714Y-122373571D01*
X178175000Y-122659285D02*
X178175000Y-122087857D01*
X179768571Y-121945000D02*
X179697142Y-121909285D01*
X179590000Y-121909285D01*
X179482857Y-121945000D01*
X179411428Y-122016428D01*
X179375714Y-122087857D01*
X179340000Y-122230714D01*
X179340000Y-122337857D01*
X179375714Y-122480714D01*
X179411428Y-122552142D01*
X179482857Y-122623571D01*
X179590000Y-122659285D01*
X179661428Y-122659285D01*
X179768571Y-122623571D01*
X179804285Y-122587857D01*
X179804285Y-122337857D01*
X179661428Y-122337857D01*
X180125714Y-122659285D02*
X180125714Y-121909285D01*
X180554285Y-122659285D01*
X180554285Y-121909285D01*
X180911428Y-122659285D02*
X180911428Y-121909285D01*
X181090000Y-121909285D01*
X181197142Y-121945000D01*
X181268571Y-122016428D01*
X181304285Y-122087857D01*
X181340000Y-122230714D01*
X181340000Y-122337857D01*
X181304285Y-122480714D01*
X181268571Y-122552142D01*
X181197142Y-122623571D01*
X181090000Y-122659285D01*
X180911428Y-122659285D01*
X172112857Y-121909285D02*
X171755714Y-121909285D01*
X171720000Y-122266428D01*
X171755714Y-122230714D01*
X171827142Y-122195000D01*
X172005714Y-122195000D01*
X172077142Y-122230714D01*
X172112857Y-122266428D01*
X172148571Y-122337857D01*
X172148571Y-122516428D01*
X172112857Y-122587857D01*
X172077142Y-122623571D01*
X172005714Y-122659285D01*
X171827142Y-122659285D01*
X171755714Y-122623571D01*
X171720000Y-122587857D01*
X172362857Y-121909285D02*
X172612857Y-122659285D01*
X172862857Y-121909285D01*
X173112857Y-122373571D02*
X173684285Y-122373571D01*
X173398571Y-122659285D02*
X173398571Y-122087857D01*
D14*
X119094285Y-137264440D02*
X118380000Y-137264440D01*
X118308571Y-137978726D01*
X118380000Y-137907297D01*
X118522857Y-137835869D01*
X118880000Y-137835869D01*
X119022857Y-137907297D01*
X119094285Y-137978726D01*
X119165714Y-138121583D01*
X119165714Y-138478726D01*
X119094285Y-138621583D01*
X119022857Y-138693011D01*
X118880000Y-138764440D01*
X118522857Y-138764440D01*
X118380000Y-138693011D01*
X118308571Y-138621583D01*
X119594285Y-137264440D02*
X120094285Y-138764440D01*
X120594285Y-137264440D01*
D16*
X171371190Y-136742380D02*
X171371190Y-135742380D01*
X171704523Y-136456666D01*
X172037857Y-135742380D01*
X172037857Y-136742380D01*
X172514047Y-136742380D02*
X172514047Y-136075714D01*
X172514047Y-135742380D02*
X172466428Y-135790000D01*
X172514047Y-135837619D01*
X172561666Y-135790000D01*
X172514047Y-135742380D01*
X172514047Y-135837619D01*
X173418809Y-136694761D02*
X173323571Y-136742380D01*
X173133095Y-136742380D01*
X173037857Y-136694761D01*
X172990238Y-136647142D01*
X172942619Y-136551904D01*
X172942619Y-136266190D01*
X172990238Y-136170952D01*
X173037857Y-136123333D01*
X173133095Y-136075714D01*
X173323571Y-136075714D01*
X173418809Y-136123333D01*
X173847380Y-136742380D02*
X173847380Y-136075714D01*
X173847380Y-136266190D02*
X173895000Y-136170952D01*
X173942619Y-136123333D01*
X174037857Y-136075714D01*
X174133095Y-136075714D01*
X174609285Y-136742380D02*
X174514047Y-136694761D01*
X174466428Y-136647142D01*
X174418809Y-136551904D01*
X174418809Y-136266190D01*
X174466428Y-136170952D01*
X174514047Y-136123333D01*
X174609285Y-136075714D01*
X174752142Y-136075714D01*
X174847380Y-136123333D01*
X174895000Y-136170952D01*
X174942619Y-136266190D01*
X174942619Y-136551904D01*
X174895000Y-136647142D01*
X174847380Y-136694761D01*
X174752142Y-136742380D01*
X174609285Y-136742380D01*
X176133095Y-135742380D02*
X176133095Y-136551904D01*
X176180714Y-136647142D01*
X176228333Y-136694761D01*
X176323571Y-136742380D01*
X176514047Y-136742380D01*
X176609285Y-136694761D01*
X176656904Y-136647142D01*
X176704523Y-136551904D01*
X176704523Y-135742380D01*
X177133095Y-136694761D02*
X177275952Y-136742380D01*
X177514047Y-136742380D01*
X177609285Y-136694761D01*
X177656904Y-136647142D01*
X177704523Y-136551904D01*
X177704523Y-136456666D01*
X177656904Y-136361428D01*
X177609285Y-136313809D01*
X177514047Y-136266190D01*
X177323571Y-136218571D01*
X177228333Y-136170952D01*
X177180714Y-136123333D01*
X177133095Y-136028095D01*
X177133095Y-135932857D01*
X177180714Y-135837619D01*
X177228333Y-135790000D01*
X177323571Y-135742380D01*
X177561666Y-135742380D01*
X177704523Y-135790000D01*
X178466428Y-136218571D02*
X178609285Y-136266190D01*
X178656904Y-136313809D01*
X178704523Y-136409047D01*
X178704523Y-136551904D01*
X178656904Y-136647142D01*
X178609285Y-136694761D01*
X178514047Y-136742380D01*
X178133095Y-136742380D01*
X178133095Y-135742380D01*
X178466428Y-135742380D01*
X178561666Y-135790000D01*
X178609285Y-135837619D01*
X178656904Y-135932857D01*
X178656904Y-136028095D01*
X178609285Y-136123333D01*
X178561666Y-136170952D01*
X178466428Y-136218571D01*
X178133095Y-136218571D01*
X180228333Y-136218571D02*
X180371190Y-136266190D01*
X180418809Y-136313809D01*
X180466428Y-136409047D01*
X180466428Y-136551904D01*
X180418809Y-136647142D01*
X180371190Y-136694761D01*
X180275952Y-136742380D01*
X179895000Y-136742380D01*
X179895000Y-135742380D01*
X180228333Y-135742380D01*
X180323571Y-135790000D01*
X180371190Y-135837619D01*
X180418809Y-135932857D01*
X180418809Y-136028095D01*
X180371190Y-136123333D01*
X180323571Y-136170952D01*
X180228333Y-136218571D01*
X179895000Y-136218571D01*
D14*
X154191053Y-134724440D02*
X153476768Y-134724440D01*
X153405339Y-135438726D01*
X153476768Y-135367297D01*
X153619625Y-135295869D01*
X153976768Y-135295869D01*
X154119625Y-135367297D01*
X154191053Y-135438726D01*
X154262482Y-135581583D01*
X154262482Y-135938726D01*
X154191053Y-136081583D01*
X154119625Y-136153011D01*
X153976768Y-136224440D01*
X153619625Y-136224440D01*
X153476768Y-136153011D01*
X153405339Y-136081583D01*
X154691053Y-134724440D02*
X155191053Y-136224440D01*
X155691053Y-134724440D01*
D12*
X159385000Y-135655000D02*
X158115000Y-135655000D01*
X116205000Y-138195000D02*
X114935000Y-138195000D01*
X159385000Y-138195000D02*
X158115000Y-138195000D01*
X116205000Y-133115000D02*
X114935000Y-133115000D01*
X116205000Y-135655000D02*
X114935000Y-135655000D01*
D17*
G36*
X143332601Y-92487758D02*
G01*
X144153081Y-92665997D01*
X144371644Y-92735270D01*
X144516034Y-92797553D01*
X144553367Y-92833738D01*
X144492824Y-92899938D01*
X144346023Y-93038259D01*
X144137310Y-93226198D01*
X143968894Y-93373941D01*
X143405238Y-93863460D01*
X142185800Y-93884340D01*
X141664823Y-93897494D01*
X141252665Y-93921364D01*
X140912637Y-93962751D01*
X140608051Y-94028453D01*
X140302219Y-94125269D01*
X139958455Y-94259998D01*
X139801891Y-94326121D01*
X139462612Y-94499636D01*
X139067299Y-94745409D01*
X138661295Y-95031250D01*
X138289949Y-95324970D01*
X137998604Y-95594379D01*
X137965506Y-95629718D01*
X137383874Y-96359169D01*
X136941795Y-97125131D01*
X136636047Y-97935775D01*
X136463409Y-98799270D01*
X136418914Y-99552905D01*
X136486477Y-100463510D01*
X136690415Y-101326891D01*
X137027647Y-102137533D01*
X137495092Y-102889918D01*
X138089670Y-103578529D01*
X138808299Y-104197848D01*
X139145440Y-104435352D01*
X139504554Y-104669952D01*
X139784701Y-104840305D01*
X140025597Y-104966436D01*
X140266957Y-105068367D01*
X140548499Y-105166123D01*
X140675243Y-105206645D01*
X141591023Y-105428386D01*
X142480514Y-105507109D01*
X143345542Y-105442613D01*
X144187931Y-105234699D01*
X145009506Y-104883165D01*
X145346840Y-104693823D01*
X145615461Y-104542723D01*
X145845647Y-104432313D01*
X146004461Y-104377470D01*
X146049539Y-104376415D01*
X146166981Y-104356417D01*
X146334025Y-104254473D01*
X146397557Y-104201803D01*
X146554301Y-104037354D01*
X146624615Y-103871619D01*
X146640990Y-103651076D01*
X146656286Y-103453220D01*
X146693465Y-103348846D01*
X146715931Y-103342071D01*
X146882527Y-103332056D01*
X147056681Y-103214638D01*
X147202372Y-103021298D01*
X147267461Y-102860114D01*
X147322618Y-102666943D01*
X147408879Y-102375819D01*
X147513980Y-102027738D01*
X147615060Y-101697985D01*
X147727841Y-101342238D01*
X147809597Y-101111219D01*
X147867724Y-100989261D01*
X147909617Y-100960697D01*
X147941422Y-101006581D01*
X147971331Y-101182216D01*
X147977746Y-101469083D01*
X147963024Y-101835171D01*
X147929522Y-102248467D01*
X147879596Y-102676959D01*
X147815605Y-103088636D01*
X147771541Y-103313777D01*
X147622521Y-103860652D01*
X147416149Y-104333794D01*
X147126297Y-104784241D01*
X146836651Y-105139892D01*
X146645069Y-105339109D01*
X146435069Y-105509632D01*
X146179481Y-105667265D01*
X145851137Y-105827811D01*
X145422868Y-106007073D01*
X145187564Y-106099115D01*
X144246337Y-106416844D01*
X143359126Y-106618832D01*
X142497247Y-106709120D01*
X141632017Y-106691752D01*
X141257478Y-106652915D01*
X140260226Y-106454536D01*
X139312774Y-106122323D01*
X138424920Y-105662394D01*
X137606461Y-105080869D01*
X136867198Y-104383869D01*
X136216926Y-103577511D01*
X136129470Y-103450187D01*
X135659364Y-102626928D01*
X135301899Y-101720228D01*
X135091395Y-100913690D01*
X135003273Y-100292784D01*
X134973424Y-99596549D01*
X135000273Y-98881173D01*
X135082245Y-98202841D01*
X135180136Y-97747788D01*
X135506511Y-96802240D01*
X135950393Y-95930596D01*
X136500263Y-95139377D01*
X137144603Y-94435107D01*
X137871894Y-93824310D01*
X138670619Y-93313509D01*
X139529259Y-92909227D01*
X140436295Y-92617987D01*
X141380210Y-92446314D01*
X142349485Y-92400729D01*
X143332601Y-92487758D01*
G37*
X143332601Y-92487758D02*
X144153081Y-92665997D01*
X144371644Y-92735270D01*
X144516034Y-92797553D01*
X144553367Y-92833738D01*
X144492824Y-92899938D01*
X144346023Y-93038259D01*
X144137310Y-93226198D01*
X143968894Y-93373941D01*
X143405238Y-93863460D01*
X142185800Y-93884340D01*
X141664823Y-93897494D01*
X141252665Y-93921364D01*
X140912637Y-93962751D01*
X140608051Y-94028453D01*
X140302219Y-94125269D01*
X139958455Y-94259998D01*
X139801891Y-94326121D01*
X139462612Y-94499636D01*
X139067299Y-94745409D01*
X138661295Y-95031250D01*
X138289949Y-95324970D01*
X137998604Y-95594379D01*
X137965506Y-95629718D01*
X137383874Y-96359169D01*
X136941795Y-97125131D01*
X136636047Y-97935775D01*
X136463409Y-98799270D01*
X136418914Y-99552905D01*
X136486477Y-100463510D01*
X136690415Y-101326891D01*
X137027647Y-102137533D01*
X137495092Y-102889918D01*
X138089670Y-103578529D01*
X138808299Y-104197848D01*
X139145440Y-104435352D01*
X139504554Y-104669952D01*
X139784701Y-104840305D01*
X140025597Y-104966436D01*
X140266957Y-105068367D01*
X140548499Y-105166123D01*
X140675243Y-105206645D01*
X141591023Y-105428386D01*
X142480514Y-105507109D01*
X143345542Y-105442613D01*
X144187931Y-105234699D01*
X145009506Y-104883165D01*
X145346840Y-104693823D01*
X145615461Y-104542723D01*
X145845647Y-104432313D01*
X146004461Y-104377470D01*
X146049539Y-104376415D01*
X146166981Y-104356417D01*
X146334025Y-104254473D01*
X146397557Y-104201803D01*
X146554301Y-104037354D01*
X146624615Y-103871619D01*
X146640990Y-103651076D01*
X146656286Y-103453220D01*
X146693465Y-103348846D01*
X146715931Y-103342071D01*
X146882527Y-103332056D01*
X147056681Y-103214638D01*
X147202372Y-103021298D01*
X147267461Y-102860114D01*
X147322618Y-102666943D01*
X147408879Y-102375819D01*
X147513980Y-102027738D01*
X147615060Y-101697985D01*
X147727841Y-101342238D01*
X147809597Y-101111219D01*
X147867724Y-100989261D01*
X147909617Y-100960697D01*
X147941422Y-101006581D01*
X147971331Y-101182216D01*
X147977746Y-101469083D01*
X147963024Y-101835171D01*
X147929522Y-102248467D01*
X147879596Y-102676959D01*
X147815605Y-103088636D01*
X147771541Y-103313777D01*
X147622521Y-103860652D01*
X147416149Y-104333794D01*
X147126297Y-104784241D01*
X146836651Y-105139892D01*
X146645069Y-105339109D01*
X146435069Y-105509632D01*
X146179481Y-105667265D01*
X145851137Y-105827811D01*
X145422868Y-106007073D01*
X145187564Y-106099115D01*
X144246337Y-106416844D01*
X143359126Y-106618832D01*
X142497247Y-106709120D01*
X141632017Y-106691752D01*
X141257478Y-106652915D01*
X140260226Y-106454536D01*
X139312774Y-106122323D01*
X138424920Y-105662394D01*
X137606461Y-105080869D01*
X136867198Y-104383869D01*
X136216926Y-103577511D01*
X136129470Y-103450187D01*
X135659364Y-102626928D01*
X135301899Y-101720228D01*
X135091395Y-100913690D01*
X135003273Y-100292784D01*
X134973424Y-99596549D01*
X135000273Y-98881173D01*
X135082245Y-98202841D01*
X135180136Y-97747788D01*
X135506511Y-96802240D01*
X135950393Y-95930596D01*
X136500263Y-95139377D01*
X137144603Y-94435107D01*
X137871894Y-93824310D01*
X138670619Y-93313509D01*
X139529259Y-92909227D01*
X140436295Y-92617987D01*
X141380210Y-92446314D01*
X142349485Y-92400729D01*
X143332601Y-92487758D01*
G36*
X148685274Y-104006669D02*
G01*
X148608392Y-104171069D01*
X148485798Y-104383686D01*
X148337646Y-104609920D01*
X148184091Y-104815168D01*
X148163037Y-104840583D01*
X147883193Y-105088425D01*
X147518352Y-105293381D01*
X147128755Y-105422207D01*
X147098023Y-105428285D01*
X146924001Y-105453640D01*
X146830310Y-105453391D01*
X146825100Y-105448361D01*
X146879085Y-105335244D01*
X147020081Y-105167702D01*
X147216652Y-104975912D01*
X147437359Y-104790051D01*
X147650767Y-104640294D01*
X147692331Y-104615910D01*
X147966399Y-104446041D01*
X148236499Y-104253238D01*
X148378134Y-104137053D01*
X148542342Y-104002567D01*
X148661066Y-103929029D01*
X148696288Y-103925089D01*
X148685274Y-104006669D01*
G37*
X148685274Y-104006669D02*
X148608392Y-104171069D01*
X148485798Y-104383686D01*
X148337646Y-104609920D01*
X148184091Y-104815168D01*
X148163037Y-104840583D01*
X147883193Y-105088425D01*
X147518352Y-105293381D01*
X147128755Y-105422207D01*
X147098023Y-105428285D01*
X146924001Y-105453640D01*
X146830310Y-105453391D01*
X146825100Y-105448361D01*
X146879085Y-105335244D01*
X147020081Y-105167702D01*
X147216652Y-104975912D01*
X147437359Y-104790051D01*
X147650767Y-104640294D01*
X147692331Y-104615910D01*
X147966399Y-104446041D01*
X148236499Y-104253238D01*
X148378134Y-104137053D01*
X148542342Y-104002567D01*
X148661066Y-103929029D01*
X148696288Y-103925089D01*
X148685274Y-104006669D01*
G36*
X141862080Y-95197793D02*
G01*
X141853412Y-95263455D01*
X141849541Y-95273921D01*
X141841583Y-95422956D01*
X141874679Y-95560661D01*
X142006206Y-95718361D01*
X142233195Y-95808762D01*
X142523662Y-95834877D01*
X142845620Y-95799720D01*
X143167081Y-95706305D01*
X143456061Y-95557646D01*
X143649253Y-95393446D01*
X143783239Y-95245394D01*
X144303453Y-95430211D01*
X144768864Y-95612912D01*
X145136214Y-95803687D01*
X145451538Y-96031198D01*
X145760868Y-96324107D01*
X145792547Y-96357362D01*
X146193655Y-96863792D01*
X146494951Y-97435526D01*
X146701124Y-98086825D01*
X146816861Y-98831949D01*
X146847634Y-99567272D01*
X146846880Y-100513404D01*
X146541540Y-101087800D01*
X146395052Y-101370716D01*
X146306005Y-101579434D01*
X146261404Y-101767142D01*
X146248256Y-101987025D01*
X146252929Y-102269198D01*
X146255217Y-102553361D01*
X146246679Y-102779007D01*
X146229096Y-102908807D01*
X146221669Y-102924189D01*
X146167834Y-102893995D01*
X146082330Y-102761658D01*
X145981120Y-102562578D01*
X145880169Y-102332155D01*
X145795442Y-102105791D01*
X145742903Y-101918885D01*
X145733467Y-101841627D01*
X145714893Y-101680327D01*
X145667523Y-101648457D01*
X145603684Y-101735820D01*
X145535706Y-101932220D01*
X145513496Y-102023576D01*
X145474735Y-102321909D01*
X145462199Y-102712033D01*
X145474811Y-103142765D01*
X145511490Y-103562922D01*
X145551518Y-103826576D01*
X145569464Y-103970186D01*
X145543466Y-104081250D01*
X145451572Y-104198216D01*
X145271830Y-104359531D01*
X145224250Y-104399790D01*
X144996657Y-104574762D01*
X144750149Y-104724152D01*
X144454965Y-104861561D01*
X144081347Y-105000594D01*
X143599537Y-105154853D01*
X143519008Y-105179267D01*
X142800816Y-105323344D01*
X142052520Y-105339071D01*
X141313713Y-105225884D01*
X141256999Y-105211452D01*
X140625131Y-105016986D01*
X140057535Y-104785798D01*
X139591284Y-104533388D01*
X139516461Y-104483793D01*
X139333816Y-104351873D01*
X139212792Y-104252472D01*
X139183266Y-104216573D01*
X139221180Y-104140271D01*
X139318588Y-103984909D01*
X139404429Y-103857149D01*
X139570826Y-103655468D01*
X142706275Y-103655468D01*
X142760708Y-103660868D01*
X142889623Y-103564547D01*
X143048410Y-103406384D01*
X143365483Y-103039917D01*
X143623114Y-102669719D01*
X143855938Y-102242233D01*
X143995426Y-101942062D01*
X144252792Y-101285083D01*
X144411165Y-100698909D01*
X144468239Y-100194242D01*
X144441924Y-99869052D01*
X144369724Y-99494493D01*
X144360163Y-100015659D01*
X144284945Y-100664524D01*
X144080642Y-101326457D01*
X143743768Y-102009805D01*
X143270843Y-102722914D01*
X143180371Y-102842870D01*
X142963370Y-103142047D01*
X142810254Y-103384747D01*
X142723673Y-103559657D01*
X142706275Y-103655468D01*
X139570826Y-103655468D01*
X139630617Y-103583000D01*
X139958477Y-103260511D01*
X140362488Y-102912114D01*
X140817126Y-102560242D01*
X141138455Y-102332963D01*
X141471039Y-102085575D01*
X141727546Y-101834787D01*
X141965571Y-101522009D01*
X142029379Y-101426591D01*
X142202346Y-101155295D01*
X142307989Y-100956695D01*
X142362743Y-100784444D01*
X142383045Y-100592193D01*
X142385558Y-100422185D01*
X142336830Y-99951836D01*
X142185751Y-99569307D01*
X142042145Y-99371715D01*
X141974539Y-99246975D01*
X142020526Y-99133481D01*
X142191965Y-99009695D01*
X142262810Y-98970919D01*
X142422389Y-98910271D01*
X142644988Y-98871254D01*
X142959912Y-98850278D01*
X143298392Y-98844072D01*
X143671067Y-98837992D01*
X143931075Y-98821569D01*
X144111200Y-98789989D01*
X144244228Y-98738437D01*
X144317303Y-98694420D01*
X144532550Y-98549361D01*
X144154924Y-98510872D01*
X143929185Y-98477602D01*
X143765340Y-98434659D01*
X143718247Y-98409159D01*
X143731863Y-98377021D01*
X143845580Y-98390497D01*
X144154669Y-98394400D01*
X144490041Y-98278705D01*
X144818366Y-98056610D01*
X144914401Y-97967324D01*
X145122596Y-97745566D01*
X145212660Y-97603218D01*
X145179500Y-97527981D01*
X145018024Y-97507558D01*
X144732693Y-97528623D01*
X144327920Y-97593513D01*
X144031540Y-97698161D01*
X143808346Y-97858504D01*
X143683191Y-98003717D01*
X143491847Y-98179879D01*
X143336198Y-98221926D01*
X143249712Y-98225027D01*
X143167346Y-98241364D01*
X143063853Y-98283165D01*
X142913988Y-98362655D01*
X142692503Y-98492063D01*
X142374152Y-98683614D01*
X142338943Y-98704890D01*
X142097701Y-98840012D01*
X141772695Y-99007111D01*
X141391366Y-99193630D01*
X140981156Y-99387012D01*
X140569509Y-99574697D01*
X140183867Y-99744128D01*
X139851672Y-99882749D01*
X139600366Y-99978000D01*
X139477707Y-100014200D01*
X139217154Y-99999196D01*
X138875761Y-99867956D01*
X138457726Y-99622378D01*
X138182550Y-99428852D01*
X137929982Y-99223560D01*
X137773077Y-99055366D01*
X137727679Y-98953928D01*
X137779169Y-98827409D01*
X137938542Y-98661952D01*
X138213151Y-98451521D01*
X138610348Y-98190084D01*
X138804167Y-98070503D01*
X139108549Y-97870003D01*
X139292944Y-97708836D01*
X139372900Y-97573249D01*
X139374669Y-97565839D01*
X139434891Y-97314886D01*
X140163342Y-97314886D01*
X140220732Y-97344010D01*
X140295695Y-97252046D01*
X140301468Y-97237830D01*
X140387062Y-97149388D01*
X140564044Y-97035696D01*
X140727736Y-96952675D01*
X140923331Y-96850779D01*
X140989833Y-96789337D01*
X140939187Y-96772796D01*
X140783335Y-96805601D01*
X140549352Y-96886271D01*
X140362959Y-96959393D01*
X140247046Y-97005918D01*
X140229413Y-97013635D01*
X140203876Y-97078620D01*
X140169924Y-97183748D01*
X140163342Y-97314886D01*
X139434891Y-97314886D01*
X139508085Y-97009884D01*
X139647406Y-96575283D01*
X139811671Y-96238424D01*
X140019922Y-95975697D01*
X140291199Y-95763490D01*
X140644542Y-95578192D01*
X141098993Y-95396193D01*
X141134949Y-95383015D01*
X141470381Y-95263517D01*
X141690254Y-95194817D01*
X141814257Y-95173911D01*
X141862080Y-95197793D01*
G37*
X141862080Y-95197793D02*
X141853412Y-95263455D01*
X141849541Y-95273921D01*
X141841583Y-95422956D01*
X141874679Y-95560661D01*
X142006206Y-95718361D01*
X142233195Y-95808762D01*
X142523662Y-95834877D01*
X142845620Y-95799720D01*
X143167081Y-95706305D01*
X143456061Y-95557646D01*
X143649253Y-95393446D01*
X143783239Y-95245394D01*
X144303453Y-95430211D01*
X144768864Y-95612912D01*
X145136214Y-95803687D01*
X145451538Y-96031198D01*
X145760868Y-96324107D01*
X145792547Y-96357362D01*
X146193655Y-96863792D01*
X146494951Y-97435526D01*
X146701124Y-98086825D01*
X146816861Y-98831949D01*
X146847634Y-99567272D01*
X146846880Y-100513404D01*
X146541540Y-101087800D01*
X146395052Y-101370716D01*
X146306005Y-101579434D01*
X146261404Y-101767142D01*
X146248256Y-101987025D01*
X146252929Y-102269198D01*
X146255217Y-102553361D01*
X146246679Y-102779007D01*
X146229096Y-102908807D01*
X146221669Y-102924189D01*
X146167834Y-102893995D01*
X146082330Y-102761658D01*
X145981120Y-102562578D01*
X145880169Y-102332155D01*
X145795442Y-102105791D01*
X145742903Y-101918885D01*
X145733467Y-101841627D01*
X145714893Y-101680327D01*
X145667523Y-101648457D01*
X145603684Y-101735820D01*
X145535706Y-101932220D01*
X145513496Y-102023576D01*
X145474735Y-102321909D01*
X145462199Y-102712033D01*
X145474811Y-103142765D01*
X145511490Y-103562922D01*
X145551518Y-103826576D01*
X145569464Y-103970186D01*
X145543466Y-104081250D01*
X145451572Y-104198216D01*
X145271830Y-104359531D01*
X145224250Y-104399790D01*
X144996657Y-104574762D01*
X144750149Y-104724152D01*
X144454965Y-104861561D01*
X144081347Y-105000594D01*
X143599537Y-105154853D01*
X143519008Y-105179267D01*
X142800816Y-105323344D01*
X142052520Y-105339071D01*
X141313713Y-105225884D01*
X141256999Y-105211452D01*
X140625131Y-105016986D01*
X140057535Y-104785798D01*
X139591284Y-104533388D01*
X139516461Y-104483793D01*
X139333816Y-104351873D01*
X139212792Y-104252472D01*
X139183266Y-104216573D01*
X139221180Y-104140271D01*
X139318588Y-103984909D01*
X139404429Y-103857149D01*
X139570826Y-103655468D01*
X142706275Y-103655468D01*
X142760708Y-103660868D01*
X142889623Y-103564547D01*
X143048410Y-103406384D01*
X143365483Y-103039917D01*
X143623114Y-102669719D01*
X143855938Y-102242233D01*
X143995426Y-101942062D01*
X144252792Y-101285083D01*
X144411165Y-100698909D01*
X144468239Y-100194242D01*
X144441924Y-99869052D01*
X144369724Y-99494493D01*
X144360163Y-100015659D01*
X144284945Y-100664524D01*
X144080642Y-101326457D01*
X143743768Y-102009805D01*
X143270843Y-102722914D01*
X143180371Y-102842870D01*
X142963370Y-103142047D01*
X142810254Y-103384747D01*
X142723673Y-103559657D01*
X142706275Y-103655468D01*
X139570826Y-103655468D01*
X139630617Y-103583000D01*
X139958477Y-103260511D01*
X140362488Y-102912114D01*
X140817126Y-102560242D01*
X141138455Y-102332963D01*
X141471039Y-102085575D01*
X141727546Y-101834787D01*
X141965571Y-101522009D01*
X142029379Y-101426591D01*
X142202346Y-101155295D01*
X142307989Y-100956695D01*
X142362743Y-100784444D01*
X142383045Y-100592193D01*
X142385558Y-100422185D01*
X142336830Y-99951836D01*
X142185751Y-99569307D01*
X142042145Y-99371715D01*
X141974539Y-99246975D01*
X142020526Y-99133481D01*
X142191965Y-99009695D01*
X142262810Y-98970919D01*
X142422389Y-98910271D01*
X142644988Y-98871254D01*
X142959912Y-98850278D01*
X143298392Y-98844072D01*
X143671067Y-98837992D01*
X143931075Y-98821569D01*
X144111200Y-98789989D01*
X144244228Y-98738437D01*
X144317303Y-98694420D01*
X144532550Y-98549361D01*
X144154924Y-98510872D01*
X143929185Y-98477602D01*
X143765340Y-98434659D01*
X143718247Y-98409159D01*
X143731863Y-98377021D01*
X143845580Y-98390497D01*
X144154669Y-98394400D01*
X144490041Y-98278705D01*
X144818366Y-98056610D01*
X144914401Y-97967324D01*
X145122596Y-97745566D01*
X145212660Y-97603218D01*
X145179500Y-97527981D01*
X145018024Y-97507558D01*
X144732693Y-97528623D01*
X144327920Y-97593513D01*
X144031540Y-97698161D01*
X143808346Y-97858504D01*
X143683191Y-98003717D01*
X143491847Y-98179879D01*
X143336198Y-98221926D01*
X143249712Y-98225027D01*
X143167346Y-98241364D01*
X143063853Y-98283165D01*
X142913988Y-98362655D01*
X142692503Y-98492063D01*
X142374152Y-98683614D01*
X142338943Y-98704890D01*
X142097701Y-98840012D01*
X141772695Y-99007111D01*
X141391366Y-99193630D01*
X140981156Y-99387012D01*
X140569509Y-99574697D01*
X140183867Y-99744128D01*
X139851672Y-99882749D01*
X139600366Y-99978000D01*
X139477707Y-100014200D01*
X139217154Y-99999196D01*
X138875761Y-99867956D01*
X138457726Y-99622378D01*
X138182550Y-99428852D01*
X137929982Y-99223560D01*
X137773077Y-99055366D01*
X137727679Y-98953928D01*
X137779169Y-98827409D01*
X137938542Y-98661952D01*
X138213151Y-98451521D01*
X138610348Y-98190084D01*
X138804167Y-98070503D01*
X139108549Y-97870003D01*
X139292944Y-97708836D01*
X139372900Y-97573249D01*
X139374669Y-97565839D01*
X139434891Y-97314886D01*
X140163342Y-97314886D01*
X140220732Y-97344010D01*
X140295695Y-97252046D01*
X140301468Y-97237830D01*
X140387062Y-97149388D01*
X140564044Y-97035696D01*
X140727736Y-96952675D01*
X140923331Y-96850779D01*
X140989833Y-96789337D01*
X140939187Y-96772796D01*
X140783335Y-96805601D01*
X140549352Y-96886271D01*
X140362959Y-96959393D01*
X140247046Y-97005918D01*
X140229413Y-97013635D01*
X140203876Y-97078620D01*
X140169924Y-97183748D01*
X140163342Y-97314886D01*
X139434891Y-97314886D01*
X139508085Y-97009884D01*
X139647406Y-96575283D01*
X139811671Y-96238424D01*
X140019922Y-95975697D01*
X140291199Y-95763490D01*
X140644542Y-95578192D01*
X141098993Y-95396193D01*
X141134949Y-95383015D01*
X141470381Y-95263517D01*
X141690254Y-95194817D01*
X141814257Y-95173911D01*
X141862080Y-95197793D01*
G36*
X145913356Y-102716278D02*
G01*
X146068989Y-103001005D01*
X146211489Y-103252663D01*
X146318486Y-103432100D01*
X146348816Y-103478460D01*
X146451906Y-103722893D01*
X146410732Y-103951804D01*
X146292759Y-104103296D01*
X146150083Y-104225616D01*
X146061558Y-104250822D01*
X145981443Y-104187673D01*
X145963371Y-104166378D01*
X145755683Y-103812491D01*
X145631994Y-103349769D01*
X145590667Y-102772077D01*
X145590665Y-102769564D01*
X145590283Y-102114550D01*
X145913356Y-102716278D01*
G37*
X145913356Y-102716278D02*
X146068989Y-103001005D01*
X146211489Y-103252663D01*
X146318486Y-103432100D01*
X146348816Y-103478460D01*
X146451906Y-103722893D01*
X146410732Y-103951804D01*
X146292759Y-104103296D01*
X146150083Y-104225616D01*
X146061558Y-104250822D01*
X145981443Y-104187673D01*
X145963371Y-104166378D01*
X145755683Y-103812491D01*
X145631994Y-103349769D01*
X145590667Y-102772077D01*
X145590665Y-102769564D01*
X145590283Y-102114550D01*
X145913356Y-102716278D01*
G36*
X148992092Y-102235933D02*
G01*
X148980125Y-102319462D01*
X148976962Y-102332888D01*
X148855025Y-102656873D01*
X148652369Y-103011858D01*
X148405098Y-103342014D01*
X148177410Y-103569204D01*
X147999300Y-103709813D01*
X147869186Y-103802672D01*
X147826148Y-103824865D01*
X147818792Y-103761607D01*
X147843430Y-103600149D01*
X147870033Y-103479163D01*
X147927848Y-103296176D01*
X148020169Y-103128419D01*
X148170681Y-102943289D01*
X148403070Y-102708180D01*
X148491261Y-102624005D01*
X148731598Y-102398985D01*
X148884241Y-102265857D01*
X148965601Y-102214786D01*
X148992092Y-102235933D01*
G37*
X148992092Y-102235933D02*
X148980125Y-102319462D01*
X148976962Y-102332888D01*
X148855025Y-102656873D01*
X148652369Y-103011858D01*
X148405098Y-103342014D01*
X148177410Y-103569204D01*
X147999300Y-103709813D01*
X147869186Y-103802672D01*
X147826148Y-103824865D01*
X147818792Y-103761607D01*
X147843430Y-103600149D01*
X147870033Y-103479163D01*
X147927848Y-103296176D01*
X148020169Y-103128419D01*
X148170681Y-102943289D01*
X148403070Y-102708180D01*
X148491261Y-102624005D01*
X148731598Y-102398985D01*
X148884241Y-102265857D01*
X148965601Y-102214786D01*
X148992092Y-102235933D01*
G36*
X146850618Y-100836166D02*
G01*
X146860979Y-101017348D01*
X146869722Y-101280081D01*
X146873223Y-101444707D01*
X146893701Y-101824365D01*
X146937348Y-102198077D01*
X146996295Y-102501315D01*
X147006724Y-102539338D01*
X147072041Y-102795633D01*
X147085049Y-102954763D01*
X147048187Y-103054432D01*
X147040663Y-103064025D01*
X146888008Y-103157974D01*
X146717290Y-103146950D01*
X146626233Y-103078876D01*
X146471232Y-102774968D01*
X146396734Y-102387899D01*
X146403203Y-101956088D01*
X146491106Y-101517953D01*
X146603729Y-101223003D01*
X146713398Y-100997215D01*
X146797847Y-100834555D01*
X146839562Y-100768685D01*
X146840204Y-100768535D01*
X146850618Y-100836166D01*
G37*
X146850618Y-100836166D02*
X146860979Y-101017348D01*
X146869722Y-101280081D01*
X146873223Y-101444707D01*
X146893701Y-101824365D01*
X146937348Y-102198077D01*
X146996295Y-102501315D01*
X147006724Y-102539338D01*
X147072041Y-102795633D01*
X147085049Y-102954763D01*
X147048187Y-103054432D01*
X147040663Y-103064025D01*
X146888008Y-103157974D01*
X146717290Y-103146950D01*
X146626233Y-103078876D01*
X146471232Y-102774968D01*
X146396734Y-102387899D01*
X146403203Y-101956088D01*
X146491106Y-101517953D01*
X146603729Y-101223003D01*
X146713398Y-100997215D01*
X146797847Y-100834555D01*
X146839562Y-100768685D01*
X146840204Y-100768535D01*
X146850618Y-100836166D01*
G36*
X146054158Y-93507981D02*
G01*
X146301696Y-93665756D01*
X146593445Y-93886445D01*
X146911515Y-94155107D01*
X147238016Y-94456803D01*
X147555057Y-94776592D01*
X147844750Y-95099534D01*
X148037009Y-95339738D01*
X148496512Y-96053465D01*
X148883664Y-96866297D01*
X149183321Y-97743492D01*
X149308809Y-98257243D01*
X149366130Y-98663429D01*
X149395106Y-99163536D01*
X149396450Y-99708860D01*
X149370874Y-100250694D01*
X149319092Y-100740331D01*
X149268327Y-101022859D01*
X149184316Y-101376728D01*
X149110035Y-101619339D01*
X149029242Y-101782655D01*
X148925699Y-101898641D01*
X148783165Y-101999263D01*
X148767303Y-102009003D01*
X148571397Y-102117536D01*
X148460598Y-102142547D01*
X148403881Y-102088266D01*
X148393630Y-102059965D01*
X148374553Y-101945214D01*
X148351336Y-101731176D01*
X148328956Y-101463838D01*
X148328643Y-101459536D01*
X148285727Y-101134915D01*
X148211803Y-100809250D01*
X148139746Y-100596265D01*
X148059451Y-100364137D01*
X148006802Y-100089180D01*
X147975672Y-99731860D01*
X147964972Y-99468185D01*
X147873422Y-98538717D01*
X147656471Y-97676202D01*
X147315689Y-96885788D01*
X147036045Y-96424117D01*
X146743632Y-96042985D01*
X146381005Y-95640873D01*
X145991162Y-95261426D01*
X145617102Y-94948292D01*
X145496876Y-94861763D01*
X145289250Y-94715509D01*
X145139503Y-94601054D01*
X145078557Y-94542099D01*
X145078395Y-94541000D01*
X145114695Y-94463422D01*
X145208862Y-94299722D01*
X145338792Y-94085398D01*
X145482384Y-93855953D01*
X145617535Y-93646888D01*
X145722144Y-93493702D01*
X145763275Y-93440932D01*
X145868721Y-93428059D01*
X146054158Y-93507981D01*
G37*
X146054158Y-93507981D02*
X146301696Y-93665756D01*
X146593445Y-93886445D01*
X146911515Y-94155107D01*
X147238016Y-94456803D01*
X147555057Y-94776592D01*
X147844750Y-95099534D01*
X148037009Y-95339738D01*
X148496512Y-96053465D01*
X148883664Y-96866297D01*
X149183321Y-97743492D01*
X149308809Y-98257243D01*
X149366130Y-98663429D01*
X149395106Y-99163536D01*
X149396450Y-99708860D01*
X149370874Y-100250694D01*
X149319092Y-100740331D01*
X149268327Y-101022859D01*
X149184316Y-101376728D01*
X149110035Y-101619339D01*
X149029242Y-101782655D01*
X148925699Y-101898641D01*
X148783165Y-101999263D01*
X148767303Y-102009003D01*
X148571397Y-102117536D01*
X148460598Y-102142547D01*
X148403881Y-102088266D01*
X148393630Y-102059965D01*
X148374553Y-101945214D01*
X148351336Y-101731176D01*
X148328956Y-101463838D01*
X148328643Y-101459536D01*
X148285727Y-101134915D01*
X148211803Y-100809250D01*
X148139746Y-100596265D01*
X148059451Y-100364137D01*
X148006802Y-100089180D01*
X147975672Y-99731860D01*
X147964972Y-99468185D01*
X147873422Y-98538717D01*
X147656471Y-97676202D01*
X147315689Y-96885788D01*
X147036045Y-96424117D01*
X146743632Y-96042985D01*
X146381005Y-95640873D01*
X145991162Y-95261426D01*
X145617102Y-94948292D01*
X145496876Y-94861763D01*
X145289250Y-94715509D01*
X145139503Y-94601054D01*
X145078557Y-94542099D01*
X145078395Y-94541000D01*
X145114695Y-94463422D01*
X145208862Y-94299722D01*
X145338792Y-94085398D01*
X145482384Y-93855953D01*
X145617535Y-93646888D01*
X145722144Y-93493702D01*
X145763275Y-93440932D01*
X145868721Y-93428059D01*
X146054158Y-93507981D01*
G36*
X137644425Y-97988140D02*
G01*
X137761039Y-98117754D01*
X137903118Y-98284893D01*
X137994728Y-98404623D01*
X138013480Y-98439192D01*
X137961736Y-98503021D01*
X137838168Y-98603622D01*
X137662115Y-98731662D01*
X137586134Y-98458063D01*
X137535103Y-98229051D01*
X137510211Y-98028631D01*
X137509747Y-98008585D01*
X137516764Y-97915002D01*
X137553912Y-97904822D01*
X137644425Y-97988140D01*
G37*
X137644425Y-97988140D02*
X137761039Y-98117754D01*
X137903118Y-98284893D01*
X137994728Y-98404623D01*
X138013480Y-98439192D01*
X137961736Y-98503021D01*
X137838168Y-98603622D01*
X137662115Y-98731662D01*
X137586134Y-98458063D01*
X137535103Y-98229051D01*
X137510211Y-98028631D01*
X137509747Y-98008585D01*
X137516764Y-97915002D01*
X137553912Y-97904822D01*
X137644425Y-97988140D01*
G36*
X143422924Y-98391587D02*
G01*
X143590703Y-98473267D01*
X143751791Y-98559182D01*
X143855045Y-98582436D01*
X143986853Y-98622675D01*
X144023094Y-98657530D01*
X143981061Y-98691067D01*
X143832317Y-98713407D01*
X143615300Y-98724294D01*
X143368446Y-98723469D01*
X143130192Y-98710677D01*
X142938974Y-98685659D01*
X142864343Y-98665280D01*
X142775469Y-98619731D01*
X142794493Y-98566823D01*
X142898731Y-98488447D01*
X143156867Y-98381169D01*
X143422924Y-98391587D01*
G37*
X143422924Y-98391587D02*
X143590703Y-98473267D01*
X143751791Y-98559182D01*
X143855045Y-98582436D01*
X143986853Y-98622675D01*
X144023094Y-98657530D01*
X143981061Y-98691067D01*
X143832317Y-98713407D01*
X143615300Y-98724294D01*
X143368446Y-98723469D01*
X143130192Y-98710677D01*
X142938974Y-98685659D01*
X142864343Y-98665280D01*
X142775469Y-98619731D01*
X142794493Y-98566823D01*
X142898731Y-98488447D01*
X143156867Y-98381169D01*
X143422924Y-98391587D01*
G36*
X145078395Y-97636020D02*
G01*
X145021598Y-97735579D01*
X144877469Y-97874768D01*
X144685403Y-98021608D01*
X144484795Y-98144118D01*
X144407524Y-98180603D01*
X144109959Y-98275832D01*
X143902454Y-98278257D01*
X143796023Y-98187949D01*
X143788421Y-98046252D01*
X143896380Y-97918762D01*
X144056110Y-97822312D01*
X144216304Y-97760654D01*
X144435391Y-97701703D01*
X144672157Y-97652970D01*
X144885385Y-97621965D01*
X145033862Y-97616198D01*
X145078395Y-97636020D01*
G37*
X145078395Y-97636020D02*
X145021598Y-97735579D01*
X144877469Y-97874768D01*
X144685403Y-98021608D01*
X144484795Y-98144118D01*
X144407524Y-98180603D01*
X144109959Y-98275832D01*
X143902454Y-98278257D01*
X143796023Y-98187949D01*
X143788421Y-98046252D01*
X143896380Y-97918762D01*
X144056110Y-97822312D01*
X144216304Y-97760654D01*
X144435391Y-97701703D01*
X144672157Y-97652970D01*
X144885385Y-97621965D01*
X145033862Y-97616198D01*
X145078395Y-97636020D01*
G36*
X145279390Y-92556995D02*
G01*
X145275688Y-92566710D01*
X145223121Y-92666485D01*
X145107538Y-92865565D01*
X144943557Y-93140129D01*
X144745793Y-93466355D01*
X144528864Y-93820420D01*
X144307386Y-94178502D01*
X144095978Y-94516780D01*
X143909255Y-94811431D01*
X143761834Y-95038633D01*
X143726606Y-95091341D01*
X143542409Y-95318911D01*
X143326230Y-95477826D01*
X143031789Y-95597783D01*
X142860267Y-95647276D01*
X142608463Y-95711415D01*
X142448467Y-95736782D01*
X142331837Y-95723567D01*
X142210135Y-95671955D01*
X142167220Y-95649959D01*
X142029708Y-95534058D01*
X142000341Y-95355990D01*
X142001156Y-95343977D01*
X142047839Y-95138078D01*
X142167248Y-94940865D01*
X142377258Y-94732118D01*
X142695744Y-94491616D01*
X142843051Y-94391600D01*
X143122815Y-94193033D01*
X143465723Y-93931058D01*
X143827430Y-93640414D01*
X144149720Y-93367954D01*
X144444896Y-93113997D01*
X144719665Y-92883718D01*
X144946055Y-92700155D01*
X145096094Y-92586342D01*
X145111496Y-92575915D01*
X145251278Y-92489048D01*
X145298231Y-92483246D01*
X145279390Y-92556995D01*
G37*
X145279390Y-92556995D02*
X145275688Y-92566710D01*
X145223121Y-92666485D01*
X145107538Y-92865565D01*
X144943557Y-93140129D01*
X144745793Y-93466355D01*
X144528864Y-93820420D01*
X144307386Y-94178502D01*
X144095978Y-94516780D01*
X143909255Y-94811431D01*
X143761834Y-95038633D01*
X143726606Y-95091341D01*
X143542409Y-95318911D01*
X143326230Y-95477826D01*
X143031789Y-95597783D01*
X142860267Y-95647276D01*
X142608463Y-95711415D01*
X142448467Y-95736782D01*
X142331837Y-95723567D01*
X142210135Y-95671955D01*
X142167220Y-95649959D01*
X142029708Y-95534058D01*
X142000341Y-95355990D01*
X142001156Y-95343977D01*
X142047839Y-95138078D01*
X142167248Y-94940865D01*
X142377258Y-94732118D01*
X142695744Y-94491616D01*
X142843051Y-94391600D01*
X143122815Y-94193033D01*
X143465723Y-93931058D01*
X143827430Y-93640414D01*
X144149720Y-93367954D01*
X144444896Y-93113997D01*
X144719665Y-92883718D01*
X144946055Y-92700155D01*
X145096094Y-92586342D01*
X145111496Y-92575915D01*
X145251278Y-92489048D01*
X145298231Y-92483246D01*
X145279390Y-92556995D01*
G36*
X144390759Y-94390498D02*
G01*
X144510870Y-94484007D01*
X144514642Y-94487425D01*
X144660145Y-94603517D01*
X144765805Y-94663596D01*
X144766653Y-94724889D01*
X144696965Y-94854798D01*
X144585165Y-95015196D01*
X144459675Y-95167951D01*
X144348916Y-95274934D01*
X144289981Y-95301936D01*
X144192829Y-95271812D01*
X144048949Y-95217801D01*
X143856466Y-95141409D01*
X144079941Y-94770673D01*
X144203032Y-94567872D01*
X144293754Y-94421002D01*
X144327296Y-94369325D01*
X144390759Y-94390498D01*
G37*
X144390759Y-94390498D02*
X144510870Y-94484007D01*
X144514642Y-94487425D01*
X144660145Y-94603517D01*
X144765805Y-94663596D01*
X144766653Y-94724889D01*
X144696965Y-94854798D01*
X144585165Y-95015196D01*
X144459675Y-95167951D01*
X144348916Y-95274934D01*
X144289981Y-95301936D01*
X144192829Y-95271812D01*
X144048949Y-95217801D01*
X143856466Y-95141409D01*
X144079941Y-94770673D01*
X144203032Y-94567872D01*
X144293754Y-94421002D01*
X144327296Y-94369325D01*
X144390759Y-94390498D01*
G36*
X144743938Y-94198198D02*
G01*
X144780162Y-94224235D01*
X144925122Y-94344320D01*
X145001925Y-94433117D01*
X145005616Y-94445718D01*
X144949889Y-94529903D01*
X144801529Y-94526064D01*
X144748361Y-94508702D01*
X144570834Y-94405644D01*
X144465629Y-94276451D01*
X144459823Y-94158523D01*
X144477573Y-94134684D01*
X144578362Y-94112036D01*
X144743938Y-94198198D01*
G37*
X144743938Y-94198198D02*
X144780162Y-94224235D01*
X144925122Y-94344320D01*
X145001925Y-94433117D01*
X145005616Y-94445718D01*
X144949889Y-94529903D01*
X144801529Y-94526064D01*
X144748361Y-94508702D01*
X144570834Y-94405644D01*
X144465629Y-94276451D01*
X144459823Y-94158523D01*
X144477573Y-94134684D01*
X144578362Y-94112036D01*
X144743938Y-94198198D01*
G36*
X146024527Y-92724580D02*
G01*
X145986521Y-92816230D01*
X145885414Y-92993234D01*
X145740572Y-93226452D01*
X145571364Y-93486743D01*
X145397155Y-93744969D01*
X145237313Y-93971988D01*
X145111203Y-94138659D01*
X145038194Y-94215844D01*
X145031995Y-94217988D01*
X144919800Y-94175563D01*
X144778858Y-94080247D01*
X144666016Y-93971454D01*
X144656142Y-93870613D01*
X144715055Y-93743883D01*
X144805900Y-93628667D01*
X144968341Y-93470273D01*
X145176979Y-93288470D01*
X145406412Y-93103033D01*
X145631239Y-92933732D01*
X145826061Y-92800340D01*
X145965476Y-92722629D01*
X146024084Y-92720371D01*
X146024527Y-92724580D01*
G37*
X146024527Y-92724580D02*
X145986521Y-92816230D01*
X145885414Y-92993234D01*
X145740572Y-93226452D01*
X145571364Y-93486743D01*
X145397155Y-93744969D01*
X145237313Y-93971988D01*
X145111203Y-94138659D01*
X145038194Y-94215844D01*
X145031995Y-94217988D01*
X144919800Y-94175563D01*
X144778858Y-94080247D01*
X144666016Y-93971454D01*
X144656142Y-93870613D01*
X144715055Y-93743883D01*
X144805900Y-93628667D01*
X144968341Y-93470273D01*
X145176979Y-93288470D01*
X145406412Y-93103033D01*
X145631239Y-92933732D01*
X145826061Y-92800340D01*
X145965476Y-92722629D01*
X146024084Y-92720371D01*
X146024527Y-92724580D01*
G36*
X145198936Y-93098106D02*
G01*
X145187564Y-93126298D01*
X145122164Y-93195728D01*
X145110490Y-93199077D01*
X145079230Y-93142768D01*
X145078395Y-93126298D01*
X145134344Y-93056315D01*
X145155470Y-93053518D01*
X145198936Y-93098106D01*
G37*
X145198936Y-93098106D02*
X145187564Y-93126298D01*
X145122164Y-93195728D01*
X145110490Y-93199077D01*
X145079230Y-93142768D01*
X145078395Y-93126298D01*
X145134344Y-93056315D01*
X145155470Y-93053518D01*
X145198936Y-93098106D01*
D11*
X138430000Y-130556000D02*
X138430000Y-135636000D01*
X146050000Y-130556000D02*
X138430000Y-130556000D01*
X146050000Y-135636000D02*
X146050000Y-130556000D01*
X152400000Y-82296000D02*
X152400000Y-135636000D01*
X132080000Y-82296000D02*
X152400000Y-82296000D01*
X132080000Y-135636000D02*
X132080000Y-82296000D01*
X152400000Y-135636000D02*
X132080000Y-135636000D01*
D10*
X182385000Y-127890000D02*
X182385000Y-123630000D01*
X182385000Y-123630000D02*
X170065000Y-123630000D01*
X170065000Y-123630000D02*
X170065000Y-127890000D01*
X182385000Y-131990000D02*
X182385000Y-140350000D01*
X182385000Y-140350000D02*
X170065000Y-140350000D01*
X170065000Y-140350000D02*
X170065000Y-131990000D01*
X177475000Y-123410000D02*
X177975000Y-122910000D01*
X177975000Y-122910000D02*
X176975000Y-122910000D01*
X176975000Y-122910000D02*
X177475000Y-123410000D01*
D14*
X111760000Y-133115000D02*
X113030000Y-133115000D01*
X112395000Y-136290000D02*
X112395000Y-137560000D01*
X111760000Y-136925000D02*
X113030000Y-136925000D01*
D18*
X97155000Y-127400000D02*
X97155000Y-127400000D01*
D14*
X97155000Y-124860000D02*
X97155000Y-126130000D01*
X97155000Y-122955000D02*
X97155000Y-124225000D01*
X96262037Y-128263994D02*
G75*
G02X97967800Y-128339800I892963J863994D01*
G01*
X98425000Y-123590000D02*
G75*
G03X98425000Y-123590000I-1270000J0D01*
G01*
X97155000Y-129940000D02*
X97155000Y-128035000D01*
X98425000Y-131210000D02*
G75*
G03X98425000Y-131210000I-1270000J0D01*
G01*
X97155000Y-130575000D02*
X97155000Y-131845000D01*
X97790000Y-131210000D02*
X96520000Y-131210000D01*
D10*
X101660000Y-124395000D02*
X100610000Y-124395000D01*
X100610000Y-125445000D02*
X100610000Y-124395000D01*
X110010000Y-130495000D02*
X110010000Y-139295000D01*
X110010000Y-139295000D02*
X100810000Y-139295000D01*
X107310000Y-124595000D02*
X110010000Y-124595000D01*
X110010000Y-124595000D02*
X110010000Y-126495000D01*
X100810000Y-139295000D02*
X100810000Y-124595000D01*
X100810000Y-124595000D02*
X103410000Y-124595000D01*
X171995000Y-137475000D02*
X172445000Y-137475000D01*
X171995000Y-139325000D02*
X171995000Y-137475000D01*
X179795000Y-141875000D02*
X179795000Y-141625000D01*
X171995000Y-141875000D02*
X171995000Y-141625000D01*
X179795000Y-139325000D02*
X179795000Y-137475000D01*
X179795000Y-137475000D02*
X179345000Y-137475000D01*
X174195000Y-136925000D02*
X174645000Y-136925000D01*
X174195000Y-136925000D02*
X174195000Y-137375000D01*
D11*
X140978095Y-132548380D02*
X140978095Y-133357904D01*
X141025714Y-133453142D01*
X141073333Y-133500761D01*
X141168571Y-133548380D01*
X141359047Y-133548380D01*
X141454285Y-133500761D01*
X141501904Y-133453142D01*
X141549523Y-133357904D01*
X141549523Y-132548380D01*
X141978095Y-133500761D02*
X142120952Y-133548380D01*
X142359047Y-133548380D01*
X142454285Y-133500761D01*
X142501904Y-133453142D01*
X142549523Y-133357904D01*
X142549523Y-133262666D01*
X142501904Y-133167428D01*
X142454285Y-133119809D01*
X142359047Y-133072190D01*
X142168571Y-133024571D01*
X142073333Y-132976952D01*
X142025714Y-132929333D01*
X141978095Y-132834095D01*
X141978095Y-132738857D01*
X142025714Y-132643619D01*
X142073333Y-132596000D01*
X142168571Y-132548380D01*
X142406666Y-132548380D01*
X142549523Y-132596000D01*
X143311428Y-133024571D02*
X143454285Y-133072190D01*
X143501904Y-133119809D01*
X143549523Y-133215047D01*
X143549523Y-133357904D01*
X143501904Y-133453142D01*
X143454285Y-133500761D01*
X143359047Y-133548380D01*
X142978095Y-133548380D01*
X142978095Y-132548380D01*
X143311428Y-132548380D01*
X143406666Y-132596000D01*
X143454285Y-132643619D01*
X143501904Y-132738857D01*
X143501904Y-132834095D01*
X143454285Y-132929333D01*
X143406666Y-132976952D01*
X143311428Y-133024571D01*
X142978095Y-133024571D01*
X182992380Y-136897857D02*
X183801904Y-136897857D01*
X183897142Y-136850238D01*
X183944761Y-136802619D01*
X183992380Y-136707380D01*
X183992380Y-136516904D01*
X183944761Y-136421666D01*
X183897142Y-136374047D01*
X183801904Y-136326428D01*
X182992380Y-136326428D01*
X183944761Y-135897857D02*
X183992380Y-135755000D01*
X183992380Y-135516904D01*
X183944761Y-135421666D01*
X183897142Y-135374047D01*
X183801904Y-135326428D01*
X183706666Y-135326428D01*
X183611428Y-135374047D01*
X183563809Y-135421666D01*
X183516190Y-135516904D01*
X183468571Y-135707380D01*
X183420952Y-135802619D01*
X183373333Y-135850238D01*
X183278095Y-135897857D01*
X183182857Y-135897857D01*
X183087619Y-135850238D01*
X183040000Y-135802619D01*
X182992380Y-135707380D01*
X182992380Y-135469285D01*
X183040000Y-135326428D01*
X183468571Y-134564523D02*
X183516190Y-134421666D01*
X183563809Y-134374047D01*
X183659047Y-134326428D01*
X183801904Y-134326428D01*
X183897142Y-134374047D01*
X183944761Y-134421666D01*
X183992380Y-134516904D01*
X183992380Y-134897857D01*
X182992380Y-134897857D01*
X182992380Y-134564523D01*
X183040000Y-134469285D01*
X183087619Y-134421666D01*
X183182857Y-134374047D01*
X183278095Y-134374047D01*
X183373333Y-134421666D01*
X183420952Y-134469285D01*
X183468571Y-134564523D01*
X183468571Y-134897857D01*
X183468571Y-132802619D02*
X183516190Y-132659761D01*
X183563809Y-132612142D01*
X183659047Y-132564523D01*
X183801904Y-132564523D01*
X183897142Y-132612142D01*
X183944761Y-132659761D01*
X183992380Y-132755000D01*
X183992380Y-133135952D01*
X182992380Y-133135952D01*
X182992380Y-132802619D01*
X183040000Y-132707380D01*
X183087619Y-132659761D01*
X183182857Y-132612142D01*
X183278095Y-132612142D01*
X183373333Y-132659761D01*
X183420952Y-132707380D01*
X183468571Y-132802619D01*
X183468571Y-133135952D01*
X111612380Y-135087857D02*
X110612380Y-135087857D01*
X110612380Y-134849761D01*
X110660000Y-134706904D01*
X110755238Y-134611666D01*
X110850476Y-134564047D01*
X111040952Y-134516428D01*
X111183809Y-134516428D01*
X111374285Y-134564047D01*
X111469523Y-134611666D01*
X111564761Y-134706904D01*
X111612380Y-134849761D01*
X111612380Y-135087857D01*
X111517142Y-133516428D02*
X111564761Y-133564047D01*
X111612380Y-133706904D01*
X111612380Y-133802142D01*
X111564761Y-133945000D01*
X111469523Y-134040238D01*
X111374285Y-134087857D01*
X111183809Y-134135476D01*
X111040952Y-134135476D01*
X110850476Y-134087857D01*
X110755238Y-134040238D01*
X110660000Y-133945000D01*
X110612380Y-133802142D01*
X110612380Y-133706904D01*
X110660000Y-133564047D01*
X110707619Y-133516428D01*
M02*
