G04 #@! TF.GenerationSoftware,KiCad,Pcbnew,(5.1.5)-3*
G04 #@! TF.CreationDate,2020-07-30T21:21:22+02:00*
G04 #@! TF.ProjectId,BluePill_Breadboard,426c7565-5069-46c6-9c5f-427265616462,rev?*
G04 #@! TF.SameCoordinates,Original*
G04 #@! TF.FileFunction,Copper,L1,Top*
G04 #@! TF.FilePolarity,Positive*
%FSLAX46Y46*%
G04 Gerber Fmt 4.6, Leading zero omitted, Abs format (unit mm)*
G04 Created by KiCad (PCBNEW (5.1.5)-3) date 2020-07-30 21:21:22*
%MOMM*%
%LPD*%
G04 APERTURE LIST*
%ADD10C,1.778000*%
%ADD11R,1.700000X1.700000*%
%ADD12C,1.700000*%
%ADD13C,3.500000*%
%ADD14R,3.500000X3.500000*%
%ADD15C,0.100000*%
%ADD16R,1.500000X1.900000*%
%ADD17C,1.450000*%
%ADD18R,0.400000X1.350000*%
%ADD19O,1.200000X1.900000*%
%ADD20R,1.200000X1.900000*%
%ADD21C,0.800000*%
%ADD22C,1.000000*%
%ADD23C,1.000000*%
%ADD24C,0.750000*%
%ADD25C,0.500000*%
%ADD26C,0.250000*%
G04 APERTURE END LIST*
D10*
X132842000Y-138195000D03*
X135382000Y-138195000D03*
X129540000Y-138195000D03*
X121920000Y-138195000D03*
X127000000Y-138195000D03*
X124460000Y-138195000D03*
X146050000Y-88665000D03*
X143510000Y-88665000D03*
X140970000Y-88665000D03*
X138430000Y-88665000D03*
X129540000Y-133115000D03*
X127000000Y-133115000D03*
X124460000Y-133115000D03*
X154940000Y-133115000D03*
X154940000Y-130594000D03*
X154940000Y-128035000D03*
X154940000Y-125514000D03*
X154940000Y-122955000D03*
X154940000Y-120415000D03*
X154940000Y-117875000D03*
X154940000Y-115335000D03*
X154940000Y-112795000D03*
X154940000Y-110274000D03*
X154940000Y-107715000D03*
X154940000Y-105175000D03*
X154940000Y-102635000D03*
X154940000Y-100114000D03*
X154940000Y-97555000D03*
X154940000Y-95034000D03*
X154940000Y-92475000D03*
X129540000Y-84855000D03*
X127000000Y-84855000D03*
X124460000Y-84855000D03*
X152400000Y-77235000D03*
X152400000Y-79775000D03*
X160020000Y-133115000D03*
X129540000Y-125476000D03*
X127000000Y-125476000D03*
X124460000Y-125476000D03*
X124460000Y-128016000D03*
X124460000Y-130556000D03*
X127000000Y-130556000D03*
X129540000Y-130556000D03*
X127000000Y-128016000D03*
X129540000Y-128016000D03*
X149860000Y-79775000D03*
X147320000Y-79775000D03*
X147320000Y-77235000D03*
X149860000Y-77235000D03*
X144780000Y-79775000D03*
X142240000Y-79775000D03*
X142240000Y-77235000D03*
X144780000Y-77235000D03*
X139700000Y-79775000D03*
X137160000Y-79775000D03*
X137160000Y-77235000D03*
X139700000Y-77235000D03*
X134620000Y-79775000D03*
X132080000Y-79775000D03*
X132080000Y-77235000D03*
X134620000Y-77235000D03*
X160020000Y-87395000D03*
X157480000Y-87395000D03*
X160020000Y-89935000D03*
X157480000Y-89935000D03*
X154940000Y-89935000D03*
X154940000Y-87395000D03*
X154940000Y-84855000D03*
X157480000Y-84855000D03*
X160020000Y-84855000D03*
X129540000Y-89916000D03*
X127000000Y-89916000D03*
X129540000Y-92456000D03*
X127000000Y-92456000D03*
X124460000Y-92456000D03*
X124460000Y-89916000D03*
X124460000Y-87376000D03*
X127000000Y-87376000D03*
X129540000Y-87376000D03*
X129540000Y-97536000D03*
X127000000Y-97536000D03*
X129540000Y-100076000D03*
X127000000Y-100076000D03*
X124460000Y-100076000D03*
X124460000Y-97536000D03*
X124460000Y-94996000D03*
X127000000Y-94996000D03*
X129540000Y-94996000D03*
X129540000Y-105156000D03*
X127000000Y-105156000D03*
X129540000Y-107696000D03*
X127000000Y-107696000D03*
X124460000Y-107696000D03*
X124460000Y-105156000D03*
X124460000Y-102616000D03*
X127000000Y-102616000D03*
X129540000Y-102616000D03*
X129540000Y-112776000D03*
X127000000Y-112776000D03*
X129540000Y-115316000D03*
X127000000Y-115316000D03*
X124460000Y-115316000D03*
X124460000Y-112776000D03*
X124460000Y-110236000D03*
X127000000Y-110236000D03*
X129540000Y-110236000D03*
X129540000Y-120396000D03*
X127000000Y-120396000D03*
X129540000Y-122936000D03*
X127000000Y-122936000D03*
X124460000Y-122936000D03*
X124460000Y-120396000D03*
X124460000Y-117856000D03*
X127000000Y-117856000D03*
X129540000Y-117856000D03*
X134620000Y-133096000D03*
X134620000Y-120396000D03*
X134620000Y-102616000D03*
X134620000Y-92456000D03*
X134620000Y-130556000D03*
X134620000Y-107696000D03*
X134620000Y-125476000D03*
X134620000Y-122936000D03*
X134620000Y-128016000D03*
X134620000Y-105156000D03*
X134620000Y-110236000D03*
X134620000Y-97536000D03*
X134620000Y-117856000D03*
X134620000Y-89916000D03*
X134620000Y-94996000D03*
X134620000Y-100076000D03*
X134620000Y-87376000D03*
X134620000Y-112776000D03*
X134620000Y-84836000D03*
X134620000Y-115316000D03*
X149860000Y-133096000D03*
X149860000Y-130556000D03*
X149860000Y-128016000D03*
X149860000Y-125476000D03*
X149860000Y-122936000D03*
X149860000Y-115316000D03*
X149860000Y-120396000D03*
X149860000Y-117856000D03*
X149860000Y-112776000D03*
X149860000Y-110236000D03*
X149860000Y-107696000D03*
X149860000Y-102616000D03*
X149860000Y-105156000D03*
X149860000Y-100076000D03*
X149860000Y-97536000D03*
X149860000Y-89916000D03*
X149860000Y-94996000D03*
X149860000Y-92456000D03*
X149860000Y-87376000D03*
X149860000Y-84836000D03*
X99060000Y-49295000D03*
X116840000Y-138195000D03*
X101600000Y-107715000D03*
X99060000Y-107715000D03*
X101600000Y-110255000D03*
X99060000Y-110255000D03*
X96520000Y-110255000D03*
X96520000Y-107715000D03*
X96520000Y-105175000D03*
X99060000Y-105175000D03*
X101600000Y-105175000D03*
X101600000Y-115335000D03*
X99060000Y-115335000D03*
X101600000Y-117875000D03*
X99060000Y-117875000D03*
X96520000Y-117875000D03*
X96520000Y-115335000D03*
X96520000Y-112795000D03*
X99060000Y-112795000D03*
X101600000Y-112795000D03*
X101600000Y-54375000D03*
X99060000Y-54375000D03*
X101600000Y-56915000D03*
X99060000Y-56915000D03*
X96520000Y-56915000D03*
X96520000Y-54375000D03*
X96520000Y-51835000D03*
X99060000Y-51835000D03*
X101600000Y-51835000D03*
X101600000Y-61995000D03*
X99060000Y-61995000D03*
X101600000Y-64535000D03*
X99060000Y-64535000D03*
X96520000Y-64535000D03*
X96520000Y-61995000D03*
X96520000Y-59455000D03*
X99060000Y-59455000D03*
X101600000Y-59455000D03*
X101600000Y-69615000D03*
X99060000Y-69615000D03*
X101600000Y-72155000D03*
X99060000Y-72155000D03*
X96520000Y-72155000D03*
X96520000Y-69615000D03*
X96520000Y-67075000D03*
X99060000Y-67075000D03*
X101600000Y-67075000D03*
X104140000Y-49295000D03*
X101600000Y-49295000D03*
X101600000Y-46755000D03*
X104140000Y-46755000D03*
X101600000Y-92475000D03*
X99060000Y-92475000D03*
X101600000Y-95015000D03*
X99060000Y-95015000D03*
X96520000Y-95015000D03*
X96520000Y-92475000D03*
X96520000Y-89935000D03*
X99060000Y-89935000D03*
X101600000Y-89935000D03*
X96520000Y-120415000D03*
X101600000Y-77235000D03*
X99060000Y-77235000D03*
X101600000Y-79775000D03*
X99060000Y-79775000D03*
X96520000Y-79775000D03*
X96520000Y-77235000D03*
X96520000Y-74695000D03*
X99060000Y-74695000D03*
X101600000Y-74695000D03*
X114300000Y-49295000D03*
X111760000Y-49295000D03*
X111760000Y-46755000D03*
X114300000Y-46755000D03*
X124460000Y-49295000D03*
X121920000Y-49295000D03*
X121920000Y-46755000D03*
X124460000Y-46755000D03*
X119380000Y-49295000D03*
X116840000Y-49295000D03*
X116840000Y-46755000D03*
X119380000Y-46755000D03*
X101600000Y-84855000D03*
X99060000Y-84855000D03*
X101600000Y-87395000D03*
X99060000Y-87395000D03*
X96520000Y-87395000D03*
X96520000Y-84855000D03*
X96520000Y-82315000D03*
X99060000Y-82315000D03*
X101600000Y-82315000D03*
X101600000Y-100095000D03*
X99060000Y-100095000D03*
X101600000Y-102635000D03*
X99060000Y-102635000D03*
X96520000Y-102635000D03*
X96520000Y-100095000D03*
X96520000Y-97555000D03*
X99060000Y-97555000D03*
X101600000Y-97555000D03*
X109220000Y-49295000D03*
X106680000Y-49295000D03*
X106680000Y-46755000D03*
X109220000Y-46755000D03*
X129540000Y-49295000D03*
X127000000Y-49295000D03*
X127000000Y-46755000D03*
X129540000Y-46755000D03*
X99060000Y-120415000D03*
X101600000Y-120415000D03*
X170180000Y-46755000D03*
X167640000Y-46755000D03*
X167640000Y-49295000D03*
X170180000Y-49295000D03*
X149860000Y-46755000D03*
X147320000Y-46755000D03*
X147320000Y-49295000D03*
X149860000Y-49295000D03*
X160020000Y-46755000D03*
X157480000Y-46755000D03*
X157480000Y-49295000D03*
X160020000Y-49295000D03*
X180340000Y-46755000D03*
X177800000Y-46755000D03*
X177800000Y-49295000D03*
X180340000Y-49295000D03*
X165100000Y-46755000D03*
X162560000Y-46755000D03*
X162560000Y-49295000D03*
X165100000Y-49295000D03*
X134620000Y-49295000D03*
X132080000Y-49295000D03*
X132080000Y-46755000D03*
X134620000Y-46755000D03*
X144780000Y-46755000D03*
X142240000Y-46755000D03*
X142240000Y-49295000D03*
X144780000Y-49295000D03*
X139700000Y-49295000D03*
X137160000Y-49295000D03*
X137160000Y-46755000D03*
X139700000Y-46755000D03*
X154940000Y-46755000D03*
X152400000Y-46755000D03*
X152400000Y-49295000D03*
X154940000Y-49295000D03*
X175260000Y-46755000D03*
X172720000Y-46755000D03*
X172720000Y-49295000D03*
X175260000Y-49295000D03*
D11*
X177475000Y-125230000D03*
D12*
X174975000Y-125230000D03*
X174975000Y-127230000D03*
X177475000Y-127230000D03*
D13*
X182245000Y-129940000D03*
X170205000Y-129940000D03*
D10*
X121920000Y-100095000D03*
X119380000Y-100095000D03*
X116840000Y-100095000D03*
X116840000Y-102635000D03*
X116840000Y-105175000D03*
X119380000Y-105175000D03*
X121920000Y-105175000D03*
X119380000Y-102635000D03*
X121920000Y-102635000D03*
X160020000Y-54375000D03*
X157480000Y-54375000D03*
X154940000Y-54375000D03*
X154940000Y-56915000D03*
X154940000Y-59455000D03*
X157480000Y-59455000D03*
X160020000Y-59455000D03*
X157480000Y-56915000D03*
X160020000Y-56915000D03*
X121920000Y-107715000D03*
X119380000Y-107715000D03*
X116840000Y-107715000D03*
X116840000Y-110255000D03*
X116840000Y-112795000D03*
X119380000Y-112795000D03*
X121920000Y-112795000D03*
X119380000Y-110255000D03*
X121920000Y-110255000D03*
X137160000Y-54375000D03*
X134620000Y-54375000D03*
X132080000Y-54375000D03*
X132080000Y-56915000D03*
X132080000Y-59455000D03*
X134620000Y-59455000D03*
X137160000Y-59455000D03*
X134620000Y-56915000D03*
X137160000Y-56915000D03*
X152400000Y-61995000D03*
X149860000Y-61995000D03*
X147320000Y-61995000D03*
X147320000Y-64535000D03*
X147320000Y-67075000D03*
X149860000Y-67075000D03*
X152400000Y-67075000D03*
X149860000Y-64535000D03*
X152400000Y-64535000D03*
X167640000Y-61995000D03*
X165100000Y-61995000D03*
X162560000Y-61995000D03*
X162560000Y-64535000D03*
X162560000Y-67075000D03*
X165100000Y-67075000D03*
X167640000Y-67075000D03*
X165100000Y-64535000D03*
X167640000Y-64535000D03*
X152400000Y-54375000D03*
X149860000Y-54375000D03*
X147320000Y-54375000D03*
X147320000Y-56915000D03*
X147320000Y-59455000D03*
X149860000Y-59455000D03*
X152400000Y-59455000D03*
X149860000Y-56915000D03*
X152400000Y-56915000D03*
X152400000Y-69615000D03*
X149860000Y-69615000D03*
X147320000Y-69615000D03*
X147320000Y-72155000D03*
X147320000Y-74695000D03*
X149860000Y-74695000D03*
X152400000Y-74695000D03*
X149860000Y-72155000D03*
X152400000Y-72155000D03*
X114300000Y-107715000D03*
X111760000Y-107715000D03*
X109220000Y-107715000D03*
X109220000Y-110255000D03*
X109220000Y-112795000D03*
X111760000Y-112795000D03*
X114300000Y-112795000D03*
X111760000Y-110255000D03*
X114300000Y-110255000D03*
X114300000Y-115335000D03*
X111760000Y-115335000D03*
X109220000Y-115335000D03*
X109220000Y-117875000D03*
X109220000Y-120415000D03*
X111760000Y-120415000D03*
X114300000Y-120415000D03*
X111760000Y-117875000D03*
X114300000Y-117875000D03*
X121920000Y-84855000D03*
X119380000Y-84855000D03*
X116840000Y-84855000D03*
X116840000Y-87395000D03*
X116840000Y-89935000D03*
X119380000Y-89935000D03*
X121920000Y-89935000D03*
X119380000Y-87395000D03*
X121920000Y-87395000D03*
X114300000Y-92475000D03*
X111760000Y-92475000D03*
X109220000Y-92475000D03*
X109220000Y-95015000D03*
X109220000Y-97555000D03*
X111760000Y-97555000D03*
X114300000Y-97555000D03*
X111760000Y-95015000D03*
X114300000Y-95015000D03*
X137160000Y-69615000D03*
X134620000Y-69615000D03*
X132080000Y-69615000D03*
X132080000Y-72155000D03*
X132080000Y-74695000D03*
X134620000Y-74695000D03*
X137160000Y-74695000D03*
X134620000Y-72155000D03*
X137160000Y-72155000D03*
X114300000Y-77235000D03*
X111760000Y-77235000D03*
X109220000Y-77235000D03*
X109220000Y-79775000D03*
X109220000Y-82315000D03*
X111760000Y-82315000D03*
X114300000Y-82315000D03*
X111760000Y-79775000D03*
X114300000Y-79775000D03*
X167640000Y-69615000D03*
X165100000Y-69615000D03*
X162560000Y-69615000D03*
X162560000Y-72155000D03*
X162560000Y-74695000D03*
X165100000Y-74695000D03*
X167640000Y-74695000D03*
X165100000Y-72155000D03*
X167640000Y-72155000D03*
X129540000Y-61995000D03*
X127000000Y-61995000D03*
X124460000Y-61995000D03*
X124460000Y-64535000D03*
X124460000Y-67075000D03*
X127000000Y-67075000D03*
X129540000Y-67075000D03*
X127000000Y-64535000D03*
X129540000Y-64535000D03*
X160020000Y-61995000D03*
X157480000Y-61995000D03*
X154940000Y-61995000D03*
X154940000Y-64535000D03*
X154940000Y-67075000D03*
X157480000Y-67075000D03*
X160020000Y-67075000D03*
X157480000Y-64535000D03*
X160020000Y-64535000D03*
X121920000Y-115335000D03*
X119380000Y-115335000D03*
X116840000Y-115335000D03*
X116840000Y-117875000D03*
X116840000Y-120415000D03*
X119380000Y-120415000D03*
X121920000Y-120415000D03*
X119380000Y-117875000D03*
X121920000Y-117875000D03*
X121920000Y-69615000D03*
X119380000Y-69615000D03*
X116840000Y-69615000D03*
X116840000Y-72155000D03*
X116840000Y-74695000D03*
X119380000Y-74695000D03*
X121920000Y-74695000D03*
X119380000Y-72155000D03*
X121920000Y-72155000D03*
X160020000Y-69615000D03*
X157480000Y-69615000D03*
X154940000Y-69615000D03*
X154940000Y-72155000D03*
X154940000Y-74695000D03*
X157480000Y-74695000D03*
X160020000Y-74695000D03*
X157480000Y-72155000D03*
X160020000Y-72155000D03*
X129540000Y-69615000D03*
X127000000Y-69615000D03*
X124460000Y-69615000D03*
X124460000Y-72155000D03*
X124460000Y-74695000D03*
X127000000Y-74695000D03*
X129540000Y-74695000D03*
X127000000Y-72155000D03*
X129540000Y-72155000D03*
X121920000Y-92475000D03*
X119380000Y-92475000D03*
X116840000Y-92475000D03*
X116840000Y-95015000D03*
X116840000Y-97555000D03*
X119380000Y-97555000D03*
X121920000Y-97555000D03*
X119380000Y-95015000D03*
X121920000Y-95015000D03*
X144780000Y-61995000D03*
X142240000Y-61995000D03*
X139700000Y-61995000D03*
X139700000Y-64535000D03*
X139700000Y-67075000D03*
X142240000Y-67075000D03*
X144780000Y-67075000D03*
X142240000Y-64535000D03*
X144780000Y-64535000D03*
X121920000Y-54375000D03*
X119380000Y-54375000D03*
X116840000Y-54375000D03*
X116840000Y-56915000D03*
X116840000Y-59455000D03*
X119380000Y-59455000D03*
X121920000Y-59455000D03*
X119380000Y-56915000D03*
X121920000Y-56915000D03*
X144780000Y-69615000D03*
X142240000Y-69615000D03*
X139700000Y-69615000D03*
X139700000Y-72155000D03*
X139700000Y-74695000D03*
X142240000Y-74695000D03*
X144780000Y-74695000D03*
X142240000Y-72155000D03*
X144780000Y-72155000D03*
X121920000Y-77235000D03*
X119380000Y-77235000D03*
X116840000Y-77235000D03*
X116840000Y-79775000D03*
X116840000Y-82315000D03*
X119380000Y-82315000D03*
X121920000Y-82315000D03*
X119380000Y-79775000D03*
X121920000Y-79775000D03*
X121920000Y-61995000D03*
X119380000Y-61995000D03*
X116840000Y-61995000D03*
X116840000Y-64535000D03*
X116840000Y-67075000D03*
X119380000Y-67075000D03*
X121920000Y-67075000D03*
X119380000Y-64535000D03*
X121920000Y-64535000D03*
X144780000Y-54375000D03*
X142240000Y-54375000D03*
X139700000Y-54375000D03*
X139700000Y-56915000D03*
X139700000Y-59455000D03*
X142240000Y-59455000D03*
X144780000Y-59455000D03*
X142240000Y-56915000D03*
X144780000Y-56915000D03*
X129540000Y-54375000D03*
X127000000Y-54375000D03*
X124460000Y-54375000D03*
X124460000Y-56915000D03*
X124460000Y-59455000D03*
X127000000Y-59455000D03*
X129540000Y-59455000D03*
X127000000Y-56915000D03*
X129540000Y-56915000D03*
X114300000Y-100095000D03*
X111760000Y-100095000D03*
X109220000Y-100095000D03*
X109220000Y-102635000D03*
X109220000Y-105175000D03*
X111760000Y-105175000D03*
X114300000Y-105175000D03*
X111760000Y-102635000D03*
X114300000Y-102635000D03*
X114300000Y-84855000D03*
X111760000Y-84855000D03*
X109220000Y-84855000D03*
X109220000Y-87395000D03*
X109220000Y-89935000D03*
X111760000Y-89935000D03*
X114300000Y-89935000D03*
X111760000Y-87395000D03*
X114300000Y-87395000D03*
X137160000Y-61995000D03*
X134620000Y-61995000D03*
X132080000Y-61995000D03*
X132080000Y-64535000D03*
X132080000Y-67075000D03*
X134620000Y-67075000D03*
X137160000Y-67075000D03*
X134620000Y-64535000D03*
X137160000Y-64535000D03*
X162560000Y-51835000D03*
X167640000Y-84855000D03*
X165100000Y-84855000D03*
X162560000Y-84855000D03*
X162560000Y-87395000D03*
X162560000Y-89935000D03*
X165100000Y-89935000D03*
X167640000Y-89935000D03*
X165100000Y-87395000D03*
X167640000Y-87395000D03*
X182880000Y-95015000D03*
X180340000Y-95015000D03*
X177800000Y-95015000D03*
X177800000Y-97555000D03*
X177800000Y-100095000D03*
X180340000Y-100095000D03*
X182880000Y-100095000D03*
X180340000Y-97555000D03*
X182880000Y-97555000D03*
X175260000Y-95015000D03*
X172720000Y-95015000D03*
X170180000Y-95015000D03*
X170180000Y-97555000D03*
X170180000Y-100095000D03*
X172720000Y-100095000D03*
X175260000Y-100095000D03*
X172720000Y-97555000D03*
X175260000Y-97555000D03*
X165100000Y-51835000D03*
X167640000Y-51835000D03*
X160020000Y-77235000D03*
X157480000Y-77235000D03*
X154940000Y-77235000D03*
X154940000Y-79775000D03*
X154940000Y-82315000D03*
X157480000Y-82315000D03*
X160020000Y-82315000D03*
X157480000Y-79775000D03*
X160020000Y-79775000D03*
X152400000Y-51835000D03*
X167640000Y-92475000D03*
X165100000Y-92475000D03*
X162560000Y-92475000D03*
X162560000Y-95015000D03*
X162560000Y-97555000D03*
X165100000Y-97555000D03*
X167640000Y-97555000D03*
X165100000Y-95015000D03*
X167640000Y-95015000D03*
X175260000Y-79775000D03*
X172720000Y-79775000D03*
X170180000Y-79775000D03*
X170180000Y-82315000D03*
X170180000Y-84855000D03*
X172720000Y-84855000D03*
X175260000Y-84855000D03*
X172720000Y-82315000D03*
X175260000Y-82315000D03*
X154940000Y-51835000D03*
X149860000Y-51835000D03*
X114300000Y-69615000D03*
X111760000Y-69615000D03*
X109220000Y-69615000D03*
X109220000Y-72155000D03*
X109220000Y-74695000D03*
X111760000Y-74695000D03*
X114300000Y-74695000D03*
X111760000Y-72155000D03*
X114300000Y-72155000D03*
X114300000Y-61995000D03*
X111760000Y-61995000D03*
X109220000Y-61995000D03*
X109220000Y-64535000D03*
X109220000Y-67075000D03*
X111760000Y-67075000D03*
X114300000Y-67075000D03*
X111760000Y-64535000D03*
X114300000Y-64535000D03*
X160020000Y-51835000D03*
X114300000Y-54375000D03*
X111760000Y-54375000D03*
X109220000Y-54375000D03*
X109220000Y-56915000D03*
X109220000Y-59455000D03*
X111760000Y-59455000D03*
X114300000Y-59455000D03*
X111760000Y-56915000D03*
X114300000Y-56915000D03*
X167640000Y-107715000D03*
X165100000Y-107715000D03*
X162560000Y-107715000D03*
X162560000Y-110255000D03*
X162560000Y-112795000D03*
X165100000Y-112795000D03*
X167640000Y-112795000D03*
X165100000Y-110255000D03*
X167640000Y-110255000D03*
X167640000Y-77235000D03*
X165100000Y-77235000D03*
X162560000Y-77235000D03*
X162560000Y-79775000D03*
X162560000Y-82315000D03*
X165100000Y-82315000D03*
X167640000Y-82315000D03*
X165100000Y-79775000D03*
X167640000Y-79775000D03*
X175260000Y-59455000D03*
X172720000Y-59455000D03*
X170180000Y-59455000D03*
X170180000Y-61995000D03*
X170180000Y-64535000D03*
X172720000Y-64535000D03*
X175260000Y-64535000D03*
X172720000Y-61995000D03*
X175260000Y-61995000D03*
X175260000Y-87395000D03*
X172720000Y-87395000D03*
X170180000Y-87395000D03*
X170180000Y-89935000D03*
X170180000Y-92475000D03*
X172720000Y-92475000D03*
X175260000Y-92475000D03*
X172720000Y-89935000D03*
X175260000Y-89935000D03*
X175260000Y-67075000D03*
X172720000Y-67075000D03*
X170180000Y-67075000D03*
X170180000Y-69615000D03*
X170180000Y-72155000D03*
X172720000Y-72155000D03*
X175260000Y-72155000D03*
X172720000Y-69615000D03*
X175260000Y-69615000D03*
X175260000Y-107715000D03*
X172720000Y-107715000D03*
X170180000Y-107715000D03*
X170180000Y-110255000D03*
X170180000Y-112795000D03*
X172720000Y-112795000D03*
X175260000Y-112795000D03*
X172720000Y-110255000D03*
X175260000Y-110255000D03*
X182880000Y-87395000D03*
X180340000Y-87395000D03*
X177800000Y-87395000D03*
X177800000Y-89935000D03*
X177800000Y-92475000D03*
X180340000Y-92475000D03*
X182880000Y-92475000D03*
X180340000Y-89935000D03*
X182880000Y-89935000D03*
X182880000Y-107715000D03*
X180340000Y-107715000D03*
X177800000Y-107715000D03*
X177800000Y-110255000D03*
X177800000Y-112795000D03*
X180340000Y-112795000D03*
X182880000Y-112795000D03*
X180340000Y-110255000D03*
X182880000Y-110255000D03*
X129540000Y-77235000D03*
X127000000Y-77235000D03*
X124460000Y-77235000D03*
X124460000Y-79775000D03*
X124460000Y-82315000D03*
X127000000Y-82315000D03*
X129540000Y-82315000D03*
X127000000Y-79775000D03*
X129540000Y-79775000D03*
X167640000Y-100095000D03*
X165100000Y-100095000D03*
X162560000Y-100095000D03*
X162560000Y-102635000D03*
X162560000Y-105175000D03*
X165100000Y-105175000D03*
X167640000Y-105175000D03*
X165100000Y-102635000D03*
X167640000Y-102635000D03*
X157480000Y-51835000D03*
X172720000Y-56915000D03*
X144780000Y-51835000D03*
X127000000Y-51835000D03*
X121920000Y-51835000D03*
X177800000Y-72155000D03*
X119380000Y-51835000D03*
X111760000Y-51835000D03*
X114300000Y-51835000D03*
X116840000Y-51835000D03*
X109220000Y-51835000D03*
X170180000Y-56915000D03*
X142240000Y-51835000D03*
X134620000Y-51835000D03*
X129540000Y-51835000D03*
X132080000Y-51835000D03*
X137160000Y-51835000D03*
X147320000Y-51835000D03*
X139700000Y-51835000D03*
X172720000Y-120415000D03*
X170180000Y-51835000D03*
X172720000Y-51835000D03*
X175260000Y-51835000D03*
X157480000Y-133115000D03*
X106680000Y-97555000D03*
X104140000Y-97555000D03*
X104140000Y-100095000D03*
X106680000Y-100095000D03*
X106680000Y-82315000D03*
X104140000Y-82315000D03*
X104140000Y-84855000D03*
X106680000Y-84855000D03*
X106680000Y-92475000D03*
X104140000Y-92475000D03*
X104140000Y-95015000D03*
X106680000Y-95015000D03*
X175260000Y-120415000D03*
X177800000Y-120415000D03*
X106680000Y-77235000D03*
X104140000Y-77235000D03*
X104140000Y-79775000D03*
X106680000Y-79775000D03*
X116840000Y-125495000D03*
X106680000Y-87395000D03*
X104140000Y-87395000D03*
X104140000Y-89935000D03*
X106680000Y-89935000D03*
X180340000Y-120415000D03*
X114300000Y-122955000D03*
X116840000Y-122955000D03*
X177800000Y-74695000D03*
X175260000Y-74695000D03*
X175260000Y-77235000D03*
X177800000Y-77235000D03*
X172720000Y-74695000D03*
X170180000Y-74695000D03*
X170180000Y-77235000D03*
X172720000Y-77235000D03*
X106680000Y-72155000D03*
X104140000Y-72155000D03*
X104140000Y-74695000D03*
X106680000Y-74695000D03*
X106680000Y-61995000D03*
X104140000Y-61995000D03*
X104140000Y-64535000D03*
X106680000Y-64535000D03*
X106680000Y-51835000D03*
X104140000Y-51835000D03*
X104140000Y-54375000D03*
X106680000Y-54375000D03*
X106680000Y-56915000D03*
X104140000Y-56915000D03*
X104140000Y-59455000D03*
X106680000Y-59455000D03*
X106680000Y-67075000D03*
X104140000Y-67075000D03*
X104140000Y-69615000D03*
X106680000Y-69615000D03*
X160020000Y-92475000D03*
X157480000Y-92475000D03*
X157480000Y-95015000D03*
X160020000Y-95015000D03*
X106680000Y-117875000D03*
X104140000Y-117875000D03*
X104140000Y-120415000D03*
X106680000Y-120415000D03*
X180340000Y-115335000D03*
X177800000Y-115335000D03*
X177800000Y-117875000D03*
X180340000Y-117875000D03*
X180340000Y-61995000D03*
X177800000Y-61995000D03*
X177800000Y-64535000D03*
X180340000Y-64535000D03*
X160020000Y-97555000D03*
X157480000Y-97555000D03*
X157480000Y-100095000D03*
X160020000Y-100095000D03*
X180340000Y-67075000D03*
X177800000Y-67075000D03*
X177800000Y-69615000D03*
X180340000Y-69615000D03*
X106680000Y-102635000D03*
X104140000Y-102635000D03*
X104140000Y-105175000D03*
X106680000Y-105175000D03*
X106680000Y-107715000D03*
X104140000Y-107715000D03*
X104140000Y-110255000D03*
X106680000Y-110255000D03*
X106680000Y-112795000D03*
X104140000Y-112795000D03*
X104140000Y-115335000D03*
X106680000Y-115335000D03*
X167640000Y-56915000D03*
X165100000Y-56915000D03*
X165100000Y-59455000D03*
X167640000Y-59455000D03*
X160020000Y-128035000D03*
X157480000Y-128035000D03*
X157480000Y-130575000D03*
X160020000Y-130575000D03*
X180340000Y-56915000D03*
X177800000Y-56915000D03*
X177800000Y-59455000D03*
X180340000Y-59455000D03*
X165100000Y-130575000D03*
X162560000Y-130575000D03*
X162560000Y-133115000D03*
X165100000Y-133115000D03*
X185420000Y-115335000D03*
X182880000Y-115335000D03*
X182880000Y-117875000D03*
X185420000Y-117875000D03*
X177800000Y-102635000D03*
X175260000Y-102635000D03*
X175260000Y-105175000D03*
X177800000Y-105175000D03*
X180340000Y-51835000D03*
X177800000Y-51835000D03*
X177800000Y-54375000D03*
X180340000Y-54375000D03*
X160020000Y-135655000D03*
X157480000Y-135655000D03*
X157480000Y-138195000D03*
X160020000Y-138195000D03*
X121920000Y-130575000D03*
X119380000Y-130575000D03*
X119380000Y-128035000D03*
X121920000Y-128035000D03*
X121920000Y-125495000D03*
X119380000Y-125495000D03*
X119380000Y-122955000D03*
X121920000Y-122955000D03*
X160020000Y-102635000D03*
X157480000Y-102635000D03*
X157480000Y-105175000D03*
X160020000Y-105175000D03*
X160020000Y-122955000D03*
X157480000Y-122955000D03*
X157480000Y-125495000D03*
X160020000Y-125495000D03*
X172720000Y-102635000D03*
X170180000Y-102635000D03*
X170180000Y-105175000D03*
X172720000Y-105175000D03*
X160020000Y-117875000D03*
X157480000Y-117875000D03*
X157480000Y-120415000D03*
X160020000Y-120415000D03*
X116840000Y-133115000D03*
X114300000Y-133115000D03*
X114300000Y-135655000D03*
X116840000Y-135655000D03*
X160020000Y-107715000D03*
X157480000Y-107715000D03*
X157480000Y-110255000D03*
X160020000Y-110255000D03*
X182880000Y-102635000D03*
X180340000Y-102635000D03*
X180340000Y-105175000D03*
X182880000Y-105175000D03*
X124460000Y-51835000D03*
X160020000Y-112795000D03*
X157480000Y-112795000D03*
X157480000Y-115335000D03*
X160020000Y-115335000D03*
X167640000Y-54375000D03*
X180340000Y-74695000D03*
X165100000Y-54375000D03*
X180340000Y-77235000D03*
X170180000Y-54375000D03*
X172720000Y-54375000D03*
X177800000Y-84855000D03*
X180340000Y-84855000D03*
X187960000Y-69615000D03*
X185420000Y-69615000D03*
X187960000Y-72155000D03*
X185420000Y-72155000D03*
X182880000Y-72155000D03*
X182880000Y-69615000D03*
X182880000Y-67075000D03*
X185420000Y-67075000D03*
X187960000Y-67075000D03*
X162560000Y-59455000D03*
X175260000Y-54375000D03*
X187960000Y-54375000D03*
X185420000Y-54375000D03*
X187960000Y-56915000D03*
X185420000Y-56915000D03*
X182880000Y-56915000D03*
X182880000Y-54375000D03*
X182880000Y-51835000D03*
X185420000Y-51835000D03*
X187960000Y-51835000D03*
X175260000Y-56915000D03*
X180340000Y-82315000D03*
X177800000Y-82315000D03*
X177800000Y-79775000D03*
X180340000Y-79775000D03*
X162560000Y-54375000D03*
X180340000Y-72155000D03*
X187960000Y-61995000D03*
X185420000Y-61995000D03*
X187960000Y-64535000D03*
X185420000Y-64535000D03*
X182880000Y-64535000D03*
X182880000Y-61995000D03*
X182880000Y-59455000D03*
X185420000Y-59455000D03*
X187960000Y-59455000D03*
X162560000Y-56915000D03*
X165100000Y-125495000D03*
X162560000Y-125495000D03*
X162560000Y-128035000D03*
X165100000Y-128035000D03*
X187960000Y-82315000D03*
X185420000Y-112795000D03*
X185420000Y-82315000D03*
X182880000Y-82315000D03*
X182880000Y-84855000D03*
X185420000Y-84855000D03*
X165100000Y-120415000D03*
X162560000Y-120415000D03*
X162560000Y-122955000D03*
X165100000Y-122955000D03*
X187960000Y-112795000D03*
X187960000Y-92475000D03*
X185420000Y-92475000D03*
X185420000Y-95015000D03*
X187960000Y-95015000D03*
X187960000Y-107715000D03*
X185420000Y-107715000D03*
X185420000Y-110255000D03*
X187960000Y-110255000D03*
X187960000Y-117875000D03*
X187960000Y-87395000D03*
X185420000Y-87395000D03*
X185420000Y-89935000D03*
X187960000Y-89935000D03*
X187960000Y-97555000D03*
X185420000Y-97555000D03*
X185420000Y-100095000D03*
X187960000Y-100095000D03*
X187960000Y-102635000D03*
X185420000Y-102635000D03*
X185420000Y-105175000D03*
X187960000Y-105175000D03*
X170180000Y-115335000D03*
X167640000Y-115335000D03*
X167640000Y-117875000D03*
X170180000Y-117875000D03*
X187960000Y-84855000D03*
X187960000Y-115335000D03*
X165100000Y-115335000D03*
X162560000Y-115335000D03*
X162560000Y-117875000D03*
X165100000Y-117875000D03*
X187960000Y-77235000D03*
X185420000Y-77235000D03*
X187960000Y-79775000D03*
X185420000Y-79775000D03*
X182880000Y-79775000D03*
X182880000Y-77235000D03*
X182880000Y-74695000D03*
X185420000Y-74695000D03*
X187960000Y-74695000D03*
X175260000Y-115335000D03*
X172720000Y-115335000D03*
X172720000Y-117875000D03*
X175260000Y-117875000D03*
D14*
X105410000Y-125495000D03*
G04 #@! TA.AperFunction,ComponentPad*
D15*
G36*
X106483513Y-129998611D02*
G01*
X106556318Y-130009411D01*
X106627714Y-130027295D01*
X106697013Y-130052090D01*
X106763548Y-130083559D01*
X106826678Y-130121398D01*
X106885795Y-130165242D01*
X106940330Y-130214670D01*
X106989758Y-130269205D01*
X107033602Y-130328322D01*
X107071441Y-130391452D01*
X107102910Y-130457987D01*
X107127705Y-130527286D01*
X107145589Y-130598682D01*
X107156389Y-130671487D01*
X107160000Y-130745000D01*
X107160000Y-132245000D01*
X107156389Y-132318513D01*
X107145589Y-132391318D01*
X107127705Y-132462714D01*
X107102910Y-132532013D01*
X107071441Y-132598548D01*
X107033602Y-132661678D01*
X106989758Y-132720795D01*
X106940330Y-132775330D01*
X106885795Y-132824758D01*
X106826678Y-132868602D01*
X106763548Y-132906441D01*
X106697013Y-132937910D01*
X106627714Y-132962705D01*
X106556318Y-132980589D01*
X106483513Y-132991389D01*
X106410000Y-132995000D01*
X104410000Y-132995000D01*
X104336487Y-132991389D01*
X104263682Y-132980589D01*
X104192286Y-132962705D01*
X104122987Y-132937910D01*
X104056452Y-132906441D01*
X103993322Y-132868602D01*
X103934205Y-132824758D01*
X103879670Y-132775330D01*
X103830242Y-132720795D01*
X103786398Y-132661678D01*
X103748559Y-132598548D01*
X103717090Y-132532013D01*
X103692295Y-132462714D01*
X103674411Y-132391318D01*
X103663611Y-132318513D01*
X103660000Y-132245000D01*
X103660000Y-130745000D01*
X103663611Y-130671487D01*
X103674411Y-130598682D01*
X103692295Y-130527286D01*
X103717090Y-130457987D01*
X103748559Y-130391452D01*
X103786398Y-130328322D01*
X103830242Y-130269205D01*
X103879670Y-130214670D01*
X103934205Y-130165242D01*
X103993322Y-130121398D01*
X104056452Y-130083559D01*
X104122987Y-130052090D01*
X104192286Y-130027295D01*
X104263682Y-130009411D01*
X104336487Y-129998611D01*
X104410000Y-129995000D01*
X106410000Y-129995000D01*
X106483513Y-129998611D01*
G37*
G04 #@! TD.AperFunction*
G04 #@! TA.AperFunction,ComponentPad*
G36*
X111070765Y-126749213D02*
G01*
X111155704Y-126761813D01*
X111238999Y-126782677D01*
X111319848Y-126811605D01*
X111397472Y-126848319D01*
X111471124Y-126892464D01*
X111540094Y-126943616D01*
X111603718Y-127001282D01*
X111661384Y-127064906D01*
X111712536Y-127133876D01*
X111756681Y-127207528D01*
X111793395Y-127285152D01*
X111822323Y-127366001D01*
X111843187Y-127449296D01*
X111855787Y-127534235D01*
X111860000Y-127620000D01*
X111860000Y-129370000D01*
X111855787Y-129455765D01*
X111843187Y-129540704D01*
X111822323Y-129623999D01*
X111793395Y-129704848D01*
X111756681Y-129782472D01*
X111712536Y-129856124D01*
X111661384Y-129925094D01*
X111603718Y-129988718D01*
X111540094Y-130046384D01*
X111471124Y-130097536D01*
X111397472Y-130141681D01*
X111319848Y-130178395D01*
X111238999Y-130207323D01*
X111155704Y-130228187D01*
X111070765Y-130240787D01*
X110985000Y-130245000D01*
X109235000Y-130245000D01*
X109149235Y-130240787D01*
X109064296Y-130228187D01*
X108981001Y-130207323D01*
X108900152Y-130178395D01*
X108822528Y-130141681D01*
X108748876Y-130097536D01*
X108679906Y-130046384D01*
X108616282Y-129988718D01*
X108558616Y-129925094D01*
X108507464Y-129856124D01*
X108463319Y-129782472D01*
X108426605Y-129704848D01*
X108397677Y-129623999D01*
X108376813Y-129540704D01*
X108364213Y-129455765D01*
X108360000Y-129370000D01*
X108360000Y-127620000D01*
X108364213Y-127534235D01*
X108376813Y-127449296D01*
X108397677Y-127366001D01*
X108426605Y-127285152D01*
X108463319Y-127207528D01*
X108507464Y-127133876D01*
X108558616Y-127064906D01*
X108616282Y-127001282D01*
X108679906Y-126943616D01*
X108748876Y-126892464D01*
X108822528Y-126848319D01*
X108900152Y-126811605D01*
X108981001Y-126782677D01*
X109064296Y-126761813D01*
X109149235Y-126749213D01*
X109235000Y-126745000D01*
X110985000Y-126745000D01*
X111070765Y-126749213D01*
G37*
G04 #@! TD.AperFunction*
D16*
X176895000Y-140475000D03*
D17*
X173395000Y-137775000D03*
D18*
X175245000Y-137775000D03*
X174595000Y-137775000D03*
X177195000Y-137775000D03*
X176545000Y-137775000D03*
X175895000Y-137775000D03*
D17*
X178395000Y-137775000D03*
D16*
X174895000Y-140475000D03*
D19*
X172395000Y-140475000D03*
X179395000Y-140475000D03*
D20*
X178795000Y-140475000D03*
X172995000Y-140475000D03*
D10*
X182880000Y-46755000D03*
X182880000Y-49295000D03*
X185420000Y-49295000D03*
X114300000Y-138195000D03*
D21*
X177800000Y-135020000D03*
X167005000Y-138830000D03*
D22*
X147020510Y-135655000D03*
D21*
X173990000Y-130575000D03*
X175935000Y-130615000D03*
X139954000Y-129286000D03*
X138684000Y-129286000D03*
X139954000Y-133604000D03*
X138684000Y-133604000D03*
X141224000Y-134112000D03*
D23*
X157480000Y-135655000D02*
X147020510Y-135655000D01*
D24*
X177800000Y-123590000D02*
X177165000Y-122955000D01*
D23*
X114340000Y-138195000D02*
X114340000Y-135695000D01*
X114300000Y-133115000D02*
X114300000Y-129940000D01*
X112855000Y-128495000D02*
X114300000Y-129940000D01*
D24*
X177800000Y-123895000D02*
X177800000Y-123590000D01*
D25*
X174625000Y-136290000D02*
X170180000Y-136290000D01*
X175895000Y-137052000D02*
X175895000Y-130615000D01*
X174389999Y-130974999D02*
X173990000Y-130575000D01*
X174490001Y-130974999D02*
X174389999Y-130974999D01*
D24*
X177800000Y-125495000D02*
X177800000Y-123895000D01*
D23*
X120650000Y-133115000D02*
X116840000Y-133115000D01*
D24*
X180340000Y-128035000D02*
X180340000Y-122955000D01*
X166370000Y-135655000D02*
X167005000Y-135020000D01*
D25*
X168910000Y-135020000D02*
X167005000Y-135020000D01*
D24*
X175300000Y-120455000D02*
X175260000Y-120415000D01*
D23*
X110110000Y-128495000D02*
X112855000Y-128495000D01*
D25*
X170180000Y-136290000D02*
X168910000Y-135020000D01*
D23*
X122555000Y-135020000D02*
X120650000Y-133115000D01*
D25*
X174590000Y-130875000D02*
X174490001Y-130974999D01*
X175260000Y-137052000D02*
X175260000Y-131545000D01*
X175260000Y-131545000D02*
X174590000Y-130875000D01*
D24*
X177800000Y-130480000D02*
X177800000Y-127400000D01*
X170180000Y-122320000D02*
X172720000Y-122320000D01*
X177840000Y-130535000D02*
X180340000Y-128035000D01*
D23*
X101600000Y-125495000D02*
X105410000Y-125495000D01*
D24*
X167005000Y-135020000D02*
X167005000Y-125495000D01*
X173355000Y-122955000D02*
X172720000Y-122320000D01*
X160020000Y-135655000D02*
X166370000Y-135655000D01*
X177165000Y-122955000D02*
X173355000Y-122955000D01*
X166370000Y-138195000D02*
X167005000Y-138830000D01*
D23*
X105410000Y-131495000D02*
X107110000Y-131495000D01*
D24*
X167005000Y-125495000D02*
X170180000Y-122320000D01*
X180340000Y-122955000D02*
X180340000Y-120415000D01*
D23*
X107110000Y-131495000D02*
X110110000Y-128495000D01*
D24*
X160020000Y-138195000D02*
X166370000Y-138195000D01*
D23*
X101600000Y-138195000D02*
X101600000Y-125495000D01*
X101600000Y-138195000D02*
X114300000Y-138195000D01*
D24*
X172720000Y-122320000D02*
X172720000Y-120415000D01*
D25*
X177190400Y-135578800D02*
X177241200Y-135578800D01*
X177241200Y-135578800D02*
X177800000Y-135020000D01*
X174625000Y-136925000D02*
X174625000Y-136305000D01*
X174498000Y-137052000D02*
X174625000Y-136925000D01*
D24*
X177800000Y-135020000D02*
X177800000Y-129686000D01*
D25*
X177190400Y-136975800D02*
X177190400Y-135578800D01*
D23*
X134620000Y-134874000D02*
X134620000Y-133096000D01*
X134766000Y-135020000D02*
X134620000Y-134874000D01*
X134766000Y-135020000D02*
X122555000Y-135020000D01*
X134620000Y-133096000D02*
X134620000Y-130556000D01*
X154921000Y-87376000D02*
X154940000Y-87395000D01*
X149860000Y-87376000D02*
X154921000Y-87376000D01*
X154940000Y-87395000D02*
X157480000Y-87395000D01*
X157461000Y-84836000D02*
X157480000Y-84855000D01*
X149860000Y-84836000D02*
X157461000Y-84836000D01*
X157461000Y-89916000D02*
X157480000Y-89935000D01*
X149860000Y-89916000D02*
X157461000Y-89916000D01*
X127019000Y-133096000D02*
X127000000Y-133115000D01*
X134620000Y-133096000D02*
X127019000Y-133096000D01*
X134620000Y-130556000D02*
X127000000Y-130556000D01*
X134620000Y-128016000D02*
X127000000Y-128016000D01*
X134620000Y-125476000D02*
X127000000Y-125476000D01*
X134620000Y-122936000D02*
X127000000Y-122936000D01*
X134620000Y-120396000D02*
X127000000Y-120396000D01*
X134620000Y-117856000D02*
X127000000Y-117856000D01*
X134620000Y-115316000D02*
X127000000Y-115316000D01*
X134620000Y-112776000D02*
X127000000Y-112776000D01*
X134620000Y-110236000D02*
X127000000Y-110236000D01*
X134620000Y-107696000D02*
X127000000Y-107696000D01*
X134620000Y-105156000D02*
X127000000Y-105156000D01*
X134620000Y-102616000D02*
X127000000Y-102616000D01*
X134620000Y-100076000D02*
X127000000Y-100076000D01*
X134620000Y-97536000D02*
X127000000Y-97536000D01*
X134620000Y-94996000D02*
X127000000Y-94996000D01*
X134620000Y-92456000D02*
X127000000Y-92456000D01*
X134620000Y-89916000D02*
X127000000Y-89916000D01*
X134620000Y-87376000D02*
X127000000Y-87376000D01*
X127019000Y-84836000D02*
X127000000Y-84855000D01*
X134620000Y-84836000D02*
X127019000Y-84836000D01*
X157461000Y-92456000D02*
X157480000Y-92475000D01*
X149860000Y-92456000D02*
X157461000Y-92456000D01*
X157461000Y-94996000D02*
X157480000Y-95015000D01*
X149860000Y-94996000D02*
X157461000Y-94996000D01*
X157461000Y-97536000D02*
X157480000Y-97555000D01*
X149860000Y-97536000D02*
X157461000Y-97536000D01*
X157461000Y-100076000D02*
X157480000Y-100095000D01*
X149860000Y-100076000D02*
X157461000Y-100076000D01*
X157461000Y-102616000D02*
X157480000Y-102635000D01*
X149860000Y-102616000D02*
X157461000Y-102616000D01*
X157461000Y-105156000D02*
X157480000Y-105175000D01*
X149860000Y-105156000D02*
X157461000Y-105156000D01*
X157461000Y-107696000D02*
X157480000Y-107715000D01*
X149860000Y-107696000D02*
X157461000Y-107696000D01*
X157461000Y-110236000D02*
X157480000Y-110255000D01*
X149860000Y-110236000D02*
X157461000Y-110236000D01*
X157461000Y-112776000D02*
X157480000Y-112795000D01*
X149860000Y-112776000D02*
X157461000Y-112776000D01*
X157461000Y-115316000D02*
X157480000Y-115335000D01*
X149860000Y-115316000D02*
X157461000Y-115316000D01*
X157461000Y-117856000D02*
X157480000Y-117875000D01*
X149860000Y-117856000D02*
X157461000Y-117856000D01*
X157461000Y-120396000D02*
X157480000Y-120415000D01*
X149860000Y-120396000D02*
X157461000Y-120396000D01*
X157461000Y-122936000D02*
X157480000Y-122955000D01*
X149860000Y-122936000D02*
X157461000Y-122936000D01*
X157461000Y-125476000D02*
X157480000Y-125495000D01*
X149860000Y-125476000D02*
X157461000Y-125476000D01*
X157461000Y-128016000D02*
X157480000Y-128035000D01*
X149860000Y-128016000D02*
X157461000Y-128016000D01*
X157461000Y-130556000D02*
X157480000Y-130575000D01*
X149860000Y-130556000D02*
X157461000Y-130556000D01*
X157461000Y-133096000D02*
X157480000Y-133115000D01*
X149860000Y-133096000D02*
X157461000Y-133096000D01*
X146520661Y-135020000D02*
X147020510Y-135519849D01*
X146520661Y-91998104D02*
X146520661Y-135020000D01*
X148602765Y-89916000D02*
X146520661Y-91998104D01*
X149860000Y-89916000D02*
X148602765Y-89916000D01*
D26*
X143510000Y-88665000D02*
X143510000Y-89922235D01*
D23*
X121920000Y-135655000D02*
X121920000Y-138195000D01*
X122555000Y-135020000D02*
X121920000Y-135655000D01*
X129540000Y-138195000D02*
X132842000Y-138195000D01*
D26*
X138684000Y-136144000D02*
X138684000Y-133604000D01*
D23*
X148082000Y-87376000D02*
X149860000Y-87376000D01*
X137160000Y-89925500D02*
X139446000Y-87639500D01*
X139446000Y-85344000D02*
X148082000Y-85344000D01*
X137160000Y-131318000D02*
X137160000Y-89925500D01*
X139446000Y-87639500D02*
X139446000Y-85344000D01*
X148082000Y-85344000D02*
X148082000Y-87376000D01*
X145115510Y-138195000D02*
X144615661Y-137695151D01*
X157480000Y-138195000D02*
X145115510Y-138195000D01*
X144615661Y-137695151D02*
X144615661Y-131318000D01*
X144615661Y-131318000D02*
X137160000Y-131318000D01*
X134766000Y-135020000D02*
X136252000Y-135020000D01*
X137160000Y-134112000D02*
X137160000Y-131318000D01*
X136252000Y-135020000D02*
X137160000Y-134112000D01*
D26*
X139954000Y-133604000D02*
X139954000Y-136652000D01*
D23*
X141224000Y-134112000D02*
X141224000Y-137922000D01*
X140951000Y-138195000D02*
X135382000Y-138195000D01*
X141224000Y-137922000D02*
X140951000Y-138195000D01*
D26*
X138684000Y-129286000D02*
X138938000Y-129286000D01*
X140970000Y-88665000D02*
X140970000Y-127000000D01*
X140970000Y-127000000D02*
X138684000Y-129286000D01*
X143510000Y-88665000D02*
X143510000Y-125984000D01*
X140208000Y-129286000D02*
X139954000Y-129286000D01*
X143510000Y-125984000D02*
X140208000Y-129286000D01*
X125222000Y-136144000D02*
X138684000Y-136144000D01*
X124460000Y-138195000D02*
X124460000Y-136652000D01*
X124460000Y-136652000D02*
X125222000Y-136144000D01*
X127254000Y-136683765D02*
X139954000Y-136652000D01*
X127000000Y-138195000D02*
X127000000Y-136937765D01*
X127000000Y-136937765D02*
X127254000Y-136683765D01*
M02*
