G04 #@! TF.GenerationSoftware,KiCad,Pcbnew,(5.0.0)*
G04 #@! TF.CreationDate,2019-06-11T23:30:22+02:00*
G04 #@! TF.ProjectId,5v-step-down,35762D737465702D646F776E2E6B6963,rev?*
G04 #@! TF.SameCoordinates,Original*
G04 #@! TF.FileFunction,Copper,L1,Top,Signal*
G04 #@! TF.FilePolarity,Positive*
%FSLAX46Y46*%
G04 Gerber Fmt 4.6, Leading zero omitted, Abs format (unit mm)*
G04 Created by KiCad (PCBNEW (5.0.0)) date 06/11/19 23:30:22*
%MOMM*%
%LPD*%
G01*
G04 APERTURE LIST*
G04 #@! TA.AperFunction,ComponentPad*
%ADD10C,6.000000*%
G04 #@! TD*
G04 #@! TA.AperFunction,ComponentPad*
%ADD11C,2.400000*%
G04 #@! TD*
G04 #@! TA.AperFunction,ComponentPad*
%ADD12O,1.905000X2.000000*%
G04 #@! TD*
G04 #@! TA.AperFunction,ComponentPad*
%ADD13R,1.905000X2.000000*%
G04 #@! TD*
G04 #@! TA.AperFunction,Conductor*
%ADD14C,0.100000*%
G04 #@! TD*
G04 #@! TA.AperFunction,SMDPad,CuDef*
%ADD15C,1.150000*%
G04 #@! TD*
G04 #@! TA.AperFunction,Conductor*
%ADD16C,1.000000*%
G04 #@! TD*
G04 APERTURE END LIST*
D10*
G04 #@! TO.P,Heatsink,1*
G04 #@! TO.N,N/C*
X94615000Y-67310000D03*
X120015000Y-67310000D03*
G04 #@! TD*
D11*
G04 #@! TO.P, ,1*
G04 #@! TO.N,N/C*
X92075000Y-76200000D03*
G04 #@! TD*
G04 #@! TO.P, ,1*
G04 #@! TO.N,N/C*
X92075000Y-80645000D03*
G04 #@! TD*
G04 #@! TO.P, ,1*
G04 #@! TO.N,N/C*
X123190000Y-80645000D03*
G04 #@! TD*
D12*
G04 #@! TO.P,L78S05CV,3*
G04 #@! TO.N,N/C*
X109220000Y-71755000D03*
G04 #@! TO.P,L78S05CV,2*
X106680000Y-71755000D03*
D13*
G04 #@! TO.P,L78S05CV,1*
X104140000Y-71755000D03*
G04 #@! TD*
D14*
G04 #@! TO.N,N/C*
G04 #@! TO.C,0.33\00B5F*
G36*
X104614505Y-79191204D02*
X104638773Y-79194804D01*
X104662572Y-79200765D01*
X104685671Y-79209030D01*
X104707850Y-79219520D01*
X104728893Y-79232132D01*
X104748599Y-79246747D01*
X104766777Y-79263223D01*
X104783253Y-79281401D01*
X104797868Y-79301107D01*
X104810480Y-79322150D01*
X104820970Y-79344329D01*
X104829235Y-79367428D01*
X104835196Y-79391227D01*
X104838796Y-79415495D01*
X104840000Y-79439999D01*
X104840000Y-80090001D01*
X104838796Y-80114505D01*
X104835196Y-80138773D01*
X104829235Y-80162572D01*
X104820970Y-80185671D01*
X104810480Y-80207850D01*
X104797868Y-80228893D01*
X104783253Y-80248599D01*
X104766777Y-80266777D01*
X104748599Y-80283253D01*
X104728893Y-80297868D01*
X104707850Y-80310480D01*
X104685671Y-80320970D01*
X104662572Y-80329235D01*
X104638773Y-80335196D01*
X104614505Y-80338796D01*
X104590001Y-80340000D01*
X103689999Y-80340000D01*
X103665495Y-80338796D01*
X103641227Y-80335196D01*
X103617428Y-80329235D01*
X103594329Y-80320970D01*
X103572150Y-80310480D01*
X103551107Y-80297868D01*
X103531401Y-80283253D01*
X103513223Y-80266777D01*
X103496747Y-80248599D01*
X103482132Y-80228893D01*
X103469520Y-80207850D01*
X103459030Y-80185671D01*
X103450765Y-80162572D01*
X103444804Y-80138773D01*
X103441204Y-80114505D01*
X103440000Y-80090001D01*
X103440000Y-79439999D01*
X103441204Y-79415495D01*
X103444804Y-79391227D01*
X103450765Y-79367428D01*
X103459030Y-79344329D01*
X103469520Y-79322150D01*
X103482132Y-79301107D01*
X103496747Y-79281401D01*
X103513223Y-79263223D01*
X103531401Y-79246747D01*
X103551107Y-79232132D01*
X103572150Y-79219520D01*
X103594329Y-79209030D01*
X103617428Y-79200765D01*
X103641227Y-79194804D01*
X103665495Y-79191204D01*
X103689999Y-79190000D01*
X104590001Y-79190000D01*
X104614505Y-79191204D01*
X104614505Y-79191204D01*
G37*
D15*
G04 #@! TD*
G04 #@! TO.P,0.33\00B5F,2*
G04 #@! TO.N,N/C*
X104140000Y-79765000D03*
D14*
G04 #@! TO.N,N/C*
G04 #@! TO.C,0.33\00B5F*
G36*
X104614505Y-77141204D02*
X104638773Y-77144804D01*
X104662572Y-77150765D01*
X104685671Y-77159030D01*
X104707850Y-77169520D01*
X104728893Y-77182132D01*
X104748599Y-77196747D01*
X104766777Y-77213223D01*
X104783253Y-77231401D01*
X104797868Y-77251107D01*
X104810480Y-77272150D01*
X104820970Y-77294329D01*
X104829235Y-77317428D01*
X104835196Y-77341227D01*
X104838796Y-77365495D01*
X104840000Y-77389999D01*
X104840000Y-78040001D01*
X104838796Y-78064505D01*
X104835196Y-78088773D01*
X104829235Y-78112572D01*
X104820970Y-78135671D01*
X104810480Y-78157850D01*
X104797868Y-78178893D01*
X104783253Y-78198599D01*
X104766777Y-78216777D01*
X104748599Y-78233253D01*
X104728893Y-78247868D01*
X104707850Y-78260480D01*
X104685671Y-78270970D01*
X104662572Y-78279235D01*
X104638773Y-78285196D01*
X104614505Y-78288796D01*
X104590001Y-78290000D01*
X103689999Y-78290000D01*
X103665495Y-78288796D01*
X103641227Y-78285196D01*
X103617428Y-78279235D01*
X103594329Y-78270970D01*
X103572150Y-78260480D01*
X103551107Y-78247868D01*
X103531401Y-78233253D01*
X103513223Y-78216777D01*
X103496747Y-78198599D01*
X103482132Y-78178893D01*
X103469520Y-78157850D01*
X103459030Y-78135671D01*
X103450765Y-78112572D01*
X103444804Y-78088773D01*
X103441204Y-78064505D01*
X103440000Y-78040001D01*
X103440000Y-77389999D01*
X103441204Y-77365495D01*
X103444804Y-77341227D01*
X103450765Y-77317428D01*
X103459030Y-77294329D01*
X103469520Y-77272150D01*
X103482132Y-77251107D01*
X103496747Y-77231401D01*
X103513223Y-77213223D01*
X103531401Y-77196747D01*
X103551107Y-77182132D01*
X103572150Y-77169520D01*
X103594329Y-77159030D01*
X103617428Y-77150765D01*
X103641227Y-77144804D01*
X103665495Y-77141204D01*
X103689999Y-77140000D01*
X104590001Y-77140000D01*
X104614505Y-77141204D01*
X104614505Y-77141204D01*
G37*
D15*
G04 #@! TD*
G04 #@! TO.P,0.33\00B5F,1*
G04 #@! TO.N,N/C*
X104140000Y-77715000D03*
D14*
G04 #@! TO.N,N/C*
G04 #@! TO.C,0.1\00B5F*
G36*
X109694505Y-79191204D02*
X109718773Y-79194804D01*
X109742572Y-79200765D01*
X109765671Y-79209030D01*
X109787850Y-79219520D01*
X109808893Y-79232132D01*
X109828599Y-79246747D01*
X109846777Y-79263223D01*
X109863253Y-79281401D01*
X109877868Y-79301107D01*
X109890480Y-79322150D01*
X109900970Y-79344329D01*
X109909235Y-79367428D01*
X109915196Y-79391227D01*
X109918796Y-79415495D01*
X109920000Y-79439999D01*
X109920000Y-80090001D01*
X109918796Y-80114505D01*
X109915196Y-80138773D01*
X109909235Y-80162572D01*
X109900970Y-80185671D01*
X109890480Y-80207850D01*
X109877868Y-80228893D01*
X109863253Y-80248599D01*
X109846777Y-80266777D01*
X109828599Y-80283253D01*
X109808893Y-80297868D01*
X109787850Y-80310480D01*
X109765671Y-80320970D01*
X109742572Y-80329235D01*
X109718773Y-80335196D01*
X109694505Y-80338796D01*
X109670001Y-80340000D01*
X108769999Y-80340000D01*
X108745495Y-80338796D01*
X108721227Y-80335196D01*
X108697428Y-80329235D01*
X108674329Y-80320970D01*
X108652150Y-80310480D01*
X108631107Y-80297868D01*
X108611401Y-80283253D01*
X108593223Y-80266777D01*
X108576747Y-80248599D01*
X108562132Y-80228893D01*
X108549520Y-80207850D01*
X108539030Y-80185671D01*
X108530765Y-80162572D01*
X108524804Y-80138773D01*
X108521204Y-80114505D01*
X108520000Y-80090001D01*
X108520000Y-79439999D01*
X108521204Y-79415495D01*
X108524804Y-79391227D01*
X108530765Y-79367428D01*
X108539030Y-79344329D01*
X108549520Y-79322150D01*
X108562132Y-79301107D01*
X108576747Y-79281401D01*
X108593223Y-79263223D01*
X108611401Y-79246747D01*
X108631107Y-79232132D01*
X108652150Y-79219520D01*
X108674329Y-79209030D01*
X108697428Y-79200765D01*
X108721227Y-79194804D01*
X108745495Y-79191204D01*
X108769999Y-79190000D01*
X109670001Y-79190000D01*
X109694505Y-79191204D01*
X109694505Y-79191204D01*
G37*
D15*
G04 #@! TD*
G04 #@! TO.P,0.1\00B5F,2*
G04 #@! TO.N,N/C*
X109220000Y-79765000D03*
D14*
G04 #@! TO.N,N/C*
G04 #@! TO.C,0.1\00B5F*
G36*
X109694505Y-77141204D02*
X109718773Y-77144804D01*
X109742572Y-77150765D01*
X109765671Y-77159030D01*
X109787850Y-77169520D01*
X109808893Y-77182132D01*
X109828599Y-77196747D01*
X109846777Y-77213223D01*
X109863253Y-77231401D01*
X109877868Y-77251107D01*
X109890480Y-77272150D01*
X109900970Y-77294329D01*
X109909235Y-77317428D01*
X109915196Y-77341227D01*
X109918796Y-77365495D01*
X109920000Y-77389999D01*
X109920000Y-78040001D01*
X109918796Y-78064505D01*
X109915196Y-78088773D01*
X109909235Y-78112572D01*
X109900970Y-78135671D01*
X109890480Y-78157850D01*
X109877868Y-78178893D01*
X109863253Y-78198599D01*
X109846777Y-78216777D01*
X109828599Y-78233253D01*
X109808893Y-78247868D01*
X109787850Y-78260480D01*
X109765671Y-78270970D01*
X109742572Y-78279235D01*
X109718773Y-78285196D01*
X109694505Y-78288796D01*
X109670001Y-78290000D01*
X108769999Y-78290000D01*
X108745495Y-78288796D01*
X108721227Y-78285196D01*
X108697428Y-78279235D01*
X108674329Y-78270970D01*
X108652150Y-78260480D01*
X108631107Y-78247868D01*
X108611401Y-78233253D01*
X108593223Y-78216777D01*
X108576747Y-78198599D01*
X108562132Y-78178893D01*
X108549520Y-78157850D01*
X108539030Y-78135671D01*
X108530765Y-78112572D01*
X108524804Y-78088773D01*
X108521204Y-78064505D01*
X108520000Y-78040001D01*
X108520000Y-77389999D01*
X108521204Y-77365495D01*
X108524804Y-77341227D01*
X108530765Y-77317428D01*
X108539030Y-77294329D01*
X108549520Y-77272150D01*
X108562132Y-77251107D01*
X108576747Y-77231401D01*
X108593223Y-77213223D01*
X108611401Y-77196747D01*
X108631107Y-77182132D01*
X108652150Y-77169520D01*
X108674329Y-77159030D01*
X108697428Y-77150765D01*
X108721227Y-77144804D01*
X108745495Y-77141204D01*
X108769999Y-77140000D01*
X109670001Y-77140000D01*
X109694505Y-77141204D01*
X109694505Y-77141204D01*
G37*
D15*
G04 #@! TD*
G04 #@! TO.P,0.1\00B5F,1*
G04 #@! TO.N,N/C*
X109220000Y-77715000D03*
D11*
G04 #@! TO.P, ,1*
G04 #@! TO.N,N/C*
X123190000Y-76200000D03*
G04 #@! TD*
D16*
G04 #@! TO.N,*
X106680000Y-73660000D02*
X106680000Y-79765000D01*
X109220000Y-79765000D02*
X106680000Y-79765000D01*
X106680000Y-79765000D02*
X104140000Y-79765000D01*
X106680000Y-73660000D02*
X106680000Y-71755000D01*
X109220000Y-71755000D02*
X109220000Y-73660000D01*
X104140000Y-71755000D02*
X104140000Y-73660000D01*
X110100000Y-80645000D02*
X109220000Y-79765000D01*
X123190000Y-80645000D02*
X110100000Y-80645000D01*
X103260000Y-80645000D02*
X104140000Y-79765000D01*
X92075000Y-80645000D02*
X103260000Y-80645000D01*
X92075000Y-76200000D02*
X104140000Y-76200000D01*
X104140000Y-77470000D02*
X104140000Y-76200000D01*
X104140000Y-76200000D02*
X104140000Y-73660000D01*
X123190000Y-76200000D02*
X109220000Y-76200000D01*
X109220000Y-77470000D02*
X109220000Y-76200000D01*
X109220000Y-76200000D02*
X109220000Y-73660000D01*
G04 #@! TD*
M02*
