G04 #@! TF.GenerationSoftware,KiCad,Pcbnew,(5.0.0)*
G04 #@! TF.CreationDate,2019-06-11T23:30:22+02:00*
G04 #@! TF.ProjectId,5v-step-down,35762D737465702D646F776E2E6B6963,rev?*
G04 #@! TF.SameCoordinates,Original*
G04 #@! TF.FileFunction,Legend,Bot*
G04 #@! TF.FilePolarity,Positive*
%FSLAX46Y46*%
G04 Gerber Fmt 4.6, Leading zero omitted, Abs format (unit mm)*
G04 Created by KiCad (PCBNEW (5.0.0)) date 06/11/19 23:30:22*
%MOMM*%
%LPD*%
G01*
G04 APERTURE LIST*
%ADD10C,0.300000*%
%ADD11C,0.010000*%
%ADD12C,0.150000*%
G04 APERTURE END LIST*
D10*
X111100714Y-67266428D02*
X111029285Y-67195000D01*
X110886428Y-67123571D01*
X110529285Y-67123571D01*
X110386428Y-67195000D01*
X110315000Y-67266428D01*
X110243571Y-67409285D01*
X110243571Y-67552142D01*
X110315000Y-67766428D01*
X111172142Y-68623571D01*
X110243571Y-68623571D01*
X109672142Y-68195000D02*
X108957857Y-68195000D01*
X109815000Y-68623571D02*
X109315000Y-67123571D01*
X108815000Y-68623571D01*
X107172142Y-68623571D02*
X107172142Y-67123571D01*
X106672142Y-68195000D01*
X106172142Y-67123571D01*
X106172142Y-68623571D01*
X104815000Y-68623571D02*
X104815000Y-67837857D01*
X104886428Y-67695000D01*
X105029285Y-67623571D01*
X105315000Y-67623571D01*
X105457857Y-67695000D01*
X104815000Y-68552142D02*
X104957857Y-68623571D01*
X105315000Y-68623571D01*
X105457857Y-68552142D01*
X105529285Y-68409285D01*
X105529285Y-68266428D01*
X105457857Y-68123571D01*
X105315000Y-68052142D01*
X104957857Y-68052142D01*
X104815000Y-67980714D01*
X104243571Y-68623571D02*
X103457857Y-67623571D01*
X104243571Y-67623571D02*
X103457857Y-68623571D01*
X114065000Y-65226428D02*
X114207857Y-65155000D01*
X114279285Y-65083571D01*
X114350714Y-64940714D01*
X114350714Y-64869285D01*
X114279285Y-64726428D01*
X114207857Y-64655000D01*
X114065000Y-64583571D01*
X113779285Y-64583571D01*
X113636428Y-64655000D01*
X113565000Y-64726428D01*
X113493571Y-64869285D01*
X113493571Y-64940714D01*
X113565000Y-65083571D01*
X113636428Y-65155000D01*
X113779285Y-65226428D01*
X114065000Y-65226428D01*
X114207857Y-65297857D01*
X114279285Y-65369285D01*
X114350714Y-65512142D01*
X114350714Y-65797857D01*
X114279285Y-65940714D01*
X114207857Y-66012142D01*
X114065000Y-66083571D01*
X113779285Y-66083571D01*
X113636428Y-66012142D01*
X113565000Y-65940714D01*
X113493571Y-65797857D01*
X113493571Y-65512142D01*
X113565000Y-65369285D01*
X113636428Y-65297857D01*
X113779285Y-65226428D01*
X112850714Y-65512142D02*
X111707857Y-65512142D01*
X111136428Y-64583571D02*
X110207857Y-64583571D01*
X110707857Y-65155000D01*
X110493571Y-65155000D01*
X110350714Y-65226428D01*
X110279285Y-65297857D01*
X110207857Y-65440714D01*
X110207857Y-65797857D01*
X110279285Y-65940714D01*
X110350714Y-66012142D01*
X110493571Y-66083571D01*
X110922142Y-66083571D01*
X111065000Y-66012142D01*
X111136428Y-65940714D01*
X108850714Y-64583571D02*
X109565000Y-64583571D01*
X109636428Y-65297857D01*
X109565000Y-65226428D01*
X109422142Y-65155000D01*
X109065000Y-65155000D01*
X108922142Y-65226428D01*
X108850714Y-65297857D01*
X108779285Y-65440714D01*
X108779285Y-65797857D01*
X108850714Y-65940714D01*
X108922142Y-66012142D01*
X109065000Y-66083571D01*
X109422142Y-66083571D01*
X109565000Y-66012142D01*
X109636428Y-65940714D01*
X108350714Y-64583571D02*
X107850714Y-66083571D01*
X107350714Y-64583571D01*
X105922142Y-65083571D02*
X105350714Y-65083571D01*
X105707857Y-64583571D02*
X105707857Y-65869285D01*
X105636428Y-66012142D01*
X105493571Y-66083571D01*
X105350714Y-66083571D01*
X104636428Y-66083571D02*
X104779285Y-66012142D01*
X104850714Y-65940714D01*
X104922142Y-65797857D01*
X104922142Y-65369285D01*
X104850714Y-65226428D01*
X104779285Y-65155000D01*
X104636428Y-65083571D01*
X104422142Y-65083571D01*
X104279285Y-65155000D01*
X104207857Y-65226428D01*
X104136428Y-65369285D01*
X104136428Y-65797857D01*
X104207857Y-65940714D01*
X104279285Y-66012142D01*
X104422142Y-66083571D01*
X104636428Y-66083571D01*
X101636428Y-64583571D02*
X102350714Y-64583571D01*
X102422142Y-65297857D01*
X102350714Y-65226428D01*
X102207857Y-65155000D01*
X101850714Y-65155000D01*
X101707857Y-65226428D01*
X101636428Y-65297857D01*
X101565000Y-65440714D01*
X101565000Y-65797857D01*
X101636428Y-65940714D01*
X101707857Y-66012142D01*
X101850714Y-66083571D01*
X102207857Y-66083571D01*
X102350714Y-66012142D01*
X102422142Y-65940714D01*
X101136428Y-64583571D02*
X100636428Y-66083571D01*
X100136428Y-64583571D01*
X97940714Y-79418571D02*
X97940714Y-77918571D01*
X97226428Y-79418571D02*
X97226428Y-77918571D01*
X96369285Y-79418571D01*
X96369285Y-77918571D01*
X118975000Y-77918571D02*
X118689285Y-77918571D01*
X118546428Y-77990000D01*
X118403571Y-78132857D01*
X118332142Y-78418571D01*
X118332142Y-78918571D01*
X118403571Y-79204285D01*
X118546428Y-79347142D01*
X118689285Y-79418571D01*
X118975000Y-79418571D01*
X119117857Y-79347142D01*
X119260714Y-79204285D01*
X119332142Y-78918571D01*
X119332142Y-78418571D01*
X119260714Y-78132857D01*
X119117857Y-77990000D01*
X118975000Y-77918571D01*
X117689285Y-77918571D02*
X117689285Y-79132857D01*
X117617857Y-79275714D01*
X117546428Y-79347142D01*
X117403571Y-79418571D01*
X117117857Y-79418571D01*
X116975000Y-79347142D01*
X116903571Y-79275714D01*
X116832142Y-79132857D01*
X116832142Y-77918571D01*
X116332142Y-77918571D02*
X115475000Y-77918571D01*
X115903571Y-79418571D02*
X115903571Y-77918571D01*
X120078571Y-77577142D02*
X121221428Y-77577142D01*
X120650000Y-78148571D02*
X120650000Y-77005714D01*
X94043571Y-77577142D02*
X95186428Y-77577142D01*
X94615000Y-78148571D02*
X94615000Y-77005714D01*
X94043571Y-79482142D02*
X95186428Y-79482142D01*
X120078571Y-79482142D02*
X121221428Y-79482142D01*
D11*
G04 #@! TO.C,*
G36*
X97259670Y-70330344D02*
X97427638Y-70593277D01*
X97539291Y-70754031D01*
X97614886Y-70834220D01*
X97674678Y-70855457D01*
X97737269Y-70839976D01*
X97817873Y-70819976D01*
X97791091Y-70876992D01*
X97759254Y-70917148D01*
X97707787Y-71014437D01*
X97736764Y-71039943D01*
X97842986Y-70986274D01*
X97863630Y-70959898D01*
X97857452Y-70841756D01*
X97751386Y-70669675D01*
X97566098Y-70471285D01*
X97384935Y-70319858D01*
X97133267Y-70130201D01*
X97259670Y-70330344D01*
X97259670Y-70330344D01*
G37*
X97259670Y-70330344D02*
X97427638Y-70593277D01*
X97539291Y-70754031D01*
X97614886Y-70834220D01*
X97674678Y-70855457D01*
X97737269Y-70839976D01*
X97817873Y-70819976D01*
X97791091Y-70876992D01*
X97759254Y-70917148D01*
X97707787Y-71014437D01*
X97736764Y-71039943D01*
X97842986Y-70986274D01*
X97863630Y-70959898D01*
X97857452Y-70841756D01*
X97751386Y-70669675D01*
X97566098Y-70471285D01*
X97384935Y-70319858D01*
X97133267Y-70130201D01*
X97259670Y-70330344D01*
G36*
X97871812Y-71081541D02*
X97796980Y-71139160D01*
X97831400Y-71244579D01*
X97843682Y-71264753D01*
X97963273Y-71381606D01*
X98085248Y-71395343D01*
X98139508Y-71348453D01*
X98134431Y-71242908D01*
X98046061Y-71135028D01*
X97926261Y-71076522D01*
X97871812Y-71081541D01*
X97871812Y-71081541D01*
G37*
X97871812Y-71081541D02*
X97796980Y-71139160D01*
X97831400Y-71244579D01*
X97843682Y-71264753D01*
X97963273Y-71381606D01*
X98085248Y-71395343D01*
X98139508Y-71348453D01*
X98134431Y-71242908D01*
X98046061Y-71135028D01*
X97926261Y-71076522D01*
X97871812Y-71081541D01*
G36*
X97568818Y-70105146D02*
X97593538Y-70174442D01*
X97683482Y-70339349D01*
X97823804Y-70573926D01*
X97970576Y-70807126D01*
X98207803Y-71157139D01*
X98404204Y-71394706D01*
X98581775Y-71538681D01*
X98762515Y-71607921D01*
X98921463Y-71622178D01*
X99059891Y-71572032D01*
X99107500Y-71510298D01*
X99089115Y-71363416D01*
X98947604Y-71181196D01*
X98696137Y-70979389D01*
X98623323Y-70931344D01*
X98434533Y-70796066D01*
X98195346Y-70604791D01*
X97983668Y-70422034D01*
X97791412Y-70256144D01*
X97644068Y-70142696D01*
X97570909Y-70104052D01*
X97568818Y-70105146D01*
X97568818Y-70105146D01*
G37*
X97568818Y-70105146D02*
X97593538Y-70174442D01*
X97683482Y-70339349D01*
X97823804Y-70573926D01*
X97970576Y-70807126D01*
X98207803Y-71157139D01*
X98404204Y-71394706D01*
X98581775Y-71538681D01*
X98762515Y-71607921D01*
X98921463Y-71622178D01*
X99059891Y-71572032D01*
X99107500Y-71510298D01*
X99089115Y-71363416D01*
X98947604Y-71181196D01*
X98696137Y-70979389D01*
X98623323Y-70931344D01*
X98434533Y-70796066D01*
X98195346Y-70604791D01*
X97983668Y-70422034D01*
X97791412Y-70256144D01*
X97644068Y-70142696D01*
X97570909Y-70104052D01*
X97568818Y-70105146D01*
G36*
X97800801Y-72656796D02*
X97708418Y-72679609D01*
X97723517Y-72719059D01*
X97857207Y-72798021D01*
X97873721Y-72806925D01*
X98104457Y-72911594D01*
X98230723Y-72920074D01*
X98259427Y-72861988D01*
X98196475Y-72766621D01*
X98046382Y-72688305D01*
X97867287Y-72653052D01*
X97800801Y-72656796D01*
X97800801Y-72656796D01*
G37*
X97800801Y-72656796D02*
X97708418Y-72679609D01*
X97723517Y-72719059D01*
X97857207Y-72798021D01*
X97873721Y-72806925D01*
X98104457Y-72911594D01*
X98230723Y-72920074D01*
X98259427Y-72861988D01*
X98196475Y-72766621D01*
X98046382Y-72688305D01*
X97867287Y-72653052D01*
X97800801Y-72656796D01*
G36*
X101260311Y-72859363D02*
X101216454Y-72985445D01*
X101239631Y-73039059D01*
X101309348Y-73013651D01*
X101353955Y-72927779D01*
X101382229Y-72781066D01*
X101346218Y-72755707D01*
X101260311Y-72859363D01*
X101260311Y-72859363D01*
G37*
X101260311Y-72859363D02*
X101216454Y-72985445D01*
X101239631Y-73039059D01*
X101309348Y-73013651D01*
X101353955Y-72927779D01*
X101382229Y-72781066D01*
X101346218Y-72755707D01*
X101260311Y-72859363D01*
G36*
X98366951Y-73031212D02*
X98295816Y-73077765D01*
X98321240Y-73132055D01*
X98432785Y-73150545D01*
X98588579Y-73124318D01*
X98659713Y-73077765D01*
X98634289Y-73023476D01*
X98522745Y-73004986D01*
X98366951Y-73031212D01*
X98366951Y-73031212D01*
G37*
X98366951Y-73031212D02*
X98295816Y-73077765D01*
X98321240Y-73132055D01*
X98432785Y-73150545D01*
X98588579Y-73124318D01*
X98659713Y-73077765D01*
X98634289Y-73023476D01*
X98522745Y-73004986D01*
X98366951Y-73031212D01*
G36*
X97073968Y-70580499D02*
X96885854Y-70712343D01*
X96664080Y-70898735D01*
X96439983Y-71112391D01*
X96244900Y-71326025D01*
X96163865Y-71430079D01*
X95808224Y-72035132D01*
X95571986Y-72682001D01*
X95461891Y-73344395D01*
X95484679Y-73996023D01*
X95492656Y-74048207D01*
X95530891Y-74290646D01*
X95557472Y-74472281D01*
X95566040Y-74546349D01*
X95616655Y-74638158D01*
X95725489Y-74749988D01*
X95830078Y-74820482D01*
X95849182Y-74824470D01*
X95888284Y-74758656D01*
X95944153Y-74583931D01*
X96006323Y-74334373D01*
X96022440Y-74260430D01*
X96087882Y-73908820D01*
X96143209Y-73536320D01*
X96175519Y-73233827D01*
X96289320Y-72658772D01*
X96541963Y-72117965D01*
X96929034Y-71619862D01*
X97109529Y-71444372D01*
X97555171Y-71041089D01*
X97417683Y-70785788D01*
X97311322Y-70623642D01*
X97216591Y-70535701D01*
X97197082Y-70530488D01*
X97073968Y-70580499D01*
X97073968Y-70580499D01*
G37*
X97073968Y-70580499D02*
X96885854Y-70712343D01*
X96664080Y-70898735D01*
X96439983Y-71112391D01*
X96244900Y-71326025D01*
X96163865Y-71430079D01*
X95808224Y-72035132D01*
X95571986Y-72682001D01*
X95461891Y-73344395D01*
X95484679Y-73996023D01*
X95492656Y-74048207D01*
X95530891Y-74290646D01*
X95557472Y-74472281D01*
X95566040Y-74546349D01*
X95616655Y-74638158D01*
X95725489Y-74749988D01*
X95830078Y-74820482D01*
X95849182Y-74824470D01*
X95888284Y-74758656D01*
X95944153Y-74583931D01*
X96006323Y-74334373D01*
X96022440Y-74260430D01*
X96087882Y-73908820D01*
X96143209Y-73536320D01*
X96175519Y-73233827D01*
X96289320Y-72658772D01*
X96541963Y-72117965D01*
X96929034Y-71619862D01*
X97109529Y-71444372D01*
X97555171Y-71041089D01*
X97417683Y-70785788D01*
X97311322Y-70623642D01*
X97216591Y-70535701D01*
X97197082Y-70530488D01*
X97073968Y-70580499D01*
G36*
X96713785Y-74642654D02*
X96687758Y-74893787D01*
X96662458Y-75093380D01*
X96647454Y-75179270D01*
X96656096Y-75287339D01*
X96730216Y-75306819D01*
X96824002Y-75242940D01*
X96876171Y-75153155D01*
X96934843Y-74938517D01*
X96926307Y-74730938D01*
X96847723Y-74464270D01*
X96846438Y-74460706D01*
X96754552Y-74206110D01*
X96713785Y-74642654D01*
X96713785Y-74642654D01*
G37*
X96713785Y-74642654D02*
X96687758Y-74893787D01*
X96662458Y-75093380D01*
X96647454Y-75179270D01*
X96656096Y-75287339D01*
X96730216Y-75306819D01*
X96824002Y-75242940D01*
X96876171Y-75153155D01*
X96934843Y-74938517D01*
X96926307Y-74730938D01*
X96847723Y-74464270D01*
X96846438Y-74460706D01*
X96754552Y-74206110D01*
X96713785Y-74642654D01*
G36*
X95681418Y-75004522D02*
X95686596Y-75025733D01*
X95758393Y-75170013D01*
X95894712Y-75360318D01*
X95977835Y-75457983D01*
X96120917Y-75610516D01*
X96187591Y-75660548D01*
X96195818Y-75616406D01*
X96181231Y-75552264D01*
X96102168Y-75390028D01*
X95958279Y-75195081D01*
X95889991Y-75120014D01*
X95747576Y-74981820D01*
X95683642Y-74945915D01*
X95681418Y-75004522D01*
X95681418Y-75004522D01*
G37*
X95681418Y-75004522D02*
X95686596Y-75025733D01*
X95758393Y-75170013D01*
X95894712Y-75360318D01*
X95977835Y-75457983D01*
X96120917Y-75610516D01*
X96187591Y-75660548D01*
X96195818Y-75616406D01*
X96181231Y-75552264D01*
X96102168Y-75390028D01*
X95958279Y-75195081D01*
X95889991Y-75120014D01*
X95747576Y-74981820D01*
X95683642Y-74945915D01*
X95681418Y-75004522D01*
G36*
X97126609Y-75283752D02*
X96996632Y-75527248D01*
X96971884Y-75710598D01*
X97054103Y-75816660D01*
X97071834Y-75823578D01*
X97168900Y-75790716D01*
X97235588Y-75707030D01*
X97287817Y-75537248D01*
X97312906Y-75313797D01*
X97313295Y-75285426D01*
X97313295Y-75009019D01*
X97126609Y-75283752D01*
X97126609Y-75283752D01*
G37*
X97126609Y-75283752D02*
X96996632Y-75527248D01*
X96971884Y-75710598D01*
X97054103Y-75816660D01*
X97071834Y-75823578D01*
X97168900Y-75790716D01*
X97235588Y-75707030D01*
X97287817Y-75537248D01*
X97312906Y-75313797D01*
X97313295Y-75285426D01*
X97313295Y-75009019D01*
X97126609Y-75283752D01*
G36*
X99226545Y-71425969D02*
X99239972Y-71473422D01*
X99218448Y-71558263D01*
X99113995Y-71653725D01*
X98950870Y-71723355D01*
X98757324Y-71710765D01*
X98682877Y-71692066D01*
X98486926Y-71618454D01*
X98349938Y-71532809D01*
X98338985Y-71521177D01*
X98213243Y-71474256D01*
X98010430Y-71506155D01*
X97765818Y-71603143D01*
X97514679Y-71751487D01*
X97306548Y-71923135D01*
X97068442Y-72236082D01*
X96886607Y-72628035D01*
X96767988Y-73061303D01*
X96719527Y-73498190D01*
X96748167Y-73901005D01*
X96860852Y-74232052D01*
X96876346Y-74258671D01*
X96992687Y-74565859D01*
X97024484Y-74860860D01*
X97028602Y-75070784D01*
X97043734Y-75153439D01*
X97080622Y-75127117D01*
X97131346Y-75042808D01*
X97210008Y-74863683D01*
X97237936Y-74733496D01*
X97272982Y-74625393D01*
X97309997Y-74606132D01*
X97374651Y-74672215D01*
X97421870Y-74844673D01*
X97446254Y-75084823D01*
X97442404Y-75353979D01*
X97430579Y-75470096D01*
X97411802Y-75695272D01*
X97440835Y-75837270D01*
X97531813Y-75954518D01*
X97552566Y-75974420D01*
X97782058Y-76126293D01*
X98107208Y-76261379D01*
X98478121Y-76363996D01*
X98844901Y-76418458D01*
X98980419Y-76423241D01*
X99298739Y-76395999D01*
X99633015Y-76329880D01*
X99760715Y-76291873D01*
X100051165Y-76176722D01*
X100294578Y-76053101D01*
X100459694Y-75939010D01*
X100515587Y-75857163D01*
X100464416Y-75775761D01*
X100330592Y-75629602D01*
X100299640Y-75599314D01*
X98822925Y-75599314D01*
X98805650Y-75620970D01*
X98760818Y-75610577D01*
X98660940Y-75536662D01*
X98517324Y-75384656D01*
X98429289Y-75275979D01*
X98210708Y-74926992D01*
X98037497Y-74529465D01*
X97929668Y-74137451D01*
X97904090Y-73857414D01*
X97912650Y-73550831D01*
X97968260Y-73878339D01*
X98122767Y-74431275D01*
X98401091Y-74962273D01*
X98500347Y-75107750D01*
X98680512Y-75362471D01*
X98784625Y-75519737D01*
X98822925Y-75599314D01*
X100299640Y-75599314D01*
X100143649Y-75446672D01*
X99933121Y-75254959D01*
X99728540Y-75082449D01*
X99581178Y-74971681D01*
X99273291Y-74706330D01*
X99057070Y-74406885D01*
X98942795Y-74098923D01*
X98940748Y-73808019D01*
X99029927Y-73600288D01*
X99103023Y-73432744D01*
X99048309Y-73315788D01*
X98861982Y-73246584D01*
X98540239Y-73222290D01*
X98523438Y-73222210D01*
X98225260Y-73206281D01*
X98011559Y-73164448D01*
X97903067Y-73103141D01*
X97915401Y-73033634D01*
X97900722Y-72966990D01*
X97811268Y-72902313D01*
X97661536Y-72793652D01*
X97557662Y-72662119D01*
X97532032Y-72552905D01*
X97544965Y-72530718D01*
X97655169Y-72506783D01*
X97840667Y-72533991D01*
X98046865Y-72597790D01*
X98219168Y-72683625D01*
X98269397Y-72723839D01*
X98405811Y-72826847D01*
X98500015Y-72859427D01*
X98615295Y-72900009D01*
X98784985Y-73001026D01*
X98835904Y-73037128D01*
X99006635Y-73142866D01*
X99269465Y-73282392D01*
X99581987Y-73433851D01*
X99774114Y-73520662D01*
X100471464Y-73826497D01*
X100780551Y-73662526D01*
X100993073Y-73535639D01*
X101164694Y-73408980D01*
X101208366Y-73367364D01*
X101261145Y-73294509D01*
X101255296Y-73227187D01*
X101172257Y-73140637D01*
X100993468Y-73010097D01*
X100884950Y-72935919D01*
X100662919Y-72769051D01*
X100505240Y-72619178D01*
X100441408Y-72514545D01*
X100441209Y-72511014D01*
X100418722Y-72406471D01*
X100078911Y-72406471D01*
X100065456Y-72479242D01*
X100000232Y-72449167D01*
X99951547Y-72408704D01*
X99785144Y-72296348D01*
X99686402Y-72250152D01*
X99593977Y-72192856D01*
X99593094Y-72156514D01*
X99692872Y-72144826D01*
X99844898Y-72198770D01*
X99991432Y-72288639D01*
X100074732Y-72384723D01*
X100078911Y-72406471D01*
X100418722Y-72406471D01*
X100411245Y-72371713D01*
X100337575Y-72166333D01*
X100298249Y-72074905D01*
X100180543Y-71868088D01*
X100022698Y-71720566D01*
X99774314Y-71585341D01*
X99772197Y-71584355D01*
X99487348Y-71463223D01*
X99302147Y-71409736D01*
X99226545Y-71425969D01*
X99226545Y-71425969D01*
G37*
X99226545Y-71425969D02*
X99239972Y-71473422D01*
X99218448Y-71558263D01*
X99113995Y-71653725D01*
X98950870Y-71723355D01*
X98757324Y-71710765D01*
X98682877Y-71692066D01*
X98486926Y-71618454D01*
X98349938Y-71532809D01*
X98338985Y-71521177D01*
X98213243Y-71474256D01*
X98010430Y-71506155D01*
X97765818Y-71603143D01*
X97514679Y-71751487D01*
X97306548Y-71923135D01*
X97068442Y-72236082D01*
X96886607Y-72628035D01*
X96767988Y-73061303D01*
X96719527Y-73498190D01*
X96748167Y-73901005D01*
X96860852Y-74232052D01*
X96876346Y-74258671D01*
X96992687Y-74565859D01*
X97024484Y-74860860D01*
X97028602Y-75070784D01*
X97043734Y-75153439D01*
X97080622Y-75127117D01*
X97131346Y-75042808D01*
X97210008Y-74863683D01*
X97237936Y-74733496D01*
X97272982Y-74625393D01*
X97309997Y-74606132D01*
X97374651Y-74672215D01*
X97421870Y-74844673D01*
X97446254Y-75084823D01*
X97442404Y-75353979D01*
X97430579Y-75470096D01*
X97411802Y-75695272D01*
X97440835Y-75837270D01*
X97531813Y-75954518D01*
X97552566Y-75974420D01*
X97782058Y-76126293D01*
X98107208Y-76261379D01*
X98478121Y-76363996D01*
X98844901Y-76418458D01*
X98980419Y-76423241D01*
X99298739Y-76395999D01*
X99633015Y-76329880D01*
X99760715Y-76291873D01*
X100051165Y-76176722D01*
X100294578Y-76053101D01*
X100459694Y-75939010D01*
X100515587Y-75857163D01*
X100464416Y-75775761D01*
X100330592Y-75629602D01*
X100299640Y-75599314D01*
X98822925Y-75599314D01*
X98805650Y-75620970D01*
X98760818Y-75610577D01*
X98660940Y-75536662D01*
X98517324Y-75384656D01*
X98429289Y-75275979D01*
X98210708Y-74926992D01*
X98037497Y-74529465D01*
X97929668Y-74137451D01*
X97904090Y-73857414D01*
X97912650Y-73550831D01*
X97968260Y-73878339D01*
X98122767Y-74431275D01*
X98401091Y-74962273D01*
X98500347Y-75107750D01*
X98680512Y-75362471D01*
X98784625Y-75519737D01*
X98822925Y-75599314D01*
X100299640Y-75599314D01*
X100143649Y-75446672D01*
X99933121Y-75254959D01*
X99728540Y-75082449D01*
X99581178Y-74971681D01*
X99273291Y-74706330D01*
X99057070Y-74406885D01*
X98942795Y-74098923D01*
X98940748Y-73808019D01*
X99029927Y-73600288D01*
X99103023Y-73432744D01*
X99048309Y-73315788D01*
X98861982Y-73246584D01*
X98540239Y-73222290D01*
X98523438Y-73222210D01*
X98225260Y-73206281D01*
X98011559Y-73164448D01*
X97903067Y-73103141D01*
X97915401Y-73033634D01*
X97900722Y-72966990D01*
X97811268Y-72902313D01*
X97661536Y-72793652D01*
X97557662Y-72662119D01*
X97532032Y-72552905D01*
X97544965Y-72530718D01*
X97655169Y-72506783D01*
X97840667Y-72533991D01*
X98046865Y-72597790D01*
X98219168Y-72683625D01*
X98269397Y-72723839D01*
X98405811Y-72826847D01*
X98500015Y-72859427D01*
X98615295Y-72900009D01*
X98784985Y-73001026D01*
X98835904Y-73037128D01*
X99006635Y-73142866D01*
X99269465Y-73282392D01*
X99581987Y-73433851D01*
X99774114Y-73520662D01*
X100471464Y-73826497D01*
X100780551Y-73662526D01*
X100993073Y-73535639D01*
X101164694Y-73408980D01*
X101208366Y-73367364D01*
X101261145Y-73294509D01*
X101255296Y-73227187D01*
X101172257Y-73140637D01*
X100993468Y-73010097D01*
X100884950Y-72935919D01*
X100662919Y-72769051D01*
X100505240Y-72619178D01*
X100441408Y-72514545D01*
X100441209Y-72511014D01*
X100418722Y-72406471D01*
X100078911Y-72406471D01*
X100065456Y-72479242D01*
X100000232Y-72449167D01*
X99951547Y-72408704D01*
X99785144Y-72296348D01*
X99686402Y-72250152D01*
X99593977Y-72192856D01*
X99593094Y-72156514D01*
X99692872Y-72144826D01*
X99844898Y-72198770D01*
X99991432Y-72288639D01*
X100074732Y-72384723D01*
X100078911Y-72406471D01*
X100418722Y-72406471D01*
X100411245Y-72371713D01*
X100337575Y-72166333D01*
X100298249Y-72074905D01*
X100180543Y-71868088D01*
X100022698Y-71720566D01*
X99774314Y-71585341D01*
X99772197Y-71584355D01*
X99487348Y-71463223D01*
X99302147Y-71409736D01*
X99226545Y-71425969D01*
G36*
X95875272Y-75945576D02*
X96017566Y-76134583D01*
X96020232Y-76137839D01*
X96175922Y-76290432D01*
X96352024Y-76410554D01*
X96513831Y-76481937D01*
X96626635Y-76488312D01*
X96658280Y-76436896D01*
X96608153Y-76345364D01*
X96450844Y-76208812D01*
X96175966Y-76018580D01*
X96089420Y-75962744D01*
X95910591Y-75861197D01*
X95839411Y-75854961D01*
X95875272Y-75945576D01*
X95875272Y-75945576D01*
G37*
X95875272Y-75945576D02*
X96017566Y-76134583D01*
X96020232Y-76137839D01*
X96175922Y-76290432D01*
X96352024Y-76410554D01*
X96513831Y-76481937D01*
X96626635Y-76488312D01*
X96658280Y-76436896D01*
X96608153Y-76345364D01*
X96450844Y-76208812D01*
X96175966Y-76018580D01*
X96089420Y-75962744D01*
X95910591Y-75861197D01*
X95839411Y-75854961D01*
X95875272Y-75945576D01*
G36*
X98422253Y-70064419D02*
X98154605Y-70118711D01*
X97867835Y-70205204D01*
X98173611Y-70447383D01*
X98330431Y-70564479D01*
X98468086Y-70637110D01*
X98629809Y-70676915D01*
X98858835Y-70695534D01*
X99123376Y-70703078D01*
X99457915Y-70716098D01*
X99707141Y-70748084D01*
X99931227Y-70813432D01*
X100190349Y-70926539D01*
X100318670Y-70989063D01*
X100861606Y-71330474D01*
X101298930Y-71754655D01*
X101627824Y-72243437D01*
X101845473Y-72778648D01*
X101949058Y-73342117D01*
X101935763Y-73915672D01*
X101802770Y-74481143D01*
X101547264Y-75020358D01*
X101166426Y-75515146D01*
X101039785Y-75640601D01*
X100506469Y-76059477D01*
X99940549Y-76355980D01*
X99358591Y-76525235D01*
X98777164Y-76562371D01*
X98228699Y-76467352D01*
X97843264Y-76333715D01*
X97483880Y-76177145D01*
X97177828Y-76012606D01*
X96952391Y-75855064D01*
X96834853Y-75719482D01*
X96827287Y-75698665D01*
X96733961Y-75518275D01*
X96607971Y-75382753D01*
X96489912Y-75261060D01*
X96450856Y-75163573D01*
X96437518Y-75053797D01*
X96388501Y-74852911D01*
X96326212Y-74642522D01*
X96250974Y-74413618D01*
X96206414Y-74310535D01*
X96181449Y-74319654D01*
X96164995Y-74427357D01*
X96163442Y-74442519D01*
X96166877Y-74768473D01*
X96224426Y-75156942D01*
X96323153Y-75555113D01*
X96450118Y-75910173D01*
X96583539Y-76157274D01*
X96744202Y-76358843D01*
X96915944Y-76513980D01*
X97132994Y-76644003D01*
X97429577Y-76770230D01*
X97749971Y-76883773D01*
X98372299Y-77045419D01*
X98989634Y-77114736D01*
X99555550Y-77086918D01*
X99617003Y-77076965D01*
X100311556Y-76887659D01*
X100930837Y-76585974D01*
X101467039Y-76186732D01*
X101912353Y-75704754D01*
X102258971Y-75154862D01*
X102499087Y-74551877D01*
X102624891Y-73910620D01*
X102628577Y-73245913D01*
X102502335Y-72572578D01*
X102288032Y-72006619D01*
X101966443Y-71484366D01*
X101528825Y-71008069D01*
X101002839Y-70600440D01*
X100416149Y-70284190D01*
X100011117Y-70137143D01*
X99670050Y-70069543D01*
X99254163Y-70034519D01*
X98819536Y-70032625D01*
X98422253Y-70064419D01*
X98422253Y-70064419D01*
G37*
X98422253Y-70064419D02*
X98154605Y-70118711D01*
X97867835Y-70205204D01*
X98173611Y-70447383D01*
X98330431Y-70564479D01*
X98468086Y-70637110D01*
X98629809Y-70676915D01*
X98858835Y-70695534D01*
X99123376Y-70703078D01*
X99457915Y-70716098D01*
X99707141Y-70748084D01*
X99931227Y-70813432D01*
X100190349Y-70926539D01*
X100318670Y-70989063D01*
X100861606Y-71330474D01*
X101298930Y-71754655D01*
X101627824Y-72243437D01*
X101845473Y-72778648D01*
X101949058Y-73342117D01*
X101935763Y-73915672D01*
X101802770Y-74481143D01*
X101547264Y-75020358D01*
X101166426Y-75515146D01*
X101039785Y-75640601D01*
X100506469Y-76059477D01*
X99940549Y-76355980D01*
X99358591Y-76525235D01*
X98777164Y-76562371D01*
X98228699Y-76467352D01*
X97843264Y-76333715D01*
X97483880Y-76177145D01*
X97177828Y-76012606D01*
X96952391Y-75855064D01*
X96834853Y-75719482D01*
X96827287Y-75698665D01*
X96733961Y-75518275D01*
X96607971Y-75382753D01*
X96489912Y-75261060D01*
X96450856Y-75163573D01*
X96437518Y-75053797D01*
X96388501Y-74852911D01*
X96326212Y-74642522D01*
X96250974Y-74413618D01*
X96206414Y-74310535D01*
X96181449Y-74319654D01*
X96164995Y-74427357D01*
X96163442Y-74442519D01*
X96166877Y-74768473D01*
X96224426Y-75156942D01*
X96323153Y-75555113D01*
X96450118Y-75910173D01*
X96583539Y-76157274D01*
X96744202Y-76358843D01*
X96915944Y-76513980D01*
X97132994Y-76644003D01*
X97429577Y-76770230D01*
X97749971Y-76883773D01*
X98372299Y-77045419D01*
X98989634Y-77114736D01*
X99555550Y-77086918D01*
X99617003Y-77076965D01*
X100311556Y-76887659D01*
X100930837Y-76585974D01*
X101467039Y-76186732D01*
X101912353Y-75704754D01*
X102258971Y-75154862D01*
X102499087Y-74551877D01*
X102624891Y-73910620D01*
X102628577Y-73245913D01*
X102502335Y-72572578D01*
X102288032Y-72006619D01*
X101966443Y-71484366D01*
X101528825Y-71008069D01*
X101002839Y-70600440D01*
X100416149Y-70284190D01*
X100011117Y-70137143D01*
X99670050Y-70069543D01*
X99254163Y-70034519D01*
X98819536Y-70032625D01*
X98422253Y-70064419D01*
D12*
G04 #@! TD*
M02*
