G04 #@! TF.GenerationSoftware,KiCad,Pcbnew,(5.1.5)-3*
G04 #@! TF.CreationDate,2021-02-09T20:58:30+01:00*
G04 #@! TF.ProjectId,Keyboard,4b657962-6f61-4726-942e-6b696361645f,rev?*
G04 #@! TF.SameCoordinates,Original*
G04 #@! TF.FileFunction,Copper,L2,Bot*
G04 #@! TF.FilePolarity,Positive*
%FSLAX46Y46*%
G04 Gerber Fmt 4.6, Leading zero omitted, Abs format (unit mm)*
G04 Created by KiCad (PCBNEW (5.1.5)-3) date 2021-02-09 20:58:30*
%MOMM*%
%LPD*%
G04 APERTURE LIST*
%ADD10C,1.700000*%
%ADD11O,1.700000X1.700000*%
%ADD12R,1.700000X1.700000*%
%ADD13C,0.250000*%
G04 APERTURE END LIST*
D10*
X107918000Y-53602000D03*
X98918000Y-49602000D03*
D11*
X121620000Y-130000000D03*
X119080000Y-130000000D03*
X116540000Y-130000000D03*
D12*
X114000000Y-130000000D03*
D11*
X107620000Y-130000000D03*
X105080000Y-130000000D03*
X102540000Y-130000000D03*
D12*
X100000000Y-130000000D03*
D10*
X148558000Y-73922000D03*
X139558000Y-69922000D03*
X119238000Y-49602000D03*
X128238000Y-53602000D03*
X159878000Y-49602000D03*
X168878000Y-53602000D03*
X139558000Y-49602000D03*
X148558000Y-53602000D03*
X119238000Y-110562000D03*
X128238000Y-114562000D03*
X98918000Y-110562000D03*
X107918000Y-114562000D03*
X159878000Y-110562000D03*
X168878000Y-114562000D03*
X139558000Y-110562000D03*
X148558000Y-114562000D03*
X119238000Y-90242000D03*
X128238000Y-94242000D03*
X98918000Y-90242000D03*
X107918000Y-94242000D03*
X159878000Y-90242000D03*
X168878000Y-94242000D03*
X139558000Y-90242000D03*
X148558000Y-94242000D03*
X168878000Y-73922000D03*
X159878000Y-69922000D03*
X128238000Y-73922000D03*
X119238000Y-69922000D03*
X107918000Y-73922000D03*
X98918000Y-69922000D03*
D13*
X128238000Y-94242000D02*
X129440081Y-94242000D01*
X168878000Y-94242000D02*
X170080081Y-94242000D01*
X107918000Y-114562000D02*
X128238000Y-114562000D01*
X129440081Y-114562000D02*
X148558000Y-114562000D01*
X128238000Y-114562000D02*
X129440081Y-114562000D01*
X148558000Y-114562000D02*
X168878000Y-114562000D01*
X109120081Y-94242000D02*
X128238000Y-94242000D01*
X107918000Y-94242000D02*
X109120081Y-94242000D01*
X128238000Y-94242000D02*
X148558000Y-94242000D01*
X149760081Y-94242000D02*
X168878000Y-94242000D01*
X148558000Y-94242000D02*
X149760081Y-94242000D01*
X109120081Y-73922000D02*
X128238000Y-73922000D01*
X107918000Y-73922000D02*
X109120081Y-73922000D01*
X129440081Y-73922000D02*
X148558000Y-73922000D01*
X128238000Y-73922000D02*
X129440081Y-73922000D01*
X148558000Y-73922000D02*
X168878000Y-73922000D01*
X109120081Y-53602000D02*
X128238000Y-53602000D01*
X107918000Y-53602000D02*
X109120081Y-53602000D01*
X129440081Y-53602000D02*
X148558000Y-53602000D01*
X128238000Y-53602000D02*
X129440081Y-53602000D01*
X148558000Y-53602000D02*
X168878000Y-53602000D01*
X121620000Y-130000000D02*
X121620000Y-116620000D01*
X121620000Y-116620000D02*
X121000000Y-116000000D01*
X121000000Y-116000000D02*
X109000000Y-116000000D01*
X109000000Y-116000000D02*
X108000000Y-115000000D01*
X107918000Y-94242000D02*
X107918000Y-110918000D01*
X107918000Y-110918000D02*
X105000000Y-113836000D01*
X105000000Y-114000000D02*
X105000000Y-115000000D01*
X105000000Y-115000000D02*
X108000000Y-118000000D01*
X108000000Y-118000000D02*
X118000000Y-118000000D01*
X119080000Y-119080000D02*
X119080000Y-130000000D01*
X118000000Y-118000000D02*
X119080000Y-119080000D01*
X116540000Y-128540000D02*
X116540000Y-130000000D01*
X107918000Y-73922000D02*
X107918000Y-90918000D01*
X105000000Y-93836000D02*
X105000000Y-95000000D01*
X106000000Y-111000000D02*
X101000000Y-116000000D01*
X106000000Y-96000000D02*
X106000000Y-111000000D01*
X107918000Y-90918000D02*
X105000000Y-93836000D01*
X116000000Y-120000000D02*
X116540000Y-120540000D01*
X101000000Y-116000000D02*
X101000000Y-119000000D01*
X101000000Y-119000000D02*
X102000000Y-120000000D01*
X102000000Y-120000000D02*
X116000000Y-120000000D01*
X105000000Y-95000000D02*
X106000000Y-96000000D01*
X116540000Y-120540000D02*
X116540000Y-128540000D01*
X114000000Y-123000000D02*
X114000000Y-130000000D01*
X99000000Y-120000000D02*
X101000000Y-122000000D01*
X101000000Y-122000000D02*
X113000000Y-122000000D01*
X101398000Y-53602000D02*
X101000000Y-54000000D01*
X101000000Y-54000000D02*
X101000000Y-114000000D01*
X113000000Y-122000000D02*
X114000000Y-123000000D01*
X107918000Y-53602000D02*
X101398000Y-53602000D01*
X101000000Y-114000000D02*
X99000000Y-116000000D01*
X99000000Y-116000000D02*
X99000000Y-120000000D01*
M02*
