M48
; DRILL file {KiCad (5.1.5)-3} date 09.02.2021 20:58:33
; FORMAT={-:-/ absolute / metric / decimal}
; #@! TF.CreationDate,2021-02-09T20:58:33+01:00
; #@! TF.GenerationSoftware,Kicad,Pcbnew,(5.1.5)-3
; #@! TF.FileFunction,Plated,1,2,PTH
FMAT,2
METRIC
T1C1.000
T2C1.200
%
G90
G05
T1
X100.0Y-130.0
X102.54Y-130.0
X105.08Y-130.0
X107.62Y-130.0
X114.0Y-130.0
X116.54Y-130.0
X119.08Y-130.0
X121.62Y-130.0
T2
X139.558Y-69.922
X148.558Y-73.922
X139.558Y-49.602
X148.558Y-53.602
X159.878Y-69.922
X168.878Y-73.922
X139.558Y-110.562
X148.558Y-114.562
X119.238Y-110.562
X128.238Y-114.562
X98.918Y-110.562
X107.918Y-114.562
X119.238Y-69.922
X128.238Y-73.922
X159.878Y-49.602
X168.878Y-53.602
X98.918Y-90.242
X107.918Y-94.242
X98.918Y-69.922
X107.918Y-73.922
X119.238Y-49.602
X128.238Y-53.602
X98.918Y-49.602
X107.918Y-53.602
X159.878Y-110.562
X168.878Y-114.562
X139.558Y-90.242
X148.558Y-94.242
X119.238Y-90.242
X128.238Y-94.242
X159.878Y-90.242
X168.878Y-94.242
T0
M30
