G04 #@! TF.GenerationSoftware,KiCad,Pcbnew,(5.0.0)*
G04 #@! TF.CreationDate,2019-08-07T20:49:05+02:00*
G04 #@! TF.ProjectId,Arduino_Nano_Breadboard,41726475696E6F5F4E616E6F5F427265,rev?*
G04 #@! TF.SameCoordinates,Original*
G04 #@! TF.FileFunction,Legend,Top*
G04 #@! TF.FilePolarity,Positive*
%FSLAX46Y46*%
G04 Gerber Fmt 4.6, Leading zero omitted, Abs format (unit mm)*
G04 Created by KiCad (PCBNEW (5.0.0)) date 08/07/19 20:49:05*
%MOMM*%
%LPD*%
G01*
G04 APERTURE LIST*
%ADD10C,0.100000*%
%ADD11C,0.300000*%
%ADD12C,0.750000*%
%ADD13C,0.150000*%
%ADD14C,0.200000*%
%ADD15C,0.010000*%
%ADD16C,0.120000*%
%ADD17C,1.500000*%
G04 APERTURE END LIST*
D10*
X154061190Y-138397380D02*
X154061190Y-137397380D01*
X154394523Y-138111666D01*
X154727857Y-137397380D01*
X154727857Y-138397380D01*
X155204047Y-138397380D02*
X155204047Y-137730714D01*
X155204047Y-137397380D02*
X155156428Y-137445000D01*
X155204047Y-137492619D01*
X155251666Y-137445000D01*
X155204047Y-137397380D01*
X155204047Y-137492619D01*
X156108809Y-138349761D02*
X156013571Y-138397380D01*
X155823095Y-138397380D01*
X155727857Y-138349761D01*
X155680238Y-138302142D01*
X155632619Y-138206904D01*
X155632619Y-137921190D01*
X155680238Y-137825952D01*
X155727857Y-137778333D01*
X155823095Y-137730714D01*
X156013571Y-137730714D01*
X156108809Y-137778333D01*
X156537380Y-138397380D02*
X156537380Y-137730714D01*
X156537380Y-137921190D02*
X156585000Y-137825952D01*
X156632619Y-137778333D01*
X156727857Y-137730714D01*
X156823095Y-137730714D01*
X157299285Y-138397380D02*
X157204047Y-138349761D01*
X157156428Y-138302142D01*
X157108809Y-138206904D01*
X157108809Y-137921190D01*
X157156428Y-137825952D01*
X157204047Y-137778333D01*
X157299285Y-137730714D01*
X157442142Y-137730714D01*
X157537380Y-137778333D01*
X157585000Y-137825952D01*
X157632619Y-137921190D01*
X157632619Y-138206904D01*
X157585000Y-138302142D01*
X157537380Y-138349761D01*
X157442142Y-138397380D01*
X157299285Y-138397380D01*
X158823095Y-137397380D02*
X158823095Y-138206904D01*
X158870714Y-138302142D01*
X158918333Y-138349761D01*
X159013571Y-138397380D01*
X159204047Y-138397380D01*
X159299285Y-138349761D01*
X159346904Y-138302142D01*
X159394523Y-138206904D01*
X159394523Y-137397380D01*
X159823095Y-138349761D02*
X159965952Y-138397380D01*
X160204047Y-138397380D01*
X160299285Y-138349761D01*
X160346904Y-138302142D01*
X160394523Y-138206904D01*
X160394523Y-138111666D01*
X160346904Y-138016428D01*
X160299285Y-137968809D01*
X160204047Y-137921190D01*
X160013571Y-137873571D01*
X159918333Y-137825952D01*
X159870714Y-137778333D01*
X159823095Y-137683095D01*
X159823095Y-137587857D01*
X159870714Y-137492619D01*
X159918333Y-137445000D01*
X160013571Y-137397380D01*
X160251666Y-137397380D01*
X160394523Y-137445000D01*
X161156428Y-137873571D02*
X161299285Y-137921190D01*
X161346904Y-137968809D01*
X161394523Y-138064047D01*
X161394523Y-138206904D01*
X161346904Y-138302142D01*
X161299285Y-138349761D01*
X161204047Y-138397380D01*
X160823095Y-138397380D01*
X160823095Y-137397380D01*
X161156428Y-137397380D01*
X161251666Y-137445000D01*
X161299285Y-137492619D01*
X161346904Y-137587857D01*
X161346904Y-137683095D01*
X161299285Y-137778333D01*
X161251666Y-137825952D01*
X161156428Y-137873571D01*
X160823095Y-137873571D01*
X162918333Y-137873571D02*
X163061190Y-137921190D01*
X163108809Y-137968809D01*
X163156428Y-138064047D01*
X163156428Y-138206904D01*
X163108809Y-138302142D01*
X163061190Y-138349761D01*
X162965952Y-138397380D01*
X162585000Y-138397380D01*
X162585000Y-137397380D01*
X162918333Y-137397380D01*
X163013571Y-137445000D01*
X163061190Y-137492619D01*
X163108809Y-137587857D01*
X163108809Y-137683095D01*
X163061190Y-137778333D01*
X163013571Y-137825952D01*
X162918333Y-137873571D01*
X162585000Y-137873571D01*
D11*
X102591053Y-138919440D02*
X101876768Y-138919440D01*
X101805339Y-139633726D01*
X101876768Y-139562297D01*
X102019625Y-139490869D01*
X102376768Y-139490869D01*
X102519625Y-139562297D01*
X102591053Y-139633726D01*
X102662482Y-139776583D01*
X102662482Y-140133726D01*
X102591053Y-140276583D01*
X102519625Y-140348011D01*
X102376768Y-140419440D01*
X102019625Y-140419440D01*
X101876768Y-140348011D01*
X101805339Y-140276583D01*
X103091053Y-138919440D02*
X103591053Y-140419440D01*
X104091053Y-138919440D01*
D12*
X98895000Y-134770000D02*
X97625000Y-134770000D01*
X142075000Y-137310000D02*
X140805000Y-137310000D01*
X142075000Y-139850000D02*
X140805000Y-139850000D01*
X98895000Y-139850000D02*
X97625000Y-139850000D01*
X98895000Y-137310000D02*
X97625000Y-137310000D01*
D13*
X154802857Y-123564285D02*
X154445714Y-123564285D01*
X154410000Y-123921428D01*
X154445714Y-123885714D01*
X154517142Y-123850000D01*
X154695714Y-123850000D01*
X154767142Y-123885714D01*
X154802857Y-123921428D01*
X154838571Y-123992857D01*
X154838571Y-124171428D01*
X154802857Y-124242857D01*
X154767142Y-124278571D01*
X154695714Y-124314285D01*
X154517142Y-124314285D01*
X154445714Y-124278571D01*
X154410000Y-124242857D01*
X155052857Y-123564285D02*
X155302857Y-124314285D01*
X155552857Y-123564285D01*
X155802857Y-124028571D02*
X156374285Y-124028571D01*
X156088571Y-124314285D02*
X156088571Y-123742857D01*
X162458571Y-123600000D02*
X162387142Y-123564285D01*
X162280000Y-123564285D01*
X162172857Y-123600000D01*
X162101428Y-123671428D01*
X162065714Y-123742857D01*
X162030000Y-123885714D01*
X162030000Y-123992857D01*
X162065714Y-124135714D01*
X162101428Y-124207142D01*
X162172857Y-124278571D01*
X162280000Y-124314285D01*
X162351428Y-124314285D01*
X162458571Y-124278571D01*
X162494285Y-124242857D01*
X162494285Y-123992857D01*
X162351428Y-123992857D01*
X162815714Y-124314285D02*
X162815714Y-123564285D01*
X163244285Y-124314285D01*
X163244285Y-123564285D01*
X163601428Y-124314285D02*
X163601428Y-123564285D01*
X163780000Y-123564285D01*
X163887142Y-123600000D01*
X163958571Y-123671428D01*
X163994285Y-123742857D01*
X164030000Y-123885714D01*
X164030000Y-123992857D01*
X163994285Y-124135714D01*
X163958571Y-124207142D01*
X163887142Y-124278571D01*
X163780000Y-124314285D01*
X163601428Y-124314285D01*
X159829285Y-124314285D02*
X159829285Y-123564285D01*
X160007857Y-123564285D01*
X160115000Y-123600000D01*
X160186428Y-123671428D01*
X160222142Y-123742857D01*
X160257857Y-123885714D01*
X160257857Y-123992857D01*
X160222142Y-124135714D01*
X160186428Y-124207142D01*
X160115000Y-124278571D01*
X160007857Y-124314285D01*
X159829285Y-124314285D01*
X160579285Y-124028571D02*
X161150714Y-124028571D01*
X160865000Y-124314285D02*
X160865000Y-123742857D01*
X157289285Y-124314285D02*
X157289285Y-123564285D01*
X157467857Y-123564285D01*
X157575000Y-123600000D01*
X157646428Y-123671428D01*
X157682142Y-123742857D01*
X157717857Y-123885714D01*
X157717857Y-123992857D01*
X157682142Y-124135714D01*
X157646428Y-124207142D01*
X157575000Y-124278571D01*
X157467857Y-124314285D01*
X157289285Y-124314285D01*
X158039285Y-124028571D02*
X158610714Y-124028571D01*
X110960000Y-136040000D02*
X110960000Y-97940000D01*
X105880000Y-136040000D02*
X110960000Y-136040000D01*
X105880000Y-97940000D02*
X105880000Y-136040000D01*
X110960000Y-97940000D02*
X105880000Y-97940000D01*
X138900000Y-136040000D02*
X138900000Y-97940000D01*
X143980000Y-136040000D02*
X138900000Y-136040000D01*
X143980000Y-97940000D02*
X143980000Y-136040000D01*
X138900000Y-97940000D02*
X143980000Y-97940000D01*
D11*
X135460339Y-127290869D02*
X136174625Y-127290869D01*
X135317482Y-127719440D02*
X135817482Y-126219440D01*
X136317482Y-127719440D01*
X137103196Y-126219440D02*
X137246053Y-126219440D01*
X137388910Y-126290869D01*
X137460339Y-126362297D01*
X137531768Y-126505154D01*
X137603196Y-126790869D01*
X137603196Y-127148011D01*
X137531768Y-127433726D01*
X137460339Y-127576583D01*
X137388910Y-127648011D01*
X137246053Y-127719440D01*
X137103196Y-127719440D01*
X136960339Y-127648011D01*
X136888910Y-127576583D01*
X136817482Y-127433726D01*
X136746053Y-127148011D01*
X136746053Y-126790869D01*
X136817482Y-126505154D01*
X136888910Y-126362297D01*
X136960339Y-126290869D01*
X137103196Y-126219440D01*
D14*
X145504047Y-136951428D02*
X146265952Y-136951428D01*
X145885000Y-137332380D02*
X145885000Y-136570476D01*
X144623095Y-138032380D02*
X144623095Y-138841904D01*
X144670714Y-138937142D01*
X144718333Y-138984761D01*
X144813571Y-139032380D01*
X145004047Y-139032380D01*
X145099285Y-138984761D01*
X145146904Y-138937142D01*
X145194523Y-138841904D01*
X145194523Y-138032380D01*
X145623095Y-138984761D02*
X145765952Y-139032380D01*
X146004047Y-139032380D01*
X146099285Y-138984761D01*
X146146904Y-138937142D01*
X146194523Y-138841904D01*
X146194523Y-138746666D01*
X146146904Y-138651428D01*
X146099285Y-138603809D01*
X146004047Y-138556190D01*
X145813571Y-138508571D01*
X145718333Y-138460952D01*
X145670714Y-138413333D01*
X145623095Y-138318095D01*
X145623095Y-138222857D01*
X145670714Y-138127619D01*
X145718333Y-138080000D01*
X145813571Y-138032380D01*
X146051666Y-138032380D01*
X146194523Y-138080000D01*
X146956428Y-138508571D02*
X147099285Y-138556190D01*
X147146904Y-138603809D01*
X147194523Y-138699047D01*
X147194523Y-138841904D01*
X147146904Y-138937142D01*
X147099285Y-138984761D01*
X147004047Y-139032380D01*
X146623095Y-139032380D01*
X146623095Y-138032380D01*
X146956428Y-138032380D01*
X147051666Y-138080000D01*
X147099285Y-138127619D01*
X147146904Y-138222857D01*
X147146904Y-138318095D01*
X147099285Y-138413333D01*
X147051666Y-138460952D01*
X146956428Y-138508571D01*
X146623095Y-138508571D01*
X145504047Y-140351428D02*
X146265952Y-140351428D01*
D11*
X102197142Y-134020000D02*
X102054285Y-133948571D01*
X101840000Y-133948571D01*
X101625714Y-134020000D01*
X101482857Y-134162857D01*
X101411428Y-134305714D01*
X101340000Y-134591428D01*
X101340000Y-134805714D01*
X101411428Y-135091428D01*
X101482857Y-135234285D01*
X101625714Y-135377142D01*
X101840000Y-135448571D01*
X101982857Y-135448571D01*
X102197142Y-135377142D01*
X102268571Y-135305714D01*
X102268571Y-134805714D01*
X101982857Y-134805714D01*
X102911428Y-135448571D02*
X102911428Y-133948571D01*
X103768571Y-135448571D01*
X103768571Y-133948571D01*
X104482857Y-135448571D02*
X104482857Y-133948571D01*
X104840000Y-133948571D01*
X105054285Y-134020000D01*
X105197142Y-134162857D01*
X105268571Y-134305714D01*
X105340000Y-134591428D01*
X105340000Y-134805714D01*
X105268571Y-135091428D01*
X105197142Y-135234285D01*
X105054285Y-135377142D01*
X104840000Y-135448571D01*
X104482857Y-135448571D01*
X101697142Y-136488571D02*
X102197142Y-137988571D01*
X102697142Y-136488571D01*
X103197142Y-137988571D02*
X103197142Y-136488571D01*
X103911428Y-137988571D02*
X103911428Y-136488571D01*
X104768571Y-137988571D01*
X104768571Y-136488571D01*
X135388910Y-138990869D02*
X135246053Y-138919440D01*
X135031768Y-138919440D01*
X134817482Y-138990869D01*
X134674625Y-139133726D01*
X134603196Y-139276583D01*
X134531768Y-139562297D01*
X134531768Y-139776583D01*
X134603196Y-140062297D01*
X134674625Y-140205154D01*
X134817482Y-140348011D01*
X135031768Y-140419440D01*
X135174625Y-140419440D01*
X135388910Y-140348011D01*
X135460339Y-140276583D01*
X135460339Y-139776583D01*
X135174625Y-139776583D01*
X136103196Y-140419440D02*
X136103196Y-138919440D01*
X136960339Y-140419440D01*
X136960339Y-138919440D01*
X137674625Y-140419440D02*
X137674625Y-138919440D01*
X138031768Y-138919440D01*
X138246053Y-138990869D01*
X138388910Y-139133726D01*
X138460339Y-139276583D01*
X138531768Y-139562297D01*
X138531768Y-139776583D01*
X138460339Y-140062297D01*
X138388910Y-140205154D01*
X138246053Y-140348011D01*
X138031768Y-140419440D01*
X137674625Y-140419440D01*
X136881053Y-136379440D02*
X136166768Y-136379440D01*
X136095339Y-137093726D01*
X136166768Y-137022297D01*
X136309625Y-136950869D01*
X136666768Y-136950869D01*
X136809625Y-137022297D01*
X136881053Y-137093726D01*
X136952482Y-137236583D01*
X136952482Y-137593726D01*
X136881053Y-137736583D01*
X136809625Y-137808011D01*
X136666768Y-137879440D01*
X136309625Y-137879440D01*
X136166768Y-137808011D01*
X136095339Y-137736583D01*
X137381053Y-136379440D02*
X137881053Y-137879440D01*
X138381053Y-136379440D01*
X134710339Y-135339440D02*
X134710339Y-133839440D01*
X135067482Y-133839440D01*
X135281768Y-133910869D01*
X135424625Y-134053726D01*
X135496053Y-134196583D01*
X135567482Y-134482297D01*
X135567482Y-134696583D01*
X135496053Y-134982297D01*
X135424625Y-135125154D01*
X135281768Y-135268011D01*
X135067482Y-135339440D01*
X134710339Y-135339440D01*
X136996053Y-135339440D02*
X136138910Y-135339440D01*
X136567482Y-135339440D02*
X136567482Y-133839440D01*
X136424625Y-134053726D01*
X136281768Y-134196583D01*
X136138910Y-134268011D01*
X137496053Y-133839440D02*
X138424625Y-133839440D01*
X137924625Y-134410869D01*
X138138910Y-134410869D01*
X138281768Y-134482297D01*
X138353196Y-134553726D01*
X138424625Y-134696583D01*
X138424625Y-135053726D01*
X138353196Y-135196583D01*
X138281768Y-135268011D01*
X138138910Y-135339440D01*
X137710339Y-135339440D01*
X137567482Y-135268011D01*
X137496053Y-135196583D01*
X134746053Y-131299440D02*
X135674625Y-131299440D01*
X135174625Y-131870869D01*
X135388910Y-131870869D01*
X135531768Y-131942297D01*
X135603196Y-132013726D01*
X135674625Y-132156583D01*
X135674625Y-132513726D01*
X135603196Y-132656583D01*
X135531768Y-132728011D01*
X135388910Y-132799440D01*
X134960339Y-132799440D01*
X134817482Y-132728011D01*
X134746053Y-132656583D01*
X136174625Y-131799440D02*
X136531768Y-132799440D01*
X136888910Y-131799440D01*
X137317482Y-131299440D02*
X138246053Y-131299440D01*
X137746053Y-131870869D01*
X137960339Y-131870869D01*
X138103196Y-131942297D01*
X138174625Y-132013726D01*
X138246053Y-132156583D01*
X138246053Y-132513726D01*
X138174625Y-132656583D01*
X138103196Y-132728011D01*
X137960339Y-132799440D01*
X137531768Y-132799440D01*
X137388910Y-132728011D01*
X137317482Y-132656583D01*
X135674625Y-130259440D02*
X135174625Y-129545154D01*
X134817482Y-130259440D02*
X134817482Y-128759440D01*
X135388910Y-128759440D01*
X135531768Y-128830869D01*
X135603196Y-128902297D01*
X135674625Y-129045154D01*
X135674625Y-129259440D01*
X135603196Y-129402297D01*
X135531768Y-129473726D01*
X135388910Y-129545154D01*
X134817482Y-129545154D01*
X136317482Y-129473726D02*
X136817482Y-129473726D01*
X137031768Y-130259440D02*
X136317482Y-130259440D01*
X136317482Y-128759440D01*
X137031768Y-128759440D01*
X138174625Y-129473726D02*
X137674625Y-129473726D01*
X137674625Y-130259440D02*
X137674625Y-128759440D01*
X138388910Y-128759440D01*
X135460339Y-124750869D02*
X136174625Y-124750869D01*
X135317482Y-125179440D02*
X135817482Y-123679440D01*
X136317482Y-125179440D01*
X137603196Y-125179440D02*
X136746053Y-125179440D01*
X137174625Y-125179440D02*
X137174625Y-123679440D01*
X137031768Y-123893726D01*
X136888910Y-124036583D01*
X136746053Y-124108011D01*
X135460339Y-122210869D02*
X136174625Y-122210869D01*
X135317482Y-122639440D02*
X135817482Y-121139440D01*
X136317482Y-122639440D01*
X136746053Y-121282297D02*
X136817482Y-121210869D01*
X136960339Y-121139440D01*
X137317482Y-121139440D01*
X137460339Y-121210869D01*
X137531768Y-121282297D01*
X137603196Y-121425154D01*
X137603196Y-121568011D01*
X137531768Y-121782297D01*
X136674625Y-122639440D01*
X137603196Y-122639440D01*
X135460339Y-119670869D02*
X136174625Y-119670869D01*
X135317482Y-120099440D02*
X135817482Y-118599440D01*
X136317482Y-120099440D01*
X136674625Y-118599440D02*
X137603196Y-118599440D01*
X137103196Y-119170869D01*
X137317482Y-119170869D01*
X137460339Y-119242297D01*
X137531768Y-119313726D01*
X137603196Y-119456583D01*
X137603196Y-119813726D01*
X137531768Y-119956583D01*
X137460339Y-120028011D01*
X137317482Y-120099440D01*
X136888910Y-120099440D01*
X136746053Y-120028011D01*
X136674625Y-119956583D01*
X135460339Y-117130869D02*
X136174625Y-117130869D01*
X135317482Y-117559440D02*
X135817482Y-116059440D01*
X136317482Y-117559440D01*
X137460339Y-116559440D02*
X137460339Y-117559440D01*
X137103196Y-115988011D02*
X136746053Y-117059440D01*
X137674625Y-117059440D01*
X135460339Y-114590869D02*
X136174625Y-114590869D01*
X135317482Y-115019440D02*
X135817482Y-113519440D01*
X136317482Y-115019440D01*
X137531768Y-113519440D02*
X136817482Y-113519440D01*
X136746053Y-114233726D01*
X136817482Y-114162297D01*
X136960339Y-114090869D01*
X137317482Y-114090869D01*
X137460339Y-114162297D01*
X137531768Y-114233726D01*
X137603196Y-114376583D01*
X137603196Y-114733726D01*
X137531768Y-114876583D01*
X137460339Y-114948011D01*
X137317482Y-115019440D01*
X136960339Y-115019440D01*
X136817482Y-114948011D01*
X136746053Y-114876583D01*
X135460339Y-112050869D02*
X136174625Y-112050869D01*
X135317482Y-112479440D02*
X135817482Y-110979440D01*
X136317482Y-112479440D01*
X137460339Y-110979440D02*
X137174625Y-110979440D01*
X137031768Y-111050869D01*
X136960339Y-111122297D01*
X136817482Y-111336583D01*
X136746053Y-111622297D01*
X136746053Y-112193726D01*
X136817482Y-112336583D01*
X136888910Y-112408011D01*
X137031768Y-112479440D01*
X137317482Y-112479440D01*
X137460339Y-112408011D01*
X137531768Y-112336583D01*
X137603196Y-112193726D01*
X137603196Y-111836583D01*
X137531768Y-111693726D01*
X137460339Y-111622297D01*
X137317482Y-111550869D01*
X137031768Y-111550869D01*
X136888910Y-111622297D01*
X136817482Y-111693726D01*
X136746053Y-111836583D01*
X135460339Y-109510869D02*
X136174625Y-109510869D01*
X135317482Y-109939440D02*
X135817482Y-108439440D01*
X136317482Y-109939440D01*
X136674625Y-108439440D02*
X137674625Y-108439440D01*
X137031768Y-109939440D01*
X136246053Y-105899440D02*
X135531768Y-105899440D01*
X135460339Y-106613726D01*
X135531768Y-106542297D01*
X135674625Y-106470869D01*
X136031768Y-106470869D01*
X136174625Y-106542297D01*
X136246053Y-106613726D01*
X136317482Y-106756583D01*
X136317482Y-107113726D01*
X136246053Y-107256583D01*
X136174625Y-107328011D01*
X136031768Y-107399440D01*
X135674625Y-107399440D01*
X135531768Y-107328011D01*
X135460339Y-107256583D01*
X136746053Y-105899440D02*
X137246053Y-107399440D01*
X137746053Y-105899440D01*
X135710339Y-104859440D02*
X135210339Y-104145154D01*
X134853196Y-104859440D02*
X134853196Y-103359440D01*
X135424625Y-103359440D01*
X135567482Y-103430869D01*
X135638910Y-103502297D01*
X135710339Y-103645154D01*
X135710339Y-103859440D01*
X135638910Y-104002297D01*
X135567482Y-104073726D01*
X135424625Y-104145154D01*
X134853196Y-104145154D01*
X136281768Y-104788011D02*
X136496053Y-104859440D01*
X136853196Y-104859440D01*
X136996053Y-104788011D01*
X137067482Y-104716583D01*
X137138910Y-104573726D01*
X137138910Y-104430869D01*
X137067482Y-104288011D01*
X136996053Y-104216583D01*
X136853196Y-104145154D01*
X136567482Y-104073726D01*
X136424625Y-104002297D01*
X136353196Y-103930869D01*
X136281768Y-103788011D01*
X136281768Y-103645154D01*
X136353196Y-103502297D01*
X136424625Y-103430869D01*
X136567482Y-103359440D01*
X136924625Y-103359440D01*
X137138910Y-103430869D01*
X137567482Y-103359440D02*
X138424625Y-103359440D01*
X137996053Y-104859440D02*
X137996053Y-103359440D01*
X135388910Y-100890869D02*
X135246053Y-100819440D01*
X135031768Y-100819440D01*
X134817482Y-100890869D01*
X134674625Y-101033726D01*
X134603196Y-101176583D01*
X134531768Y-101462297D01*
X134531768Y-101676583D01*
X134603196Y-101962297D01*
X134674625Y-102105154D01*
X134817482Y-102248011D01*
X135031768Y-102319440D01*
X135174625Y-102319440D01*
X135388910Y-102248011D01*
X135460339Y-102176583D01*
X135460339Y-101676583D01*
X135174625Y-101676583D01*
X136103196Y-102319440D02*
X136103196Y-100819440D01*
X136960339Y-102319440D01*
X136960339Y-100819440D01*
X137674625Y-102319440D02*
X137674625Y-100819440D01*
X138031768Y-100819440D01*
X138246053Y-100890869D01*
X138388910Y-101033726D01*
X138460339Y-101176583D01*
X138531768Y-101462297D01*
X138531768Y-101676583D01*
X138460339Y-101962297D01*
X138388910Y-102105154D01*
X138246053Y-102248011D01*
X138031768Y-102319440D01*
X137674625Y-102319440D01*
X134888910Y-98279440D02*
X135388910Y-99779440D01*
X135888910Y-98279440D01*
X136388910Y-99779440D02*
X136388910Y-98279440D01*
X137103196Y-99779440D02*
X137103196Y-98279440D01*
X137960339Y-99779440D01*
X137960339Y-98279440D01*
X111215339Y-135339440D02*
X111215339Y-133839440D01*
X111572482Y-133839440D01*
X111786768Y-133910869D01*
X111929625Y-134053726D01*
X112001053Y-134196583D01*
X112072482Y-134482297D01*
X112072482Y-134696583D01*
X112001053Y-134982297D01*
X111929625Y-135125154D01*
X111786768Y-135268011D01*
X111572482Y-135339440D01*
X111215339Y-135339440D01*
X113501053Y-135339440D02*
X112643910Y-135339440D01*
X113072482Y-135339440D02*
X113072482Y-133839440D01*
X112929625Y-134053726D01*
X112786768Y-134196583D01*
X112643910Y-134268011D01*
X114072482Y-133982297D02*
X114143910Y-133910869D01*
X114286768Y-133839440D01*
X114643910Y-133839440D01*
X114786768Y-133910869D01*
X114858196Y-133982297D01*
X114929625Y-134125154D01*
X114929625Y-134268011D01*
X114858196Y-134482297D01*
X114001053Y-135339440D01*
X114929625Y-135339440D01*
X111215339Y-132799440D02*
X111215339Y-131299440D01*
X111572482Y-131299440D01*
X111786768Y-131370869D01*
X111929625Y-131513726D01*
X112001053Y-131656583D01*
X112072482Y-131942297D01*
X112072482Y-132156583D01*
X112001053Y-132442297D01*
X111929625Y-132585154D01*
X111786768Y-132728011D01*
X111572482Y-132799440D01*
X111215339Y-132799440D01*
X113501053Y-132799440D02*
X112643910Y-132799440D01*
X113072482Y-132799440D02*
X113072482Y-131299440D01*
X112929625Y-131513726D01*
X112786768Y-131656583D01*
X112643910Y-131728011D01*
X114929625Y-132799440D02*
X114072482Y-132799440D01*
X114501053Y-132799440D02*
X114501053Y-131299440D01*
X114358196Y-131513726D01*
X114215339Y-131656583D01*
X114072482Y-131728011D01*
X111215339Y-130259440D02*
X111215339Y-128759440D01*
X111572482Y-128759440D01*
X111786768Y-128830869D01*
X111929625Y-128973726D01*
X112001053Y-129116583D01*
X112072482Y-129402297D01*
X112072482Y-129616583D01*
X112001053Y-129902297D01*
X111929625Y-130045154D01*
X111786768Y-130188011D01*
X111572482Y-130259440D01*
X111215339Y-130259440D01*
X113501053Y-130259440D02*
X112643910Y-130259440D01*
X113072482Y-130259440D02*
X113072482Y-128759440D01*
X112929625Y-128973726D01*
X112786768Y-129116583D01*
X112643910Y-129188011D01*
X114429625Y-128759440D02*
X114572482Y-128759440D01*
X114715339Y-128830869D01*
X114786768Y-128902297D01*
X114858196Y-129045154D01*
X114929625Y-129330869D01*
X114929625Y-129688011D01*
X114858196Y-129973726D01*
X114786768Y-130116583D01*
X114715339Y-130188011D01*
X114572482Y-130259440D01*
X114429625Y-130259440D01*
X114286768Y-130188011D01*
X114215339Y-130116583D01*
X114143910Y-129973726D01*
X114072482Y-129688011D01*
X114072482Y-129330869D01*
X114143910Y-129045154D01*
X114215339Y-128902297D01*
X114286768Y-128830869D01*
X114429625Y-128759440D01*
X111929625Y-127719440D02*
X111929625Y-126219440D01*
X112286768Y-126219440D01*
X112501053Y-126290869D01*
X112643910Y-126433726D01*
X112715339Y-126576583D01*
X112786768Y-126862297D01*
X112786768Y-127076583D01*
X112715339Y-127362297D01*
X112643910Y-127505154D01*
X112501053Y-127648011D01*
X112286768Y-127719440D01*
X111929625Y-127719440D01*
X113501053Y-127719440D02*
X113786768Y-127719440D01*
X113929625Y-127648011D01*
X114001053Y-127576583D01*
X114143910Y-127362297D01*
X114215339Y-127076583D01*
X114215339Y-126505154D01*
X114143910Y-126362297D01*
X114072482Y-126290869D01*
X113929625Y-126219440D01*
X113643910Y-126219440D01*
X113501053Y-126290869D01*
X113429625Y-126362297D01*
X113358196Y-126505154D01*
X113358196Y-126862297D01*
X113429625Y-127005154D01*
X113501053Y-127076583D01*
X113643910Y-127148011D01*
X113929625Y-127148011D01*
X114072482Y-127076583D01*
X114143910Y-127005154D01*
X114215339Y-126862297D01*
X111929625Y-125179440D02*
X111929625Y-123679440D01*
X112286768Y-123679440D01*
X112501053Y-123750869D01*
X112643910Y-123893726D01*
X112715339Y-124036583D01*
X112786768Y-124322297D01*
X112786768Y-124536583D01*
X112715339Y-124822297D01*
X112643910Y-124965154D01*
X112501053Y-125108011D01*
X112286768Y-125179440D01*
X111929625Y-125179440D01*
X113643910Y-124322297D02*
X113501053Y-124250869D01*
X113429625Y-124179440D01*
X113358196Y-124036583D01*
X113358196Y-123965154D01*
X113429625Y-123822297D01*
X113501053Y-123750869D01*
X113643910Y-123679440D01*
X113929625Y-123679440D01*
X114072482Y-123750869D01*
X114143910Y-123822297D01*
X114215339Y-123965154D01*
X114215339Y-124036583D01*
X114143910Y-124179440D01*
X114072482Y-124250869D01*
X113929625Y-124322297D01*
X113643910Y-124322297D01*
X113501053Y-124393726D01*
X113429625Y-124465154D01*
X113358196Y-124608011D01*
X113358196Y-124893726D01*
X113429625Y-125036583D01*
X113501053Y-125108011D01*
X113643910Y-125179440D01*
X113929625Y-125179440D01*
X114072482Y-125108011D01*
X114143910Y-125036583D01*
X114215339Y-124893726D01*
X114215339Y-124608011D01*
X114143910Y-124465154D01*
X114072482Y-124393726D01*
X113929625Y-124322297D01*
X111929625Y-122639440D02*
X111929625Y-121139440D01*
X112286768Y-121139440D01*
X112501053Y-121210869D01*
X112643910Y-121353726D01*
X112715339Y-121496583D01*
X112786768Y-121782297D01*
X112786768Y-121996583D01*
X112715339Y-122282297D01*
X112643910Y-122425154D01*
X112501053Y-122568011D01*
X112286768Y-122639440D01*
X111929625Y-122639440D01*
X113286768Y-121139440D02*
X114286768Y-121139440D01*
X113643910Y-122639440D01*
X111929625Y-120099440D02*
X111929625Y-118599440D01*
X112286768Y-118599440D01*
X112501053Y-118670869D01*
X112643910Y-118813726D01*
X112715339Y-118956583D01*
X112786768Y-119242297D01*
X112786768Y-119456583D01*
X112715339Y-119742297D01*
X112643910Y-119885154D01*
X112501053Y-120028011D01*
X112286768Y-120099440D01*
X111929625Y-120099440D01*
X114072482Y-118599440D02*
X113786768Y-118599440D01*
X113643910Y-118670869D01*
X113572482Y-118742297D01*
X113429625Y-118956583D01*
X113358196Y-119242297D01*
X113358196Y-119813726D01*
X113429625Y-119956583D01*
X113501053Y-120028011D01*
X113643910Y-120099440D01*
X113929625Y-120099440D01*
X114072482Y-120028011D01*
X114143910Y-119956583D01*
X114215339Y-119813726D01*
X114215339Y-119456583D01*
X114143910Y-119313726D01*
X114072482Y-119242297D01*
X113929625Y-119170869D01*
X113643910Y-119170869D01*
X113501053Y-119242297D01*
X113429625Y-119313726D01*
X113358196Y-119456583D01*
X111929625Y-117559440D02*
X111929625Y-116059440D01*
X112286768Y-116059440D01*
X112501053Y-116130869D01*
X112643910Y-116273726D01*
X112715339Y-116416583D01*
X112786768Y-116702297D01*
X112786768Y-116916583D01*
X112715339Y-117202297D01*
X112643910Y-117345154D01*
X112501053Y-117488011D01*
X112286768Y-117559440D01*
X111929625Y-117559440D01*
X114143910Y-116059440D02*
X113429625Y-116059440D01*
X113358196Y-116773726D01*
X113429625Y-116702297D01*
X113572482Y-116630869D01*
X113929625Y-116630869D01*
X114072482Y-116702297D01*
X114143910Y-116773726D01*
X114215339Y-116916583D01*
X114215339Y-117273726D01*
X114143910Y-117416583D01*
X114072482Y-117488011D01*
X113929625Y-117559440D01*
X113572482Y-117559440D01*
X113429625Y-117488011D01*
X113358196Y-117416583D01*
X111929625Y-115019440D02*
X111929625Y-113519440D01*
X112286768Y-113519440D01*
X112501053Y-113590869D01*
X112643910Y-113733726D01*
X112715339Y-113876583D01*
X112786768Y-114162297D01*
X112786768Y-114376583D01*
X112715339Y-114662297D01*
X112643910Y-114805154D01*
X112501053Y-114948011D01*
X112286768Y-115019440D01*
X111929625Y-115019440D01*
X114072482Y-114019440D02*
X114072482Y-115019440D01*
X113715339Y-113448011D02*
X113358196Y-114519440D01*
X114286768Y-114519440D01*
X111929625Y-112479440D02*
X111929625Y-110979440D01*
X112286768Y-110979440D01*
X112501053Y-111050869D01*
X112643910Y-111193726D01*
X112715339Y-111336583D01*
X112786768Y-111622297D01*
X112786768Y-111836583D01*
X112715339Y-112122297D01*
X112643910Y-112265154D01*
X112501053Y-112408011D01*
X112286768Y-112479440D01*
X111929625Y-112479440D01*
X113286768Y-110979440D02*
X114215339Y-110979440D01*
X113715339Y-111550869D01*
X113929625Y-111550869D01*
X114072482Y-111622297D01*
X114143910Y-111693726D01*
X114215339Y-111836583D01*
X114215339Y-112193726D01*
X114143910Y-112336583D01*
X114072482Y-112408011D01*
X113929625Y-112479440D01*
X113501053Y-112479440D01*
X113358196Y-112408011D01*
X113286768Y-112336583D01*
X111929625Y-109939440D02*
X111929625Y-108439440D01*
X112286768Y-108439440D01*
X112501053Y-108510869D01*
X112643910Y-108653726D01*
X112715339Y-108796583D01*
X112786768Y-109082297D01*
X112786768Y-109296583D01*
X112715339Y-109582297D01*
X112643910Y-109725154D01*
X112501053Y-109868011D01*
X112286768Y-109939440D01*
X111929625Y-109939440D01*
X113358196Y-108582297D02*
X113429625Y-108510869D01*
X113572482Y-108439440D01*
X113929625Y-108439440D01*
X114072482Y-108510869D01*
X114143910Y-108582297D01*
X114215339Y-108725154D01*
X114215339Y-108868011D01*
X114143910Y-109082297D01*
X113286768Y-109939440D01*
X114215339Y-109939440D01*
X111893910Y-105970869D02*
X111751053Y-105899440D01*
X111536768Y-105899440D01*
X111322482Y-105970869D01*
X111179625Y-106113726D01*
X111108196Y-106256583D01*
X111036768Y-106542297D01*
X111036768Y-106756583D01*
X111108196Y-107042297D01*
X111179625Y-107185154D01*
X111322482Y-107328011D01*
X111536768Y-107399440D01*
X111679625Y-107399440D01*
X111893910Y-107328011D01*
X111965339Y-107256583D01*
X111965339Y-106756583D01*
X111679625Y-106756583D01*
X112608196Y-107399440D02*
X112608196Y-105899440D01*
X113465339Y-107399440D01*
X113465339Y-105899440D01*
X114179625Y-107399440D02*
X114179625Y-105899440D01*
X114536768Y-105899440D01*
X114751053Y-105970869D01*
X114893910Y-106113726D01*
X114965339Y-106256583D01*
X115036768Y-106542297D01*
X115036768Y-106756583D01*
X114965339Y-107042297D01*
X114893910Y-107185154D01*
X114751053Y-107328011D01*
X114536768Y-107399440D01*
X114179625Y-107399440D01*
X112215339Y-104859440D02*
X111715339Y-104145154D01*
X111358196Y-104859440D02*
X111358196Y-103359440D01*
X111929625Y-103359440D01*
X112072482Y-103430869D01*
X112143910Y-103502297D01*
X112215339Y-103645154D01*
X112215339Y-103859440D01*
X112143910Y-104002297D01*
X112072482Y-104073726D01*
X111929625Y-104145154D01*
X111358196Y-104145154D01*
X112786768Y-104788011D02*
X113001053Y-104859440D01*
X113358196Y-104859440D01*
X113501053Y-104788011D01*
X113572482Y-104716583D01*
X113643910Y-104573726D01*
X113643910Y-104430869D01*
X113572482Y-104288011D01*
X113501053Y-104216583D01*
X113358196Y-104145154D01*
X113072482Y-104073726D01*
X112929625Y-104002297D01*
X112858196Y-103930869D01*
X112786768Y-103788011D01*
X112786768Y-103645154D01*
X112858196Y-103502297D01*
X112929625Y-103430869D01*
X113072482Y-103359440D01*
X113429625Y-103359440D01*
X113643910Y-103430869D01*
X114072482Y-103359440D02*
X114929625Y-103359440D01*
X114501053Y-104859440D02*
X114501053Y-103359440D01*
X112072482Y-102319440D02*
X111572482Y-101605154D01*
X111215339Y-102319440D02*
X111215339Y-100819440D01*
X111786768Y-100819440D01*
X111929625Y-100890869D01*
X112001053Y-100962297D01*
X112072482Y-101105154D01*
X112072482Y-101319440D01*
X112001053Y-101462297D01*
X111929625Y-101533726D01*
X111786768Y-101605154D01*
X111215339Y-101605154D01*
X112572482Y-100819440D02*
X113572482Y-102319440D01*
X113572482Y-100819440D02*
X112572482Y-102319440D01*
X114429625Y-100819440D02*
X114572482Y-100819440D01*
X114715339Y-100890869D01*
X114786768Y-100962297D01*
X114858196Y-101105154D01*
X114929625Y-101390869D01*
X114929625Y-101748011D01*
X114858196Y-102033726D01*
X114786768Y-102176583D01*
X114715339Y-102248011D01*
X114572482Y-102319440D01*
X114429625Y-102319440D01*
X114286768Y-102248011D01*
X114215339Y-102176583D01*
X114143910Y-102033726D01*
X114072482Y-101748011D01*
X114072482Y-101390869D01*
X114143910Y-101105154D01*
X114215339Y-100962297D01*
X114286768Y-100890869D01*
X114429625Y-100819440D01*
X111179625Y-98279440D02*
X112036768Y-98279440D01*
X111608196Y-99779440D02*
X111608196Y-98279440D01*
X112393910Y-98279440D02*
X113393910Y-99779440D01*
X113393910Y-98279440D02*
X112393910Y-99779440D01*
X114751053Y-99779440D02*
X113893910Y-99779440D01*
X114322482Y-99779440D02*
X114322482Y-98279440D01*
X114179625Y-98493726D01*
X114036768Y-98636583D01*
X113893910Y-98708011D01*
D13*
X119845282Y-99472480D02*
X119273853Y-99472480D01*
X119559568Y-99472480D02*
X119559568Y-98472480D01*
X119464329Y-98615338D01*
X119369091Y-98710576D01*
X119273853Y-98758195D01*
X128703568Y-100290100D02*
X128703568Y-95210100D01*
D10*
X116003568Y-138390100D02*
X133783568Y-138390100D01*
D13*
X121083568Y-100290100D02*
X128703568Y-100290100D01*
X128703568Y-95210100D02*
X121083568Y-95210100D01*
X121337568Y-138390100D02*
X121337568Y-140295100D01*
D10*
X116003568Y-95210100D02*
X116003568Y-138390100D01*
D13*
X121083568Y-95210100D02*
X121083568Y-100290100D01*
D10*
X133783568Y-95210100D02*
X116003568Y-95210100D01*
X133783568Y-138390100D02*
X133783568Y-95210100D01*
D13*
X128449568Y-130770100D02*
X128449568Y-138390100D01*
X121337568Y-140485000D02*
X128449568Y-140485000D01*
X121337568Y-138390100D02*
X121337568Y-130770100D01*
X121337568Y-130770100D02*
X128449568Y-130770100D01*
X128449568Y-140295100D02*
X128449568Y-138390100D01*
D15*
G04 #@! TO.C,G\002A\002A\002A*
G36*
X126681389Y-115773206D02*
X126690246Y-115899672D01*
X126692721Y-116008315D01*
X126711779Y-116216404D01*
X126754443Y-116331723D01*
X126777987Y-116344388D01*
X126917631Y-116388653D01*
X127133147Y-116507988D01*
X127395770Y-116682200D01*
X127676738Y-116891094D01*
X127947286Y-117114478D01*
X128164740Y-117317942D01*
X128548088Y-117782921D01*
X128886546Y-118340001D01*
X129153627Y-118940982D01*
X129280550Y-119348528D01*
X129349433Y-119751791D01*
X129381021Y-120232204D01*
X129375388Y-120732473D01*
X129332603Y-121195307D01*
X129277919Y-121476737D01*
X129042206Y-122163416D01*
X128712208Y-122801646D01*
X128607228Y-122962442D01*
X128476016Y-123158231D01*
X128424373Y-123271402D01*
X128452257Y-123336320D01*
X128559628Y-123387353D01*
X128606701Y-123404859D01*
X128654753Y-123436651D01*
X128606927Y-123466756D01*
X128449567Y-123498749D01*
X128169016Y-123536202D01*
X128053245Y-123549668D01*
X127283094Y-123612267D01*
X126632812Y-123611560D01*
X126104188Y-123547759D01*
X125699011Y-123421077D01*
X125425265Y-123237956D01*
X125283136Y-122997650D01*
X125240535Y-122660258D01*
X125297262Y-122229085D01*
X125318873Y-122156752D01*
X125497181Y-122156752D01*
X125567402Y-122539139D01*
X125767266Y-122903434D01*
X126084938Y-123228830D01*
X126124572Y-123259836D01*
X126331282Y-123403858D01*
X126445750Y-123453826D01*
X126462769Y-123411141D01*
X126377133Y-123277206D01*
X126320331Y-123207111D01*
X126120534Y-122868568D01*
X126021510Y-122472448D01*
X126029245Y-122120403D01*
X126083287Y-121913706D01*
X126175855Y-121672330D01*
X126289708Y-121429940D01*
X126407607Y-121220201D01*
X126512312Y-121076777D01*
X126586025Y-121033158D01*
X126665980Y-121107977D01*
X126758948Y-121259667D01*
X126769555Y-121281475D01*
X126853807Y-121431561D01*
X126921802Y-121506035D01*
X126928747Y-121507759D01*
X126965542Y-121447534D01*
X126980292Y-121296751D01*
X126974268Y-121104419D01*
X126948741Y-120919550D01*
X126910410Y-120800558D01*
X126888014Y-120673346D01*
X126900116Y-120483882D01*
X126937308Y-120280605D01*
X126990180Y-120111958D01*
X127049325Y-120026382D01*
X127061336Y-120023496D01*
X127133320Y-120074649D01*
X127242712Y-120199648D01*
X127256677Y-120218065D01*
X127401840Y-120412633D01*
X127404082Y-120219957D01*
X127376531Y-120035790D01*
X127304774Y-119804839D01*
X127271848Y-119724693D01*
X127194853Y-119518706D01*
X127125253Y-119276976D01*
X127070665Y-119036286D01*
X127038711Y-118833419D01*
X127037010Y-118705156D01*
X127055279Y-118679207D01*
X127139207Y-118718936D01*
X127277521Y-118815610D01*
X127290654Y-118825846D01*
X127414616Y-118910232D01*
X127475727Y-118926095D01*
X127477075Y-118920964D01*
X127431264Y-118811985D01*
X127312262Y-118653457D01*
X127147712Y-118472338D01*
X126965262Y-118295582D01*
X126792555Y-118150144D01*
X126657239Y-118062981D01*
X126590442Y-118056462D01*
X126597796Y-118134426D01*
X126658168Y-118285853D01*
X126680808Y-118331649D01*
X126762339Y-118589679D01*
X126803183Y-118935337D01*
X126803511Y-119320772D01*
X126763497Y-119698137D01*
X126683311Y-120019582D01*
X126674656Y-120042774D01*
X126568355Y-120254403D01*
X126398769Y-120523783D01*
X126196804Y-120803066D01*
X126126233Y-120891799D01*
X125856129Y-121236334D01*
X125672689Y-121510910D01*
X125561470Y-121744568D01*
X125508030Y-121966348D01*
X125497181Y-122156752D01*
X125318873Y-122156752D01*
X125453120Y-121707437D01*
X125528965Y-121509290D01*
X125666376Y-121135115D01*
X125768350Y-120792765D01*
X125830616Y-120504401D01*
X125848904Y-120292186D01*
X125818942Y-120178282D01*
X125788027Y-120165000D01*
X125717759Y-120222326D01*
X125708273Y-120273481D01*
X125665904Y-120445589D01*
X125554607Y-120683774D01*
X125398093Y-120947150D01*
X125220075Y-121194831D01*
X125086006Y-121346404D01*
X124889677Y-121533299D01*
X124639753Y-121759387D01*
X124403450Y-121964497D01*
X124063820Y-122299189D01*
X123849785Y-122633410D01*
X123748230Y-122994663D01*
X123741230Y-123353213D01*
X123839243Y-123790045D01*
X124059061Y-124165393D01*
X124389955Y-124467353D01*
X124821194Y-124684021D01*
X124987278Y-124735742D01*
X125152893Y-124786657D01*
X125220873Y-124821198D01*
X125201107Y-124829863D01*
X125037937Y-124848741D01*
X124988851Y-124859262D01*
X124869958Y-124865710D01*
X124663247Y-124856300D01*
X124493057Y-124841158D01*
X124183742Y-124780110D01*
X123948989Y-124655781D01*
X123754814Y-124442141D01*
X123582506Y-124143767D01*
X123459775Y-123796638D01*
X123390975Y-123383491D01*
X123381750Y-122966291D01*
X123437744Y-122607001D01*
X123441417Y-122594720D01*
X123501728Y-122434230D01*
X123611030Y-122177574D01*
X123755704Y-121855487D01*
X123922130Y-121498703D01*
X123989893Y-121356994D01*
X124191881Y-120924468D01*
X124326054Y-120605019D01*
X124395858Y-120389477D01*
X124404740Y-120268669D01*
X124401972Y-120260337D01*
X124360637Y-120197029D01*
X124315778Y-120240445D01*
X124255661Y-120390016D01*
X124176322Y-120558843D01*
X124037283Y-120804730D01*
X123860904Y-121089453D01*
X123735895Y-121278610D01*
X123437099Y-121740999D01*
X123222998Y-122130696D01*
X123080657Y-122477441D01*
X122997142Y-122810972D01*
X122967327Y-123045718D01*
X122955051Y-123324936D01*
X122984607Y-123540710D01*
X123069907Y-123768321D01*
X123120643Y-123875233D01*
X123281272Y-124141506D01*
X123483985Y-124397083D01*
X123603873Y-124515386D01*
X123896419Y-124765795D01*
X123487375Y-124625063D01*
X122792844Y-124313004D01*
X122161723Y-123883335D01*
X121608281Y-123351145D01*
X121146786Y-122731522D01*
X120791509Y-122039553D01*
X120641059Y-121615418D01*
X120561567Y-121229649D01*
X120518479Y-120758095D01*
X120511797Y-120251710D01*
X120541521Y-119761451D01*
X120591912Y-119438975D01*
X121117415Y-119438975D01*
X121135184Y-119550629D01*
X121178434Y-119722951D01*
X121692239Y-119456602D01*
X121934079Y-119336337D01*
X122154845Y-119235223D01*
X122335346Y-119160244D01*
X122456390Y-119118385D01*
X122498785Y-119116629D01*
X122443341Y-119161962D01*
X122351750Y-119216589D01*
X122163059Y-119333096D01*
X121938961Y-119483945D01*
X121863558Y-119537558D01*
X121681266Y-119656878D01*
X121535933Y-119729834D01*
X121492084Y-119740488D01*
X121379924Y-119780379D01*
X121383714Y-119900374D01*
X121503471Y-120100954D01*
X121503734Y-120101310D01*
X121674108Y-120286343D01*
X121890477Y-120461265D01*
X122108887Y-120595502D01*
X122285382Y-120658481D01*
X122306818Y-120659903D01*
X122354662Y-120633088D01*
X122298273Y-120540125D01*
X122264279Y-120501073D01*
X122142532Y-120349911D01*
X122069819Y-120235753D01*
X122061053Y-120192376D01*
X122120158Y-120253441D01*
X122228782Y-120359973D01*
X122288964Y-120342354D01*
X122311272Y-120193867D01*
X122312173Y-120131441D01*
X122333040Y-119982294D01*
X122407721Y-119863050D01*
X122502448Y-119799278D01*
X122637950Y-119799278D01*
X122690750Y-119819220D01*
X122856505Y-119835014D01*
X123106680Y-119844634D01*
X123304270Y-119846616D01*
X123718134Y-119860883D01*
X124019561Y-119911003D01*
X124235416Y-120007952D01*
X124392564Y-120162705D01*
X124492382Y-120332062D01*
X124535621Y-120568313D01*
X124482216Y-120882956D01*
X124337890Y-121256687D01*
X124108366Y-121670201D01*
X124084722Y-121707168D01*
X123956833Y-121917033D01*
X123877023Y-122072243D01*
X123859670Y-122144167D01*
X123864325Y-122146059D01*
X123937913Y-122096913D01*
X124078314Y-121966121D01*
X124259301Y-121778657D01*
X124321650Y-121710618D01*
X124679835Y-121263213D01*
X124905543Y-120859399D01*
X124998503Y-120500073D01*
X124958438Y-120186135D01*
X124847369Y-119989088D01*
X124595244Y-119769432D01*
X124250732Y-119640800D01*
X123803722Y-119598984D01*
X123529121Y-119611039D01*
X123237887Y-119642853D01*
X122968020Y-119687896D01*
X122757517Y-119739641D01*
X122644376Y-119791558D01*
X122637950Y-119799278D01*
X122502448Y-119799278D01*
X122554337Y-119764346D01*
X122791009Y-119676818D01*
X123135858Y-119591104D01*
X123499347Y-119518011D01*
X123967526Y-119419336D01*
X124255033Y-119335732D01*
X124695968Y-119335732D01*
X124727567Y-119569141D01*
X124858838Y-119822074D01*
X124977220Y-119965106D01*
X125130618Y-120107337D01*
X125222941Y-120158782D01*
X125239786Y-120117497D01*
X125173396Y-119991584D01*
X125102049Y-119805476D01*
X125120692Y-119641189D01*
X125218820Y-119541075D01*
X125288325Y-119528232D01*
X125414662Y-119573366D01*
X125593805Y-119689412D01*
X125721103Y-119793552D01*
X125887841Y-119932363D01*
X125963366Y-119967613D01*
X125958291Y-119917368D01*
X125907452Y-119772583D01*
X125838514Y-119548172D01*
X125787791Y-119369841D01*
X125728672Y-119138367D01*
X125711865Y-118999928D01*
X125737736Y-118912413D01*
X125792329Y-118847837D01*
X125857426Y-118790694D01*
X125928370Y-118768284D01*
X126038059Y-118784720D01*
X126219390Y-118844118D01*
X126451170Y-118930235D01*
X126516678Y-118940498D01*
X126489521Y-118879837D01*
X126371220Y-118742903D01*
X126152156Y-118482433D01*
X126048844Y-118292158D01*
X126063169Y-118158269D01*
X126197013Y-118066955D01*
X126452259Y-118004405D01*
X126472368Y-118001122D01*
X126654440Y-117956840D01*
X126759411Y-117901941D01*
X126769555Y-117881730D01*
X126704899Y-117850467D01*
X126532805Y-117836041D01*
X126286080Y-117836469D01*
X125997533Y-117849767D01*
X125699971Y-117873952D01*
X125426204Y-117907041D01*
X125209039Y-117947051D01*
X125097974Y-117982773D01*
X124988854Y-118044505D01*
X124927920Y-118122768D01*
X124901200Y-118256452D01*
X124894721Y-118484447D01*
X124894624Y-118548745D01*
X124881301Y-118850797D01*
X124836781Y-119047081D01*
X124771920Y-119153011D01*
X124695968Y-119335732D01*
X124255033Y-119335732D01*
X124311514Y-119319308D01*
X124548309Y-119207139D01*
X124694910Y-119072039D01*
X124768313Y-118903220D01*
X124785727Y-118701546D01*
X124782957Y-118502326D01*
X124684939Y-118727692D01*
X124585052Y-118891942D01*
X124431765Y-119020071D01*
X124202024Y-119122965D01*
X123872779Y-119211510D01*
X123513680Y-119280821D01*
X123207345Y-119338586D01*
X122941222Y-119397121D01*
X122755377Y-119447248D01*
X122706097Y-119465798D01*
X122606749Y-119510199D01*
X122627544Y-119482194D01*
X122687081Y-119433365D01*
X122820473Y-119368509D01*
X123043859Y-119299960D01*
X123288473Y-119246544D01*
X123699987Y-119166095D01*
X124000384Y-119087023D01*
X124219544Y-118998747D01*
X124387348Y-118890683D01*
X124452424Y-118834315D01*
X124609528Y-118637892D01*
X124628347Y-118467755D01*
X124508696Y-118319336D01*
X124429438Y-118269091D01*
X124196564Y-118134030D01*
X124063819Y-118028721D01*
X124005375Y-117918428D01*
X123995407Y-117768411D01*
X123999159Y-117690326D01*
X123991646Y-117479994D01*
X123951360Y-117321065D01*
X123934371Y-117293396D01*
X123883358Y-117148224D01*
X123890582Y-117046697D01*
X123896971Y-116940233D01*
X123828181Y-116937971D01*
X123751258Y-116924247D01*
X123726224Y-116791175D01*
X123726162Y-116784368D01*
X123721597Y-116677383D01*
X123693964Y-116652021D01*
X123619980Y-116716896D01*
X123481186Y-116875028D01*
X123340553Y-117031795D01*
X123266825Y-117088740D01*
X123238604Y-117056610D01*
X123234607Y-116998844D01*
X123209616Y-116864875D01*
X123144895Y-116862793D01*
X123045768Y-116990346D01*
X122983490Y-117104973D01*
X122899280Y-117261779D01*
X122854066Y-117302137D01*
X122828862Y-117238678D01*
X122823961Y-117211101D01*
X122775591Y-117089590D01*
X122710053Y-117052572D01*
X122668010Y-117116151D01*
X122665933Y-117148512D01*
X122625827Y-117261315D01*
X122523481Y-117419768D01*
X122385853Y-117593094D01*
X122239902Y-117750518D01*
X122112584Y-117861265D01*
X122030859Y-117894558D01*
X122019932Y-117885994D01*
X121980910Y-117832792D01*
X121944559Y-117840524D01*
X121890705Y-117931661D01*
X121799174Y-118128675D01*
X121796219Y-118135172D01*
X121695643Y-118313454D01*
X121593051Y-118382195D01*
X121517177Y-118382805D01*
X121378234Y-118409256D01*
X121268977Y-118551008D01*
X121260272Y-118568567D01*
X121171645Y-118833221D01*
X121120996Y-119147152D01*
X121117415Y-119438975D01*
X120591912Y-119438975D01*
X120607649Y-119338272D01*
X120641059Y-119209847D01*
X120922434Y-118495551D01*
X121314044Y-117839739D01*
X121800143Y-117261313D01*
X122364987Y-116779173D01*
X122958142Y-116428510D01*
X123277033Y-116287345D01*
X123602374Y-116160748D01*
X123876601Y-116070674D01*
X123939471Y-116054251D01*
X124221504Y-116010146D01*
X124588983Y-115984015D01*
X124994487Y-115975986D01*
X125390594Y-115986190D01*
X125729879Y-116014757D01*
X125920529Y-116048822D01*
X126168162Y-116112370D01*
X125779025Y-116293087D01*
X125510304Y-116399003D01*
X125173011Y-116506028D01*
X124838108Y-116591746D01*
X124823872Y-116594820D01*
X124456733Y-116685778D01*
X124213732Y-116780901D01*
X124077740Y-116892526D01*
X124031626Y-117032987D01*
X124043938Y-117156444D01*
X124085912Y-117378651D01*
X124126142Y-117625269D01*
X124128026Y-117638087D01*
X124179273Y-117830510D01*
X124291277Y-117957983D01*
X124435244Y-118042697D01*
X124605597Y-118125088D01*
X124698084Y-118142088D01*
X124760595Y-118093182D01*
X124799025Y-118038779D01*
X124938392Y-117931410D01*
X125200538Y-117847989D01*
X125337847Y-117820998D01*
X125778676Y-117700033D01*
X126106775Y-117506183D01*
X126335160Y-117231464D01*
X126353868Y-117197636D01*
X126426441Y-117028542D01*
X126441906Y-116922505D01*
X126403956Y-116903471D01*
X126321569Y-116988083D01*
X126203221Y-117097314D01*
X126027534Y-117210007D01*
X126013575Y-117217351D01*
X125835189Y-117286969D01*
X125591169Y-117354137D01*
X125320813Y-117411677D01*
X125063417Y-117452411D01*
X124858278Y-117469161D01*
X124744694Y-117454748D01*
X124738717Y-117450226D01*
X124744680Y-117374386D01*
X124853445Y-117272064D01*
X125034505Y-117164234D01*
X125257351Y-117071874D01*
X125315050Y-117053939D01*
X125730401Y-116878337D01*
X126104134Y-116616336D01*
X126405053Y-116296011D01*
X126601961Y-115945439D01*
X126626167Y-115873995D01*
X126662176Y-115768978D01*
X126681389Y-115773206D01*
X126681389Y-115773206D01*
G37*
X126681389Y-115773206D02*
X126690246Y-115899672D01*
X126692721Y-116008315D01*
X126711779Y-116216404D01*
X126754443Y-116331723D01*
X126777987Y-116344388D01*
X126917631Y-116388653D01*
X127133147Y-116507988D01*
X127395770Y-116682200D01*
X127676738Y-116891094D01*
X127947286Y-117114478D01*
X128164740Y-117317942D01*
X128548088Y-117782921D01*
X128886546Y-118340001D01*
X129153627Y-118940982D01*
X129280550Y-119348528D01*
X129349433Y-119751791D01*
X129381021Y-120232204D01*
X129375388Y-120732473D01*
X129332603Y-121195307D01*
X129277919Y-121476737D01*
X129042206Y-122163416D01*
X128712208Y-122801646D01*
X128607228Y-122962442D01*
X128476016Y-123158231D01*
X128424373Y-123271402D01*
X128452257Y-123336320D01*
X128559628Y-123387353D01*
X128606701Y-123404859D01*
X128654753Y-123436651D01*
X128606927Y-123466756D01*
X128449567Y-123498749D01*
X128169016Y-123536202D01*
X128053245Y-123549668D01*
X127283094Y-123612267D01*
X126632812Y-123611560D01*
X126104188Y-123547759D01*
X125699011Y-123421077D01*
X125425265Y-123237956D01*
X125283136Y-122997650D01*
X125240535Y-122660258D01*
X125297262Y-122229085D01*
X125318873Y-122156752D01*
X125497181Y-122156752D01*
X125567402Y-122539139D01*
X125767266Y-122903434D01*
X126084938Y-123228830D01*
X126124572Y-123259836D01*
X126331282Y-123403858D01*
X126445750Y-123453826D01*
X126462769Y-123411141D01*
X126377133Y-123277206D01*
X126320331Y-123207111D01*
X126120534Y-122868568D01*
X126021510Y-122472448D01*
X126029245Y-122120403D01*
X126083287Y-121913706D01*
X126175855Y-121672330D01*
X126289708Y-121429940D01*
X126407607Y-121220201D01*
X126512312Y-121076777D01*
X126586025Y-121033158D01*
X126665980Y-121107977D01*
X126758948Y-121259667D01*
X126769555Y-121281475D01*
X126853807Y-121431561D01*
X126921802Y-121506035D01*
X126928747Y-121507759D01*
X126965542Y-121447534D01*
X126980292Y-121296751D01*
X126974268Y-121104419D01*
X126948741Y-120919550D01*
X126910410Y-120800558D01*
X126888014Y-120673346D01*
X126900116Y-120483882D01*
X126937308Y-120280605D01*
X126990180Y-120111958D01*
X127049325Y-120026382D01*
X127061336Y-120023496D01*
X127133320Y-120074649D01*
X127242712Y-120199648D01*
X127256677Y-120218065D01*
X127401840Y-120412633D01*
X127404082Y-120219957D01*
X127376531Y-120035790D01*
X127304774Y-119804839D01*
X127271848Y-119724693D01*
X127194853Y-119518706D01*
X127125253Y-119276976D01*
X127070665Y-119036286D01*
X127038711Y-118833419D01*
X127037010Y-118705156D01*
X127055279Y-118679207D01*
X127139207Y-118718936D01*
X127277521Y-118815610D01*
X127290654Y-118825846D01*
X127414616Y-118910232D01*
X127475727Y-118926095D01*
X127477075Y-118920964D01*
X127431264Y-118811985D01*
X127312262Y-118653457D01*
X127147712Y-118472338D01*
X126965262Y-118295582D01*
X126792555Y-118150144D01*
X126657239Y-118062981D01*
X126590442Y-118056462D01*
X126597796Y-118134426D01*
X126658168Y-118285853D01*
X126680808Y-118331649D01*
X126762339Y-118589679D01*
X126803183Y-118935337D01*
X126803511Y-119320772D01*
X126763497Y-119698137D01*
X126683311Y-120019582D01*
X126674656Y-120042774D01*
X126568355Y-120254403D01*
X126398769Y-120523783D01*
X126196804Y-120803066D01*
X126126233Y-120891799D01*
X125856129Y-121236334D01*
X125672689Y-121510910D01*
X125561470Y-121744568D01*
X125508030Y-121966348D01*
X125497181Y-122156752D01*
X125318873Y-122156752D01*
X125453120Y-121707437D01*
X125528965Y-121509290D01*
X125666376Y-121135115D01*
X125768350Y-120792765D01*
X125830616Y-120504401D01*
X125848904Y-120292186D01*
X125818942Y-120178282D01*
X125788027Y-120165000D01*
X125717759Y-120222326D01*
X125708273Y-120273481D01*
X125665904Y-120445589D01*
X125554607Y-120683774D01*
X125398093Y-120947150D01*
X125220075Y-121194831D01*
X125086006Y-121346404D01*
X124889677Y-121533299D01*
X124639753Y-121759387D01*
X124403450Y-121964497D01*
X124063820Y-122299189D01*
X123849785Y-122633410D01*
X123748230Y-122994663D01*
X123741230Y-123353213D01*
X123839243Y-123790045D01*
X124059061Y-124165393D01*
X124389955Y-124467353D01*
X124821194Y-124684021D01*
X124987278Y-124735742D01*
X125152893Y-124786657D01*
X125220873Y-124821198D01*
X125201107Y-124829863D01*
X125037937Y-124848741D01*
X124988851Y-124859262D01*
X124869958Y-124865710D01*
X124663247Y-124856300D01*
X124493057Y-124841158D01*
X124183742Y-124780110D01*
X123948989Y-124655781D01*
X123754814Y-124442141D01*
X123582506Y-124143767D01*
X123459775Y-123796638D01*
X123390975Y-123383491D01*
X123381750Y-122966291D01*
X123437744Y-122607001D01*
X123441417Y-122594720D01*
X123501728Y-122434230D01*
X123611030Y-122177574D01*
X123755704Y-121855487D01*
X123922130Y-121498703D01*
X123989893Y-121356994D01*
X124191881Y-120924468D01*
X124326054Y-120605019D01*
X124395858Y-120389477D01*
X124404740Y-120268669D01*
X124401972Y-120260337D01*
X124360637Y-120197029D01*
X124315778Y-120240445D01*
X124255661Y-120390016D01*
X124176322Y-120558843D01*
X124037283Y-120804730D01*
X123860904Y-121089453D01*
X123735895Y-121278610D01*
X123437099Y-121740999D01*
X123222998Y-122130696D01*
X123080657Y-122477441D01*
X122997142Y-122810972D01*
X122967327Y-123045718D01*
X122955051Y-123324936D01*
X122984607Y-123540710D01*
X123069907Y-123768321D01*
X123120643Y-123875233D01*
X123281272Y-124141506D01*
X123483985Y-124397083D01*
X123603873Y-124515386D01*
X123896419Y-124765795D01*
X123487375Y-124625063D01*
X122792844Y-124313004D01*
X122161723Y-123883335D01*
X121608281Y-123351145D01*
X121146786Y-122731522D01*
X120791509Y-122039553D01*
X120641059Y-121615418D01*
X120561567Y-121229649D01*
X120518479Y-120758095D01*
X120511797Y-120251710D01*
X120541521Y-119761451D01*
X120591912Y-119438975D01*
X121117415Y-119438975D01*
X121135184Y-119550629D01*
X121178434Y-119722951D01*
X121692239Y-119456602D01*
X121934079Y-119336337D01*
X122154845Y-119235223D01*
X122335346Y-119160244D01*
X122456390Y-119118385D01*
X122498785Y-119116629D01*
X122443341Y-119161962D01*
X122351750Y-119216589D01*
X122163059Y-119333096D01*
X121938961Y-119483945D01*
X121863558Y-119537558D01*
X121681266Y-119656878D01*
X121535933Y-119729834D01*
X121492084Y-119740488D01*
X121379924Y-119780379D01*
X121383714Y-119900374D01*
X121503471Y-120100954D01*
X121503734Y-120101310D01*
X121674108Y-120286343D01*
X121890477Y-120461265D01*
X122108887Y-120595502D01*
X122285382Y-120658481D01*
X122306818Y-120659903D01*
X122354662Y-120633088D01*
X122298273Y-120540125D01*
X122264279Y-120501073D01*
X122142532Y-120349911D01*
X122069819Y-120235753D01*
X122061053Y-120192376D01*
X122120158Y-120253441D01*
X122228782Y-120359973D01*
X122288964Y-120342354D01*
X122311272Y-120193867D01*
X122312173Y-120131441D01*
X122333040Y-119982294D01*
X122407721Y-119863050D01*
X122502448Y-119799278D01*
X122637950Y-119799278D01*
X122690750Y-119819220D01*
X122856505Y-119835014D01*
X123106680Y-119844634D01*
X123304270Y-119846616D01*
X123718134Y-119860883D01*
X124019561Y-119911003D01*
X124235416Y-120007952D01*
X124392564Y-120162705D01*
X124492382Y-120332062D01*
X124535621Y-120568313D01*
X124482216Y-120882956D01*
X124337890Y-121256687D01*
X124108366Y-121670201D01*
X124084722Y-121707168D01*
X123956833Y-121917033D01*
X123877023Y-122072243D01*
X123859670Y-122144167D01*
X123864325Y-122146059D01*
X123937913Y-122096913D01*
X124078314Y-121966121D01*
X124259301Y-121778657D01*
X124321650Y-121710618D01*
X124679835Y-121263213D01*
X124905543Y-120859399D01*
X124998503Y-120500073D01*
X124958438Y-120186135D01*
X124847369Y-119989088D01*
X124595244Y-119769432D01*
X124250732Y-119640800D01*
X123803722Y-119598984D01*
X123529121Y-119611039D01*
X123237887Y-119642853D01*
X122968020Y-119687896D01*
X122757517Y-119739641D01*
X122644376Y-119791558D01*
X122637950Y-119799278D01*
X122502448Y-119799278D01*
X122554337Y-119764346D01*
X122791009Y-119676818D01*
X123135858Y-119591104D01*
X123499347Y-119518011D01*
X123967526Y-119419336D01*
X124255033Y-119335732D01*
X124695968Y-119335732D01*
X124727567Y-119569141D01*
X124858838Y-119822074D01*
X124977220Y-119965106D01*
X125130618Y-120107337D01*
X125222941Y-120158782D01*
X125239786Y-120117497D01*
X125173396Y-119991584D01*
X125102049Y-119805476D01*
X125120692Y-119641189D01*
X125218820Y-119541075D01*
X125288325Y-119528232D01*
X125414662Y-119573366D01*
X125593805Y-119689412D01*
X125721103Y-119793552D01*
X125887841Y-119932363D01*
X125963366Y-119967613D01*
X125958291Y-119917368D01*
X125907452Y-119772583D01*
X125838514Y-119548172D01*
X125787791Y-119369841D01*
X125728672Y-119138367D01*
X125711865Y-118999928D01*
X125737736Y-118912413D01*
X125792329Y-118847837D01*
X125857426Y-118790694D01*
X125928370Y-118768284D01*
X126038059Y-118784720D01*
X126219390Y-118844118D01*
X126451170Y-118930235D01*
X126516678Y-118940498D01*
X126489521Y-118879837D01*
X126371220Y-118742903D01*
X126152156Y-118482433D01*
X126048844Y-118292158D01*
X126063169Y-118158269D01*
X126197013Y-118066955D01*
X126452259Y-118004405D01*
X126472368Y-118001122D01*
X126654440Y-117956840D01*
X126759411Y-117901941D01*
X126769555Y-117881730D01*
X126704899Y-117850467D01*
X126532805Y-117836041D01*
X126286080Y-117836469D01*
X125997533Y-117849767D01*
X125699971Y-117873952D01*
X125426204Y-117907041D01*
X125209039Y-117947051D01*
X125097974Y-117982773D01*
X124988854Y-118044505D01*
X124927920Y-118122768D01*
X124901200Y-118256452D01*
X124894721Y-118484447D01*
X124894624Y-118548745D01*
X124881301Y-118850797D01*
X124836781Y-119047081D01*
X124771920Y-119153011D01*
X124695968Y-119335732D01*
X124255033Y-119335732D01*
X124311514Y-119319308D01*
X124548309Y-119207139D01*
X124694910Y-119072039D01*
X124768313Y-118903220D01*
X124785727Y-118701546D01*
X124782957Y-118502326D01*
X124684939Y-118727692D01*
X124585052Y-118891942D01*
X124431765Y-119020071D01*
X124202024Y-119122965D01*
X123872779Y-119211510D01*
X123513680Y-119280821D01*
X123207345Y-119338586D01*
X122941222Y-119397121D01*
X122755377Y-119447248D01*
X122706097Y-119465798D01*
X122606749Y-119510199D01*
X122627544Y-119482194D01*
X122687081Y-119433365D01*
X122820473Y-119368509D01*
X123043859Y-119299960D01*
X123288473Y-119246544D01*
X123699987Y-119166095D01*
X124000384Y-119087023D01*
X124219544Y-118998747D01*
X124387348Y-118890683D01*
X124452424Y-118834315D01*
X124609528Y-118637892D01*
X124628347Y-118467755D01*
X124508696Y-118319336D01*
X124429438Y-118269091D01*
X124196564Y-118134030D01*
X124063819Y-118028721D01*
X124005375Y-117918428D01*
X123995407Y-117768411D01*
X123999159Y-117690326D01*
X123991646Y-117479994D01*
X123951360Y-117321065D01*
X123934371Y-117293396D01*
X123883358Y-117148224D01*
X123890582Y-117046697D01*
X123896971Y-116940233D01*
X123828181Y-116937971D01*
X123751258Y-116924247D01*
X123726224Y-116791175D01*
X123726162Y-116784368D01*
X123721597Y-116677383D01*
X123693964Y-116652021D01*
X123619980Y-116716896D01*
X123481186Y-116875028D01*
X123340553Y-117031795D01*
X123266825Y-117088740D01*
X123238604Y-117056610D01*
X123234607Y-116998844D01*
X123209616Y-116864875D01*
X123144895Y-116862793D01*
X123045768Y-116990346D01*
X122983490Y-117104973D01*
X122899280Y-117261779D01*
X122854066Y-117302137D01*
X122828862Y-117238678D01*
X122823961Y-117211101D01*
X122775591Y-117089590D01*
X122710053Y-117052572D01*
X122668010Y-117116151D01*
X122665933Y-117148512D01*
X122625827Y-117261315D01*
X122523481Y-117419768D01*
X122385853Y-117593094D01*
X122239902Y-117750518D01*
X122112584Y-117861265D01*
X122030859Y-117894558D01*
X122019932Y-117885994D01*
X121980910Y-117832792D01*
X121944559Y-117840524D01*
X121890705Y-117931661D01*
X121799174Y-118128675D01*
X121796219Y-118135172D01*
X121695643Y-118313454D01*
X121593051Y-118382195D01*
X121517177Y-118382805D01*
X121378234Y-118409256D01*
X121268977Y-118551008D01*
X121260272Y-118568567D01*
X121171645Y-118833221D01*
X121120996Y-119147152D01*
X121117415Y-119438975D01*
X120591912Y-119438975D01*
X120607649Y-119338272D01*
X120641059Y-119209847D01*
X120922434Y-118495551D01*
X121314044Y-117839739D01*
X121800143Y-117261313D01*
X122364987Y-116779173D01*
X122958142Y-116428510D01*
X123277033Y-116287345D01*
X123602374Y-116160748D01*
X123876601Y-116070674D01*
X123939471Y-116054251D01*
X124221504Y-116010146D01*
X124588983Y-115984015D01*
X124994487Y-115975986D01*
X125390594Y-115986190D01*
X125729879Y-116014757D01*
X125920529Y-116048822D01*
X126168162Y-116112370D01*
X125779025Y-116293087D01*
X125510304Y-116399003D01*
X125173011Y-116506028D01*
X124838108Y-116591746D01*
X124823872Y-116594820D01*
X124456733Y-116685778D01*
X124213732Y-116780901D01*
X124077740Y-116892526D01*
X124031626Y-117032987D01*
X124043938Y-117156444D01*
X124085912Y-117378651D01*
X124126142Y-117625269D01*
X124128026Y-117638087D01*
X124179273Y-117830510D01*
X124291277Y-117957983D01*
X124435244Y-118042697D01*
X124605597Y-118125088D01*
X124698084Y-118142088D01*
X124760595Y-118093182D01*
X124799025Y-118038779D01*
X124938392Y-117931410D01*
X125200538Y-117847989D01*
X125337847Y-117820998D01*
X125778676Y-117700033D01*
X126106775Y-117506183D01*
X126335160Y-117231464D01*
X126353868Y-117197636D01*
X126426441Y-117028542D01*
X126441906Y-116922505D01*
X126403956Y-116903471D01*
X126321569Y-116988083D01*
X126203221Y-117097314D01*
X126027534Y-117210007D01*
X126013575Y-117217351D01*
X125835189Y-117286969D01*
X125591169Y-117354137D01*
X125320813Y-117411677D01*
X125063417Y-117452411D01*
X124858278Y-117469161D01*
X124744694Y-117454748D01*
X124738717Y-117450226D01*
X124744680Y-117374386D01*
X124853445Y-117272064D01*
X125034505Y-117164234D01*
X125257351Y-117071874D01*
X125315050Y-117053939D01*
X125730401Y-116878337D01*
X126104134Y-116616336D01*
X126405053Y-116296011D01*
X126601961Y-115945439D01*
X126626167Y-115873995D01*
X126662176Y-115768978D01*
X126681389Y-115773206D01*
G36*
X123348426Y-117849313D02*
X123284341Y-117917717D01*
X123263161Y-117934060D01*
X123113169Y-118016216D01*
X123019694Y-118037937D01*
X122965639Y-118018806D01*
X123029724Y-117950402D01*
X123050905Y-117934060D01*
X123200897Y-117851903D01*
X123294372Y-117830182D01*
X123348426Y-117849313D01*
X123348426Y-117849313D01*
G37*
X123348426Y-117849313D02*
X123284341Y-117917717D01*
X123263161Y-117934060D01*
X123113169Y-118016216D01*
X123019694Y-118037937D01*
X122965639Y-118018806D01*
X123029724Y-117950402D01*
X123050905Y-117934060D01*
X123200897Y-117851903D01*
X123294372Y-117830182D01*
X123348426Y-117849313D01*
D11*
G04 #@! TO.C,*
X94450000Y-138580000D02*
X95720000Y-138580000D01*
X95085000Y-137945000D02*
X95085000Y-139215000D01*
X94450000Y-134770000D02*
X95720000Y-134770000D01*
D16*
G04 #@! TO.C,USB B*
X159665000Y-124565000D02*
X160165000Y-125065000D01*
X160665000Y-124565000D02*
X159665000Y-124565000D01*
X160165000Y-125065000D02*
X160665000Y-124565000D01*
X152755000Y-142005000D02*
X152755000Y-133645000D01*
X165075000Y-142005000D02*
X152755000Y-142005000D01*
X165075000Y-133645000D02*
X165075000Y-142005000D01*
X152755000Y-125285000D02*
X152755000Y-129545000D01*
X165075000Y-125285000D02*
X152755000Y-125285000D01*
X165075000Y-129545000D02*
X165075000Y-125285000D01*
D11*
G04 #@! TO.C,*
X80480000Y-132865000D02*
X79210000Y-132865000D01*
X79845000Y-132230000D02*
X79845000Y-133500000D01*
X81115000Y-132865000D02*
G75*
G03X81115000Y-132865000I-1270000J0D01*
G01*
X79845000Y-131595000D02*
X79845000Y-129690000D01*
X81115000Y-125245000D02*
G75*
G03X81115000Y-125245000I-1270000J0D01*
G01*
X78952037Y-129918994D02*
G75*
G02X80657800Y-129994800I892963J863994D01*
G01*
X79845000Y-124610000D02*
X79845000Y-125880000D01*
X79845000Y-126515000D02*
X79845000Y-127785000D01*
D17*
X79845000Y-129055000D02*
X79845000Y-129055000D01*
D16*
G04 #@! TO.C,DC *
X83500000Y-126250000D02*
X86100000Y-126250000D01*
X83500000Y-140950000D02*
X83500000Y-126250000D01*
X92700000Y-126250000D02*
X92700000Y-128150000D01*
X90000000Y-126250000D02*
X92700000Y-126250000D01*
X92700000Y-140950000D02*
X83500000Y-140950000D01*
X92700000Y-132150000D02*
X92700000Y-140950000D01*
X83300000Y-127100000D02*
X83300000Y-126050000D01*
X84350000Y-126050000D02*
X83300000Y-126050000D01*
G04 #@! TO.C,REF\002A\002A*
X156885000Y-138580000D02*
X156885000Y-139030000D01*
X156885000Y-138580000D02*
X157335000Y-138580000D01*
X162485000Y-139130000D02*
X162035000Y-139130000D01*
X162485000Y-140980000D02*
X162485000Y-139130000D01*
X154685000Y-143530000D02*
X154685000Y-143280000D01*
X162485000Y-143530000D02*
X162485000Y-143280000D01*
X154685000Y-140980000D02*
X154685000Y-139130000D01*
X154685000Y-139130000D02*
X155135000Y-139130000D01*
G04 #@! TO.C,*
D13*
G04 #@! TO.C,USB B*
X165682380Y-138552857D02*
X166491904Y-138552857D01*
X166587142Y-138505238D01*
X166634761Y-138457619D01*
X166682380Y-138362380D01*
X166682380Y-138171904D01*
X166634761Y-138076666D01*
X166587142Y-138029047D01*
X166491904Y-137981428D01*
X165682380Y-137981428D01*
X166634761Y-137552857D02*
X166682380Y-137410000D01*
X166682380Y-137171904D01*
X166634761Y-137076666D01*
X166587142Y-137029047D01*
X166491904Y-136981428D01*
X166396666Y-136981428D01*
X166301428Y-137029047D01*
X166253809Y-137076666D01*
X166206190Y-137171904D01*
X166158571Y-137362380D01*
X166110952Y-137457619D01*
X166063333Y-137505238D01*
X165968095Y-137552857D01*
X165872857Y-137552857D01*
X165777619Y-137505238D01*
X165730000Y-137457619D01*
X165682380Y-137362380D01*
X165682380Y-137124285D01*
X165730000Y-136981428D01*
X166158571Y-136219523D02*
X166206190Y-136076666D01*
X166253809Y-136029047D01*
X166349047Y-135981428D01*
X166491904Y-135981428D01*
X166587142Y-136029047D01*
X166634761Y-136076666D01*
X166682380Y-136171904D01*
X166682380Y-136552857D01*
X165682380Y-136552857D01*
X165682380Y-136219523D01*
X165730000Y-136124285D01*
X165777619Y-136076666D01*
X165872857Y-136029047D01*
X165968095Y-136029047D01*
X166063333Y-136076666D01*
X166110952Y-136124285D01*
X166158571Y-136219523D01*
X166158571Y-136552857D01*
X166158571Y-134457619D02*
X166206190Y-134314761D01*
X166253809Y-134267142D01*
X166349047Y-134219523D01*
X166491904Y-134219523D01*
X166587142Y-134267142D01*
X166634761Y-134314761D01*
X166682380Y-134410000D01*
X166682380Y-134790952D01*
X165682380Y-134790952D01*
X165682380Y-134457619D01*
X165730000Y-134362380D01*
X165777619Y-134314761D01*
X165872857Y-134267142D01*
X165968095Y-134267142D01*
X166063333Y-134314761D01*
X166110952Y-134362380D01*
X166158571Y-134457619D01*
X166158571Y-134790952D01*
G04 #@! TO.C,*
G04 #@! TO.C,P2*
X130425948Y-116141195D02*
X129425948Y-116141195D01*
X129425948Y-115760242D01*
X129473568Y-115665004D01*
X129521187Y-115617385D01*
X129616425Y-115569766D01*
X129759282Y-115569766D01*
X129854520Y-115617385D01*
X129902139Y-115665004D01*
X129949758Y-115760242D01*
X129949758Y-116141195D01*
X129521187Y-115188814D02*
X129473568Y-115141195D01*
X129425948Y-115045957D01*
X129425948Y-114807861D01*
X129473568Y-114712623D01*
X129521187Y-114665004D01*
X129616425Y-114617385D01*
X129711663Y-114617385D01*
X129854520Y-114665004D01*
X130425948Y-115236433D01*
X130425948Y-114617385D01*
G04 #@! TO.C,P1*
X120265948Y-116141195D02*
X119265948Y-116141195D01*
X119265948Y-115760242D01*
X119313568Y-115665004D01*
X119361187Y-115617385D01*
X119456425Y-115569766D01*
X119599282Y-115569766D01*
X119694520Y-115617385D01*
X119742139Y-115665004D01*
X119789758Y-115760242D01*
X119789758Y-116141195D01*
X120265948Y-114617385D02*
X120265948Y-115188814D01*
X120265948Y-114903100D02*
X119265948Y-114903100D01*
X119408806Y-114998338D01*
X119504044Y-115093576D01*
X119551663Y-115188814D01*
G04 #@! TO.C,DC *
X94302380Y-136742857D02*
X93302380Y-136742857D01*
X93302380Y-136504761D01*
X93350000Y-136361904D01*
X93445238Y-136266666D01*
X93540476Y-136219047D01*
X93730952Y-136171428D01*
X93873809Y-136171428D01*
X94064285Y-136219047D01*
X94159523Y-136266666D01*
X94254761Y-136361904D01*
X94302380Y-136504761D01*
X94302380Y-136742857D01*
X94207142Y-135171428D02*
X94254761Y-135219047D01*
X94302380Y-135361904D01*
X94302380Y-135457142D01*
X94254761Y-135600000D01*
X94159523Y-135695238D01*
X94064285Y-135742857D01*
X93873809Y-135790476D01*
X93730952Y-135790476D01*
X93540476Y-135742857D01*
X93445238Y-135695238D01*
X93350000Y-135600000D01*
X93302380Y-135457142D01*
X93302380Y-135361904D01*
X93350000Y-135219047D01*
X93397619Y-135171428D01*
G04 #@! TD*
M02*
