G04 #@! TF.GenerationSoftware,KiCad,Pcbnew,(5.0.0)*
G04 #@! TF.CreationDate,2019-08-07T20:49:05+02:00*
G04 #@! TF.ProjectId,Arduino_Nano_Breadboard,41726475696E6F5F4E616E6F5F427265,rev?*
G04 #@! TF.SameCoordinates,Original*
G04 #@! TF.FileFunction,Copper,L1,Top,Signal*
G04 #@! TF.FilePolarity,Positive*
%FSLAX46Y46*%
G04 Gerber Fmt 4.6, Leading zero omitted, Abs format (unit mm)*
G04 Created by KiCad (PCBNEW (5.0.0)) date 08/07/19 20:49:05*
%MOMM*%
%LPD*%
G01*
G04 APERTURE LIST*
G04 #@! TA.AperFunction,ComponentPad*
%ADD10C,1.778000*%
G04 #@! TD*
G04 #@! TA.AperFunction,ComponentPad*
%ADD11C,3.500000*%
G04 #@! TD*
G04 #@! TA.AperFunction,ComponentPad*
%ADD12C,1.700000*%
G04 #@! TD*
G04 #@! TA.AperFunction,ComponentPad*
%ADD13R,1.700000X1.700000*%
G04 #@! TD*
G04 #@! TA.AperFunction,ComponentPad*
%ADD14O,2.032000X1.727200*%
G04 #@! TD*
G04 #@! TA.AperFunction,Conductor*
%ADD15C,0.100000*%
G04 #@! TD*
G04 #@! TA.AperFunction,ComponentPad*
%ADD16C,3.000000*%
G04 #@! TD*
G04 #@! TA.AperFunction,ComponentPad*
%ADD17R,3.500000X3.500000*%
G04 #@! TD*
G04 #@! TA.AperFunction,SMDPad,CuDef*
%ADD18R,1.200000X1.900000*%
G04 #@! TD*
G04 #@! TA.AperFunction,ComponentPad*
%ADD19O,1.200000X1.900000*%
G04 #@! TD*
G04 #@! TA.AperFunction,SMDPad,CuDef*
%ADD20R,1.500000X1.900000*%
G04 #@! TD*
G04 #@! TA.AperFunction,ComponentPad*
%ADD21C,1.450000*%
G04 #@! TD*
G04 #@! TA.AperFunction,SMDPad,CuDef*
%ADD22R,0.400000X1.350000*%
G04 #@! TD*
G04 #@! TA.AperFunction,ViaPad*
%ADD23C,0.800000*%
G04 #@! TD*
G04 #@! TA.AperFunction,ViaPad*
%ADD24C,1.000000*%
G04 #@! TD*
G04 #@! TA.AperFunction,Conductor*
%ADD25C,0.250000*%
G04 #@! TD*
G04 #@! TA.AperFunction,Conductor*
%ADD26C,1.000000*%
G04 #@! TD*
G04 #@! TA.AperFunction,Conductor*
%ADD27C,0.750000*%
G04 #@! TD*
G04 #@! TA.AperFunction,Conductor*
%ADD28C,0.500000*%
G04 #@! TD*
G04 APERTURE END LIST*
D10*
G04 #@! TO.P,,*
G04 #@! TO.N,*
X99530000Y-139850000D03*
G04 #@! TD*
G04 #@! TO.P,,*
G04 #@! TO.N,*
X96990000Y-139850000D03*
G04 #@! TD*
G04 #@! TO.P,,*
G04 #@! TO.N,*
X81750000Y-50950000D03*
G04 #@! TD*
G04 #@! TO.P,,*
G04 #@! TO.N,*
X168110000Y-50950000D03*
G04 #@! TD*
G04 #@! TO.P,,*
G04 #@! TO.N,*
X165570000Y-50950000D03*
G04 #@! TD*
G04 #@! TO.P,,*
G04 #@! TO.N,*
X165570000Y-48410000D03*
G04 #@! TD*
G04 #@! TO.P,,4*
G04 #@! TO.N,N/C*
X157950000Y-50950000D03*
X155410000Y-50950000D03*
X155410000Y-48410000D03*
X157950000Y-48410000D03*
G04 #@! TD*
G04 #@! TO.P,,4*
G04 #@! TO.N,N/C*
X147790000Y-50950000D03*
X145250000Y-50950000D03*
X145250000Y-48410000D03*
X147790000Y-48410000D03*
G04 #@! TD*
G04 #@! TO.P,,4*
G04 #@! TO.N,N/C*
X163030000Y-50950000D03*
X160490000Y-50950000D03*
X160490000Y-48410000D03*
X163030000Y-48410000D03*
G04 #@! TD*
G04 #@! TO.P,,4*
G04 #@! TO.N,N/C*
X152870000Y-50950000D03*
X150330000Y-50950000D03*
X150330000Y-48410000D03*
X152870000Y-48410000D03*
G04 #@! TD*
G04 #@! TO.P,,4*
G04 #@! TO.N,N/C*
X137630000Y-50950000D03*
X135090000Y-50950000D03*
X135090000Y-48410000D03*
X137630000Y-48410000D03*
G04 #@! TD*
G04 #@! TO.P,,4*
G04 #@! TO.N,N/C*
X127470000Y-50950000D03*
X124930000Y-50950000D03*
X124930000Y-48410000D03*
X127470000Y-48410000D03*
G04 #@! TD*
G04 #@! TO.P,,4*
G04 #@! TO.N,N/C*
X142710000Y-50950000D03*
X140170000Y-50950000D03*
X140170000Y-48410000D03*
X142710000Y-48410000D03*
G04 #@! TD*
G04 #@! TO.P,,4*
G04 #@! TO.N,N/C*
X132550000Y-50950000D03*
X130010000Y-50950000D03*
X130010000Y-48410000D03*
X132550000Y-48410000D03*
G04 #@! TD*
G04 #@! TO.P,,4*
G04 #@! TO.N,N/C*
X122390000Y-48410000D03*
X119850000Y-48410000D03*
X119850000Y-50950000D03*
X122390000Y-50950000D03*
G04 #@! TD*
G04 #@! TO.P,,4*
G04 #@! TO.N,N/C*
X117310000Y-48410000D03*
X114770000Y-48410000D03*
X114770000Y-50950000D03*
X117310000Y-50950000D03*
G04 #@! TD*
G04 #@! TO.P,,4*
G04 #@! TO.N,N/C*
X112230000Y-48410000D03*
X109690000Y-48410000D03*
X109690000Y-50950000D03*
X112230000Y-50950000D03*
G04 #@! TD*
G04 #@! TO.P,,4*
G04 #@! TO.N,N/C*
X107150000Y-48410000D03*
X104610000Y-48410000D03*
X104610000Y-50950000D03*
X107150000Y-50950000D03*
G04 #@! TD*
G04 #@! TO.P,,4*
G04 #@! TO.N,N/C*
X102070000Y-48410000D03*
X99530000Y-48410000D03*
X99530000Y-50950000D03*
X102070000Y-50950000D03*
G04 #@! TD*
G04 #@! TO.P,,4*
G04 #@! TO.N,N/C*
X96990000Y-48410000D03*
X94450000Y-48410000D03*
X94450000Y-50950000D03*
X96990000Y-50950000D03*
G04 #@! TD*
G04 #@! TO.P,,4*
G04 #@! TO.N,N/C*
X91910000Y-48410000D03*
X89370000Y-48410000D03*
X89370000Y-50950000D03*
X91910000Y-50950000D03*
G04 #@! TD*
G04 #@! TO.P,,4*
G04 #@! TO.N,N/C*
X86830000Y-48410000D03*
X84290000Y-48410000D03*
X84290000Y-50950000D03*
X86830000Y-50950000D03*
G04 #@! TD*
G04 #@! TO.P,,*
G04 #@! TO.N,*
X79210000Y-122070000D03*
G04 #@! TD*
G04 #@! TO.P,,*
G04 #@! TO.N,*
X81750000Y-122070000D03*
G04 #@! TD*
G04 #@! TO.P,,*
G04 #@! TO.N,*
X84290000Y-122070000D03*
G04 #@! TD*
G04 #@! TO.P,,5*
G04 #@! TO.N,N/C*
X84290000Y-114450000D03*
X81750000Y-114450000D03*
X79210000Y-114450000D03*
X79210000Y-116990000D03*
X79210000Y-119530000D03*
X81750000Y-119530000D03*
X84290000Y-119530000D03*
X81750000Y-116990000D03*
X84290000Y-116990000D03*
G04 #@! TD*
G04 #@! TO.P,,5*
G04 #@! TO.N,N/C*
X84290000Y-106830000D03*
X81750000Y-106830000D03*
X79210000Y-106830000D03*
X79210000Y-109370000D03*
X79210000Y-111910000D03*
X81750000Y-111910000D03*
X84290000Y-111910000D03*
X81750000Y-109370000D03*
X84290000Y-109370000D03*
G04 #@! TD*
G04 #@! TO.P,,5*
G04 #@! TO.N,N/C*
X84290000Y-99210000D03*
X81750000Y-99210000D03*
X79210000Y-99210000D03*
X79210000Y-101750000D03*
X79210000Y-104290000D03*
X81750000Y-104290000D03*
X84290000Y-104290000D03*
X81750000Y-101750000D03*
X84290000Y-101750000D03*
G04 #@! TD*
G04 #@! TO.P,,5*
G04 #@! TO.N,N/C*
X84290000Y-91590000D03*
X81750000Y-91590000D03*
X79210000Y-91590000D03*
X79210000Y-94130000D03*
X79210000Y-96670000D03*
X81750000Y-96670000D03*
X84290000Y-96670000D03*
X81750000Y-94130000D03*
X84290000Y-94130000D03*
G04 #@! TD*
G04 #@! TO.P,,5*
G04 #@! TO.N,N/C*
X84290000Y-83970000D03*
X81750000Y-83970000D03*
X79210000Y-83970000D03*
X79210000Y-86510000D03*
X79210000Y-89050000D03*
X81750000Y-89050000D03*
X84290000Y-89050000D03*
X81750000Y-86510000D03*
X84290000Y-86510000D03*
G04 #@! TD*
G04 #@! TO.P,,5*
G04 #@! TO.N,N/C*
X84290000Y-76350000D03*
X81750000Y-76350000D03*
X79210000Y-76350000D03*
X79210000Y-78890000D03*
X79210000Y-81430000D03*
X81750000Y-81430000D03*
X84290000Y-81430000D03*
X81750000Y-78890000D03*
X84290000Y-78890000D03*
G04 #@! TD*
G04 #@! TO.P,,5*
G04 #@! TO.N,N/C*
X84290000Y-68730000D03*
X81750000Y-68730000D03*
X79210000Y-68730000D03*
X79210000Y-71270000D03*
X79210000Y-73810000D03*
X81750000Y-73810000D03*
X84290000Y-73810000D03*
X81750000Y-71270000D03*
X84290000Y-71270000D03*
G04 #@! TD*
G04 #@! TO.P,,5*
G04 #@! TO.N,N/C*
X84290000Y-61110000D03*
X81750000Y-61110000D03*
X79210000Y-61110000D03*
X79210000Y-63650000D03*
X79210000Y-66190000D03*
X81750000Y-66190000D03*
X84290000Y-66190000D03*
X81750000Y-63650000D03*
X84290000Y-63650000D03*
G04 #@! TD*
G04 #@! TO.P,,5*
G04 #@! TO.N,N/C*
X84290000Y-53490000D03*
X81750000Y-53490000D03*
X79210000Y-53490000D03*
X79210000Y-56030000D03*
X79210000Y-58570000D03*
X81750000Y-58570000D03*
X84290000Y-58570000D03*
X81750000Y-56030000D03*
X84290000Y-56030000D03*
G04 #@! TD*
G04 #@! TO.P,,*
G04 #@! TO.N,*
X170650000Y-86510000D03*
G04 #@! TD*
G04 #@! TO.P,,*
G04 #@! TO.N,*
X170650000Y-83970000D03*
G04 #@! TD*
G04 #@! TO.P,,*
G04 #@! TO.N,*
X170650000Y-119530000D03*
G04 #@! TD*
G04 #@! TO.P,,*
G04 #@! TO.N,*
X170650000Y-116990000D03*
G04 #@! TD*
G04 #@! TO.P,,*
G04 #@! TO.N,*
X170650000Y-114450000D03*
G04 #@! TD*
G04 #@! TO.P,,*
G04 #@! TO.N,*
X168110000Y-114450000D03*
G04 #@! TD*
G04 #@! TO.P,,4*
G04 #@! TO.N,N/C*
X147790000Y-129690000D03*
X145250000Y-129690000D03*
X145250000Y-127150000D03*
X147790000Y-127150000D03*
G04 #@! TD*
G04 #@! TO.P,,4*
G04 #@! TO.N,N/C*
X147790000Y-124610000D03*
X145250000Y-124610000D03*
X145250000Y-122070000D03*
X147790000Y-122070000D03*
G04 #@! TD*
G04 #@! TO.P,,4*
G04 #@! TO.N,N/C*
X147790000Y-119530000D03*
X145250000Y-119530000D03*
X145250000Y-116990000D03*
X147790000Y-116990000D03*
G04 #@! TD*
G04 #@! TO.P,,4*
G04 #@! TO.N,N/C*
X152870000Y-119530000D03*
X150330000Y-119530000D03*
X150330000Y-116990000D03*
X152870000Y-116990000D03*
G04 #@! TD*
G04 #@! TO.P,,4*
G04 #@! TO.N,N/C*
X157950000Y-119530000D03*
X155410000Y-119530000D03*
X155410000Y-116990000D03*
X157950000Y-116990000D03*
G04 #@! TD*
G04 #@! TO.P,,4*
G04 #@! TO.N,N/C*
X170650000Y-111910000D03*
X168110000Y-111910000D03*
X168110000Y-109370000D03*
X170650000Y-109370000D03*
G04 #@! TD*
G04 #@! TO.P,,4*
G04 #@! TO.N,N/C*
X170650000Y-106830000D03*
X168110000Y-106830000D03*
X168110000Y-104290000D03*
X170650000Y-104290000D03*
G04 #@! TD*
G04 #@! TO.P,,4*
G04 #@! TO.N,N/C*
X170650000Y-101750000D03*
X168110000Y-101750000D03*
X168110000Y-99210000D03*
X170650000Y-99210000D03*
G04 #@! TD*
G04 #@! TO.P,,4*
G04 #@! TO.N,N/C*
X170650000Y-96670000D03*
X168110000Y-96670000D03*
X168110000Y-94130000D03*
X170650000Y-94130000D03*
G04 #@! TD*
G04 #@! TO.P,,4*
G04 #@! TO.N,N/C*
X170650000Y-91590000D03*
X168110000Y-91590000D03*
X168110000Y-89050000D03*
X170650000Y-89050000D03*
G04 #@! TD*
G04 #@! TO.P,,4*
G04 #@! TO.N,N/C*
X168110000Y-86510000D03*
X165570000Y-86510000D03*
X165570000Y-83970000D03*
X168110000Y-83970000D03*
G04 #@! TD*
G04 #@! TO.P,,5*
G04 #@! TO.N,N/C*
X170650000Y-76350000D03*
X168110000Y-76350000D03*
X165570000Y-76350000D03*
X165570000Y-78890000D03*
X165570000Y-81430000D03*
X168110000Y-81430000D03*
X170650000Y-81430000D03*
X168110000Y-78890000D03*
X170650000Y-78890000D03*
G04 #@! TD*
G04 #@! TO.P,,5*
G04 #@! TO.N,N/C*
X170650000Y-68730000D03*
X168110000Y-68730000D03*
X165570000Y-68730000D03*
X165570000Y-71270000D03*
X165570000Y-73810000D03*
X168110000Y-73810000D03*
X170650000Y-73810000D03*
X168110000Y-71270000D03*
X170650000Y-71270000D03*
G04 #@! TD*
G04 #@! TO.P,,5*
G04 #@! TO.N,N/C*
X170650000Y-61110000D03*
X168110000Y-61110000D03*
X165570000Y-61110000D03*
X165570000Y-63650000D03*
X165570000Y-66190000D03*
X168110000Y-66190000D03*
X170650000Y-66190000D03*
X168110000Y-63650000D03*
X170650000Y-63650000D03*
G04 #@! TD*
G04 #@! TO.P,,5*
G04 #@! TO.N,N/C*
X170650000Y-53490000D03*
X168110000Y-53490000D03*
X165570000Y-53490000D03*
X165570000Y-56030000D03*
X165570000Y-58570000D03*
X168110000Y-58570000D03*
X170650000Y-58570000D03*
X168110000Y-56030000D03*
X170650000Y-56030000D03*
G04 #@! TD*
G04 #@! TO.P,,*
G04 #@! TO.N,*
X163030000Y-86510000D03*
G04 #@! TD*
G04 #@! TO.P,,*
G04 #@! TO.N,*
X160490000Y-86510000D03*
G04 #@! TD*
G04 #@! TO.P,,4*
G04 #@! TO.N,N/C*
X163030000Y-81430000D03*
X160490000Y-81430000D03*
X160490000Y-83970000D03*
X163030000Y-83970000D03*
G04 #@! TD*
G04 #@! TO.P,,*
G04 #@! TO.N,*
X157950000Y-58570000D03*
G04 #@! TD*
G04 #@! TO.P,,*
G04 #@! TO.N,*
X157950000Y-56030000D03*
G04 #@! TD*
G04 #@! TO.P,,*
G04 #@! TO.N,*
X155410000Y-56030000D03*
G04 #@! TD*
G04 #@! TO.P,,*
G04 #@! TO.N,*
X152870000Y-56030000D03*
G04 #@! TD*
G04 #@! TO.P,,*
G04 #@! TO.N,*
X150330000Y-56030000D03*
G04 #@! TD*
G04 #@! TO.P,,*
G04 #@! TO.N,*
X147790000Y-56030000D03*
G04 #@! TD*
G04 #@! TO.P,,*
G04 #@! TO.N,*
X145250000Y-56030000D03*
G04 #@! TD*
G04 #@! TO.P,,*
G04 #@! TO.N,*
X145250000Y-58570000D03*
G04 #@! TD*
G04 #@! TO.P,,*
G04 #@! TO.N,*
X145250000Y-61110000D03*
G04 #@! TD*
G04 #@! TO.P,,*
G04 #@! TO.N,*
X163030000Y-78890000D03*
G04 #@! TD*
G04 #@! TO.P,,*
G04 #@! TO.N,*
X163030000Y-76350000D03*
G04 #@! TD*
G04 #@! TO.P,,*
G04 #@! TO.N,*
X163030000Y-73810000D03*
G04 #@! TD*
G04 #@! TO.P,,4*
G04 #@! TO.N,N/C*
X104610000Y-129690000D03*
X102070000Y-129690000D03*
X102070000Y-132230000D03*
X104610000Y-132230000D03*
G04 #@! TD*
G04 #@! TO.P,,4*
G04 #@! TO.N,N/C*
X104610000Y-124610000D03*
X102070000Y-124610000D03*
X102070000Y-127150000D03*
X104610000Y-127150000D03*
G04 #@! TD*
G04 #@! TO.P,,*
G04 #@! TO.N,*
X107150000Y-53490000D03*
G04 #@! TD*
G04 #@! TO.P,,4*
G04 #@! TO.N,N/C*
X168110000Y-119530000D03*
X165570000Y-119530000D03*
X165570000Y-116990000D03*
X168110000Y-116990000D03*
G04 #@! TD*
G04 #@! TO.P,,4*
G04 #@! TO.N,N/C*
X99530000Y-137310000D03*
X96990000Y-137310000D03*
X96990000Y-134770000D03*
X99530000Y-134770000D03*
G04 #@! TD*
G04 #@! TO.P,,4*
G04 #@! TO.N,N/C*
X142710000Y-139850000D03*
X140170000Y-139850000D03*
X140170000Y-137310000D03*
X142710000Y-137310000D03*
G04 #@! TD*
G04 #@! TO.P,,4*
G04 #@! TO.N,N/C*
X163030000Y-56030000D03*
X160490000Y-56030000D03*
X160490000Y-53490000D03*
X163030000Y-53490000D03*
G04 #@! TD*
G04 #@! TO.P,,4*
G04 #@! TO.N,N/C*
X163030000Y-61110000D03*
X160490000Y-61110000D03*
X160490000Y-58570000D03*
X163030000Y-58570000D03*
G04 #@! TD*
G04 #@! TO.P,,4*
G04 #@! TO.N,N/C*
X165570000Y-106830000D03*
X163030000Y-106830000D03*
X163030000Y-104290000D03*
X165570000Y-104290000D03*
G04 #@! TD*
G04 #@! TO.P,,4*
G04 #@! TO.N,N/C*
X160490000Y-106830000D03*
X157950000Y-106830000D03*
X157950000Y-104290000D03*
X160490000Y-104290000D03*
G04 #@! TD*
G04 #@! TO.P,,4*
G04 #@! TO.N,N/C*
X155410000Y-106830000D03*
X152870000Y-106830000D03*
X152870000Y-104290000D03*
X155410000Y-104290000D03*
G04 #@! TD*
G04 #@! TO.P,,4*
G04 #@! TO.N,N/C*
X147790000Y-134770000D03*
X145250000Y-134770000D03*
X145250000Y-132230000D03*
X147790000Y-132230000D03*
G04 #@! TD*
G04 #@! TO.P,,4*
G04 #@! TO.N,N/C*
X142710000Y-132230000D03*
X140170000Y-132230000D03*
X140170000Y-129690000D03*
X142710000Y-129690000D03*
G04 #@! TD*
G04 #@! TO.P,,4*
G04 #@! TO.N,N/C*
X142710000Y-127150000D03*
X140170000Y-127150000D03*
X140170000Y-124610000D03*
X142710000Y-124610000D03*
G04 #@! TD*
G04 #@! TO.P,,4*
G04 #@! TO.N,N/C*
X142710000Y-122070000D03*
X140170000Y-122070000D03*
X140170000Y-119530000D03*
X142710000Y-119530000D03*
G04 #@! TD*
G04 #@! TO.P,,4*
G04 #@! TO.N,N/C*
X142710000Y-116990000D03*
X140170000Y-116990000D03*
X140170000Y-114450000D03*
X142710000Y-114450000D03*
G04 #@! TD*
G04 #@! TO.P,,4*
G04 #@! TO.N,N/C*
X142710000Y-111910000D03*
X140170000Y-111910000D03*
X140170000Y-109370000D03*
X142710000Y-109370000D03*
G04 #@! TD*
G04 #@! TO.P,,4*
G04 #@! TO.N,N/C*
X142710000Y-106830000D03*
X140170000Y-106830000D03*
X140170000Y-104290000D03*
X142710000Y-104290000D03*
G04 #@! TD*
G04 #@! TO.P,,4*
G04 #@! TO.N,N/C*
X142710000Y-101750000D03*
X140170000Y-101750000D03*
X140170000Y-99210000D03*
X142710000Y-99210000D03*
G04 #@! TD*
G04 #@! TO.P,,4*
G04 #@! TO.N,N/C*
X142710000Y-96670000D03*
X140170000Y-96670000D03*
X140170000Y-94130000D03*
X142710000Y-94130000D03*
G04 #@! TD*
G04 #@! TO.P,,4*
G04 #@! TO.N,N/C*
X109690000Y-132230000D03*
X107150000Y-132230000D03*
X107150000Y-129690000D03*
X109690000Y-129690000D03*
G04 #@! TD*
G04 #@! TO.P,,4*
G04 #@! TO.N,N/C*
X109690000Y-127150000D03*
X107150000Y-127150000D03*
X107150000Y-124610000D03*
X109690000Y-124610000D03*
G04 #@! TD*
G04 #@! TO.P,,4*
G04 #@! TO.N,N/C*
X109690000Y-122070000D03*
X107150000Y-122070000D03*
X107150000Y-119530000D03*
X109690000Y-119530000D03*
G04 #@! TD*
G04 #@! TO.P,,4*
G04 #@! TO.N,N/C*
X109690000Y-116990000D03*
X107150000Y-116990000D03*
X107150000Y-114450000D03*
X109690000Y-114450000D03*
G04 #@! TD*
G04 #@! TO.P,,4*
G04 #@! TO.N,N/C*
X109690000Y-111910000D03*
X107150000Y-111910000D03*
X107150000Y-109370000D03*
X109690000Y-109370000D03*
G04 #@! TD*
G04 #@! TO.P,,4*
G04 #@! TO.N,N/C*
X109690000Y-106830000D03*
X107150000Y-106830000D03*
X107150000Y-104290000D03*
X109690000Y-104290000D03*
G04 #@! TD*
G04 #@! TO.P,,4*
G04 #@! TO.N,N/C*
X109690000Y-101750000D03*
X107150000Y-101750000D03*
X107150000Y-99210000D03*
X109690000Y-99210000D03*
G04 #@! TD*
G04 #@! TO.P,,4*
G04 #@! TO.N,N/C*
X109690000Y-96670000D03*
X107150000Y-96670000D03*
X107150000Y-94130000D03*
X109690000Y-94130000D03*
G04 #@! TD*
G04 #@! TO.P,,4*
G04 #@! TO.N,N/C*
X163030000Y-66190000D03*
X160490000Y-66190000D03*
X160490000Y-63650000D03*
X163030000Y-63650000D03*
G04 #@! TD*
G04 #@! TO.P,,4*
G04 #@! TO.N,N/C*
X163030000Y-119530000D03*
X160490000Y-119530000D03*
X160490000Y-116990000D03*
X163030000Y-116990000D03*
G04 #@! TD*
G04 #@! TO.P,,4*
G04 #@! TO.N,N/C*
X150330000Y-61110000D03*
X147790000Y-61110000D03*
X147790000Y-58570000D03*
X150330000Y-58570000D03*
G04 #@! TD*
G04 #@! TO.P,,4*
G04 #@! TO.N,N/C*
X163030000Y-71270000D03*
X160490000Y-71270000D03*
X160490000Y-68730000D03*
X163030000Y-68730000D03*
G04 #@! TD*
G04 #@! TO.P,,4*
G04 #@! TO.N,N/C*
X89370000Y-122070000D03*
X86830000Y-122070000D03*
X86830000Y-119530000D03*
X89370000Y-119530000D03*
G04 #@! TD*
G04 #@! TO.P,,4*
G04 #@! TO.N,N/C*
X89370000Y-116990000D03*
X86830000Y-116990000D03*
X86830000Y-114450000D03*
X89370000Y-114450000D03*
G04 #@! TD*
G04 #@! TO.P,,4*
G04 #@! TO.N,N/C*
X89370000Y-111910000D03*
X86830000Y-111910000D03*
X86830000Y-109370000D03*
X89370000Y-109370000D03*
G04 #@! TD*
G04 #@! TO.P,,4*
G04 #@! TO.N,N/C*
X89370000Y-106830000D03*
X86830000Y-106830000D03*
X86830000Y-104290000D03*
X89370000Y-104290000D03*
G04 #@! TD*
G04 #@! TO.P,,4*
G04 #@! TO.N,N/C*
X89370000Y-101750000D03*
X86830000Y-101750000D03*
X86830000Y-99210000D03*
X89370000Y-99210000D03*
G04 #@! TD*
G04 #@! TO.P,,4*
G04 #@! TO.N,N/C*
X89370000Y-96670000D03*
X86830000Y-96670000D03*
X86830000Y-94130000D03*
X89370000Y-94130000D03*
G04 #@! TD*
G04 #@! TO.P,,4*
G04 #@! TO.N,N/C*
X89370000Y-91590000D03*
X86830000Y-91590000D03*
X86830000Y-89050000D03*
X89370000Y-89050000D03*
G04 #@! TD*
G04 #@! TO.P,,4*
G04 #@! TO.N,N/C*
X89370000Y-86510000D03*
X86830000Y-86510000D03*
X86830000Y-83970000D03*
X89370000Y-83970000D03*
G04 #@! TD*
G04 #@! TO.P,,4*
G04 #@! TO.N,N/C*
X89370000Y-81430000D03*
X86830000Y-81430000D03*
X86830000Y-78890000D03*
X89370000Y-78890000D03*
G04 #@! TD*
G04 #@! TO.P,,4*
G04 #@! TO.N,N/C*
X89370000Y-76350000D03*
X86830000Y-76350000D03*
X86830000Y-73810000D03*
X89370000Y-73810000D03*
G04 #@! TD*
G04 #@! TO.P,,4*
G04 #@! TO.N,N/C*
X89370000Y-71270000D03*
X86830000Y-71270000D03*
X86830000Y-68730000D03*
X89370000Y-68730000D03*
G04 #@! TD*
G04 #@! TO.P,,4*
G04 #@! TO.N,N/C*
X89370000Y-66190000D03*
X86830000Y-66190000D03*
X86830000Y-63650000D03*
X89370000Y-63650000D03*
G04 #@! TD*
G04 #@! TO.P,,4*
G04 #@! TO.N,N/C*
X89370000Y-61110000D03*
X86830000Y-61110000D03*
X86830000Y-58570000D03*
X89370000Y-58570000D03*
G04 #@! TD*
G04 #@! TO.P,,4*
G04 #@! TO.N,N/C*
X89370000Y-56030000D03*
X86830000Y-56030000D03*
X86830000Y-53490000D03*
X89370000Y-53490000D03*
G04 #@! TD*
G04 #@! TO.P,,4*
G04 #@! TO.N,N/C*
X155410000Y-78890000D03*
X152870000Y-78890000D03*
X152870000Y-76350000D03*
X155410000Y-76350000D03*
G04 #@! TD*
G04 #@! TO.P,,4*
G04 #@! TO.N,N/C*
X160490000Y-78890000D03*
X157950000Y-78890000D03*
X157950000Y-76350000D03*
X160490000Y-76350000D03*
G04 #@! TD*
G04 #@! TO.P,,*
G04 #@! TO.N,*
X99530000Y-127150000D03*
G04 #@! TD*
G04 #@! TO.P,,*
G04 #@! TO.N,*
X99530000Y-124610000D03*
G04 #@! TD*
G04 #@! TO.P,,*
G04 #@! TO.N,*
X96990000Y-124610000D03*
G04 #@! TD*
G04 #@! TO.P,,*
G04 #@! TO.N,*
X163030000Y-122070000D03*
G04 #@! TD*
G04 #@! TO.P,,*
G04 #@! TO.N,*
X160490000Y-122070000D03*
G04 #@! TD*
G04 #@! TO.P,,*
G04 #@! TO.N,*
X157950000Y-122070000D03*
G04 #@! TD*
G04 #@! TO.P,,*
G04 #@! TO.N,*
X155410000Y-122070000D03*
G04 #@! TD*
G04 #@! TO.P,,*
G04 #@! TO.N,*
X107150000Y-134770000D03*
G04 #@! TD*
G04 #@! TO.P,,*
G04 #@! TO.N,*
X109690000Y-134770000D03*
G04 #@! TD*
G04 #@! TO.P,,*
G04 #@! TO.N,*
X142710000Y-134770000D03*
G04 #@! TD*
G04 #@! TO.P,,*
G04 #@! TO.N,*
X140170000Y-134770000D03*
G04 #@! TD*
G04 #@! TO.P,,*
G04 #@! TO.N,*
X137630000Y-94130000D03*
G04 #@! TD*
G04 #@! TO.P,,*
G04 #@! TO.N,*
X135090000Y-94130000D03*
G04 #@! TD*
G04 #@! TO.P,,*
G04 #@! TO.N,*
X132550000Y-94130000D03*
G04 #@! TD*
G04 #@! TO.P,,*
G04 #@! TO.N,*
X130010000Y-94130000D03*
G04 #@! TD*
G04 #@! TO.P,,*
G04 #@! TO.N,*
X127470000Y-94130000D03*
G04 #@! TD*
G04 #@! TO.P,,*
G04 #@! TO.N,*
X124930000Y-94130000D03*
G04 #@! TD*
G04 #@! TO.P,,*
G04 #@! TO.N,*
X122390000Y-94130000D03*
G04 #@! TD*
G04 #@! TO.P,,*
G04 #@! TO.N,*
X119850000Y-94130000D03*
G04 #@! TD*
G04 #@! TO.P,,*
G04 #@! TO.N,*
X117310000Y-94130000D03*
G04 #@! TD*
G04 #@! TO.P,,*
G04 #@! TO.N,*
X114770000Y-94130000D03*
G04 #@! TD*
G04 #@! TO.P,,*
G04 #@! TO.N,*
X157950000Y-53490000D03*
G04 #@! TD*
G04 #@! TO.P,,*
G04 #@! TO.N,*
X155410000Y-53490000D03*
G04 #@! TD*
G04 #@! TO.P,,*
G04 #@! TO.N,*
X152870000Y-53490000D03*
G04 #@! TD*
G04 #@! TO.P,,*
G04 #@! TO.N,*
X160490000Y-73810000D03*
G04 #@! TD*
G04 #@! TO.P,,*
G04 #@! TO.N,*
X152870000Y-58570000D03*
G04 #@! TD*
G04 #@! TO.P,,*
G04 #@! TO.N,*
X155410000Y-58570000D03*
G04 #@! TD*
G04 #@! TO.P,,*
G04 #@! TO.N,*
X91910000Y-53490000D03*
G04 #@! TD*
G04 #@! TO.P,,*
G04 #@! TO.N,*
X96990000Y-53490000D03*
G04 #@! TD*
G04 #@! TO.P,,*
G04 #@! TO.N,*
X94450000Y-53490000D03*
G04 #@! TD*
G04 #@! TO.P,,*
G04 #@! TO.N,*
X99530000Y-53490000D03*
G04 #@! TD*
G04 #@! TO.P,,*
G04 #@! TO.N,*
X102070000Y-53490000D03*
G04 #@! TD*
G04 #@! TO.P,,*
G04 #@! TO.N,*
X104610000Y-53490000D03*
G04 #@! TD*
G04 #@! TO.P,,*
G04 #@! TO.N,*
X109690000Y-53490000D03*
G04 #@! TD*
G04 #@! TO.P,,*
G04 #@! TO.N,*
X119850000Y-53490000D03*
G04 #@! TD*
G04 #@! TO.P,,*
G04 #@! TO.N,*
X127470000Y-53490000D03*
G04 #@! TD*
G04 #@! TO.P,,*
G04 #@! TO.N,*
X122390000Y-53490000D03*
G04 #@! TD*
G04 #@! TO.P,,*
G04 #@! TO.N,*
X130010000Y-53490000D03*
G04 #@! TD*
G04 #@! TO.P,,*
G04 #@! TO.N,*
X112230000Y-53490000D03*
G04 #@! TD*
G04 #@! TO.P,,*
G04 #@! TO.N,*
X114770000Y-53490000D03*
G04 #@! TD*
G04 #@! TO.P,,*
G04 #@! TO.N,*
X117310000Y-53490000D03*
G04 #@! TD*
G04 #@! TO.P,,*
G04 #@! TO.N,*
X124930000Y-53490000D03*
G04 #@! TD*
G04 #@! TO.P,,*
G04 #@! TO.N,*
X132550000Y-53490000D03*
G04 #@! TD*
G04 #@! TO.P,,*
G04 #@! TO.N,*
X142710000Y-53490000D03*
G04 #@! TD*
G04 #@! TO.P,,*
G04 #@! TO.N,*
X150330000Y-53490000D03*
G04 #@! TD*
G04 #@! TO.P,,*
G04 #@! TO.N,*
X145250000Y-53490000D03*
G04 #@! TD*
G04 #@! TO.P,,*
G04 #@! TO.N,*
X135090000Y-53490000D03*
G04 #@! TD*
G04 #@! TO.P,,*
G04 #@! TO.N,*
X137630000Y-53490000D03*
G04 #@! TD*
G04 #@! TO.P,,*
G04 #@! TO.N,*
X140170000Y-53490000D03*
G04 #@! TD*
G04 #@! TO.P,,*
G04 #@! TO.N,*
X147790000Y-53490000D03*
G04 #@! TD*
G04 #@! TO.P,,*
G04 #@! TO.N,*
X112230000Y-94130000D03*
G04 #@! TD*
G04 #@! TO.P,,5*
G04 #@! TO.N,N/C*
X142710000Y-81430000D03*
X140170000Y-81430000D03*
X142710000Y-83970000D03*
X140170000Y-83970000D03*
X137630000Y-83970000D03*
X137630000Y-81430000D03*
X137630000Y-78890000D03*
X140170000Y-78890000D03*
X142710000Y-78890000D03*
G04 #@! TD*
G04 #@! TO.P,,5*
G04 #@! TO.N,N/C*
X165570000Y-99210000D03*
X163030000Y-99210000D03*
X165570000Y-101750000D03*
X163030000Y-101750000D03*
X160490000Y-101750000D03*
X160490000Y-99210000D03*
X160490000Y-96670000D03*
X163030000Y-96670000D03*
X165570000Y-96670000D03*
G04 #@! TD*
G04 #@! TO.P,,5*
G04 #@! TO.N,N/C*
X157950000Y-99210000D03*
X155410000Y-99210000D03*
X157950000Y-101750000D03*
X155410000Y-101750000D03*
X152870000Y-101750000D03*
X152870000Y-99210000D03*
X152870000Y-96670000D03*
X155410000Y-96670000D03*
X157950000Y-96670000D03*
G04 #@! TD*
G04 #@! TO.P,,5*
G04 #@! TO.N,N/C*
X165570000Y-91590000D03*
X163030000Y-91590000D03*
X165570000Y-94130000D03*
X163030000Y-94130000D03*
X160490000Y-94130000D03*
X160490000Y-91590000D03*
X160490000Y-89050000D03*
X163030000Y-89050000D03*
X165570000Y-89050000D03*
G04 #@! TD*
G04 #@! TO.P,,5*
G04 #@! TO.N,N/C*
X157950000Y-91590000D03*
X155410000Y-91590000D03*
X157950000Y-94130000D03*
X155410000Y-94130000D03*
X152870000Y-94130000D03*
X152870000Y-91590000D03*
X152870000Y-89050000D03*
X155410000Y-89050000D03*
X157950000Y-89050000D03*
G04 #@! TD*
G04 #@! TO.P,,5*
G04 #@! TO.N,N/C*
X157950000Y-83970000D03*
X155410000Y-83970000D03*
X157950000Y-86510000D03*
X155410000Y-86510000D03*
X152870000Y-86510000D03*
X152870000Y-83970000D03*
X152870000Y-81430000D03*
X155410000Y-81430000D03*
X157950000Y-81430000D03*
G04 #@! TD*
G04 #@! TO.P,,5*
G04 #@! TO.N,N/C*
X150330000Y-111910000D03*
X147790000Y-111910000D03*
X150330000Y-114450000D03*
X147790000Y-114450000D03*
X145250000Y-114450000D03*
X145250000Y-111910000D03*
X145250000Y-109370000D03*
X147790000Y-109370000D03*
X150330000Y-109370000D03*
G04 #@! TD*
G04 #@! TO.P,,5*
G04 #@! TO.N,N/C*
X150330000Y-104290000D03*
X147790000Y-104290000D03*
X150330000Y-106830000D03*
X147790000Y-106830000D03*
X145250000Y-106830000D03*
X145250000Y-104290000D03*
X145250000Y-101750000D03*
X147790000Y-101750000D03*
X150330000Y-101750000D03*
G04 #@! TD*
G04 #@! TO.P,,5*
G04 #@! TO.N,N/C*
X150330000Y-96670000D03*
X147790000Y-96670000D03*
X150330000Y-99210000D03*
X147790000Y-99210000D03*
X145250000Y-99210000D03*
X145250000Y-96670000D03*
X145250000Y-94130000D03*
X147790000Y-94130000D03*
X150330000Y-94130000D03*
G04 #@! TD*
G04 #@! TO.P,,5*
G04 #@! TO.N,N/C*
X112230000Y-89050000D03*
X109690000Y-89050000D03*
X112230000Y-91590000D03*
X109690000Y-91590000D03*
X107150000Y-91590000D03*
X107150000Y-89050000D03*
X107150000Y-86510000D03*
X109690000Y-86510000D03*
X112230000Y-86510000D03*
G04 #@! TD*
G04 #@! TO.P,,5*
G04 #@! TO.N,N/C*
X119850000Y-89050000D03*
X117310000Y-89050000D03*
X119850000Y-91590000D03*
X117310000Y-91590000D03*
X114770000Y-91590000D03*
X114770000Y-89050000D03*
X114770000Y-86510000D03*
X117310000Y-86510000D03*
X119850000Y-86510000D03*
G04 #@! TD*
G04 #@! TO.P,,5*
G04 #@! TO.N,N/C*
X127470000Y-89050000D03*
X124930000Y-89050000D03*
X127470000Y-91590000D03*
X124930000Y-91590000D03*
X122390000Y-91590000D03*
X122390000Y-89050000D03*
X122390000Y-86510000D03*
X124930000Y-86510000D03*
X127470000Y-86510000D03*
G04 #@! TD*
G04 #@! TO.P,,5*
G04 #@! TO.N,N/C*
X135090000Y-89050000D03*
X132550000Y-89050000D03*
X135090000Y-91590000D03*
X132550000Y-91590000D03*
X130010000Y-91590000D03*
X130010000Y-89050000D03*
X130010000Y-86510000D03*
X132550000Y-86510000D03*
X135090000Y-86510000D03*
G04 #@! TD*
G04 #@! TO.P,,5*
G04 #@! TO.N,N/C*
X142710000Y-89050000D03*
X140170000Y-89050000D03*
X142710000Y-91590000D03*
X140170000Y-91590000D03*
X137630000Y-91590000D03*
X137630000Y-89050000D03*
X137630000Y-86510000D03*
X140170000Y-86510000D03*
X142710000Y-86510000D03*
G04 #@! TD*
G04 #@! TO.P,,5*
G04 #@! TO.N,N/C*
X150330000Y-89050000D03*
X147790000Y-89050000D03*
X150330000Y-91590000D03*
X147790000Y-91590000D03*
X145250000Y-91590000D03*
X145250000Y-89050000D03*
X145250000Y-86510000D03*
X147790000Y-86510000D03*
X150330000Y-86510000D03*
G04 #@! TD*
G04 #@! TO.P,,5*
G04 #@! TO.N,N/C*
X150330000Y-81430000D03*
X147790000Y-81430000D03*
X150330000Y-83970000D03*
X147790000Y-83970000D03*
X145250000Y-83970000D03*
X145250000Y-81430000D03*
X145250000Y-78890000D03*
X147790000Y-78890000D03*
X150330000Y-78890000D03*
G04 #@! TD*
G04 #@! TO.P,,5*
G04 #@! TO.N,N/C*
X135090000Y-81430000D03*
X132550000Y-81430000D03*
X135090000Y-83970000D03*
X132550000Y-83970000D03*
X130010000Y-83970000D03*
X130010000Y-81430000D03*
X130010000Y-78890000D03*
X132550000Y-78890000D03*
X135090000Y-78890000D03*
G04 #@! TD*
G04 #@! TO.P,,5*
G04 #@! TO.N,N/C*
X127470000Y-81430000D03*
X124930000Y-81430000D03*
X127470000Y-83970000D03*
X124930000Y-83970000D03*
X122390000Y-83970000D03*
X122390000Y-81430000D03*
X122390000Y-78890000D03*
X124930000Y-78890000D03*
X127470000Y-78890000D03*
G04 #@! TD*
G04 #@! TO.P,,5*
G04 #@! TO.N,N/C*
X119850000Y-81430000D03*
X117310000Y-81430000D03*
X119850000Y-83970000D03*
X117310000Y-83970000D03*
X114770000Y-83970000D03*
X114770000Y-81430000D03*
X114770000Y-78890000D03*
X117310000Y-78890000D03*
X119850000Y-78890000D03*
G04 #@! TD*
G04 #@! TO.P,,5*
G04 #@! TO.N,N/C*
X112230000Y-81430000D03*
X109690000Y-81430000D03*
X112230000Y-83970000D03*
X109690000Y-83970000D03*
X107150000Y-83970000D03*
X107150000Y-81430000D03*
X107150000Y-78890000D03*
X109690000Y-78890000D03*
X112230000Y-78890000D03*
G04 #@! TD*
G04 #@! TO.P,,5*
G04 #@! TO.N,N/C*
X165570000Y-111910000D03*
X163030000Y-111910000D03*
X165570000Y-114450000D03*
X163030000Y-114450000D03*
X160490000Y-114450000D03*
X160490000Y-111910000D03*
X160490000Y-109370000D03*
X163030000Y-109370000D03*
X165570000Y-109370000D03*
G04 #@! TD*
G04 #@! TO.P,,5*
G04 #@! TO.N,N/C*
X157950000Y-111910000D03*
X155410000Y-111910000D03*
X157950000Y-114450000D03*
X155410000Y-114450000D03*
X152870000Y-114450000D03*
X152870000Y-111910000D03*
X152870000Y-109370000D03*
X155410000Y-109370000D03*
X157950000Y-109370000D03*
G04 #@! TD*
G04 #@! TO.P,,5*
G04 #@! TO.N,N/C*
X157950000Y-71270000D03*
X155410000Y-71270000D03*
X157950000Y-73810000D03*
X155410000Y-73810000D03*
X152870000Y-73810000D03*
X152870000Y-71270000D03*
X152870000Y-68730000D03*
X155410000Y-68730000D03*
X157950000Y-68730000D03*
G04 #@! TD*
G04 #@! TO.P,,5*
G04 #@! TO.N,N/C*
X157950000Y-63650000D03*
X155410000Y-63650000D03*
X157950000Y-66190000D03*
X155410000Y-66190000D03*
X152870000Y-66190000D03*
X152870000Y-63650000D03*
X152870000Y-61110000D03*
X155410000Y-61110000D03*
X157950000Y-61110000D03*
G04 #@! TD*
G04 #@! TO.P,,5*
G04 #@! TO.N,N/C*
X96990000Y-58570000D03*
X94450000Y-58570000D03*
X96990000Y-61110000D03*
X94450000Y-61110000D03*
X91910000Y-61110000D03*
X91910000Y-58570000D03*
X91910000Y-56030000D03*
X94450000Y-56030000D03*
X96990000Y-56030000D03*
G04 #@! TD*
G04 #@! TO.P,,5*
G04 #@! TO.N,N/C*
X96990000Y-66190000D03*
X94450000Y-66190000D03*
X96990000Y-68730000D03*
X94450000Y-68730000D03*
X91910000Y-68730000D03*
X91910000Y-66190000D03*
X91910000Y-63650000D03*
X94450000Y-63650000D03*
X96990000Y-63650000D03*
G04 #@! TD*
G04 #@! TO.P,,5*
G04 #@! TO.N,N/C*
X96990000Y-73810000D03*
X94450000Y-73810000D03*
X96990000Y-76350000D03*
X94450000Y-76350000D03*
X91910000Y-76350000D03*
X91910000Y-73810000D03*
X91910000Y-71270000D03*
X94450000Y-71270000D03*
X96990000Y-71270000D03*
G04 #@! TD*
G04 #@! TO.P,,5*
G04 #@! TO.N,N/C*
X96990000Y-104290000D03*
X94450000Y-104290000D03*
X96990000Y-106830000D03*
X94450000Y-106830000D03*
X91910000Y-106830000D03*
X91910000Y-104290000D03*
X91910000Y-101750000D03*
X94450000Y-101750000D03*
X96990000Y-101750000D03*
G04 #@! TD*
G04 #@! TO.P,,5*
G04 #@! TO.N,N/C*
X96990000Y-119530000D03*
X94450000Y-119530000D03*
X96990000Y-122070000D03*
X94450000Y-122070000D03*
X91910000Y-122070000D03*
X91910000Y-119530000D03*
X91910000Y-116990000D03*
X94450000Y-116990000D03*
X96990000Y-116990000D03*
G04 #@! TD*
G04 #@! TO.P,,5*
G04 #@! TO.N,N/C*
X96990000Y-89050000D03*
X94450000Y-89050000D03*
X96990000Y-91590000D03*
X94450000Y-91590000D03*
X91910000Y-91590000D03*
X91910000Y-89050000D03*
X91910000Y-86510000D03*
X94450000Y-86510000D03*
X96990000Y-86510000D03*
G04 #@! TD*
G04 #@! TO.P,,5*
G04 #@! TO.N,N/C*
X96990000Y-81430000D03*
X94450000Y-81430000D03*
X96990000Y-83970000D03*
X94450000Y-83970000D03*
X91910000Y-83970000D03*
X91910000Y-81430000D03*
X91910000Y-78890000D03*
X94450000Y-78890000D03*
X96990000Y-78890000D03*
G04 #@! TD*
G04 #@! TO.P,,5*
G04 #@! TO.N,N/C*
X96990000Y-96670000D03*
X94450000Y-96670000D03*
X96990000Y-99210000D03*
X94450000Y-99210000D03*
X91910000Y-99210000D03*
X91910000Y-96670000D03*
X91910000Y-94130000D03*
X94450000Y-94130000D03*
X96990000Y-94130000D03*
G04 #@! TD*
G04 #@! TO.P,,5*
G04 #@! TO.N,N/C*
X96990000Y-111910000D03*
X94450000Y-111910000D03*
X96990000Y-114450000D03*
X94450000Y-114450000D03*
X91910000Y-114450000D03*
X91910000Y-111910000D03*
X91910000Y-109370000D03*
X94450000Y-109370000D03*
X96990000Y-109370000D03*
G04 #@! TD*
G04 #@! TO.P,,5*
G04 #@! TO.N,N/C*
X135090000Y-73810000D03*
X132550000Y-73810000D03*
X135090000Y-76350000D03*
X132550000Y-76350000D03*
X130010000Y-76350000D03*
X130010000Y-73810000D03*
X130010000Y-71270000D03*
X132550000Y-71270000D03*
X135090000Y-71270000D03*
G04 #@! TD*
G04 #@! TO.P,,5*
G04 #@! TO.N,N/C*
X135090000Y-58570000D03*
X132550000Y-58570000D03*
X135090000Y-61110000D03*
X132550000Y-61110000D03*
X130010000Y-61110000D03*
X130010000Y-58570000D03*
X130010000Y-56030000D03*
X132550000Y-56030000D03*
X135090000Y-56030000D03*
G04 #@! TD*
G04 #@! TO.P,,5*
G04 #@! TO.N,N/C*
X142710000Y-73810000D03*
X140170000Y-73810000D03*
X142710000Y-76350000D03*
X140170000Y-76350000D03*
X137630000Y-76350000D03*
X137630000Y-73810000D03*
X137630000Y-71270000D03*
X140170000Y-71270000D03*
X142710000Y-71270000D03*
G04 #@! TD*
G04 #@! TO.P,,5*
G04 #@! TO.N,N/C*
X150330000Y-73810000D03*
X147790000Y-73810000D03*
X150330000Y-76350000D03*
X147790000Y-76350000D03*
X145250000Y-76350000D03*
X145250000Y-73810000D03*
X145250000Y-71270000D03*
X147790000Y-71270000D03*
X150330000Y-71270000D03*
G04 #@! TD*
G04 #@! TO.P,,5*
G04 #@! TO.N,N/C*
X142710000Y-66190000D03*
X140170000Y-66190000D03*
X142710000Y-68730000D03*
X140170000Y-68730000D03*
X137630000Y-68730000D03*
X137630000Y-66190000D03*
X137630000Y-63650000D03*
X140170000Y-63650000D03*
X142710000Y-63650000D03*
G04 #@! TD*
G04 #@! TO.P,,5*
G04 #@! TO.N,N/C*
X142710000Y-58570000D03*
X140170000Y-58570000D03*
X142710000Y-61110000D03*
X140170000Y-61110000D03*
X137630000Y-61110000D03*
X137630000Y-58570000D03*
X137630000Y-56030000D03*
X140170000Y-56030000D03*
X142710000Y-56030000D03*
G04 #@! TD*
G04 #@! TO.P,,5*
G04 #@! TO.N,N/C*
X150330000Y-66190000D03*
X147790000Y-66190000D03*
X150330000Y-68730000D03*
X147790000Y-68730000D03*
X145250000Y-68730000D03*
X145250000Y-66190000D03*
X145250000Y-63650000D03*
X147790000Y-63650000D03*
X150330000Y-63650000D03*
G04 #@! TD*
G04 #@! TO.P,,5*
G04 #@! TO.N,N/C*
X135090000Y-66190000D03*
X132550000Y-66190000D03*
X135090000Y-68730000D03*
X132550000Y-68730000D03*
X130010000Y-68730000D03*
X130010000Y-66190000D03*
X130010000Y-63650000D03*
X132550000Y-63650000D03*
X135090000Y-63650000D03*
G04 #@! TD*
G04 #@! TO.P,,5*
G04 #@! TO.N,N/C*
X127470000Y-73810000D03*
X124930000Y-73810000D03*
X127470000Y-76350000D03*
X124930000Y-76350000D03*
X122390000Y-76350000D03*
X122390000Y-73810000D03*
X122390000Y-71270000D03*
X124930000Y-71270000D03*
X127470000Y-71270000D03*
G04 #@! TD*
G04 #@! TO.P,,5*
G04 #@! TO.N,N/C*
X112230000Y-73810000D03*
X109690000Y-73810000D03*
X112230000Y-76350000D03*
X109690000Y-76350000D03*
X107150000Y-76350000D03*
X107150000Y-73810000D03*
X107150000Y-71270000D03*
X109690000Y-71270000D03*
X112230000Y-71270000D03*
G04 #@! TD*
G04 #@! TO.P,,5*
G04 #@! TO.N,N/C*
X119850000Y-73810000D03*
X117310000Y-73810000D03*
X119850000Y-76350000D03*
X117310000Y-76350000D03*
X114770000Y-76350000D03*
X114770000Y-73810000D03*
X114770000Y-71270000D03*
X117310000Y-71270000D03*
X119850000Y-71270000D03*
G04 #@! TD*
G04 #@! TO.P,,5*
G04 #@! TO.N,N/C*
X112230000Y-66190000D03*
X109690000Y-66190000D03*
X112230000Y-68730000D03*
X109690000Y-68730000D03*
X107150000Y-68730000D03*
X107150000Y-66190000D03*
X107150000Y-63650000D03*
X109690000Y-63650000D03*
X112230000Y-63650000D03*
G04 #@! TD*
G04 #@! TO.P,,5*
G04 #@! TO.N,N/C*
X112230000Y-58570000D03*
X109690000Y-58570000D03*
X112230000Y-61110000D03*
X109690000Y-61110000D03*
X107150000Y-61110000D03*
X107150000Y-58570000D03*
X107150000Y-56030000D03*
X109690000Y-56030000D03*
X112230000Y-56030000D03*
G04 #@! TD*
G04 #@! TO.P,,5*
G04 #@! TO.N,N/C*
X127470000Y-58570000D03*
X124930000Y-58570000D03*
X127470000Y-61110000D03*
X124930000Y-61110000D03*
X122390000Y-61110000D03*
X122390000Y-58570000D03*
X122390000Y-56030000D03*
X124930000Y-56030000D03*
X127470000Y-56030000D03*
G04 #@! TD*
G04 #@! TO.P,,5*
G04 #@! TO.N,N/C*
X119850000Y-66190000D03*
X117310000Y-66190000D03*
X119850000Y-68730000D03*
X117310000Y-68730000D03*
X114770000Y-68730000D03*
X114770000Y-66190000D03*
X114770000Y-63650000D03*
X117310000Y-63650000D03*
X119850000Y-63650000D03*
G04 #@! TD*
G04 #@! TO.P,,5*
G04 #@! TO.N,N/C*
X127470000Y-66190000D03*
X124930000Y-66190000D03*
X127470000Y-68730000D03*
X124930000Y-68730000D03*
X122390000Y-68730000D03*
X122390000Y-66190000D03*
X122390000Y-63650000D03*
X124930000Y-63650000D03*
X127470000Y-63650000D03*
G04 #@! TD*
G04 #@! TO.P,,5*
G04 #@! TO.N,N/C*
X119850000Y-58570000D03*
X117310000Y-58570000D03*
X119850000Y-61110000D03*
X117310000Y-61110000D03*
X114770000Y-61110000D03*
X114770000Y-58570000D03*
X114770000Y-56030000D03*
X117310000Y-56030000D03*
X119850000Y-56030000D03*
G04 #@! TD*
G04 #@! TO.P,,5*
G04 #@! TO.N,N/C*
X104610000Y-73810000D03*
X102070000Y-73810000D03*
X104610000Y-76350000D03*
X102070000Y-76350000D03*
X99530000Y-76350000D03*
X99530000Y-73810000D03*
X99530000Y-71270000D03*
X102070000Y-71270000D03*
X104610000Y-71270000D03*
G04 #@! TD*
G04 #@! TO.P,,5*
G04 #@! TO.N,N/C*
X104610000Y-58570000D03*
X102070000Y-58570000D03*
X104610000Y-61110000D03*
X102070000Y-61110000D03*
X99530000Y-61110000D03*
X99530000Y-58570000D03*
X99530000Y-56030000D03*
X102070000Y-56030000D03*
X104610000Y-56030000D03*
G04 #@! TD*
G04 #@! TO.P,,5*
G04 #@! TO.N,N/C*
X104610000Y-66190000D03*
X102070000Y-66190000D03*
X104610000Y-68730000D03*
X102070000Y-68730000D03*
X99530000Y-68730000D03*
X99530000Y-66190000D03*
X99530000Y-63650000D03*
X102070000Y-63650000D03*
X104610000Y-63650000D03*
G04 #@! TD*
G04 #@! TO.P,,5*
G04 #@! TO.N,N/C*
X104610000Y-119530000D03*
X102070000Y-119530000D03*
X104610000Y-122070000D03*
X102070000Y-122070000D03*
X99530000Y-122070000D03*
X99530000Y-119530000D03*
X99530000Y-116990000D03*
X102070000Y-116990000D03*
X104610000Y-116990000D03*
G04 #@! TD*
G04 #@! TO.P,,5*
G04 #@! TO.N,N/C*
X104610000Y-111910000D03*
X102070000Y-111910000D03*
X104610000Y-114450000D03*
X102070000Y-114450000D03*
X99530000Y-114450000D03*
X99530000Y-111910000D03*
X99530000Y-109370000D03*
X102070000Y-109370000D03*
X104610000Y-109370000D03*
G04 #@! TD*
G04 #@! TO.P,,5*
G04 #@! TO.N,N/C*
X104610000Y-104290000D03*
X102070000Y-104290000D03*
X104610000Y-106830000D03*
X102070000Y-106830000D03*
X99530000Y-106830000D03*
X99530000Y-104290000D03*
X99530000Y-101750000D03*
X102070000Y-101750000D03*
X104610000Y-101750000D03*
G04 #@! TD*
G04 #@! TO.P,,5*
G04 #@! TO.N,N/C*
X104610000Y-89050000D03*
X102070000Y-89050000D03*
X104610000Y-91590000D03*
X102070000Y-91590000D03*
X99530000Y-91590000D03*
X99530000Y-89050000D03*
X99530000Y-86510000D03*
X102070000Y-86510000D03*
X104610000Y-86510000D03*
G04 #@! TD*
G04 #@! TO.P,,5*
G04 #@! TO.N,N/C*
X104610000Y-96670000D03*
X102070000Y-96670000D03*
X104610000Y-99210000D03*
X102070000Y-99210000D03*
X99530000Y-99210000D03*
X99530000Y-96670000D03*
X99530000Y-94130000D03*
X102070000Y-94130000D03*
X104610000Y-94130000D03*
G04 #@! TD*
G04 #@! TO.P,,5*
G04 #@! TO.N,N/C*
X104610000Y-81430000D03*
X102070000Y-81430000D03*
X104610000Y-83970000D03*
X102070000Y-83970000D03*
X99530000Y-83970000D03*
X99530000Y-81430000D03*
X99530000Y-78890000D03*
X102070000Y-78890000D03*
X104610000Y-78890000D03*
G04 #@! TD*
D11*
G04 #@! TO.P,USB B,5*
G04 #@! TO.N,N/C*
X152895000Y-131595000D03*
X164935000Y-131595000D03*
D12*
G04 #@! TO.P,USB B,4*
X160165000Y-128885000D03*
G04 #@! TO.P,USB B,3*
X157665000Y-128885000D03*
G04 #@! TO.P,USB B,2*
X157665000Y-126885000D03*
D13*
G04 #@! TO.P,USB B,1*
X160165000Y-126885000D03*
G04 #@! TD*
D14*
G04 #@! TO.P,P2,15*
G04 #@! TO.N,N/C*
X132513568Y-134580100D03*
G04 #@! TO.P,P2,14*
X132513568Y-132040100D03*
G04 #@! TO.P,P2,13*
X132513568Y-129500100D03*
G04 #@! TO.P,P2,12*
X132513568Y-126960100D03*
G04 #@! TO.P,P2,11*
X132513568Y-124420100D03*
G04 #@! TO.P,P2,10*
X132513568Y-121880100D03*
G04 #@! TO.P,P2,9*
X132513568Y-119340100D03*
G04 #@! TO.P,P2,8*
X132513568Y-116800100D03*
G04 #@! TO.P,P2,7*
X132513568Y-114260100D03*
G04 #@! TO.P,P2,6*
X132513568Y-111720100D03*
G04 #@! TO.P,P2,5*
X132513568Y-109180100D03*
G04 #@! TO.P,P2,4*
X132513568Y-106640100D03*
G04 #@! TO.P,P2,3*
X132513568Y-104100100D03*
G04 #@! TO.P,P2,2*
X132513568Y-101560100D03*
G04 #@! TO.P,P2,1*
X132513568Y-99020100D03*
G04 #@! TD*
G04 #@! TO.P,P1,15*
G04 #@! TO.N,N/C*
X117273568Y-134580100D03*
G04 #@! TO.P,P1,14*
X117273568Y-132040100D03*
G04 #@! TO.P,P1,13*
X117273568Y-129500100D03*
G04 #@! TO.P,P1,12*
X117273568Y-126960100D03*
G04 #@! TO.P,P1,11*
X117273568Y-124420100D03*
G04 #@! TO.P,P1,10*
X117273568Y-121880100D03*
G04 #@! TO.P,P1,9*
X117273568Y-119340100D03*
G04 #@! TO.P,P1,8*
X117273568Y-116800100D03*
G04 #@! TO.P,P1,7*
X117273568Y-114260100D03*
G04 #@! TO.P,P1,6*
X117273568Y-111720100D03*
G04 #@! TO.P,P1,5*
X117273568Y-109180100D03*
G04 #@! TO.P,P1,4*
X117273568Y-106640100D03*
G04 #@! TO.P,P1,3*
X117273568Y-104100100D03*
G04 #@! TO.P,P1,2*
X117273568Y-101560100D03*
G04 #@! TO.P,P1,1*
X117273568Y-99020100D03*
G04 #@! TD*
D15*
G04 #@! TO.N,N/C*
G04 #@! TO.C,DC *
G36*
X93760765Y-128404213D02*
X93845704Y-128416813D01*
X93928999Y-128437677D01*
X94009848Y-128466605D01*
X94087472Y-128503319D01*
X94161124Y-128547464D01*
X94230094Y-128598616D01*
X94293718Y-128656282D01*
X94351384Y-128719906D01*
X94402536Y-128788876D01*
X94446681Y-128862528D01*
X94483395Y-128940152D01*
X94512323Y-129021001D01*
X94533187Y-129104296D01*
X94545787Y-129189235D01*
X94550000Y-129275000D01*
X94550000Y-131025000D01*
X94545787Y-131110765D01*
X94533187Y-131195704D01*
X94512323Y-131278999D01*
X94483395Y-131359848D01*
X94446681Y-131437472D01*
X94402536Y-131511124D01*
X94351384Y-131580094D01*
X94293718Y-131643718D01*
X94230094Y-131701384D01*
X94161124Y-131752536D01*
X94087472Y-131796681D01*
X94009848Y-131833395D01*
X93928999Y-131862323D01*
X93845704Y-131883187D01*
X93760765Y-131895787D01*
X93675000Y-131900000D01*
X91925000Y-131900000D01*
X91839235Y-131895787D01*
X91754296Y-131883187D01*
X91671001Y-131862323D01*
X91590152Y-131833395D01*
X91512528Y-131796681D01*
X91438876Y-131752536D01*
X91369906Y-131701384D01*
X91306282Y-131643718D01*
X91248616Y-131580094D01*
X91197464Y-131511124D01*
X91153319Y-131437472D01*
X91116605Y-131359848D01*
X91087677Y-131278999D01*
X91066813Y-131195704D01*
X91054213Y-131110765D01*
X91050000Y-131025000D01*
X91050000Y-129275000D01*
X91054213Y-129189235D01*
X91066813Y-129104296D01*
X91087677Y-129021001D01*
X91116605Y-128940152D01*
X91153319Y-128862528D01*
X91197464Y-128788876D01*
X91248616Y-128719906D01*
X91306282Y-128656282D01*
X91369906Y-128598616D01*
X91438876Y-128547464D01*
X91512528Y-128503319D01*
X91590152Y-128466605D01*
X91671001Y-128437677D01*
X91754296Y-128416813D01*
X91839235Y-128404213D01*
X91925000Y-128400000D01*
X93675000Y-128400000D01*
X93760765Y-128404213D01*
X93760765Y-128404213D01*
G37*
D11*
G04 #@! TD*
G04 #@! TO.P,DC ,3*
G04 #@! TO.N,N/C*
X92800000Y-130150000D03*
D15*
G04 #@! TO.N,N/C*
G04 #@! TO.C,DC *
G36*
X89173513Y-131653611D02*
X89246318Y-131664411D01*
X89317714Y-131682295D01*
X89387013Y-131707090D01*
X89453548Y-131738559D01*
X89516678Y-131776398D01*
X89575795Y-131820242D01*
X89630330Y-131869670D01*
X89679758Y-131924205D01*
X89723602Y-131983322D01*
X89761441Y-132046452D01*
X89792910Y-132112987D01*
X89817705Y-132182286D01*
X89835589Y-132253682D01*
X89846389Y-132326487D01*
X89850000Y-132400000D01*
X89850000Y-133900000D01*
X89846389Y-133973513D01*
X89835589Y-134046318D01*
X89817705Y-134117714D01*
X89792910Y-134187013D01*
X89761441Y-134253548D01*
X89723602Y-134316678D01*
X89679758Y-134375795D01*
X89630330Y-134430330D01*
X89575795Y-134479758D01*
X89516678Y-134523602D01*
X89453548Y-134561441D01*
X89387013Y-134592910D01*
X89317714Y-134617705D01*
X89246318Y-134635589D01*
X89173513Y-134646389D01*
X89100000Y-134650000D01*
X87100000Y-134650000D01*
X87026487Y-134646389D01*
X86953682Y-134635589D01*
X86882286Y-134617705D01*
X86812987Y-134592910D01*
X86746452Y-134561441D01*
X86683322Y-134523602D01*
X86624205Y-134479758D01*
X86569670Y-134430330D01*
X86520242Y-134375795D01*
X86476398Y-134316678D01*
X86438559Y-134253548D01*
X86407090Y-134187013D01*
X86382295Y-134117714D01*
X86364411Y-134046318D01*
X86353611Y-133973513D01*
X86350000Y-133900000D01*
X86350000Y-132400000D01*
X86353611Y-132326487D01*
X86364411Y-132253682D01*
X86382295Y-132182286D01*
X86407090Y-132112987D01*
X86438559Y-132046452D01*
X86476398Y-131983322D01*
X86520242Y-131924205D01*
X86569670Y-131869670D01*
X86624205Y-131820242D01*
X86683322Y-131776398D01*
X86746452Y-131738559D01*
X86812987Y-131707090D01*
X86882286Y-131682295D01*
X86953682Y-131664411D01*
X87026487Y-131653611D01*
X87100000Y-131650000D01*
X89100000Y-131650000D01*
X89173513Y-131653611D01*
X89173513Y-131653611D01*
G37*
D16*
G04 #@! TD*
G04 #@! TO.P,DC ,2*
G04 #@! TO.N,N/C*
X88100000Y-133150000D03*
D17*
G04 #@! TO.P,DC ,1*
G04 #@! TO.N,N/C*
X88100000Y-127150000D03*
G04 #@! TD*
D18*
G04 #@! TO.P,REF\002A\002A,6*
G04 #@! TO.N,N/C*
X155685000Y-142130000D03*
X161485000Y-142130000D03*
D19*
X162085000Y-142130000D03*
X155085000Y-142130000D03*
D20*
X157585000Y-142130000D03*
D21*
X161085000Y-139430000D03*
D22*
G04 #@! TO.P,REF\002A\002A,3*
X158585000Y-139430000D03*
G04 #@! TO.P,REF\002A\002A,4*
X159235000Y-139430000D03*
G04 #@! TO.P,REF\002A\002A,5*
X159885000Y-139430000D03*
G04 #@! TO.P,REF\002A\002A,1*
X157285000Y-139430000D03*
G04 #@! TO.P,REF\002A\002A,2*
X157935000Y-139430000D03*
D21*
G04 #@! TO.P,REF\002A\002A,6*
X156085000Y-139430000D03*
D20*
X159585000Y-142130000D03*
G04 #@! TD*
D23*
G04 #@! TO.N,*
X156680000Y-132230000D03*
X158625000Y-132270000D03*
D24*
X129710510Y-137310000D03*
D23*
X160490000Y-136675000D03*
X149695000Y-140485000D03*
G04 #@! TD*
D25*
G04 #@! TO.N,*
X132823517Y-98710151D02*
X132513568Y-99020100D01*
X132823517Y-101250151D02*
X132513568Y-101560100D01*
D26*
X132691610Y-101560100D02*
X131425610Y-101560100D01*
X131425610Y-101560100D02*
X131115661Y-101250151D01*
X130937619Y-106330151D02*
X131247568Y-106640100D01*
X131247568Y-106640100D02*
X132513568Y-106640100D01*
X129210661Y-106330151D02*
X130937619Y-106330151D01*
X129210661Y-136675000D02*
X129710510Y-137174849D01*
X139980100Y-99020100D02*
X140170000Y-99210000D01*
X132513568Y-99020100D02*
X139980100Y-99020100D01*
X140170000Y-99210000D02*
X142710000Y-99210000D01*
X139980100Y-101560100D02*
X140170000Y-101750000D01*
X132513568Y-101560100D02*
X139980100Y-101560100D01*
X140170000Y-101750000D02*
X142710000Y-101750000D01*
X139980100Y-104100100D02*
X140170000Y-104290000D01*
X132513568Y-104100100D02*
X139980100Y-104100100D01*
X140170000Y-104290000D02*
X142710000Y-104290000D01*
X139980100Y-106640100D02*
X140170000Y-106830000D01*
X132513568Y-106640100D02*
X139980100Y-106640100D01*
X140170000Y-106830000D02*
X142710000Y-106830000D01*
X140170000Y-109370000D02*
X142710000Y-109370000D01*
X140170000Y-111910000D02*
X142710000Y-111910000D01*
X142710000Y-114450000D02*
X140170000Y-114450000D01*
X140170000Y-116990000D02*
X142710000Y-116990000D01*
X140170000Y-119530000D02*
X142710000Y-119530000D01*
X140170000Y-122070000D02*
X142710000Y-122070000D01*
X140170000Y-124610000D02*
X142710000Y-124610000D01*
X139980100Y-109180100D02*
X140170000Y-109370000D01*
X132513568Y-109180100D02*
X139980100Y-109180100D01*
X139980100Y-111720100D02*
X140170000Y-111910000D01*
X132513568Y-111720100D02*
X139980100Y-111720100D01*
X139980100Y-114260100D02*
X140170000Y-114450000D01*
X132513568Y-114260100D02*
X139980100Y-114260100D01*
X139980100Y-116800100D02*
X140170000Y-116990000D01*
X132513568Y-116800100D02*
X139980100Y-116800100D01*
X139980100Y-119340100D02*
X140170000Y-119530000D01*
X132513568Y-119340100D02*
X139980100Y-119340100D01*
X139980100Y-121880100D02*
X140170000Y-122070000D01*
X132513568Y-121880100D02*
X139980100Y-121880100D01*
X139980100Y-124420100D02*
X140170000Y-124610000D01*
X132513568Y-124420100D02*
X139980100Y-124420100D01*
X139980100Y-126960100D02*
X140170000Y-127150000D01*
X132513568Y-126960100D02*
X139980100Y-126960100D01*
X140170000Y-127150000D02*
X142710000Y-127150000D01*
X139980100Y-129500100D02*
X140170000Y-129690000D01*
X132513568Y-129500100D02*
X139980100Y-129500100D01*
X140170000Y-129690000D02*
X142710000Y-129690000D01*
X139980100Y-132040100D02*
X140170000Y-132230000D01*
X132513568Y-132040100D02*
X139980100Y-132040100D01*
X140170000Y-132230000D02*
X142710000Y-132230000D01*
X139980100Y-134580100D02*
X140170000Y-134770000D01*
X132513568Y-134580100D02*
X139980100Y-134580100D01*
X140170000Y-134770000D02*
X142710000Y-134770000D01*
X109879900Y-134580100D02*
X109690000Y-134770000D01*
X117273568Y-134580100D02*
X109879900Y-134580100D01*
X109690000Y-134770000D02*
X107150000Y-134770000D01*
X109879900Y-132040100D02*
X109690000Y-132230000D01*
X117273568Y-132040100D02*
X109879900Y-132040100D01*
X109690000Y-132230000D02*
X107150000Y-132230000D01*
X109879900Y-129500100D02*
X109690000Y-129690000D01*
X117273568Y-129500100D02*
X109879900Y-129500100D01*
X109690000Y-129690000D02*
X107150000Y-129690000D01*
X109879900Y-126960100D02*
X109690000Y-127150000D01*
X117273568Y-126960100D02*
X109879900Y-126960100D01*
X109690000Y-127150000D02*
X107150000Y-127150000D01*
X109879900Y-124420100D02*
X109690000Y-124610000D01*
X117273568Y-124420100D02*
X109879900Y-124420100D01*
X109690000Y-124610000D02*
X107150000Y-124610000D01*
X109879900Y-121880100D02*
X109690000Y-122070000D01*
X117273568Y-121880100D02*
X109879900Y-121880100D01*
X109690000Y-122070000D02*
X107150000Y-122070000D01*
X109879900Y-119340100D02*
X109690000Y-119530000D01*
X117273568Y-119340100D02*
X109879900Y-119340100D01*
X109690000Y-119530000D02*
X107150000Y-119530000D01*
X109879900Y-116800100D02*
X109690000Y-116990000D01*
X117273568Y-116800100D02*
X109879900Y-116800100D01*
X109690000Y-116990000D02*
X107150000Y-116990000D01*
X109879900Y-114260100D02*
X109690000Y-114450000D01*
X117273568Y-114260100D02*
X109879900Y-114260100D01*
X109690000Y-114450000D02*
X107150000Y-114450000D01*
X109879900Y-111720100D02*
X109690000Y-111910000D01*
X117273568Y-111720100D02*
X109879900Y-111720100D01*
X107150000Y-111910000D02*
X109690000Y-111910000D01*
X109879900Y-109180100D02*
X109690000Y-109370000D01*
X117273568Y-109180100D02*
X109879900Y-109180100D01*
X109690000Y-109370000D02*
X107150000Y-109370000D01*
X109879900Y-106640100D02*
X109690000Y-106830000D01*
X117273568Y-106640100D02*
X109879900Y-106640100D01*
X109690000Y-106830000D02*
X107150000Y-106830000D01*
X109879900Y-104100100D02*
X109690000Y-104290000D01*
X117273568Y-104100100D02*
X109879900Y-104100100D01*
X109690000Y-104290000D02*
X107150000Y-104290000D01*
X109879900Y-101560100D02*
X109690000Y-101750000D01*
X117273568Y-101560100D02*
X109879900Y-101560100D01*
X109690000Y-101750000D02*
X107150000Y-101750000D01*
X109879900Y-99020100D02*
X109690000Y-99210000D01*
X117273568Y-99020100D02*
X109879900Y-99020100D01*
X109690000Y-99210000D02*
X107150000Y-99210000D01*
X140170000Y-137310000D02*
X129710510Y-137310000D01*
X127305661Y-101250151D02*
X130937619Y-101250151D01*
X127305661Y-139350151D02*
X127305661Y-101250151D01*
X140170000Y-139850000D02*
X127805510Y-139850000D01*
X127805510Y-139850000D02*
X127305661Y-139350151D01*
X124265812Y-138580000D02*
X109690000Y-138580000D01*
D27*
X160490000Y-127150000D02*
X160490000Y-125550000D01*
X160490000Y-125550000D02*
X160490000Y-125245000D01*
X160490000Y-125245000D02*
X159855000Y-124610000D01*
X159855000Y-124610000D02*
X156045000Y-124610000D01*
D26*
X89800000Y-133150000D02*
X92800000Y-130150000D01*
X88100000Y-133150000D02*
X89800000Y-133150000D01*
D27*
X155410000Y-123975000D02*
X155410000Y-122070000D01*
X156045000Y-124610000D02*
X155410000Y-123975000D01*
X160530000Y-132190000D02*
X163030000Y-129690000D01*
X163030000Y-124610000D02*
X163030000Y-122070000D01*
X157990000Y-122110000D02*
X157950000Y-122070000D01*
X163030000Y-129690000D02*
X163030000Y-124610000D01*
X160490000Y-132135000D02*
X160490000Y-129055000D01*
D26*
X84290000Y-127150000D02*
X88100000Y-127150000D01*
X84290000Y-139850000D02*
X84290000Y-127150000D01*
D27*
X152870000Y-123975000D02*
X155410000Y-123975000D01*
X149695000Y-127150000D02*
X152870000Y-123975000D01*
X149695000Y-136675000D02*
X149695000Y-127150000D01*
X142710000Y-137310000D02*
X149060000Y-137310000D01*
X149060000Y-137310000D02*
X149695000Y-136675000D01*
X142710000Y-139850000D02*
X149060000Y-139850000D01*
X149060000Y-139850000D02*
X149695000Y-140485000D01*
D28*
X151600000Y-136675000D02*
X149695000Y-136675000D01*
D26*
X103340000Y-134770000D02*
X99530000Y-134770000D01*
X99530000Y-137310000D02*
X102705000Y-137310000D01*
X102705000Y-137310000D02*
X103340000Y-137310000D01*
X103340000Y-137310000D02*
X104610000Y-138580000D01*
X104610000Y-138580000D02*
X109690000Y-138580000D01*
X124930000Y-137945000D02*
X124295000Y-138580000D01*
X124930000Y-98710151D02*
X124930000Y-137945000D01*
X130937619Y-98710151D02*
X124930000Y-98710151D01*
X132513568Y-99020100D02*
X131247568Y-99020100D01*
X131247568Y-99020100D02*
X130937619Y-98710151D01*
X121120000Y-107764490D02*
X121120000Y-136040000D01*
X117273568Y-106640100D02*
X119995610Y-106640100D01*
X119995610Y-106640100D02*
X121120000Y-107764490D01*
X105245000Y-136675000D02*
X103340000Y-134770000D01*
X121120000Y-136040000D02*
X120485000Y-136675000D01*
X120485000Y-136675000D02*
X105245000Y-136675000D01*
X97030000Y-139850000D02*
X97030000Y-137350000D01*
X84290000Y-139850000D02*
X96990000Y-139850000D01*
X96990000Y-134770000D02*
X96990000Y-131595000D01*
X95545000Y-130150000D02*
X96990000Y-131595000D01*
X92800000Y-130150000D02*
X95545000Y-130150000D01*
X129210661Y-136539849D02*
X129210661Y-106330151D01*
D28*
X152870000Y-137945000D02*
X151600000Y-136675000D01*
X157315000Y-137945000D02*
X152870000Y-137945000D01*
X158585000Y-138707000D02*
X158585000Y-132270000D01*
X157079999Y-132629999D02*
X156680000Y-132230000D01*
X157180001Y-132629999D02*
X157079999Y-132629999D01*
X157280000Y-132530000D02*
X157180001Y-132629999D01*
X157950000Y-138707000D02*
X157950000Y-133200000D01*
X157950000Y-133200000D02*
X157280000Y-132530000D01*
X157315000Y-138580000D02*
X157315000Y-137960000D01*
X157188000Y-138707000D02*
X157315000Y-138580000D01*
D27*
X160490000Y-136675000D02*
X160490000Y-131341000D01*
D28*
X159880400Y-138630800D02*
X159880400Y-137233800D01*
X159931200Y-137233800D02*
X160490000Y-136675000D01*
X159880400Y-137233800D02*
X159931200Y-137233800D01*
G04 #@! TD*
M02*
