M48
;DRILL file {KiCad (5.0.0)} date 08/07/19 20:49:02
;FORMAT={3:3/ absolute / metric / suppress leading zeros}
FMAT,2
METRIC,TZ
T1C0.400
T2C0.600
T3C0.850
T4C0.920
T5C1.000
T6C1.016
T7C2.330
T8C2.700
%
G90
G05
M71
T1
X129711Y-137310
X149695Y-140485
X156680Y-132230
X158625Y-132270
X160490Y-136675
T3
X156085Y-139430
X161085Y-139430
T4
X157665Y-126885
X157665Y-128885
X160165Y-126885
X160165Y-128885
T6
X99530Y-78890
X99530Y-81430
X99530Y-83970
X102070Y-78890
X102070Y-81430
X102070Y-83970
X104610Y-78890
X104610Y-81430
X104610Y-83970
X124930Y-48410
X124930Y-50950
X127470Y-48410
X127470Y-50950
X84290Y-48410
X84290Y-50950
X86830Y-48410
X86830Y-50950
X130010Y-78890
X130010Y-81430
X130010Y-83970
X132550Y-78890
X132550Y-81430
X132550Y-83970
X135090Y-78890
X135090Y-81430
X135090Y-83970
X84290Y-122070
X160490Y-89050
X160490Y-91590
X160490Y-94130
X163030Y-89050
X163030Y-91590
X163030Y-94130
X165570Y-89050
X165570Y-91590
X165570Y-94130
X163030Y-104290
X163030Y-106830
X165570Y-104290
X165570Y-106830
X79210Y-68730
X79210Y-71270
X79210Y-73810
X81750Y-68730
X81750Y-71270
X81750Y-73810
X84290Y-68730
X84290Y-71270
X84290Y-73810
X107150Y-114450
X107150Y-116990
X109690Y-114450
X109690Y-116990
X150330Y-116990
X150330Y-119530
X152870Y-116990
X152870Y-119530
X150330Y-56030
X107150Y-104290
X107150Y-106830
X109690Y-104290
X109690Y-106830
X86830Y-58570
X86830Y-61110
X89370Y-58570
X89370Y-61110
X165570Y-61110
X165570Y-63650
X165570Y-66190
X168110Y-61110
X168110Y-63650
X168110Y-66190
X170650Y-61110
X170650Y-63650
X170650Y-66190
X152870Y-61110
X152870Y-63650
X152870Y-66190
X155410Y-61110
X155410Y-63650
X155410Y-66190
X157950Y-61110
X157950Y-63650
X157950Y-66190
X107150Y-129690
X107150Y-132230
X109690Y-129690
X109690Y-132230
X117310Y-94130
X163030Y-73810
X91910Y-71270
X91910Y-73810
X91910Y-76350
X94450Y-71270
X94450Y-73810
X94450Y-76350
X96990Y-71270
X96990Y-73810
X96990Y-76350
X152870Y-104290
X152870Y-106830
X155410Y-104290
X155410Y-106830
X152870Y-53490
X140170Y-134770
X145250Y-122070
X145250Y-124610
X147790Y-122070
X147790Y-124610
X119850Y-53490
X168110Y-89050
X168110Y-91590
X170650Y-89050
X170650Y-91590
X127470Y-53490
X107150Y-71270
X107150Y-73810
X107150Y-76350
X109690Y-71270
X109690Y-73810
X109690Y-76350
X112230Y-71270
X112230Y-73810
X112230Y-76350
X130010Y-63650
X130010Y-66190
X130010Y-68730
X132550Y-63650
X132550Y-66190
X132550Y-68730
X135090Y-63650
X135090Y-66190
X135090Y-68730
X142710Y-134770
X155410Y-48410
X155410Y-50950
X157950Y-48410
X157950Y-50950
X160490Y-48410
X160490Y-50950
X163030Y-48410
X163030Y-50950
X81750Y-50950
X132514Y-99020
X132514Y-101560
X132514Y-104100
X132514Y-106640
X132514Y-109180
X132514Y-111720
X132514Y-114260
X132514Y-116800
X132514Y-119340
X132514Y-121880
X132514Y-124420
X132514Y-126960
X132514Y-129500
X132514Y-132040
X132514Y-134580
X122390Y-71270
X122390Y-73810
X122390Y-76350
X124930Y-71270
X124930Y-73810
X124930Y-76350
X127470Y-71270
X127470Y-73810
X127470Y-76350
X124930Y-53490
X140170Y-48410
X140170Y-50950
X142710Y-48410
X142710Y-50950
X137630Y-78890
X137630Y-81430
X137630Y-83970
X140170Y-78890
X140170Y-81430
X140170Y-83970
X142710Y-78890
X142710Y-81430
X142710Y-83970
X160490Y-58570
X160490Y-61110
X163030Y-58570
X163030Y-61110
X79210Y-106830
X79210Y-109370
X79210Y-111910
X81750Y-106830
X81750Y-109370
X81750Y-111910
X84290Y-106830
X84290Y-109370
X84290Y-111910
X79210Y-53490
X79210Y-56030
X79210Y-58570
X81750Y-53490
X81750Y-56030
X81750Y-58570
X84290Y-53490
X84290Y-56030
X84290Y-58570
X160490Y-109370
X160490Y-111910
X160490Y-114450
X163030Y-109370
X163030Y-111910
X163030Y-114450
X165570Y-109370
X165570Y-111910
X165570Y-114450
X107150Y-94130
X107150Y-96670
X109690Y-94130
X109690Y-96670
X155410Y-116990
X155410Y-119530
X157950Y-116990
X157950Y-119530
X145250Y-101750
X145250Y-104290
X145250Y-106830
X147790Y-101750
X147790Y-104290
X147790Y-106830
X150330Y-101750
X150330Y-104290
X150330Y-106830
X140170Y-119530
X140170Y-122070
X142710Y-119530
X142710Y-122070
X86830Y-83970
X86830Y-86510
X89370Y-83970
X89370Y-86510
X147790Y-56030
X122390Y-86510
X122390Y-89050
X122390Y-91590
X124930Y-86510
X124930Y-89050
X124930Y-91590
X127470Y-86510
X127470Y-89050
X127470Y-91590
X86830Y-63650
X86830Y-66190
X89370Y-63650
X89370Y-66190
X157950Y-104290
X157950Y-106830
X160490Y-104290
X160490Y-106830
X119850Y-94130
X163030Y-122070
X155410Y-58570
X135090Y-94130
X165570Y-76350
X165570Y-78890
X165570Y-81430
X168110Y-76350
X168110Y-78890
X168110Y-81430
X170650Y-76350
X170650Y-78890
X170650Y-81430
X109690Y-53490
X102070Y-53490
X114770Y-71270
X114770Y-73810
X114770Y-76350
X117310Y-71270
X117310Y-73810
X117310Y-76350
X119850Y-71270
X119850Y-73810
X119850Y-76350
X142710Y-53490
X102070Y-124610
X102070Y-127150
X104610Y-124610
X104610Y-127150
X99530Y-94130
X99530Y-96670
X99530Y-99210
X102070Y-94130
X102070Y-96670
X102070Y-99210
X104610Y-94130
X104610Y-96670
X104610Y-99210
X137630Y-94130
X114770Y-56030
X114770Y-58570
X114770Y-61110
X117310Y-56030
X117310Y-58570
X117310Y-61110
X119850Y-56030
X119850Y-58570
X119850Y-61110
X150330Y-53490
X165570Y-50950
X109690Y-48410
X109690Y-50950
X112230Y-48410
X112230Y-50950
X165570Y-116990
X165570Y-119530
X168110Y-116990
X168110Y-119530
X117274Y-99020
X117274Y-101560
X117274Y-104100
X117274Y-106640
X117274Y-109180
X117274Y-111720
X117274Y-114260
X117274Y-116800
X117274Y-119340
X117274Y-121880
X117274Y-124420
X117274Y-126960
X117274Y-129500
X117274Y-132040
X117274Y-134580
X79210Y-99210
X79210Y-101750
X79210Y-104290
X81750Y-99210
X81750Y-101750
X81750Y-104290
X84290Y-99210
X84290Y-101750
X84290Y-104290
X145250Y-109370
X145250Y-111910
X145250Y-114450
X147790Y-109370
X147790Y-111910
X147790Y-114450
X150330Y-109370
X150330Y-111910
X150330Y-114450
X145250Y-132230
X145250Y-134770
X147790Y-132230
X147790Y-134770
X170650Y-86510
X168110Y-109370
X168110Y-111910
X170650Y-109370
X170650Y-111910
X130010Y-86510
X130010Y-89050
X130010Y-91590
X132550Y-86510
X132550Y-89050
X132550Y-91590
X135090Y-86510
X135090Y-89050
X135090Y-91590
X86830Y-99210
X86830Y-101750
X89370Y-99210
X89370Y-101750
X107150Y-109370
X107150Y-111910
X109690Y-109370
X109690Y-111910
X86830Y-78890
X86830Y-81430
X89370Y-78890
X89370Y-81430
X157950Y-56030
X114770Y-86510
X114770Y-89050
X114770Y-91590
X117310Y-86510
X117310Y-89050
X117310Y-91590
X119850Y-86510
X119850Y-89050
X119850Y-91590
X160490Y-116990
X160490Y-119530
X163030Y-116990
X163030Y-119530
X152870Y-76350
X152870Y-78890
X155410Y-76350
X155410Y-78890
X160490Y-86510
X114770Y-94130
X160490Y-122070
X155410Y-56030
X91910Y-101750
X91910Y-104290
X91910Y-106830
X94450Y-101750
X94450Y-104290
X94450Y-106830
X96990Y-101750
X96990Y-104290
X96990Y-106830
X160490Y-63650
X160490Y-66190
X163030Y-63650
X163030Y-66190
X127470Y-94130
X163030Y-78890
X91910Y-86510
X91910Y-89050
X91910Y-91590
X94450Y-86510
X94450Y-89050
X94450Y-91590
X96990Y-86510
X96990Y-89050
X96990Y-91590
X91910Y-53490
X122390Y-94130
X165570Y-68730
X165570Y-71270
X165570Y-73810
X168110Y-68730
X168110Y-71270
X168110Y-73810
X170650Y-68730
X170650Y-71270
X170650Y-73810
X130010Y-56030
X130010Y-58570
X130010Y-61110
X132550Y-56030
X132550Y-58570
X132550Y-61110
X135090Y-56030
X135090Y-58570
X135090Y-61110
X104610Y-53490
X99530Y-56030
X99530Y-58570
X99530Y-61110
X102070Y-56030
X102070Y-58570
X102070Y-61110
X104610Y-56030
X104610Y-58570
X104610Y-61110
X135090Y-53490
X114770Y-63650
X114770Y-66190
X114770Y-68730
X117310Y-63650
X117310Y-66190
X117310Y-68730
X119850Y-63650
X119850Y-66190
X119850Y-68730
X109690Y-134770
X107150Y-63650
X107150Y-66190
X107150Y-68730
X109690Y-63650
X109690Y-66190
X109690Y-68730
X112230Y-63650
X112230Y-66190
X112230Y-68730
X130010Y-94130
X114770Y-48410
X114770Y-50950
X117310Y-48410
X117310Y-50950
X99530Y-63650
X99530Y-66190
X99530Y-68730
X102070Y-63650
X102070Y-66190
X102070Y-68730
X104610Y-63650
X104610Y-66190
X104610Y-68730
X114770Y-53490
X150330Y-48410
X150330Y-50950
X152870Y-48410
X152870Y-50950
X130010Y-71270
X130010Y-73810
X130010Y-76350
X132550Y-71270
X132550Y-73810
X132550Y-76350
X135090Y-71270
X135090Y-73810
X135090Y-76350
X145250Y-53490
X96990Y-134770
X96990Y-137310
X99530Y-134770
X99530Y-137310
X79210Y-114450
X79210Y-116990
X79210Y-119530
X81750Y-114450
X81750Y-116990
X81750Y-119530
X84290Y-114450
X84290Y-116990
X84290Y-119530
X107150Y-53490
X79210Y-91590
X79210Y-94130
X79210Y-96670
X81750Y-91590
X81750Y-94130
X81750Y-96670
X84290Y-91590
X84290Y-94130
X84290Y-96670
X152870Y-96670
X152870Y-99210
X152870Y-101750
X155410Y-96670
X155410Y-99210
X155410Y-101750
X157950Y-96670
X157950Y-99210
X157950Y-101750
X140170Y-124610
X140170Y-127150
X142710Y-124610
X142710Y-127150
X170650Y-116990
X86830Y-114450
X86830Y-116990
X89370Y-114450
X89370Y-116990
X168110Y-104290
X168110Y-106830
X170650Y-104290
X170650Y-106830
X114770Y-78890
X114770Y-81430
X114770Y-83970
X117310Y-78890
X117310Y-81430
X117310Y-83970
X119850Y-78890
X119850Y-81430
X119850Y-83970
X140170Y-104290
X140170Y-106830
X142710Y-104290
X142710Y-106830
X86830Y-73810
X86830Y-76350
X89370Y-73810
X89370Y-76350
X165570Y-83970
X165570Y-86510
X168110Y-83970
X168110Y-86510
X152870Y-109370
X152870Y-111910
X152870Y-114450
X155410Y-109370
X155410Y-111910
X155410Y-114450
X157950Y-109370
X157950Y-111910
X157950Y-114450
X86830Y-94130
X86830Y-96670
X89370Y-94130
X89370Y-96670
X140170Y-99210
X140170Y-101750
X142710Y-99210
X142710Y-101750
X157950Y-76350
X157950Y-78890
X160490Y-76350
X160490Y-78890
X99530Y-139850
X91910Y-56030
X91910Y-58570
X91910Y-61110
X94450Y-56030
X94450Y-58570
X94450Y-61110
X96990Y-56030
X96990Y-58570
X96990Y-61110
X147790Y-58570
X147790Y-61110
X150330Y-58570
X150330Y-61110
X152870Y-58570
X157950Y-122070
X160490Y-81430
X160490Y-83970
X163030Y-81430
X163030Y-83970
X91910Y-116990
X91910Y-119530
X91910Y-122070
X94450Y-116990
X94450Y-119530
X94450Y-122070
X96990Y-116990
X96990Y-119530
X96990Y-122070
X160490Y-73810
X124930Y-94130
X91910Y-78890
X91910Y-81430
X91910Y-83970
X94450Y-78890
X94450Y-81430
X94450Y-83970
X96990Y-78890
X96990Y-81430
X96990Y-83970
X96990Y-53490
X163030Y-86510
X99530Y-109370
X99530Y-111910
X99530Y-114450
X102070Y-109370
X102070Y-111910
X102070Y-114450
X104610Y-109370
X104610Y-111910
X104610Y-114450
X132550Y-94130
X122390Y-63650
X122390Y-66190
X122390Y-68730
X124930Y-63650
X124930Y-66190
X124930Y-68730
X127470Y-63650
X127470Y-66190
X127470Y-68730
X94450Y-53490
X168110Y-50950
X137630Y-71270
X137630Y-73810
X137630Y-76350
X140170Y-71270
X140170Y-73810
X140170Y-76350
X142710Y-71270
X142710Y-73810
X142710Y-76350
X99530Y-48410
X99530Y-50950
X102070Y-48410
X102070Y-50950
X160490Y-53490
X160490Y-56030
X163030Y-53490
X163030Y-56030
X107150Y-78890
X107150Y-81430
X107150Y-83970
X109690Y-78890
X109690Y-81430
X109690Y-83970
X112230Y-78890
X112230Y-81430
X112230Y-83970
X79210Y-83970
X79210Y-86510
X79210Y-89050
X81750Y-83970
X81750Y-86510
X81750Y-89050
X84290Y-83970
X84290Y-86510
X84290Y-89050
X152870Y-89050
X152870Y-91590
X152870Y-94130
X155410Y-89050
X155410Y-91590
X155410Y-94130
X157950Y-89050
X157950Y-91590
X157950Y-94130
X107150Y-99210
X107150Y-101750
X109690Y-99210
X109690Y-101750
X170650Y-119530
X152870Y-81430
X152870Y-83970
X152870Y-86510
X155410Y-81430
X155410Y-83970
X155410Y-86510
X157950Y-81430
X157950Y-83970
X157950Y-86510
X86830Y-104290
X86830Y-106830
X89370Y-104290
X89370Y-106830
X168110Y-94130
X168110Y-96670
X170650Y-94130
X170650Y-96670
X152870Y-68730
X152870Y-71270
X152870Y-73810
X155410Y-68730
X155410Y-71270
X155410Y-73810
X157950Y-68730
X157950Y-71270
X157950Y-73810
X107150Y-119530
X107150Y-122070
X109690Y-119530
X109690Y-122070
X86830Y-68730
X86830Y-71270
X89370Y-68730
X89370Y-71270
X145250Y-56030
X99530Y-127150
X155410Y-122070
X91910Y-109370
X91910Y-111910
X91910Y-114450
X94450Y-109370
X94450Y-111910
X94450Y-114450
X96990Y-109370
X96990Y-111910
X96990Y-114450
X165570Y-53490
X165570Y-56030
X165570Y-58570
X168110Y-53490
X168110Y-56030
X168110Y-58570
X170650Y-53490
X170650Y-56030
X170650Y-58570
X168110Y-99210
X168110Y-101750
X170650Y-99210
X170650Y-101750
X137630Y-56030
X137630Y-58570
X137630Y-61110
X140170Y-56030
X140170Y-58570
X140170Y-61110
X142710Y-56030
X142710Y-58570
X142710Y-61110
X102070Y-129690
X102070Y-132230
X104610Y-129690
X104610Y-132230
X107150Y-56030
X107150Y-58570
X107150Y-61110
X109690Y-56030
X109690Y-58570
X109690Y-61110
X112230Y-56030
X112230Y-58570
X112230Y-61110
X137630Y-53490
X104610Y-48410
X104610Y-50950
X107150Y-48410
X107150Y-50950
X165570Y-48410
X137630Y-63650
X137630Y-66190
X137630Y-68730
X140170Y-63650
X140170Y-66190
X140170Y-68730
X142710Y-63650
X142710Y-66190
X142710Y-68730
X132550Y-53490
X119850Y-48410
X119850Y-50950
X122390Y-48410
X122390Y-50950
X94450Y-48410
X94450Y-50950
X96990Y-48410
X96990Y-50950
X140170Y-137310
X140170Y-139850
X142710Y-137310
X142710Y-139850
X79210Y-122070
X160490Y-96670
X160490Y-99210
X160490Y-101750
X163030Y-96670
X163030Y-99210
X163030Y-101750
X165570Y-96670
X165570Y-99210
X165570Y-101750
X79210Y-76350
X79210Y-78890
X79210Y-81430
X81750Y-76350
X81750Y-78890
X81750Y-81430
X84290Y-76350
X84290Y-78890
X84290Y-81430
X107150Y-86510
X107150Y-89050
X107150Y-91590
X109690Y-86510
X109690Y-89050
X109690Y-91590
X112230Y-86510
X112230Y-89050
X112230Y-91590
X140170Y-114450
X140170Y-116990
X142710Y-114450
X142710Y-116990
X168110Y-114450
X145250Y-78890
X145250Y-81430
X145250Y-83970
X147790Y-78890
X147790Y-81430
X147790Y-83970
X150330Y-78890
X150330Y-81430
X150330Y-83970
X107150Y-124610
X107150Y-127150
X109690Y-124610
X109690Y-127150
X157950Y-58570
X137630Y-86510
X137630Y-89050
X137630Y-91590
X140170Y-86510
X140170Y-89050
X140170Y-91590
X142710Y-86510
X142710Y-89050
X142710Y-91590
X86830Y-109370
X86830Y-111910
X89370Y-109370
X89370Y-111910
X86830Y-53490
X86830Y-56030
X89370Y-53490
X89370Y-56030
X145250Y-61110
X86830Y-89050
X86830Y-91590
X89370Y-89050
X89370Y-91590
X140170Y-109370
X140170Y-111910
X142710Y-109370
X142710Y-111910
X99530Y-124610
X140170Y-129690
X140170Y-132230
X142710Y-129690
X142710Y-132230
X157950Y-53490
X152870Y-56030
X86830Y-119530
X86830Y-122070
X89370Y-119530
X89370Y-122070
X170650Y-114450
X117310Y-53490
X99530Y-101750
X99530Y-104290
X99530Y-106830
X102070Y-101750
X102070Y-104290
X102070Y-106830
X104610Y-101750
X104610Y-104290
X104610Y-106830
X112230Y-94130
X130010Y-48410
X130010Y-50950
X132550Y-48410
X132550Y-50950
X99530Y-71270
X99530Y-73810
X99530Y-76350
X102070Y-71270
X102070Y-73810
X102070Y-76350
X104610Y-71270
X104610Y-73810
X104610Y-76350
X140170Y-53490
X99530Y-116990
X99530Y-119530
X99530Y-122070
X102070Y-116990
X102070Y-119530
X102070Y-122070
X104610Y-116990
X104610Y-119530
X104610Y-122070
X147790Y-53490
X130010Y-53490
X122390Y-56030
X122390Y-58570
X122390Y-61110
X124930Y-56030
X124930Y-58570
X124930Y-61110
X127470Y-56030
X127470Y-58570
X127470Y-61110
X122390Y-53490
X145250Y-48410
X145250Y-50950
X147790Y-48410
X147790Y-50950
X89370Y-48410
X89370Y-50950
X91910Y-48410
X91910Y-50950
X81750Y-122070
X145250Y-94130
X145250Y-96670
X145250Y-99210
X147790Y-94130
X147790Y-96670
X147790Y-99210
X150330Y-94130
X150330Y-96670
X150330Y-99210
X170650Y-83970
X140170Y-94130
X140170Y-96670
X142710Y-94130
X142710Y-96670
X145250Y-116990
X145250Y-119530
X147790Y-116990
X147790Y-119530
X122390Y-78890
X122390Y-81430
X122390Y-83970
X124930Y-78890
X124930Y-81430
X124930Y-83970
X127470Y-78890
X127470Y-81430
X127470Y-83970
X160490Y-68730
X160490Y-71270
X163030Y-68730
X163030Y-71270
X96990Y-139850
X145250Y-58570
X145250Y-86510
X145250Y-89050
X145250Y-91590
X147790Y-86510
X147790Y-89050
X147790Y-91590
X150330Y-86510
X150330Y-89050
X150330Y-91590
X163030Y-76350
X91910Y-63650
X91910Y-66190
X91910Y-68730
X94450Y-63650
X94450Y-66190
X94450Y-68730
X96990Y-63650
X96990Y-66190
X96990Y-68730
X155410Y-53490
X107150Y-134770
X79210Y-61110
X79210Y-63650
X79210Y-66190
X81750Y-61110
X81750Y-63650
X81750Y-66190
X84290Y-61110
X84290Y-63650
X84290Y-66190
X145250Y-127150
X145250Y-129690
X147790Y-127150
X147790Y-129690
X91910Y-94130
X91910Y-96670
X91910Y-99210
X94450Y-94130
X94450Y-96670
X94450Y-99210
X96990Y-94130
X96990Y-96670
X96990Y-99210
X99530Y-53490
X145250Y-71270
X145250Y-73810
X145250Y-76350
X147790Y-71270
X147790Y-73810
X147790Y-76350
X150330Y-71270
X150330Y-73810
X150330Y-76350
X112230Y-53490
X145250Y-63650
X145250Y-66190
X145250Y-68730
X147790Y-63650
X147790Y-66190
X147790Y-68730
X150330Y-63650
X150330Y-66190
X150330Y-68730
X96990Y-124610
X135090Y-48410
X135090Y-50950
X137630Y-48410
X137630Y-50950
X99530Y-86510
X99530Y-89050
X99530Y-91590
X102070Y-86510
X102070Y-89050
X102070Y-91590
X104610Y-86510
X104610Y-89050
X104610Y-91590
T7
X152895Y-131595
X164935Y-131595
T8
X170650Y-139450
X78920Y-139450
X78920Y-47775
X171285Y-47775
T2
X155085Y-142480G85X155085Y-141780
G05
X162085Y-141780G85X162085Y-142480
G05
T5
X87100Y-127150G85X89100Y-127150
G05
X87100Y-133150G85X89100Y-133150
G05
X92800Y-131150G85X92800Y-129150
G05
T0
M30
