G04 #@! TF.GenerationSoftware,KiCad,Pcbnew,(5.1.5)-3*
G04 #@! TF.CreationDate,2021-02-09T20:58:30+01:00*
G04 #@! TF.ProjectId,Keyboard,4b657962-6f61-4726-942e-6b696361645f,rev?*
G04 #@! TF.SameCoordinates,Original*
G04 #@! TF.FileFunction,Soldermask,Top*
G04 #@! TF.FilePolarity,Negative*
%FSLAX46Y46*%
G04 Gerber Fmt 4.6, Leading zero omitted, Abs format (unit mm)*
G04 Created by KiCad (PCBNEW (5.1.5)-3) date 2021-02-09 20:58:30*
%MOMM*%
%LPD*%
G04 APERTURE LIST*
%ADD10C,0.100000*%
G04 APERTURE END LIST*
D10*
G36*
X121733512Y-129103927D02*
G01*
X121882812Y-129133624D01*
X122046784Y-129201544D01*
X122194354Y-129300147D01*
X122319853Y-129425646D01*
X122418456Y-129573216D01*
X122486376Y-129737188D01*
X122521000Y-129911259D01*
X122521000Y-130088741D01*
X122486376Y-130262812D01*
X122418456Y-130426784D01*
X122319853Y-130574354D01*
X122194354Y-130699853D01*
X122046784Y-130798456D01*
X121882812Y-130866376D01*
X121733512Y-130896073D01*
X121708742Y-130901000D01*
X121531258Y-130901000D01*
X121506488Y-130896073D01*
X121357188Y-130866376D01*
X121193216Y-130798456D01*
X121045646Y-130699853D01*
X120920147Y-130574354D01*
X120821544Y-130426784D01*
X120753624Y-130262812D01*
X120719000Y-130088741D01*
X120719000Y-129911259D01*
X120753624Y-129737188D01*
X120821544Y-129573216D01*
X120920147Y-129425646D01*
X121045646Y-129300147D01*
X121193216Y-129201544D01*
X121357188Y-129133624D01*
X121506488Y-129103927D01*
X121531258Y-129099000D01*
X121708742Y-129099000D01*
X121733512Y-129103927D01*
G37*
G36*
X116653512Y-129103927D02*
G01*
X116802812Y-129133624D01*
X116966784Y-129201544D01*
X117114354Y-129300147D01*
X117239853Y-129425646D01*
X117338456Y-129573216D01*
X117406376Y-129737188D01*
X117441000Y-129911259D01*
X117441000Y-130088741D01*
X117406376Y-130262812D01*
X117338456Y-130426784D01*
X117239853Y-130574354D01*
X117114354Y-130699853D01*
X116966784Y-130798456D01*
X116802812Y-130866376D01*
X116653512Y-130896073D01*
X116628742Y-130901000D01*
X116451258Y-130901000D01*
X116426488Y-130896073D01*
X116277188Y-130866376D01*
X116113216Y-130798456D01*
X115965646Y-130699853D01*
X115840147Y-130574354D01*
X115741544Y-130426784D01*
X115673624Y-130262812D01*
X115639000Y-130088741D01*
X115639000Y-129911259D01*
X115673624Y-129737188D01*
X115741544Y-129573216D01*
X115840147Y-129425646D01*
X115965646Y-129300147D01*
X116113216Y-129201544D01*
X116277188Y-129133624D01*
X116426488Y-129103927D01*
X116451258Y-129099000D01*
X116628742Y-129099000D01*
X116653512Y-129103927D01*
G37*
G36*
X114901000Y-130901000D02*
G01*
X113099000Y-130901000D01*
X113099000Y-129099000D01*
X114901000Y-129099000D01*
X114901000Y-130901000D01*
G37*
G36*
X107733512Y-129103927D02*
G01*
X107882812Y-129133624D01*
X108046784Y-129201544D01*
X108194354Y-129300147D01*
X108319853Y-129425646D01*
X108418456Y-129573216D01*
X108486376Y-129737188D01*
X108521000Y-129911259D01*
X108521000Y-130088741D01*
X108486376Y-130262812D01*
X108418456Y-130426784D01*
X108319853Y-130574354D01*
X108194354Y-130699853D01*
X108046784Y-130798456D01*
X107882812Y-130866376D01*
X107733512Y-130896073D01*
X107708742Y-130901000D01*
X107531258Y-130901000D01*
X107506488Y-130896073D01*
X107357188Y-130866376D01*
X107193216Y-130798456D01*
X107045646Y-130699853D01*
X106920147Y-130574354D01*
X106821544Y-130426784D01*
X106753624Y-130262812D01*
X106719000Y-130088741D01*
X106719000Y-129911259D01*
X106753624Y-129737188D01*
X106821544Y-129573216D01*
X106920147Y-129425646D01*
X107045646Y-129300147D01*
X107193216Y-129201544D01*
X107357188Y-129133624D01*
X107506488Y-129103927D01*
X107531258Y-129099000D01*
X107708742Y-129099000D01*
X107733512Y-129103927D01*
G37*
G36*
X105193512Y-129103927D02*
G01*
X105342812Y-129133624D01*
X105506784Y-129201544D01*
X105654354Y-129300147D01*
X105779853Y-129425646D01*
X105878456Y-129573216D01*
X105946376Y-129737188D01*
X105981000Y-129911259D01*
X105981000Y-130088741D01*
X105946376Y-130262812D01*
X105878456Y-130426784D01*
X105779853Y-130574354D01*
X105654354Y-130699853D01*
X105506784Y-130798456D01*
X105342812Y-130866376D01*
X105193512Y-130896073D01*
X105168742Y-130901000D01*
X104991258Y-130901000D01*
X104966488Y-130896073D01*
X104817188Y-130866376D01*
X104653216Y-130798456D01*
X104505646Y-130699853D01*
X104380147Y-130574354D01*
X104281544Y-130426784D01*
X104213624Y-130262812D01*
X104179000Y-130088741D01*
X104179000Y-129911259D01*
X104213624Y-129737188D01*
X104281544Y-129573216D01*
X104380147Y-129425646D01*
X104505646Y-129300147D01*
X104653216Y-129201544D01*
X104817188Y-129133624D01*
X104966488Y-129103927D01*
X104991258Y-129099000D01*
X105168742Y-129099000D01*
X105193512Y-129103927D01*
G37*
G36*
X102653512Y-129103927D02*
G01*
X102802812Y-129133624D01*
X102966784Y-129201544D01*
X103114354Y-129300147D01*
X103239853Y-129425646D01*
X103338456Y-129573216D01*
X103406376Y-129737188D01*
X103441000Y-129911259D01*
X103441000Y-130088741D01*
X103406376Y-130262812D01*
X103338456Y-130426784D01*
X103239853Y-130574354D01*
X103114354Y-130699853D01*
X102966784Y-130798456D01*
X102802812Y-130866376D01*
X102653512Y-130896073D01*
X102628742Y-130901000D01*
X102451258Y-130901000D01*
X102426488Y-130896073D01*
X102277188Y-130866376D01*
X102113216Y-130798456D01*
X101965646Y-130699853D01*
X101840147Y-130574354D01*
X101741544Y-130426784D01*
X101673624Y-130262812D01*
X101639000Y-130088741D01*
X101639000Y-129911259D01*
X101673624Y-129737188D01*
X101741544Y-129573216D01*
X101840147Y-129425646D01*
X101965646Y-129300147D01*
X102113216Y-129201544D01*
X102277188Y-129133624D01*
X102426488Y-129103927D01*
X102451258Y-129099000D01*
X102628742Y-129099000D01*
X102653512Y-129103927D01*
G37*
G36*
X100901000Y-130901000D02*
G01*
X99099000Y-130901000D01*
X99099000Y-129099000D01*
X100901000Y-129099000D01*
X100901000Y-130901000D01*
G37*
G36*
X119193512Y-129103927D02*
G01*
X119342812Y-129133624D01*
X119506784Y-129201544D01*
X119654354Y-129300147D01*
X119779853Y-129425646D01*
X119878456Y-129573216D01*
X119946376Y-129737188D01*
X119981000Y-129911259D01*
X119981000Y-130088741D01*
X119946376Y-130262812D01*
X119878456Y-130426784D01*
X119779853Y-130574354D01*
X119654354Y-130699853D01*
X119506784Y-130798456D01*
X119342812Y-130866376D01*
X119193512Y-130896073D01*
X119168742Y-130901000D01*
X118991258Y-130901000D01*
X118966488Y-130896073D01*
X118817188Y-130866376D01*
X118653216Y-130798456D01*
X118505646Y-130699853D01*
X118380147Y-130574354D01*
X118281544Y-130426784D01*
X118213624Y-130262812D01*
X118179000Y-130088741D01*
X118179000Y-129911259D01*
X118213624Y-129737188D01*
X118281544Y-129573216D01*
X118380147Y-129425646D01*
X118505646Y-129300147D01*
X118653216Y-129201544D01*
X118817188Y-129133624D01*
X118966488Y-129103927D01*
X118991258Y-129099000D01*
X119168742Y-129099000D01*
X119193512Y-129103927D01*
G37*
G36*
X144171512Y-116665927D02*
G01*
X144320812Y-116695624D01*
X144484784Y-116763544D01*
X144632354Y-116862147D01*
X144757853Y-116987646D01*
X144856456Y-117135216D01*
X144924376Y-117299188D01*
X144959000Y-117473259D01*
X144959000Y-117650741D01*
X144924376Y-117824812D01*
X144856456Y-117988784D01*
X144757853Y-118136354D01*
X144632354Y-118261853D01*
X144484784Y-118360456D01*
X144320812Y-118428376D01*
X144171512Y-118458073D01*
X144146742Y-118463000D01*
X143969258Y-118463000D01*
X143944488Y-118458073D01*
X143795188Y-118428376D01*
X143631216Y-118360456D01*
X143483646Y-118261853D01*
X143358147Y-118136354D01*
X143259544Y-117988784D01*
X143191624Y-117824812D01*
X143157000Y-117650741D01*
X143157000Y-117473259D01*
X143191624Y-117299188D01*
X143259544Y-117135216D01*
X143358147Y-116987646D01*
X143483646Y-116862147D01*
X143631216Y-116763544D01*
X143795188Y-116695624D01*
X143944488Y-116665927D01*
X143969258Y-116661000D01*
X144146742Y-116661000D01*
X144171512Y-116665927D01*
G37*
G36*
X123851512Y-116665927D02*
G01*
X124000812Y-116695624D01*
X124164784Y-116763544D01*
X124312354Y-116862147D01*
X124437853Y-116987646D01*
X124536456Y-117135216D01*
X124604376Y-117299188D01*
X124639000Y-117473259D01*
X124639000Y-117650741D01*
X124604376Y-117824812D01*
X124536456Y-117988784D01*
X124437853Y-118136354D01*
X124312354Y-118261853D01*
X124164784Y-118360456D01*
X124000812Y-118428376D01*
X123851512Y-118458073D01*
X123826742Y-118463000D01*
X123649258Y-118463000D01*
X123624488Y-118458073D01*
X123475188Y-118428376D01*
X123311216Y-118360456D01*
X123163646Y-118261853D01*
X123038147Y-118136354D01*
X122939544Y-117988784D01*
X122871624Y-117824812D01*
X122837000Y-117650741D01*
X122837000Y-117473259D01*
X122871624Y-117299188D01*
X122939544Y-117135216D01*
X123038147Y-116987646D01*
X123163646Y-116862147D01*
X123311216Y-116763544D01*
X123475188Y-116695624D01*
X123624488Y-116665927D01*
X123649258Y-116661000D01*
X123826742Y-116661000D01*
X123851512Y-116665927D01*
G37*
G36*
X164491512Y-116665927D02*
G01*
X164640812Y-116695624D01*
X164804784Y-116763544D01*
X164952354Y-116862147D01*
X165077853Y-116987646D01*
X165176456Y-117135216D01*
X165244376Y-117299188D01*
X165279000Y-117473259D01*
X165279000Y-117650741D01*
X165244376Y-117824812D01*
X165176456Y-117988784D01*
X165077853Y-118136354D01*
X164952354Y-118261853D01*
X164804784Y-118360456D01*
X164640812Y-118428376D01*
X164491512Y-118458073D01*
X164466742Y-118463000D01*
X164289258Y-118463000D01*
X164264488Y-118458073D01*
X164115188Y-118428376D01*
X163951216Y-118360456D01*
X163803646Y-118261853D01*
X163678147Y-118136354D01*
X163579544Y-117988784D01*
X163511624Y-117824812D01*
X163477000Y-117650741D01*
X163477000Y-117473259D01*
X163511624Y-117299188D01*
X163579544Y-117135216D01*
X163678147Y-116987646D01*
X163803646Y-116862147D01*
X163951216Y-116763544D01*
X164115188Y-116695624D01*
X164264488Y-116665927D01*
X164289258Y-116661000D01*
X164466742Y-116661000D01*
X164491512Y-116665927D01*
G37*
G36*
X103531512Y-116665927D02*
G01*
X103680812Y-116695624D01*
X103844784Y-116763544D01*
X103992354Y-116862147D01*
X104117853Y-116987646D01*
X104216456Y-117135216D01*
X104284376Y-117299188D01*
X104319000Y-117473259D01*
X104319000Y-117650741D01*
X104284376Y-117824812D01*
X104216456Y-117988784D01*
X104117853Y-118136354D01*
X103992354Y-118261853D01*
X103844784Y-118360456D01*
X103680812Y-118428376D01*
X103531512Y-118458073D01*
X103506742Y-118463000D01*
X103329258Y-118463000D01*
X103304488Y-118458073D01*
X103155188Y-118428376D01*
X102991216Y-118360456D01*
X102843646Y-118261853D01*
X102718147Y-118136354D01*
X102619544Y-117988784D01*
X102551624Y-117824812D01*
X102517000Y-117650741D01*
X102517000Y-117473259D01*
X102551624Y-117299188D01*
X102619544Y-117135216D01*
X102718147Y-116987646D01*
X102843646Y-116862147D01*
X102991216Y-116763544D01*
X103155188Y-116695624D01*
X103304488Y-116665927D01*
X103329258Y-116661000D01*
X103506742Y-116661000D01*
X103531512Y-116665927D01*
G37*
G36*
X168991512Y-113665927D02*
G01*
X169140812Y-113695624D01*
X169304784Y-113763544D01*
X169452354Y-113862147D01*
X169577853Y-113987646D01*
X169676456Y-114135216D01*
X169744376Y-114299188D01*
X169779000Y-114473259D01*
X169779000Y-114650741D01*
X169744376Y-114824812D01*
X169676456Y-114988784D01*
X169577853Y-115136354D01*
X169452354Y-115261853D01*
X169304784Y-115360456D01*
X169140812Y-115428376D01*
X168991512Y-115458073D01*
X168966742Y-115463000D01*
X168789258Y-115463000D01*
X168764488Y-115458073D01*
X168615188Y-115428376D01*
X168451216Y-115360456D01*
X168303646Y-115261853D01*
X168178147Y-115136354D01*
X168079544Y-114988784D01*
X168011624Y-114824812D01*
X167977000Y-114650741D01*
X167977000Y-114473259D01*
X168011624Y-114299188D01*
X168079544Y-114135216D01*
X168178147Y-113987646D01*
X168303646Y-113862147D01*
X168451216Y-113763544D01*
X168615188Y-113695624D01*
X168764488Y-113665927D01*
X168789258Y-113661000D01*
X168966742Y-113661000D01*
X168991512Y-113665927D01*
G37*
G36*
X108031512Y-113665927D02*
G01*
X108180812Y-113695624D01*
X108344784Y-113763544D01*
X108492354Y-113862147D01*
X108617853Y-113987646D01*
X108716456Y-114135216D01*
X108784376Y-114299188D01*
X108819000Y-114473259D01*
X108819000Y-114650741D01*
X108784376Y-114824812D01*
X108716456Y-114988784D01*
X108617853Y-115136354D01*
X108492354Y-115261853D01*
X108344784Y-115360456D01*
X108180812Y-115428376D01*
X108031512Y-115458073D01*
X108006742Y-115463000D01*
X107829258Y-115463000D01*
X107804488Y-115458073D01*
X107655188Y-115428376D01*
X107491216Y-115360456D01*
X107343646Y-115261853D01*
X107218147Y-115136354D01*
X107119544Y-114988784D01*
X107051624Y-114824812D01*
X107017000Y-114650741D01*
X107017000Y-114473259D01*
X107051624Y-114299188D01*
X107119544Y-114135216D01*
X107218147Y-113987646D01*
X107343646Y-113862147D01*
X107491216Y-113763544D01*
X107655188Y-113695624D01*
X107804488Y-113665927D01*
X107829258Y-113661000D01*
X108006742Y-113661000D01*
X108031512Y-113665927D01*
G37*
G36*
X128351512Y-113665927D02*
G01*
X128500812Y-113695624D01*
X128664784Y-113763544D01*
X128812354Y-113862147D01*
X128937853Y-113987646D01*
X129036456Y-114135216D01*
X129104376Y-114299188D01*
X129139000Y-114473259D01*
X129139000Y-114650741D01*
X129104376Y-114824812D01*
X129036456Y-114988784D01*
X128937853Y-115136354D01*
X128812354Y-115261853D01*
X128664784Y-115360456D01*
X128500812Y-115428376D01*
X128351512Y-115458073D01*
X128326742Y-115463000D01*
X128149258Y-115463000D01*
X128124488Y-115458073D01*
X127975188Y-115428376D01*
X127811216Y-115360456D01*
X127663646Y-115261853D01*
X127538147Y-115136354D01*
X127439544Y-114988784D01*
X127371624Y-114824812D01*
X127337000Y-114650741D01*
X127337000Y-114473259D01*
X127371624Y-114299188D01*
X127439544Y-114135216D01*
X127538147Y-113987646D01*
X127663646Y-113862147D01*
X127811216Y-113763544D01*
X127975188Y-113695624D01*
X128124488Y-113665927D01*
X128149258Y-113661000D01*
X128326742Y-113661000D01*
X128351512Y-113665927D01*
G37*
G36*
X148671512Y-113665927D02*
G01*
X148820812Y-113695624D01*
X148984784Y-113763544D01*
X149132354Y-113862147D01*
X149257853Y-113987646D01*
X149356456Y-114135216D01*
X149424376Y-114299188D01*
X149459000Y-114473259D01*
X149459000Y-114650741D01*
X149424376Y-114824812D01*
X149356456Y-114988784D01*
X149257853Y-115136354D01*
X149132354Y-115261853D01*
X148984784Y-115360456D01*
X148820812Y-115428376D01*
X148671512Y-115458073D01*
X148646742Y-115463000D01*
X148469258Y-115463000D01*
X148444488Y-115458073D01*
X148295188Y-115428376D01*
X148131216Y-115360456D01*
X147983646Y-115261853D01*
X147858147Y-115136354D01*
X147759544Y-114988784D01*
X147691624Y-114824812D01*
X147657000Y-114650741D01*
X147657000Y-114473259D01*
X147691624Y-114299188D01*
X147759544Y-114135216D01*
X147858147Y-113987646D01*
X147983646Y-113862147D01*
X148131216Y-113763544D01*
X148295188Y-113695624D01*
X148444488Y-113665927D01*
X148469258Y-113661000D01*
X148646742Y-113661000D01*
X148671512Y-113665927D01*
G37*
G36*
X119351512Y-109665927D02*
G01*
X119500812Y-109695624D01*
X119664784Y-109763544D01*
X119812354Y-109862147D01*
X119937853Y-109987646D01*
X120036456Y-110135216D01*
X120104376Y-110299188D01*
X120139000Y-110473259D01*
X120139000Y-110650741D01*
X120104376Y-110824812D01*
X120036456Y-110988784D01*
X119937853Y-111136354D01*
X119812354Y-111261853D01*
X119664784Y-111360456D01*
X119500812Y-111428376D01*
X119351512Y-111458073D01*
X119326742Y-111463000D01*
X119149258Y-111463000D01*
X119124488Y-111458073D01*
X118975188Y-111428376D01*
X118811216Y-111360456D01*
X118663646Y-111261853D01*
X118538147Y-111136354D01*
X118439544Y-110988784D01*
X118371624Y-110824812D01*
X118337000Y-110650741D01*
X118337000Y-110473259D01*
X118371624Y-110299188D01*
X118439544Y-110135216D01*
X118538147Y-109987646D01*
X118663646Y-109862147D01*
X118811216Y-109763544D01*
X118975188Y-109695624D01*
X119124488Y-109665927D01*
X119149258Y-109661000D01*
X119326742Y-109661000D01*
X119351512Y-109665927D01*
G37*
G36*
X99031512Y-109665927D02*
G01*
X99180812Y-109695624D01*
X99344784Y-109763544D01*
X99492354Y-109862147D01*
X99617853Y-109987646D01*
X99716456Y-110135216D01*
X99784376Y-110299188D01*
X99819000Y-110473259D01*
X99819000Y-110650741D01*
X99784376Y-110824812D01*
X99716456Y-110988784D01*
X99617853Y-111136354D01*
X99492354Y-111261853D01*
X99344784Y-111360456D01*
X99180812Y-111428376D01*
X99031512Y-111458073D01*
X99006742Y-111463000D01*
X98829258Y-111463000D01*
X98804488Y-111458073D01*
X98655188Y-111428376D01*
X98491216Y-111360456D01*
X98343646Y-111261853D01*
X98218147Y-111136354D01*
X98119544Y-110988784D01*
X98051624Y-110824812D01*
X98017000Y-110650741D01*
X98017000Y-110473259D01*
X98051624Y-110299188D01*
X98119544Y-110135216D01*
X98218147Y-109987646D01*
X98343646Y-109862147D01*
X98491216Y-109763544D01*
X98655188Y-109695624D01*
X98804488Y-109665927D01*
X98829258Y-109661000D01*
X99006742Y-109661000D01*
X99031512Y-109665927D01*
G37*
G36*
X139671512Y-109665927D02*
G01*
X139820812Y-109695624D01*
X139984784Y-109763544D01*
X140132354Y-109862147D01*
X140257853Y-109987646D01*
X140356456Y-110135216D01*
X140424376Y-110299188D01*
X140459000Y-110473259D01*
X140459000Y-110650741D01*
X140424376Y-110824812D01*
X140356456Y-110988784D01*
X140257853Y-111136354D01*
X140132354Y-111261853D01*
X139984784Y-111360456D01*
X139820812Y-111428376D01*
X139671512Y-111458073D01*
X139646742Y-111463000D01*
X139469258Y-111463000D01*
X139444488Y-111458073D01*
X139295188Y-111428376D01*
X139131216Y-111360456D01*
X138983646Y-111261853D01*
X138858147Y-111136354D01*
X138759544Y-110988784D01*
X138691624Y-110824812D01*
X138657000Y-110650741D01*
X138657000Y-110473259D01*
X138691624Y-110299188D01*
X138759544Y-110135216D01*
X138858147Y-109987646D01*
X138983646Y-109862147D01*
X139131216Y-109763544D01*
X139295188Y-109695624D01*
X139444488Y-109665927D01*
X139469258Y-109661000D01*
X139646742Y-109661000D01*
X139671512Y-109665927D01*
G37*
G36*
X159991512Y-109665927D02*
G01*
X160140812Y-109695624D01*
X160304784Y-109763544D01*
X160452354Y-109862147D01*
X160577853Y-109987646D01*
X160676456Y-110135216D01*
X160744376Y-110299188D01*
X160779000Y-110473259D01*
X160779000Y-110650741D01*
X160744376Y-110824812D01*
X160676456Y-110988784D01*
X160577853Y-111136354D01*
X160452354Y-111261853D01*
X160304784Y-111360456D01*
X160140812Y-111428376D01*
X159991512Y-111458073D01*
X159966742Y-111463000D01*
X159789258Y-111463000D01*
X159764488Y-111458073D01*
X159615188Y-111428376D01*
X159451216Y-111360456D01*
X159303646Y-111261853D01*
X159178147Y-111136354D01*
X159079544Y-110988784D01*
X159011624Y-110824812D01*
X158977000Y-110650741D01*
X158977000Y-110473259D01*
X159011624Y-110299188D01*
X159079544Y-110135216D01*
X159178147Y-109987646D01*
X159303646Y-109862147D01*
X159451216Y-109763544D01*
X159615188Y-109695624D01*
X159764488Y-109665927D01*
X159789258Y-109661000D01*
X159966742Y-109661000D01*
X159991512Y-109665927D01*
G37*
G36*
X103531512Y-106665927D02*
G01*
X103680812Y-106695624D01*
X103844784Y-106763544D01*
X103992354Y-106862147D01*
X104117853Y-106987646D01*
X104216456Y-107135216D01*
X104284376Y-107299188D01*
X104319000Y-107473259D01*
X104319000Y-107650741D01*
X104284376Y-107824812D01*
X104216456Y-107988784D01*
X104117853Y-108136354D01*
X103992354Y-108261853D01*
X103844784Y-108360456D01*
X103680812Y-108428376D01*
X103531512Y-108458073D01*
X103506742Y-108463000D01*
X103329258Y-108463000D01*
X103304488Y-108458073D01*
X103155188Y-108428376D01*
X102991216Y-108360456D01*
X102843646Y-108261853D01*
X102718147Y-108136354D01*
X102619544Y-107988784D01*
X102551624Y-107824812D01*
X102517000Y-107650741D01*
X102517000Y-107473259D01*
X102551624Y-107299188D01*
X102619544Y-107135216D01*
X102718147Y-106987646D01*
X102843646Y-106862147D01*
X102991216Y-106763544D01*
X103155188Y-106695624D01*
X103304488Y-106665927D01*
X103329258Y-106661000D01*
X103506742Y-106661000D01*
X103531512Y-106665927D01*
G37*
G36*
X164491512Y-106665927D02*
G01*
X164640812Y-106695624D01*
X164804784Y-106763544D01*
X164952354Y-106862147D01*
X165077853Y-106987646D01*
X165176456Y-107135216D01*
X165244376Y-107299188D01*
X165279000Y-107473259D01*
X165279000Y-107650741D01*
X165244376Y-107824812D01*
X165176456Y-107988784D01*
X165077853Y-108136354D01*
X164952354Y-108261853D01*
X164804784Y-108360456D01*
X164640812Y-108428376D01*
X164491512Y-108458073D01*
X164466742Y-108463000D01*
X164289258Y-108463000D01*
X164264488Y-108458073D01*
X164115188Y-108428376D01*
X163951216Y-108360456D01*
X163803646Y-108261853D01*
X163678147Y-108136354D01*
X163579544Y-107988784D01*
X163511624Y-107824812D01*
X163477000Y-107650741D01*
X163477000Y-107473259D01*
X163511624Y-107299188D01*
X163579544Y-107135216D01*
X163678147Y-106987646D01*
X163803646Y-106862147D01*
X163951216Y-106763544D01*
X164115188Y-106695624D01*
X164264488Y-106665927D01*
X164289258Y-106661000D01*
X164466742Y-106661000D01*
X164491512Y-106665927D01*
G37*
G36*
X144171512Y-106665927D02*
G01*
X144320812Y-106695624D01*
X144484784Y-106763544D01*
X144632354Y-106862147D01*
X144757853Y-106987646D01*
X144856456Y-107135216D01*
X144924376Y-107299188D01*
X144959000Y-107473259D01*
X144959000Y-107650741D01*
X144924376Y-107824812D01*
X144856456Y-107988784D01*
X144757853Y-108136354D01*
X144632354Y-108261853D01*
X144484784Y-108360456D01*
X144320812Y-108428376D01*
X144171512Y-108458073D01*
X144146742Y-108463000D01*
X143969258Y-108463000D01*
X143944488Y-108458073D01*
X143795188Y-108428376D01*
X143631216Y-108360456D01*
X143483646Y-108261853D01*
X143358147Y-108136354D01*
X143259544Y-107988784D01*
X143191624Y-107824812D01*
X143157000Y-107650741D01*
X143157000Y-107473259D01*
X143191624Y-107299188D01*
X143259544Y-107135216D01*
X143358147Y-106987646D01*
X143483646Y-106862147D01*
X143631216Y-106763544D01*
X143795188Y-106695624D01*
X143944488Y-106665927D01*
X143969258Y-106661000D01*
X144146742Y-106661000D01*
X144171512Y-106665927D01*
G37*
G36*
X123851512Y-106665927D02*
G01*
X124000812Y-106695624D01*
X124164784Y-106763544D01*
X124312354Y-106862147D01*
X124437853Y-106987646D01*
X124536456Y-107135216D01*
X124604376Y-107299188D01*
X124639000Y-107473259D01*
X124639000Y-107650741D01*
X124604376Y-107824812D01*
X124536456Y-107988784D01*
X124437853Y-108136354D01*
X124312354Y-108261853D01*
X124164784Y-108360456D01*
X124000812Y-108428376D01*
X123851512Y-108458073D01*
X123826742Y-108463000D01*
X123649258Y-108463000D01*
X123624488Y-108458073D01*
X123475188Y-108428376D01*
X123311216Y-108360456D01*
X123163646Y-108261853D01*
X123038147Y-108136354D01*
X122939544Y-107988784D01*
X122871624Y-107824812D01*
X122837000Y-107650741D01*
X122837000Y-107473259D01*
X122871624Y-107299188D01*
X122939544Y-107135216D01*
X123038147Y-106987646D01*
X123163646Y-106862147D01*
X123311216Y-106763544D01*
X123475188Y-106695624D01*
X123624488Y-106665927D01*
X123649258Y-106661000D01*
X123826742Y-106661000D01*
X123851512Y-106665927D01*
G37*
G36*
X164491512Y-96345927D02*
G01*
X164640812Y-96375624D01*
X164804784Y-96443544D01*
X164952354Y-96542147D01*
X165077853Y-96667646D01*
X165176456Y-96815216D01*
X165244376Y-96979188D01*
X165279000Y-97153259D01*
X165279000Y-97330741D01*
X165244376Y-97504812D01*
X165176456Y-97668784D01*
X165077853Y-97816354D01*
X164952354Y-97941853D01*
X164804784Y-98040456D01*
X164640812Y-98108376D01*
X164491512Y-98138073D01*
X164466742Y-98143000D01*
X164289258Y-98143000D01*
X164264488Y-98138073D01*
X164115188Y-98108376D01*
X163951216Y-98040456D01*
X163803646Y-97941853D01*
X163678147Y-97816354D01*
X163579544Y-97668784D01*
X163511624Y-97504812D01*
X163477000Y-97330741D01*
X163477000Y-97153259D01*
X163511624Y-96979188D01*
X163579544Y-96815216D01*
X163678147Y-96667646D01*
X163803646Y-96542147D01*
X163951216Y-96443544D01*
X164115188Y-96375624D01*
X164264488Y-96345927D01*
X164289258Y-96341000D01*
X164466742Y-96341000D01*
X164491512Y-96345927D01*
G37*
G36*
X144171512Y-96345927D02*
G01*
X144320812Y-96375624D01*
X144484784Y-96443544D01*
X144632354Y-96542147D01*
X144757853Y-96667646D01*
X144856456Y-96815216D01*
X144924376Y-96979188D01*
X144959000Y-97153259D01*
X144959000Y-97330741D01*
X144924376Y-97504812D01*
X144856456Y-97668784D01*
X144757853Y-97816354D01*
X144632354Y-97941853D01*
X144484784Y-98040456D01*
X144320812Y-98108376D01*
X144171512Y-98138073D01*
X144146742Y-98143000D01*
X143969258Y-98143000D01*
X143944488Y-98138073D01*
X143795188Y-98108376D01*
X143631216Y-98040456D01*
X143483646Y-97941853D01*
X143358147Y-97816354D01*
X143259544Y-97668784D01*
X143191624Y-97504812D01*
X143157000Y-97330741D01*
X143157000Y-97153259D01*
X143191624Y-96979188D01*
X143259544Y-96815216D01*
X143358147Y-96667646D01*
X143483646Y-96542147D01*
X143631216Y-96443544D01*
X143795188Y-96375624D01*
X143944488Y-96345927D01*
X143969258Y-96341000D01*
X144146742Y-96341000D01*
X144171512Y-96345927D01*
G37*
G36*
X103531512Y-96345927D02*
G01*
X103680812Y-96375624D01*
X103844784Y-96443544D01*
X103992354Y-96542147D01*
X104117853Y-96667646D01*
X104216456Y-96815216D01*
X104284376Y-96979188D01*
X104319000Y-97153259D01*
X104319000Y-97330741D01*
X104284376Y-97504812D01*
X104216456Y-97668784D01*
X104117853Y-97816354D01*
X103992354Y-97941853D01*
X103844784Y-98040456D01*
X103680812Y-98108376D01*
X103531512Y-98138073D01*
X103506742Y-98143000D01*
X103329258Y-98143000D01*
X103304488Y-98138073D01*
X103155188Y-98108376D01*
X102991216Y-98040456D01*
X102843646Y-97941853D01*
X102718147Y-97816354D01*
X102619544Y-97668784D01*
X102551624Y-97504812D01*
X102517000Y-97330741D01*
X102517000Y-97153259D01*
X102551624Y-96979188D01*
X102619544Y-96815216D01*
X102718147Y-96667646D01*
X102843646Y-96542147D01*
X102991216Y-96443544D01*
X103155188Y-96375624D01*
X103304488Y-96345927D01*
X103329258Y-96341000D01*
X103506742Y-96341000D01*
X103531512Y-96345927D01*
G37*
G36*
X123851512Y-96345927D02*
G01*
X124000812Y-96375624D01*
X124164784Y-96443544D01*
X124312354Y-96542147D01*
X124437853Y-96667646D01*
X124536456Y-96815216D01*
X124604376Y-96979188D01*
X124639000Y-97153259D01*
X124639000Y-97330741D01*
X124604376Y-97504812D01*
X124536456Y-97668784D01*
X124437853Y-97816354D01*
X124312354Y-97941853D01*
X124164784Y-98040456D01*
X124000812Y-98108376D01*
X123851512Y-98138073D01*
X123826742Y-98143000D01*
X123649258Y-98143000D01*
X123624488Y-98138073D01*
X123475188Y-98108376D01*
X123311216Y-98040456D01*
X123163646Y-97941853D01*
X123038147Y-97816354D01*
X122939544Y-97668784D01*
X122871624Y-97504812D01*
X122837000Y-97330741D01*
X122837000Y-97153259D01*
X122871624Y-96979188D01*
X122939544Y-96815216D01*
X123038147Y-96667646D01*
X123163646Y-96542147D01*
X123311216Y-96443544D01*
X123475188Y-96375624D01*
X123624488Y-96345927D01*
X123649258Y-96341000D01*
X123826742Y-96341000D01*
X123851512Y-96345927D01*
G37*
G36*
X108031512Y-93345927D02*
G01*
X108180812Y-93375624D01*
X108344784Y-93443544D01*
X108492354Y-93542147D01*
X108617853Y-93667646D01*
X108716456Y-93815216D01*
X108784376Y-93979188D01*
X108819000Y-94153259D01*
X108819000Y-94330741D01*
X108784376Y-94504812D01*
X108716456Y-94668784D01*
X108617853Y-94816354D01*
X108492354Y-94941853D01*
X108344784Y-95040456D01*
X108180812Y-95108376D01*
X108031512Y-95138073D01*
X108006742Y-95143000D01*
X107829258Y-95143000D01*
X107804488Y-95138073D01*
X107655188Y-95108376D01*
X107491216Y-95040456D01*
X107343646Y-94941853D01*
X107218147Y-94816354D01*
X107119544Y-94668784D01*
X107051624Y-94504812D01*
X107017000Y-94330741D01*
X107017000Y-94153259D01*
X107051624Y-93979188D01*
X107119544Y-93815216D01*
X107218147Y-93667646D01*
X107343646Y-93542147D01*
X107491216Y-93443544D01*
X107655188Y-93375624D01*
X107804488Y-93345927D01*
X107829258Y-93341000D01*
X108006742Y-93341000D01*
X108031512Y-93345927D01*
G37*
G36*
X148671512Y-93345927D02*
G01*
X148820812Y-93375624D01*
X148984784Y-93443544D01*
X149132354Y-93542147D01*
X149257853Y-93667646D01*
X149356456Y-93815216D01*
X149424376Y-93979188D01*
X149459000Y-94153259D01*
X149459000Y-94330741D01*
X149424376Y-94504812D01*
X149356456Y-94668784D01*
X149257853Y-94816354D01*
X149132354Y-94941853D01*
X148984784Y-95040456D01*
X148820812Y-95108376D01*
X148671512Y-95138073D01*
X148646742Y-95143000D01*
X148469258Y-95143000D01*
X148444488Y-95138073D01*
X148295188Y-95108376D01*
X148131216Y-95040456D01*
X147983646Y-94941853D01*
X147858147Y-94816354D01*
X147759544Y-94668784D01*
X147691624Y-94504812D01*
X147657000Y-94330741D01*
X147657000Y-94153259D01*
X147691624Y-93979188D01*
X147759544Y-93815216D01*
X147858147Y-93667646D01*
X147983646Y-93542147D01*
X148131216Y-93443544D01*
X148295188Y-93375624D01*
X148444488Y-93345927D01*
X148469258Y-93341000D01*
X148646742Y-93341000D01*
X148671512Y-93345927D01*
G37*
G36*
X168991512Y-93345927D02*
G01*
X169140812Y-93375624D01*
X169304784Y-93443544D01*
X169452354Y-93542147D01*
X169577853Y-93667646D01*
X169676456Y-93815216D01*
X169744376Y-93979188D01*
X169779000Y-94153259D01*
X169779000Y-94330741D01*
X169744376Y-94504812D01*
X169676456Y-94668784D01*
X169577853Y-94816354D01*
X169452354Y-94941853D01*
X169304784Y-95040456D01*
X169140812Y-95108376D01*
X168991512Y-95138073D01*
X168966742Y-95143000D01*
X168789258Y-95143000D01*
X168764488Y-95138073D01*
X168615188Y-95108376D01*
X168451216Y-95040456D01*
X168303646Y-94941853D01*
X168178147Y-94816354D01*
X168079544Y-94668784D01*
X168011624Y-94504812D01*
X167977000Y-94330741D01*
X167977000Y-94153259D01*
X168011624Y-93979188D01*
X168079544Y-93815216D01*
X168178147Y-93667646D01*
X168303646Y-93542147D01*
X168451216Y-93443544D01*
X168615188Y-93375624D01*
X168764488Y-93345927D01*
X168789258Y-93341000D01*
X168966742Y-93341000D01*
X168991512Y-93345927D01*
G37*
G36*
X128351512Y-93345927D02*
G01*
X128500812Y-93375624D01*
X128664784Y-93443544D01*
X128812354Y-93542147D01*
X128937853Y-93667646D01*
X129036456Y-93815216D01*
X129104376Y-93979188D01*
X129139000Y-94153259D01*
X129139000Y-94330741D01*
X129104376Y-94504812D01*
X129036456Y-94668784D01*
X128937853Y-94816354D01*
X128812354Y-94941853D01*
X128664784Y-95040456D01*
X128500812Y-95108376D01*
X128351512Y-95138073D01*
X128326742Y-95143000D01*
X128149258Y-95143000D01*
X128124488Y-95138073D01*
X127975188Y-95108376D01*
X127811216Y-95040456D01*
X127663646Y-94941853D01*
X127538147Y-94816354D01*
X127439544Y-94668784D01*
X127371624Y-94504812D01*
X127337000Y-94330741D01*
X127337000Y-94153259D01*
X127371624Y-93979188D01*
X127439544Y-93815216D01*
X127538147Y-93667646D01*
X127663646Y-93542147D01*
X127811216Y-93443544D01*
X127975188Y-93375624D01*
X128124488Y-93345927D01*
X128149258Y-93341000D01*
X128326742Y-93341000D01*
X128351512Y-93345927D01*
G37*
G36*
X139671512Y-89345927D02*
G01*
X139820812Y-89375624D01*
X139984784Y-89443544D01*
X140132354Y-89542147D01*
X140257853Y-89667646D01*
X140356456Y-89815216D01*
X140424376Y-89979188D01*
X140459000Y-90153259D01*
X140459000Y-90330741D01*
X140424376Y-90504812D01*
X140356456Y-90668784D01*
X140257853Y-90816354D01*
X140132354Y-90941853D01*
X139984784Y-91040456D01*
X139820812Y-91108376D01*
X139671512Y-91138073D01*
X139646742Y-91143000D01*
X139469258Y-91143000D01*
X139444488Y-91138073D01*
X139295188Y-91108376D01*
X139131216Y-91040456D01*
X138983646Y-90941853D01*
X138858147Y-90816354D01*
X138759544Y-90668784D01*
X138691624Y-90504812D01*
X138657000Y-90330741D01*
X138657000Y-90153259D01*
X138691624Y-89979188D01*
X138759544Y-89815216D01*
X138858147Y-89667646D01*
X138983646Y-89542147D01*
X139131216Y-89443544D01*
X139295188Y-89375624D01*
X139444488Y-89345927D01*
X139469258Y-89341000D01*
X139646742Y-89341000D01*
X139671512Y-89345927D01*
G37*
G36*
X159991512Y-89345927D02*
G01*
X160140812Y-89375624D01*
X160304784Y-89443544D01*
X160452354Y-89542147D01*
X160577853Y-89667646D01*
X160676456Y-89815216D01*
X160744376Y-89979188D01*
X160779000Y-90153259D01*
X160779000Y-90330741D01*
X160744376Y-90504812D01*
X160676456Y-90668784D01*
X160577853Y-90816354D01*
X160452354Y-90941853D01*
X160304784Y-91040456D01*
X160140812Y-91108376D01*
X159991512Y-91138073D01*
X159966742Y-91143000D01*
X159789258Y-91143000D01*
X159764488Y-91138073D01*
X159615188Y-91108376D01*
X159451216Y-91040456D01*
X159303646Y-90941853D01*
X159178147Y-90816354D01*
X159079544Y-90668784D01*
X159011624Y-90504812D01*
X158977000Y-90330741D01*
X158977000Y-90153259D01*
X159011624Y-89979188D01*
X159079544Y-89815216D01*
X159178147Y-89667646D01*
X159303646Y-89542147D01*
X159451216Y-89443544D01*
X159615188Y-89375624D01*
X159764488Y-89345927D01*
X159789258Y-89341000D01*
X159966742Y-89341000D01*
X159991512Y-89345927D01*
G37*
G36*
X99031512Y-89345927D02*
G01*
X99180812Y-89375624D01*
X99344784Y-89443544D01*
X99492354Y-89542147D01*
X99617853Y-89667646D01*
X99716456Y-89815216D01*
X99784376Y-89979188D01*
X99819000Y-90153259D01*
X99819000Y-90330741D01*
X99784376Y-90504812D01*
X99716456Y-90668784D01*
X99617853Y-90816354D01*
X99492354Y-90941853D01*
X99344784Y-91040456D01*
X99180812Y-91108376D01*
X99031512Y-91138073D01*
X99006742Y-91143000D01*
X98829258Y-91143000D01*
X98804488Y-91138073D01*
X98655188Y-91108376D01*
X98491216Y-91040456D01*
X98343646Y-90941853D01*
X98218147Y-90816354D01*
X98119544Y-90668784D01*
X98051624Y-90504812D01*
X98017000Y-90330741D01*
X98017000Y-90153259D01*
X98051624Y-89979188D01*
X98119544Y-89815216D01*
X98218147Y-89667646D01*
X98343646Y-89542147D01*
X98491216Y-89443544D01*
X98655188Y-89375624D01*
X98804488Y-89345927D01*
X98829258Y-89341000D01*
X99006742Y-89341000D01*
X99031512Y-89345927D01*
G37*
G36*
X119351512Y-89345927D02*
G01*
X119500812Y-89375624D01*
X119664784Y-89443544D01*
X119812354Y-89542147D01*
X119937853Y-89667646D01*
X120036456Y-89815216D01*
X120104376Y-89979188D01*
X120139000Y-90153259D01*
X120139000Y-90330741D01*
X120104376Y-90504812D01*
X120036456Y-90668784D01*
X119937853Y-90816354D01*
X119812354Y-90941853D01*
X119664784Y-91040456D01*
X119500812Y-91108376D01*
X119351512Y-91138073D01*
X119326742Y-91143000D01*
X119149258Y-91143000D01*
X119124488Y-91138073D01*
X118975188Y-91108376D01*
X118811216Y-91040456D01*
X118663646Y-90941853D01*
X118538147Y-90816354D01*
X118439544Y-90668784D01*
X118371624Y-90504812D01*
X118337000Y-90330741D01*
X118337000Y-90153259D01*
X118371624Y-89979188D01*
X118439544Y-89815216D01*
X118538147Y-89667646D01*
X118663646Y-89542147D01*
X118811216Y-89443544D01*
X118975188Y-89375624D01*
X119124488Y-89345927D01*
X119149258Y-89341000D01*
X119326742Y-89341000D01*
X119351512Y-89345927D01*
G37*
G36*
X164491512Y-86345927D02*
G01*
X164640812Y-86375624D01*
X164804784Y-86443544D01*
X164952354Y-86542147D01*
X165077853Y-86667646D01*
X165176456Y-86815216D01*
X165244376Y-86979188D01*
X165279000Y-87153259D01*
X165279000Y-87330741D01*
X165244376Y-87504812D01*
X165176456Y-87668784D01*
X165077853Y-87816354D01*
X164952354Y-87941853D01*
X164804784Y-88040456D01*
X164640812Y-88108376D01*
X164491512Y-88138073D01*
X164466742Y-88143000D01*
X164289258Y-88143000D01*
X164264488Y-88138073D01*
X164115188Y-88108376D01*
X163951216Y-88040456D01*
X163803646Y-87941853D01*
X163678147Y-87816354D01*
X163579544Y-87668784D01*
X163511624Y-87504812D01*
X163477000Y-87330741D01*
X163477000Y-87153259D01*
X163511624Y-86979188D01*
X163579544Y-86815216D01*
X163678147Y-86667646D01*
X163803646Y-86542147D01*
X163951216Y-86443544D01*
X164115188Y-86375624D01*
X164264488Y-86345927D01*
X164289258Y-86341000D01*
X164466742Y-86341000D01*
X164491512Y-86345927D01*
G37*
G36*
X144171512Y-86345927D02*
G01*
X144320812Y-86375624D01*
X144484784Y-86443544D01*
X144632354Y-86542147D01*
X144757853Y-86667646D01*
X144856456Y-86815216D01*
X144924376Y-86979188D01*
X144959000Y-87153259D01*
X144959000Y-87330741D01*
X144924376Y-87504812D01*
X144856456Y-87668784D01*
X144757853Y-87816354D01*
X144632354Y-87941853D01*
X144484784Y-88040456D01*
X144320812Y-88108376D01*
X144171512Y-88138073D01*
X144146742Y-88143000D01*
X143969258Y-88143000D01*
X143944488Y-88138073D01*
X143795188Y-88108376D01*
X143631216Y-88040456D01*
X143483646Y-87941853D01*
X143358147Y-87816354D01*
X143259544Y-87668784D01*
X143191624Y-87504812D01*
X143157000Y-87330741D01*
X143157000Y-87153259D01*
X143191624Y-86979188D01*
X143259544Y-86815216D01*
X143358147Y-86667646D01*
X143483646Y-86542147D01*
X143631216Y-86443544D01*
X143795188Y-86375624D01*
X143944488Y-86345927D01*
X143969258Y-86341000D01*
X144146742Y-86341000D01*
X144171512Y-86345927D01*
G37*
G36*
X103531512Y-86345927D02*
G01*
X103680812Y-86375624D01*
X103844784Y-86443544D01*
X103992354Y-86542147D01*
X104117853Y-86667646D01*
X104216456Y-86815216D01*
X104284376Y-86979188D01*
X104319000Y-87153259D01*
X104319000Y-87330741D01*
X104284376Y-87504812D01*
X104216456Y-87668784D01*
X104117853Y-87816354D01*
X103992354Y-87941853D01*
X103844784Y-88040456D01*
X103680812Y-88108376D01*
X103531512Y-88138073D01*
X103506742Y-88143000D01*
X103329258Y-88143000D01*
X103304488Y-88138073D01*
X103155188Y-88108376D01*
X102991216Y-88040456D01*
X102843646Y-87941853D01*
X102718147Y-87816354D01*
X102619544Y-87668784D01*
X102551624Y-87504812D01*
X102517000Y-87330741D01*
X102517000Y-87153259D01*
X102551624Y-86979188D01*
X102619544Y-86815216D01*
X102718147Y-86667646D01*
X102843646Y-86542147D01*
X102991216Y-86443544D01*
X103155188Y-86375624D01*
X103304488Y-86345927D01*
X103329258Y-86341000D01*
X103506742Y-86341000D01*
X103531512Y-86345927D01*
G37*
G36*
X123851512Y-86345927D02*
G01*
X124000812Y-86375624D01*
X124164784Y-86443544D01*
X124312354Y-86542147D01*
X124437853Y-86667646D01*
X124536456Y-86815216D01*
X124604376Y-86979188D01*
X124639000Y-87153259D01*
X124639000Y-87330741D01*
X124604376Y-87504812D01*
X124536456Y-87668784D01*
X124437853Y-87816354D01*
X124312354Y-87941853D01*
X124164784Y-88040456D01*
X124000812Y-88108376D01*
X123851512Y-88138073D01*
X123826742Y-88143000D01*
X123649258Y-88143000D01*
X123624488Y-88138073D01*
X123475188Y-88108376D01*
X123311216Y-88040456D01*
X123163646Y-87941853D01*
X123038147Y-87816354D01*
X122939544Y-87668784D01*
X122871624Y-87504812D01*
X122837000Y-87330741D01*
X122837000Y-87153259D01*
X122871624Y-86979188D01*
X122939544Y-86815216D01*
X123038147Y-86667646D01*
X123163646Y-86542147D01*
X123311216Y-86443544D01*
X123475188Y-86375624D01*
X123624488Y-86345927D01*
X123649258Y-86341000D01*
X123826742Y-86341000D01*
X123851512Y-86345927D01*
G37*
G36*
X164491512Y-76025927D02*
G01*
X164640812Y-76055624D01*
X164804784Y-76123544D01*
X164952354Y-76222147D01*
X165077853Y-76347646D01*
X165176456Y-76495216D01*
X165244376Y-76659188D01*
X165279000Y-76833259D01*
X165279000Y-77010741D01*
X165244376Y-77184812D01*
X165176456Y-77348784D01*
X165077853Y-77496354D01*
X164952354Y-77621853D01*
X164804784Y-77720456D01*
X164640812Y-77788376D01*
X164491512Y-77818073D01*
X164466742Y-77823000D01*
X164289258Y-77823000D01*
X164264488Y-77818073D01*
X164115188Y-77788376D01*
X163951216Y-77720456D01*
X163803646Y-77621853D01*
X163678147Y-77496354D01*
X163579544Y-77348784D01*
X163511624Y-77184812D01*
X163477000Y-77010741D01*
X163477000Y-76833259D01*
X163511624Y-76659188D01*
X163579544Y-76495216D01*
X163678147Y-76347646D01*
X163803646Y-76222147D01*
X163951216Y-76123544D01*
X164115188Y-76055624D01*
X164264488Y-76025927D01*
X164289258Y-76021000D01*
X164466742Y-76021000D01*
X164491512Y-76025927D01*
G37*
G36*
X123851512Y-76025927D02*
G01*
X124000812Y-76055624D01*
X124164784Y-76123544D01*
X124312354Y-76222147D01*
X124437853Y-76347646D01*
X124536456Y-76495216D01*
X124604376Y-76659188D01*
X124639000Y-76833259D01*
X124639000Y-77010741D01*
X124604376Y-77184812D01*
X124536456Y-77348784D01*
X124437853Y-77496354D01*
X124312354Y-77621853D01*
X124164784Y-77720456D01*
X124000812Y-77788376D01*
X123851512Y-77818073D01*
X123826742Y-77823000D01*
X123649258Y-77823000D01*
X123624488Y-77818073D01*
X123475188Y-77788376D01*
X123311216Y-77720456D01*
X123163646Y-77621853D01*
X123038147Y-77496354D01*
X122939544Y-77348784D01*
X122871624Y-77184812D01*
X122837000Y-77010741D01*
X122837000Y-76833259D01*
X122871624Y-76659188D01*
X122939544Y-76495216D01*
X123038147Y-76347646D01*
X123163646Y-76222147D01*
X123311216Y-76123544D01*
X123475188Y-76055624D01*
X123624488Y-76025927D01*
X123649258Y-76021000D01*
X123826742Y-76021000D01*
X123851512Y-76025927D01*
G37*
G36*
X103531512Y-76025927D02*
G01*
X103680812Y-76055624D01*
X103844784Y-76123544D01*
X103992354Y-76222147D01*
X104117853Y-76347646D01*
X104216456Y-76495216D01*
X104284376Y-76659188D01*
X104319000Y-76833259D01*
X104319000Y-77010741D01*
X104284376Y-77184812D01*
X104216456Y-77348784D01*
X104117853Y-77496354D01*
X103992354Y-77621853D01*
X103844784Y-77720456D01*
X103680812Y-77788376D01*
X103531512Y-77818073D01*
X103506742Y-77823000D01*
X103329258Y-77823000D01*
X103304488Y-77818073D01*
X103155188Y-77788376D01*
X102991216Y-77720456D01*
X102843646Y-77621853D01*
X102718147Y-77496354D01*
X102619544Y-77348784D01*
X102551624Y-77184812D01*
X102517000Y-77010741D01*
X102517000Y-76833259D01*
X102551624Y-76659188D01*
X102619544Y-76495216D01*
X102718147Y-76347646D01*
X102843646Y-76222147D01*
X102991216Y-76123544D01*
X103155188Y-76055624D01*
X103304488Y-76025927D01*
X103329258Y-76021000D01*
X103506742Y-76021000D01*
X103531512Y-76025927D01*
G37*
G36*
X144171512Y-76025927D02*
G01*
X144320812Y-76055624D01*
X144484784Y-76123544D01*
X144632354Y-76222147D01*
X144757853Y-76347646D01*
X144856456Y-76495216D01*
X144924376Y-76659188D01*
X144959000Y-76833259D01*
X144959000Y-77010741D01*
X144924376Y-77184812D01*
X144856456Y-77348784D01*
X144757853Y-77496354D01*
X144632354Y-77621853D01*
X144484784Y-77720456D01*
X144320812Y-77788376D01*
X144171512Y-77818073D01*
X144146742Y-77823000D01*
X143969258Y-77823000D01*
X143944488Y-77818073D01*
X143795188Y-77788376D01*
X143631216Y-77720456D01*
X143483646Y-77621853D01*
X143358147Y-77496354D01*
X143259544Y-77348784D01*
X143191624Y-77184812D01*
X143157000Y-77010741D01*
X143157000Y-76833259D01*
X143191624Y-76659188D01*
X143259544Y-76495216D01*
X143358147Y-76347646D01*
X143483646Y-76222147D01*
X143631216Y-76123544D01*
X143795188Y-76055624D01*
X143944488Y-76025927D01*
X143969258Y-76021000D01*
X144146742Y-76021000D01*
X144171512Y-76025927D01*
G37*
G36*
X148671512Y-73025927D02*
G01*
X148820812Y-73055624D01*
X148984784Y-73123544D01*
X149132354Y-73222147D01*
X149257853Y-73347646D01*
X149356456Y-73495216D01*
X149424376Y-73659188D01*
X149459000Y-73833259D01*
X149459000Y-74010741D01*
X149424376Y-74184812D01*
X149356456Y-74348784D01*
X149257853Y-74496354D01*
X149132354Y-74621853D01*
X148984784Y-74720456D01*
X148820812Y-74788376D01*
X148671512Y-74818073D01*
X148646742Y-74823000D01*
X148469258Y-74823000D01*
X148444488Y-74818073D01*
X148295188Y-74788376D01*
X148131216Y-74720456D01*
X147983646Y-74621853D01*
X147858147Y-74496354D01*
X147759544Y-74348784D01*
X147691624Y-74184812D01*
X147657000Y-74010741D01*
X147657000Y-73833259D01*
X147691624Y-73659188D01*
X147759544Y-73495216D01*
X147858147Y-73347646D01*
X147983646Y-73222147D01*
X148131216Y-73123544D01*
X148295188Y-73055624D01*
X148444488Y-73025927D01*
X148469258Y-73021000D01*
X148646742Y-73021000D01*
X148671512Y-73025927D01*
G37*
G36*
X168991512Y-73025927D02*
G01*
X169140812Y-73055624D01*
X169304784Y-73123544D01*
X169452354Y-73222147D01*
X169577853Y-73347646D01*
X169676456Y-73495216D01*
X169744376Y-73659188D01*
X169779000Y-73833259D01*
X169779000Y-74010741D01*
X169744376Y-74184812D01*
X169676456Y-74348784D01*
X169577853Y-74496354D01*
X169452354Y-74621853D01*
X169304784Y-74720456D01*
X169140812Y-74788376D01*
X168991512Y-74818073D01*
X168966742Y-74823000D01*
X168789258Y-74823000D01*
X168764488Y-74818073D01*
X168615188Y-74788376D01*
X168451216Y-74720456D01*
X168303646Y-74621853D01*
X168178147Y-74496354D01*
X168079544Y-74348784D01*
X168011624Y-74184812D01*
X167977000Y-74010741D01*
X167977000Y-73833259D01*
X168011624Y-73659188D01*
X168079544Y-73495216D01*
X168178147Y-73347646D01*
X168303646Y-73222147D01*
X168451216Y-73123544D01*
X168615188Y-73055624D01*
X168764488Y-73025927D01*
X168789258Y-73021000D01*
X168966742Y-73021000D01*
X168991512Y-73025927D01*
G37*
G36*
X128351512Y-73025927D02*
G01*
X128500812Y-73055624D01*
X128664784Y-73123544D01*
X128812354Y-73222147D01*
X128937853Y-73347646D01*
X129036456Y-73495216D01*
X129104376Y-73659188D01*
X129139000Y-73833259D01*
X129139000Y-74010741D01*
X129104376Y-74184812D01*
X129036456Y-74348784D01*
X128937853Y-74496354D01*
X128812354Y-74621853D01*
X128664784Y-74720456D01*
X128500812Y-74788376D01*
X128351512Y-74818073D01*
X128326742Y-74823000D01*
X128149258Y-74823000D01*
X128124488Y-74818073D01*
X127975188Y-74788376D01*
X127811216Y-74720456D01*
X127663646Y-74621853D01*
X127538147Y-74496354D01*
X127439544Y-74348784D01*
X127371624Y-74184812D01*
X127337000Y-74010741D01*
X127337000Y-73833259D01*
X127371624Y-73659188D01*
X127439544Y-73495216D01*
X127538147Y-73347646D01*
X127663646Y-73222147D01*
X127811216Y-73123544D01*
X127975188Y-73055624D01*
X128124488Y-73025927D01*
X128149258Y-73021000D01*
X128326742Y-73021000D01*
X128351512Y-73025927D01*
G37*
G36*
X108031512Y-73025927D02*
G01*
X108180812Y-73055624D01*
X108344784Y-73123544D01*
X108492354Y-73222147D01*
X108617853Y-73347646D01*
X108716456Y-73495216D01*
X108784376Y-73659188D01*
X108819000Y-73833259D01*
X108819000Y-74010741D01*
X108784376Y-74184812D01*
X108716456Y-74348784D01*
X108617853Y-74496354D01*
X108492354Y-74621853D01*
X108344784Y-74720456D01*
X108180812Y-74788376D01*
X108031512Y-74818073D01*
X108006742Y-74823000D01*
X107829258Y-74823000D01*
X107804488Y-74818073D01*
X107655188Y-74788376D01*
X107491216Y-74720456D01*
X107343646Y-74621853D01*
X107218147Y-74496354D01*
X107119544Y-74348784D01*
X107051624Y-74184812D01*
X107017000Y-74010741D01*
X107017000Y-73833259D01*
X107051624Y-73659188D01*
X107119544Y-73495216D01*
X107218147Y-73347646D01*
X107343646Y-73222147D01*
X107491216Y-73123544D01*
X107655188Y-73055624D01*
X107804488Y-73025927D01*
X107829258Y-73021000D01*
X108006742Y-73021000D01*
X108031512Y-73025927D01*
G37*
G36*
X119351512Y-69025927D02*
G01*
X119500812Y-69055624D01*
X119664784Y-69123544D01*
X119812354Y-69222147D01*
X119937853Y-69347646D01*
X120036456Y-69495216D01*
X120104376Y-69659188D01*
X120139000Y-69833259D01*
X120139000Y-70010741D01*
X120104376Y-70184812D01*
X120036456Y-70348784D01*
X119937853Y-70496354D01*
X119812354Y-70621853D01*
X119664784Y-70720456D01*
X119500812Y-70788376D01*
X119351512Y-70818073D01*
X119326742Y-70823000D01*
X119149258Y-70823000D01*
X119124488Y-70818073D01*
X118975188Y-70788376D01*
X118811216Y-70720456D01*
X118663646Y-70621853D01*
X118538147Y-70496354D01*
X118439544Y-70348784D01*
X118371624Y-70184812D01*
X118337000Y-70010741D01*
X118337000Y-69833259D01*
X118371624Y-69659188D01*
X118439544Y-69495216D01*
X118538147Y-69347646D01*
X118663646Y-69222147D01*
X118811216Y-69123544D01*
X118975188Y-69055624D01*
X119124488Y-69025927D01*
X119149258Y-69021000D01*
X119326742Y-69021000D01*
X119351512Y-69025927D01*
G37*
G36*
X159991512Y-69025927D02*
G01*
X160140812Y-69055624D01*
X160304784Y-69123544D01*
X160452354Y-69222147D01*
X160577853Y-69347646D01*
X160676456Y-69495216D01*
X160744376Y-69659188D01*
X160779000Y-69833259D01*
X160779000Y-70010741D01*
X160744376Y-70184812D01*
X160676456Y-70348784D01*
X160577853Y-70496354D01*
X160452354Y-70621853D01*
X160304784Y-70720456D01*
X160140812Y-70788376D01*
X159991512Y-70818073D01*
X159966742Y-70823000D01*
X159789258Y-70823000D01*
X159764488Y-70818073D01*
X159615188Y-70788376D01*
X159451216Y-70720456D01*
X159303646Y-70621853D01*
X159178147Y-70496354D01*
X159079544Y-70348784D01*
X159011624Y-70184812D01*
X158977000Y-70010741D01*
X158977000Y-69833259D01*
X159011624Y-69659188D01*
X159079544Y-69495216D01*
X159178147Y-69347646D01*
X159303646Y-69222147D01*
X159451216Y-69123544D01*
X159615188Y-69055624D01*
X159764488Y-69025927D01*
X159789258Y-69021000D01*
X159966742Y-69021000D01*
X159991512Y-69025927D01*
G37*
G36*
X99031512Y-69025927D02*
G01*
X99180812Y-69055624D01*
X99344784Y-69123544D01*
X99492354Y-69222147D01*
X99617853Y-69347646D01*
X99716456Y-69495216D01*
X99784376Y-69659188D01*
X99819000Y-69833259D01*
X99819000Y-70010741D01*
X99784376Y-70184812D01*
X99716456Y-70348784D01*
X99617853Y-70496354D01*
X99492354Y-70621853D01*
X99344784Y-70720456D01*
X99180812Y-70788376D01*
X99031512Y-70818073D01*
X99006742Y-70823000D01*
X98829258Y-70823000D01*
X98804488Y-70818073D01*
X98655188Y-70788376D01*
X98491216Y-70720456D01*
X98343646Y-70621853D01*
X98218147Y-70496354D01*
X98119544Y-70348784D01*
X98051624Y-70184812D01*
X98017000Y-70010741D01*
X98017000Y-69833259D01*
X98051624Y-69659188D01*
X98119544Y-69495216D01*
X98218147Y-69347646D01*
X98343646Y-69222147D01*
X98491216Y-69123544D01*
X98655188Y-69055624D01*
X98804488Y-69025927D01*
X98829258Y-69021000D01*
X99006742Y-69021000D01*
X99031512Y-69025927D01*
G37*
G36*
X139671512Y-69025927D02*
G01*
X139820812Y-69055624D01*
X139984784Y-69123544D01*
X140132354Y-69222147D01*
X140257853Y-69347646D01*
X140356456Y-69495216D01*
X140424376Y-69659188D01*
X140459000Y-69833259D01*
X140459000Y-70010741D01*
X140424376Y-70184812D01*
X140356456Y-70348784D01*
X140257853Y-70496354D01*
X140132354Y-70621853D01*
X139984784Y-70720456D01*
X139820812Y-70788376D01*
X139671512Y-70818073D01*
X139646742Y-70823000D01*
X139469258Y-70823000D01*
X139444488Y-70818073D01*
X139295188Y-70788376D01*
X139131216Y-70720456D01*
X138983646Y-70621853D01*
X138858147Y-70496354D01*
X138759544Y-70348784D01*
X138691624Y-70184812D01*
X138657000Y-70010741D01*
X138657000Y-69833259D01*
X138691624Y-69659188D01*
X138759544Y-69495216D01*
X138858147Y-69347646D01*
X138983646Y-69222147D01*
X139131216Y-69123544D01*
X139295188Y-69055624D01*
X139444488Y-69025927D01*
X139469258Y-69021000D01*
X139646742Y-69021000D01*
X139671512Y-69025927D01*
G37*
G36*
X144171512Y-66025927D02*
G01*
X144320812Y-66055624D01*
X144484784Y-66123544D01*
X144632354Y-66222147D01*
X144757853Y-66347646D01*
X144856456Y-66495216D01*
X144924376Y-66659188D01*
X144959000Y-66833259D01*
X144959000Y-67010741D01*
X144924376Y-67184812D01*
X144856456Y-67348784D01*
X144757853Y-67496354D01*
X144632354Y-67621853D01*
X144484784Y-67720456D01*
X144320812Y-67788376D01*
X144171512Y-67818073D01*
X144146742Y-67823000D01*
X143969258Y-67823000D01*
X143944488Y-67818073D01*
X143795188Y-67788376D01*
X143631216Y-67720456D01*
X143483646Y-67621853D01*
X143358147Y-67496354D01*
X143259544Y-67348784D01*
X143191624Y-67184812D01*
X143157000Y-67010741D01*
X143157000Y-66833259D01*
X143191624Y-66659188D01*
X143259544Y-66495216D01*
X143358147Y-66347646D01*
X143483646Y-66222147D01*
X143631216Y-66123544D01*
X143795188Y-66055624D01*
X143944488Y-66025927D01*
X143969258Y-66021000D01*
X144146742Y-66021000D01*
X144171512Y-66025927D01*
G37*
G36*
X123851512Y-66025927D02*
G01*
X124000812Y-66055624D01*
X124164784Y-66123544D01*
X124312354Y-66222147D01*
X124437853Y-66347646D01*
X124536456Y-66495216D01*
X124604376Y-66659188D01*
X124639000Y-66833259D01*
X124639000Y-67010741D01*
X124604376Y-67184812D01*
X124536456Y-67348784D01*
X124437853Y-67496354D01*
X124312354Y-67621853D01*
X124164784Y-67720456D01*
X124000812Y-67788376D01*
X123851512Y-67818073D01*
X123826742Y-67823000D01*
X123649258Y-67823000D01*
X123624488Y-67818073D01*
X123475188Y-67788376D01*
X123311216Y-67720456D01*
X123163646Y-67621853D01*
X123038147Y-67496354D01*
X122939544Y-67348784D01*
X122871624Y-67184812D01*
X122837000Y-67010741D01*
X122837000Y-66833259D01*
X122871624Y-66659188D01*
X122939544Y-66495216D01*
X123038147Y-66347646D01*
X123163646Y-66222147D01*
X123311216Y-66123544D01*
X123475188Y-66055624D01*
X123624488Y-66025927D01*
X123649258Y-66021000D01*
X123826742Y-66021000D01*
X123851512Y-66025927D01*
G37*
G36*
X103531512Y-66025927D02*
G01*
X103680812Y-66055624D01*
X103844784Y-66123544D01*
X103992354Y-66222147D01*
X104117853Y-66347646D01*
X104216456Y-66495216D01*
X104284376Y-66659188D01*
X104319000Y-66833259D01*
X104319000Y-67010741D01*
X104284376Y-67184812D01*
X104216456Y-67348784D01*
X104117853Y-67496354D01*
X103992354Y-67621853D01*
X103844784Y-67720456D01*
X103680812Y-67788376D01*
X103531512Y-67818073D01*
X103506742Y-67823000D01*
X103329258Y-67823000D01*
X103304488Y-67818073D01*
X103155188Y-67788376D01*
X102991216Y-67720456D01*
X102843646Y-67621853D01*
X102718147Y-67496354D01*
X102619544Y-67348784D01*
X102551624Y-67184812D01*
X102517000Y-67010741D01*
X102517000Y-66833259D01*
X102551624Y-66659188D01*
X102619544Y-66495216D01*
X102718147Y-66347646D01*
X102843646Y-66222147D01*
X102991216Y-66123544D01*
X103155188Y-66055624D01*
X103304488Y-66025927D01*
X103329258Y-66021000D01*
X103506742Y-66021000D01*
X103531512Y-66025927D01*
G37*
G36*
X164491512Y-66025927D02*
G01*
X164640812Y-66055624D01*
X164804784Y-66123544D01*
X164952354Y-66222147D01*
X165077853Y-66347646D01*
X165176456Y-66495216D01*
X165244376Y-66659188D01*
X165279000Y-66833259D01*
X165279000Y-67010741D01*
X165244376Y-67184812D01*
X165176456Y-67348784D01*
X165077853Y-67496354D01*
X164952354Y-67621853D01*
X164804784Y-67720456D01*
X164640812Y-67788376D01*
X164491512Y-67818073D01*
X164466742Y-67823000D01*
X164289258Y-67823000D01*
X164264488Y-67818073D01*
X164115188Y-67788376D01*
X163951216Y-67720456D01*
X163803646Y-67621853D01*
X163678147Y-67496354D01*
X163579544Y-67348784D01*
X163511624Y-67184812D01*
X163477000Y-67010741D01*
X163477000Y-66833259D01*
X163511624Y-66659188D01*
X163579544Y-66495216D01*
X163678147Y-66347646D01*
X163803646Y-66222147D01*
X163951216Y-66123544D01*
X164115188Y-66055624D01*
X164264488Y-66025927D01*
X164289258Y-66021000D01*
X164466742Y-66021000D01*
X164491512Y-66025927D01*
G37*
G36*
X103531512Y-55705927D02*
G01*
X103680812Y-55735624D01*
X103844784Y-55803544D01*
X103992354Y-55902147D01*
X104117853Y-56027646D01*
X104216456Y-56175216D01*
X104284376Y-56339188D01*
X104319000Y-56513259D01*
X104319000Y-56690741D01*
X104284376Y-56864812D01*
X104216456Y-57028784D01*
X104117853Y-57176354D01*
X103992354Y-57301853D01*
X103844784Y-57400456D01*
X103680812Y-57468376D01*
X103531512Y-57498073D01*
X103506742Y-57503000D01*
X103329258Y-57503000D01*
X103304488Y-57498073D01*
X103155188Y-57468376D01*
X102991216Y-57400456D01*
X102843646Y-57301853D01*
X102718147Y-57176354D01*
X102619544Y-57028784D01*
X102551624Y-56864812D01*
X102517000Y-56690741D01*
X102517000Y-56513259D01*
X102551624Y-56339188D01*
X102619544Y-56175216D01*
X102718147Y-56027646D01*
X102843646Y-55902147D01*
X102991216Y-55803544D01*
X103155188Y-55735624D01*
X103304488Y-55705927D01*
X103329258Y-55701000D01*
X103506742Y-55701000D01*
X103531512Y-55705927D01*
G37*
G36*
X123851512Y-55705927D02*
G01*
X124000812Y-55735624D01*
X124164784Y-55803544D01*
X124312354Y-55902147D01*
X124437853Y-56027646D01*
X124536456Y-56175216D01*
X124604376Y-56339188D01*
X124639000Y-56513259D01*
X124639000Y-56690741D01*
X124604376Y-56864812D01*
X124536456Y-57028784D01*
X124437853Y-57176354D01*
X124312354Y-57301853D01*
X124164784Y-57400456D01*
X124000812Y-57468376D01*
X123851512Y-57498073D01*
X123826742Y-57503000D01*
X123649258Y-57503000D01*
X123624488Y-57498073D01*
X123475188Y-57468376D01*
X123311216Y-57400456D01*
X123163646Y-57301853D01*
X123038147Y-57176354D01*
X122939544Y-57028784D01*
X122871624Y-56864812D01*
X122837000Y-56690741D01*
X122837000Y-56513259D01*
X122871624Y-56339188D01*
X122939544Y-56175216D01*
X123038147Y-56027646D01*
X123163646Y-55902147D01*
X123311216Y-55803544D01*
X123475188Y-55735624D01*
X123624488Y-55705927D01*
X123649258Y-55701000D01*
X123826742Y-55701000D01*
X123851512Y-55705927D01*
G37*
G36*
X164491512Y-55705927D02*
G01*
X164640812Y-55735624D01*
X164804784Y-55803544D01*
X164952354Y-55902147D01*
X165077853Y-56027646D01*
X165176456Y-56175216D01*
X165244376Y-56339188D01*
X165279000Y-56513259D01*
X165279000Y-56690741D01*
X165244376Y-56864812D01*
X165176456Y-57028784D01*
X165077853Y-57176354D01*
X164952354Y-57301853D01*
X164804784Y-57400456D01*
X164640812Y-57468376D01*
X164491512Y-57498073D01*
X164466742Y-57503000D01*
X164289258Y-57503000D01*
X164264488Y-57498073D01*
X164115188Y-57468376D01*
X163951216Y-57400456D01*
X163803646Y-57301853D01*
X163678147Y-57176354D01*
X163579544Y-57028784D01*
X163511624Y-56864812D01*
X163477000Y-56690741D01*
X163477000Y-56513259D01*
X163511624Y-56339188D01*
X163579544Y-56175216D01*
X163678147Y-56027646D01*
X163803646Y-55902147D01*
X163951216Y-55803544D01*
X164115188Y-55735624D01*
X164264488Y-55705927D01*
X164289258Y-55701000D01*
X164466742Y-55701000D01*
X164491512Y-55705927D01*
G37*
G36*
X144171512Y-55705927D02*
G01*
X144320812Y-55735624D01*
X144484784Y-55803544D01*
X144632354Y-55902147D01*
X144757853Y-56027646D01*
X144856456Y-56175216D01*
X144924376Y-56339188D01*
X144959000Y-56513259D01*
X144959000Y-56690741D01*
X144924376Y-56864812D01*
X144856456Y-57028784D01*
X144757853Y-57176354D01*
X144632354Y-57301853D01*
X144484784Y-57400456D01*
X144320812Y-57468376D01*
X144171512Y-57498073D01*
X144146742Y-57503000D01*
X143969258Y-57503000D01*
X143944488Y-57498073D01*
X143795188Y-57468376D01*
X143631216Y-57400456D01*
X143483646Y-57301853D01*
X143358147Y-57176354D01*
X143259544Y-57028784D01*
X143191624Y-56864812D01*
X143157000Y-56690741D01*
X143157000Y-56513259D01*
X143191624Y-56339188D01*
X143259544Y-56175216D01*
X143358147Y-56027646D01*
X143483646Y-55902147D01*
X143631216Y-55803544D01*
X143795188Y-55735624D01*
X143944488Y-55705927D01*
X143969258Y-55701000D01*
X144146742Y-55701000D01*
X144171512Y-55705927D01*
G37*
G36*
X128351512Y-52705927D02*
G01*
X128500812Y-52735624D01*
X128664784Y-52803544D01*
X128812354Y-52902147D01*
X128937853Y-53027646D01*
X129036456Y-53175216D01*
X129104376Y-53339188D01*
X129139000Y-53513259D01*
X129139000Y-53690741D01*
X129104376Y-53864812D01*
X129036456Y-54028784D01*
X128937853Y-54176354D01*
X128812354Y-54301853D01*
X128664784Y-54400456D01*
X128500812Y-54468376D01*
X128351512Y-54498073D01*
X128326742Y-54503000D01*
X128149258Y-54503000D01*
X128124488Y-54498073D01*
X127975188Y-54468376D01*
X127811216Y-54400456D01*
X127663646Y-54301853D01*
X127538147Y-54176354D01*
X127439544Y-54028784D01*
X127371624Y-53864812D01*
X127337000Y-53690741D01*
X127337000Y-53513259D01*
X127371624Y-53339188D01*
X127439544Y-53175216D01*
X127538147Y-53027646D01*
X127663646Y-52902147D01*
X127811216Y-52803544D01*
X127975188Y-52735624D01*
X128124488Y-52705927D01*
X128149258Y-52701000D01*
X128326742Y-52701000D01*
X128351512Y-52705927D01*
G37*
G36*
X148671512Y-52705927D02*
G01*
X148820812Y-52735624D01*
X148984784Y-52803544D01*
X149132354Y-52902147D01*
X149257853Y-53027646D01*
X149356456Y-53175216D01*
X149424376Y-53339188D01*
X149459000Y-53513259D01*
X149459000Y-53690741D01*
X149424376Y-53864812D01*
X149356456Y-54028784D01*
X149257853Y-54176354D01*
X149132354Y-54301853D01*
X148984784Y-54400456D01*
X148820812Y-54468376D01*
X148671512Y-54498073D01*
X148646742Y-54503000D01*
X148469258Y-54503000D01*
X148444488Y-54498073D01*
X148295188Y-54468376D01*
X148131216Y-54400456D01*
X147983646Y-54301853D01*
X147858147Y-54176354D01*
X147759544Y-54028784D01*
X147691624Y-53864812D01*
X147657000Y-53690741D01*
X147657000Y-53513259D01*
X147691624Y-53339188D01*
X147759544Y-53175216D01*
X147858147Y-53027646D01*
X147983646Y-52902147D01*
X148131216Y-52803544D01*
X148295188Y-52735624D01*
X148444488Y-52705927D01*
X148469258Y-52701000D01*
X148646742Y-52701000D01*
X148671512Y-52705927D01*
G37*
G36*
X108031512Y-52705927D02*
G01*
X108180812Y-52735624D01*
X108344784Y-52803544D01*
X108492354Y-52902147D01*
X108617853Y-53027646D01*
X108716456Y-53175216D01*
X108784376Y-53339188D01*
X108819000Y-53513259D01*
X108819000Y-53690741D01*
X108784376Y-53864812D01*
X108716456Y-54028784D01*
X108617853Y-54176354D01*
X108492354Y-54301853D01*
X108344784Y-54400456D01*
X108180812Y-54468376D01*
X108031512Y-54498073D01*
X108006742Y-54503000D01*
X107829258Y-54503000D01*
X107804488Y-54498073D01*
X107655188Y-54468376D01*
X107491216Y-54400456D01*
X107343646Y-54301853D01*
X107218147Y-54176354D01*
X107119544Y-54028784D01*
X107051624Y-53864812D01*
X107017000Y-53690741D01*
X107017000Y-53513259D01*
X107051624Y-53339188D01*
X107119544Y-53175216D01*
X107218147Y-53027646D01*
X107343646Y-52902147D01*
X107491216Y-52803544D01*
X107655188Y-52735624D01*
X107804488Y-52705927D01*
X107829258Y-52701000D01*
X108006742Y-52701000D01*
X108031512Y-52705927D01*
G37*
G36*
X168991512Y-52705927D02*
G01*
X169140812Y-52735624D01*
X169304784Y-52803544D01*
X169452354Y-52902147D01*
X169577853Y-53027646D01*
X169676456Y-53175216D01*
X169744376Y-53339188D01*
X169779000Y-53513259D01*
X169779000Y-53690741D01*
X169744376Y-53864812D01*
X169676456Y-54028784D01*
X169577853Y-54176354D01*
X169452354Y-54301853D01*
X169304784Y-54400456D01*
X169140812Y-54468376D01*
X168991512Y-54498073D01*
X168966742Y-54503000D01*
X168789258Y-54503000D01*
X168764488Y-54498073D01*
X168615188Y-54468376D01*
X168451216Y-54400456D01*
X168303646Y-54301853D01*
X168178147Y-54176354D01*
X168079544Y-54028784D01*
X168011624Y-53864812D01*
X167977000Y-53690741D01*
X167977000Y-53513259D01*
X168011624Y-53339188D01*
X168079544Y-53175216D01*
X168178147Y-53027646D01*
X168303646Y-52902147D01*
X168451216Y-52803544D01*
X168615188Y-52735624D01*
X168764488Y-52705927D01*
X168789258Y-52701000D01*
X168966742Y-52701000D01*
X168991512Y-52705927D01*
G37*
G36*
X99031512Y-48705927D02*
G01*
X99180812Y-48735624D01*
X99344784Y-48803544D01*
X99492354Y-48902147D01*
X99617853Y-49027646D01*
X99716456Y-49175216D01*
X99784376Y-49339188D01*
X99819000Y-49513259D01*
X99819000Y-49690741D01*
X99784376Y-49864812D01*
X99716456Y-50028784D01*
X99617853Y-50176354D01*
X99492354Y-50301853D01*
X99344784Y-50400456D01*
X99180812Y-50468376D01*
X99031512Y-50498073D01*
X99006742Y-50503000D01*
X98829258Y-50503000D01*
X98804488Y-50498073D01*
X98655188Y-50468376D01*
X98491216Y-50400456D01*
X98343646Y-50301853D01*
X98218147Y-50176354D01*
X98119544Y-50028784D01*
X98051624Y-49864812D01*
X98017000Y-49690741D01*
X98017000Y-49513259D01*
X98051624Y-49339188D01*
X98119544Y-49175216D01*
X98218147Y-49027646D01*
X98343646Y-48902147D01*
X98491216Y-48803544D01*
X98655188Y-48735624D01*
X98804488Y-48705927D01*
X98829258Y-48701000D01*
X99006742Y-48701000D01*
X99031512Y-48705927D01*
G37*
G36*
X159991512Y-48705927D02*
G01*
X160140812Y-48735624D01*
X160304784Y-48803544D01*
X160452354Y-48902147D01*
X160577853Y-49027646D01*
X160676456Y-49175216D01*
X160744376Y-49339188D01*
X160779000Y-49513259D01*
X160779000Y-49690741D01*
X160744376Y-49864812D01*
X160676456Y-50028784D01*
X160577853Y-50176354D01*
X160452354Y-50301853D01*
X160304784Y-50400456D01*
X160140812Y-50468376D01*
X159991512Y-50498073D01*
X159966742Y-50503000D01*
X159789258Y-50503000D01*
X159764488Y-50498073D01*
X159615188Y-50468376D01*
X159451216Y-50400456D01*
X159303646Y-50301853D01*
X159178147Y-50176354D01*
X159079544Y-50028784D01*
X159011624Y-49864812D01*
X158977000Y-49690741D01*
X158977000Y-49513259D01*
X159011624Y-49339188D01*
X159079544Y-49175216D01*
X159178147Y-49027646D01*
X159303646Y-48902147D01*
X159451216Y-48803544D01*
X159615188Y-48735624D01*
X159764488Y-48705927D01*
X159789258Y-48701000D01*
X159966742Y-48701000D01*
X159991512Y-48705927D01*
G37*
G36*
X139671512Y-48705927D02*
G01*
X139820812Y-48735624D01*
X139984784Y-48803544D01*
X140132354Y-48902147D01*
X140257853Y-49027646D01*
X140356456Y-49175216D01*
X140424376Y-49339188D01*
X140459000Y-49513259D01*
X140459000Y-49690741D01*
X140424376Y-49864812D01*
X140356456Y-50028784D01*
X140257853Y-50176354D01*
X140132354Y-50301853D01*
X139984784Y-50400456D01*
X139820812Y-50468376D01*
X139671512Y-50498073D01*
X139646742Y-50503000D01*
X139469258Y-50503000D01*
X139444488Y-50498073D01*
X139295188Y-50468376D01*
X139131216Y-50400456D01*
X138983646Y-50301853D01*
X138858147Y-50176354D01*
X138759544Y-50028784D01*
X138691624Y-49864812D01*
X138657000Y-49690741D01*
X138657000Y-49513259D01*
X138691624Y-49339188D01*
X138759544Y-49175216D01*
X138858147Y-49027646D01*
X138983646Y-48902147D01*
X139131216Y-48803544D01*
X139295188Y-48735624D01*
X139444488Y-48705927D01*
X139469258Y-48701000D01*
X139646742Y-48701000D01*
X139671512Y-48705927D01*
G37*
G36*
X119351512Y-48705927D02*
G01*
X119500812Y-48735624D01*
X119664784Y-48803544D01*
X119812354Y-48902147D01*
X119937853Y-49027646D01*
X120036456Y-49175216D01*
X120104376Y-49339188D01*
X120139000Y-49513259D01*
X120139000Y-49690741D01*
X120104376Y-49864812D01*
X120036456Y-50028784D01*
X119937853Y-50176354D01*
X119812354Y-50301853D01*
X119664784Y-50400456D01*
X119500812Y-50468376D01*
X119351512Y-50498073D01*
X119326742Y-50503000D01*
X119149258Y-50503000D01*
X119124488Y-50498073D01*
X118975188Y-50468376D01*
X118811216Y-50400456D01*
X118663646Y-50301853D01*
X118538147Y-50176354D01*
X118439544Y-50028784D01*
X118371624Y-49864812D01*
X118337000Y-49690741D01*
X118337000Y-49513259D01*
X118371624Y-49339188D01*
X118439544Y-49175216D01*
X118538147Y-49027646D01*
X118663646Y-48902147D01*
X118811216Y-48803544D01*
X118975188Y-48735624D01*
X119124488Y-48705927D01*
X119149258Y-48701000D01*
X119326742Y-48701000D01*
X119351512Y-48705927D01*
G37*
G36*
X164491512Y-45705927D02*
G01*
X164640812Y-45735624D01*
X164804784Y-45803544D01*
X164952354Y-45902147D01*
X165077853Y-46027646D01*
X165176456Y-46175216D01*
X165244376Y-46339188D01*
X165279000Y-46513259D01*
X165279000Y-46690741D01*
X165244376Y-46864812D01*
X165176456Y-47028784D01*
X165077853Y-47176354D01*
X164952354Y-47301853D01*
X164804784Y-47400456D01*
X164640812Y-47468376D01*
X164491512Y-47498073D01*
X164466742Y-47503000D01*
X164289258Y-47503000D01*
X164264488Y-47498073D01*
X164115188Y-47468376D01*
X163951216Y-47400456D01*
X163803646Y-47301853D01*
X163678147Y-47176354D01*
X163579544Y-47028784D01*
X163511624Y-46864812D01*
X163477000Y-46690741D01*
X163477000Y-46513259D01*
X163511624Y-46339188D01*
X163579544Y-46175216D01*
X163678147Y-46027646D01*
X163803646Y-45902147D01*
X163951216Y-45803544D01*
X164115188Y-45735624D01*
X164264488Y-45705927D01*
X164289258Y-45701000D01*
X164466742Y-45701000D01*
X164491512Y-45705927D01*
G37*
G36*
X144171512Y-45705927D02*
G01*
X144320812Y-45735624D01*
X144484784Y-45803544D01*
X144632354Y-45902147D01*
X144757853Y-46027646D01*
X144856456Y-46175216D01*
X144924376Y-46339188D01*
X144959000Y-46513259D01*
X144959000Y-46690741D01*
X144924376Y-46864812D01*
X144856456Y-47028784D01*
X144757853Y-47176354D01*
X144632354Y-47301853D01*
X144484784Y-47400456D01*
X144320812Y-47468376D01*
X144171512Y-47498073D01*
X144146742Y-47503000D01*
X143969258Y-47503000D01*
X143944488Y-47498073D01*
X143795188Y-47468376D01*
X143631216Y-47400456D01*
X143483646Y-47301853D01*
X143358147Y-47176354D01*
X143259544Y-47028784D01*
X143191624Y-46864812D01*
X143157000Y-46690741D01*
X143157000Y-46513259D01*
X143191624Y-46339188D01*
X143259544Y-46175216D01*
X143358147Y-46027646D01*
X143483646Y-45902147D01*
X143631216Y-45803544D01*
X143795188Y-45735624D01*
X143944488Y-45705927D01*
X143969258Y-45701000D01*
X144146742Y-45701000D01*
X144171512Y-45705927D01*
G37*
G36*
X123851512Y-45705927D02*
G01*
X124000812Y-45735624D01*
X124164784Y-45803544D01*
X124312354Y-45902147D01*
X124437853Y-46027646D01*
X124536456Y-46175216D01*
X124604376Y-46339188D01*
X124639000Y-46513259D01*
X124639000Y-46690741D01*
X124604376Y-46864812D01*
X124536456Y-47028784D01*
X124437853Y-47176354D01*
X124312354Y-47301853D01*
X124164784Y-47400456D01*
X124000812Y-47468376D01*
X123851512Y-47498073D01*
X123826742Y-47503000D01*
X123649258Y-47503000D01*
X123624488Y-47498073D01*
X123475188Y-47468376D01*
X123311216Y-47400456D01*
X123163646Y-47301853D01*
X123038147Y-47176354D01*
X122939544Y-47028784D01*
X122871624Y-46864812D01*
X122837000Y-46690741D01*
X122837000Y-46513259D01*
X122871624Y-46339188D01*
X122939544Y-46175216D01*
X123038147Y-46027646D01*
X123163646Y-45902147D01*
X123311216Y-45803544D01*
X123475188Y-45735624D01*
X123624488Y-45705927D01*
X123649258Y-45701000D01*
X123826742Y-45701000D01*
X123851512Y-45705927D01*
G37*
G36*
X103531512Y-45705927D02*
G01*
X103680812Y-45735624D01*
X103844784Y-45803544D01*
X103992354Y-45902147D01*
X104117853Y-46027646D01*
X104216456Y-46175216D01*
X104284376Y-46339188D01*
X104319000Y-46513259D01*
X104319000Y-46690741D01*
X104284376Y-46864812D01*
X104216456Y-47028784D01*
X104117853Y-47176354D01*
X103992354Y-47301853D01*
X103844784Y-47400456D01*
X103680812Y-47468376D01*
X103531512Y-47498073D01*
X103506742Y-47503000D01*
X103329258Y-47503000D01*
X103304488Y-47498073D01*
X103155188Y-47468376D01*
X102991216Y-47400456D01*
X102843646Y-47301853D01*
X102718147Y-47176354D01*
X102619544Y-47028784D01*
X102551624Y-46864812D01*
X102517000Y-46690741D01*
X102517000Y-46513259D01*
X102551624Y-46339188D01*
X102619544Y-46175216D01*
X102718147Y-46027646D01*
X102843646Y-45902147D01*
X102991216Y-45803544D01*
X103155188Y-45735624D01*
X103304488Y-45705927D01*
X103329258Y-45701000D01*
X103506742Y-45701000D01*
X103531512Y-45705927D01*
G37*
M02*
