G04 #@! TF.GenerationSoftware,KiCad,Pcbnew,(6.0.0)*
G04 #@! TF.CreationDate,2022-03-01T21:04:48+01:00*
G04 #@! TF.ProjectId,Keyboard_v2,4b657962-6f61-4726-945f-76322e6b6963,rev?*
G04 #@! TF.SameCoordinates,Original*
G04 #@! TF.FileFunction,Copper,L1,Top*
G04 #@! TF.FilePolarity,Positive*
%FSLAX46Y46*%
G04 Gerber Fmt 4.6, Leading zero omitted, Abs format (unit mm)*
G04 Created by KiCad (PCBNEW (6.0.0)) date 2022-03-01 21:04:48*
%MOMM*%
%LPD*%
G01*
G04 APERTURE LIST*
G04 #@! TA.AperFunction,Profile*
%ADD10C,0.050000*%
G04 #@! TD*
G04 #@! TA.AperFunction,ComponentPad*
%ADD11C,1.700000*%
G04 #@! TD*
G04 #@! TA.AperFunction,ComponentPad*
%ADD12R,1.600000X1.600000*%
G04 #@! TD*
G04 #@! TA.AperFunction,ComponentPad*
%ADD13C,1.600000*%
G04 #@! TD*
G04 #@! TA.AperFunction,ComponentPad*
%ADD14R,1.700000X1.700000*%
G04 #@! TD*
G04 #@! TA.AperFunction,ComponentPad*
%ADD15O,1.700000X1.700000*%
G04 #@! TD*
G04 #@! TA.AperFunction,Conductor*
%ADD16C,0.250000*%
G04 #@! TD*
G04 #@! TA.AperFunction,Conductor*
%ADD17C,0.500000*%
G04 #@! TD*
G04 APERTURE END LIST*
D10*
X184745000Y-143405000D02*
X84745000Y-143405000D01*
X92150000Y-138500000D02*
G75*
G03*
X92150000Y-138500000I-2400000J0D01*
G01*
X182150000Y-138500000D02*
G75*
G03*
X182150000Y-138500000I-2400000J0D01*
G01*
X182145000Y-130905000D02*
G75*
G03*
X182145000Y-130905000I-2400000J0D01*
G01*
X84745000Y-43405000D02*
X184745000Y-43405000D01*
X84745000Y-143405000D02*
X84745000Y-43405000D01*
X184745000Y-43405000D02*
X184745000Y-143405000D01*
X92150000Y-131000000D02*
G75*
G03*
X92150000Y-131000000I-2400000J0D01*
G01*
D11*
X98918000Y-69922000D03*
X107918000Y-73922000D03*
X119238000Y-69922000D03*
X128238000Y-73922000D03*
X139558000Y-69922000D03*
X148558000Y-73922000D03*
X159878000Y-69922000D03*
X168878000Y-73922000D03*
X139558000Y-49602000D03*
X148558000Y-53602000D03*
X159878000Y-49602000D03*
X168878000Y-53602000D03*
X98918000Y-110562000D03*
X107918000Y-114562000D03*
X119238000Y-49602000D03*
X128238000Y-53602000D03*
X159878000Y-90242000D03*
X168878000Y-94242000D03*
X139558000Y-110562000D03*
X148558000Y-114562000D03*
D12*
X160020000Y-121285000D03*
D13*
X162560000Y-121285000D03*
X165100000Y-121285000D03*
X167640000Y-121285000D03*
X170180000Y-121285000D03*
X170180000Y-106045000D03*
X167640000Y-106045000D03*
X165100000Y-106045000D03*
X162560000Y-106045000D03*
X160020000Y-106045000D03*
D11*
X139558000Y-90242000D03*
X148558000Y-94242000D03*
X119238000Y-90242000D03*
X128238000Y-94242000D03*
X98918000Y-49602000D03*
X107918000Y-53602000D03*
X98918000Y-90242000D03*
X107918000Y-94242000D03*
X119238000Y-110562000D03*
X128238000Y-114562000D03*
D14*
X123835000Y-127070000D03*
D15*
X126375000Y-127070000D03*
X128915000Y-127070000D03*
X131455000Y-127070000D03*
D14*
X111125000Y-127070000D03*
D15*
X113665000Y-127070000D03*
X116205000Y-127070000D03*
X118745000Y-127070000D03*
D14*
X138176000Y-127000000D03*
D15*
X140716000Y-127000000D03*
X143256000Y-127000000D03*
X145796000Y-127000000D03*
X148336000Y-127000000D03*
X150876000Y-127000000D03*
X153416000Y-127000000D03*
X155956000Y-127000000D03*
X158496000Y-127000000D03*
D16*
X131455000Y-127070000D02*
X131455000Y-123815000D01*
X148590000Y-127000000D02*
X152400000Y-123190000D01*
X168910000Y-124460000D02*
X170180000Y-123190000D01*
X139558000Y-109359919D02*
X139558000Y-90242000D01*
X162560000Y-115570000D02*
X162560000Y-106045000D01*
X126375000Y-127070000D02*
X126375000Y-113040000D01*
X155956000Y-127000000D02*
X155956000Y-128651000D01*
X139558000Y-110562000D02*
X139558000Y-109359919D01*
X151130000Y-127000000D02*
X151130000Y-125730000D01*
X151765000Y-121285000D02*
X160020000Y-121285000D01*
X158496000Y-127000000D02*
X161036000Y-124460000D01*
X151130000Y-125730000D02*
X153035000Y-123825000D01*
X98918000Y-89039919D02*
X98918000Y-69922000D01*
X119238000Y-90242000D02*
X119238000Y-110562000D01*
X170180000Y-123190000D02*
X170180000Y-121285000D01*
X137170000Y-112950000D02*
X137760000Y-112360000D01*
X123835000Y-121930000D02*
X123835000Y-127070000D01*
X161925000Y-123190000D02*
X162560000Y-122555000D01*
X172085000Y-124460000D02*
X172085000Y-112395000D01*
X98918000Y-110562000D02*
X112467000Y-110562000D01*
X159878000Y-90242000D02*
X159878000Y-89039919D01*
X147701000Y-120015000D02*
X156845000Y-120015000D01*
X161036000Y-124460000D02*
X168910000Y-124460000D01*
X149606000Y-120650000D02*
X157480000Y-120650000D01*
X172720000Y-111760000D02*
X172720000Y-125095000D01*
X153416000Y-128651000D02*
X153416000Y-127000000D01*
X98918000Y-90242000D02*
X98918000Y-89039919D01*
X167640000Y-122555000D02*
X167640000Y-121285000D01*
X119238000Y-50804081D02*
X119238000Y-69922000D01*
X139558000Y-69922000D02*
X139558000Y-49602000D01*
X166370000Y-123825000D02*
X167640000Y-122555000D01*
X159878000Y-89039919D02*
X159878000Y-69922000D01*
X119238000Y-49602000D02*
X119238000Y-50804081D01*
X172720000Y-125095000D02*
X168275000Y-129540000D01*
D17*
X165100000Y-121285000D02*
X165100000Y-106045000D01*
D16*
X157480000Y-120650000D02*
X162560000Y-115570000D01*
X123897000Y-110562000D02*
X119238000Y-110562000D01*
X146050000Y-127000000D02*
X151765000Y-121285000D01*
X172085000Y-112395000D02*
X167640000Y-107950000D01*
X119238000Y-69922000D02*
X119238000Y-90242000D01*
X139772000Y-110562000D02*
X139558000Y-110562000D01*
X162560000Y-122555000D02*
X162560000Y-121285000D01*
X152400000Y-123190000D02*
X161925000Y-123190000D01*
X137760000Y-112360000D02*
X139558000Y-110562000D01*
X139558000Y-90242000D02*
X139558000Y-89039919D01*
X128915000Y-127070000D02*
X128915000Y-121205000D01*
X156210000Y-128905000D02*
X167640000Y-128905000D01*
X170180000Y-109220000D02*
X172720000Y-111760000D01*
X143256000Y-127000000D02*
X149606000Y-120650000D01*
X155956000Y-128651000D02*
X156210000Y-128905000D01*
X154305000Y-129540000D02*
X153416000Y-128651000D01*
X167640000Y-107950000D02*
X167640000Y-106045000D01*
X170180000Y-106045000D02*
X170180000Y-109220000D01*
X139558000Y-89039919D02*
X139558000Y-69922000D01*
X140716000Y-127000000D02*
X147701000Y-120015000D01*
X153035000Y-123825000D02*
X166370000Y-123825000D01*
X160020000Y-116840000D02*
X160020000Y-106045000D01*
X128915000Y-121205000D02*
X137760000Y-112360000D01*
X126375000Y-113040000D02*
X123897000Y-110562000D01*
X159878000Y-69922000D02*
X159878000Y-49602000D01*
X98918000Y-110562000D02*
X98918000Y-90242000D01*
X131455000Y-123815000D02*
X159878000Y-95392000D01*
X112467000Y-110562000D02*
X123835000Y-121930000D01*
X98918000Y-69922000D02*
X98918000Y-49602000D01*
X156845000Y-120015000D02*
X160020000Y-116840000D01*
X168275000Y-129540000D02*
X154305000Y-129540000D01*
X167640000Y-128905000D02*
X172085000Y-124460000D01*
X159878000Y-95392000D02*
X159878000Y-90242000D01*
M02*
