%FSLAX45Y45*%
G04 Gerber Fmt 4.5, Leading zero omitted, Abs format (unit mm)*
G04 Created by KiCad (PCBNEW (6.0.0)) date 2022-03-01 21:05:48*
%MOMM*%
%LPD*%
G01*
G04 APERTURE LIST*
%TA.AperFunction,Profile*%
%ADD10C,0.050000*%
%TD*%
%ADD11C,0.200000*%
%ADD12C,0.080000*%
%ADD13C,0.100000*%
%ADD14C,0.120000*%
G04 APERTURE END LIST*
D10*
X18474500Y-14340500D02*
X8474500Y-14340500D01*
X9215000Y-13850000D02*
G75*
G03*
X9215000Y-13850000I-240000J0D01*
G01*
X18215000Y-13850000D02*
G75*
G03*
X18215000Y-13850000I-240000J0D01*
G01*
X18214500Y-13090500D02*
G75*
G03*
X18214500Y-13090500I-240000J0D01*
G01*
X8474500Y-4340500D02*
X18474500Y-4340500D01*
X8474500Y-14340500D02*
X8474500Y-4340500D01*
X18474500Y-4340500D02*
X18474500Y-14340500D01*
X9215000Y-13100000D02*
G75*
G03*
X9215000Y-13100000I-240000J0D01*
G01*
D11*
D12*
X15962000Y-10564500D02*
X16042000Y-10644500D01*
X16042000Y-10564500D02*
X15962000Y-10644500D01*
X15962000Y-12088500D02*
X16042000Y-12168500D01*
X16042000Y-12088500D02*
X15962000Y-12168500D01*
X16216000Y-10564500D02*
X16296000Y-10644500D01*
X16296000Y-10564500D02*
X16216000Y-10644500D01*
X16216000Y-12088500D02*
X16296000Y-12168500D01*
X16296000Y-12088500D02*
X16216000Y-12168500D01*
X16470000Y-10564500D02*
X16550000Y-10644500D01*
X16550000Y-10564500D02*
X16470000Y-10644500D01*
X16470000Y-12088500D02*
X16550000Y-12168500D01*
X16550000Y-12088500D02*
X16470000Y-12168500D01*
X16724000Y-10564500D02*
X16804000Y-10644500D01*
X16804000Y-10564500D02*
X16724000Y-10644500D01*
X16724000Y-12088500D02*
X16804000Y-12168500D01*
X16804000Y-12088500D02*
X16724000Y-12168500D01*
X16978000Y-10564500D02*
X17058000Y-10644500D01*
X17058000Y-10564500D02*
X16978000Y-10644500D01*
X16978000Y-12088500D02*
X17058000Y-12168500D01*
X17058000Y-12088500D02*
X16978000Y-12168500D01*
D13*
X11162500Y-12707000D02*
G75*
G03*
X11162500Y-12707000I-50000J0D01*
G01*
X11416500Y-12707000D02*
G75*
G03*
X11416500Y-12707000I-50000J0D01*
G01*
X11670500Y-12707000D02*
G75*
G03*
X11670500Y-12707000I-50000J0D01*
G01*
X11924500Y-12707000D02*
G75*
G03*
X11924500Y-12707000I-50000J0D01*
G01*
X12433500Y-12707000D02*
G75*
G03*
X12433500Y-12707000I-50000J0D01*
G01*
X12687500Y-12707000D02*
G75*
G03*
X12687500Y-12707000I-50000J0D01*
G01*
X12941500Y-12707000D02*
G75*
G03*
X12941500Y-12707000I-50000J0D01*
G01*
X13195500Y-12707000D02*
G75*
G03*
X13195500Y-12707000I-50000J0D01*
G01*
X13867600Y-12700000D02*
G75*
G03*
X13867600Y-12700000I-50000J0D01*
G01*
X14121600Y-12700000D02*
G75*
G03*
X14121600Y-12700000I-50000J0D01*
G01*
X14375600Y-12700000D02*
G75*
G03*
X14375600Y-12700000I-50000J0D01*
G01*
X14629600Y-12700000D02*
G75*
G03*
X14629600Y-12700000I-50000J0D01*
G01*
X14883600Y-12700000D02*
G75*
G03*
X14883600Y-12700000I-50000J0D01*
G01*
X15137600Y-12700000D02*
G75*
G03*
X15137600Y-12700000I-50000J0D01*
G01*
X15391600Y-12700000D02*
G75*
G03*
X15391600Y-12700000I-50000J0D01*
G01*
X15645600Y-12700000D02*
G75*
G03*
X15645600Y-12700000I-50000J0D01*
G01*
X15899600Y-12700000D02*
G75*
G03*
X15899600Y-12700000I-50000J0D01*
G01*
D14*
X9891800Y-4900200D02*
X9891800Y-5020200D01*
X9831800Y-4960200D02*
X9951800Y-4960200D01*
X9891800Y-6932200D02*
X9891800Y-7052200D01*
X9831800Y-6992200D02*
X9951800Y-6992200D01*
X9891800Y-8964200D02*
X9891800Y-9084200D01*
X9831800Y-9024200D02*
X9951800Y-9024200D01*
X9891800Y-10996200D02*
X9891800Y-11116200D01*
X9831800Y-11056200D02*
X9951800Y-11056200D01*
X10791800Y-5300200D02*
X10791800Y-5420200D01*
X10731800Y-5360200D02*
X10851800Y-5360200D01*
X10791800Y-7332200D02*
X10791800Y-7452200D01*
X10731800Y-7392200D02*
X10851800Y-7392200D01*
X10791800Y-9364200D02*
X10791800Y-9484200D01*
X10731800Y-9424200D02*
X10851800Y-9424200D01*
X10791800Y-11396200D02*
X10791800Y-11516200D01*
X10731800Y-11456200D02*
X10851800Y-11456200D01*
X11923800Y-4900200D02*
X11923800Y-5020200D01*
X11863800Y-4960200D02*
X11983800Y-4960200D01*
X11923800Y-6932200D02*
X11923800Y-7052200D01*
X11863800Y-6992200D02*
X11983800Y-6992200D01*
X11923800Y-8964200D02*
X11923800Y-9084200D01*
X11863800Y-9024200D02*
X11983800Y-9024200D01*
X11923800Y-10996200D02*
X11923800Y-11116200D01*
X11863800Y-11056200D02*
X11983800Y-11056200D01*
X12823800Y-5300200D02*
X12823800Y-5420200D01*
X12763800Y-5360200D02*
X12883800Y-5360200D01*
X12823800Y-7332200D02*
X12823800Y-7452200D01*
X12763800Y-7392200D02*
X12883800Y-7392200D01*
X12823800Y-9364200D02*
X12823800Y-9484200D01*
X12763800Y-9424200D02*
X12883800Y-9424200D01*
X12823800Y-11396200D02*
X12823800Y-11516200D01*
X12763800Y-11456200D02*
X12883800Y-11456200D01*
X13955800Y-4900200D02*
X13955800Y-5020200D01*
X13895800Y-4960200D02*
X14015800Y-4960200D01*
X13955800Y-6932200D02*
X13955800Y-7052200D01*
X13895800Y-6992200D02*
X14015800Y-6992200D01*
X13955800Y-8964200D02*
X13955800Y-9084200D01*
X13895800Y-9024200D02*
X14015800Y-9024200D01*
X13955800Y-10996200D02*
X13955800Y-11116200D01*
X13895800Y-11056200D02*
X14015800Y-11056200D01*
X14855800Y-5300200D02*
X14855800Y-5420200D01*
X14795800Y-5360200D02*
X14915800Y-5360200D01*
X14855800Y-7332200D02*
X14855800Y-7452200D01*
X14795800Y-7392200D02*
X14915800Y-7392200D01*
X14855800Y-9364200D02*
X14855800Y-9484200D01*
X14795800Y-9424200D02*
X14915800Y-9424200D01*
X14855800Y-11396200D02*
X14855800Y-11516200D01*
X14795800Y-11456200D02*
X14915800Y-11456200D01*
X15987800Y-4900200D02*
X15987800Y-5020200D01*
X15927800Y-4960200D02*
X16047800Y-4960200D01*
X15987800Y-6932200D02*
X15987800Y-7052200D01*
X15927800Y-6992200D02*
X16047800Y-6992200D01*
X15987800Y-8964200D02*
X15987800Y-9084200D01*
X15927800Y-9024200D02*
X16047800Y-9024200D01*
X16887800Y-5300200D02*
X16887800Y-5420200D01*
X16827800Y-5360200D02*
X16947800Y-5360200D01*
X16887800Y-7332200D02*
X16887800Y-7452200D01*
X16827800Y-7392200D02*
X16947800Y-7392200D01*
X16887800Y-9364200D02*
X16887800Y-9484200D01*
X16827800Y-9424200D02*
X16947800Y-9424200D01*
D11*
X8729619Y-14653476D02*
X8729619Y-14453476D01*
X8777238Y-14453476D01*
X8805810Y-14463000D01*
X8824857Y-14482048D01*
X8834381Y-14501095D01*
X8843905Y-14539190D01*
X8843905Y-14567762D01*
X8834381Y-14605857D01*
X8824857Y-14624905D01*
X8805810Y-14643952D01*
X8777238Y-14653476D01*
X8729619Y-14653476D01*
X8929619Y-14653476D02*
X8929619Y-14520143D01*
X8929619Y-14558238D02*
X8939143Y-14539190D01*
X8948667Y-14529667D01*
X8967714Y-14520143D01*
X8986762Y-14520143D01*
X9053429Y-14653476D02*
X9053429Y-14520143D01*
X9053429Y-14453476D02*
X9043905Y-14463000D01*
X9053429Y-14472524D01*
X9062952Y-14463000D01*
X9053429Y-14453476D01*
X9053429Y-14472524D01*
X9177238Y-14653476D02*
X9158190Y-14643952D01*
X9148667Y-14624905D01*
X9148667Y-14453476D01*
X9282000Y-14653476D02*
X9262952Y-14643952D01*
X9253429Y-14624905D01*
X9253429Y-14453476D01*
X9510571Y-14653476D02*
X9510571Y-14453476D01*
X9577238Y-14596333D01*
X9643905Y-14453476D01*
X9643905Y-14653476D01*
X9824857Y-14653476D02*
X9824857Y-14548714D01*
X9815333Y-14529667D01*
X9796286Y-14520143D01*
X9758190Y-14520143D01*
X9739143Y-14529667D01*
X9824857Y-14643952D02*
X9805810Y-14653476D01*
X9758190Y-14653476D01*
X9739143Y-14643952D01*
X9729619Y-14624905D01*
X9729619Y-14605857D01*
X9739143Y-14586809D01*
X9758190Y-14577286D01*
X9805810Y-14577286D01*
X9824857Y-14567762D01*
X9920095Y-14520143D02*
X9920095Y-14720143D01*
X9920095Y-14529667D02*
X9939143Y-14520143D01*
X9977238Y-14520143D01*
X9996286Y-14529667D01*
X10005810Y-14539190D01*
X10015333Y-14558238D01*
X10015333Y-14615381D01*
X10005810Y-14634428D01*
X9996286Y-14643952D01*
X9977238Y-14653476D01*
X9939143Y-14653476D01*
X9920095Y-14643952D01*
X10101048Y-14634428D02*
X10110571Y-14643952D01*
X10101048Y-14653476D01*
X10091524Y-14643952D01*
X10101048Y-14634428D01*
X10101048Y-14653476D01*
X10101048Y-14529667D02*
X10110571Y-14539190D01*
X10101048Y-14548714D01*
X10091524Y-14539190D01*
X10101048Y-14529667D01*
X10101048Y-14548714D01*
D12*
X8392000Y-14943000D02*
X8472000Y-15023000D01*
X8472000Y-14943000D02*
X8392000Y-15023000D01*
D11*
X8767714Y-14873476D02*
X8786762Y-14873476D01*
X8805810Y-14883000D01*
X8815333Y-14892524D01*
X8824857Y-14911571D01*
X8834381Y-14949667D01*
X8834381Y-14997286D01*
X8824857Y-15035381D01*
X8815333Y-15054428D01*
X8805810Y-15063952D01*
X8786762Y-15073476D01*
X8767714Y-15073476D01*
X8748667Y-15063952D01*
X8739143Y-15054428D01*
X8729619Y-15035381D01*
X8720095Y-14997286D01*
X8720095Y-14949667D01*
X8729619Y-14911571D01*
X8739143Y-14892524D01*
X8748667Y-14883000D01*
X8767714Y-14873476D01*
X8920095Y-15054428D02*
X8929619Y-15063952D01*
X8920095Y-15073476D01*
X8910571Y-15063952D01*
X8920095Y-15054428D01*
X8920095Y-15073476D01*
X9043905Y-14959190D02*
X9024857Y-14949667D01*
X9015333Y-14940143D01*
X9005810Y-14921095D01*
X9005810Y-14911571D01*
X9015333Y-14892524D01*
X9024857Y-14883000D01*
X9043905Y-14873476D01*
X9082000Y-14873476D01*
X9101048Y-14883000D01*
X9110571Y-14892524D01*
X9120095Y-14911571D01*
X9120095Y-14921095D01*
X9110571Y-14940143D01*
X9101048Y-14949667D01*
X9082000Y-14959190D01*
X9043905Y-14959190D01*
X9024857Y-14968714D01*
X9015333Y-14978238D01*
X9005810Y-14997286D01*
X9005810Y-15035381D01*
X9015333Y-15054428D01*
X9024857Y-15063952D01*
X9043905Y-15073476D01*
X9082000Y-15073476D01*
X9101048Y-15063952D01*
X9110571Y-15054428D01*
X9120095Y-15035381D01*
X9120095Y-14997286D01*
X9110571Y-14978238D01*
X9101048Y-14968714D01*
X9082000Y-14959190D01*
X9243905Y-14873476D02*
X9262952Y-14873476D01*
X9282000Y-14883000D01*
X9291524Y-14892524D01*
X9301048Y-14911571D01*
X9310571Y-14949667D01*
X9310571Y-14997286D01*
X9301048Y-15035381D01*
X9291524Y-15054428D01*
X9282000Y-15063952D01*
X9262952Y-15073476D01*
X9243905Y-15073476D01*
X9224857Y-15063952D01*
X9215333Y-15054428D01*
X9205810Y-15035381D01*
X9196286Y-14997286D01*
X9196286Y-14949667D01*
X9205810Y-14911571D01*
X9215333Y-14892524D01*
X9224857Y-14883000D01*
X9243905Y-14873476D01*
X9434381Y-14873476D02*
X9453429Y-14873476D01*
X9472476Y-14883000D01*
X9482000Y-14892524D01*
X9491524Y-14911571D01*
X9501048Y-14949667D01*
X9501048Y-14997286D01*
X9491524Y-15035381D01*
X9482000Y-15054428D01*
X9472476Y-15063952D01*
X9453429Y-15073476D01*
X9434381Y-15073476D01*
X9415333Y-15063952D01*
X9405810Y-15054428D01*
X9396286Y-15035381D01*
X9386762Y-14997286D01*
X9386762Y-14949667D01*
X9396286Y-14911571D01*
X9405810Y-14892524D01*
X9415333Y-14883000D01*
X9434381Y-14873476D01*
X9586762Y-15073476D02*
X9586762Y-14940143D01*
X9586762Y-14959190D02*
X9596286Y-14949667D01*
X9615333Y-14940143D01*
X9643905Y-14940143D01*
X9662952Y-14949667D01*
X9672476Y-14968714D01*
X9672476Y-15073476D01*
X9672476Y-14968714D02*
X9682000Y-14949667D01*
X9701048Y-14940143D01*
X9729619Y-14940143D01*
X9748667Y-14949667D01*
X9758190Y-14968714D01*
X9758190Y-15073476D01*
X9853429Y-15073476D02*
X9853429Y-14940143D01*
X9853429Y-14959190D02*
X9862952Y-14949667D01*
X9882000Y-14940143D01*
X9910571Y-14940143D01*
X9929619Y-14949667D01*
X9939143Y-14968714D01*
X9939143Y-15073476D01*
X9939143Y-14968714D02*
X9948667Y-14949667D01*
X9967714Y-14940143D01*
X9996286Y-14940143D01*
X10015333Y-14949667D01*
X10024857Y-14968714D01*
X10024857Y-15073476D01*
X10415333Y-14863952D02*
X10243905Y-15121095D01*
X10672476Y-14873476D02*
X10691524Y-14873476D01*
X10710571Y-14883000D01*
X10720095Y-14892524D01*
X10729619Y-14911571D01*
X10739143Y-14949667D01*
X10739143Y-14997286D01*
X10729619Y-15035381D01*
X10720095Y-15054428D01*
X10710571Y-15063952D01*
X10691524Y-15073476D01*
X10672476Y-15073476D01*
X10653429Y-15063952D01*
X10643905Y-15054428D01*
X10634381Y-15035381D01*
X10624857Y-14997286D01*
X10624857Y-14949667D01*
X10634381Y-14911571D01*
X10643905Y-14892524D01*
X10653429Y-14883000D01*
X10672476Y-14873476D01*
X10824857Y-15054428D02*
X10834381Y-15063952D01*
X10824857Y-15073476D01*
X10815333Y-15063952D01*
X10824857Y-15054428D01*
X10824857Y-15073476D01*
X10958190Y-14873476D02*
X10977238Y-14873476D01*
X10996286Y-14883000D01*
X11005810Y-14892524D01*
X11015333Y-14911571D01*
X11024857Y-14949667D01*
X11024857Y-14997286D01*
X11015333Y-15035381D01*
X11005810Y-15054428D01*
X10996286Y-15063952D01*
X10977238Y-15073476D01*
X10958190Y-15073476D01*
X10939143Y-15063952D01*
X10929619Y-15054428D01*
X10920095Y-15035381D01*
X10910571Y-14997286D01*
X10910571Y-14949667D01*
X10920095Y-14911571D01*
X10929619Y-14892524D01*
X10939143Y-14883000D01*
X10958190Y-14873476D01*
X11091524Y-14873476D02*
X11215333Y-14873476D01*
X11148667Y-14949667D01*
X11177238Y-14949667D01*
X11196286Y-14959190D01*
X11205809Y-14968714D01*
X11215333Y-14987762D01*
X11215333Y-15035381D01*
X11205809Y-15054428D01*
X11196286Y-15063952D01*
X11177238Y-15073476D01*
X11120095Y-15073476D01*
X11101048Y-15063952D01*
X11091524Y-15054428D01*
X11405809Y-15073476D02*
X11291524Y-15073476D01*
X11348667Y-15073476D02*
X11348667Y-14873476D01*
X11329619Y-14902048D01*
X11310571Y-14921095D01*
X11291524Y-14930619D01*
X11586762Y-14873476D02*
X11491524Y-14873476D01*
X11482000Y-14968714D01*
X11491524Y-14959190D01*
X11510571Y-14949667D01*
X11558190Y-14949667D01*
X11577238Y-14959190D01*
X11586762Y-14968714D01*
X11596286Y-14987762D01*
X11596286Y-15035381D01*
X11586762Y-15054428D01*
X11577238Y-15063952D01*
X11558190Y-15073476D01*
X11510571Y-15073476D01*
X11491524Y-15063952D01*
X11482000Y-15054428D01*
X11672476Y-14873476D02*
X11672476Y-14911571D01*
X11748667Y-14873476D02*
X11748667Y-14911571D01*
X12043905Y-15149667D02*
X12034381Y-15140143D01*
X12015333Y-15111571D01*
X12005809Y-15092524D01*
X11996286Y-15063952D01*
X11986762Y-15016333D01*
X11986762Y-14978238D01*
X11996286Y-14930619D01*
X12005809Y-14902048D01*
X12015333Y-14883000D01*
X12034381Y-14854428D01*
X12043905Y-14844905D01*
X12224857Y-15073476D02*
X12110571Y-15073476D01*
X12167714Y-15073476D02*
X12167714Y-14873476D01*
X12148667Y-14902048D01*
X12129619Y-14921095D01*
X12110571Y-14930619D01*
X12348667Y-14873476D02*
X12367714Y-14873476D01*
X12386762Y-14883000D01*
X12396286Y-14892524D01*
X12405809Y-14911571D01*
X12415333Y-14949667D01*
X12415333Y-14997286D01*
X12405809Y-15035381D01*
X12396286Y-15054428D01*
X12386762Y-15063952D01*
X12367714Y-15073476D01*
X12348667Y-15073476D01*
X12329619Y-15063952D01*
X12320095Y-15054428D01*
X12310571Y-15035381D01*
X12301048Y-14997286D01*
X12301048Y-14949667D01*
X12310571Y-14911571D01*
X12320095Y-14892524D01*
X12329619Y-14883000D01*
X12348667Y-14873476D01*
X12653428Y-15073476D02*
X12653428Y-14873476D01*
X12739143Y-15073476D02*
X12739143Y-14968714D01*
X12729619Y-14949667D01*
X12710571Y-14940143D01*
X12682000Y-14940143D01*
X12662952Y-14949667D01*
X12653428Y-14959190D01*
X12862952Y-15073476D02*
X12843905Y-15063952D01*
X12834381Y-15054428D01*
X12824857Y-15035381D01*
X12824857Y-14978238D01*
X12834381Y-14959190D01*
X12843905Y-14949667D01*
X12862952Y-14940143D01*
X12891524Y-14940143D01*
X12910571Y-14949667D01*
X12920095Y-14959190D01*
X12929619Y-14978238D01*
X12929619Y-15035381D01*
X12920095Y-15054428D01*
X12910571Y-15063952D01*
X12891524Y-15073476D01*
X12862952Y-15073476D01*
X13043905Y-15073476D02*
X13024857Y-15063952D01*
X13015333Y-15044905D01*
X13015333Y-14873476D01*
X13196286Y-15063952D02*
X13177238Y-15073476D01*
X13139143Y-15073476D01*
X13120095Y-15063952D01*
X13110571Y-15044905D01*
X13110571Y-14968714D01*
X13120095Y-14949667D01*
X13139143Y-14940143D01*
X13177238Y-14940143D01*
X13196286Y-14949667D01*
X13205809Y-14968714D01*
X13205809Y-14987762D01*
X13110571Y-15006809D01*
X13282000Y-15063952D02*
X13301048Y-15073476D01*
X13339143Y-15073476D01*
X13358190Y-15063952D01*
X13367714Y-15044905D01*
X13367714Y-15035381D01*
X13358190Y-15016333D01*
X13339143Y-15006809D01*
X13310571Y-15006809D01*
X13291524Y-14997286D01*
X13282000Y-14978238D01*
X13282000Y-14968714D01*
X13291524Y-14949667D01*
X13310571Y-14940143D01*
X13339143Y-14940143D01*
X13358190Y-14949667D01*
X13434381Y-15149667D02*
X13443905Y-15140143D01*
X13462952Y-15111571D01*
X13472476Y-15092524D01*
X13482000Y-15063952D01*
X13491524Y-15016333D01*
X13491524Y-14978238D01*
X13482000Y-14930619D01*
X13472476Y-14902048D01*
X13462952Y-14883000D01*
X13443905Y-14854428D01*
X13434381Y-14844905D01*
D13*
X8472000Y-15247000D02*
G75*
G03*
X8472000Y-15247000I-50000J0D01*
G01*
D11*
X8834381Y-15337476D02*
X8720095Y-15337476D01*
X8777238Y-15337476D02*
X8777238Y-15137476D01*
X8758190Y-15166048D01*
X8739143Y-15185095D01*
X8720095Y-15194619D01*
X8920095Y-15318428D02*
X8929619Y-15327952D01*
X8920095Y-15337476D01*
X8910571Y-15327952D01*
X8920095Y-15318428D01*
X8920095Y-15337476D01*
X9053429Y-15137476D02*
X9072476Y-15137476D01*
X9091524Y-15147000D01*
X9101048Y-15156524D01*
X9110571Y-15175571D01*
X9120095Y-15213667D01*
X9120095Y-15261286D01*
X9110571Y-15299381D01*
X9101048Y-15318428D01*
X9091524Y-15327952D01*
X9072476Y-15337476D01*
X9053429Y-15337476D01*
X9034381Y-15327952D01*
X9024857Y-15318428D01*
X9015333Y-15299381D01*
X9005810Y-15261286D01*
X9005810Y-15213667D01*
X9015333Y-15175571D01*
X9024857Y-15156524D01*
X9034381Y-15147000D01*
X9053429Y-15137476D01*
X9243905Y-15137476D02*
X9262952Y-15137476D01*
X9282000Y-15147000D01*
X9291524Y-15156524D01*
X9301048Y-15175571D01*
X9310571Y-15213667D01*
X9310571Y-15261286D01*
X9301048Y-15299381D01*
X9291524Y-15318428D01*
X9282000Y-15327952D01*
X9262952Y-15337476D01*
X9243905Y-15337476D01*
X9224857Y-15327952D01*
X9215333Y-15318428D01*
X9205810Y-15299381D01*
X9196286Y-15261286D01*
X9196286Y-15213667D01*
X9205810Y-15175571D01*
X9215333Y-15156524D01*
X9224857Y-15147000D01*
X9243905Y-15137476D01*
X9434381Y-15137476D02*
X9453429Y-15137476D01*
X9472476Y-15147000D01*
X9482000Y-15156524D01*
X9491524Y-15175571D01*
X9501048Y-15213667D01*
X9501048Y-15261286D01*
X9491524Y-15299381D01*
X9482000Y-15318428D01*
X9472476Y-15327952D01*
X9453429Y-15337476D01*
X9434381Y-15337476D01*
X9415333Y-15327952D01*
X9405810Y-15318428D01*
X9396286Y-15299381D01*
X9386762Y-15261286D01*
X9386762Y-15213667D01*
X9396286Y-15175571D01*
X9405810Y-15156524D01*
X9415333Y-15147000D01*
X9434381Y-15137476D01*
X9586762Y-15337476D02*
X9586762Y-15204143D01*
X9586762Y-15223190D02*
X9596286Y-15213667D01*
X9615333Y-15204143D01*
X9643905Y-15204143D01*
X9662952Y-15213667D01*
X9672476Y-15232714D01*
X9672476Y-15337476D01*
X9672476Y-15232714D02*
X9682000Y-15213667D01*
X9701048Y-15204143D01*
X9729619Y-15204143D01*
X9748667Y-15213667D01*
X9758190Y-15232714D01*
X9758190Y-15337476D01*
X9853429Y-15337476D02*
X9853429Y-15204143D01*
X9853429Y-15223190D02*
X9862952Y-15213667D01*
X9882000Y-15204143D01*
X9910571Y-15204143D01*
X9929619Y-15213667D01*
X9939143Y-15232714D01*
X9939143Y-15337476D01*
X9939143Y-15232714D02*
X9948667Y-15213667D01*
X9967714Y-15204143D01*
X9996286Y-15204143D01*
X10015333Y-15213667D01*
X10024857Y-15232714D01*
X10024857Y-15337476D01*
X10415333Y-15127952D02*
X10243905Y-15385095D01*
X10672476Y-15137476D02*
X10691524Y-15137476D01*
X10710571Y-15147000D01*
X10720095Y-15156524D01*
X10729619Y-15175571D01*
X10739143Y-15213667D01*
X10739143Y-15261286D01*
X10729619Y-15299381D01*
X10720095Y-15318428D01*
X10710571Y-15327952D01*
X10691524Y-15337476D01*
X10672476Y-15337476D01*
X10653429Y-15327952D01*
X10643905Y-15318428D01*
X10634381Y-15299381D01*
X10624857Y-15261286D01*
X10624857Y-15213667D01*
X10634381Y-15175571D01*
X10643905Y-15156524D01*
X10653429Y-15147000D01*
X10672476Y-15137476D01*
X10824857Y-15318428D02*
X10834381Y-15327952D01*
X10824857Y-15337476D01*
X10815333Y-15327952D01*
X10824857Y-15318428D01*
X10824857Y-15337476D01*
X10958190Y-15137476D02*
X10977238Y-15137476D01*
X10996286Y-15147000D01*
X11005810Y-15156524D01*
X11015333Y-15175571D01*
X11024857Y-15213667D01*
X11024857Y-15261286D01*
X11015333Y-15299381D01*
X11005810Y-15318428D01*
X10996286Y-15327952D01*
X10977238Y-15337476D01*
X10958190Y-15337476D01*
X10939143Y-15327952D01*
X10929619Y-15318428D01*
X10920095Y-15299381D01*
X10910571Y-15261286D01*
X10910571Y-15213667D01*
X10920095Y-15175571D01*
X10929619Y-15156524D01*
X10939143Y-15147000D01*
X10958190Y-15137476D01*
X11091524Y-15137476D02*
X11215333Y-15137476D01*
X11148667Y-15213667D01*
X11177238Y-15213667D01*
X11196286Y-15223190D01*
X11205809Y-15232714D01*
X11215333Y-15251762D01*
X11215333Y-15299381D01*
X11205809Y-15318428D01*
X11196286Y-15327952D01*
X11177238Y-15337476D01*
X11120095Y-15337476D01*
X11101048Y-15327952D01*
X11091524Y-15318428D01*
X11310571Y-15337476D02*
X11348667Y-15337476D01*
X11367714Y-15327952D01*
X11377238Y-15318428D01*
X11396286Y-15289857D01*
X11405809Y-15251762D01*
X11405809Y-15175571D01*
X11396286Y-15156524D01*
X11386762Y-15147000D01*
X11367714Y-15137476D01*
X11329619Y-15137476D01*
X11310571Y-15147000D01*
X11301048Y-15156524D01*
X11291524Y-15175571D01*
X11291524Y-15223190D01*
X11301048Y-15242238D01*
X11310571Y-15251762D01*
X11329619Y-15261286D01*
X11367714Y-15261286D01*
X11386762Y-15251762D01*
X11396286Y-15242238D01*
X11405809Y-15223190D01*
X11577238Y-15204143D02*
X11577238Y-15337476D01*
X11529619Y-15127952D02*
X11482000Y-15270809D01*
X11605809Y-15270809D01*
X11672476Y-15137476D02*
X11672476Y-15175571D01*
X11748667Y-15137476D02*
X11748667Y-15175571D01*
X12043905Y-15413667D02*
X12034381Y-15404143D01*
X12015333Y-15375571D01*
X12005809Y-15356524D01*
X11996286Y-15327952D01*
X11986762Y-15280333D01*
X11986762Y-15242238D01*
X11996286Y-15194619D01*
X12005809Y-15166048D01*
X12015333Y-15147000D01*
X12034381Y-15118428D01*
X12043905Y-15108905D01*
X12224857Y-15337476D02*
X12110571Y-15337476D01*
X12167714Y-15337476D02*
X12167714Y-15137476D01*
X12148667Y-15166048D01*
X12129619Y-15185095D01*
X12110571Y-15194619D01*
X12291524Y-15137476D02*
X12424857Y-15137476D01*
X12339143Y-15337476D01*
X12653428Y-15337476D02*
X12653428Y-15137476D01*
X12739143Y-15337476D02*
X12739143Y-15232714D01*
X12729619Y-15213667D01*
X12710571Y-15204143D01*
X12682000Y-15204143D01*
X12662952Y-15213667D01*
X12653428Y-15223190D01*
X12862952Y-15337476D02*
X12843905Y-15327952D01*
X12834381Y-15318428D01*
X12824857Y-15299381D01*
X12824857Y-15242238D01*
X12834381Y-15223190D01*
X12843905Y-15213667D01*
X12862952Y-15204143D01*
X12891524Y-15204143D01*
X12910571Y-15213667D01*
X12920095Y-15223190D01*
X12929619Y-15242238D01*
X12929619Y-15299381D01*
X12920095Y-15318428D01*
X12910571Y-15327952D01*
X12891524Y-15337476D01*
X12862952Y-15337476D01*
X13043905Y-15337476D02*
X13024857Y-15327952D01*
X13015333Y-15308905D01*
X13015333Y-15137476D01*
X13196286Y-15327952D02*
X13177238Y-15337476D01*
X13139143Y-15337476D01*
X13120095Y-15327952D01*
X13110571Y-15308905D01*
X13110571Y-15232714D01*
X13120095Y-15213667D01*
X13139143Y-15204143D01*
X13177238Y-15204143D01*
X13196286Y-15213667D01*
X13205809Y-15232714D01*
X13205809Y-15251762D01*
X13110571Y-15270809D01*
X13282000Y-15327952D02*
X13301048Y-15337476D01*
X13339143Y-15337476D01*
X13358190Y-15327952D01*
X13367714Y-15308905D01*
X13367714Y-15299381D01*
X13358190Y-15280333D01*
X13339143Y-15270809D01*
X13310571Y-15270809D01*
X13291524Y-15261286D01*
X13282000Y-15242238D01*
X13282000Y-15232714D01*
X13291524Y-15213667D01*
X13310571Y-15204143D01*
X13339143Y-15204143D01*
X13358190Y-15213667D01*
X13434381Y-15413667D02*
X13443905Y-15404143D01*
X13462952Y-15375571D01*
X13472476Y-15356524D01*
X13482000Y-15327952D01*
X13491524Y-15280333D01*
X13491524Y-15242238D01*
X13482000Y-15194619D01*
X13472476Y-15166048D01*
X13462952Y-15147000D01*
X13443905Y-15118428D01*
X13434381Y-15108905D01*
D14*
X8412000Y-15451000D02*
X8412000Y-15571000D01*
X8352000Y-15511000D02*
X8472000Y-15511000D01*
D11*
X8834381Y-15601476D02*
X8720095Y-15601476D01*
X8777238Y-15601476D02*
X8777238Y-15401476D01*
X8758190Y-15430048D01*
X8739143Y-15449095D01*
X8720095Y-15458619D01*
X8920095Y-15582428D02*
X8929619Y-15591952D01*
X8920095Y-15601476D01*
X8910571Y-15591952D01*
X8920095Y-15582428D01*
X8920095Y-15601476D01*
X9005810Y-15420524D02*
X9015333Y-15411000D01*
X9034381Y-15401476D01*
X9082000Y-15401476D01*
X9101048Y-15411000D01*
X9110571Y-15420524D01*
X9120095Y-15439571D01*
X9120095Y-15458619D01*
X9110571Y-15487190D01*
X8996286Y-15601476D01*
X9120095Y-15601476D01*
X9243905Y-15401476D02*
X9262952Y-15401476D01*
X9282000Y-15411000D01*
X9291524Y-15420524D01*
X9301048Y-15439571D01*
X9310571Y-15477667D01*
X9310571Y-15525286D01*
X9301048Y-15563381D01*
X9291524Y-15582428D01*
X9282000Y-15591952D01*
X9262952Y-15601476D01*
X9243905Y-15601476D01*
X9224857Y-15591952D01*
X9215333Y-15582428D01*
X9205810Y-15563381D01*
X9196286Y-15525286D01*
X9196286Y-15477667D01*
X9205810Y-15439571D01*
X9215333Y-15420524D01*
X9224857Y-15411000D01*
X9243905Y-15401476D01*
X9434381Y-15401476D02*
X9453429Y-15401476D01*
X9472476Y-15411000D01*
X9482000Y-15420524D01*
X9491524Y-15439571D01*
X9501048Y-15477667D01*
X9501048Y-15525286D01*
X9491524Y-15563381D01*
X9482000Y-15582428D01*
X9472476Y-15591952D01*
X9453429Y-15601476D01*
X9434381Y-15601476D01*
X9415333Y-15591952D01*
X9405810Y-15582428D01*
X9396286Y-15563381D01*
X9386762Y-15525286D01*
X9386762Y-15477667D01*
X9396286Y-15439571D01*
X9405810Y-15420524D01*
X9415333Y-15411000D01*
X9434381Y-15401476D01*
X9586762Y-15601476D02*
X9586762Y-15468143D01*
X9586762Y-15487190D02*
X9596286Y-15477667D01*
X9615333Y-15468143D01*
X9643905Y-15468143D01*
X9662952Y-15477667D01*
X9672476Y-15496714D01*
X9672476Y-15601476D01*
X9672476Y-15496714D02*
X9682000Y-15477667D01*
X9701048Y-15468143D01*
X9729619Y-15468143D01*
X9748667Y-15477667D01*
X9758190Y-15496714D01*
X9758190Y-15601476D01*
X9853429Y-15601476D02*
X9853429Y-15468143D01*
X9853429Y-15487190D02*
X9862952Y-15477667D01*
X9882000Y-15468143D01*
X9910571Y-15468143D01*
X9929619Y-15477667D01*
X9939143Y-15496714D01*
X9939143Y-15601476D01*
X9939143Y-15496714D02*
X9948667Y-15477667D01*
X9967714Y-15468143D01*
X9996286Y-15468143D01*
X10015333Y-15477667D01*
X10024857Y-15496714D01*
X10024857Y-15601476D01*
X10415333Y-15391952D02*
X10243905Y-15649095D01*
X10672476Y-15401476D02*
X10691524Y-15401476D01*
X10710571Y-15411000D01*
X10720095Y-15420524D01*
X10729619Y-15439571D01*
X10739143Y-15477667D01*
X10739143Y-15525286D01*
X10729619Y-15563381D01*
X10720095Y-15582428D01*
X10710571Y-15591952D01*
X10691524Y-15601476D01*
X10672476Y-15601476D01*
X10653429Y-15591952D01*
X10643905Y-15582428D01*
X10634381Y-15563381D01*
X10624857Y-15525286D01*
X10624857Y-15477667D01*
X10634381Y-15439571D01*
X10643905Y-15420524D01*
X10653429Y-15411000D01*
X10672476Y-15401476D01*
X10824857Y-15582428D02*
X10834381Y-15591952D01*
X10824857Y-15601476D01*
X10815333Y-15591952D01*
X10824857Y-15582428D01*
X10824857Y-15601476D01*
X10958190Y-15401476D02*
X10977238Y-15401476D01*
X10996286Y-15411000D01*
X11005810Y-15420524D01*
X11015333Y-15439571D01*
X11024857Y-15477667D01*
X11024857Y-15525286D01*
X11015333Y-15563381D01*
X11005810Y-15582428D01*
X10996286Y-15591952D01*
X10977238Y-15601476D01*
X10958190Y-15601476D01*
X10939143Y-15591952D01*
X10929619Y-15582428D01*
X10920095Y-15563381D01*
X10910571Y-15525286D01*
X10910571Y-15477667D01*
X10920095Y-15439571D01*
X10929619Y-15420524D01*
X10939143Y-15411000D01*
X10958190Y-15401476D01*
X11196286Y-15468143D02*
X11196286Y-15601476D01*
X11148667Y-15391952D02*
X11101048Y-15534809D01*
X11224857Y-15534809D01*
X11282000Y-15401476D02*
X11415333Y-15401476D01*
X11329619Y-15601476D01*
X11482000Y-15420524D02*
X11491524Y-15411000D01*
X11510571Y-15401476D01*
X11558190Y-15401476D01*
X11577238Y-15411000D01*
X11586762Y-15420524D01*
X11596286Y-15439571D01*
X11596286Y-15458619D01*
X11586762Y-15487190D01*
X11472476Y-15601476D01*
X11596286Y-15601476D01*
X11672476Y-15401476D02*
X11672476Y-15439571D01*
X11748667Y-15401476D02*
X11748667Y-15439571D01*
X12043905Y-15677667D02*
X12034381Y-15668143D01*
X12015333Y-15639571D01*
X12005809Y-15620524D01*
X11996286Y-15591952D01*
X11986762Y-15544333D01*
X11986762Y-15506238D01*
X11996286Y-15458619D01*
X12005809Y-15430048D01*
X12015333Y-15411000D01*
X12034381Y-15382428D01*
X12043905Y-15372905D01*
X12101048Y-15401476D02*
X12224857Y-15401476D01*
X12158190Y-15477667D01*
X12186762Y-15477667D01*
X12205809Y-15487190D01*
X12215333Y-15496714D01*
X12224857Y-15515762D01*
X12224857Y-15563381D01*
X12215333Y-15582428D01*
X12205809Y-15591952D01*
X12186762Y-15601476D01*
X12129619Y-15601476D01*
X12110571Y-15591952D01*
X12101048Y-15582428D01*
X12348667Y-15401476D02*
X12367714Y-15401476D01*
X12386762Y-15411000D01*
X12396286Y-15420524D01*
X12405809Y-15439571D01*
X12415333Y-15477667D01*
X12415333Y-15525286D01*
X12405809Y-15563381D01*
X12396286Y-15582428D01*
X12386762Y-15591952D01*
X12367714Y-15601476D01*
X12348667Y-15601476D01*
X12329619Y-15591952D01*
X12320095Y-15582428D01*
X12310571Y-15563381D01*
X12301048Y-15525286D01*
X12301048Y-15477667D01*
X12310571Y-15439571D01*
X12320095Y-15420524D01*
X12329619Y-15411000D01*
X12348667Y-15401476D01*
X12653428Y-15601476D02*
X12653428Y-15401476D01*
X12739143Y-15601476D02*
X12739143Y-15496714D01*
X12729619Y-15477667D01*
X12710571Y-15468143D01*
X12682000Y-15468143D01*
X12662952Y-15477667D01*
X12653428Y-15487190D01*
X12862952Y-15601476D02*
X12843905Y-15591952D01*
X12834381Y-15582428D01*
X12824857Y-15563381D01*
X12824857Y-15506238D01*
X12834381Y-15487190D01*
X12843905Y-15477667D01*
X12862952Y-15468143D01*
X12891524Y-15468143D01*
X12910571Y-15477667D01*
X12920095Y-15487190D01*
X12929619Y-15506238D01*
X12929619Y-15563381D01*
X12920095Y-15582428D01*
X12910571Y-15591952D01*
X12891524Y-15601476D01*
X12862952Y-15601476D01*
X13043905Y-15601476D02*
X13024857Y-15591952D01*
X13015333Y-15572905D01*
X13015333Y-15401476D01*
X13196286Y-15591952D02*
X13177238Y-15601476D01*
X13139143Y-15601476D01*
X13120095Y-15591952D01*
X13110571Y-15572905D01*
X13110571Y-15496714D01*
X13120095Y-15477667D01*
X13139143Y-15468143D01*
X13177238Y-15468143D01*
X13196286Y-15477667D01*
X13205809Y-15496714D01*
X13205809Y-15515762D01*
X13110571Y-15534809D01*
X13282000Y-15591952D02*
X13301048Y-15601476D01*
X13339143Y-15601476D01*
X13358190Y-15591952D01*
X13367714Y-15572905D01*
X13367714Y-15563381D01*
X13358190Y-15544333D01*
X13339143Y-15534809D01*
X13310571Y-15534809D01*
X13291524Y-15525286D01*
X13282000Y-15506238D01*
X13282000Y-15496714D01*
X13291524Y-15477667D01*
X13310571Y-15468143D01*
X13339143Y-15468143D01*
X13358190Y-15477667D01*
X13434381Y-15677667D02*
X13443905Y-15668143D01*
X13462952Y-15639571D01*
X13472476Y-15620524D01*
X13482000Y-15591952D01*
X13491524Y-15544333D01*
X13491524Y-15506238D01*
X13482000Y-15458619D01*
X13472476Y-15430048D01*
X13462952Y-15411000D01*
X13443905Y-15382428D01*
X13434381Y-15372905D01*
M02*
