G04 #@! TF.GenerationSoftware,KiCad,Pcbnew,(5.1.5)-3*
G04 #@! TF.CreationDate,2021-02-09T20:58:30+01:00*
G04 #@! TF.ProjectId,Keyboard,4b657962-6f61-4726-942e-6b696361645f,rev?*
G04 #@! TF.SameCoordinates,Original*
G04 #@! TF.FileFunction,Copper,L1,Top*
G04 #@! TF.FilePolarity,Positive*
%FSLAX46Y46*%
G04 Gerber Fmt 4.6, Leading zero omitted, Abs format (unit mm)*
G04 Created by KiCad (PCBNEW (5.1.5)-3) date 2021-02-09 20:58:30*
%MOMM*%
%LPD*%
G04 APERTURE LIST*
%ADD10C,1.700000*%
%ADD11O,1.700000X1.700000*%
%ADD12R,1.700000X1.700000*%
%ADD13C,0.250000*%
G04 APERTURE END LIST*
D10*
X107918000Y-53602000D03*
X98918000Y-49602000D03*
D11*
X121620000Y-130000000D03*
X119080000Y-130000000D03*
X116540000Y-130000000D03*
D12*
X114000000Y-130000000D03*
D11*
X107620000Y-130000000D03*
X105080000Y-130000000D03*
X102540000Y-130000000D03*
D12*
X100000000Y-130000000D03*
D10*
X148558000Y-73922000D03*
X139558000Y-69922000D03*
X119238000Y-49602000D03*
X128238000Y-53602000D03*
X159878000Y-49602000D03*
X168878000Y-53602000D03*
X139558000Y-49602000D03*
X148558000Y-53602000D03*
X119238000Y-110562000D03*
X128238000Y-114562000D03*
X98918000Y-110562000D03*
X107918000Y-114562000D03*
X159878000Y-110562000D03*
X168878000Y-114562000D03*
X139558000Y-110562000D03*
X148558000Y-114562000D03*
X119238000Y-90242000D03*
X128238000Y-94242000D03*
X98918000Y-90242000D03*
X107918000Y-94242000D03*
X159878000Y-90242000D03*
X168878000Y-94242000D03*
X139558000Y-90242000D03*
X148558000Y-94242000D03*
X168878000Y-73922000D03*
X159878000Y-69922000D03*
X128238000Y-73922000D03*
X119238000Y-69922000D03*
X107918000Y-73922000D03*
X98918000Y-69922000D03*
D13*
X98918000Y-110562000D02*
X98918000Y-90242000D01*
X98918000Y-89039919D02*
X98918000Y-69922000D01*
X98918000Y-90242000D02*
X98918000Y-89039919D01*
X98918000Y-69922000D02*
X98918000Y-49602000D01*
X119238000Y-50804081D02*
X119238000Y-69922000D01*
X119238000Y-49602000D02*
X119238000Y-50804081D01*
X119238000Y-69922000D02*
X119238000Y-90242000D01*
X119238000Y-90242000D02*
X119238000Y-110562000D01*
X139558000Y-109359919D02*
X139558000Y-90242000D01*
X139558000Y-110562000D02*
X139558000Y-109359919D01*
X159878000Y-109359919D02*
X159878000Y-90242000D01*
X159878000Y-110562000D02*
X159878000Y-109359919D01*
X159878000Y-89039919D02*
X159878000Y-69922000D01*
X159878000Y-90242000D02*
X159878000Y-89039919D01*
X139558000Y-89039919D02*
X139558000Y-69922000D01*
X139558000Y-90242000D02*
X139558000Y-89039919D01*
X139558000Y-69922000D02*
X139558000Y-49602000D01*
X159878000Y-69922000D02*
X159878000Y-49602000D01*
X98918000Y-128918000D02*
X100000000Y-130000000D01*
X98918000Y-110562000D02*
X98918000Y-128918000D01*
X102540000Y-126057919D02*
X102540000Y-128797919D01*
X118035919Y-110562000D02*
X102540000Y-126057919D01*
X102540000Y-128797919D02*
X102540000Y-130000000D01*
X119238000Y-110562000D02*
X118035919Y-110562000D01*
X159878000Y-110562000D02*
X144438000Y-110562000D01*
X144438000Y-110562000D02*
X134000000Y-121000000D01*
X116620000Y-121000000D02*
X107620000Y-130000000D01*
X134000000Y-121000000D02*
X116620000Y-121000000D01*
X108920000Y-126080000D02*
X123588001Y-111411999D01*
X138708001Y-111411999D02*
X139558000Y-110562000D01*
X105080000Y-130000000D02*
X105080000Y-126080000D01*
X123588001Y-111411999D02*
X138708001Y-111411999D01*
X105080000Y-126080000D02*
X108920000Y-126080000D01*
M02*
