G04 #@! TF.GenerationSoftware,KiCad,Pcbnew,(6.0.0)*
G04 #@! TF.CreationDate,2022-03-01T21:04:48+01:00*
G04 #@! TF.ProjectId,Keyboard_v2,4b657962-6f61-4726-945f-76322e6b6963,rev?*
G04 #@! TF.SameCoordinates,Original*
G04 #@! TF.FileFunction,Legend,Bot*
G04 #@! TF.FilePolarity,Positive*
%FSLAX46Y46*%
G04 Gerber Fmt 4.6, Leading zero omitted, Abs format (unit mm)*
G04 Created by KiCad (PCBNEW (6.0.0)) date 2022-03-01 21:04:48*
%MOMM*%
%LPD*%
G01*
G04 APERTURE LIST*
G04 Aperture macros list*
%AMRoundRect*
0 Rectangle with rounded corners*
0 $1 Rounding radius*
0 $2 $3 $4 $5 $6 $7 $8 $9 X,Y pos of 4 corners*
0 Add a 4 corners polygon primitive as box body*
4,1,4,$2,$3,$4,$5,$6,$7,$8,$9,$2,$3,0*
0 Add four circle primitives for the rounded corners*
1,1,$1+$1,$2,$3*
1,1,$1+$1,$4,$5*
1,1,$1+$1,$6,$7*
1,1,$1+$1,$8,$9*
0 Add four rect primitives between the rounded corners*
20,1,$1+$1,$2,$3,$4,$5,0*
20,1,$1+$1,$4,$5,$6,$7,0*
20,1,$1+$1,$6,$7,$8,$9,0*
20,1,$1+$1,$8,$9,$2,$3,0*%
G04 Aperture macros list end*
G04 #@! TA.AperFunction,Profile*
%ADD10C,0.050000*%
G04 #@! TD*
%ADD11C,0.300000*%
%ADD12C,0.150000*%
%ADD13C,0.010000*%
%ADD14C,0.120000*%
%ADD15C,1.802000*%
%ADD16RoundRect,0.051000X-0.800000X-0.800000X0.800000X-0.800000X0.800000X0.800000X-0.800000X0.800000X0*%
%ADD17C,1.702000*%
%ADD18RoundRect,0.051000X0.250000X-0.250000X0.250000X0.250000X-0.250000X0.250000X-0.250000X-0.250000X0*%
%ADD19RoundRect,0.051000X-0.850000X0.850000X-0.850000X-0.850000X0.850000X-0.850000X0.850000X0.850000X0*%
%ADD20O,1.802000X1.802000*%
G04 APERTURE END LIST*
D10*
X184745000Y-143405000D02*
X84745000Y-143405000D01*
X92150000Y-138500000D02*
G75*
G03*
X92150000Y-138500000I-2400000J0D01*
G01*
X182150000Y-138500000D02*
G75*
G03*
X182150000Y-138500000I-2400000J0D01*
G01*
X182145000Y-130905000D02*
G75*
G03*
X182145000Y-130905000I-2400000J0D01*
G01*
X84745000Y-43405000D02*
X184745000Y-43405000D01*
X84745000Y-143405000D02*
X84745000Y-43405000D01*
X184745000Y-43405000D02*
X184745000Y-143405000D01*
X92150000Y-131000000D02*
G75*
G03*
X92150000Y-131000000I-2400000J0D01*
G01*
D11*
X132785714Y-113750714D02*
X132357142Y-113893571D01*
X132214285Y-114036428D01*
X132071428Y-114322142D01*
X132071428Y-114750714D01*
X132214285Y-115036428D01*
X132357142Y-115179285D01*
X132642857Y-115322142D01*
X133785714Y-115322142D01*
X133785714Y-112322142D01*
X132785714Y-112322142D01*
X132500000Y-112465000D01*
X132357142Y-112607857D01*
X132214285Y-112893571D01*
X132214285Y-113179285D01*
X132357142Y-113465000D01*
X132500000Y-113607857D01*
X132785714Y-113750714D01*
X133785714Y-113750714D01*
X174285714Y-115322142D02*
X174285714Y-112322142D01*
X173571428Y-112322142D01*
X173142857Y-112465000D01*
X172857142Y-112750714D01*
X172714285Y-113036428D01*
X172571428Y-113607857D01*
X172571428Y-114036428D01*
X172714285Y-114607857D01*
X172857142Y-114893571D01*
X173142857Y-115179285D01*
X173571428Y-115322142D01*
X174285714Y-115322142D01*
X131885000Y-124503571D02*
X131885000Y-123003571D01*
X131527857Y-123003571D01*
X131313571Y-123075000D01*
X131170714Y-123217857D01*
X131099285Y-123360714D01*
X131027857Y-123646428D01*
X131027857Y-123860714D01*
X131099285Y-124146428D01*
X131170714Y-124289285D01*
X131313571Y-124432142D01*
X131527857Y-124503571D01*
X131885000Y-124503571D01*
X128385000Y-124360714D02*
X128456428Y-124432142D01*
X128670714Y-124503571D01*
X128813571Y-124503571D01*
X129027857Y-124432142D01*
X129170714Y-124289285D01*
X129242142Y-124146428D01*
X129313571Y-123860714D01*
X129313571Y-123646428D01*
X129242142Y-123360714D01*
X129170714Y-123217857D01*
X129027857Y-123075000D01*
X128813571Y-123003571D01*
X128670714Y-123003571D01*
X128456428Y-123075000D01*
X128385000Y-123146428D01*
X126099285Y-123717857D02*
X125885000Y-123789285D01*
X125813571Y-123860714D01*
X125742142Y-124003571D01*
X125742142Y-124217857D01*
X125813571Y-124360714D01*
X125885000Y-124432142D01*
X126027857Y-124503571D01*
X126599285Y-124503571D01*
X126599285Y-123003571D01*
X126099285Y-123003571D01*
X125956428Y-123075000D01*
X125885000Y-123146428D01*
X125813571Y-123289285D01*
X125813571Y-123432142D01*
X125885000Y-123575000D01*
X125956428Y-123646428D01*
X126099285Y-123717857D01*
X126599285Y-123717857D01*
X124027857Y-124075000D02*
X123313571Y-124075000D01*
X124170714Y-124503571D02*
X123670714Y-123003571D01*
X123170714Y-124503571D01*
X170921428Y-109793571D02*
X169921428Y-109793571D01*
X170564285Y-111293571D01*
X168278571Y-111222142D02*
X168064285Y-111293571D01*
X167707142Y-111293571D01*
X167564285Y-111222142D01*
X167492857Y-111150714D01*
X167421428Y-111007857D01*
X167421428Y-110865000D01*
X167492857Y-110722142D01*
X167564285Y-110650714D01*
X167707142Y-110579285D01*
X167992857Y-110507857D01*
X168135714Y-110436428D01*
X168207142Y-110365000D01*
X168278571Y-110222142D01*
X168278571Y-110079285D01*
X168207142Y-109936428D01*
X168135714Y-109865000D01*
X167992857Y-109793571D01*
X167635714Y-109793571D01*
X167421428Y-109865000D01*
X166778571Y-110507857D02*
X166278571Y-110507857D01*
X166064285Y-111293571D02*
X166778571Y-111293571D01*
X166778571Y-109793571D01*
X166064285Y-109793571D01*
X164635714Y-109865000D02*
X164778571Y-109793571D01*
X164992857Y-109793571D01*
X165207142Y-109865000D01*
X165350000Y-110007857D01*
X165421428Y-110150714D01*
X165492857Y-110436428D01*
X165492857Y-110650714D01*
X165421428Y-110936428D01*
X165350000Y-111079285D01*
X165207142Y-111222142D01*
X164992857Y-111293571D01*
X164850000Y-111293571D01*
X164635714Y-111222142D01*
X164564285Y-111150714D01*
X164564285Y-110650714D01*
X164850000Y-110650714D01*
X162064285Y-111293571D02*
X162778571Y-111293571D01*
X162778571Y-109793571D01*
X161564285Y-110507857D02*
X161064285Y-110507857D01*
X160850000Y-111293571D02*
X161564285Y-111293571D01*
X161564285Y-109793571D01*
X160850000Y-109793571D01*
X160207142Y-111293571D02*
X160207142Y-109793571D01*
X159850000Y-109793571D01*
X159635714Y-109865000D01*
X159492857Y-110007857D01*
X159421428Y-110150714D01*
X159350000Y-110436428D01*
X159350000Y-110650714D01*
X159421428Y-110936428D01*
X159492857Y-111079285D01*
X159635714Y-111222142D01*
X159850000Y-111293571D01*
X160207142Y-111293571D01*
X167528571Y-112208571D02*
X167385714Y-112208571D01*
X167242857Y-112280000D01*
X167171428Y-112351428D01*
X167100000Y-112494285D01*
X167028571Y-112780000D01*
X167028571Y-113137142D01*
X167100000Y-113422857D01*
X167171428Y-113565714D01*
X167242857Y-113637142D01*
X167385714Y-113708571D01*
X167528571Y-113708571D01*
X167671428Y-113637142D01*
X167742857Y-113565714D01*
X167814285Y-113422857D01*
X167885714Y-113137142D01*
X167885714Y-112780000D01*
X167814285Y-112494285D01*
X167742857Y-112351428D01*
X167671428Y-112280000D01*
X167528571Y-112208571D01*
X166314285Y-113637142D02*
X166314285Y-113708571D01*
X166385714Y-113851428D01*
X166457142Y-113922857D01*
X164957142Y-112208571D02*
X165671428Y-112208571D01*
X165742857Y-112922857D01*
X165671428Y-112851428D01*
X165528571Y-112780000D01*
X165171428Y-112780000D01*
X165028571Y-112851428D01*
X164957142Y-112922857D01*
X164885714Y-113065714D01*
X164885714Y-113422857D01*
X164957142Y-113565714D01*
X165028571Y-113637142D01*
X165171428Y-113708571D01*
X165528571Y-113708571D01*
X165671428Y-113637142D01*
X165742857Y-113565714D01*
X163600000Y-112208571D02*
X163885714Y-112208571D01*
X164028571Y-112280000D01*
X164100000Y-112351428D01*
X164242857Y-112565714D01*
X164314285Y-112851428D01*
X164314285Y-113422857D01*
X164242857Y-113565714D01*
X164171428Y-113637142D01*
X164028571Y-113708571D01*
X163742857Y-113708571D01*
X163600000Y-113637142D01*
X163528571Y-113565714D01*
X163457142Y-113422857D01*
X163457142Y-113065714D01*
X163528571Y-112922857D01*
X163600000Y-112851428D01*
X163742857Y-112780000D01*
X164028571Y-112780000D01*
X164171428Y-112851428D01*
X164242857Y-112922857D01*
X164314285Y-113065714D01*
X162885714Y-112208571D02*
X162885714Y-112494285D01*
X162314285Y-112208571D02*
X162314285Y-112494285D01*
X169171428Y-116123571D02*
X170028571Y-116123571D01*
X169600000Y-116123571D02*
X169600000Y-114623571D01*
X169742857Y-114837857D01*
X169885714Y-114980714D01*
X170028571Y-115052142D01*
X167885714Y-115123571D02*
X167885714Y-116123571D01*
X168242857Y-114552142D02*
X168600000Y-115623571D01*
X167671428Y-115623571D01*
X167028571Y-116052142D02*
X167028571Y-116123571D01*
X167100000Y-116266428D01*
X167171428Y-116337857D01*
X166457142Y-114766428D02*
X166385714Y-114695000D01*
X166242857Y-114623571D01*
X165885714Y-114623571D01*
X165742857Y-114695000D01*
X165671428Y-114766428D01*
X165600000Y-114909285D01*
X165600000Y-115052142D01*
X165671428Y-115266428D01*
X166528571Y-116123571D01*
X165600000Y-116123571D01*
X165028571Y-114766428D02*
X164957142Y-114695000D01*
X164814285Y-114623571D01*
X164457142Y-114623571D01*
X164314285Y-114695000D01*
X164242857Y-114766428D01*
X164171428Y-114909285D01*
X164171428Y-115052142D01*
X164242857Y-115266428D01*
X165100000Y-116123571D01*
X164171428Y-116123571D01*
X163528571Y-116123571D02*
X163528571Y-115123571D01*
X163528571Y-115266428D02*
X163457142Y-115195000D01*
X163314285Y-115123571D01*
X163100000Y-115123571D01*
X162957142Y-115195000D01*
X162885714Y-115337857D01*
X162885714Y-116123571D01*
X162885714Y-115337857D02*
X162814285Y-115195000D01*
X162671428Y-115123571D01*
X162457142Y-115123571D01*
X162314285Y-115195000D01*
X162242857Y-115337857D01*
X162242857Y-116123571D01*
X161528571Y-116123571D02*
X161528571Y-115123571D01*
X161528571Y-115266428D02*
X161457142Y-115195000D01*
X161314285Y-115123571D01*
X161100000Y-115123571D01*
X160957142Y-115195000D01*
X160885714Y-115337857D01*
X160885714Y-116123571D01*
X160885714Y-115337857D02*
X160814285Y-115195000D01*
X160671428Y-115123571D01*
X160457142Y-115123571D01*
X160314285Y-115195000D01*
X160242857Y-115337857D01*
X160242857Y-116123571D01*
X113214285Y-114465000D02*
X111785714Y-114465000D01*
X113500000Y-115322142D02*
X112500000Y-112322142D01*
X111500000Y-115322142D01*
X179176071Y-65268571D02*
X179176071Y-64554285D01*
X177676071Y-64554285D01*
X179176071Y-65982857D02*
X179104642Y-65840000D01*
X179033214Y-65768571D01*
X178890357Y-65697142D01*
X178461785Y-65697142D01*
X178318928Y-65768571D01*
X178247500Y-65840000D01*
X178176071Y-65982857D01*
X178176071Y-66197142D01*
X178247500Y-66340000D01*
X178318928Y-66411428D01*
X178461785Y-66482857D01*
X178890357Y-66482857D01*
X179033214Y-66411428D01*
X179104642Y-66340000D01*
X179176071Y-66197142D01*
X179176071Y-65982857D01*
X178176071Y-67768571D02*
X179390357Y-67768571D01*
X179533214Y-67697142D01*
X179604642Y-67625714D01*
X179676071Y-67482857D01*
X179676071Y-67268571D01*
X179604642Y-67125714D01*
X179104642Y-67768571D02*
X179176071Y-67625714D01*
X179176071Y-67340000D01*
X179104642Y-67197142D01*
X179033214Y-67125714D01*
X178890357Y-67054285D01*
X178461785Y-67054285D01*
X178318928Y-67125714D01*
X178247500Y-67197142D01*
X178176071Y-67340000D01*
X178176071Y-67625714D01*
X178247500Y-67768571D01*
X179176071Y-68482857D02*
X178176071Y-68482857D01*
X177676071Y-68482857D02*
X177747500Y-68411428D01*
X177818928Y-68482857D01*
X177747500Y-68554285D01*
X177676071Y-68482857D01*
X177818928Y-68482857D01*
X178176071Y-68982857D02*
X178176071Y-69554285D01*
X177676071Y-69197142D02*
X178961785Y-69197142D01*
X179104642Y-69268571D01*
X179176071Y-69411428D01*
X179176071Y-69554285D01*
X179104642Y-70625714D02*
X179176071Y-70482857D01*
X179176071Y-70197142D01*
X179104642Y-70054285D01*
X178961785Y-69982857D01*
X178390357Y-69982857D01*
X178247500Y-70054285D01*
X178176071Y-70197142D01*
X178176071Y-70482857D01*
X178247500Y-70625714D01*
X178390357Y-70697142D01*
X178533214Y-70697142D01*
X178676071Y-69982857D01*
X179104642Y-71982857D02*
X179176071Y-71840000D01*
X179176071Y-71554285D01*
X179104642Y-71411428D01*
X179033214Y-71340000D01*
X178890357Y-71268571D01*
X178461785Y-71268571D01*
X178318928Y-71340000D01*
X178247500Y-71411428D01*
X178176071Y-71554285D01*
X178176071Y-71840000D01*
X178247500Y-71982857D01*
X179176071Y-72625714D02*
X177676071Y-72625714D01*
X179176071Y-73268571D02*
X178390357Y-73268571D01*
X178247500Y-73197142D01*
X178176071Y-73054285D01*
X178176071Y-72840000D01*
X178247500Y-72697142D01*
X178318928Y-72625714D01*
X179176071Y-75982857D02*
X178461785Y-75482857D01*
X179176071Y-75125714D02*
X177676071Y-75125714D01*
X177676071Y-75697142D01*
X177747500Y-75840000D01*
X177818928Y-75911428D01*
X177961785Y-75982857D01*
X178176071Y-75982857D01*
X178318928Y-75911428D01*
X178390357Y-75840000D01*
X178461785Y-75697142D01*
X178461785Y-75125714D01*
X179176071Y-76840000D02*
X179104642Y-76697142D01*
X179033214Y-76625714D01*
X178890357Y-76554285D01*
X178461785Y-76554285D01*
X178318928Y-76625714D01*
X178247500Y-76697142D01*
X178176071Y-76840000D01*
X178176071Y-77054285D01*
X178247500Y-77197142D01*
X178318928Y-77268571D01*
X178461785Y-77340000D01*
X178890357Y-77340000D01*
X179033214Y-77268571D01*
X179104642Y-77197142D01*
X179176071Y-77054285D01*
X179176071Y-76840000D01*
X179176071Y-77982857D02*
X178176071Y-77982857D01*
X178318928Y-77982857D02*
X178247500Y-78054285D01*
X178176071Y-78197142D01*
X178176071Y-78411428D01*
X178247500Y-78554285D01*
X178390357Y-78625714D01*
X179176071Y-78625714D01*
X178390357Y-78625714D02*
X178247500Y-78697142D01*
X178176071Y-78840000D01*
X178176071Y-79054285D01*
X178247500Y-79197142D01*
X178390357Y-79268571D01*
X179176071Y-79268571D01*
X179104642Y-80554285D02*
X179176071Y-80411428D01*
X179176071Y-80125714D01*
X179104642Y-79982857D01*
X178961785Y-79911428D01*
X178390357Y-79911428D01*
X178247500Y-79982857D01*
X178176071Y-80125714D01*
X178176071Y-80411428D01*
X178247500Y-80554285D01*
X178390357Y-80625714D01*
X178533214Y-80625714D01*
X178676071Y-79911428D01*
X179176071Y-81268571D02*
X178176071Y-81268571D01*
X178461785Y-81268571D02*
X178318928Y-81340000D01*
X178247500Y-81411428D01*
X178176071Y-81554285D01*
X178176071Y-81697142D01*
X177747500Y-84125714D02*
X177676071Y-83982857D01*
X177676071Y-83768571D01*
X177747500Y-83554285D01*
X177890357Y-83411428D01*
X178033214Y-83340000D01*
X178318928Y-83268571D01*
X178533214Y-83268571D01*
X178818928Y-83340000D01*
X178961785Y-83411428D01*
X179104642Y-83554285D01*
X179176071Y-83768571D01*
X179176071Y-83911428D01*
X179104642Y-84125714D01*
X179033214Y-84197142D01*
X178533214Y-84197142D01*
X178533214Y-83911428D01*
X179104642Y-85911428D02*
X179176071Y-86125714D01*
X179176071Y-86482857D01*
X179104642Y-86625714D01*
X179033214Y-86697142D01*
X178890357Y-86768571D01*
X178747500Y-86768571D01*
X178604642Y-86697142D01*
X178533214Y-86625714D01*
X178461785Y-86482857D01*
X178390357Y-86197142D01*
X178318928Y-86054285D01*
X178247500Y-85982857D01*
X178104642Y-85911428D01*
X177961785Y-85911428D01*
X177818928Y-85982857D01*
X177747500Y-86054285D01*
X177676071Y-86197142D01*
X177676071Y-86554285D01*
X177747500Y-86768571D01*
X178176071Y-87268571D02*
X179176071Y-87554285D01*
X178461785Y-87840000D01*
X179176071Y-88125714D01*
X178176071Y-88411428D01*
X179176071Y-88982857D02*
X178176071Y-88982857D01*
X177676071Y-88982857D02*
X177747500Y-88911428D01*
X177818928Y-88982857D01*
X177747500Y-89054285D01*
X177676071Y-88982857D01*
X177818928Y-88982857D01*
X178176071Y-89482857D02*
X178176071Y-90054285D01*
X177676071Y-89697142D02*
X178961785Y-89697142D01*
X179104642Y-89768571D01*
X179176071Y-89911428D01*
X179176071Y-90054285D01*
X179104642Y-91197142D02*
X179176071Y-91054285D01*
X179176071Y-90768571D01*
X179104642Y-90625714D01*
X179033214Y-90554285D01*
X178890357Y-90482857D01*
X178461785Y-90482857D01*
X178318928Y-90554285D01*
X178247500Y-90625714D01*
X178176071Y-90768571D01*
X178176071Y-91054285D01*
X178247500Y-91197142D01*
X179176071Y-91840000D02*
X177676071Y-91840000D01*
X179176071Y-92482857D02*
X178390357Y-92482857D01*
X178247500Y-92411428D01*
X178176071Y-92268571D01*
X178176071Y-92054285D01*
X178247500Y-91911428D01*
X178318928Y-91840000D01*
X178176071Y-94982857D02*
X179176071Y-94982857D01*
X177604642Y-94625714D02*
X178676071Y-94268571D01*
X178676071Y-95197142D01*
X179176071Y-95625714D02*
X178176071Y-96411428D01*
X178176071Y-95625714D02*
X179176071Y-96411428D01*
X178176071Y-97625714D02*
X179176071Y-97625714D01*
X177604642Y-97268571D02*
X178676071Y-96911428D01*
X178676071Y-97840000D01*
X179176071Y-99554285D02*
X177676071Y-99554285D01*
X178747500Y-100054285D01*
X177676071Y-100554285D01*
X179176071Y-100554285D01*
X179176071Y-101911428D02*
X178390357Y-101911428D01*
X178247500Y-101840000D01*
X178176071Y-101697142D01*
X178176071Y-101411428D01*
X178247500Y-101268571D01*
X179104642Y-101911428D02*
X179176071Y-101768571D01*
X179176071Y-101411428D01*
X179104642Y-101268571D01*
X178961785Y-101197142D01*
X178818928Y-101197142D01*
X178676071Y-101268571D01*
X178604642Y-101411428D01*
X178604642Y-101768571D01*
X178533214Y-101911428D01*
X178176071Y-102411428D02*
X178176071Y-102982857D01*
X177676071Y-102625714D02*
X178961785Y-102625714D01*
X179104642Y-102697142D01*
X179176071Y-102840000D01*
X179176071Y-102982857D01*
X179176071Y-103482857D02*
X178176071Y-103482857D01*
X178461785Y-103482857D02*
X178318928Y-103554285D01*
X178247500Y-103625714D01*
X178176071Y-103768571D01*
X178176071Y-103911428D01*
X179176071Y-104411428D02*
X178176071Y-104411428D01*
X177676071Y-104411428D02*
X177747500Y-104340000D01*
X177818928Y-104411428D01*
X177747500Y-104482857D01*
X177676071Y-104411428D01*
X177818928Y-104411428D01*
X179176071Y-104982857D02*
X178176071Y-105768571D01*
X178176071Y-104982857D02*
X179176071Y-105768571D01*
X181591071Y-78304285D02*
X180091071Y-78304285D01*
X180662500Y-78304285D02*
X180591071Y-78447142D01*
X180591071Y-78732857D01*
X180662500Y-78875714D01*
X180733928Y-78947142D01*
X180876785Y-79018571D01*
X181305357Y-79018571D01*
X181448214Y-78947142D01*
X181519642Y-78875714D01*
X181591071Y-78732857D01*
X181591071Y-78447142D01*
X181519642Y-78304285D01*
X180591071Y-79518571D02*
X181591071Y-79875714D01*
X180591071Y-80232857D02*
X181591071Y-79875714D01*
X181948214Y-79732857D01*
X182019642Y-79661428D01*
X182091071Y-79518571D01*
X180876785Y-82875714D02*
X180805357Y-82804285D01*
X180733928Y-82661428D01*
X180733928Y-82518571D01*
X180805357Y-82375714D01*
X180876785Y-82304285D01*
X181019642Y-82232857D01*
X181162500Y-82232857D01*
X181305357Y-82304285D01*
X181376785Y-82375714D01*
X181448214Y-82518571D01*
X181448214Y-82661428D01*
X181376785Y-82804285D01*
X181305357Y-82875714D01*
X180733928Y-82875714D02*
X181305357Y-82875714D01*
X181376785Y-82947142D01*
X181376785Y-83018571D01*
X181305357Y-83161428D01*
X181162500Y-83232857D01*
X180805357Y-83232857D01*
X180591071Y-83090000D01*
X180448214Y-82875714D01*
X180376785Y-82590000D01*
X180448214Y-82304285D01*
X180591071Y-82090000D01*
X180805357Y-81947142D01*
X181091071Y-81875714D01*
X181376785Y-81947142D01*
X181591071Y-82090000D01*
X181733928Y-82304285D01*
X181805357Y-82590000D01*
X181733928Y-82875714D01*
X181591071Y-83090000D01*
X181591071Y-83875714D02*
X180091071Y-83875714D01*
X180805357Y-83875714D02*
X180805357Y-84732857D01*
X181591071Y-84732857D02*
X180091071Y-84732857D01*
X181591071Y-85447142D02*
X180591071Y-85447142D01*
X180091071Y-85447142D02*
X180162500Y-85375714D01*
X180233928Y-85447142D01*
X180162500Y-85518571D01*
X180091071Y-85447142D01*
X180233928Y-85447142D01*
X180591071Y-85947142D02*
X180591071Y-86518571D01*
X180091071Y-86161428D02*
X181376785Y-86161428D01*
X181519642Y-86232857D01*
X181591071Y-86375714D01*
X181591071Y-86518571D01*
X181591071Y-87018571D02*
X180591071Y-87018571D01*
X180733928Y-87018571D02*
X180662500Y-87090000D01*
X180591071Y-87232857D01*
X180591071Y-87447142D01*
X180662500Y-87590000D01*
X180805357Y-87661428D01*
X181591071Y-87661428D01*
X180805357Y-87661428D02*
X180662500Y-87732857D01*
X180591071Y-87875714D01*
X180591071Y-88090000D01*
X180662500Y-88232857D01*
X180805357Y-88304285D01*
X181591071Y-88304285D01*
X181591071Y-89661428D02*
X180805357Y-89661428D01*
X180662500Y-89590000D01*
X180591071Y-89447142D01*
X180591071Y-89161428D01*
X180662500Y-89018571D01*
X181519642Y-89661428D02*
X181591071Y-89518571D01*
X181591071Y-89161428D01*
X181519642Y-89018571D01*
X181376785Y-88947142D01*
X181233928Y-88947142D01*
X181091071Y-89018571D01*
X181019642Y-89161428D01*
X181019642Y-89518571D01*
X180948214Y-89661428D01*
X181591071Y-90375714D02*
X180591071Y-90375714D01*
X180876785Y-90375714D02*
X180733928Y-90447142D01*
X180662500Y-90518571D01*
X180591071Y-90661428D01*
X180591071Y-90804285D01*
X181519642Y-91875714D02*
X181591071Y-91732857D01*
X181591071Y-91447142D01*
X181519642Y-91304285D01*
X181376785Y-91232857D01*
X180805357Y-91232857D01*
X180662500Y-91304285D01*
X180591071Y-91447142D01*
X180591071Y-91732857D01*
X180662500Y-91875714D01*
X180805357Y-91947142D01*
X180948214Y-91947142D01*
X181091071Y-91232857D01*
X160538285Y-124503571D02*
X160538285Y-123003571D01*
X160181142Y-123003571D01*
X159966857Y-123075000D01*
X159824000Y-123217857D01*
X159752571Y-123360714D01*
X159681142Y-123646428D01*
X159681142Y-123860714D01*
X159752571Y-124146428D01*
X159824000Y-124289285D01*
X159966857Y-124432142D01*
X160181142Y-124503571D01*
X160538285Y-124503571D01*
X159038285Y-124503571D02*
X159038285Y-123003571D01*
X158466857Y-123003571D01*
X158324000Y-123075000D01*
X158252571Y-123146428D01*
X158181142Y-123289285D01*
X158181142Y-123503571D01*
X158252571Y-123646428D01*
X158324000Y-123717857D01*
X158466857Y-123789285D01*
X159038285Y-123789285D01*
X156466857Y-124075000D02*
X155752571Y-124075000D01*
X156609714Y-124503571D02*
X156109714Y-123003571D01*
X155609714Y-124503571D01*
X153466857Y-123717857D02*
X153252571Y-123789285D01*
X153181142Y-123860714D01*
X153109714Y-124003571D01*
X153109714Y-124217857D01*
X153181142Y-124360714D01*
X153252571Y-124432142D01*
X153395428Y-124503571D01*
X153966857Y-124503571D01*
X153966857Y-123003571D01*
X153466857Y-123003571D01*
X153324000Y-123075000D01*
X153252571Y-123146428D01*
X153181142Y-123289285D01*
X153181142Y-123432142D01*
X153252571Y-123575000D01*
X153324000Y-123646428D01*
X153466857Y-123717857D01*
X153966857Y-123717857D01*
X150466857Y-124360714D02*
X150538285Y-124432142D01*
X150752571Y-124503571D01*
X150895428Y-124503571D01*
X151109714Y-124432142D01*
X151252571Y-124289285D01*
X151324000Y-124146428D01*
X151395428Y-123860714D01*
X151395428Y-123646428D01*
X151324000Y-123360714D01*
X151252571Y-123217857D01*
X151109714Y-123075000D01*
X150895428Y-123003571D01*
X150752571Y-123003571D01*
X150538285Y-123075000D01*
X150466857Y-123146428D01*
X148681142Y-124503571D02*
X148681142Y-123003571D01*
X148324000Y-123003571D01*
X148109714Y-123075000D01*
X147966857Y-123217857D01*
X147895428Y-123360714D01*
X147824000Y-123646428D01*
X147824000Y-123860714D01*
X147895428Y-124146428D01*
X147966857Y-124289285D01*
X148109714Y-124432142D01*
X148324000Y-124503571D01*
X148681142Y-124503571D01*
X146038285Y-123717857D02*
X145538285Y-123717857D01*
X145324000Y-124503571D02*
X146038285Y-124503571D01*
X146038285Y-123003571D01*
X145324000Y-123003571D01*
X143038285Y-123717857D02*
X143538285Y-123717857D01*
X143538285Y-124503571D02*
X143538285Y-123003571D01*
X142824000Y-123003571D01*
X140324000Y-123075000D02*
X140466857Y-123003571D01*
X140681142Y-123003571D01*
X140895428Y-123075000D01*
X141038285Y-123217857D01*
X141109714Y-123360714D01*
X141181142Y-123646428D01*
X141181142Y-123860714D01*
X141109714Y-124146428D01*
X141038285Y-124289285D01*
X140895428Y-124432142D01*
X140681142Y-124503571D01*
X140538285Y-124503571D01*
X140324000Y-124432142D01*
X140252571Y-124360714D01*
X140252571Y-123860714D01*
X140538285Y-123860714D01*
X137681142Y-123075000D02*
X137824000Y-123003571D01*
X138038285Y-123003571D01*
X138252571Y-123075000D01*
X138395428Y-123217857D01*
X138466857Y-123360714D01*
X138538285Y-123646428D01*
X138538285Y-123860714D01*
X138466857Y-124146428D01*
X138395428Y-124289285D01*
X138252571Y-124432142D01*
X138038285Y-124503571D01*
X137895428Y-124503571D01*
X137681142Y-124432142D01*
X137609714Y-124360714D01*
X137609714Y-123860714D01*
X137895428Y-123860714D01*
X136966857Y-124503571D02*
X136966857Y-123003571D01*
X136109714Y-124503571D01*
X136109714Y-123003571D01*
X135395428Y-124503571D02*
X135395428Y-123003571D01*
X135038285Y-123003571D01*
X134824000Y-123075000D01*
X134681142Y-123217857D01*
X134609714Y-123360714D01*
X134538285Y-123646428D01*
X134538285Y-123860714D01*
X134609714Y-124146428D01*
X134681142Y-124289285D01*
X134824000Y-124432142D01*
X135038285Y-124503571D01*
X135395428Y-124503571D01*
X94678571Y-52062142D02*
X94678571Y-54062142D01*
X95392857Y-50919285D02*
X96107142Y-53062142D01*
X94250000Y-53062142D01*
X174330714Y-132248571D02*
X174330714Y-130748571D01*
X173973571Y-130748571D01*
X173759285Y-130820000D01*
X173616428Y-130962857D01*
X173545000Y-131105714D01*
X173473571Y-131391428D01*
X173473571Y-131605714D01*
X173545000Y-131891428D01*
X173616428Y-132034285D01*
X173759285Y-132177142D01*
X173973571Y-132248571D01*
X174330714Y-132248571D01*
X172045000Y-132248571D02*
X172902142Y-132248571D01*
X172473571Y-132248571D02*
X172473571Y-130748571D01*
X172616428Y-130962857D01*
X172759285Y-131105714D01*
X172902142Y-131177142D01*
X171402142Y-131677142D02*
X170259285Y-131677142D01*
X169545000Y-132248571D02*
X169545000Y-130748571D01*
X169187857Y-130748571D01*
X168973571Y-130820000D01*
X168830714Y-130962857D01*
X168759285Y-131105714D01*
X168687857Y-131391428D01*
X168687857Y-131605714D01*
X168759285Y-131891428D01*
X168830714Y-132034285D01*
X168973571Y-132177142D01*
X169187857Y-132248571D01*
X169545000Y-132248571D01*
X167259285Y-132248571D02*
X168116428Y-132248571D01*
X167687857Y-132248571D02*
X167687857Y-130748571D01*
X167830714Y-130962857D01*
X167973571Y-131105714D01*
X168116428Y-131177142D01*
X165902142Y-130748571D02*
X166616428Y-130748571D01*
X166687857Y-131462857D01*
X166616428Y-131391428D01*
X166473571Y-131320000D01*
X166116428Y-131320000D01*
X165973571Y-131391428D01*
X165902142Y-131462857D01*
X165830714Y-131605714D01*
X165830714Y-131962857D01*
X165902142Y-132105714D01*
X165973571Y-132177142D01*
X166116428Y-132248571D01*
X166473571Y-132248571D01*
X166616428Y-132177142D01*
X166687857Y-132105714D01*
X175473571Y-134663571D02*
X176330714Y-134663571D01*
X175902142Y-134663571D02*
X175902142Y-133163571D01*
X176045000Y-133377857D01*
X176187857Y-133520714D01*
X176330714Y-133592142D01*
X174830714Y-134663571D02*
X174830714Y-133163571D01*
X173973571Y-134663571D01*
X173973571Y-133163571D01*
X171473571Y-133663571D02*
X171473571Y-134663571D01*
X171830714Y-133092142D02*
X172187857Y-134163571D01*
X171259285Y-134163571D01*
X169902142Y-134663571D02*
X170759285Y-134663571D01*
X170330714Y-134663571D02*
X170330714Y-133163571D01*
X170473571Y-133377857D01*
X170616428Y-133520714D01*
X170759285Y-133592142D01*
X168616428Y-133663571D02*
X168616428Y-134663571D01*
X168973571Y-133092142D02*
X169330714Y-134163571D01*
X168402142Y-134163571D01*
X167616428Y-133806428D02*
X167759285Y-133735000D01*
X167830714Y-133663571D01*
X167902142Y-133520714D01*
X167902142Y-133449285D01*
X167830714Y-133306428D01*
X167759285Y-133235000D01*
X167616428Y-133163571D01*
X167330714Y-133163571D01*
X167187857Y-133235000D01*
X167116428Y-133306428D01*
X167045000Y-133449285D01*
X167045000Y-133520714D01*
X167116428Y-133663571D01*
X167187857Y-133735000D01*
X167330714Y-133806428D01*
X167616428Y-133806428D01*
X167759285Y-133877857D01*
X167830714Y-133949285D01*
X167902142Y-134092142D01*
X167902142Y-134377857D01*
X167830714Y-134520714D01*
X167759285Y-134592142D01*
X167616428Y-134663571D01*
X167330714Y-134663571D01*
X167187857Y-134592142D01*
X167116428Y-134520714D01*
X167045000Y-134377857D01*
X167045000Y-134092142D01*
X167116428Y-133949285D01*
X167187857Y-133877857D01*
X167330714Y-133806428D01*
X165402142Y-133163571D02*
X165045000Y-134663571D01*
X164759285Y-133592142D01*
X164473571Y-134663571D01*
X164116428Y-133163571D01*
X163616428Y-134592142D02*
X163402142Y-134663571D01*
X163045000Y-134663571D01*
X162902142Y-134592142D01*
X162830714Y-134520714D01*
X162759285Y-134377857D01*
X162759285Y-134235000D01*
X162830714Y-134092142D01*
X162902142Y-134020714D01*
X163045000Y-133949285D01*
X163330714Y-133877857D01*
X163473571Y-133806428D01*
X163545000Y-133735000D01*
X163616428Y-133592142D01*
X163616428Y-133449285D01*
X163545000Y-133306428D01*
X163473571Y-133235000D01*
X163330714Y-133163571D01*
X162973571Y-133163571D01*
X162759285Y-133235000D01*
X175223571Y-137007142D02*
X175009285Y-137078571D01*
X174652142Y-137078571D01*
X174509285Y-137007142D01*
X174437857Y-136935714D01*
X174366428Y-136792857D01*
X174366428Y-136650000D01*
X174437857Y-136507142D01*
X174509285Y-136435714D01*
X174652142Y-136364285D01*
X174937857Y-136292857D01*
X175080714Y-136221428D01*
X175152142Y-136150000D01*
X175223571Y-136007142D01*
X175223571Y-135864285D01*
X175152142Y-135721428D01*
X175080714Y-135650000D01*
X174937857Y-135578571D01*
X174580714Y-135578571D01*
X174366428Y-135650000D01*
X173437857Y-135578571D02*
X173152142Y-135578571D01*
X173009285Y-135650000D01*
X172866428Y-135792857D01*
X172795000Y-136078571D01*
X172795000Y-136578571D01*
X172866428Y-136864285D01*
X173009285Y-137007142D01*
X173152142Y-137078571D01*
X173437857Y-137078571D01*
X173580714Y-137007142D01*
X173723571Y-136864285D01*
X173795000Y-136578571D01*
X173795000Y-136078571D01*
X173723571Y-135792857D01*
X173580714Y-135650000D01*
X173437857Y-135578571D01*
X172152142Y-137078571D02*
X172152142Y-135578571D01*
X171795000Y-135578571D01*
X171580714Y-135650000D01*
X171437857Y-135792857D01*
X171366428Y-135935714D01*
X171295000Y-136221428D01*
X171295000Y-136435714D01*
X171366428Y-136721428D01*
X171437857Y-136864285D01*
X171580714Y-137007142D01*
X171795000Y-137078571D01*
X172152142Y-137078571D01*
X170652142Y-136507142D02*
X169509285Y-136507142D01*
X168937857Y-135578571D02*
X168009285Y-135578571D01*
X168509285Y-136150000D01*
X168295000Y-136150000D01*
X168152142Y-136221428D01*
X168080714Y-136292857D01*
X168009285Y-136435714D01*
X168009285Y-136792857D01*
X168080714Y-136935714D01*
X168152142Y-137007142D01*
X168295000Y-137078571D01*
X168723571Y-137078571D01*
X168866428Y-137007142D01*
X168937857Y-136935714D01*
X167437857Y-135721428D02*
X167366428Y-135650000D01*
X167223571Y-135578571D01*
X166866428Y-135578571D01*
X166723571Y-135650000D01*
X166652142Y-135721428D01*
X166580714Y-135864285D01*
X166580714Y-136007142D01*
X166652142Y-136221428D01*
X167509285Y-137078571D01*
X166580714Y-137078571D01*
X166080714Y-135578571D02*
X165152142Y-135578571D01*
X165652142Y-136150000D01*
X165437857Y-136150000D01*
X165295000Y-136221428D01*
X165223571Y-136292857D01*
X165152142Y-136435714D01*
X165152142Y-136792857D01*
X165223571Y-136935714D01*
X165295000Y-137007142D01*
X165437857Y-137078571D01*
X165866428Y-137078571D01*
X166009285Y-137007142D01*
X166080714Y-136935714D01*
X164009285Y-136292857D02*
X164509285Y-136292857D01*
X164509285Y-137078571D02*
X164509285Y-135578571D01*
X163795000Y-135578571D01*
X96500000Y-71382142D02*
X94642857Y-71382142D01*
X95642857Y-72525000D01*
X95214285Y-72525000D01*
X94928571Y-72667857D01*
X94785714Y-72810714D01*
X94642857Y-73096428D01*
X94642857Y-73810714D01*
X94785714Y-74096428D01*
X94928571Y-74239285D01*
X95214285Y-74382142D01*
X96071428Y-74382142D01*
X96357142Y-74239285D01*
X96500000Y-74096428D01*
X118363571Y-124503571D02*
X119220714Y-124503571D01*
X118792142Y-124503571D02*
X118792142Y-123003571D01*
X118935000Y-123217857D01*
X119077857Y-123360714D01*
X119220714Y-123432142D01*
X116649285Y-123146428D02*
X116577857Y-123075000D01*
X116435000Y-123003571D01*
X116077857Y-123003571D01*
X115935000Y-123075000D01*
X115863571Y-123146428D01*
X115792142Y-123289285D01*
X115792142Y-123432142D01*
X115863571Y-123646428D01*
X116720714Y-124503571D01*
X115792142Y-124503571D01*
X114149285Y-123003571D02*
X113220714Y-123003571D01*
X113720714Y-123575000D01*
X113506428Y-123575000D01*
X113363571Y-123646428D01*
X113292142Y-123717857D01*
X113220714Y-123860714D01*
X113220714Y-124217857D01*
X113292142Y-124360714D01*
X113363571Y-124432142D01*
X113506428Y-124503571D01*
X113935000Y-124503571D01*
X114077857Y-124432142D01*
X114149285Y-124360714D01*
X110792142Y-123503571D02*
X110792142Y-124503571D01*
X111149285Y-122932142D02*
X111506428Y-124003571D01*
X110577857Y-124003571D01*
X96107142Y-91987857D02*
X95964285Y-91845000D01*
X95678571Y-91702142D01*
X94964285Y-91702142D01*
X94678571Y-91845000D01*
X94535714Y-91987857D01*
X94392857Y-92273571D01*
X94392857Y-92559285D01*
X94535714Y-92987857D01*
X96250000Y-94702142D01*
X94392857Y-94702142D01*
X94392857Y-115022142D02*
X96107142Y-115022142D01*
X95250000Y-115022142D02*
X95250000Y-112022142D01*
X95535714Y-112450714D01*
X95821428Y-112736428D01*
X96107142Y-112879285D01*
X152321428Y-115036428D02*
X152464285Y-115179285D01*
X152892857Y-115322142D01*
X153178571Y-115322142D01*
X153607142Y-115179285D01*
X153892857Y-114893571D01*
X154035714Y-114607857D01*
X154178571Y-114036428D01*
X154178571Y-113607857D01*
X154035714Y-113036428D01*
X153892857Y-112750714D01*
X153607142Y-112465000D01*
X153178571Y-112322142D01*
X152892857Y-112322142D01*
X152464285Y-112465000D01*
X152321428Y-112607857D01*
D12*
X183364047Y-141357380D02*
X183364047Y-142071666D01*
X183411666Y-142214523D01*
X183506904Y-142309761D01*
X183649761Y-142357380D01*
X183745000Y-142357380D01*
X182411666Y-142357380D02*
X182887857Y-142357380D01*
X182887857Y-141357380D01*
X181506904Y-142262142D02*
X181554523Y-142309761D01*
X181697380Y-142357380D01*
X181792619Y-142357380D01*
X181935476Y-142309761D01*
X182030714Y-142214523D01*
X182078333Y-142119285D01*
X182125952Y-141928809D01*
X182125952Y-141785952D01*
X182078333Y-141595476D01*
X182030714Y-141500238D01*
X181935476Y-141405000D01*
X181792619Y-141357380D01*
X181697380Y-141357380D01*
X181554523Y-141405000D01*
X181506904Y-141452619D01*
X180792619Y-141357380D02*
X180792619Y-142071666D01*
X180840238Y-142214523D01*
X180935476Y-142309761D01*
X181078333Y-142357380D01*
X181173571Y-142357380D01*
X179840238Y-142357380D02*
X180316428Y-142357380D01*
X180316428Y-141357380D01*
X178935476Y-142262142D02*
X178983095Y-142309761D01*
X179125952Y-142357380D01*
X179221190Y-142357380D01*
X179364047Y-142309761D01*
X179459285Y-142214523D01*
X179506904Y-142119285D01*
X179554523Y-141928809D01*
X179554523Y-141785952D01*
X179506904Y-141595476D01*
X179459285Y-141500238D01*
X179364047Y-141405000D01*
X179221190Y-141357380D01*
X179125952Y-141357380D01*
X178983095Y-141405000D01*
X178935476Y-141452619D01*
X178221190Y-141357380D02*
X178221190Y-142071666D01*
X178268809Y-142214523D01*
X178364047Y-142309761D01*
X178506904Y-142357380D01*
X178602142Y-142357380D01*
X177268809Y-142357380D02*
X177745000Y-142357380D01*
X177745000Y-141357380D01*
X176364047Y-142262142D02*
X176411666Y-142309761D01*
X176554523Y-142357380D01*
X176649761Y-142357380D01*
X176792619Y-142309761D01*
X176887857Y-142214523D01*
X176935476Y-142119285D01*
X176983095Y-141928809D01*
X176983095Y-141785952D01*
X176935476Y-141595476D01*
X176887857Y-141500238D01*
X176792619Y-141405000D01*
X176649761Y-141357380D01*
X176554523Y-141357380D01*
X176411666Y-141405000D01*
X176364047Y-141452619D01*
X175649761Y-141357380D02*
X175649761Y-142071666D01*
X175697380Y-142214523D01*
X175792619Y-142309761D01*
X175935476Y-142357380D01*
X176030714Y-142357380D01*
X174697380Y-142357380D02*
X175173571Y-142357380D01*
X175173571Y-141357380D01*
X173792619Y-142262142D02*
X173840238Y-142309761D01*
X173983095Y-142357380D01*
X174078333Y-142357380D01*
X174221190Y-142309761D01*
X174316428Y-142214523D01*
X174364047Y-142119285D01*
X174411666Y-141928809D01*
X174411666Y-141785952D01*
X174364047Y-141595476D01*
X174316428Y-141500238D01*
X174221190Y-141405000D01*
X174078333Y-141357380D01*
X173983095Y-141357380D01*
X173840238Y-141405000D01*
X173792619Y-141452619D01*
X110302380Y-56896904D02*
X109302380Y-56896904D01*
X109302380Y-57135000D01*
X109350000Y-57277857D01*
X109445238Y-57373095D01*
X109540476Y-57420714D01*
X109730952Y-57468333D01*
X109873809Y-57468333D01*
X110064285Y-57420714D01*
X110159523Y-57373095D01*
X110254761Y-57277857D01*
X110302380Y-57135000D01*
X110302380Y-56896904D01*
X110302380Y-58420714D02*
X110302380Y-57849285D01*
X110302380Y-58135000D02*
X109302380Y-58135000D01*
X109445238Y-58039761D01*
X109540476Y-57944523D01*
X109588095Y-57849285D01*
X110302380Y-117380714D02*
X109302380Y-117380714D01*
X109302380Y-117618809D01*
X109350000Y-117761666D01*
X109445238Y-117856904D01*
X109540476Y-117904523D01*
X109730952Y-117952142D01*
X109873809Y-117952142D01*
X110064285Y-117904523D01*
X110159523Y-117856904D01*
X110254761Y-117761666D01*
X110302380Y-117618809D01*
X110302380Y-117380714D01*
X110302380Y-118904523D02*
X110302380Y-118333095D01*
X110302380Y-118618809D02*
X109302380Y-118618809D01*
X109445238Y-118523571D01*
X109540476Y-118428333D01*
X109588095Y-118333095D01*
X109302380Y-119237857D02*
X109302380Y-119856904D01*
X109683333Y-119523571D01*
X109683333Y-119666428D01*
X109730952Y-119761666D01*
X109778571Y-119809285D01*
X109873809Y-119856904D01*
X110111904Y-119856904D01*
X110207142Y-119809285D01*
X110254761Y-119761666D01*
X110302380Y-119666428D01*
X110302380Y-119380714D01*
X110254761Y-119285476D01*
X110207142Y-119237857D01*
X130622380Y-77216904D02*
X129622380Y-77216904D01*
X129622380Y-77455000D01*
X129670000Y-77597857D01*
X129765238Y-77693095D01*
X129860476Y-77740714D01*
X130050952Y-77788333D01*
X130193809Y-77788333D01*
X130384285Y-77740714D01*
X130479523Y-77693095D01*
X130574761Y-77597857D01*
X130622380Y-77455000D01*
X130622380Y-77216904D01*
X129622380Y-78645476D02*
X129622380Y-78455000D01*
X129670000Y-78359761D01*
X129717619Y-78312142D01*
X129860476Y-78216904D01*
X130050952Y-78169285D01*
X130431904Y-78169285D01*
X130527142Y-78216904D01*
X130574761Y-78264523D01*
X130622380Y-78359761D01*
X130622380Y-78550238D01*
X130574761Y-78645476D01*
X130527142Y-78693095D01*
X130431904Y-78740714D01*
X130193809Y-78740714D01*
X130098571Y-78693095D01*
X130050952Y-78645476D01*
X130003333Y-78550238D01*
X130003333Y-78359761D01*
X130050952Y-78264523D01*
X130098571Y-78216904D01*
X130193809Y-78169285D01*
X130622380Y-97060714D02*
X129622380Y-97060714D01*
X129622380Y-97298809D01*
X129670000Y-97441666D01*
X129765238Y-97536904D01*
X129860476Y-97584523D01*
X130050952Y-97632142D01*
X130193809Y-97632142D01*
X130384285Y-97584523D01*
X130479523Y-97536904D01*
X130574761Y-97441666D01*
X130622380Y-97298809D01*
X130622380Y-97060714D01*
X130622380Y-98584523D02*
X130622380Y-98013095D01*
X130622380Y-98298809D02*
X129622380Y-98298809D01*
X129765238Y-98203571D01*
X129860476Y-98108333D01*
X129908095Y-98013095D01*
X129622380Y-99203571D02*
X129622380Y-99298809D01*
X129670000Y-99394047D01*
X129717619Y-99441666D01*
X129812857Y-99489285D01*
X130003333Y-99536904D01*
X130241428Y-99536904D01*
X130431904Y-99489285D01*
X130527142Y-99441666D01*
X130574761Y-99394047D01*
X130622380Y-99298809D01*
X130622380Y-99203571D01*
X130574761Y-99108333D01*
X130527142Y-99060714D01*
X130431904Y-99013095D01*
X130241428Y-98965476D01*
X130003333Y-98965476D01*
X129812857Y-99013095D01*
X129717619Y-99060714D01*
X129670000Y-99108333D01*
X129622380Y-99203571D01*
X171262380Y-56896904D02*
X170262380Y-56896904D01*
X170262380Y-57135000D01*
X170310000Y-57277857D01*
X170405238Y-57373095D01*
X170500476Y-57420714D01*
X170690952Y-57468333D01*
X170833809Y-57468333D01*
X171024285Y-57420714D01*
X171119523Y-57373095D01*
X171214761Y-57277857D01*
X171262380Y-57135000D01*
X171262380Y-56896904D01*
X170595714Y-58325476D02*
X171262380Y-58325476D01*
X170214761Y-58087380D02*
X170929047Y-57849285D01*
X170929047Y-58468333D01*
X130622380Y-56896904D02*
X129622380Y-56896904D01*
X129622380Y-57135000D01*
X129670000Y-57277857D01*
X129765238Y-57373095D01*
X129860476Y-57420714D01*
X130050952Y-57468333D01*
X130193809Y-57468333D01*
X130384285Y-57420714D01*
X130479523Y-57373095D01*
X130574761Y-57277857D01*
X130622380Y-57135000D01*
X130622380Y-56896904D01*
X129717619Y-57849285D02*
X129670000Y-57896904D01*
X129622380Y-57992142D01*
X129622380Y-58230238D01*
X129670000Y-58325476D01*
X129717619Y-58373095D01*
X129812857Y-58420714D01*
X129908095Y-58420714D01*
X130050952Y-58373095D01*
X130622380Y-57801666D01*
X130622380Y-58420714D01*
X150942380Y-56896904D02*
X149942380Y-56896904D01*
X149942380Y-57135000D01*
X149990000Y-57277857D01*
X150085238Y-57373095D01*
X150180476Y-57420714D01*
X150370952Y-57468333D01*
X150513809Y-57468333D01*
X150704285Y-57420714D01*
X150799523Y-57373095D01*
X150894761Y-57277857D01*
X150942380Y-57135000D01*
X150942380Y-56896904D01*
X149942380Y-57801666D02*
X149942380Y-58420714D01*
X150323333Y-58087380D01*
X150323333Y-58230238D01*
X150370952Y-58325476D01*
X150418571Y-58373095D01*
X150513809Y-58420714D01*
X150751904Y-58420714D01*
X150847142Y-58373095D01*
X150894761Y-58325476D01*
X150942380Y-58230238D01*
X150942380Y-57944523D01*
X150894761Y-57849285D01*
X150847142Y-57801666D01*
X110302380Y-77216904D02*
X109302380Y-77216904D01*
X109302380Y-77455000D01*
X109350000Y-77597857D01*
X109445238Y-77693095D01*
X109540476Y-77740714D01*
X109730952Y-77788333D01*
X109873809Y-77788333D01*
X110064285Y-77740714D01*
X110159523Y-77693095D01*
X110254761Y-77597857D01*
X110302380Y-77455000D01*
X110302380Y-77216904D01*
X109302380Y-78693095D02*
X109302380Y-78216904D01*
X109778571Y-78169285D01*
X109730952Y-78216904D01*
X109683333Y-78312142D01*
X109683333Y-78550238D01*
X109730952Y-78645476D01*
X109778571Y-78693095D01*
X109873809Y-78740714D01*
X110111904Y-78740714D01*
X110207142Y-78693095D01*
X110254761Y-78645476D01*
X110302380Y-78550238D01*
X110302380Y-78312142D01*
X110254761Y-78216904D01*
X110207142Y-78169285D01*
X150942380Y-77216904D02*
X149942380Y-77216904D01*
X149942380Y-77455000D01*
X149990000Y-77597857D01*
X150085238Y-77693095D01*
X150180476Y-77740714D01*
X150370952Y-77788333D01*
X150513809Y-77788333D01*
X150704285Y-77740714D01*
X150799523Y-77693095D01*
X150894761Y-77597857D01*
X150942380Y-77455000D01*
X150942380Y-77216904D01*
X149942380Y-78121666D02*
X149942380Y-78788333D01*
X150942380Y-78359761D01*
X150942380Y-117380714D02*
X149942380Y-117380714D01*
X149942380Y-117618809D01*
X149990000Y-117761666D01*
X150085238Y-117856904D01*
X150180476Y-117904523D01*
X150370952Y-117952142D01*
X150513809Y-117952142D01*
X150704285Y-117904523D01*
X150799523Y-117856904D01*
X150894761Y-117761666D01*
X150942380Y-117618809D01*
X150942380Y-117380714D01*
X150942380Y-118904523D02*
X150942380Y-118333095D01*
X150942380Y-118618809D02*
X149942380Y-118618809D01*
X150085238Y-118523571D01*
X150180476Y-118428333D01*
X150228095Y-118333095D01*
X149942380Y-119809285D02*
X149942380Y-119333095D01*
X150418571Y-119285476D01*
X150370952Y-119333095D01*
X150323333Y-119428333D01*
X150323333Y-119666428D01*
X150370952Y-119761666D01*
X150418571Y-119809285D01*
X150513809Y-119856904D01*
X150751904Y-119856904D01*
X150847142Y-119809285D01*
X150894761Y-119761666D01*
X150942380Y-119666428D01*
X150942380Y-119428333D01*
X150894761Y-119333095D01*
X150847142Y-119285476D01*
X110302380Y-97536904D02*
X109302380Y-97536904D01*
X109302380Y-97775000D01*
X109350000Y-97917857D01*
X109445238Y-98013095D01*
X109540476Y-98060714D01*
X109730952Y-98108333D01*
X109873809Y-98108333D01*
X110064285Y-98060714D01*
X110159523Y-98013095D01*
X110254761Y-97917857D01*
X110302380Y-97775000D01*
X110302380Y-97536904D01*
X110302380Y-98584523D02*
X110302380Y-98775000D01*
X110254761Y-98870238D01*
X110207142Y-98917857D01*
X110064285Y-99013095D01*
X109873809Y-99060714D01*
X109492857Y-99060714D01*
X109397619Y-99013095D01*
X109350000Y-98965476D01*
X109302380Y-98870238D01*
X109302380Y-98679761D01*
X109350000Y-98584523D01*
X109397619Y-98536904D01*
X109492857Y-98489285D01*
X109730952Y-98489285D01*
X109826190Y-98536904D01*
X109873809Y-98584523D01*
X109921428Y-98679761D01*
X109921428Y-98870238D01*
X109873809Y-98965476D01*
X109826190Y-99013095D01*
X109730952Y-99060714D01*
X121922142Y-130835952D02*
X121969761Y-130788333D01*
X122017380Y-130645476D01*
X122017380Y-130550238D01*
X121969761Y-130407380D01*
X121874523Y-130312142D01*
X121779285Y-130264523D01*
X121588809Y-130216904D01*
X121445952Y-130216904D01*
X121255476Y-130264523D01*
X121160238Y-130312142D01*
X121065000Y-130407380D01*
X121017380Y-130550238D01*
X121017380Y-130645476D01*
X121065000Y-130788333D01*
X121112619Y-130835952D01*
X121017380Y-131455000D02*
X121017380Y-131645476D01*
X121065000Y-131740714D01*
X121160238Y-131835952D01*
X121350714Y-131883571D01*
X121684047Y-131883571D01*
X121874523Y-131835952D01*
X121969761Y-131740714D01*
X122017380Y-131645476D01*
X122017380Y-131455000D01*
X121969761Y-131359761D01*
X121874523Y-131264523D01*
X121684047Y-131216904D01*
X121350714Y-131216904D01*
X121160238Y-131264523D01*
X121065000Y-131359761D01*
X121017380Y-131455000D01*
X122017380Y-132788333D02*
X122017380Y-132312142D01*
X121017380Y-132312142D01*
X130622380Y-117380714D02*
X129622380Y-117380714D01*
X129622380Y-117618809D01*
X129670000Y-117761666D01*
X129765238Y-117856904D01*
X129860476Y-117904523D01*
X130050952Y-117952142D01*
X130193809Y-117952142D01*
X130384285Y-117904523D01*
X130479523Y-117856904D01*
X130574761Y-117761666D01*
X130622380Y-117618809D01*
X130622380Y-117380714D01*
X130622380Y-118904523D02*
X130622380Y-118333095D01*
X130622380Y-118618809D02*
X129622380Y-118618809D01*
X129765238Y-118523571D01*
X129860476Y-118428333D01*
X129908095Y-118333095D01*
X129955714Y-119761666D02*
X130622380Y-119761666D01*
X129574761Y-119523571D02*
X130289047Y-119285476D01*
X130289047Y-119904523D01*
X130622380Y-117380714D02*
X129622380Y-117380714D01*
X129622380Y-117618809D01*
X129670000Y-117761666D01*
X129765238Y-117856904D01*
X129860476Y-117904523D01*
X130050952Y-117952142D01*
X130193809Y-117952142D01*
X130384285Y-117904523D01*
X130479523Y-117856904D01*
X130574761Y-117761666D01*
X130622380Y-117618809D01*
X130622380Y-117380714D01*
X130622380Y-118904523D02*
X130622380Y-118333095D01*
X130622380Y-118618809D02*
X129622380Y-118618809D01*
X129765238Y-118523571D01*
X129860476Y-118428333D01*
X129908095Y-118333095D01*
X129955714Y-119761666D02*
X130622380Y-119761666D01*
X129574761Y-119523571D02*
X130289047Y-119285476D01*
X130289047Y-119904523D01*
X171262380Y-77216904D02*
X170262380Y-77216904D01*
X170262380Y-77455000D01*
X170310000Y-77597857D01*
X170405238Y-77693095D01*
X170500476Y-77740714D01*
X170690952Y-77788333D01*
X170833809Y-77788333D01*
X171024285Y-77740714D01*
X171119523Y-77693095D01*
X171214761Y-77597857D01*
X171262380Y-77455000D01*
X171262380Y-77216904D01*
X170690952Y-78359761D02*
X170643333Y-78264523D01*
X170595714Y-78216904D01*
X170500476Y-78169285D01*
X170452857Y-78169285D01*
X170357619Y-78216904D01*
X170310000Y-78264523D01*
X170262380Y-78359761D01*
X170262380Y-78550238D01*
X170310000Y-78645476D01*
X170357619Y-78693095D01*
X170452857Y-78740714D01*
X170500476Y-78740714D01*
X170595714Y-78693095D01*
X170643333Y-78645476D01*
X170690952Y-78550238D01*
X170690952Y-78359761D01*
X170738571Y-78264523D01*
X170786190Y-78216904D01*
X170881428Y-78169285D01*
X171071904Y-78169285D01*
X171167142Y-78216904D01*
X171214761Y-78264523D01*
X171262380Y-78359761D01*
X171262380Y-78550238D01*
X171214761Y-78645476D01*
X171167142Y-78693095D01*
X171071904Y-78740714D01*
X170881428Y-78740714D01*
X170786190Y-78693095D01*
X170738571Y-78645476D01*
X170690952Y-78550238D01*
X109307380Y-130669285D02*
X108831190Y-130335952D01*
X109307380Y-130097857D02*
X108307380Y-130097857D01*
X108307380Y-130478809D01*
X108355000Y-130574047D01*
X108402619Y-130621666D01*
X108497857Y-130669285D01*
X108640714Y-130669285D01*
X108735952Y-130621666D01*
X108783571Y-130574047D01*
X108831190Y-130478809D01*
X108831190Y-130097857D01*
X108307380Y-131288333D02*
X108307380Y-131478809D01*
X108355000Y-131574047D01*
X108450238Y-131669285D01*
X108640714Y-131716904D01*
X108974047Y-131716904D01*
X109164523Y-131669285D01*
X109259761Y-131574047D01*
X109307380Y-131478809D01*
X109307380Y-131288333D01*
X109259761Y-131193095D01*
X109164523Y-131097857D01*
X108974047Y-131050238D01*
X108640714Y-131050238D01*
X108450238Y-131097857D01*
X108355000Y-131193095D01*
X108307380Y-131288333D01*
X108307380Y-132050238D02*
X109307380Y-132288333D01*
X108593095Y-132478809D01*
X109307380Y-132669285D01*
X108307380Y-132907380D01*
X135358380Y-127504047D02*
X135358380Y-128170714D01*
X136358380Y-127742142D01*
X136310761Y-129265952D02*
X136358380Y-129408809D01*
X136358380Y-129646904D01*
X136310761Y-129742142D01*
X136263142Y-129789761D01*
X136167904Y-129837380D01*
X136072666Y-129837380D01*
X135977428Y-129789761D01*
X135929809Y-129742142D01*
X135882190Y-129646904D01*
X135834571Y-129456428D01*
X135786952Y-129361190D01*
X135739333Y-129313571D01*
X135644095Y-129265952D01*
X135548857Y-129265952D01*
X135453619Y-129313571D01*
X135406000Y-129361190D01*
X135358380Y-129456428D01*
X135358380Y-129694523D01*
X135406000Y-129837380D01*
X135834571Y-130265952D02*
X135834571Y-130599285D01*
X136358380Y-130742142D02*
X136358380Y-130265952D01*
X135358380Y-130265952D01*
X135358380Y-130742142D01*
X135406000Y-131694523D02*
X135358380Y-131599285D01*
X135358380Y-131456428D01*
X135406000Y-131313571D01*
X135501238Y-131218333D01*
X135596476Y-131170714D01*
X135786952Y-131123095D01*
X135929809Y-131123095D01*
X136120285Y-131170714D01*
X136215523Y-131218333D01*
X136310761Y-131313571D01*
X136358380Y-131456428D01*
X136358380Y-131551666D01*
X136310761Y-131694523D01*
X136263142Y-131742142D01*
X135929809Y-131742142D01*
X135929809Y-131551666D01*
X136358380Y-133408809D02*
X136358380Y-132932619D01*
X135358380Y-132932619D01*
X135834571Y-133742142D02*
X135834571Y-134075476D01*
X136358380Y-134218333D02*
X136358380Y-133742142D01*
X135358380Y-133742142D01*
X135358380Y-134218333D01*
X136358380Y-134646904D02*
X135358380Y-134646904D01*
X135358380Y-134885000D01*
X135406000Y-135027857D01*
X135501238Y-135123095D01*
X135596476Y-135170714D01*
X135786952Y-135218333D01*
X135929809Y-135218333D01*
X136120285Y-135170714D01*
X136215523Y-135123095D01*
X136310761Y-135027857D01*
X136358380Y-134885000D01*
X136358380Y-134646904D01*
X150942380Y-97060714D02*
X149942380Y-97060714D01*
X149942380Y-97298809D01*
X149990000Y-97441666D01*
X150085238Y-97536904D01*
X150180476Y-97584523D01*
X150370952Y-97632142D01*
X150513809Y-97632142D01*
X150704285Y-97584523D01*
X150799523Y-97536904D01*
X150894761Y-97441666D01*
X150942380Y-97298809D01*
X150942380Y-97060714D01*
X150942380Y-98584523D02*
X150942380Y-98013095D01*
X150942380Y-98298809D02*
X149942380Y-98298809D01*
X150085238Y-98203571D01*
X150180476Y-98108333D01*
X150228095Y-98013095D01*
X150942380Y-99536904D02*
X150942380Y-98965476D01*
X150942380Y-99251190D02*
X149942380Y-99251190D01*
X150085238Y-99155952D01*
X150180476Y-99060714D01*
X150228095Y-98965476D01*
X171262380Y-97060714D02*
X170262380Y-97060714D01*
X170262380Y-97298809D01*
X170310000Y-97441666D01*
X170405238Y-97536904D01*
X170500476Y-97584523D01*
X170690952Y-97632142D01*
X170833809Y-97632142D01*
X171024285Y-97584523D01*
X171119523Y-97536904D01*
X171214761Y-97441666D01*
X171262380Y-97298809D01*
X171262380Y-97060714D01*
X171262380Y-98584523D02*
X171262380Y-98013095D01*
X171262380Y-98298809D02*
X170262380Y-98298809D01*
X170405238Y-98203571D01*
X170500476Y-98108333D01*
X170548095Y-98013095D01*
X170357619Y-98965476D02*
X170310000Y-99013095D01*
X170262380Y-99108333D01*
X170262380Y-99346428D01*
X170310000Y-99441666D01*
X170357619Y-99489285D01*
X170452857Y-99536904D01*
X170548095Y-99536904D01*
X170690952Y-99489285D01*
X171262380Y-98917857D01*
X171262380Y-99536904D01*
D13*
X137376064Y-73286106D02*
X137387436Y-73314298D01*
X137387436Y-73314298D02*
X137452836Y-73383728D01*
X137452836Y-73383728D02*
X137464510Y-73387077D01*
X137464510Y-73387077D02*
X137495770Y-73330768D01*
X137495770Y-73330768D02*
X137496605Y-73314298D01*
X137496605Y-73314298D02*
X137440656Y-73244315D01*
X137440656Y-73244315D02*
X137419530Y-73241518D01*
X137419530Y-73241518D02*
X137376064Y-73286106D01*
X137376064Y-73286106D02*
X137376064Y-73286106D01*
G36*
X137440656Y-73244315D02*
G01*
X137496605Y-73314298D01*
X137495770Y-73330768D01*
X137464510Y-73387077D01*
X137452836Y-73383728D01*
X137387436Y-73314298D01*
X137376064Y-73286106D01*
X137419530Y-73241518D01*
X137440656Y-73244315D01*
G37*
X137440656Y-73244315D02*
X137496605Y-73314298D01*
X137495770Y-73330768D01*
X137464510Y-73387077D01*
X137452836Y-73383728D01*
X137387436Y-73314298D01*
X137376064Y-73286106D01*
X137419530Y-73241518D01*
X137440656Y-73244315D01*
X137295610Y-72744995D02*
X137299312Y-72754710D01*
X137299312Y-72754710D02*
X137351879Y-72854485D01*
X137351879Y-72854485D02*
X137467462Y-73053565D01*
X137467462Y-73053565D02*
X137631443Y-73328129D01*
X137631443Y-73328129D02*
X137829207Y-73654355D01*
X137829207Y-73654355D02*
X138046136Y-74008420D01*
X138046136Y-74008420D02*
X138267614Y-74366502D01*
X138267614Y-74366502D02*
X138479022Y-74704780D01*
X138479022Y-74704780D02*
X138665745Y-74999431D01*
X138665745Y-74999431D02*
X138813166Y-75226633D01*
X138813166Y-75226633D02*
X138848394Y-75279341D01*
X138848394Y-75279341D02*
X139032591Y-75506911D01*
X139032591Y-75506911D02*
X139248770Y-75665826D01*
X139248770Y-75665826D02*
X139543211Y-75785783D01*
X139543211Y-75785783D02*
X139714733Y-75835276D01*
X139714733Y-75835276D02*
X139966537Y-75899415D01*
X139966537Y-75899415D02*
X140126533Y-75924782D01*
X140126533Y-75924782D02*
X140243163Y-75911567D01*
X140243163Y-75911567D02*
X140364865Y-75859955D01*
X140364865Y-75859955D02*
X140407780Y-75837959D01*
X140407780Y-75837959D02*
X140545292Y-75722058D01*
X140545292Y-75722058D02*
X140574659Y-75543990D01*
X140574659Y-75543990D02*
X140573844Y-75531977D01*
X140573844Y-75531977D02*
X140527161Y-75326078D01*
X140527161Y-75326078D02*
X140407752Y-75128865D01*
X140407752Y-75128865D02*
X140197742Y-74920118D01*
X140197742Y-74920118D02*
X139879256Y-74679616D01*
X139879256Y-74679616D02*
X139731949Y-74579600D01*
X139731949Y-74579600D02*
X139452185Y-74381033D01*
X139452185Y-74381033D02*
X139109277Y-74119058D01*
X139109277Y-74119058D02*
X138747570Y-73828414D01*
X138747570Y-73828414D02*
X138425280Y-73555954D01*
X138425280Y-73555954D02*
X138130104Y-73301997D01*
X138130104Y-73301997D02*
X137855335Y-73071718D01*
X137855335Y-73071718D02*
X137628945Y-72888155D01*
X137628945Y-72888155D02*
X137478906Y-72774342D01*
X137478906Y-72774342D02*
X137463504Y-72763915D01*
X137463504Y-72763915D02*
X137323722Y-72677048D01*
X137323722Y-72677048D02*
X137276769Y-72671246D01*
X137276769Y-72671246D02*
X137295610Y-72744995D01*
X137295610Y-72744995D02*
X137295610Y-72744995D01*
G36*
X137323722Y-72677048D02*
G01*
X137463504Y-72763915D01*
X137478906Y-72774342D01*
X137628945Y-72888155D01*
X137855335Y-73071718D01*
X138130104Y-73301997D01*
X138425280Y-73555954D01*
X138747570Y-73828414D01*
X139109277Y-74119058D01*
X139452185Y-74381033D01*
X139731949Y-74579600D01*
X139879256Y-74679616D01*
X140197742Y-74920118D01*
X140407752Y-75128865D01*
X140527161Y-75326078D01*
X140573844Y-75531977D01*
X140574659Y-75543990D01*
X140545292Y-75722058D01*
X140407780Y-75837959D01*
X140364865Y-75859955D01*
X140243163Y-75911567D01*
X140126533Y-75924782D01*
X139966537Y-75899415D01*
X139714733Y-75835276D01*
X139543211Y-75785783D01*
X139248770Y-75665826D01*
X139032591Y-75506911D01*
X138848394Y-75279341D01*
X138813166Y-75226633D01*
X138665745Y-74999431D01*
X138479022Y-74704780D01*
X138267614Y-74366502D01*
X138046136Y-74008420D01*
X137829207Y-73654355D01*
X137631443Y-73328129D01*
X137467462Y-73053565D01*
X137351879Y-72854485D01*
X137299312Y-72754710D01*
X137295610Y-72744995D01*
X137276769Y-72671246D01*
X137323722Y-72677048D01*
G37*
X137323722Y-72677048D02*
X137463504Y-72763915D01*
X137478906Y-72774342D01*
X137628945Y-72888155D01*
X137855335Y-73071718D01*
X138130104Y-73301997D01*
X138425280Y-73555954D01*
X138747570Y-73828414D01*
X139109277Y-74119058D01*
X139452185Y-74381033D01*
X139731949Y-74579600D01*
X139879256Y-74679616D01*
X140197742Y-74920118D01*
X140407752Y-75128865D01*
X140527161Y-75326078D01*
X140573844Y-75531977D01*
X140574659Y-75543990D01*
X140545292Y-75722058D01*
X140407780Y-75837959D01*
X140364865Y-75859955D01*
X140243163Y-75911567D01*
X140126533Y-75924782D01*
X139966537Y-75899415D01*
X139714733Y-75835276D01*
X139543211Y-75785783D01*
X139248770Y-75665826D01*
X139032591Y-75506911D01*
X138848394Y-75279341D01*
X138813166Y-75226633D01*
X138665745Y-74999431D01*
X138479022Y-74704780D01*
X138267614Y-74366502D01*
X138046136Y-74008420D01*
X137829207Y-73654355D01*
X137631443Y-73328129D01*
X137467462Y-73053565D01*
X137351879Y-72854485D01*
X137299312Y-72754710D01*
X137295610Y-72744995D01*
X137276769Y-72671246D01*
X137323722Y-72677048D01*
X139152076Y-78579587D02*
X138984297Y-78661267D01*
X138984297Y-78661267D02*
X138823209Y-78747182D01*
X138823209Y-78747182D02*
X138719955Y-78770436D01*
X138719955Y-78770436D02*
X138588147Y-78810675D01*
X138588147Y-78810675D02*
X138551906Y-78845530D01*
X138551906Y-78845530D02*
X138593939Y-78879067D01*
X138593939Y-78879067D02*
X138742683Y-78901407D01*
X138742683Y-78901407D02*
X138959700Y-78912294D01*
X138959700Y-78912294D02*
X139206554Y-78911469D01*
X139206554Y-78911469D02*
X139444808Y-78898677D01*
X139444808Y-78898677D02*
X139636026Y-78873659D01*
X139636026Y-78873659D02*
X139710657Y-78853280D01*
X139710657Y-78853280D02*
X139799531Y-78807731D01*
X139799531Y-78807731D02*
X139780507Y-78754823D01*
X139780507Y-78754823D02*
X139676269Y-78676447D01*
X139676269Y-78676447D02*
X139418133Y-78569169D01*
X139418133Y-78569169D02*
X139152076Y-78579587D01*
X139152076Y-78579587D02*
X139152076Y-78579587D01*
G36*
X139676269Y-78676447D02*
G01*
X139780507Y-78754823D01*
X139799531Y-78807731D01*
X139710657Y-78853280D01*
X139636026Y-78873659D01*
X139444808Y-78898677D01*
X139206554Y-78911469D01*
X138959700Y-78912294D01*
X138742683Y-78901407D01*
X138593939Y-78879067D01*
X138551906Y-78845530D01*
X138588147Y-78810675D01*
X138719955Y-78770436D01*
X138823209Y-78747182D01*
X138984297Y-78661267D01*
X139152076Y-78579587D01*
X139418133Y-78569169D01*
X139676269Y-78676447D01*
G37*
X139676269Y-78676447D02*
X139780507Y-78754823D01*
X139799531Y-78807731D01*
X139710657Y-78853280D01*
X139636026Y-78873659D01*
X139444808Y-78898677D01*
X139206554Y-78911469D01*
X138959700Y-78912294D01*
X138742683Y-78901407D01*
X138593939Y-78879067D01*
X138551906Y-78845530D01*
X138588147Y-78810675D01*
X138719955Y-78770436D01*
X138823209Y-78747182D01*
X138984297Y-78661267D01*
X139152076Y-78579587D01*
X139418133Y-78569169D01*
X139676269Y-78676447D01*
X140712920Y-75385793D02*
X140721588Y-75451455D01*
X140721588Y-75451455D02*
X140725459Y-75461921D01*
X140725459Y-75461921D02*
X140733417Y-75610956D01*
X140733417Y-75610956D02*
X140700321Y-75748661D01*
X140700321Y-75748661D02*
X140568794Y-75906361D01*
X140568794Y-75906361D02*
X140341805Y-75996762D01*
X140341805Y-75996762D02*
X140051338Y-76022877D01*
X140051338Y-76022877D02*
X139729380Y-75987720D01*
X139729380Y-75987720D02*
X139407919Y-75894305D01*
X139407919Y-75894305D02*
X139118939Y-75745646D01*
X139118939Y-75745646D02*
X138925747Y-75581446D01*
X138925747Y-75581446D02*
X138791761Y-75433394D01*
X138791761Y-75433394D02*
X138271547Y-75618211D01*
X138271547Y-75618211D02*
X137806136Y-75800912D01*
X137806136Y-75800912D02*
X137438786Y-75991687D01*
X137438786Y-75991687D02*
X137123462Y-76219198D01*
X137123462Y-76219198D02*
X136814132Y-76512107D01*
X136814132Y-76512107D02*
X136782453Y-76545362D01*
X136782453Y-76545362D02*
X136381345Y-77051792D01*
X136381345Y-77051792D02*
X136080049Y-77623526D01*
X136080049Y-77623526D02*
X135873876Y-78274825D01*
X135873876Y-78274825D02*
X135758139Y-79019949D01*
X135758139Y-79019949D02*
X135727366Y-79755272D01*
X135727366Y-79755272D02*
X135728120Y-80701404D01*
X135728120Y-80701404D02*
X136033460Y-81275800D01*
X136033460Y-81275800D02*
X136179948Y-81558716D01*
X136179948Y-81558716D02*
X136268995Y-81767434D01*
X136268995Y-81767434D02*
X136313596Y-81955142D01*
X136313596Y-81955142D02*
X136326744Y-82175025D01*
X136326744Y-82175025D02*
X136322071Y-82457198D01*
X136322071Y-82457198D02*
X136319783Y-82741361D01*
X136319783Y-82741361D02*
X136328321Y-82967007D01*
X136328321Y-82967007D02*
X136345904Y-83096807D01*
X136345904Y-83096807D02*
X136353331Y-83112189D01*
X136353331Y-83112189D02*
X136407166Y-83081995D01*
X136407166Y-83081995D02*
X136492670Y-82949658D01*
X136492670Y-82949658D02*
X136593880Y-82750578D01*
X136593880Y-82750578D02*
X136694831Y-82520155D01*
X136694831Y-82520155D02*
X136779558Y-82293791D01*
X136779558Y-82293791D02*
X136832097Y-82106885D01*
X136832097Y-82106885D02*
X136841533Y-82029627D01*
X136841533Y-82029627D02*
X136860107Y-81868327D01*
X136860107Y-81868327D02*
X136907477Y-81836457D01*
X136907477Y-81836457D02*
X136971316Y-81923820D01*
X136971316Y-81923820D02*
X137039294Y-82120220D01*
X137039294Y-82120220D02*
X137061504Y-82211576D01*
X137061504Y-82211576D02*
X137100265Y-82509909D01*
X137100265Y-82509909D02*
X137112801Y-82900033D01*
X137112801Y-82900033D02*
X137100189Y-83330765D01*
X137100189Y-83330765D02*
X137063510Y-83750922D01*
X137063510Y-83750922D02*
X137023482Y-84014576D01*
X137023482Y-84014576D02*
X137005536Y-84158186D01*
X137005536Y-84158186D02*
X137031534Y-84269250D01*
X137031534Y-84269250D02*
X137123428Y-84386216D01*
X137123428Y-84386216D02*
X137303170Y-84547531D01*
X137303170Y-84547531D02*
X137350750Y-84587790D01*
X137350750Y-84587790D02*
X137578343Y-84762762D01*
X137578343Y-84762762D02*
X137824851Y-84912152D01*
X137824851Y-84912152D02*
X138120035Y-85049561D01*
X138120035Y-85049561D02*
X138493653Y-85188594D01*
X138493653Y-85188594D02*
X138975463Y-85342853D01*
X138975463Y-85342853D02*
X139055992Y-85367267D01*
X139055992Y-85367267D02*
X139774184Y-85511344D01*
X139774184Y-85511344D02*
X140522480Y-85527071D01*
X140522480Y-85527071D02*
X141261287Y-85413884D01*
X141261287Y-85413884D02*
X141318001Y-85399452D01*
X141318001Y-85399452D02*
X141949869Y-85204986D01*
X141949869Y-85204986D02*
X142517465Y-84973798D01*
X142517465Y-84973798D02*
X142983716Y-84721388D01*
X142983716Y-84721388D02*
X143058539Y-84671793D01*
X143058539Y-84671793D02*
X143241184Y-84539873D01*
X143241184Y-84539873D02*
X143362208Y-84440472D01*
X143362208Y-84440472D02*
X143391734Y-84404573D01*
X143391734Y-84404573D02*
X143353820Y-84328271D01*
X143353820Y-84328271D02*
X143256412Y-84172909D01*
X143256412Y-84172909D02*
X143170571Y-84045149D01*
X143170571Y-84045149D02*
X143004174Y-83843468D01*
X143004174Y-83843468D02*
X139868725Y-83843468D01*
X139868725Y-83843468D02*
X139814292Y-83848868D01*
X139814292Y-83848868D02*
X139685377Y-83752547D01*
X139685377Y-83752547D02*
X139526590Y-83594384D01*
X139526590Y-83594384D02*
X139209517Y-83227917D01*
X139209517Y-83227917D02*
X138951886Y-82857719D01*
X138951886Y-82857719D02*
X138719062Y-82430233D01*
X138719062Y-82430233D02*
X138579574Y-82130062D01*
X138579574Y-82130062D02*
X138322208Y-81473083D01*
X138322208Y-81473083D02*
X138163835Y-80886909D01*
X138163835Y-80886909D02*
X138106761Y-80382242D01*
X138106761Y-80382242D02*
X138133076Y-80057052D01*
X138133076Y-80057052D02*
X138205276Y-79682493D01*
X138205276Y-79682493D02*
X138214837Y-80203659D01*
X138214837Y-80203659D02*
X138290055Y-80852524D01*
X138290055Y-80852524D02*
X138494358Y-81514457D01*
X138494358Y-81514457D02*
X138831232Y-82197805D01*
X138831232Y-82197805D02*
X139304157Y-82910914D01*
X139304157Y-82910914D02*
X139394629Y-83030870D01*
X139394629Y-83030870D02*
X139611630Y-83330047D01*
X139611630Y-83330047D02*
X139764746Y-83572747D01*
X139764746Y-83572747D02*
X139851327Y-83747657D01*
X139851327Y-83747657D02*
X139868725Y-83843468D01*
X139868725Y-83843468D02*
X143004174Y-83843468D01*
X143004174Y-83843468D02*
X142944383Y-83771000D01*
X142944383Y-83771000D02*
X142616523Y-83448511D01*
X142616523Y-83448511D02*
X142212512Y-83100114D01*
X142212512Y-83100114D02*
X141757874Y-82748242D01*
X141757874Y-82748242D02*
X141436545Y-82520963D01*
X141436545Y-82520963D02*
X141103961Y-82273575D01*
X141103961Y-82273575D02*
X140847454Y-82022787D01*
X140847454Y-82022787D02*
X140609429Y-81710009D01*
X140609429Y-81710009D02*
X140545621Y-81614591D01*
X140545621Y-81614591D02*
X140372654Y-81343295D01*
X140372654Y-81343295D02*
X140267011Y-81144695D01*
X140267011Y-81144695D02*
X140212257Y-80972444D01*
X140212257Y-80972444D02*
X140191955Y-80780193D01*
X140191955Y-80780193D02*
X140189442Y-80610185D01*
X140189442Y-80610185D02*
X140238170Y-80139836D01*
X140238170Y-80139836D02*
X140389249Y-79757307D01*
X140389249Y-79757307D02*
X140532855Y-79559715D01*
X140532855Y-79559715D02*
X140600461Y-79434975D01*
X140600461Y-79434975D02*
X140554474Y-79321481D01*
X140554474Y-79321481D02*
X140383035Y-79197695D01*
X140383035Y-79197695D02*
X140312190Y-79158919D01*
X140312190Y-79158919D02*
X140152611Y-79098271D01*
X140152611Y-79098271D02*
X139930012Y-79059254D01*
X139930012Y-79059254D02*
X139615088Y-79038278D01*
X139615088Y-79038278D02*
X139276608Y-79032072D01*
X139276608Y-79032072D02*
X138903933Y-79025992D01*
X138903933Y-79025992D02*
X138643925Y-79009569D01*
X138643925Y-79009569D02*
X138463800Y-78977989D01*
X138463800Y-78977989D02*
X138330772Y-78926437D01*
X138330772Y-78926437D02*
X138257697Y-78882420D01*
X138257697Y-78882420D02*
X138042450Y-78737361D01*
X138042450Y-78737361D02*
X138420076Y-78698872D01*
X138420076Y-78698872D02*
X138645815Y-78665602D01*
X138645815Y-78665602D02*
X138809660Y-78622659D01*
X138809660Y-78622659D02*
X138856753Y-78597159D01*
X138856753Y-78597159D02*
X138843137Y-78565021D01*
X138843137Y-78565021D02*
X138729420Y-78578497D01*
X138729420Y-78578497D02*
X138420331Y-78582400D01*
X138420331Y-78582400D02*
X138084959Y-78466705D01*
X138084959Y-78466705D02*
X137756634Y-78244610D01*
X137756634Y-78244610D02*
X137660599Y-78155324D01*
X137660599Y-78155324D02*
X137452404Y-77933566D01*
X137452404Y-77933566D02*
X137362340Y-77791218D01*
X137362340Y-77791218D02*
X137395500Y-77715981D01*
X137395500Y-77715981D02*
X137556976Y-77695558D01*
X137556976Y-77695558D02*
X137842307Y-77716623D01*
X137842307Y-77716623D02*
X138247080Y-77781513D01*
X138247080Y-77781513D02*
X138543460Y-77886161D01*
X138543460Y-77886161D02*
X138766654Y-78046504D01*
X138766654Y-78046504D02*
X138891809Y-78191717D01*
X138891809Y-78191717D02*
X139083153Y-78367879D01*
X139083153Y-78367879D02*
X139238802Y-78409926D01*
X139238802Y-78409926D02*
X139325288Y-78413027D01*
X139325288Y-78413027D02*
X139407654Y-78429364D01*
X139407654Y-78429364D02*
X139511147Y-78471165D01*
X139511147Y-78471165D02*
X139661012Y-78550655D01*
X139661012Y-78550655D02*
X139882497Y-78680063D01*
X139882497Y-78680063D02*
X140200848Y-78871614D01*
X140200848Y-78871614D02*
X140236057Y-78892890D01*
X140236057Y-78892890D02*
X140477299Y-79028012D01*
X140477299Y-79028012D02*
X140802305Y-79195111D01*
X140802305Y-79195111D02*
X141183634Y-79381630D01*
X141183634Y-79381630D02*
X141593844Y-79575012D01*
X141593844Y-79575012D02*
X142005491Y-79762697D01*
X142005491Y-79762697D02*
X142391133Y-79932128D01*
X142391133Y-79932128D02*
X142723328Y-80070749D01*
X142723328Y-80070749D02*
X142974634Y-80166000D01*
X142974634Y-80166000D02*
X143097293Y-80202200D01*
X143097293Y-80202200D02*
X143357846Y-80187196D01*
X143357846Y-80187196D02*
X143699239Y-80055956D01*
X143699239Y-80055956D02*
X144117274Y-79810378D01*
X144117274Y-79810378D02*
X144392450Y-79616852D01*
X144392450Y-79616852D02*
X144645018Y-79411560D01*
X144645018Y-79411560D02*
X144801923Y-79243366D01*
X144801923Y-79243366D02*
X144847321Y-79141928D01*
X144847321Y-79141928D02*
X144795831Y-79015409D01*
X144795831Y-79015409D02*
X144636458Y-78849952D01*
X144636458Y-78849952D02*
X144361849Y-78639521D01*
X144361849Y-78639521D02*
X143964652Y-78378084D01*
X143964652Y-78378084D02*
X143770833Y-78258503D01*
X143770833Y-78258503D02*
X143466451Y-78058003D01*
X143466451Y-78058003D02*
X143282056Y-77896836D01*
X143282056Y-77896836D02*
X143202100Y-77761249D01*
X143202100Y-77761249D02*
X143200331Y-77753839D01*
X143200331Y-77753839D02*
X143140109Y-77502886D01*
X143140109Y-77502886D02*
X142411658Y-77502886D01*
X142411658Y-77502886D02*
X142354268Y-77532010D01*
X142354268Y-77532010D02*
X142279305Y-77440046D01*
X142279305Y-77440046D02*
X142273532Y-77425830D01*
X142273532Y-77425830D02*
X142187938Y-77337388D01*
X142187938Y-77337388D02*
X142010956Y-77223696D01*
X142010956Y-77223696D02*
X141847264Y-77140675D01*
X141847264Y-77140675D02*
X141651669Y-77038779D01*
X141651669Y-77038779D02*
X141585167Y-76977337D01*
X141585167Y-76977337D02*
X141635813Y-76960796D01*
X141635813Y-76960796D02*
X141791665Y-76993601D01*
X141791665Y-76993601D02*
X142025648Y-77074271D01*
X142025648Y-77074271D02*
X142212041Y-77147393D01*
X142212041Y-77147393D02*
X142327954Y-77193918D01*
X142327954Y-77193918D02*
X142345587Y-77201635D01*
X142345587Y-77201635D02*
X142371124Y-77266620D01*
X142371124Y-77266620D02*
X142405076Y-77371748D01*
X142405076Y-77371748D02*
X142411658Y-77502886D01*
X142411658Y-77502886D02*
X143140109Y-77502886D01*
X143140109Y-77502886D02*
X143066915Y-77197884D01*
X143066915Y-77197884D02*
X142927594Y-76763283D01*
X142927594Y-76763283D02*
X142763329Y-76426424D01*
X142763329Y-76426424D02*
X142555078Y-76163697D01*
X142555078Y-76163697D02*
X142283801Y-75951490D01*
X142283801Y-75951490D02*
X141930458Y-75766192D01*
X141930458Y-75766192D02*
X141476007Y-75584193D01*
X141476007Y-75584193D02*
X141440051Y-75571015D01*
X141440051Y-75571015D02*
X141104619Y-75451517D01*
X141104619Y-75451517D02*
X140884746Y-75382817D01*
X140884746Y-75382817D02*
X140760743Y-75361911D01*
X140760743Y-75361911D02*
X140712920Y-75385793D01*
X140712920Y-75385793D02*
X140712920Y-75385793D01*
G36*
X143256412Y-84172909D02*
G01*
X143353820Y-84328271D01*
X143391734Y-84404573D01*
X143362208Y-84440472D01*
X143241184Y-84539873D01*
X143058539Y-84671793D01*
X142983716Y-84721388D01*
X142517465Y-84973798D01*
X141949869Y-85204986D01*
X141318001Y-85399452D01*
X141261287Y-85413884D01*
X140522480Y-85527071D01*
X139774184Y-85511344D01*
X139055992Y-85367267D01*
X138975463Y-85342853D01*
X138493653Y-85188594D01*
X138120035Y-85049561D01*
X137824851Y-84912152D01*
X137578343Y-84762762D01*
X137350750Y-84587790D01*
X137303170Y-84547531D01*
X137123428Y-84386216D01*
X137031534Y-84269250D01*
X137005536Y-84158186D01*
X137023482Y-84014576D01*
X137063510Y-83750922D01*
X137100189Y-83330765D01*
X137112801Y-82900033D01*
X137100265Y-82509909D01*
X137061504Y-82211576D01*
X137039294Y-82120220D01*
X136971316Y-81923820D01*
X136907477Y-81836457D01*
X136860107Y-81868327D01*
X136841533Y-82029627D01*
X136832097Y-82106885D01*
X136779558Y-82293791D01*
X136694831Y-82520155D01*
X136593880Y-82750578D01*
X136492670Y-82949658D01*
X136407166Y-83081995D01*
X136353331Y-83112189D01*
X136345904Y-83096807D01*
X136328321Y-82967007D01*
X136319783Y-82741361D01*
X136322071Y-82457198D01*
X136326744Y-82175025D01*
X136313596Y-81955142D01*
X136268995Y-81767434D01*
X136179948Y-81558716D01*
X136033460Y-81275800D01*
X135728120Y-80701404D01*
X135727866Y-80382242D01*
X138106761Y-80382242D01*
X138163835Y-80886909D01*
X138322208Y-81473083D01*
X138579574Y-82130062D01*
X138719062Y-82430233D01*
X138951886Y-82857719D01*
X139209517Y-83227917D01*
X139526590Y-83594384D01*
X139685377Y-83752547D01*
X139814292Y-83848868D01*
X139868725Y-83843468D01*
X139851327Y-83747657D01*
X139764746Y-83572747D01*
X139611630Y-83330047D01*
X139394629Y-83030870D01*
X139304157Y-82910914D01*
X138831232Y-82197805D01*
X138494358Y-81514457D01*
X138290055Y-80852524D01*
X138214837Y-80203659D01*
X138205276Y-79682493D01*
X138133076Y-80057052D01*
X138106761Y-80382242D01*
X135727866Y-80382242D01*
X135727366Y-79755272D01*
X135758139Y-79019949D01*
X135873876Y-78274825D01*
X136080049Y-77623526D01*
X136381345Y-77051792D01*
X136440316Y-76977337D01*
X141585167Y-76977337D01*
X141651669Y-77038779D01*
X141847264Y-77140675D01*
X142010956Y-77223696D01*
X142187938Y-77337388D01*
X142273532Y-77425830D01*
X142279305Y-77440046D01*
X142354268Y-77532010D01*
X142411658Y-77502886D01*
X142405076Y-77371748D01*
X142371124Y-77266620D01*
X142345587Y-77201635D01*
X142327954Y-77193918D01*
X142212041Y-77147393D01*
X142025648Y-77074271D01*
X141791665Y-76993601D01*
X141635813Y-76960796D01*
X141585167Y-76977337D01*
X136440316Y-76977337D01*
X136782453Y-76545362D01*
X136814132Y-76512107D01*
X137123462Y-76219198D01*
X137438786Y-75991687D01*
X137806136Y-75800912D01*
X138271547Y-75618211D01*
X138791761Y-75433394D01*
X138925747Y-75581446D01*
X139118939Y-75745646D01*
X139407919Y-75894305D01*
X139729380Y-75987720D01*
X140051338Y-76022877D01*
X140341805Y-75996762D01*
X140568794Y-75906361D01*
X140700321Y-75748661D01*
X140733417Y-75610956D01*
X140725459Y-75461921D01*
X140721588Y-75451455D01*
X140712920Y-75385793D01*
X140760743Y-75361911D01*
X140884746Y-75382817D01*
X141104619Y-75451517D01*
X141440051Y-75571015D01*
X141476007Y-75584193D01*
X141930458Y-75766192D01*
X142283801Y-75951490D01*
X142555078Y-76163697D01*
X142763329Y-76426424D01*
X142927594Y-76763283D01*
X143066915Y-77197884D01*
X143140109Y-77502886D01*
X143200331Y-77753839D01*
X143202100Y-77761249D01*
X143282056Y-77896836D01*
X143466451Y-78058003D01*
X143770833Y-78258503D01*
X143964652Y-78378084D01*
X144361849Y-78639521D01*
X144636458Y-78849952D01*
X144795831Y-79015409D01*
X144847321Y-79141928D01*
X144801923Y-79243366D01*
X144645018Y-79411560D01*
X144392450Y-79616852D01*
X144117274Y-79810378D01*
X143699239Y-80055956D01*
X143357846Y-80187196D01*
X143097293Y-80202200D01*
X142974634Y-80166000D01*
X142723328Y-80070749D01*
X142391133Y-79932128D01*
X142005491Y-79762697D01*
X141593844Y-79575012D01*
X141183634Y-79381630D01*
X140802305Y-79195111D01*
X140477299Y-79028012D01*
X140236057Y-78892890D01*
X140200848Y-78871614D01*
X139882497Y-78680063D01*
X139661012Y-78550655D01*
X139511147Y-78471165D01*
X139407654Y-78429364D01*
X139325288Y-78413027D01*
X139238802Y-78409926D01*
X139083153Y-78367879D01*
X138891809Y-78191717D01*
X138766654Y-78046504D01*
X138543460Y-77886161D01*
X138247080Y-77781513D01*
X137842307Y-77716623D01*
X137556976Y-77695558D01*
X137395500Y-77715981D01*
X137362340Y-77791218D01*
X137452404Y-77933566D01*
X137660599Y-78155324D01*
X137756634Y-78244610D01*
X138084959Y-78466705D01*
X138420331Y-78582400D01*
X138729420Y-78578497D01*
X138843137Y-78565021D01*
X138856753Y-78597159D01*
X138809660Y-78622659D01*
X138645815Y-78665602D01*
X138420076Y-78698872D01*
X138042450Y-78737361D01*
X138257697Y-78882420D01*
X138330772Y-78926437D01*
X138463800Y-78977989D01*
X138643925Y-79009569D01*
X138903933Y-79025992D01*
X139276608Y-79032072D01*
X139615088Y-79038278D01*
X139930012Y-79059254D01*
X140152611Y-79098271D01*
X140312190Y-79158919D01*
X140383035Y-79197695D01*
X140554474Y-79321481D01*
X140600461Y-79434975D01*
X140532855Y-79559715D01*
X140389249Y-79757307D01*
X140238170Y-80139836D01*
X140189442Y-80610185D01*
X140191955Y-80780193D01*
X140212257Y-80972444D01*
X140267011Y-81144695D01*
X140372654Y-81343295D01*
X140545621Y-81614591D01*
X140609429Y-81710009D01*
X140847454Y-82022787D01*
X141103961Y-82273575D01*
X141436545Y-82520963D01*
X141757874Y-82748242D01*
X142212512Y-83100114D01*
X142616523Y-83448511D01*
X142944383Y-83771000D01*
X143004174Y-83843468D01*
X143170571Y-84045149D01*
X143256412Y-84172909D01*
G37*
X143256412Y-84172909D02*
X143353820Y-84328271D01*
X143391734Y-84404573D01*
X143362208Y-84440472D01*
X143241184Y-84539873D01*
X143058539Y-84671793D01*
X142983716Y-84721388D01*
X142517465Y-84973798D01*
X141949869Y-85204986D01*
X141318001Y-85399452D01*
X141261287Y-85413884D01*
X140522480Y-85527071D01*
X139774184Y-85511344D01*
X139055992Y-85367267D01*
X138975463Y-85342853D01*
X138493653Y-85188594D01*
X138120035Y-85049561D01*
X137824851Y-84912152D01*
X137578343Y-84762762D01*
X137350750Y-84587790D01*
X137303170Y-84547531D01*
X137123428Y-84386216D01*
X137031534Y-84269250D01*
X137005536Y-84158186D01*
X137023482Y-84014576D01*
X137063510Y-83750922D01*
X137100189Y-83330765D01*
X137112801Y-82900033D01*
X137100265Y-82509909D01*
X137061504Y-82211576D01*
X137039294Y-82120220D01*
X136971316Y-81923820D01*
X136907477Y-81836457D01*
X136860107Y-81868327D01*
X136841533Y-82029627D01*
X136832097Y-82106885D01*
X136779558Y-82293791D01*
X136694831Y-82520155D01*
X136593880Y-82750578D01*
X136492670Y-82949658D01*
X136407166Y-83081995D01*
X136353331Y-83112189D01*
X136345904Y-83096807D01*
X136328321Y-82967007D01*
X136319783Y-82741361D01*
X136322071Y-82457198D01*
X136326744Y-82175025D01*
X136313596Y-81955142D01*
X136268995Y-81767434D01*
X136179948Y-81558716D01*
X136033460Y-81275800D01*
X135728120Y-80701404D01*
X135727866Y-80382242D01*
X138106761Y-80382242D01*
X138163835Y-80886909D01*
X138322208Y-81473083D01*
X138579574Y-82130062D01*
X138719062Y-82430233D01*
X138951886Y-82857719D01*
X139209517Y-83227917D01*
X139526590Y-83594384D01*
X139685377Y-83752547D01*
X139814292Y-83848868D01*
X139868725Y-83843468D01*
X139851327Y-83747657D01*
X139764746Y-83572747D01*
X139611630Y-83330047D01*
X139394629Y-83030870D01*
X139304157Y-82910914D01*
X138831232Y-82197805D01*
X138494358Y-81514457D01*
X138290055Y-80852524D01*
X138214837Y-80203659D01*
X138205276Y-79682493D01*
X138133076Y-80057052D01*
X138106761Y-80382242D01*
X135727866Y-80382242D01*
X135727366Y-79755272D01*
X135758139Y-79019949D01*
X135873876Y-78274825D01*
X136080049Y-77623526D01*
X136381345Y-77051792D01*
X136440316Y-76977337D01*
X141585167Y-76977337D01*
X141651669Y-77038779D01*
X141847264Y-77140675D01*
X142010956Y-77223696D01*
X142187938Y-77337388D01*
X142273532Y-77425830D01*
X142279305Y-77440046D01*
X142354268Y-77532010D01*
X142411658Y-77502886D01*
X142405076Y-77371748D01*
X142371124Y-77266620D01*
X142345587Y-77201635D01*
X142327954Y-77193918D01*
X142212041Y-77147393D01*
X142025648Y-77074271D01*
X141791665Y-76993601D01*
X141635813Y-76960796D01*
X141585167Y-76977337D01*
X136440316Y-76977337D01*
X136782453Y-76545362D01*
X136814132Y-76512107D01*
X137123462Y-76219198D01*
X137438786Y-75991687D01*
X137806136Y-75800912D01*
X138271547Y-75618211D01*
X138791761Y-75433394D01*
X138925747Y-75581446D01*
X139118939Y-75745646D01*
X139407919Y-75894305D01*
X139729380Y-75987720D01*
X140051338Y-76022877D01*
X140341805Y-75996762D01*
X140568794Y-75906361D01*
X140700321Y-75748661D01*
X140733417Y-75610956D01*
X140725459Y-75461921D01*
X140721588Y-75451455D01*
X140712920Y-75385793D01*
X140760743Y-75361911D01*
X140884746Y-75382817D01*
X141104619Y-75451517D01*
X141440051Y-75571015D01*
X141476007Y-75584193D01*
X141930458Y-75766192D01*
X142283801Y-75951490D01*
X142555078Y-76163697D01*
X142763329Y-76426424D01*
X142927594Y-76763283D01*
X143066915Y-77197884D01*
X143140109Y-77502886D01*
X143200331Y-77753839D01*
X143202100Y-77761249D01*
X143282056Y-77896836D01*
X143466451Y-78058003D01*
X143770833Y-78258503D01*
X143964652Y-78378084D01*
X144361849Y-78639521D01*
X144636458Y-78849952D01*
X144795831Y-79015409D01*
X144847321Y-79141928D01*
X144801923Y-79243366D01*
X144645018Y-79411560D01*
X144392450Y-79616852D01*
X144117274Y-79810378D01*
X143699239Y-80055956D01*
X143357846Y-80187196D01*
X143097293Y-80202200D01*
X142974634Y-80166000D01*
X142723328Y-80070749D01*
X142391133Y-79932128D01*
X142005491Y-79762697D01*
X141593844Y-79575012D01*
X141183634Y-79381630D01*
X140802305Y-79195111D01*
X140477299Y-79028012D01*
X140236057Y-78892890D01*
X140200848Y-78871614D01*
X139882497Y-78680063D01*
X139661012Y-78550655D01*
X139511147Y-78471165D01*
X139407654Y-78429364D01*
X139325288Y-78413027D01*
X139238802Y-78409926D01*
X139083153Y-78367879D01*
X138891809Y-78191717D01*
X138766654Y-78046504D01*
X138543460Y-77886161D01*
X138247080Y-77781513D01*
X137842307Y-77716623D01*
X137556976Y-77695558D01*
X137395500Y-77715981D01*
X137362340Y-77791218D01*
X137452404Y-77933566D01*
X137660599Y-78155324D01*
X137756634Y-78244610D01*
X138084959Y-78466705D01*
X138420331Y-78582400D01*
X138729420Y-78578497D01*
X138843137Y-78565021D01*
X138856753Y-78597159D01*
X138809660Y-78622659D01*
X138645815Y-78665602D01*
X138420076Y-78698872D01*
X138042450Y-78737361D01*
X138257697Y-78882420D01*
X138330772Y-78926437D01*
X138463800Y-78977989D01*
X138643925Y-79009569D01*
X138903933Y-79025992D01*
X139276608Y-79032072D01*
X139615088Y-79038278D01*
X139930012Y-79059254D01*
X140152611Y-79098271D01*
X140312190Y-79158919D01*
X140383035Y-79197695D01*
X140554474Y-79321481D01*
X140600461Y-79434975D01*
X140532855Y-79559715D01*
X140389249Y-79757307D01*
X140238170Y-80139836D01*
X140189442Y-80610185D01*
X140191955Y-80780193D01*
X140212257Y-80972444D01*
X140267011Y-81144695D01*
X140372654Y-81343295D01*
X140545621Y-81614591D01*
X140609429Y-81710009D01*
X140847454Y-82022787D01*
X141103961Y-82273575D01*
X141436545Y-82520963D01*
X141757874Y-82748242D01*
X142212512Y-83100114D01*
X142616523Y-83448511D01*
X142944383Y-83771000D01*
X143004174Y-83843468D01*
X143170571Y-84045149D01*
X143256412Y-84172909D01*
X136520842Y-73695981D02*
X136273304Y-73853756D01*
X136273304Y-73853756D02*
X135981555Y-74074445D01*
X135981555Y-74074445D02*
X135663485Y-74343107D01*
X135663485Y-74343107D02*
X135336984Y-74644803D01*
X135336984Y-74644803D02*
X135019943Y-74964592D01*
X135019943Y-74964592D02*
X134730250Y-75287534D01*
X134730250Y-75287534D02*
X134537991Y-75527738D01*
X134537991Y-75527738D02*
X134078488Y-76241465D01*
X134078488Y-76241465D02*
X133691336Y-77054297D01*
X133691336Y-77054297D02*
X133391679Y-77931492D01*
X133391679Y-77931492D02*
X133266191Y-78445243D01*
X133266191Y-78445243D02*
X133208870Y-78851429D01*
X133208870Y-78851429D02*
X133179894Y-79351536D01*
X133179894Y-79351536D02*
X133178550Y-79896860D01*
X133178550Y-79896860D02*
X133204126Y-80438694D01*
X133204126Y-80438694D02*
X133255908Y-80928331D01*
X133255908Y-80928331D02*
X133306673Y-81210859D01*
X133306673Y-81210859D02*
X133390684Y-81564728D01*
X133390684Y-81564728D02*
X133464965Y-81807339D01*
X133464965Y-81807339D02*
X133545758Y-81970655D01*
X133545758Y-81970655D02*
X133649301Y-82086641D01*
X133649301Y-82086641D02*
X133791835Y-82187263D01*
X133791835Y-82187263D02*
X133807697Y-82197003D01*
X133807697Y-82197003D02*
X134003603Y-82305536D01*
X134003603Y-82305536D02*
X134114402Y-82330547D01*
X134114402Y-82330547D02*
X134171119Y-82276266D01*
X134171119Y-82276266D02*
X134181370Y-82247965D01*
X134181370Y-82247965D02*
X134200447Y-82133214D01*
X134200447Y-82133214D02*
X134223664Y-81919176D01*
X134223664Y-81919176D02*
X134246044Y-81651838D01*
X134246044Y-81651838D02*
X134246357Y-81647536D01*
X134246357Y-81647536D02*
X134289273Y-81322915D01*
X134289273Y-81322915D02*
X134363197Y-80997250D01*
X134363197Y-80997250D02*
X134435254Y-80784265D01*
X134435254Y-80784265D02*
X134515549Y-80552137D01*
X134515549Y-80552137D02*
X134568198Y-80277180D01*
X134568198Y-80277180D02*
X134599328Y-79919860D01*
X134599328Y-79919860D02*
X134610028Y-79656185D01*
X134610028Y-79656185D02*
X134701578Y-78726717D01*
X134701578Y-78726717D02*
X134918529Y-77864202D01*
X134918529Y-77864202D02*
X135259311Y-77073788D01*
X135259311Y-77073788D02*
X135538955Y-76612117D01*
X135538955Y-76612117D02*
X135831368Y-76230985D01*
X135831368Y-76230985D02*
X136193995Y-75828873D01*
X136193995Y-75828873D02*
X136583838Y-75449426D01*
X136583838Y-75449426D02*
X136957898Y-75136292D01*
X136957898Y-75136292D02*
X137078124Y-75049763D01*
X137078124Y-75049763D02*
X137285750Y-74903509D01*
X137285750Y-74903509D02*
X137435497Y-74789054D01*
X137435497Y-74789054D02*
X137496443Y-74730099D01*
X137496443Y-74730099D02*
X137496605Y-74729000D01*
X137496605Y-74729000D02*
X137460305Y-74651422D01*
X137460305Y-74651422D02*
X137366138Y-74487722D01*
X137366138Y-74487722D02*
X137236208Y-74273398D01*
X137236208Y-74273398D02*
X137092616Y-74043953D01*
X137092616Y-74043953D02*
X136957465Y-73834888D01*
X136957465Y-73834888D02*
X136852856Y-73681702D01*
X136852856Y-73681702D02*
X136811725Y-73628932D01*
X136811725Y-73628932D02*
X136706279Y-73616059D01*
X136706279Y-73616059D02*
X136520842Y-73695981D01*
X136520842Y-73695981D02*
X136520842Y-73695981D01*
G36*
X136811725Y-73628932D02*
G01*
X136852856Y-73681702D01*
X136957465Y-73834888D01*
X137092616Y-74043953D01*
X137236208Y-74273398D01*
X137366138Y-74487722D01*
X137460305Y-74651422D01*
X137496605Y-74729000D01*
X137496443Y-74730099D01*
X137435497Y-74789054D01*
X137285750Y-74903509D01*
X137078124Y-75049763D01*
X136957898Y-75136292D01*
X136583838Y-75449426D01*
X136193995Y-75828873D01*
X135831368Y-76230985D01*
X135538955Y-76612117D01*
X135259311Y-77073788D01*
X134918529Y-77864202D01*
X134701578Y-78726717D01*
X134610028Y-79656185D01*
X134599328Y-79919860D01*
X134568198Y-80277180D01*
X134515549Y-80552137D01*
X134435254Y-80784265D01*
X134363197Y-80997250D01*
X134289273Y-81322915D01*
X134246357Y-81647536D01*
X134246044Y-81651838D01*
X134223664Y-81919176D01*
X134200447Y-82133214D01*
X134181370Y-82247965D01*
X134171119Y-82276266D01*
X134114402Y-82330547D01*
X134003603Y-82305536D01*
X133807697Y-82197003D01*
X133791835Y-82187263D01*
X133649301Y-82086641D01*
X133545758Y-81970655D01*
X133464965Y-81807339D01*
X133390684Y-81564728D01*
X133306673Y-81210859D01*
X133255908Y-80928331D01*
X133204126Y-80438694D01*
X133178550Y-79896860D01*
X133179894Y-79351536D01*
X133208870Y-78851429D01*
X133266191Y-78445243D01*
X133391679Y-77931492D01*
X133691336Y-77054297D01*
X134078488Y-76241465D01*
X134537991Y-75527738D01*
X134730250Y-75287534D01*
X135019943Y-74964592D01*
X135336984Y-74644803D01*
X135663485Y-74343107D01*
X135981555Y-74074445D01*
X136273304Y-73853756D01*
X136520842Y-73695981D01*
X136706279Y-73616059D01*
X136811725Y-73628932D01*
G37*
X136811725Y-73628932D02*
X136852856Y-73681702D01*
X136957465Y-73834888D01*
X137092616Y-74043953D01*
X137236208Y-74273398D01*
X137366138Y-74487722D01*
X137460305Y-74651422D01*
X137496605Y-74729000D01*
X137496443Y-74730099D01*
X137435497Y-74789054D01*
X137285750Y-74903509D01*
X137078124Y-75049763D01*
X136957898Y-75136292D01*
X136583838Y-75449426D01*
X136193995Y-75828873D01*
X135831368Y-76230985D01*
X135538955Y-76612117D01*
X135259311Y-77073788D01*
X134918529Y-77864202D01*
X134701578Y-78726717D01*
X134610028Y-79656185D01*
X134599328Y-79919860D01*
X134568198Y-80277180D01*
X134515549Y-80552137D01*
X134435254Y-80784265D01*
X134363197Y-80997250D01*
X134289273Y-81322915D01*
X134246357Y-81647536D01*
X134246044Y-81651838D01*
X134223664Y-81919176D01*
X134200447Y-82133214D01*
X134181370Y-82247965D01*
X134171119Y-82276266D01*
X134114402Y-82330547D01*
X134003603Y-82305536D01*
X133807697Y-82197003D01*
X133791835Y-82187263D01*
X133649301Y-82086641D01*
X133545758Y-81970655D01*
X133464965Y-81807339D01*
X133390684Y-81564728D01*
X133306673Y-81210859D01*
X133255908Y-80928331D01*
X133204126Y-80438694D01*
X133178550Y-79896860D01*
X133179894Y-79351536D01*
X133208870Y-78851429D01*
X133266191Y-78445243D01*
X133391679Y-77931492D01*
X133691336Y-77054297D01*
X134078488Y-76241465D01*
X134537991Y-75527738D01*
X134730250Y-75287534D01*
X135019943Y-74964592D01*
X135336984Y-74644803D01*
X135663485Y-74343107D01*
X135981555Y-74074445D01*
X136273304Y-73853756D01*
X136520842Y-73695981D01*
X136706279Y-73616059D01*
X136811725Y-73628932D01*
X135724382Y-81024166D02*
X135714021Y-81205348D01*
X135714021Y-81205348D02*
X135705278Y-81468081D01*
X135705278Y-81468081D02*
X135701777Y-81632707D01*
X135701777Y-81632707D02*
X135681299Y-82012365D01*
X135681299Y-82012365D02*
X135637652Y-82386077D01*
X135637652Y-82386077D02*
X135578705Y-82689315D01*
X135578705Y-82689315D02*
X135568276Y-82727338D01*
X135568276Y-82727338D02*
X135502959Y-82983633D01*
X135502959Y-82983633D02*
X135489951Y-83142763D01*
X135489951Y-83142763D02*
X135526813Y-83242432D01*
X135526813Y-83242432D02*
X135534337Y-83252025D01*
X135534337Y-83252025D02*
X135686992Y-83345974D01*
X135686992Y-83345974D02*
X135857710Y-83334950D01*
X135857710Y-83334950D02*
X135948767Y-83266876D01*
X135948767Y-83266876D02*
X136103768Y-82962968D01*
X136103768Y-82962968D02*
X136178266Y-82575899D01*
X136178266Y-82575899D02*
X136171797Y-82144088D01*
X136171797Y-82144088D02*
X136083894Y-81705953D01*
X136083894Y-81705953D02*
X135971271Y-81411003D01*
X135971271Y-81411003D02*
X135861602Y-81185215D01*
X135861602Y-81185215D02*
X135777153Y-81022555D01*
X135777153Y-81022555D02*
X135735438Y-80956685D01*
X135735438Y-80956685D02*
X135734796Y-80956535D01*
X135734796Y-80956535D02*
X135724382Y-81024166D01*
X135724382Y-81024166D02*
X135724382Y-81024166D01*
G36*
X135735438Y-80956685D02*
G01*
X135777153Y-81022555D01*
X135861602Y-81185215D01*
X135971271Y-81411003D01*
X136083894Y-81705953D01*
X136171797Y-82144088D01*
X136178266Y-82575899D01*
X136103768Y-82962968D01*
X135948767Y-83266876D01*
X135857710Y-83334950D01*
X135686992Y-83345974D01*
X135534337Y-83252025D01*
X135526813Y-83242432D01*
X135489951Y-83142763D01*
X135502959Y-82983633D01*
X135568276Y-82727338D01*
X135578705Y-82689315D01*
X135637652Y-82386077D01*
X135681299Y-82012365D01*
X135701777Y-81632707D01*
X135705278Y-81468081D01*
X135714021Y-81205348D01*
X135724382Y-81024166D01*
X135734796Y-80956535D01*
X135735438Y-80956685D01*
G37*
X135735438Y-80956685D02*
X135777153Y-81022555D01*
X135861602Y-81185215D01*
X135971271Y-81411003D01*
X136083894Y-81705953D01*
X136171797Y-82144088D01*
X136178266Y-82575899D01*
X136103768Y-82962968D01*
X135948767Y-83266876D01*
X135857710Y-83334950D01*
X135686992Y-83345974D01*
X135534337Y-83252025D01*
X135526813Y-83242432D01*
X135489951Y-83142763D01*
X135502959Y-82983633D01*
X135568276Y-82727338D01*
X135578705Y-82689315D01*
X135637652Y-82386077D01*
X135681299Y-82012365D01*
X135701777Y-81632707D01*
X135705278Y-81468081D01*
X135714021Y-81205348D01*
X135724382Y-81024166D01*
X135734796Y-80956535D01*
X135735438Y-80956685D01*
X133889726Y-84194669D02*
X133966608Y-84359069D01*
X133966608Y-84359069D02*
X134089202Y-84571686D01*
X134089202Y-84571686D02*
X134237354Y-84797920D01*
X134237354Y-84797920D02*
X134390909Y-85003168D01*
X134390909Y-85003168D02*
X134411963Y-85028583D01*
X134411963Y-85028583D02*
X134691807Y-85276425D01*
X134691807Y-85276425D02*
X135056648Y-85481381D01*
X135056648Y-85481381D02*
X135446245Y-85610207D01*
X135446245Y-85610207D02*
X135476977Y-85616285D01*
X135476977Y-85616285D02*
X135650999Y-85641640D01*
X135650999Y-85641640D02*
X135744690Y-85641391D01*
X135744690Y-85641391D02*
X135749900Y-85636361D01*
X135749900Y-85636361D02*
X135695915Y-85523244D01*
X135695915Y-85523244D02*
X135554919Y-85355702D01*
X135554919Y-85355702D02*
X135358348Y-85163912D01*
X135358348Y-85163912D02*
X135137641Y-84978051D01*
X135137641Y-84978051D02*
X134924233Y-84828294D01*
X134924233Y-84828294D02*
X134882669Y-84803910D01*
X134882669Y-84803910D02*
X134608601Y-84634041D01*
X134608601Y-84634041D02*
X134338501Y-84441238D01*
X134338501Y-84441238D02*
X134196866Y-84325053D01*
X134196866Y-84325053D02*
X134032658Y-84190567D01*
X134032658Y-84190567D02*
X133913934Y-84117029D01*
X133913934Y-84117029D02*
X133878712Y-84113089D01*
X133878712Y-84113089D02*
X133889726Y-84194669D01*
X133889726Y-84194669D02*
X133889726Y-84194669D01*
G36*
X133913934Y-84117029D02*
G01*
X134032658Y-84190567D01*
X134196866Y-84325053D01*
X134338501Y-84441238D01*
X134608601Y-84634041D01*
X134882669Y-84803910D01*
X134924233Y-84828294D01*
X135137641Y-84978051D01*
X135358348Y-85163912D01*
X135554919Y-85355702D01*
X135695915Y-85523244D01*
X135749900Y-85636361D01*
X135744690Y-85641391D01*
X135650999Y-85641640D01*
X135476977Y-85616285D01*
X135446245Y-85610207D01*
X135056648Y-85481381D01*
X134691807Y-85276425D01*
X134411963Y-85028583D01*
X134390909Y-85003168D01*
X134237354Y-84797920D01*
X134089202Y-84571686D01*
X133966608Y-84359069D01*
X133889726Y-84194669D01*
X133878712Y-84113089D01*
X133913934Y-84117029D01*
G37*
X133913934Y-84117029D02*
X134032658Y-84190567D01*
X134196866Y-84325053D01*
X134338501Y-84441238D01*
X134608601Y-84634041D01*
X134882669Y-84803910D01*
X134924233Y-84828294D01*
X135137641Y-84978051D01*
X135358348Y-85163912D01*
X135554919Y-85355702D01*
X135695915Y-85523244D01*
X135749900Y-85636361D01*
X135744690Y-85641391D01*
X135650999Y-85641640D01*
X135476977Y-85616285D01*
X135446245Y-85610207D01*
X135056648Y-85481381D01*
X134691807Y-85276425D01*
X134411963Y-85028583D01*
X134390909Y-85003168D01*
X134237354Y-84797920D01*
X134089202Y-84571686D01*
X133966608Y-84359069D01*
X133889726Y-84194669D01*
X133878712Y-84113089D01*
X133913934Y-84117029D01*
X136550473Y-72912580D02*
X136588479Y-73004230D01*
X136588479Y-73004230D02*
X136689586Y-73181234D01*
X136689586Y-73181234D02*
X136834428Y-73414452D01*
X136834428Y-73414452D02*
X137003636Y-73674743D01*
X137003636Y-73674743D02*
X137177845Y-73932969D01*
X137177845Y-73932969D02*
X137337687Y-74159988D01*
X137337687Y-74159988D02*
X137463797Y-74326659D01*
X137463797Y-74326659D02*
X137536806Y-74403844D01*
X137536806Y-74403844D02*
X137543005Y-74405988D01*
X137543005Y-74405988D02*
X137655200Y-74363563D01*
X137655200Y-74363563D02*
X137796142Y-74268247D01*
X137796142Y-74268247D02*
X137908984Y-74159454D01*
X137908984Y-74159454D02*
X137918858Y-74058613D01*
X137918858Y-74058613D02*
X137859945Y-73931883D01*
X137859945Y-73931883D02*
X137769100Y-73816667D01*
X137769100Y-73816667D02*
X137606659Y-73658273D01*
X137606659Y-73658273D02*
X137398021Y-73476470D01*
X137398021Y-73476470D02*
X137168588Y-73291033D01*
X137168588Y-73291033D02*
X136943761Y-73121732D01*
X136943761Y-73121732D02*
X136748939Y-72988340D01*
X136748939Y-72988340D02*
X136609524Y-72910629D01*
X136609524Y-72910629D02*
X136550916Y-72908371D01*
X136550916Y-72908371D02*
X136550473Y-72912580D01*
X136550473Y-72912580D02*
X136550473Y-72912580D01*
G36*
X136609524Y-72910629D02*
G01*
X136748939Y-72988340D01*
X136943761Y-73121732D01*
X137168588Y-73291033D01*
X137398021Y-73476470D01*
X137606659Y-73658273D01*
X137769100Y-73816667D01*
X137859945Y-73931883D01*
X137918858Y-74058613D01*
X137908984Y-74159454D01*
X137796142Y-74268247D01*
X137655200Y-74363563D01*
X137543005Y-74405988D01*
X137536806Y-74403844D01*
X137463797Y-74326659D01*
X137337687Y-74159988D01*
X137177845Y-73932969D01*
X137003636Y-73674743D01*
X136834428Y-73414452D01*
X136689586Y-73181234D01*
X136588479Y-73004230D01*
X136550473Y-72912580D01*
X136550916Y-72908371D01*
X136609524Y-72910629D01*
G37*
X136609524Y-72910629D02*
X136748939Y-72988340D01*
X136943761Y-73121732D01*
X137168588Y-73291033D01*
X137398021Y-73476470D01*
X137606659Y-73658273D01*
X137769100Y-73816667D01*
X137859945Y-73931883D01*
X137918858Y-74058613D01*
X137908984Y-74159454D01*
X137796142Y-74268247D01*
X137655200Y-74363563D01*
X137543005Y-74405988D01*
X137536806Y-74403844D01*
X137463797Y-74326659D01*
X137337687Y-74159988D01*
X137177845Y-73932969D01*
X137003636Y-73674743D01*
X136834428Y-73414452D01*
X136689586Y-73181234D01*
X136588479Y-73004230D01*
X136550473Y-72912580D01*
X136550916Y-72908371D01*
X136609524Y-72910629D01*
X138184241Y-74578498D02*
X138064130Y-74672007D01*
X138064130Y-74672007D02*
X138060358Y-74675425D01*
X138060358Y-74675425D02*
X137914855Y-74791517D01*
X137914855Y-74791517D02*
X137809195Y-74851596D01*
X137809195Y-74851596D02*
X137808347Y-74912889D01*
X137808347Y-74912889D02*
X137878035Y-75042798D01*
X137878035Y-75042798D02*
X137989835Y-75203196D01*
X137989835Y-75203196D02*
X138115325Y-75355951D01*
X138115325Y-75355951D02*
X138226084Y-75462934D01*
X138226084Y-75462934D02*
X138285019Y-75489936D01*
X138285019Y-75489936D02*
X138382171Y-75459812D01*
X138382171Y-75459812D02*
X138526051Y-75405801D01*
X138526051Y-75405801D02*
X138718534Y-75329409D01*
X138718534Y-75329409D02*
X138495059Y-74958673D01*
X138495059Y-74958673D02*
X138371968Y-74755872D01*
X138371968Y-74755872D02*
X138281246Y-74609002D01*
X138281246Y-74609002D02*
X138247704Y-74557325D01*
X138247704Y-74557325D02*
X138184241Y-74578498D01*
X138184241Y-74578498D02*
X138184241Y-74578498D01*
G36*
X138281246Y-74609002D02*
G01*
X138371968Y-74755872D01*
X138495059Y-74958673D01*
X138718534Y-75329409D01*
X138526051Y-75405801D01*
X138382171Y-75459812D01*
X138285019Y-75489936D01*
X138226084Y-75462934D01*
X138115325Y-75355951D01*
X137989835Y-75203196D01*
X137878035Y-75042798D01*
X137808347Y-74912889D01*
X137809195Y-74851596D01*
X137914855Y-74791517D01*
X138060358Y-74675425D01*
X138064130Y-74672007D01*
X138184241Y-74578498D01*
X138247704Y-74557325D01*
X138281246Y-74609002D01*
G37*
X138281246Y-74609002D02*
X138371968Y-74755872D01*
X138495059Y-74958673D01*
X138718534Y-75329409D01*
X138526051Y-75405801D01*
X138382171Y-75459812D01*
X138285019Y-75489936D01*
X138226084Y-75462934D01*
X138115325Y-75355951D01*
X137989835Y-75203196D01*
X137878035Y-75042798D01*
X137808347Y-74912889D01*
X137809195Y-74851596D01*
X137914855Y-74791517D01*
X138060358Y-74675425D01*
X138064130Y-74672007D01*
X138184241Y-74578498D01*
X138247704Y-74557325D01*
X138281246Y-74609002D01*
X144930575Y-78176140D02*
X144813961Y-78305754D01*
X144813961Y-78305754D02*
X144671882Y-78472893D01*
X144671882Y-78472893D02*
X144580272Y-78592623D01*
X144580272Y-78592623D02*
X144561520Y-78627192D01*
X144561520Y-78627192D02*
X144613264Y-78691021D01*
X144613264Y-78691021D02*
X144736832Y-78791622D01*
X144736832Y-78791622D02*
X144912885Y-78919662D01*
X144912885Y-78919662D02*
X144988866Y-78646063D01*
X144988866Y-78646063D02*
X145039897Y-78417051D01*
X145039897Y-78417051D02*
X145064789Y-78216631D01*
X145064789Y-78216631D02*
X145065253Y-78196585D01*
X145065253Y-78196585D02*
X145058236Y-78103002D01*
X145058236Y-78103002D02*
X145021088Y-78092822D01*
X145021088Y-78092822D02*
X144930575Y-78176140D01*
X144930575Y-78176140D02*
X144930575Y-78176140D01*
G36*
X145058236Y-78103002D02*
G01*
X145065253Y-78196585D01*
X145064789Y-78216631D01*
X145039897Y-78417051D01*
X144988866Y-78646063D01*
X144912885Y-78919662D01*
X144736832Y-78791622D01*
X144613264Y-78691021D01*
X144561520Y-78627192D01*
X144580272Y-78592623D01*
X144671882Y-78472893D01*
X144813961Y-78305754D01*
X144930575Y-78176140D01*
X145021088Y-78092822D01*
X145058236Y-78103002D01*
G37*
X145058236Y-78103002D02*
X145065253Y-78196585D01*
X145064789Y-78216631D01*
X145039897Y-78417051D01*
X144988866Y-78646063D01*
X144912885Y-78919662D01*
X144736832Y-78791622D01*
X144613264Y-78691021D01*
X144561520Y-78627192D01*
X144580272Y-78592623D01*
X144671882Y-78472893D01*
X144813961Y-78305754D01*
X144930575Y-78176140D01*
X145021088Y-78092822D01*
X145058236Y-78103002D01*
X136661644Y-82904278D02*
X136506011Y-83189005D01*
X136506011Y-83189005D02*
X136363511Y-83440663D01*
X136363511Y-83440663D02*
X136256514Y-83620100D01*
X136256514Y-83620100D02*
X136226184Y-83666460D01*
X136226184Y-83666460D02*
X136123094Y-83910893D01*
X136123094Y-83910893D02*
X136164268Y-84139804D01*
X136164268Y-84139804D02*
X136282241Y-84291296D01*
X136282241Y-84291296D02*
X136424917Y-84413616D01*
X136424917Y-84413616D02*
X136513442Y-84438822D01*
X136513442Y-84438822D02*
X136593557Y-84375673D01*
X136593557Y-84375673D02*
X136611629Y-84354378D01*
X136611629Y-84354378D02*
X136819317Y-84000491D01*
X136819317Y-84000491D02*
X136943006Y-83537769D01*
X136943006Y-83537769D02*
X136984333Y-82960077D01*
X136984333Y-82960077D02*
X136984335Y-82957564D01*
X136984335Y-82957564D02*
X136984717Y-82302550D01*
X136984717Y-82302550D02*
X136661644Y-82904278D01*
X136661644Y-82904278D02*
X136661644Y-82904278D01*
G36*
X136984335Y-82957564D02*
G01*
X136984333Y-82960077D01*
X136943006Y-83537769D01*
X136819317Y-84000491D01*
X136611629Y-84354378D01*
X136593557Y-84375673D01*
X136513442Y-84438822D01*
X136424917Y-84413616D01*
X136282241Y-84291296D01*
X136164268Y-84139804D01*
X136123094Y-83910893D01*
X136226184Y-83666460D01*
X136256514Y-83620100D01*
X136363511Y-83440663D01*
X136506011Y-83189005D01*
X136661644Y-82904278D01*
X136984717Y-82302550D01*
X136984335Y-82957564D01*
G37*
X136984335Y-82957564D02*
X136984333Y-82960077D01*
X136943006Y-83537769D01*
X136819317Y-84000491D01*
X136611629Y-84354378D01*
X136593557Y-84375673D01*
X136513442Y-84438822D01*
X136424917Y-84413616D01*
X136282241Y-84291296D01*
X136164268Y-84139804D01*
X136123094Y-83910893D01*
X136226184Y-83666460D01*
X136256514Y-83620100D01*
X136363511Y-83440663D01*
X136506011Y-83189005D01*
X136661644Y-82904278D01*
X136984717Y-82302550D01*
X136984335Y-82957564D01*
X139242399Y-72675758D02*
X138421919Y-72853997D01*
X138421919Y-72853997D02*
X138203356Y-72923270D01*
X138203356Y-72923270D02*
X138058966Y-72985553D01*
X138058966Y-72985553D02*
X138021633Y-73021738D01*
X138021633Y-73021738D02*
X138082176Y-73087938D01*
X138082176Y-73087938D02*
X138228977Y-73226259D01*
X138228977Y-73226259D02*
X138437690Y-73414198D01*
X138437690Y-73414198D02*
X138606106Y-73561941D01*
X138606106Y-73561941D02*
X139169762Y-74051460D01*
X139169762Y-74051460D02*
X140389200Y-74072340D01*
X140389200Y-74072340D02*
X140910177Y-74085494D01*
X140910177Y-74085494D02*
X141322335Y-74109364D01*
X141322335Y-74109364D02*
X141662363Y-74150751D01*
X141662363Y-74150751D02*
X141966949Y-74216453D01*
X141966949Y-74216453D02*
X142272781Y-74313269D01*
X142272781Y-74313269D02*
X142616545Y-74447998D01*
X142616545Y-74447998D02*
X142773109Y-74514121D01*
X142773109Y-74514121D02*
X143112388Y-74687636D01*
X143112388Y-74687636D02*
X143507701Y-74933409D01*
X143507701Y-74933409D02*
X143913705Y-75219250D01*
X143913705Y-75219250D02*
X144285051Y-75512970D01*
X144285051Y-75512970D02*
X144576396Y-75782379D01*
X144576396Y-75782379D02*
X144609494Y-75817718D01*
X144609494Y-75817718D02*
X145191126Y-76547169D01*
X145191126Y-76547169D02*
X145633205Y-77313131D01*
X145633205Y-77313131D02*
X145938953Y-78123775D01*
X145938953Y-78123775D02*
X146111591Y-78987270D01*
X146111591Y-78987270D02*
X146156086Y-79740905D01*
X146156086Y-79740905D02*
X146088523Y-80651510D01*
X146088523Y-80651510D02*
X145884585Y-81514891D01*
X145884585Y-81514891D02*
X145547353Y-82325533D01*
X145547353Y-82325533D02*
X145079908Y-83077918D01*
X145079908Y-83077918D02*
X144485330Y-83766529D01*
X144485330Y-83766529D02*
X143766701Y-84385848D01*
X143766701Y-84385848D02*
X143429560Y-84623352D01*
X143429560Y-84623352D02*
X143070446Y-84857952D01*
X143070446Y-84857952D02*
X142790299Y-85028305D01*
X142790299Y-85028305D02*
X142549403Y-85154436D01*
X142549403Y-85154436D02*
X142308043Y-85256367D01*
X142308043Y-85256367D02*
X142026501Y-85354123D01*
X142026501Y-85354123D02*
X141899757Y-85394645D01*
X141899757Y-85394645D02*
X140983977Y-85616386D01*
X140983977Y-85616386D02*
X140094486Y-85695109D01*
X140094486Y-85695109D02*
X139229458Y-85630613D01*
X139229458Y-85630613D02*
X138387069Y-85422699D01*
X138387069Y-85422699D02*
X137565494Y-85071165D01*
X137565494Y-85071165D02*
X137228160Y-84881823D01*
X137228160Y-84881823D02*
X136959539Y-84730723D01*
X136959539Y-84730723D02*
X136729353Y-84620313D01*
X136729353Y-84620313D02*
X136570539Y-84565470D01*
X136570539Y-84565470D02*
X136525461Y-84564415D01*
X136525461Y-84564415D02*
X136408019Y-84544417D01*
X136408019Y-84544417D02*
X136240975Y-84442473D01*
X136240975Y-84442473D02*
X136177443Y-84389803D01*
X136177443Y-84389803D02*
X136020699Y-84225354D01*
X136020699Y-84225354D02*
X135950385Y-84059619D01*
X135950385Y-84059619D02*
X135934010Y-83839076D01*
X135934010Y-83839076D02*
X135918714Y-83641220D01*
X135918714Y-83641220D02*
X135881535Y-83536846D01*
X135881535Y-83536846D02*
X135859069Y-83530071D01*
X135859069Y-83530071D02*
X135692473Y-83520056D01*
X135692473Y-83520056D02*
X135518319Y-83402638D01*
X135518319Y-83402638D02*
X135372628Y-83209298D01*
X135372628Y-83209298D02*
X135307539Y-83048114D01*
X135307539Y-83048114D02*
X135252382Y-82854943D01*
X135252382Y-82854943D02*
X135166121Y-82563819D01*
X135166121Y-82563819D02*
X135061020Y-82215738D01*
X135061020Y-82215738D02*
X134959940Y-81885985D01*
X134959940Y-81885985D02*
X134847159Y-81530238D01*
X134847159Y-81530238D02*
X134765403Y-81299219D01*
X134765403Y-81299219D02*
X134707276Y-81177261D01*
X134707276Y-81177261D02*
X134665383Y-81148697D01*
X134665383Y-81148697D02*
X134633578Y-81194581D01*
X134633578Y-81194581D02*
X134603669Y-81370216D01*
X134603669Y-81370216D02*
X134597254Y-81657083D01*
X134597254Y-81657083D02*
X134611976Y-82023171D01*
X134611976Y-82023171D02*
X134645478Y-82436467D01*
X134645478Y-82436467D02*
X134695404Y-82864959D01*
X134695404Y-82864959D02*
X134759395Y-83276636D01*
X134759395Y-83276636D02*
X134803459Y-83501777D01*
X134803459Y-83501777D02*
X134952479Y-84048652D01*
X134952479Y-84048652D02*
X135158851Y-84521794D01*
X135158851Y-84521794D02*
X135448703Y-84972241D01*
X135448703Y-84972241D02*
X135738349Y-85327892D01*
X135738349Y-85327892D02*
X135929931Y-85527109D01*
X135929931Y-85527109D02*
X136139931Y-85697632D01*
X136139931Y-85697632D02*
X136395519Y-85855265D01*
X136395519Y-85855265D02*
X136723863Y-86015811D01*
X136723863Y-86015811D02*
X137152132Y-86195073D01*
X137152132Y-86195073D02*
X137387436Y-86287115D01*
X137387436Y-86287115D02*
X138328663Y-86604844D01*
X138328663Y-86604844D02*
X139215874Y-86806832D01*
X139215874Y-86806832D02*
X140077753Y-86897120D01*
X140077753Y-86897120D02*
X140942983Y-86879752D01*
X140942983Y-86879752D02*
X141317522Y-86840915D01*
X141317522Y-86840915D02*
X142314774Y-86642536D01*
X142314774Y-86642536D02*
X143262226Y-86310323D01*
X143262226Y-86310323D02*
X144150080Y-85850394D01*
X144150080Y-85850394D02*
X144968539Y-85268869D01*
X144968539Y-85268869D02*
X145707802Y-84571869D01*
X145707802Y-84571869D02*
X146358074Y-83765511D01*
X146358074Y-83765511D02*
X146445530Y-83638187D01*
X146445530Y-83638187D02*
X146915636Y-82814928D01*
X146915636Y-82814928D02*
X147273101Y-81908228D01*
X147273101Y-81908228D02*
X147483605Y-81101690D01*
X147483605Y-81101690D02*
X147571727Y-80480784D01*
X147571727Y-80480784D02*
X147601576Y-79784549D01*
X147601576Y-79784549D02*
X147574727Y-79069173D01*
X147574727Y-79069173D02*
X147492755Y-78390841D01*
X147492755Y-78390841D02*
X147394864Y-77935788D01*
X147394864Y-77935788D02*
X147068489Y-76990240D01*
X147068489Y-76990240D02*
X146624607Y-76118596D01*
X146624607Y-76118596D02*
X146074737Y-75327377D01*
X146074737Y-75327377D02*
X145430397Y-74623107D01*
X145430397Y-74623107D02*
X144703106Y-74012310D01*
X144703106Y-74012310D02*
X143904381Y-73501509D01*
X143904381Y-73501509D02*
X143045741Y-73097227D01*
X143045741Y-73097227D02*
X142138705Y-72805987D01*
X142138705Y-72805987D02*
X141194790Y-72634314D01*
X141194790Y-72634314D02*
X140225515Y-72588729D01*
X140225515Y-72588729D02*
X139242399Y-72675758D01*
X139242399Y-72675758D02*
X139242399Y-72675758D01*
G36*
X141194790Y-72634314D02*
G01*
X142138705Y-72805987D01*
X143045741Y-73097227D01*
X143904381Y-73501509D01*
X144703106Y-74012310D01*
X145430397Y-74623107D01*
X146074737Y-75327377D01*
X146624607Y-76118596D01*
X147068489Y-76990240D01*
X147394864Y-77935788D01*
X147492755Y-78390841D01*
X147574727Y-79069173D01*
X147601576Y-79784549D01*
X147571727Y-80480784D01*
X147483605Y-81101690D01*
X147273101Y-81908228D01*
X146915636Y-82814928D01*
X146445530Y-83638187D01*
X146358074Y-83765511D01*
X145707802Y-84571869D01*
X144968539Y-85268869D01*
X144150080Y-85850394D01*
X143262226Y-86310323D01*
X142314774Y-86642536D01*
X141317522Y-86840915D01*
X140942983Y-86879752D01*
X140077753Y-86897120D01*
X139215874Y-86806832D01*
X138328663Y-86604844D01*
X137387436Y-86287115D01*
X137152132Y-86195073D01*
X136723863Y-86015811D01*
X136395519Y-85855265D01*
X136139931Y-85697632D01*
X135929931Y-85527109D01*
X135738349Y-85327892D01*
X135448703Y-84972241D01*
X135158851Y-84521794D01*
X134952479Y-84048652D01*
X134803459Y-83501777D01*
X134759395Y-83276636D01*
X134695404Y-82864959D01*
X134645478Y-82436467D01*
X134611976Y-82023171D01*
X134597254Y-81657083D01*
X134603669Y-81370216D01*
X134633578Y-81194581D01*
X134665383Y-81148697D01*
X134707276Y-81177261D01*
X134765403Y-81299219D01*
X134847159Y-81530238D01*
X134959940Y-81885985D01*
X135061020Y-82215738D01*
X135166121Y-82563819D01*
X135252382Y-82854943D01*
X135307539Y-83048114D01*
X135372628Y-83209298D01*
X135518319Y-83402638D01*
X135692473Y-83520056D01*
X135859069Y-83530071D01*
X135881535Y-83536846D01*
X135918714Y-83641220D01*
X135934010Y-83839076D01*
X135950385Y-84059619D01*
X136020699Y-84225354D01*
X136177443Y-84389803D01*
X136240975Y-84442473D01*
X136408019Y-84544417D01*
X136525461Y-84564415D01*
X136570539Y-84565470D01*
X136729353Y-84620313D01*
X136959539Y-84730723D01*
X137228160Y-84881823D01*
X137565494Y-85071165D01*
X138387069Y-85422699D01*
X139229458Y-85630613D01*
X140094486Y-85695109D01*
X140983977Y-85616386D01*
X141899757Y-85394645D01*
X142026501Y-85354123D01*
X142308043Y-85256367D01*
X142549403Y-85154436D01*
X142790299Y-85028305D01*
X143070446Y-84857952D01*
X143429560Y-84623352D01*
X143766701Y-84385848D01*
X144485330Y-83766529D01*
X145079908Y-83077918D01*
X145547353Y-82325533D01*
X145884585Y-81514891D01*
X146088523Y-80651510D01*
X146156086Y-79740905D01*
X146111591Y-78987270D01*
X145938953Y-78123775D01*
X145633205Y-77313131D01*
X145191126Y-76547169D01*
X144609494Y-75817718D01*
X144576396Y-75782379D01*
X144285051Y-75512970D01*
X143913705Y-75219250D01*
X143507701Y-74933409D01*
X143112388Y-74687636D01*
X142773109Y-74514121D01*
X142616545Y-74447998D01*
X142272781Y-74313269D01*
X141966949Y-74216453D01*
X141662363Y-74150751D01*
X141322335Y-74109364D01*
X140910177Y-74085494D01*
X140389200Y-74072340D01*
X139169762Y-74051460D01*
X138606106Y-73561941D01*
X138437690Y-73414198D01*
X138228977Y-73226259D01*
X138082176Y-73087938D01*
X138021633Y-73021738D01*
X138058966Y-72985553D01*
X138203356Y-72923270D01*
X138421919Y-72853997D01*
X139242399Y-72675758D01*
X140225515Y-72588729D01*
X141194790Y-72634314D01*
G37*
X141194790Y-72634314D02*
X142138705Y-72805987D01*
X143045741Y-73097227D01*
X143904381Y-73501509D01*
X144703106Y-74012310D01*
X145430397Y-74623107D01*
X146074737Y-75327377D01*
X146624607Y-76118596D01*
X147068489Y-76990240D01*
X147394864Y-77935788D01*
X147492755Y-78390841D01*
X147574727Y-79069173D01*
X147601576Y-79784549D01*
X147571727Y-80480784D01*
X147483605Y-81101690D01*
X147273101Y-81908228D01*
X146915636Y-82814928D01*
X146445530Y-83638187D01*
X146358074Y-83765511D01*
X145707802Y-84571869D01*
X144968539Y-85268869D01*
X144150080Y-85850394D01*
X143262226Y-86310323D01*
X142314774Y-86642536D01*
X141317522Y-86840915D01*
X140942983Y-86879752D01*
X140077753Y-86897120D01*
X139215874Y-86806832D01*
X138328663Y-86604844D01*
X137387436Y-86287115D01*
X137152132Y-86195073D01*
X136723863Y-86015811D01*
X136395519Y-85855265D01*
X136139931Y-85697632D01*
X135929931Y-85527109D01*
X135738349Y-85327892D01*
X135448703Y-84972241D01*
X135158851Y-84521794D01*
X134952479Y-84048652D01*
X134803459Y-83501777D01*
X134759395Y-83276636D01*
X134695404Y-82864959D01*
X134645478Y-82436467D01*
X134611976Y-82023171D01*
X134597254Y-81657083D01*
X134603669Y-81370216D01*
X134633578Y-81194581D01*
X134665383Y-81148697D01*
X134707276Y-81177261D01*
X134765403Y-81299219D01*
X134847159Y-81530238D01*
X134959940Y-81885985D01*
X135061020Y-82215738D01*
X135166121Y-82563819D01*
X135252382Y-82854943D01*
X135307539Y-83048114D01*
X135372628Y-83209298D01*
X135518319Y-83402638D01*
X135692473Y-83520056D01*
X135859069Y-83530071D01*
X135881535Y-83536846D01*
X135918714Y-83641220D01*
X135934010Y-83839076D01*
X135950385Y-84059619D01*
X136020699Y-84225354D01*
X136177443Y-84389803D01*
X136240975Y-84442473D01*
X136408019Y-84544417D01*
X136525461Y-84564415D01*
X136570539Y-84565470D01*
X136729353Y-84620313D01*
X136959539Y-84730723D01*
X137228160Y-84881823D01*
X137565494Y-85071165D01*
X138387069Y-85422699D01*
X139229458Y-85630613D01*
X140094486Y-85695109D01*
X140983977Y-85616386D01*
X141899757Y-85394645D01*
X142026501Y-85354123D01*
X142308043Y-85256367D01*
X142549403Y-85154436D01*
X142790299Y-85028305D01*
X143070446Y-84857952D01*
X143429560Y-84623352D01*
X143766701Y-84385848D01*
X144485330Y-83766529D01*
X145079908Y-83077918D01*
X145547353Y-82325533D01*
X145884585Y-81514891D01*
X146088523Y-80651510D01*
X146156086Y-79740905D01*
X146111591Y-78987270D01*
X145938953Y-78123775D01*
X145633205Y-77313131D01*
X145191126Y-76547169D01*
X144609494Y-75817718D01*
X144576396Y-75782379D01*
X144285051Y-75512970D01*
X143913705Y-75219250D01*
X143507701Y-74933409D01*
X143112388Y-74687636D01*
X142773109Y-74514121D01*
X142616545Y-74447998D01*
X142272781Y-74313269D01*
X141966949Y-74216453D01*
X141662363Y-74150751D01*
X141322335Y-74109364D01*
X140910177Y-74085494D01*
X140389200Y-74072340D01*
X139169762Y-74051460D01*
X138606106Y-73561941D01*
X138437690Y-73414198D01*
X138228977Y-73226259D01*
X138082176Y-73087938D01*
X138021633Y-73021738D01*
X138058966Y-72985553D01*
X138203356Y-72923270D01*
X138421919Y-72853997D01*
X139242399Y-72675758D01*
X140225515Y-72588729D01*
X141194790Y-72634314D01*
X137831062Y-74386198D02*
X137794838Y-74412235D01*
X137794838Y-74412235D02*
X137649878Y-74532320D01*
X137649878Y-74532320D02*
X137573075Y-74621117D01*
X137573075Y-74621117D02*
X137569384Y-74633718D01*
X137569384Y-74633718D02*
X137625111Y-74717903D01*
X137625111Y-74717903D02*
X137773471Y-74714064D01*
X137773471Y-74714064D02*
X137826639Y-74696702D01*
X137826639Y-74696702D02*
X138004166Y-74593644D01*
X138004166Y-74593644D02*
X138109371Y-74464451D01*
X138109371Y-74464451D02*
X138115177Y-74346523D01*
X138115177Y-74346523D02*
X138097427Y-74322684D01*
X138097427Y-74322684D02*
X137996638Y-74300036D01*
X137996638Y-74300036D02*
X137831062Y-74386198D01*
X137831062Y-74386198D02*
X137831062Y-74386198D01*
G36*
X138097427Y-74322684D02*
G01*
X138115177Y-74346523D01*
X138109371Y-74464451D01*
X138004166Y-74593644D01*
X137826639Y-74696702D01*
X137773471Y-74714064D01*
X137625111Y-74717903D01*
X137569384Y-74633718D01*
X137573075Y-74621117D01*
X137649878Y-74532320D01*
X137794838Y-74412235D01*
X137831062Y-74386198D01*
X137996638Y-74300036D01*
X138097427Y-74322684D01*
G37*
X138097427Y-74322684D02*
X138115177Y-74346523D01*
X138109371Y-74464451D01*
X138004166Y-74593644D01*
X137826639Y-74696702D01*
X137773471Y-74714064D01*
X137625111Y-74717903D01*
X137569384Y-74633718D01*
X137573075Y-74621117D01*
X137649878Y-74532320D01*
X137794838Y-74412235D01*
X137831062Y-74386198D01*
X137996638Y-74300036D01*
X138097427Y-74322684D01*
X133582908Y-82423933D02*
X133594875Y-82507462D01*
X133594875Y-82507462D02*
X133598038Y-82520888D01*
X133598038Y-82520888D02*
X133719975Y-82844873D01*
X133719975Y-82844873D02*
X133922631Y-83199858D01*
X133922631Y-83199858D02*
X134169902Y-83530014D01*
X134169902Y-83530014D02*
X134397590Y-83757204D01*
X134397590Y-83757204D02*
X134575700Y-83897813D01*
X134575700Y-83897813D02*
X134705814Y-83990672D01*
X134705814Y-83990672D02*
X134748852Y-84012865D01*
X134748852Y-84012865D02*
X134756208Y-83949607D01*
X134756208Y-83949607D02*
X134731570Y-83788149D01*
X134731570Y-83788149D02*
X134704967Y-83667163D01*
X134704967Y-83667163D02*
X134647152Y-83484176D01*
X134647152Y-83484176D02*
X134554831Y-83316419D01*
X134554831Y-83316419D02*
X134404319Y-83131289D01*
X134404319Y-83131289D02*
X134171930Y-82896180D01*
X134171930Y-82896180D02*
X134083739Y-82812005D01*
X134083739Y-82812005D02*
X133843402Y-82586985D01*
X133843402Y-82586985D02*
X133690759Y-82453857D01*
X133690759Y-82453857D02*
X133609399Y-82402786D01*
X133609399Y-82402786D02*
X133582908Y-82423933D01*
X133582908Y-82423933D02*
X133582908Y-82423933D01*
G36*
X133690759Y-82453857D02*
G01*
X133843402Y-82586985D01*
X134083739Y-82812005D01*
X134171930Y-82896180D01*
X134404319Y-83131289D01*
X134554831Y-83316419D01*
X134647152Y-83484176D01*
X134704967Y-83667163D01*
X134731570Y-83788149D01*
X134756208Y-83949607D01*
X134748852Y-84012865D01*
X134705814Y-83990672D01*
X134575700Y-83897813D01*
X134397590Y-83757204D01*
X134169902Y-83530014D01*
X133922631Y-83199858D01*
X133719975Y-82844873D01*
X133598038Y-82520888D01*
X133594875Y-82507462D01*
X133582908Y-82423933D01*
X133609399Y-82402786D01*
X133690759Y-82453857D01*
G37*
X133690759Y-82453857D02*
X133843402Y-82586985D01*
X134083739Y-82812005D01*
X134171930Y-82896180D01*
X134404319Y-83131289D01*
X134554831Y-83316419D01*
X134647152Y-83484176D01*
X134704967Y-83667163D01*
X134731570Y-83788149D01*
X134756208Y-83949607D01*
X134748852Y-84012865D01*
X134705814Y-83990672D01*
X134575700Y-83897813D01*
X134397590Y-83757204D01*
X134169902Y-83530014D01*
X133922631Y-83199858D01*
X133719975Y-82844873D01*
X133598038Y-82520888D01*
X133594875Y-82507462D01*
X133582908Y-82423933D01*
X133609399Y-82402786D01*
X133690759Y-82453857D01*
X137496605Y-77824020D02*
X137553402Y-77923579D01*
X137553402Y-77923579D02*
X137697531Y-78062768D01*
X137697531Y-78062768D02*
X137889597Y-78209608D01*
X137889597Y-78209608D02*
X138090205Y-78332118D01*
X138090205Y-78332118D02*
X138167476Y-78368603D01*
X138167476Y-78368603D02*
X138465041Y-78463832D01*
X138465041Y-78463832D02*
X138672546Y-78466257D01*
X138672546Y-78466257D02*
X138778977Y-78375949D01*
X138778977Y-78375949D02*
X138786579Y-78234252D01*
X138786579Y-78234252D02*
X138678620Y-78106762D01*
X138678620Y-78106762D02*
X138518890Y-78010312D01*
X138518890Y-78010312D02*
X138358696Y-77948654D01*
X138358696Y-77948654D02*
X138139609Y-77889703D01*
X138139609Y-77889703D02*
X137902843Y-77840970D01*
X137902843Y-77840970D02*
X137689615Y-77809965D01*
X137689615Y-77809965D02*
X137541138Y-77804198D01*
X137541138Y-77804198D02*
X137496605Y-77824020D01*
X137496605Y-77824020D02*
X137496605Y-77824020D01*
G36*
X137689615Y-77809965D02*
G01*
X137902843Y-77840970D01*
X138139609Y-77889703D01*
X138358696Y-77948654D01*
X138518890Y-78010312D01*
X138678620Y-78106762D01*
X138786579Y-78234252D01*
X138778977Y-78375949D01*
X138672546Y-78466257D01*
X138465041Y-78463832D01*
X138167476Y-78368603D01*
X138090205Y-78332118D01*
X137889597Y-78209608D01*
X137697531Y-78062768D01*
X137553402Y-77923579D01*
X137496605Y-77824020D01*
X137541138Y-77804198D01*
X137689615Y-77809965D01*
G37*
X137689615Y-77809965D02*
X137902843Y-77840970D01*
X138139609Y-77889703D01*
X138358696Y-77948654D01*
X138518890Y-78010312D01*
X138678620Y-78106762D01*
X138786579Y-78234252D01*
X138778977Y-78375949D01*
X138672546Y-78466257D01*
X138465041Y-78463832D01*
X138167476Y-78368603D01*
X138090205Y-78332118D01*
X137889597Y-78209608D01*
X137697531Y-78062768D01*
X137553402Y-77923579D01*
X137496605Y-77824020D01*
X137541138Y-77804198D01*
X137689615Y-77809965D01*
D14*
X107150000Y-59135000D02*
X107150000Y-56585000D01*
X108850000Y-59135000D02*
X107150000Y-59135000D01*
X108850000Y-59135000D02*
X108850000Y-56585000D01*
X108850000Y-120095000D02*
X108850000Y-117545000D01*
X108850000Y-120095000D02*
X107150000Y-120095000D01*
X107150000Y-120095000D02*
X107150000Y-117545000D01*
X127470000Y-79455000D02*
X127470000Y-76905000D01*
X129170000Y-79455000D02*
X127470000Y-79455000D01*
X129170000Y-79455000D02*
X129170000Y-76905000D01*
X127470000Y-99775000D02*
X127470000Y-97225000D01*
X129170000Y-99775000D02*
X129170000Y-97225000D01*
X129170000Y-99775000D02*
X127470000Y-99775000D01*
X169810000Y-59135000D02*
X169810000Y-56585000D01*
X169810000Y-59135000D02*
X168110000Y-59135000D01*
X168110000Y-59135000D02*
X168110000Y-56585000D01*
X129170000Y-59135000D02*
X129170000Y-56585000D01*
X127470000Y-59135000D02*
X127470000Y-56585000D01*
X129170000Y-59135000D02*
X127470000Y-59135000D01*
X149490000Y-59135000D02*
X149490000Y-56585000D01*
X147790000Y-59135000D02*
X147790000Y-56585000D01*
X149490000Y-59135000D02*
X147790000Y-59135000D01*
X108850000Y-79455000D02*
X107150000Y-79455000D01*
X108850000Y-79455000D02*
X108850000Y-76905000D01*
X107150000Y-79455000D02*
X107150000Y-76905000D01*
X149490000Y-79455000D02*
X149490000Y-76905000D01*
X147790000Y-79455000D02*
X147790000Y-76905000D01*
X149490000Y-79455000D02*
X147790000Y-79455000D01*
X149490000Y-120095000D02*
X149490000Y-117545000D01*
X147790000Y-120095000D02*
X147790000Y-117545000D01*
X149490000Y-120095000D02*
X147790000Y-120095000D01*
X108850000Y-99775000D02*
X108850000Y-97225000D01*
X107150000Y-99775000D02*
X107150000Y-97225000D01*
X108850000Y-99775000D02*
X107150000Y-99775000D01*
X125105000Y-128510000D02*
X125105000Y-131170000D01*
X131835000Y-137170000D02*
X131835000Y-131170000D01*
X125995000Y-131170000D02*
X125995000Y-137170000D01*
X123455000Y-128180000D02*
X123455000Y-128510000D01*
X132785000Y-131170000D02*
X122505000Y-131170000D01*
X123995000Y-131170000D02*
X123995000Y-137170000D01*
X123515000Y-131170000D02*
X123515000Y-137170000D01*
X128535000Y-128112929D02*
X128535000Y-128510000D01*
X125995000Y-128112929D02*
X125995000Y-128510000D01*
X129295000Y-128112929D02*
X129295000Y-128510000D01*
X123455000Y-137170000D02*
X124215000Y-137170000D01*
X130185000Y-128510000D02*
X130185000Y-131170000D01*
X122505000Y-128510000D02*
X132785000Y-128510000D01*
X123635000Y-131170000D02*
X123635000Y-137170000D01*
X122505000Y-131170000D02*
X122505000Y-128510000D01*
X131075000Y-131170000D02*
X131075000Y-137170000D01*
X123875000Y-131170000D02*
X123875000Y-137170000D01*
X129295000Y-137170000D02*
X129295000Y-131170000D01*
X126755000Y-128112929D02*
X126755000Y-128510000D01*
X123455000Y-131170000D02*
X123455000Y-137170000D01*
X124115000Y-131170000D02*
X124115000Y-137170000D01*
X131075000Y-128112929D02*
X131075000Y-128510000D01*
X131075000Y-137170000D02*
X131835000Y-137170000D01*
X124215000Y-128180000D02*
X124215000Y-128510000D01*
X128535000Y-137170000D02*
X129295000Y-137170000D01*
X124215000Y-137170000D02*
X124215000Y-131170000D01*
X123755000Y-131170000D02*
X123755000Y-137170000D01*
X127645000Y-128510000D02*
X127645000Y-131170000D01*
X128535000Y-131170000D02*
X128535000Y-137170000D01*
X125995000Y-137170000D02*
X126755000Y-137170000D01*
X131835000Y-128112929D02*
X131835000Y-128510000D01*
X123835000Y-125800000D02*
X122565000Y-125800000D01*
X132785000Y-128510000D02*
X132785000Y-131170000D01*
X122565000Y-125800000D02*
X122565000Y-127070000D01*
X126755000Y-137170000D02*
X126755000Y-131170000D01*
X129170000Y-120095000D02*
X129170000Y-117545000D01*
X129170000Y-120095000D02*
X127470000Y-120095000D01*
X127470000Y-120095000D02*
X127470000Y-117545000D01*
X168110000Y-79455000D02*
X168110000Y-76905000D01*
X169810000Y-79455000D02*
X168110000Y-79455000D01*
X169810000Y-79455000D02*
X169810000Y-76905000D01*
X111165000Y-131170000D02*
X111165000Y-137170000D01*
X115825000Y-128112929D02*
X115825000Y-128510000D01*
X109795000Y-128510000D02*
X120075000Y-128510000D01*
X113285000Y-137170000D02*
X114045000Y-137170000D01*
X110745000Y-131170000D02*
X110745000Y-137170000D01*
X110745000Y-137170000D02*
X111505000Y-137170000D01*
X114045000Y-128112929D02*
X114045000Y-128510000D01*
X114935000Y-128510000D02*
X114935000Y-131170000D01*
X112395000Y-128510000D02*
X112395000Y-131170000D01*
X109855000Y-125800000D02*
X109855000Y-127070000D01*
X114045000Y-137170000D02*
X114045000Y-131170000D01*
X111045000Y-131170000D02*
X111045000Y-137170000D01*
X110805000Y-131170000D02*
X110805000Y-137170000D01*
X110925000Y-131170000D02*
X110925000Y-137170000D01*
X111285000Y-131170000D02*
X111285000Y-137170000D01*
X119125000Y-137170000D02*
X119125000Y-131170000D01*
X118365000Y-128112929D02*
X118365000Y-128510000D01*
X111125000Y-125800000D02*
X109855000Y-125800000D01*
X120075000Y-128510000D02*
X120075000Y-131170000D01*
X118365000Y-131170000D02*
X118365000Y-137170000D01*
X115825000Y-137170000D02*
X116585000Y-137170000D01*
X120075000Y-131170000D02*
X109795000Y-131170000D01*
X116585000Y-128112929D02*
X116585000Y-128510000D01*
X119125000Y-128112929D02*
X119125000Y-128510000D01*
X117475000Y-128510000D02*
X117475000Y-131170000D01*
X111505000Y-137170000D02*
X111505000Y-131170000D01*
X111405000Y-131170000D02*
X111405000Y-137170000D01*
X113285000Y-128112929D02*
X113285000Y-128510000D01*
X109795000Y-131170000D02*
X109795000Y-128510000D01*
X115825000Y-131170000D02*
X115825000Y-137170000D01*
X116585000Y-137170000D02*
X116585000Y-131170000D01*
X110745000Y-128180000D02*
X110745000Y-128510000D01*
X113285000Y-131170000D02*
X113285000Y-137170000D01*
X118365000Y-137170000D02*
X119125000Y-137170000D01*
X111505000Y-128180000D02*
X111505000Y-128510000D01*
X146176000Y-137100000D02*
X146176000Y-131100000D01*
X139446000Y-128440000D02*
X139446000Y-131100000D01*
X145416000Y-137100000D02*
X146176000Y-137100000D01*
X143636000Y-137100000D02*
X143636000Y-131100000D01*
X148716000Y-128042929D02*
X148716000Y-128440000D01*
X158876000Y-128042929D02*
X158876000Y-128440000D01*
X158116000Y-128042929D02*
X158116000Y-128440000D01*
X138216000Y-131100000D02*
X138216000Y-137100000D01*
X158876000Y-137100000D02*
X158876000Y-131100000D01*
X145416000Y-128042929D02*
X145416000Y-128440000D01*
X137796000Y-137100000D02*
X138556000Y-137100000D01*
X140336000Y-137100000D02*
X141096000Y-137100000D01*
X138556000Y-128110000D02*
X138556000Y-128440000D01*
X138556000Y-137100000D02*
X138556000Y-131100000D01*
X136846000Y-131100000D02*
X136846000Y-128440000D01*
X150496000Y-137100000D02*
X151256000Y-137100000D01*
X136906000Y-125730000D02*
X136906000Y-127000000D01*
X151256000Y-137100000D02*
X151256000Y-131100000D01*
X147956000Y-137100000D02*
X148716000Y-137100000D01*
X156336000Y-128042929D02*
X156336000Y-128440000D01*
X157226000Y-128440000D02*
X157226000Y-131100000D01*
X149606000Y-128440000D02*
X149606000Y-131100000D01*
X150496000Y-128042929D02*
X150496000Y-128440000D01*
X138336000Y-131100000D02*
X138336000Y-137100000D01*
X141986000Y-128440000D02*
X141986000Y-131100000D01*
X156336000Y-137100000D02*
X156336000Y-131100000D01*
X141096000Y-137100000D02*
X141096000Y-131100000D01*
X151256000Y-128042929D02*
X151256000Y-128440000D01*
X155576000Y-137100000D02*
X156336000Y-137100000D01*
X144526000Y-128440000D02*
X144526000Y-131100000D01*
X137856000Y-131100000D02*
X137856000Y-137100000D01*
X137976000Y-131100000D02*
X137976000Y-137100000D01*
X138096000Y-131100000D02*
X138096000Y-137100000D01*
X153796000Y-137100000D02*
X153796000Y-131100000D01*
X142876000Y-131100000D02*
X142876000Y-137100000D01*
X150496000Y-131100000D02*
X150496000Y-137100000D01*
X152146000Y-128440000D02*
X152146000Y-131100000D01*
X153036000Y-131100000D02*
X153036000Y-137100000D01*
X155576000Y-131100000D02*
X155576000Y-137100000D01*
X143636000Y-128042929D02*
X143636000Y-128440000D01*
X158116000Y-137100000D02*
X158876000Y-137100000D01*
X145416000Y-131100000D02*
X145416000Y-137100000D01*
X147956000Y-131100000D02*
X147956000Y-137100000D01*
X140336000Y-128042929D02*
X140336000Y-128440000D01*
X137796000Y-131100000D02*
X137796000Y-137100000D01*
X146176000Y-128042929D02*
X146176000Y-128440000D01*
X154686000Y-128440000D02*
X154686000Y-131100000D01*
X142876000Y-137100000D02*
X143636000Y-137100000D01*
X141096000Y-128042929D02*
X141096000Y-128440000D01*
X155576000Y-128042929D02*
X155576000Y-128440000D01*
X142876000Y-128042929D02*
X142876000Y-128440000D01*
X137796000Y-128110000D02*
X137796000Y-128440000D01*
X158116000Y-131100000D02*
X158116000Y-137100000D01*
X147066000Y-128440000D02*
X147066000Y-131100000D01*
X147956000Y-128042929D02*
X147956000Y-128440000D01*
X140336000Y-131100000D02*
X140336000Y-137100000D01*
X153036000Y-137100000D02*
X153796000Y-137100000D01*
X153036000Y-128042929D02*
X153036000Y-128440000D01*
X159826000Y-128440000D02*
X159826000Y-131100000D01*
X148716000Y-137100000D02*
X148716000Y-131100000D01*
X159826000Y-131100000D02*
X136846000Y-131100000D01*
X138456000Y-131100000D02*
X138456000Y-137100000D01*
X138176000Y-125730000D02*
X136906000Y-125730000D01*
X153796000Y-128042929D02*
X153796000Y-128440000D01*
X136846000Y-128440000D02*
X159826000Y-128440000D01*
X147790000Y-99775000D02*
X147790000Y-97225000D01*
X149490000Y-99775000D02*
X147790000Y-99775000D01*
X149490000Y-99775000D02*
X149490000Y-97225000D01*
X168110000Y-99775000D02*
X168110000Y-97225000D01*
X169810000Y-99775000D02*
X168110000Y-99775000D01*
X169810000Y-99775000D02*
X169810000Y-97225000D01*
%LPC*%
D15*
X103418000Y-66922000D03*
X103418000Y-76922000D03*
X98918000Y-69922000D03*
X107918000Y-73922000D03*
X123738000Y-66922000D03*
X123738000Y-76922000D03*
X119238000Y-69922000D03*
X128238000Y-73922000D03*
X144058000Y-76922000D03*
X144058000Y-66922000D03*
X139558000Y-69922000D03*
X148558000Y-73922000D03*
X164378000Y-66922000D03*
X164378000Y-76922000D03*
X159878000Y-69922000D03*
X168878000Y-73922000D03*
X144058000Y-56602000D03*
X144058000Y-46602000D03*
X139558000Y-49602000D03*
X148558000Y-53602000D03*
X164378000Y-46602000D03*
X164378000Y-56602000D03*
X159878000Y-49602000D03*
X168878000Y-53602000D03*
X103418000Y-107562000D03*
X103418000Y-117562000D03*
X98918000Y-110562000D03*
X107918000Y-114562000D03*
X123738000Y-56602000D03*
X123738000Y-46602000D03*
X119238000Y-49602000D03*
X128238000Y-53602000D03*
X164378000Y-97242000D03*
X164378000Y-87242000D03*
X159878000Y-90242000D03*
X168878000Y-94242000D03*
X144058000Y-107562000D03*
X144058000Y-117562000D03*
X139558000Y-110562000D03*
X148558000Y-114562000D03*
D16*
X160020000Y-121285000D03*
D17*
X162560000Y-121285000D03*
X165100000Y-121285000D03*
X167640000Y-121285000D03*
X170180000Y-121285000D03*
X170180000Y-106045000D03*
X167640000Y-106045000D03*
X165100000Y-106045000D03*
X162560000Y-106045000D03*
X160020000Y-106045000D03*
D15*
X144058000Y-87242000D03*
X144058000Y-97242000D03*
X139558000Y-90242000D03*
X148558000Y-94242000D03*
X123738000Y-97242000D03*
X123738000Y-87242000D03*
X119238000Y-90242000D03*
X128238000Y-94242000D03*
X103418000Y-46602000D03*
X103418000Y-56602000D03*
X98918000Y-49602000D03*
X107918000Y-53602000D03*
X103418000Y-97242000D03*
X103418000Y-87242000D03*
X98918000Y-90242000D03*
X107918000Y-94242000D03*
X123738000Y-117562000D03*
X123738000Y-107562000D03*
X119238000Y-110562000D03*
X128238000Y-114562000D03*
D18*
X108000000Y-58735000D03*
X108000000Y-56535000D03*
X108000000Y-119695000D03*
X108000000Y-117495000D03*
X128320000Y-79055000D03*
X128320000Y-76855000D03*
X128320000Y-99375000D03*
X128320000Y-97175000D03*
X168960000Y-58735000D03*
X168960000Y-56535000D03*
X128320000Y-58735000D03*
X128320000Y-56535000D03*
X148640000Y-58735000D03*
X148640000Y-56535000D03*
X108000000Y-79055000D03*
X108000000Y-76855000D03*
X148640000Y-79055000D03*
X148640000Y-76855000D03*
X148640000Y-119695000D03*
X148640000Y-117495000D03*
X108000000Y-99375000D03*
X108000000Y-97175000D03*
D19*
X123835000Y-127070000D03*
D20*
X126375000Y-127070000D03*
X128915000Y-127070000D03*
X131455000Y-127070000D03*
D18*
X128320000Y-119695000D03*
X128320000Y-117495000D03*
X168960000Y-79055000D03*
X168960000Y-76855000D03*
D19*
X111125000Y-127070000D03*
D20*
X113665000Y-127070000D03*
X116205000Y-127070000D03*
X118745000Y-127070000D03*
D19*
X138176000Y-127000000D03*
D20*
X140716000Y-127000000D03*
X143256000Y-127000000D03*
X145796000Y-127000000D03*
X148336000Y-127000000D03*
X150876000Y-127000000D03*
X153416000Y-127000000D03*
X155956000Y-127000000D03*
X158496000Y-127000000D03*
D18*
X148640000Y-99375000D03*
X148640000Y-97175000D03*
X168960000Y-99375000D03*
X168960000Y-97175000D03*
M02*
