M48
; DRILL file {KiCad (6.0.0)} date Tue Mar  1 21:05:35 2022
; FORMAT={-:-/ absolute / metric / decimal}
; #@! TF.CreationDate,2022-03-01T21:05:35+01:00
; #@! TF.GenerationSoftware,Kicad,Pcbnew,(6.0.0)
; #@! TF.FileFunction,Plated,1,2,PTH
FMAT,2
METRIC
; #@! TA.AperFunction,Plated,PTH,ComponentDrill
T1C0.800
; #@! TA.AperFunction,Plated,PTH,ComponentDrill
T2C1.000
; #@! TA.AperFunction,Plated,PTH,ComponentDrill
T3C1.200
%
G90
G05
T1
X160.02Y-106.045
X160.02Y-121.285
X162.56Y-106.045
X162.56Y-121.285
X165.1Y-106.045
X165.1Y-121.285
X167.64Y-106.045
X167.64Y-121.285
X170.18Y-106.045
X170.18Y-121.285
T2
X111.125Y-127.07
X113.665Y-127.07
X116.205Y-127.07
X118.745Y-127.07
X123.835Y-127.07
X126.375Y-127.07
X128.915Y-127.07
X131.455Y-127.07
X138.176Y-127.0
X140.716Y-127.0
X143.256Y-127.0
X145.796Y-127.0
X148.336Y-127.0
X150.876Y-127.0
X153.416Y-127.0
X155.956Y-127.0
X158.496Y-127.0
T3
X98.918Y-49.602
X98.918Y-69.922
X98.918Y-90.242
X98.918Y-110.562
X107.918Y-53.602
X107.918Y-73.922
X107.918Y-94.242
X107.918Y-114.562
X119.238Y-49.602
X119.238Y-69.922
X119.238Y-90.242
X119.238Y-110.562
X128.238Y-53.602
X128.238Y-73.922
X128.238Y-94.242
X128.238Y-114.562
X139.558Y-49.602
X139.558Y-69.922
X139.558Y-90.242
X139.558Y-110.562
X148.558Y-53.602
X148.558Y-73.922
X148.558Y-94.242
X148.558Y-114.562
X159.878Y-49.602
X159.878Y-69.922
X159.878Y-90.242
X168.878Y-53.602
X168.878Y-73.922
X168.878Y-94.242
T0
M30
