%FSLAX45Y45*%
G04 Gerber Fmt 4.5, Leading zero omitted, Abs format (unit mm)*
G04 Created by KiCad (PCBNEW (6.0.0)) date 2022-03-01 21:05:48*
%MOMM*%
%LPD*%
G01*
G04 APERTURE LIST*
%TA.AperFunction,Profile*%
%ADD10C,0.050000*%
%TD*%
%ADD11C,0.200000*%
%ADD12C,0.170000*%
G04 APERTURE END LIST*
D10*
X18474500Y-14340500D02*
X8474500Y-14340500D01*
X9215000Y-13850000D02*
G75*
G03*
X9215000Y-13850000I-240000J0D01*
G01*
X18215000Y-13850000D02*
G75*
G03*
X18215000Y-13850000I-240000J0D01*
G01*
X18214500Y-13090500D02*
G75*
G03*
X18214500Y-13090500I-240000J0D01*
G01*
X8474500Y-4340500D02*
X18474500Y-4340500D01*
X8474500Y-14340500D02*
X8474500Y-4340500D01*
X18474500Y-4340500D02*
X18474500Y-14340500D01*
X9215000Y-13100000D02*
G75*
G03*
X9215000Y-13100000I-240000J0D01*
G01*
D11*
D12*
X10256800Y-4575200D02*
X10426800Y-4745200D01*
X10426800Y-4575200D02*
X10256800Y-4745200D01*
X10256800Y-5575200D02*
X10426800Y-5745200D01*
X10426800Y-5575200D02*
X10256800Y-5745200D01*
X10256800Y-6607200D02*
X10426800Y-6777200D01*
X10426800Y-6607200D02*
X10256800Y-6777200D01*
X10256800Y-7607200D02*
X10426800Y-7777200D01*
X10426800Y-7607200D02*
X10256800Y-7777200D01*
X10256800Y-8639200D02*
X10426800Y-8809200D01*
X10426800Y-8639200D02*
X10256800Y-8809200D01*
X10256800Y-9639200D02*
X10426800Y-9809200D01*
X10426800Y-9639200D02*
X10256800Y-9809200D01*
X10256800Y-10671200D02*
X10426800Y-10841200D01*
X10426800Y-10671200D02*
X10256800Y-10841200D01*
X10256800Y-11671200D02*
X10426800Y-11841200D01*
X10426800Y-11671200D02*
X10256800Y-11841200D01*
X12288800Y-4575200D02*
X12458800Y-4745200D01*
X12458800Y-4575200D02*
X12288800Y-4745200D01*
X12288800Y-5575200D02*
X12458800Y-5745200D01*
X12458800Y-5575200D02*
X12288800Y-5745200D01*
X12288800Y-6607200D02*
X12458800Y-6777200D01*
X12458800Y-6607200D02*
X12288800Y-6777200D01*
X12288800Y-7607200D02*
X12458800Y-7777200D01*
X12458800Y-7607200D02*
X12288800Y-7777200D01*
X12288800Y-8639200D02*
X12458800Y-8809200D01*
X12458800Y-8639200D02*
X12288800Y-8809200D01*
X12288800Y-9639200D02*
X12458800Y-9809200D01*
X12458800Y-9639200D02*
X12288800Y-9809200D01*
X12288800Y-10671200D02*
X12458800Y-10841200D01*
X12458800Y-10671200D02*
X12288800Y-10841200D01*
X12288800Y-11671200D02*
X12458800Y-11841200D01*
X12458800Y-11671200D02*
X12288800Y-11841200D01*
X14320800Y-4575200D02*
X14490800Y-4745200D01*
X14490800Y-4575200D02*
X14320800Y-4745200D01*
X14320800Y-5575200D02*
X14490800Y-5745200D01*
X14490800Y-5575200D02*
X14320800Y-5745200D01*
X14320800Y-6607200D02*
X14490800Y-6777200D01*
X14490800Y-6607200D02*
X14320800Y-6777200D01*
X14320800Y-7607200D02*
X14490800Y-7777200D01*
X14490800Y-7607200D02*
X14320800Y-7777200D01*
X14320800Y-8639200D02*
X14490800Y-8809200D01*
X14490800Y-8639200D02*
X14320800Y-8809200D01*
X14320800Y-9639200D02*
X14490800Y-9809200D01*
X14490800Y-9639200D02*
X14320800Y-9809200D01*
X14320800Y-10671200D02*
X14490800Y-10841200D01*
X14490800Y-10671200D02*
X14320800Y-10841200D01*
X14320800Y-11671200D02*
X14490800Y-11841200D01*
X14490800Y-11671200D02*
X14320800Y-11841200D01*
X16352800Y-4575200D02*
X16522800Y-4745200D01*
X16522800Y-4575200D02*
X16352800Y-4745200D01*
X16352800Y-5575200D02*
X16522800Y-5745200D01*
X16522800Y-5575200D02*
X16352800Y-5745200D01*
X16352800Y-6607200D02*
X16522800Y-6777200D01*
X16522800Y-6607200D02*
X16352800Y-6777200D01*
X16352800Y-7607200D02*
X16522800Y-7777200D01*
X16522800Y-7607200D02*
X16352800Y-7777200D01*
X16352800Y-8639200D02*
X16522800Y-8809200D01*
X16522800Y-8639200D02*
X16352800Y-8809200D01*
X16352800Y-9639200D02*
X16522800Y-9809200D01*
X16522800Y-9639200D02*
X16352800Y-9809200D01*
D11*
X8729619Y-14653476D02*
X8729619Y-14453476D01*
X8777238Y-14453476D01*
X8805810Y-14463000D01*
X8824857Y-14482048D01*
X8834381Y-14501095D01*
X8843905Y-14539190D01*
X8843905Y-14567762D01*
X8834381Y-14605857D01*
X8824857Y-14624905D01*
X8805810Y-14643952D01*
X8777238Y-14653476D01*
X8729619Y-14653476D01*
X8929619Y-14653476D02*
X8929619Y-14520143D01*
X8929619Y-14558238D02*
X8939143Y-14539190D01*
X8948667Y-14529667D01*
X8967714Y-14520143D01*
X8986762Y-14520143D01*
X9053429Y-14653476D02*
X9053429Y-14520143D01*
X9053429Y-14453476D02*
X9043905Y-14463000D01*
X9053429Y-14472524D01*
X9062952Y-14463000D01*
X9053429Y-14453476D01*
X9053429Y-14472524D01*
X9177238Y-14653476D02*
X9158190Y-14643952D01*
X9148667Y-14624905D01*
X9148667Y-14453476D01*
X9282000Y-14653476D02*
X9262952Y-14643952D01*
X9253429Y-14624905D01*
X9253429Y-14453476D01*
X9510571Y-14653476D02*
X9510571Y-14453476D01*
X9577238Y-14596333D01*
X9643905Y-14453476D01*
X9643905Y-14653476D01*
X9824857Y-14653476D02*
X9824857Y-14548714D01*
X9815333Y-14529667D01*
X9796286Y-14520143D01*
X9758190Y-14520143D01*
X9739143Y-14529667D01*
X9824857Y-14643952D02*
X9805810Y-14653476D01*
X9758190Y-14653476D01*
X9739143Y-14643952D01*
X9729619Y-14624905D01*
X9729619Y-14605857D01*
X9739143Y-14586809D01*
X9758190Y-14577286D01*
X9805810Y-14577286D01*
X9824857Y-14567762D01*
X9920095Y-14520143D02*
X9920095Y-14720143D01*
X9920095Y-14529667D02*
X9939143Y-14520143D01*
X9977238Y-14520143D01*
X9996286Y-14529667D01*
X10005810Y-14539190D01*
X10015333Y-14558238D01*
X10015333Y-14615381D01*
X10005810Y-14634428D01*
X9996286Y-14643952D01*
X9977238Y-14653476D01*
X9939143Y-14653476D01*
X9920095Y-14643952D01*
X10101048Y-14634428D02*
X10110571Y-14643952D01*
X10101048Y-14653476D01*
X10091524Y-14643952D01*
X10101048Y-14634428D01*
X10101048Y-14653476D01*
X10101048Y-14529667D02*
X10110571Y-14539190D01*
X10101048Y-14548714D01*
X10091524Y-14539190D01*
X10101048Y-14529667D01*
X10101048Y-14548714D01*
D12*
X8302000Y-14898000D02*
X8472000Y-15068000D01*
X8472000Y-14898000D02*
X8302000Y-15068000D01*
D11*
X8834381Y-15073476D02*
X8720095Y-15073476D01*
X8777238Y-15073476D02*
X8777238Y-14873476D01*
X8758190Y-14902048D01*
X8739143Y-14921095D01*
X8720095Y-14930619D01*
X8920095Y-15054428D02*
X8929619Y-15063952D01*
X8920095Y-15073476D01*
X8910571Y-15063952D01*
X8920095Y-15054428D01*
X8920095Y-15073476D01*
X8996286Y-14873476D02*
X9129619Y-14873476D01*
X9043905Y-15073476D01*
X9243905Y-14873476D02*
X9262952Y-14873476D01*
X9282000Y-14883000D01*
X9291524Y-14892524D01*
X9301048Y-14911571D01*
X9310571Y-14949667D01*
X9310571Y-14997286D01*
X9301048Y-15035381D01*
X9291524Y-15054428D01*
X9282000Y-15063952D01*
X9262952Y-15073476D01*
X9243905Y-15073476D01*
X9224857Y-15063952D01*
X9215333Y-15054428D01*
X9205810Y-15035381D01*
X9196286Y-14997286D01*
X9196286Y-14949667D01*
X9205810Y-14911571D01*
X9215333Y-14892524D01*
X9224857Y-14883000D01*
X9243905Y-14873476D01*
X9434381Y-14873476D02*
X9453429Y-14873476D01*
X9472476Y-14883000D01*
X9482000Y-14892524D01*
X9491524Y-14911571D01*
X9501048Y-14949667D01*
X9501048Y-14997286D01*
X9491524Y-15035381D01*
X9482000Y-15054428D01*
X9472476Y-15063952D01*
X9453429Y-15073476D01*
X9434381Y-15073476D01*
X9415333Y-15063952D01*
X9405810Y-15054428D01*
X9396286Y-15035381D01*
X9386762Y-14997286D01*
X9386762Y-14949667D01*
X9396286Y-14911571D01*
X9405810Y-14892524D01*
X9415333Y-14883000D01*
X9434381Y-14873476D01*
X9586762Y-15073476D02*
X9586762Y-14940143D01*
X9586762Y-14959190D02*
X9596286Y-14949667D01*
X9615333Y-14940143D01*
X9643905Y-14940143D01*
X9662952Y-14949667D01*
X9672476Y-14968714D01*
X9672476Y-15073476D01*
X9672476Y-14968714D02*
X9682000Y-14949667D01*
X9701048Y-14940143D01*
X9729619Y-14940143D01*
X9748667Y-14949667D01*
X9758190Y-14968714D01*
X9758190Y-15073476D01*
X9853429Y-15073476D02*
X9853429Y-14940143D01*
X9853429Y-14959190D02*
X9862952Y-14949667D01*
X9882000Y-14940143D01*
X9910571Y-14940143D01*
X9929619Y-14949667D01*
X9939143Y-14968714D01*
X9939143Y-15073476D01*
X9939143Y-14968714D02*
X9948667Y-14949667D01*
X9967714Y-14940143D01*
X9996286Y-14940143D01*
X10015333Y-14949667D01*
X10024857Y-14968714D01*
X10024857Y-15073476D01*
X10415333Y-14863952D02*
X10243905Y-15121095D01*
X10672476Y-14873476D02*
X10691524Y-14873476D01*
X10710571Y-14883000D01*
X10720095Y-14892524D01*
X10729619Y-14911571D01*
X10739143Y-14949667D01*
X10739143Y-14997286D01*
X10729619Y-15035381D01*
X10720095Y-15054428D01*
X10710571Y-15063952D01*
X10691524Y-15073476D01*
X10672476Y-15073476D01*
X10653429Y-15063952D01*
X10643905Y-15054428D01*
X10634381Y-15035381D01*
X10624857Y-14997286D01*
X10624857Y-14949667D01*
X10634381Y-14911571D01*
X10643905Y-14892524D01*
X10653429Y-14883000D01*
X10672476Y-14873476D01*
X10824857Y-15054428D02*
X10834381Y-15063952D01*
X10824857Y-15073476D01*
X10815333Y-15063952D01*
X10824857Y-15054428D01*
X10824857Y-15073476D01*
X10958190Y-14873476D02*
X10977238Y-14873476D01*
X10996286Y-14883000D01*
X11005810Y-14892524D01*
X11015333Y-14911571D01*
X11024857Y-14949667D01*
X11024857Y-14997286D01*
X11015333Y-15035381D01*
X11005810Y-15054428D01*
X10996286Y-15063952D01*
X10977238Y-15073476D01*
X10958190Y-15073476D01*
X10939143Y-15063952D01*
X10929619Y-15054428D01*
X10920095Y-15035381D01*
X10910571Y-14997286D01*
X10910571Y-14949667D01*
X10920095Y-14911571D01*
X10929619Y-14892524D01*
X10939143Y-14883000D01*
X10958190Y-14873476D01*
X11196286Y-14873476D02*
X11158190Y-14873476D01*
X11139143Y-14883000D01*
X11129619Y-14892524D01*
X11110571Y-14921095D01*
X11101048Y-14959190D01*
X11101048Y-15035381D01*
X11110571Y-15054428D01*
X11120095Y-15063952D01*
X11139143Y-15073476D01*
X11177238Y-15073476D01*
X11196286Y-15063952D01*
X11205809Y-15054428D01*
X11215333Y-15035381D01*
X11215333Y-14987762D01*
X11205809Y-14968714D01*
X11196286Y-14959190D01*
X11177238Y-14949667D01*
X11139143Y-14949667D01*
X11120095Y-14959190D01*
X11110571Y-14968714D01*
X11101048Y-14987762D01*
X11386762Y-14873476D02*
X11348667Y-14873476D01*
X11329619Y-14883000D01*
X11320095Y-14892524D01*
X11301048Y-14921095D01*
X11291524Y-14959190D01*
X11291524Y-15035381D01*
X11301048Y-15054428D01*
X11310571Y-15063952D01*
X11329619Y-15073476D01*
X11367714Y-15073476D01*
X11386762Y-15063952D01*
X11396286Y-15054428D01*
X11405809Y-15035381D01*
X11405809Y-14987762D01*
X11396286Y-14968714D01*
X11386762Y-14959190D01*
X11367714Y-14949667D01*
X11329619Y-14949667D01*
X11310571Y-14959190D01*
X11301048Y-14968714D01*
X11291524Y-14987762D01*
X11501048Y-15073476D02*
X11539143Y-15073476D01*
X11558190Y-15063952D01*
X11567714Y-15054428D01*
X11586762Y-15025857D01*
X11596286Y-14987762D01*
X11596286Y-14911571D01*
X11586762Y-14892524D01*
X11577238Y-14883000D01*
X11558190Y-14873476D01*
X11520095Y-14873476D01*
X11501048Y-14883000D01*
X11491524Y-14892524D01*
X11482000Y-14911571D01*
X11482000Y-14959190D01*
X11491524Y-14978238D01*
X11501048Y-14987762D01*
X11520095Y-14997286D01*
X11558190Y-14997286D01*
X11577238Y-14987762D01*
X11586762Y-14978238D01*
X11596286Y-14959190D01*
X11672476Y-14873476D02*
X11672476Y-14911571D01*
X11748667Y-14873476D02*
X11748667Y-14911571D01*
X12043905Y-15149667D02*
X12034381Y-15140143D01*
X12015333Y-15111571D01*
X12005809Y-15092524D01*
X11996286Y-15063952D01*
X11986762Y-15016333D01*
X11986762Y-14978238D01*
X11996286Y-14930619D01*
X12005809Y-14902048D01*
X12015333Y-14883000D01*
X12034381Y-14854428D01*
X12043905Y-14844905D01*
X12101048Y-14873476D02*
X12224857Y-14873476D01*
X12158190Y-14949667D01*
X12186762Y-14949667D01*
X12205809Y-14959190D01*
X12215333Y-14968714D01*
X12224857Y-14987762D01*
X12224857Y-15035381D01*
X12215333Y-15054428D01*
X12205809Y-15063952D01*
X12186762Y-15073476D01*
X12129619Y-15073476D01*
X12110571Y-15063952D01*
X12101048Y-15054428D01*
X12348667Y-14873476D02*
X12367714Y-14873476D01*
X12386762Y-14883000D01*
X12396286Y-14892524D01*
X12405809Y-14911571D01*
X12415333Y-14949667D01*
X12415333Y-14997286D01*
X12405809Y-15035381D01*
X12396286Y-15054428D01*
X12386762Y-15063952D01*
X12367714Y-15073476D01*
X12348667Y-15073476D01*
X12329619Y-15063952D01*
X12320095Y-15054428D01*
X12310571Y-15035381D01*
X12301048Y-14997286D01*
X12301048Y-14949667D01*
X12310571Y-14911571D01*
X12320095Y-14892524D01*
X12329619Y-14883000D01*
X12348667Y-14873476D01*
X12653428Y-15073476D02*
X12653428Y-14873476D01*
X12739143Y-15073476D02*
X12739143Y-14968714D01*
X12729619Y-14949667D01*
X12710571Y-14940143D01*
X12682000Y-14940143D01*
X12662952Y-14949667D01*
X12653428Y-14959190D01*
X12862952Y-15073476D02*
X12843905Y-15063952D01*
X12834381Y-15054428D01*
X12824857Y-15035381D01*
X12824857Y-14978238D01*
X12834381Y-14959190D01*
X12843905Y-14949667D01*
X12862952Y-14940143D01*
X12891524Y-14940143D01*
X12910571Y-14949667D01*
X12920095Y-14959190D01*
X12929619Y-14978238D01*
X12929619Y-15035381D01*
X12920095Y-15054428D01*
X12910571Y-15063952D01*
X12891524Y-15073476D01*
X12862952Y-15073476D01*
X13043905Y-15073476D02*
X13024857Y-15063952D01*
X13015333Y-15044905D01*
X13015333Y-14873476D01*
X13196286Y-15063952D02*
X13177238Y-15073476D01*
X13139143Y-15073476D01*
X13120095Y-15063952D01*
X13110571Y-15044905D01*
X13110571Y-14968714D01*
X13120095Y-14949667D01*
X13139143Y-14940143D01*
X13177238Y-14940143D01*
X13196286Y-14949667D01*
X13205809Y-14968714D01*
X13205809Y-14987762D01*
X13110571Y-15006809D01*
X13282000Y-15063952D02*
X13301048Y-15073476D01*
X13339143Y-15073476D01*
X13358190Y-15063952D01*
X13367714Y-15044905D01*
X13367714Y-15035381D01*
X13358190Y-15016333D01*
X13339143Y-15006809D01*
X13310571Y-15006809D01*
X13291524Y-14997286D01*
X13282000Y-14978238D01*
X13282000Y-14968714D01*
X13291524Y-14949667D01*
X13310571Y-14940143D01*
X13339143Y-14940143D01*
X13358190Y-14949667D01*
X13434381Y-15149667D02*
X13443905Y-15140143D01*
X13462952Y-15111571D01*
X13472476Y-15092524D01*
X13482000Y-15063952D01*
X13491524Y-15016333D01*
X13491524Y-14978238D01*
X13482000Y-14930619D01*
X13472476Y-14902048D01*
X13462952Y-14883000D01*
X13443905Y-14854428D01*
X13434381Y-14844905D01*
X13796286Y-15149667D02*
X13786762Y-15140143D01*
X13767714Y-15111571D01*
X13758190Y-15092524D01*
X13748667Y-15063952D01*
X13739143Y-15016333D01*
X13739143Y-14978238D01*
X13748667Y-14930619D01*
X13758190Y-14902048D01*
X13767714Y-14883000D01*
X13786762Y-14854428D01*
X13796286Y-14844905D01*
X13872476Y-14940143D02*
X13872476Y-15073476D01*
X13872476Y-14959190D02*
X13882000Y-14949667D01*
X13901048Y-14940143D01*
X13929619Y-14940143D01*
X13948667Y-14949667D01*
X13958190Y-14968714D01*
X13958190Y-15073476D01*
X14082000Y-15073476D02*
X14062952Y-15063952D01*
X14053428Y-15054428D01*
X14043905Y-15035381D01*
X14043905Y-14978238D01*
X14053428Y-14959190D01*
X14062952Y-14949667D01*
X14082000Y-14940143D01*
X14110571Y-14940143D01*
X14129619Y-14949667D01*
X14139143Y-14959190D01*
X14148667Y-14978238D01*
X14148667Y-15035381D01*
X14139143Y-15054428D01*
X14129619Y-15063952D01*
X14110571Y-15073476D01*
X14082000Y-15073476D01*
X14205809Y-14940143D02*
X14282000Y-14940143D01*
X14234381Y-14873476D02*
X14234381Y-15044905D01*
X14243905Y-15063952D01*
X14262952Y-15073476D01*
X14282000Y-15073476D01*
X14501048Y-14940143D02*
X14501048Y-15140143D01*
X14501048Y-14949667D02*
X14520095Y-14940143D01*
X14558190Y-14940143D01*
X14577238Y-14949667D01*
X14586762Y-14959190D01*
X14596286Y-14978238D01*
X14596286Y-15035381D01*
X14586762Y-15054428D01*
X14577238Y-15063952D01*
X14558190Y-15073476D01*
X14520095Y-15073476D01*
X14501048Y-15063952D01*
X14710571Y-15073476D02*
X14691524Y-15063952D01*
X14682000Y-15044905D01*
X14682000Y-14873476D01*
X14872476Y-15073476D02*
X14872476Y-14968714D01*
X14862952Y-14949667D01*
X14843905Y-14940143D01*
X14805809Y-14940143D01*
X14786762Y-14949667D01*
X14872476Y-15063952D02*
X14853428Y-15073476D01*
X14805809Y-15073476D01*
X14786762Y-15063952D01*
X14777238Y-15044905D01*
X14777238Y-15025857D01*
X14786762Y-15006809D01*
X14805809Y-14997286D01*
X14853428Y-14997286D01*
X14872476Y-14987762D01*
X14939143Y-14940143D02*
X15015333Y-14940143D01*
X14967714Y-14873476D02*
X14967714Y-15044905D01*
X14977238Y-15063952D01*
X14996286Y-15073476D01*
X15015333Y-15073476D01*
X15158190Y-15063952D02*
X15139143Y-15073476D01*
X15101048Y-15073476D01*
X15082000Y-15063952D01*
X15072476Y-15044905D01*
X15072476Y-14968714D01*
X15082000Y-14949667D01*
X15101048Y-14940143D01*
X15139143Y-14940143D01*
X15158190Y-14949667D01*
X15167714Y-14968714D01*
X15167714Y-14987762D01*
X15072476Y-15006809D01*
X15339143Y-15073476D02*
X15339143Y-14873476D01*
X15339143Y-15063952D02*
X15320095Y-15073476D01*
X15282000Y-15073476D01*
X15262952Y-15063952D01*
X15253428Y-15054428D01*
X15243905Y-15035381D01*
X15243905Y-14978238D01*
X15253428Y-14959190D01*
X15262952Y-14949667D01*
X15282000Y-14940143D01*
X15320095Y-14940143D01*
X15339143Y-14949667D01*
X15415333Y-15149667D02*
X15424857Y-15140143D01*
X15443905Y-15111571D01*
X15453428Y-15092524D01*
X15462952Y-15063952D01*
X15472476Y-15016333D01*
X15472476Y-14978238D01*
X15462952Y-14930619D01*
X15453428Y-14902048D01*
X15443905Y-14883000D01*
X15424857Y-14854428D01*
X15415333Y-14844905D01*
M02*
