M48
; DRILL file {KiCad (6.0.0)} date Tue Mar  1 21:05:35 2022
; FORMAT={-:-/ absolute / metric / decimal}
; #@! TF.CreationDate,2022-03-01T21:05:35+01:00
; #@! TF.GenerationSoftware,Kicad,Pcbnew,(6.0.0)
; #@! TF.FileFunction,NonPlated,1,2,NPTH
FMAT,2
METRIC
; #@! TA.AperFunction,NonPlated,NPTH,ComponentDrill
T1C1.700
%
G90
G05
T1
X103.418Y-46.602
X103.418Y-56.602
X103.418Y-66.922
X103.418Y-76.922
X103.418Y-87.242
X103.418Y-97.242
X103.418Y-107.562
X103.418Y-117.562
X123.738Y-46.602
X123.738Y-56.602
X123.738Y-66.922
X123.738Y-76.922
X123.738Y-87.242
X123.738Y-97.242
X123.738Y-107.562
X123.738Y-117.562
X144.058Y-46.602
X144.058Y-56.602
X144.058Y-66.922
X144.058Y-76.922
X144.058Y-87.242
X144.058Y-97.242
X144.058Y-107.562
X144.058Y-117.562
X164.378Y-46.602
X164.378Y-56.602
X164.378Y-66.922
X164.378Y-76.922
X164.378Y-87.242
X164.378Y-97.242
T0
M30
