M48
; DRILL file {KiCad (5.1.5)-3} date 09.02.2021 20:58:33
; FORMAT={-:-/ absolute / metric / decimal}
; #@! TF.CreationDate,2021-02-09T20:58:33+01:00
; #@! TF.GenerationSoftware,Kicad,Pcbnew,(5.1.5)-3
; #@! TF.FileFunction,NonPlated,1,2,NPTH
FMAT,2
METRIC
T1C1.700
%
G90
G05
T1
X144.058Y-66.922
X144.058Y-76.922
X144.058Y-46.602
X144.058Y-56.602
X164.378Y-66.922
X164.378Y-76.922
X144.058Y-107.562
X144.058Y-117.562
X123.738Y-107.562
X123.738Y-117.562
X103.418Y-107.562
X103.418Y-117.562
X123.738Y-66.922
X123.738Y-76.922
X164.378Y-46.602
X164.378Y-56.602
X103.418Y-87.242
X103.418Y-97.242
X103.418Y-66.922
X103.418Y-76.922
X123.738Y-46.602
X123.738Y-56.602
X103.418Y-46.602
X103.418Y-56.602
X164.378Y-107.562
X164.378Y-117.562
X144.058Y-87.242
X144.058Y-97.242
X123.738Y-87.242
X123.738Y-97.242
X164.378Y-87.242
X164.378Y-97.242
T0
M30
