G04 #@! TF.GenerationSoftware,KiCad,Pcbnew,(6.0.0)*
G04 #@! TF.CreationDate,2022-03-01T21:04:48+01:00*
G04 #@! TF.ProjectId,Keyboard_v2,4b657962-6f61-4726-945f-76322e6b6963,rev?*
G04 #@! TF.SameCoordinates,Original*
G04 #@! TF.FileFunction,Soldermask,Top*
G04 #@! TF.FilePolarity,Negative*
%FSLAX46Y46*%
G04 Gerber Fmt 4.6, Leading zero omitted, Abs format (unit mm)*
G04 Created by KiCad (PCBNEW (6.0.0)) date 2022-03-01 21:04:48*
%MOMM*%
%LPD*%
G01*
G04 APERTURE LIST*
G04 Aperture macros list*
%AMRoundRect*
0 Rectangle with rounded corners*
0 $1 Rounding radius*
0 $2 $3 $4 $5 $6 $7 $8 $9 X,Y pos of 4 corners*
0 Add a 4 corners polygon primitive as box body*
4,1,4,$2,$3,$4,$5,$6,$7,$8,$9,$2,$3,0*
0 Add four circle primitives for the rounded corners*
1,1,$1+$1,$2,$3*
1,1,$1+$1,$4,$5*
1,1,$1+$1,$6,$7*
1,1,$1+$1,$8,$9*
0 Add four rect primitives between the rounded corners*
20,1,$1+$1,$2,$3,$4,$5,0*
20,1,$1+$1,$4,$5,$6,$7,0*
20,1,$1+$1,$6,$7,$8,$9,0*
20,1,$1+$1,$8,$9,$2,$3,0*%
G04 Aperture macros list end*
G04 #@! TA.AperFunction,Profile*
%ADD10C,0.050000*%
G04 #@! TD*
%ADD11C,1.802000*%
%ADD12RoundRect,0.051000X-0.800000X-0.800000X0.800000X-0.800000X0.800000X0.800000X-0.800000X0.800000X0*%
%ADD13C,1.702000*%
%ADD14RoundRect,0.051000X-0.850000X0.850000X-0.850000X-0.850000X0.850000X-0.850000X0.850000X0.850000X0*%
%ADD15O,1.802000X1.802000*%
G04 APERTURE END LIST*
D10*
X184745000Y-143405000D02*
X84745000Y-143405000D01*
X92150000Y-138500000D02*
G75*
G03*
X92150000Y-138500000I-2400000J0D01*
G01*
X182150000Y-138500000D02*
G75*
G03*
X182150000Y-138500000I-2400000J0D01*
G01*
X182145000Y-130905000D02*
G75*
G03*
X182145000Y-130905000I-2400000J0D01*
G01*
X84745000Y-43405000D02*
X184745000Y-43405000D01*
X84745000Y-143405000D02*
X84745000Y-43405000D01*
X184745000Y-43405000D02*
X184745000Y-143405000D01*
X92150000Y-131000000D02*
G75*
G03*
X92150000Y-131000000I-2400000J0D01*
G01*
X184745000Y-143405000D02*
X84745000Y-143405000D01*
X92150000Y-138500000D02*
G75*
G03*
X92150000Y-138500000I-2400000J0D01*
G01*
X182150000Y-138500000D02*
G75*
G03*
X182150000Y-138500000I-2400000J0D01*
G01*
X182145000Y-130905000D02*
G75*
G03*
X182145000Y-130905000I-2400000J0D01*
G01*
X84745000Y-43405000D02*
X184745000Y-43405000D01*
X84745000Y-143405000D02*
X84745000Y-43405000D01*
X184745000Y-43405000D02*
X184745000Y-143405000D01*
X92150000Y-131000000D02*
G75*
G03*
X92150000Y-131000000I-2400000J0D01*
G01*
D11*
X103418000Y-66922000D03*
X103418000Y-76922000D03*
X98918000Y-69922000D03*
X107918000Y-73922000D03*
X123738000Y-66922000D03*
X123738000Y-76922000D03*
X119238000Y-69922000D03*
X128238000Y-73922000D03*
X144058000Y-76922000D03*
X144058000Y-66922000D03*
X139558000Y-69922000D03*
X148558000Y-73922000D03*
X164378000Y-66922000D03*
X164378000Y-76922000D03*
X159878000Y-69922000D03*
X168878000Y-73922000D03*
X144058000Y-56602000D03*
X144058000Y-46602000D03*
X139558000Y-49602000D03*
X148558000Y-53602000D03*
X164378000Y-46602000D03*
X164378000Y-56602000D03*
X159878000Y-49602000D03*
X168878000Y-53602000D03*
X103418000Y-107562000D03*
X103418000Y-117562000D03*
X98918000Y-110562000D03*
X107918000Y-114562000D03*
X123738000Y-56602000D03*
X123738000Y-46602000D03*
X119238000Y-49602000D03*
X128238000Y-53602000D03*
X164378000Y-97242000D03*
X164378000Y-87242000D03*
X159878000Y-90242000D03*
X168878000Y-94242000D03*
X144058000Y-107562000D03*
X144058000Y-117562000D03*
X139558000Y-110562000D03*
X148558000Y-114562000D03*
D12*
X160020000Y-121285000D03*
D13*
X162560000Y-121285000D03*
X165100000Y-121285000D03*
X167640000Y-121285000D03*
X170180000Y-121285000D03*
X170180000Y-106045000D03*
X167640000Y-106045000D03*
X165100000Y-106045000D03*
X162560000Y-106045000D03*
X160020000Y-106045000D03*
D11*
X144058000Y-87242000D03*
X144058000Y-97242000D03*
X139558000Y-90242000D03*
X148558000Y-94242000D03*
X123738000Y-97242000D03*
X123738000Y-87242000D03*
X119238000Y-90242000D03*
X128238000Y-94242000D03*
X103418000Y-46602000D03*
X103418000Y-56602000D03*
X98918000Y-49602000D03*
X107918000Y-53602000D03*
X103418000Y-97242000D03*
X103418000Y-87242000D03*
X98918000Y-90242000D03*
X107918000Y-94242000D03*
X123738000Y-117562000D03*
X123738000Y-107562000D03*
X119238000Y-110562000D03*
X128238000Y-114562000D03*
D14*
X123835000Y-127070000D03*
D15*
X126375000Y-127070000D03*
X128915000Y-127070000D03*
X131455000Y-127070000D03*
D14*
X111125000Y-127070000D03*
D15*
X113665000Y-127070000D03*
X116205000Y-127070000D03*
X118745000Y-127070000D03*
D14*
X138176000Y-127000000D03*
D15*
X140716000Y-127000000D03*
X143256000Y-127000000D03*
X145796000Y-127000000D03*
X148336000Y-127000000D03*
X150876000Y-127000000D03*
X153416000Y-127000000D03*
X155956000Y-127000000D03*
X158496000Y-127000000D03*
M02*
