M48
; DRILL file {KiCad (5.1.5)-3} date 06.05.2020 23:50:12
; FORMAT={-:-/ absolute / inch / decimal}
; #@! TF.CreationDate,2020-05-06T23:50:12+02:00
; #@! TF.GenerationSoftware,Kicad,Pcbnew,(5.1.5)-3
FMAT,2
INCH
T1C0.0157
T2C0.0236
T3C0.0335
T4C0.0362
T5C0.0394
T6C0.0400
T7C0.0917
T8C0.1063
%
G90
G05
T1
X7.0Y-4.0
X7.0766Y-4.0016
X7.15Y-4.175
T3
X6.9766Y-4.2835
X7.1734Y-4.2835
T4
X7.0388Y-3.7896
X7.0388Y-3.8683
X7.1372Y-3.7896
X7.1372Y-3.8683
T5
X5.2Y-1.9
X5.2Y-2.0
X5.3Y-1.9
X5.3Y-2.0
X5.4Y-1.9
X5.4Y-2.0
X6.35Y-4.2
X6.35Y-4.3
X6.45Y-4.2
X6.45Y-4.3
X4.65Y-4.1
X4.65Y-4.2
X4.65Y-4.3
X4.75Y-4.1
X4.75Y-4.2
X4.75Y-4.3
X6.55Y-1.9
X6.55Y-2.0
X6.55Y-2.1
X6.55Y-2.2
X6.55Y-2.3
X6.55Y-2.4
X6.55Y-2.5
X6.55Y-2.6
X6.55Y-2.7
X6.55Y-2.8
X6.55Y-2.9
X6.55Y-3.0
X6.55Y-3.1
X6.55Y-3.2
X6.55Y-3.3
X6.55Y-3.4
X6.55Y-3.5
X6.55Y-3.6
X6.55Y-3.7
X6.55Y-3.8
X6.55Y-3.9
X6.65Y-1.9
X6.65Y-2.0
X6.65Y-2.1
X6.65Y-2.2
X6.65Y-2.3
X6.65Y-2.4
X6.65Y-2.5
X6.65Y-2.6
X6.65Y-2.7
X6.65Y-2.8
X6.65Y-2.9
X6.65Y-3.0
X6.65Y-3.1
X6.65Y-3.2
X6.65Y-3.3
X6.65Y-3.4
X6.65Y-3.5
X6.65Y-3.6
X6.65Y-3.7
X6.65Y-3.8
X6.65Y-3.9
X6.3Y-1.9
X6.3Y-2.0
X6.3Y-2.1
X6.3Y-2.2
X6.3Y-2.3
X6.3Y-2.4
X6.3Y-2.5
X6.3Y-2.6
X6.3Y-2.7
X6.3Y-2.8
X6.3Y-2.9
X6.3Y-3.0
X6.3Y-3.1
X6.3Y-3.2
X6.3Y-3.3
X6.3Y-3.4
X6.3Y-3.5
X6.3Y-3.6
X6.3Y-3.7
X6.3Y-3.8
X6.3Y-3.9
X6.4Y-1.9
X6.4Y-2.0
X6.4Y-2.1
X6.4Y-2.2
X6.4Y-2.3
X6.4Y-2.4
X6.4Y-2.5
X6.4Y-2.6
X6.4Y-2.7
X6.4Y-2.8
X6.4Y-2.9
X6.4Y-3.0
X6.4Y-3.1
X6.4Y-3.2
X6.4Y-3.3
X6.4Y-3.4
X6.4Y-3.5
X6.4Y-3.6
X6.4Y-3.7
X6.4Y-3.8
X6.4Y-3.9
X4.95Y-1.8
X5.05Y-1.8
X5.15Y-1.8
X5.25Y-1.8
X5.35Y-1.8
X5.45Y-1.8
X5.0Y-1.9
X5.0Y-2.0
X5.0Y-2.1
X5.0Y-2.2
X5.0Y-2.3
X5.0Y-2.4
X5.0Y-2.5
X5.0Y-2.6
X5.0Y-2.7
X5.0Y-2.8
X5.0Y-2.9
X5.0Y-3.0
X5.0Y-3.1
X5.0Y-3.2
X5.0Y-3.3
X5.0Y-3.4
X5.1Y-1.9
X5.1Y-2.0
X5.1Y-2.1
X5.1Y-2.2
X5.1Y-2.3
X5.1Y-2.4
X5.1Y-2.5
X5.1Y-2.6
X5.1Y-2.7
X5.1Y-2.8
X5.1Y-2.9
X5.1Y-3.0
X5.1Y-3.1
X5.1Y-3.2
X5.1Y-3.3
X5.1Y-3.4
X4.75Y-1.9
X4.75Y-2.0
X4.75Y-2.1
X4.75Y-2.2
X4.75Y-2.3
X4.75Y-2.4
X4.75Y-2.5
X4.75Y-2.6
X4.75Y-2.7
X4.75Y-2.8
X4.75Y-2.9
X4.75Y-3.0
X4.75Y-3.1
X4.75Y-3.2
X4.75Y-3.3
X4.75Y-3.4
X4.85Y-1.9
X4.85Y-2.0
X4.85Y-2.1
X4.85Y-2.2
X4.85Y-2.3
X4.85Y-2.4
X4.85Y-2.5
X4.85Y-2.6
X4.85Y-2.7
X4.85Y-2.8
X4.85Y-2.9
X4.85Y-3.0
X4.85Y-3.1
X4.85Y-3.2
X4.85Y-3.3
X4.85Y-3.4
T6
X7.35Y-1.5
X7.35Y-1.6
X7.35Y-1.7
X7.45Y-1.5
X7.45Y-1.6
X7.45Y-1.7
X7.55Y-1.5
X7.55Y-1.6
X7.55Y-1.7
X7.45Y-2.5
X7.45Y-2.6
X7.55Y-2.5
X7.55Y-2.6
X6.55Y-0.9
X7.05Y-1.8
X7.05Y-1.9
X7.15Y-1.8
X7.15Y-1.9
X6.85Y-1.1
X5.05Y-0.9
X3.95Y-0.9
X3.95Y-1.0
X3.95Y-1.1
X4.05Y-0.9
X4.05Y-1.0
X4.05Y-1.1
X4.15Y-0.9
X4.15Y-1.0
X4.15Y-1.1
X7.05Y-3.6
X4.25Y-2.7
X4.25Y-2.8
X4.35Y-2.7
X4.35Y-2.8
X3.95Y-1.5
X3.95Y-1.6
X3.95Y-1.7
X4.05Y-1.5
X4.05Y-1.6
X4.05Y-1.7
X4.15Y-1.5
X4.15Y-1.6
X4.15Y-1.7
X5.15Y-1.6
X5.15Y-1.7
X5.25Y-1.6
X5.25Y-1.7
X5.65Y-1.3
X5.65Y-1.4
X5.65Y-1.5
X5.75Y-1.3
X5.75Y-1.4
X5.75Y-1.5
X5.85Y-1.3
X5.85Y-1.4
X5.85Y-1.5
X6.85Y-1.8
X6.85Y-1.9
X6.95Y-1.8
X6.95Y-1.9
X4.25Y-3.5
X4.25Y-3.6
X4.35Y-3.5
X4.35Y-3.6
X7.55Y-3.5
X6.75Y-3.4
X6.75Y-3.5
X6.85Y-3.4
X6.85Y-3.5
X4.25Y-0.9
X4.25Y-1.0
X4.35Y-0.9
X4.35Y-1.0
X5.65Y-1.8
X6.15Y-0.7
X6.15Y-0.8
X6.25Y-0.7
X6.25Y-0.8
X7.15Y-3.4
X7.15Y-3.5
X7.25Y-3.4
X7.25Y-3.5
X6.75Y-1.6
X6.55Y-1.8
X4.75Y-0.7
X4.75Y-0.8
X4.85Y-0.7
X4.85Y-0.8
X6.75Y-3.0
X4.05Y-0.8
X5.95Y-1.3
X5.95Y-1.4
X5.95Y-1.5
X6.05Y-1.3
X6.05Y-1.4
X6.05Y-1.5
X6.15Y-1.3
X6.15Y-1.4
X6.15Y-1.5
X6.75Y-2.4
X4.75Y-1.0
X4.75Y-1.1
X4.75Y-1.2
X4.85Y-1.0
X4.85Y-1.1
X4.85Y-1.2
X4.95Y-1.0
X4.95Y-1.1
X4.95Y-1.2
X7.25Y-2.2
X7.35Y-1.2
X7.35Y-1.3
X7.35Y-1.4
X7.45Y-1.2
X7.45Y-1.3
X7.45Y-1.4
X7.55Y-1.2
X7.55Y-1.3
X7.55Y-1.4
X7.05Y-2.9
X7.05Y-3.0
X7.15Y-2.9
X7.15Y-3.0
X7.15Y-2.6
X7.15Y-2.7
X7.15Y-2.8
X7.25Y-2.6
X7.25Y-2.7
X7.25Y-2.8
X7.35Y-2.6
X7.35Y-2.7
X7.35Y-2.8
X4.25Y-1.5
X4.25Y-1.6
X4.35Y-1.5
X4.35Y-1.6
X7.15Y-2.3
X7.15Y-2.4
X7.15Y-2.5
X7.25Y-2.3
X7.25Y-2.4
X7.25Y-2.5
X7.35Y-2.3
X7.35Y-2.4
X7.35Y-2.5
X4.25Y-2.1
X4.25Y-2.2
X4.35Y-2.1
X4.35Y-2.2
X3.95Y-3.6
X6.75Y-1.8
X4.55Y-0.9
X7.55Y-2.2
X5.75Y-1.6
X5.75Y-1.7
X5.85Y-1.6
X5.85Y-1.7
X7.05Y-0.9
X6.65Y-1.1
X6.65Y-1.2
X6.75Y-1.1
X6.75Y-1.2
X3.95Y-2.4
X3.95Y-2.5
X3.95Y-2.6
X4.05Y-2.4
X4.05Y-2.5
X4.05Y-2.6
X4.15Y-2.4
X4.15Y-2.5
X4.15Y-2.6
X5.35Y-1.6
X5.35Y-1.7
X5.45Y-1.6
X5.45Y-1.7
X5.05Y-1.0
X5.05Y-1.1
X5.05Y-1.2
X5.15Y-1.0
X5.15Y-1.1
X5.15Y-1.2
X5.25Y-1.0
X5.25Y-1.1
X5.25Y-1.2
X6.85Y-2.3
X6.85Y-2.4
X6.85Y-2.5
X6.95Y-2.3
X6.95Y-2.4
X6.95Y-2.5
X7.05Y-2.3
X7.05Y-2.4
X7.05Y-2.5
X6.65Y-1.8
X5.95Y-0.7
X5.95Y-0.8
X6.05Y-0.7
X6.05Y-0.8
X7.25Y-1.8
X6.85Y-3.1
X6.85Y-3.2
X6.85Y-3.3
X6.95Y-3.1
X6.95Y-3.2
X6.95Y-3.3
X7.05Y-3.1
X7.05Y-3.2
X7.05Y-3.3
X4.75Y-1.8
X6.35Y-1.8
X6.75Y-3.3
X6.75Y-3.2
X5.35Y-1.3
X5.35Y-1.4
X5.35Y-1.5
X5.45Y-1.3
X5.45Y-1.4
X5.45Y-1.5
X5.55Y-1.3
X5.55Y-1.4
X5.55Y-1.5
X4.45Y-2.8
X4.45Y-2.9
X4.45Y-3.0
X4.55Y-2.8
X4.55Y-2.9
X4.55Y-3.0
X4.65Y-2.8
X4.65Y-2.9
X4.65Y-3.0
X7.45Y-2.3
X7.45Y-2.4
X7.55Y-2.3
X7.55Y-2.4
X7.15Y-2.2
X3.95Y-1.8
X3.95Y-1.9
X3.95Y-2.0
X4.05Y-1.8
X4.05Y-1.9
X4.05Y-2.0
X4.15Y-1.8
X4.15Y-1.9
X4.15Y-2.0
X4.25Y-3.1
X4.25Y-3.2
X4.35Y-3.1
X4.35Y-3.2
X6.95Y-0.9
X7.15Y-1.5
X7.15Y-1.6
X7.25Y-1.5
X7.25Y-1.6
X6.05Y-0.9
X7.15Y-0.9
X7.15Y-1.0
X7.25Y-0.9
X7.25Y-1.0
X4.05Y-3.6
X6.75Y-2.1
X7.15Y-1.7
X7.25Y-2.9
X7.25Y-3.0
X7.35Y-2.9
X7.35Y-3.0
X3.95Y-1.2
X3.95Y-1.3
X3.95Y-1.4
X4.05Y-1.2
X4.05Y-1.3
X4.05Y-1.4
X4.15Y-1.2
X4.15Y-1.3
X4.15Y-1.4
X6.75Y-2.3
X4.45Y-0.9
X7.35Y-3.4
X7.35Y-3.5
X7.45Y-3.4
X7.45Y-3.5
X3.95Y-2.1
X3.95Y-2.2
X3.95Y-2.3
X4.05Y-2.1
X4.05Y-2.2
X4.05Y-2.3
X4.15Y-2.1
X4.15Y-2.2
X4.15Y-2.3
X4.45Y-2.5
X4.45Y-2.6
X4.45Y-2.7
X4.55Y-2.5
X4.55Y-2.6
X4.55Y-2.7
X4.65Y-2.5
X4.65Y-2.6
X4.65Y-2.7
X6.95Y-3.6
X6.25Y-1.8
X4.35Y-0.7
X4.35Y-0.8
X4.45Y-0.7
X4.45Y-0.8
X4.45Y-1.3
X4.45Y-1.4
X4.45Y-1.5
X4.55Y-1.3
X4.55Y-1.4
X4.55Y-1.5
X4.65Y-1.3
X4.65Y-1.4
X4.65Y-1.5
X4.85Y-1.8
X4.15Y-0.7
X4.15Y-0.8
X4.25Y-0.7
X4.25Y-0.8
X7.35Y-0.7
X5.95Y-0.9
X6.75Y-2.2
X6.55Y-1.3
X6.55Y-1.4
X6.55Y-1.5
X6.65Y-1.3
X6.65Y-1.4
X6.65Y-1.5
X6.75Y-1.3
X6.75Y-1.4
X6.75Y-1.5
X5.95Y-1.0
X5.95Y-1.1
X5.95Y-1.2
X6.05Y-1.0
X6.05Y-1.1
X6.05Y-1.2
X6.15Y-1.0
X6.15Y-1.1
X6.15Y-1.2
X7.45Y-2.9
X7.45Y-3.0
X7.55Y-2.9
X7.55Y-3.0
X6.95Y-1.0
X7.45Y-2.7
X7.45Y-2.8
X7.55Y-2.7
X7.55Y-2.8
X4.25Y-1.9
X4.25Y-2.0
X4.35Y-1.9
X4.35Y-2.0
X6.95Y-1.1
X6.55Y-1.1
X6.45Y-0.9
X4.25Y-3.3
X4.25Y-3.4
X4.35Y-3.3
X4.35Y-3.4
X4.15Y-3.6
X6.75Y-3.6
X6.75Y-3.7
X6.85Y-3.6
X6.85Y-3.7
X5.85Y-0.9
X6.85Y-2.9
X6.85Y-3.0
X6.95Y-2.9
X6.95Y-3.0
X7.55Y-3.4
X6.25Y-1.3
X6.25Y-1.4
X6.25Y-1.5
X6.35Y-1.3
X6.35Y-1.4
X6.35Y-1.5
X6.45Y-1.3
X6.45Y-1.4
X6.45Y-1.5
X5.55Y-0.9
X4.25Y-2.5
X4.25Y-2.6
X4.35Y-2.5
X4.35Y-2.6
X3.95Y-3.0
X3.95Y-3.1
X3.95Y-3.2
X4.05Y-3.0
X4.05Y-3.1
X4.05Y-3.2
X4.15Y-3.0
X4.15Y-3.1
X4.15Y-3.2
X6.25Y-0.9
X6.35Y-1.6
X6.35Y-1.7
X6.45Y-1.6
X6.45Y-1.7
X6.75Y-0.7
X6.75Y-0.8
X6.85Y-0.7
X6.85Y-0.8
X6.85Y-1.5
X6.85Y-1.6
X6.85Y-1.7
X6.95Y-1.5
X6.95Y-1.6
X6.95Y-1.7
X7.05Y-1.5
X7.05Y-1.6
X7.05Y-1.7
X5.55Y-1.8
X5.35Y-0.7
X5.35Y-0.8
X5.45Y-0.7
X5.45Y-0.8
X7.45Y-0.8
X5.05Y-1.3
X5.05Y-1.4
X5.05Y-1.5
X5.15Y-1.3
X5.15Y-1.4
X5.15Y-1.5
X5.25Y-1.3
X5.25Y-1.4
X5.25Y-1.5
X6.95Y-0.7
X6.95Y-0.8
X7.05Y-0.7
X7.05Y-0.8
X5.25Y-0.9
X4.45Y-2.2
X4.45Y-2.3
X4.45Y-2.4
X4.55Y-2.2
X4.55Y-2.3
X4.55Y-2.4
X4.65Y-2.2
X4.65Y-2.3
X4.65Y-2.4
X7.05Y-1.0
X7.35Y-1.8
X7.35Y-1.9
X7.35Y-2.0
X7.45Y-1.8
X7.45Y-1.9
X7.45Y-2.0
X7.55Y-1.8
X7.55Y-1.9
X7.55Y-2.0
X6.95Y-3.4
X6.95Y-3.5
X7.05Y-3.4
X7.05Y-3.5
X7.25Y-3.6
X4.25Y-1.1
X4.25Y-1.2
X4.35Y-1.1
X4.35Y-1.2
X4.85Y-0.9
X6.65Y-1.0
X6.35Y-0.9
X4.25Y-2.9
X4.25Y-3.0
X4.35Y-2.9
X4.35Y-3.0
X4.95Y-0.7
X4.95Y-0.8
X5.05Y-0.7
X5.05Y-0.8
X5.95Y-1.6
X5.95Y-1.7
X6.05Y-1.6
X6.05Y-1.7
X6.85Y-2.6
X6.85Y-2.7
X6.85Y-2.8
X6.95Y-2.6
X6.95Y-2.7
X6.95Y-2.8
X7.05Y-2.6
X7.05Y-2.7
X7.05Y-2.8
X6.85Y-1.0
X7.45Y-3.3
X6.75Y-2.0
X4.45Y-3.1
X4.45Y-3.2
X4.45Y-3.3
X4.55Y-3.1
X4.55Y-3.2
X4.55Y-3.3
X4.65Y-3.1
X4.65Y-3.2
X4.65Y-3.3
X6.15Y-0.9
X6.35Y-0.7
X6.35Y-0.8
X6.45Y-0.7
X6.45Y-0.8
X6.55Y-1.2
X4.45Y-1.6
X4.45Y-1.7
X4.45Y-1.8
X4.55Y-1.6
X4.55Y-1.7
X4.55Y-1.8
X4.65Y-1.6
X4.65Y-1.7
X4.65Y-1.8
X7.15Y-3.6
X6.15Y-1.8
X5.75Y-0.7
X5.75Y-0.8
X5.85Y-0.7
X5.85Y-0.8
X6.05Y-1.8
X4.55Y-0.7
X4.55Y-0.8
X4.65Y-0.7
X4.65Y-0.8
X6.75Y-2.7
X4.55Y-2.7
X6.75Y-3.1
X4.75Y-1.3
X4.75Y-1.4
X4.75Y-1.5
X4.85Y-1.3
X4.85Y-1.4
X4.85Y-1.5
X4.95Y-1.3
X4.95Y-1.4
X4.95Y-1.5
X4.45Y-2.7
X7.35Y-0.8
X5.45Y-0.9
X7.15Y-3.1
X7.15Y-3.2
X7.15Y-3.3
X7.25Y-3.1
X7.25Y-3.2
X7.25Y-3.3
X7.35Y-3.1
X7.35Y-3.2
X7.35Y-3.3
X7.45Y-3.1
X7.45Y-3.2
X7.55Y-3.1
X7.55Y-3.2
X7.15Y-2.0
X7.15Y-2.1
X7.25Y-2.0
X7.25Y-2.1
X7.05Y-1.1
X4.75Y-0.9
X7.15Y-1.3
X7.15Y-1.4
X7.25Y-1.3
X7.25Y-1.4
X6.85Y-0.9
X4.95Y-1.6
X4.95Y-1.7
X5.05Y-1.6
X5.05Y-1.7
X5.65Y-0.9
X4.25Y-1.3
X4.25Y-1.4
X4.35Y-1.3
X4.35Y-1.4
X3.95Y-3.3
X3.95Y-3.4
X3.95Y-3.5
X4.05Y-3.3
X4.05Y-3.4
X4.05Y-3.5
X4.15Y-3.3
X4.15Y-3.4
X4.15Y-3.5
X6.65Y-0.9
X7.25Y-1.9
X3.95Y-2.7
X3.95Y-2.8
X3.95Y-2.9
X4.05Y-2.7
X4.05Y-2.8
X4.05Y-2.9
X4.15Y-2.7
X4.15Y-2.8
X4.15Y-2.9
X6.75Y-1.9
X5.35Y-1.0
X5.35Y-1.1
X5.35Y-1.2
X5.45Y-1.0
X5.45Y-1.1
X5.45Y-1.2
X5.55Y-1.0
X5.55Y-1.1
X5.55Y-1.2
X6.75Y-0.9
X5.95Y-1.8
X5.55Y-0.7
X5.55Y-0.8
X5.65Y-0.7
X5.65Y-0.8
X4.25Y-1.7
X4.25Y-1.8
X4.35Y-1.7
X4.35Y-1.8
X6.25Y-1.0
X6.25Y-1.1
X6.25Y-1.2
X6.35Y-1.0
X6.35Y-1.1
X6.35Y-1.2
X6.45Y-1.0
X6.45Y-1.1
X6.45Y-1.2
X6.55Y-1.6
X6.55Y-1.7
X6.65Y-1.6
X6.65Y-1.7
X5.85Y-1.8
X6.55Y-0.7
X6.55Y-0.8
X6.65Y-0.7
X6.65Y-0.8
X6.75Y-2.6
X6.85Y-2.0
X6.85Y-2.1
X6.85Y-2.2
X6.95Y-2.0
X6.95Y-2.1
X6.95Y-2.2
X7.05Y-2.0
X7.05Y-2.1
X7.05Y-2.2
X4.45Y-3.4
X4.45Y-3.5
X4.45Y-3.6
X4.55Y-3.4
X4.55Y-3.5
X4.55Y-3.6
X4.65Y-3.4
X4.65Y-3.5
X4.65Y-3.6
X5.65Y-1.0
X5.65Y-1.1
X5.65Y-1.2
X5.75Y-1.0
X5.75Y-1.1
X5.75Y-1.2
X5.85Y-1.0
X5.85Y-1.1
X5.85Y-1.2
X7.35Y-0.9
X7.35Y-1.0
X7.35Y-1.1
X7.45Y-0.9
X7.45Y-1.0
X7.45Y-1.1
X7.55Y-0.9
X7.55Y-1.0
X7.55Y-1.1
X7.35Y-2.1
X7.35Y-2.2
X7.45Y-2.1
X7.45Y-2.2
X4.65Y-0.9
X4.25Y-2.3
X4.25Y-2.4
X4.35Y-2.3
X4.35Y-2.4
X4.95Y-0.9
X7.15Y-1.1
X7.15Y-1.2
X7.25Y-1.1
X7.25Y-1.2
X5.55Y-1.6
X5.55Y-1.7
X5.65Y-1.6
X5.65Y-1.7
X5.35Y-0.9
X6.55Y-1.0
X7.55Y-3.3
X4.75Y-1.6
X4.75Y-1.7
X4.85Y-1.6
X4.85Y-1.7
X5.15Y-0.9
X6.75Y-1.0
X7.55Y-2.1
X6.15Y-1.6
X6.15Y-1.7
X6.25Y-1.6
X6.25Y-1.7
X4.45Y-1.9
X4.45Y-2.0
X4.45Y-2.1
X4.55Y-1.9
X4.55Y-2.0
X4.55Y-2.1
X4.65Y-1.9
X4.65Y-2.0
X4.65Y-2.1
X5.75Y-0.9
X5.75Y-1.8
X5.15Y-0.7
X5.15Y-0.8
X5.25Y-0.7
X5.25Y-0.8
X7.25Y-1.7
X6.75Y-1.7
X6.45Y-1.8
X7.15Y-0.7
X7.15Y-0.8
X7.25Y-0.7
X7.25Y-0.8
X6.75Y-2.8
X6.75Y-2.9
X4.45Y-1.0
X4.45Y-1.1
X4.45Y-1.2
X4.55Y-1.0
X4.55Y-1.1
X4.55Y-1.2
X4.65Y-1.0
X4.65Y-1.1
X4.65Y-1.2
X6.75Y-2.5
X6.85Y-1.2
X6.85Y-1.3
X6.85Y-1.4
X6.95Y-1.2
X6.95Y-1.3
X6.95Y-1.4
X7.05Y-1.2
X7.05Y-1.3
X7.05Y-1.4
T7
X6.851Y-3.975
X7.325Y-3.975
T8
X3.9386Y-4.2843
X3.9386Y-0.675
X7.575Y-0.675
X7.55Y-4.2843
T2
G00X6.9372Y-4.4035
M15
G01X6.9372Y-4.376
M16
G05
G00X7.2128Y-4.376
M15
G01X7.2128Y-4.4035
M16
G05
T5
G00X4.2606Y-3.8
M15
G01X4.3394Y-3.8
M16
G05
G00X4.2606Y-4.0362
M15
G01X4.3394Y-4.0362
M16
G05
G00X4.485Y-3.9575
M15
G01X4.485Y-3.8787
M16
G05
T0
M30
