G04 #@! TF.GenerationSoftware,KiCad,Pcbnew,(5.1.5)-3*
G04 #@! TF.CreationDate,2020-05-06T23:50:08+02:00*
G04 #@! TF.ProjectId,mega_pro_atmega2560,6d656761-5f70-4726-9f5f-61746d656761,rev?*
G04 #@! TF.SameCoordinates,Original*
G04 #@! TF.FileFunction,Legend,Top*
G04 #@! TF.FilePolarity,Positive*
%FSLAX46Y46*%
G04 Gerber Fmt 4.6, Leading zero omitted, Abs format (unit mm)*
G04 Created by KiCad (PCBNEW (5.1.5)-3) date 2020-05-06 23:50:08*
%MOMM*%
%LPD*%
G04 APERTURE LIST*
%ADD10C,0.120000*%
%ADD11C,0.300000*%
%ADD12C,0.150000*%
%ADD13C,0.125000*%
%ADD14C,0.200000*%
%ADD15C,0.100000*%
%ADD16C,0.750000*%
%ADD17C,0.010000*%
%ADD18C,1.500000*%
G04 APERTURE END LIST*
D10*
X175260000Y-93980000D02*
X175260000Y-92710000D01*
X185420000Y-93980000D02*
X175260000Y-93980000D01*
X185420000Y-92710000D02*
X185420000Y-93980000D01*
X170240000Y-46930000D02*
X169608500Y-46926500D01*
X170243500Y-46926500D02*
X170240000Y-46930000D01*
X167195500Y-46926500D02*
X168084500Y-46926500D01*
X165036500Y-46926500D02*
X165608000Y-46926500D01*
X121475500Y-46926500D02*
X122364500Y-46926500D01*
X139255500Y-44386500D02*
X139763500Y-44386500D01*
X136715500Y-44386500D02*
X137604500Y-44386500D01*
X134048500Y-44386500D02*
X135064500Y-44386500D01*
X131635500Y-44386500D02*
X132524500Y-44386500D01*
X129095500Y-44386500D02*
X129984500Y-44386500D01*
X126555500Y-44386500D02*
X127444500Y-44386500D01*
X124968000Y-44386500D02*
X124460000Y-44386500D01*
X123952000Y-46926500D02*
X124523500Y-46926500D01*
X119888000Y-46926500D02*
X119316500Y-46926500D01*
X175260000Y-90170000D02*
X175260000Y-92710000D01*
X185420000Y-90170000D02*
X185420000Y-92710000D01*
X175260000Y-90170000D02*
X185420000Y-90170000D01*
D11*
X123571142Y-103644000D02*
X123428285Y-103572571D01*
X123214000Y-103572571D01*
X122999714Y-103644000D01*
X122856857Y-103786857D01*
X122785428Y-103929714D01*
X122714000Y-104215428D01*
X122714000Y-104429714D01*
X122785428Y-104715428D01*
X122856857Y-104858285D01*
X122999714Y-105001142D01*
X123214000Y-105072571D01*
X123356857Y-105072571D01*
X123571142Y-105001142D01*
X123642571Y-104929714D01*
X123642571Y-104429714D01*
X123356857Y-104429714D01*
X124285428Y-105072571D02*
X124285428Y-103572571D01*
X125142571Y-105072571D01*
X125142571Y-103572571D01*
X125856857Y-105072571D02*
X125856857Y-103572571D01*
X126214000Y-103572571D01*
X126428285Y-103644000D01*
X126571142Y-103786857D01*
X126642571Y-103929714D01*
X126714000Y-104215428D01*
X126714000Y-104429714D01*
X126642571Y-104715428D01*
X126571142Y-104858285D01*
X126428285Y-105001142D01*
X126214000Y-105072571D01*
X125856857Y-105072571D01*
D12*
X140256190Y-77287380D02*
X140256190Y-76287380D01*
X140256190Y-76668333D02*
X140351428Y-76620714D01*
X140541904Y-76620714D01*
X140637142Y-76668333D01*
X140684761Y-76715952D01*
X140732380Y-76811190D01*
X140732380Y-77096904D01*
X140684761Y-77192142D01*
X140637142Y-77239761D01*
X140541904Y-77287380D01*
X140351428Y-77287380D01*
X140256190Y-77239761D01*
X141065714Y-76620714D02*
X141303809Y-77287380D01*
X141541904Y-76620714D02*
X141303809Y-77287380D01*
X141208571Y-77525476D01*
X141160952Y-77573095D01*
X141065714Y-77620714D01*
X143303809Y-76811190D02*
X143256190Y-76763571D01*
X143160952Y-76715952D01*
X143065714Y-76715952D01*
X142970476Y-76763571D01*
X142922857Y-76811190D01*
X142875238Y-76906428D01*
X142875238Y-77001666D01*
X142922857Y-77096904D01*
X142970476Y-77144523D01*
X143065714Y-77192142D01*
X143160952Y-77192142D01*
X143256190Y-77144523D01*
X143303809Y-77096904D01*
X143303809Y-76715952D02*
X143303809Y-77096904D01*
X143351428Y-77144523D01*
X143399047Y-77144523D01*
X143494285Y-77096904D01*
X143541904Y-77001666D01*
X143541904Y-76763571D01*
X143446666Y-76620714D01*
X143303809Y-76525476D01*
X143113333Y-76477857D01*
X142922857Y-76525476D01*
X142780000Y-76620714D01*
X142684761Y-76763571D01*
X142637142Y-76954047D01*
X142684761Y-77144523D01*
X142780000Y-77287380D01*
X142922857Y-77382619D01*
X143113333Y-77430238D01*
X143303809Y-77382619D01*
X143446666Y-77287380D01*
X143970476Y-77287380D02*
X143970476Y-76287380D01*
X143970476Y-76763571D02*
X144541904Y-76763571D01*
X144541904Y-77287380D02*
X144541904Y-76287380D01*
X145018095Y-77287380D02*
X145018095Y-76620714D01*
X145018095Y-76287380D02*
X144970476Y-76335000D01*
X145018095Y-76382619D01*
X145065714Y-76335000D01*
X145018095Y-76287380D01*
X145018095Y-76382619D01*
X145351428Y-76620714D02*
X145732380Y-76620714D01*
X145494285Y-76287380D02*
X145494285Y-77144523D01*
X145541904Y-77239761D01*
X145637142Y-77287380D01*
X145732380Y-77287380D01*
X146065714Y-77287380D02*
X146065714Y-76620714D01*
X146065714Y-76715952D02*
X146113333Y-76668333D01*
X146208571Y-76620714D01*
X146351428Y-76620714D01*
X146446666Y-76668333D01*
X146494285Y-76763571D01*
X146494285Y-77287380D01*
X146494285Y-76763571D02*
X146541904Y-76668333D01*
X146637142Y-76620714D01*
X146779999Y-76620714D01*
X146875238Y-76668333D01*
X146922857Y-76763571D01*
X146922857Y-77287380D01*
X147827619Y-77287380D02*
X147827619Y-76763571D01*
X147779999Y-76668333D01*
X147684761Y-76620714D01*
X147494285Y-76620714D01*
X147399047Y-76668333D01*
X147827619Y-77239761D02*
X147732380Y-77287380D01*
X147494285Y-77287380D01*
X147399047Y-77239761D01*
X147351428Y-77144523D01*
X147351428Y-77049285D01*
X147399047Y-76954047D01*
X147494285Y-76906428D01*
X147732380Y-76906428D01*
X147827619Y-76858809D01*
X148303809Y-77287380D02*
X148303809Y-76620714D01*
X148303809Y-76811190D02*
X148351428Y-76715952D01*
X148399047Y-76668333D01*
X148494285Y-76620714D01*
X148589523Y-76620714D01*
X149303809Y-77239761D02*
X149208571Y-77287380D01*
X149018095Y-77287380D01*
X148922857Y-77239761D01*
X148875238Y-77144523D01*
X148875238Y-76763571D01*
X148922857Y-76668333D01*
X149018095Y-76620714D01*
X149208571Y-76620714D01*
X149303809Y-76668333D01*
X149351428Y-76763571D01*
X149351428Y-76858809D01*
X148875238Y-76954047D01*
X136446666Y-74858571D02*
X136589523Y-74906190D01*
X136637142Y-74953809D01*
X136684761Y-75049047D01*
X136684761Y-75191904D01*
X136637142Y-75287142D01*
X136589523Y-75334761D01*
X136494285Y-75382380D01*
X136113333Y-75382380D01*
X136113333Y-74382380D01*
X136446666Y-74382380D01*
X136541904Y-74430000D01*
X136589523Y-74477619D01*
X136637142Y-74572857D01*
X136637142Y-74668095D01*
X136589523Y-74763333D01*
X136541904Y-74810952D01*
X136446666Y-74858571D01*
X136113333Y-74858571D01*
X137113333Y-75382380D02*
X137113333Y-74715714D01*
X137113333Y-74906190D02*
X137160952Y-74810952D01*
X137208571Y-74763333D01*
X137303809Y-74715714D01*
X137399047Y-74715714D01*
X138113333Y-75334761D02*
X138018095Y-75382380D01*
X137827619Y-75382380D01*
X137732380Y-75334761D01*
X137684761Y-75239523D01*
X137684761Y-74858571D01*
X137732380Y-74763333D01*
X137827619Y-74715714D01*
X138018095Y-74715714D01*
X138113333Y-74763333D01*
X138160952Y-74858571D01*
X138160952Y-74953809D01*
X137684761Y-75049047D01*
X139018095Y-75382380D02*
X139018095Y-74858571D01*
X138970476Y-74763333D01*
X138875238Y-74715714D01*
X138684761Y-74715714D01*
X138589523Y-74763333D01*
X139018095Y-75334761D02*
X138922857Y-75382380D01*
X138684761Y-75382380D01*
X138589523Y-75334761D01*
X138541904Y-75239523D01*
X138541904Y-75144285D01*
X138589523Y-75049047D01*
X138684761Y-75001428D01*
X138922857Y-75001428D01*
X139018095Y-74953809D01*
X139922857Y-75382380D02*
X139922857Y-74382380D01*
X139922857Y-75334761D02*
X139827619Y-75382380D01*
X139637142Y-75382380D01*
X139541904Y-75334761D01*
X139494285Y-75287142D01*
X139446666Y-75191904D01*
X139446666Y-74906190D01*
X139494285Y-74810952D01*
X139541904Y-74763333D01*
X139637142Y-74715714D01*
X139827619Y-74715714D01*
X139922857Y-74763333D01*
X140399047Y-75382380D02*
X140399047Y-74382380D01*
X140399047Y-74763333D02*
X140494285Y-74715714D01*
X140684761Y-74715714D01*
X140780000Y-74763333D01*
X140827619Y-74810952D01*
X140875238Y-74906190D01*
X140875238Y-75191904D01*
X140827619Y-75287142D01*
X140780000Y-75334761D01*
X140684761Y-75382380D01*
X140494285Y-75382380D01*
X140399047Y-75334761D01*
X141446666Y-75382380D02*
X141351428Y-75334761D01*
X141303809Y-75287142D01*
X141256190Y-75191904D01*
X141256190Y-74906190D01*
X141303809Y-74810952D01*
X141351428Y-74763333D01*
X141446666Y-74715714D01*
X141589523Y-74715714D01*
X141684761Y-74763333D01*
X141732380Y-74810952D01*
X141780000Y-74906190D01*
X141780000Y-75191904D01*
X141732380Y-75287142D01*
X141684761Y-75334761D01*
X141589523Y-75382380D01*
X141446666Y-75382380D01*
X142637142Y-75382380D02*
X142637142Y-74858571D01*
X142589523Y-74763333D01*
X142494285Y-74715714D01*
X142303809Y-74715714D01*
X142208571Y-74763333D01*
X142637142Y-75334761D02*
X142541904Y-75382380D01*
X142303809Y-75382380D01*
X142208571Y-75334761D01*
X142160952Y-75239523D01*
X142160952Y-75144285D01*
X142208571Y-75049047D01*
X142303809Y-75001428D01*
X142541904Y-75001428D01*
X142637142Y-74953809D01*
X143113333Y-75382380D02*
X143113333Y-74715714D01*
X143113333Y-74906190D02*
X143160952Y-74810952D01*
X143208571Y-74763333D01*
X143303809Y-74715714D01*
X143399047Y-74715714D01*
X144160952Y-75382380D02*
X144160952Y-74382380D01*
X144160952Y-75334761D02*
X144065714Y-75382380D01*
X143875238Y-75382380D01*
X143780000Y-75334761D01*
X143732380Y-75287142D01*
X143684761Y-75191904D01*
X143684761Y-74906190D01*
X143732380Y-74810952D01*
X143780000Y-74763333D01*
X143875238Y-74715714D01*
X144065714Y-74715714D01*
X144160952Y-74763333D01*
X145351428Y-75334761D02*
X145494285Y-75382380D01*
X145732380Y-75382380D01*
X145827619Y-75334761D01*
X145875238Y-75287142D01*
X145922857Y-75191904D01*
X145922857Y-75096666D01*
X145875238Y-75001428D01*
X145827619Y-74953809D01*
X145732380Y-74906190D01*
X145541904Y-74858571D01*
X145446666Y-74810952D01*
X145399047Y-74763333D01*
X145351428Y-74668095D01*
X145351428Y-74572857D01*
X145399047Y-74477619D01*
X145446666Y-74430000D01*
X145541904Y-74382380D01*
X145780000Y-74382380D01*
X145922857Y-74430000D01*
X146351428Y-75382380D02*
X146351428Y-74382380D01*
X146780000Y-75382380D02*
X146780000Y-74858571D01*
X146732380Y-74763333D01*
X146637142Y-74715714D01*
X146494285Y-74715714D01*
X146399047Y-74763333D01*
X146351428Y-74810952D01*
X147256190Y-75382380D02*
X147256190Y-74715714D01*
X147256190Y-74382380D02*
X147208571Y-74430000D01*
X147256190Y-74477619D01*
X147303809Y-74430000D01*
X147256190Y-74382380D01*
X147256190Y-74477619D01*
X148113333Y-75334761D02*
X148018095Y-75382380D01*
X147827619Y-75382380D01*
X147732380Y-75334761D01*
X147684761Y-75239523D01*
X147684761Y-74858571D01*
X147732380Y-74763333D01*
X147827619Y-74715714D01*
X148018095Y-74715714D01*
X148113333Y-74763333D01*
X148160952Y-74858571D01*
X148160952Y-74953809D01*
X147684761Y-75049047D01*
X148732380Y-75382380D02*
X148637142Y-75334761D01*
X148589523Y-75239523D01*
X148589523Y-74382380D01*
X149541904Y-75382380D02*
X149541904Y-74382380D01*
X149541904Y-75334761D02*
X149446666Y-75382380D01*
X149256190Y-75382380D01*
X149160952Y-75334761D01*
X149113333Y-75287142D01*
X149065714Y-75191904D01*
X149065714Y-74906190D01*
X149113333Y-74810952D01*
X149160952Y-74763333D01*
X149256190Y-74715714D01*
X149446666Y-74715714D01*
X149541904Y-74763333D01*
X150684761Y-74715714D02*
X150922857Y-75382380D01*
X151160952Y-74715714D01*
X152065714Y-75382380D02*
X151494285Y-75382380D01*
X151780000Y-75382380D02*
X151780000Y-74382380D01*
X151684761Y-74525238D01*
X151589523Y-74620476D01*
X151494285Y-74668095D01*
X152494285Y-75287142D02*
X152541904Y-75334761D01*
X152494285Y-75382380D01*
X152446666Y-75334761D01*
X152494285Y-75287142D01*
X152494285Y-75382380D01*
X153160952Y-74382380D02*
X153256190Y-74382380D01*
X153351428Y-74430000D01*
X153399047Y-74477619D01*
X153446666Y-74572857D01*
X153494285Y-74763333D01*
X153494285Y-75001428D01*
X153446666Y-75191904D01*
X153399047Y-75287142D01*
X153351428Y-75334761D01*
X153256190Y-75382380D01*
X153160952Y-75382380D01*
X153065714Y-75334761D01*
X153018095Y-75287142D01*
X152970476Y-75191904D01*
X152922857Y-75001428D01*
X152922857Y-74763333D01*
X152970476Y-74572857D01*
X153018095Y-74477619D01*
X153065714Y-74430000D01*
X153160952Y-74382380D01*
X135399047Y-73477380D02*
X135399047Y-72477380D01*
X135732380Y-73191666D01*
X136065714Y-72477380D01*
X136065714Y-73477380D01*
X136922857Y-73429761D02*
X136827619Y-73477380D01*
X136637142Y-73477380D01*
X136541904Y-73429761D01*
X136494285Y-73334523D01*
X136494285Y-72953571D01*
X136541904Y-72858333D01*
X136637142Y-72810714D01*
X136827619Y-72810714D01*
X136922857Y-72858333D01*
X136970476Y-72953571D01*
X136970476Y-73048809D01*
X136494285Y-73144047D01*
X137827619Y-72810714D02*
X137827619Y-73620238D01*
X137780000Y-73715476D01*
X137732380Y-73763095D01*
X137637142Y-73810714D01*
X137494285Y-73810714D01*
X137399047Y-73763095D01*
X137827619Y-73429761D02*
X137732380Y-73477380D01*
X137541904Y-73477380D01*
X137446666Y-73429761D01*
X137399047Y-73382142D01*
X137351428Y-73286904D01*
X137351428Y-73001190D01*
X137399047Y-72905952D01*
X137446666Y-72858333D01*
X137541904Y-72810714D01*
X137732380Y-72810714D01*
X137827619Y-72858333D01*
X138732380Y-73477380D02*
X138732380Y-72953571D01*
X138684761Y-72858333D01*
X138589523Y-72810714D01*
X138399047Y-72810714D01*
X138303809Y-72858333D01*
X138732380Y-73429761D02*
X138637142Y-73477380D01*
X138399047Y-73477380D01*
X138303809Y-73429761D01*
X138256190Y-73334523D01*
X138256190Y-73239285D01*
X138303809Y-73144047D01*
X138399047Y-73096428D01*
X138637142Y-73096428D01*
X138732380Y-73048809D01*
X139922857Y-72572619D02*
X139970476Y-72525000D01*
X140065714Y-72477380D01*
X140303809Y-72477380D01*
X140399047Y-72525000D01*
X140446666Y-72572619D01*
X140494285Y-72667857D01*
X140494285Y-72763095D01*
X140446666Y-72905952D01*
X139875238Y-73477380D01*
X140494285Y-73477380D01*
X141399047Y-72477380D02*
X140922857Y-72477380D01*
X140875238Y-72953571D01*
X140922857Y-72905952D01*
X141018095Y-72858333D01*
X141256190Y-72858333D01*
X141351428Y-72905952D01*
X141399047Y-72953571D01*
X141446666Y-73048809D01*
X141446666Y-73286904D01*
X141399047Y-73382142D01*
X141351428Y-73429761D01*
X141256190Y-73477380D01*
X141018095Y-73477380D01*
X140922857Y-73429761D01*
X140875238Y-73382142D01*
X142303809Y-72477380D02*
X142113333Y-72477380D01*
X142018095Y-72525000D01*
X141970476Y-72572619D01*
X141875238Y-72715476D01*
X141827619Y-72905952D01*
X141827619Y-73286904D01*
X141875238Y-73382142D01*
X141922857Y-73429761D01*
X142018095Y-73477380D01*
X142208571Y-73477380D01*
X142303809Y-73429761D01*
X142351428Y-73382142D01*
X142399047Y-73286904D01*
X142399047Y-73048809D01*
X142351428Y-72953571D01*
X142303809Y-72905952D01*
X142208571Y-72858333D01*
X142018095Y-72858333D01*
X141922857Y-72905952D01*
X141875238Y-72953571D01*
X141827619Y-73048809D01*
X143018095Y-72477380D02*
X143113333Y-72477380D01*
X143208571Y-72525000D01*
X143256190Y-72572619D01*
X143303809Y-72667857D01*
X143351428Y-72858333D01*
X143351428Y-73096428D01*
X143303809Y-73286904D01*
X143256190Y-73382142D01*
X143208571Y-73429761D01*
X143113333Y-73477380D01*
X143018095Y-73477380D01*
X142922857Y-73429761D01*
X142875238Y-73382142D01*
X142827619Y-73286904D01*
X142780000Y-73096428D01*
X142780000Y-72858333D01*
X142827619Y-72667857D01*
X142875238Y-72572619D01*
X142922857Y-72525000D01*
X143018095Y-72477380D01*
X144541904Y-73477380D02*
X144541904Y-72477380D01*
X144922857Y-72477380D01*
X145018095Y-72525000D01*
X145065714Y-72572619D01*
X145113333Y-72667857D01*
X145113333Y-72810714D01*
X145065714Y-72905952D01*
X145018095Y-72953571D01*
X144922857Y-73001190D01*
X144541904Y-73001190D01*
X146113333Y-73477380D02*
X145780000Y-73001190D01*
X145541904Y-73477380D02*
X145541904Y-72477380D01*
X145922857Y-72477380D01*
X146018095Y-72525000D01*
X146065714Y-72572619D01*
X146113333Y-72667857D01*
X146113333Y-72810714D01*
X146065714Y-72905952D01*
X146018095Y-72953571D01*
X145922857Y-73001190D01*
X145541904Y-73001190D01*
X146732380Y-72477380D02*
X146922857Y-72477380D01*
X147018095Y-72525000D01*
X147113333Y-72620238D01*
X147160952Y-72810714D01*
X147160952Y-73144047D01*
X147113333Y-73334523D01*
X147018095Y-73429761D01*
X146922857Y-73477380D01*
X146732380Y-73477380D01*
X146637142Y-73429761D01*
X146541904Y-73334523D01*
X146494285Y-73144047D01*
X146494285Y-72810714D01*
X146541904Y-72620238D01*
X146637142Y-72525000D01*
X146732380Y-72477380D01*
X148637142Y-73858333D02*
X148589523Y-73810714D01*
X148494285Y-73667857D01*
X148446666Y-73572619D01*
X148399047Y-73429761D01*
X148351428Y-73191666D01*
X148351428Y-73001190D01*
X148399047Y-72763095D01*
X148446666Y-72620238D01*
X148494285Y-72525000D01*
X148589523Y-72382142D01*
X148637142Y-72334523D01*
X149018095Y-72953571D02*
X149351428Y-72953571D01*
X149494285Y-73477380D02*
X149018095Y-73477380D01*
X149018095Y-72477380D01*
X149494285Y-72477380D01*
X149922857Y-73477380D02*
X149922857Y-72477380D01*
X150256190Y-73191666D01*
X150589523Y-72477380D01*
X150589523Y-73477380D01*
X151399047Y-72953571D02*
X151541904Y-73001190D01*
X151589523Y-73048809D01*
X151637142Y-73144047D01*
X151637142Y-73286904D01*
X151589523Y-73382142D01*
X151541904Y-73429761D01*
X151446666Y-73477380D01*
X151065714Y-73477380D01*
X151065714Y-72477380D01*
X151399047Y-72477380D01*
X151494285Y-72525000D01*
X151541904Y-72572619D01*
X151589523Y-72667857D01*
X151589523Y-72763095D01*
X151541904Y-72858333D01*
X151494285Y-72905952D01*
X151399047Y-72953571D01*
X151065714Y-72953571D01*
X152065714Y-72953571D02*
X152399047Y-72953571D01*
X152541904Y-73477380D02*
X152065714Y-73477380D01*
X152065714Y-72477380D01*
X152541904Y-72477380D01*
X152970476Y-73477380D02*
X152970476Y-72477380D01*
X153208571Y-72477380D01*
X153351428Y-72525000D01*
X153446666Y-72620238D01*
X153494285Y-72715476D01*
X153541904Y-72905952D01*
X153541904Y-73048809D01*
X153494285Y-73239285D01*
X153446666Y-73334523D01*
X153351428Y-73429761D01*
X153208571Y-73477380D01*
X152970476Y-73477380D01*
X153875238Y-73858333D02*
X153922857Y-73810714D01*
X154018095Y-73667857D01*
X154065714Y-73572619D01*
X154113333Y-73429761D01*
X154160952Y-73191666D01*
X154160952Y-73001190D01*
X154113333Y-72763095D01*
X154065714Y-72620238D01*
X154018095Y-72525000D01*
X153922857Y-72382142D01*
X153875238Y-72334523D01*
D13*
X165560476Y-87713333D02*
X165798571Y-87713333D01*
X165512857Y-87856190D02*
X165679523Y-87356190D01*
X165846190Y-87856190D01*
X166298571Y-87856190D02*
X166131904Y-87618095D01*
X166012857Y-87856190D02*
X166012857Y-87356190D01*
X166203333Y-87356190D01*
X166250952Y-87380000D01*
X166274761Y-87403809D01*
X166298571Y-87451428D01*
X166298571Y-87522857D01*
X166274761Y-87570476D01*
X166250952Y-87594285D01*
X166203333Y-87618095D01*
X166012857Y-87618095D01*
X166512857Y-87594285D02*
X166679523Y-87594285D01*
X166750952Y-87856190D02*
X166512857Y-87856190D01*
X166512857Y-87356190D01*
X166750952Y-87356190D01*
X167131904Y-87594285D02*
X166965238Y-87594285D01*
X166965238Y-87856190D02*
X166965238Y-87356190D01*
X167203333Y-87356190D01*
X168636190Y-87856190D02*
X168469523Y-87618095D01*
X168350476Y-87856190D02*
X168350476Y-87356190D01*
X168540952Y-87356190D01*
X168588571Y-87380000D01*
X168612380Y-87403809D01*
X168636190Y-87451428D01*
X168636190Y-87522857D01*
X168612380Y-87570476D01*
X168588571Y-87594285D01*
X168540952Y-87618095D01*
X168350476Y-87618095D01*
X168826666Y-87832380D02*
X168898095Y-87856190D01*
X169017142Y-87856190D01*
X169064761Y-87832380D01*
X169088571Y-87808571D01*
X169112380Y-87760952D01*
X169112380Y-87713333D01*
X169088571Y-87665714D01*
X169064761Y-87641904D01*
X169017142Y-87618095D01*
X168921904Y-87594285D01*
X168874285Y-87570476D01*
X168850476Y-87546666D01*
X168826666Y-87499047D01*
X168826666Y-87451428D01*
X168850476Y-87403809D01*
X168874285Y-87380000D01*
X168921904Y-87356190D01*
X169040952Y-87356190D01*
X169112380Y-87380000D01*
X169255238Y-87356190D02*
X169540952Y-87356190D01*
X169398095Y-87856190D02*
X169398095Y-87356190D01*
X166000952Y-82776190D02*
X166000952Y-82276190D01*
X166120000Y-82276190D01*
X166191428Y-82300000D01*
X166239047Y-82347619D01*
X166262857Y-82395238D01*
X166286666Y-82490476D01*
X166286666Y-82561904D01*
X166262857Y-82657142D01*
X166239047Y-82704761D01*
X166191428Y-82752380D01*
X166120000Y-82776190D01*
X166000952Y-82776190D01*
X166477142Y-82323809D02*
X166500952Y-82300000D01*
X166548571Y-82276190D01*
X166667619Y-82276190D01*
X166715238Y-82300000D01*
X166739047Y-82323809D01*
X166762857Y-82371428D01*
X166762857Y-82419047D01*
X166739047Y-82490476D01*
X166453333Y-82776190D01*
X166762857Y-82776190D01*
X168540952Y-82776190D02*
X168540952Y-82276190D01*
X168660000Y-82276190D01*
X168731428Y-82300000D01*
X168779047Y-82347619D01*
X168802857Y-82395238D01*
X168826666Y-82490476D01*
X168826666Y-82561904D01*
X168802857Y-82657142D01*
X168779047Y-82704761D01*
X168731428Y-82752380D01*
X168660000Y-82776190D01*
X168540952Y-82776190D01*
X168993333Y-82276190D02*
X169302857Y-82276190D01*
X169136190Y-82466666D01*
X169207619Y-82466666D01*
X169255238Y-82490476D01*
X169279047Y-82514285D01*
X169302857Y-82561904D01*
X169302857Y-82680952D01*
X169279047Y-82728571D01*
X169255238Y-82752380D01*
X169207619Y-82776190D01*
X169064761Y-82776190D01*
X169017142Y-82752380D01*
X168993333Y-82728571D01*
X166286666Y-85316190D02*
X166120000Y-85078095D01*
X166000952Y-85316190D02*
X166000952Y-84816190D01*
X166191428Y-84816190D01*
X166239047Y-84840000D01*
X166262857Y-84863809D01*
X166286666Y-84911428D01*
X166286666Y-84982857D01*
X166262857Y-85030476D01*
X166239047Y-85054285D01*
X166191428Y-85078095D01*
X166000952Y-85078095D01*
X166453333Y-84816190D02*
X166786666Y-85316190D01*
X166786666Y-84816190D02*
X166453333Y-85316190D01*
X168529047Y-84816190D02*
X168814761Y-84816190D01*
X168671904Y-85316190D02*
X168671904Y-84816190D01*
X168933809Y-84816190D02*
X169267142Y-85316190D01*
X169267142Y-84816190D02*
X168933809Y-85316190D01*
X166000952Y-77696190D02*
X166000952Y-77196190D01*
X166120000Y-77196190D01*
X166191428Y-77220000D01*
X166239047Y-77267619D01*
X166262857Y-77315238D01*
X166286666Y-77410476D01*
X166286666Y-77481904D01*
X166262857Y-77577142D01*
X166239047Y-77624761D01*
X166191428Y-77672380D01*
X166120000Y-77696190D01*
X166000952Y-77696190D01*
X166715238Y-77196190D02*
X166620000Y-77196190D01*
X166572380Y-77220000D01*
X166548571Y-77243809D01*
X166500952Y-77315238D01*
X166477142Y-77410476D01*
X166477142Y-77600952D01*
X166500952Y-77648571D01*
X166524761Y-77672380D01*
X166572380Y-77696190D01*
X166667619Y-77696190D01*
X166715238Y-77672380D01*
X166739047Y-77648571D01*
X166762857Y-77600952D01*
X166762857Y-77481904D01*
X166739047Y-77434285D01*
X166715238Y-77410476D01*
X166667619Y-77386666D01*
X166572380Y-77386666D01*
X166524761Y-77410476D01*
X166500952Y-77434285D01*
X166477142Y-77481904D01*
X168540952Y-77696190D02*
X168540952Y-77196190D01*
X168660000Y-77196190D01*
X168731428Y-77220000D01*
X168779047Y-77267619D01*
X168802857Y-77315238D01*
X168826666Y-77410476D01*
X168826666Y-77481904D01*
X168802857Y-77577142D01*
X168779047Y-77624761D01*
X168731428Y-77672380D01*
X168660000Y-77696190D01*
X168540952Y-77696190D01*
X168993333Y-77196190D02*
X169326666Y-77196190D01*
X169112380Y-77696190D01*
X166000952Y-80236190D02*
X166000952Y-79736190D01*
X166120000Y-79736190D01*
X166191428Y-79760000D01*
X166239047Y-79807619D01*
X166262857Y-79855238D01*
X166286666Y-79950476D01*
X166286666Y-80021904D01*
X166262857Y-80117142D01*
X166239047Y-80164761D01*
X166191428Y-80212380D01*
X166120000Y-80236190D01*
X166000952Y-80236190D01*
X166715238Y-79902857D02*
X166715238Y-80236190D01*
X166596190Y-79712380D02*
X166477142Y-80069523D01*
X166786666Y-80069523D01*
X168540952Y-80236190D02*
X168540952Y-79736190D01*
X168660000Y-79736190D01*
X168731428Y-79760000D01*
X168779047Y-79807619D01*
X168802857Y-79855238D01*
X168826666Y-79950476D01*
X168826666Y-80021904D01*
X168802857Y-80117142D01*
X168779047Y-80164761D01*
X168731428Y-80212380D01*
X168660000Y-80236190D01*
X168540952Y-80236190D01*
X169279047Y-79736190D02*
X169040952Y-79736190D01*
X169017142Y-79974285D01*
X169040952Y-79950476D01*
X169088571Y-79926666D01*
X169207619Y-79926666D01*
X169255238Y-79950476D01*
X169279047Y-79974285D01*
X169302857Y-80021904D01*
X169302857Y-80140952D01*
X169279047Y-80188571D01*
X169255238Y-80212380D01*
X169207619Y-80236190D01*
X169088571Y-80236190D01*
X169040952Y-80212380D01*
X169017142Y-80188571D01*
X165762857Y-72616190D02*
X165762857Y-72116190D01*
X165881904Y-72116190D01*
X165953333Y-72140000D01*
X166000952Y-72187619D01*
X166024761Y-72235238D01*
X166048571Y-72330476D01*
X166048571Y-72401904D01*
X166024761Y-72497142D01*
X166000952Y-72544761D01*
X165953333Y-72592380D01*
X165881904Y-72616190D01*
X165762857Y-72616190D01*
X166524761Y-72616190D02*
X166239047Y-72616190D01*
X166381904Y-72616190D02*
X166381904Y-72116190D01*
X166334285Y-72187619D01*
X166286666Y-72235238D01*
X166239047Y-72259047D01*
X166834285Y-72116190D02*
X166881904Y-72116190D01*
X166929523Y-72140000D01*
X166953333Y-72163809D01*
X166977142Y-72211428D01*
X167000952Y-72306666D01*
X167000952Y-72425714D01*
X166977142Y-72520952D01*
X166953333Y-72568571D01*
X166929523Y-72592380D01*
X166881904Y-72616190D01*
X166834285Y-72616190D01*
X166786666Y-72592380D01*
X166762857Y-72568571D01*
X166739047Y-72520952D01*
X166715238Y-72425714D01*
X166715238Y-72306666D01*
X166739047Y-72211428D01*
X166762857Y-72163809D01*
X166786666Y-72140000D01*
X166834285Y-72116190D01*
X168302857Y-72616190D02*
X168302857Y-72116190D01*
X168421904Y-72116190D01*
X168493333Y-72140000D01*
X168540952Y-72187619D01*
X168564761Y-72235238D01*
X168588571Y-72330476D01*
X168588571Y-72401904D01*
X168564761Y-72497142D01*
X168540952Y-72544761D01*
X168493333Y-72592380D01*
X168421904Y-72616190D01*
X168302857Y-72616190D01*
X169064761Y-72616190D02*
X168779047Y-72616190D01*
X168921904Y-72616190D02*
X168921904Y-72116190D01*
X168874285Y-72187619D01*
X168826666Y-72235238D01*
X168779047Y-72259047D01*
X169540952Y-72616190D02*
X169255238Y-72616190D01*
X169398095Y-72616190D02*
X169398095Y-72116190D01*
X169350476Y-72187619D01*
X169302857Y-72235238D01*
X169255238Y-72259047D01*
X166000952Y-75156190D02*
X166000952Y-74656190D01*
X166120000Y-74656190D01*
X166191428Y-74680000D01*
X166239047Y-74727619D01*
X166262857Y-74775238D01*
X166286666Y-74870476D01*
X166286666Y-74941904D01*
X166262857Y-75037142D01*
X166239047Y-75084761D01*
X166191428Y-75132380D01*
X166120000Y-75156190D01*
X166000952Y-75156190D01*
X166572380Y-74870476D02*
X166524761Y-74846666D01*
X166500952Y-74822857D01*
X166477142Y-74775238D01*
X166477142Y-74751428D01*
X166500952Y-74703809D01*
X166524761Y-74680000D01*
X166572380Y-74656190D01*
X166667619Y-74656190D01*
X166715238Y-74680000D01*
X166739047Y-74703809D01*
X166762857Y-74751428D01*
X166762857Y-74775238D01*
X166739047Y-74822857D01*
X166715238Y-74846666D01*
X166667619Y-74870476D01*
X166572380Y-74870476D01*
X166524761Y-74894285D01*
X166500952Y-74918095D01*
X166477142Y-74965714D01*
X166477142Y-75060952D01*
X166500952Y-75108571D01*
X166524761Y-75132380D01*
X166572380Y-75156190D01*
X166667619Y-75156190D01*
X166715238Y-75132380D01*
X166739047Y-75108571D01*
X166762857Y-75060952D01*
X166762857Y-74965714D01*
X166739047Y-74918095D01*
X166715238Y-74894285D01*
X166667619Y-74870476D01*
X168540952Y-75156190D02*
X168540952Y-74656190D01*
X168660000Y-74656190D01*
X168731428Y-74680000D01*
X168779047Y-74727619D01*
X168802857Y-74775238D01*
X168826666Y-74870476D01*
X168826666Y-74941904D01*
X168802857Y-75037142D01*
X168779047Y-75084761D01*
X168731428Y-75132380D01*
X168660000Y-75156190D01*
X168540952Y-75156190D01*
X169064761Y-75156190D02*
X169160000Y-75156190D01*
X169207619Y-75132380D01*
X169231428Y-75108571D01*
X169279047Y-75037142D01*
X169302857Y-74941904D01*
X169302857Y-74751428D01*
X169279047Y-74703809D01*
X169255238Y-74680000D01*
X169207619Y-74656190D01*
X169112380Y-74656190D01*
X169064761Y-74680000D01*
X169040952Y-74703809D01*
X169017142Y-74751428D01*
X169017142Y-74870476D01*
X169040952Y-74918095D01*
X169064761Y-74941904D01*
X169112380Y-74965714D01*
X169207619Y-74965714D01*
X169255238Y-74941904D01*
X169279047Y-74918095D01*
X169302857Y-74870476D01*
X165762857Y-67536190D02*
X165762857Y-67036190D01*
X165881904Y-67036190D01*
X165953333Y-67060000D01*
X166000952Y-67107619D01*
X166024761Y-67155238D01*
X166048571Y-67250476D01*
X166048571Y-67321904D01*
X166024761Y-67417142D01*
X166000952Y-67464761D01*
X165953333Y-67512380D01*
X165881904Y-67536190D01*
X165762857Y-67536190D01*
X166524761Y-67536190D02*
X166239047Y-67536190D01*
X166381904Y-67536190D02*
X166381904Y-67036190D01*
X166334285Y-67107619D01*
X166286666Y-67155238D01*
X166239047Y-67179047D01*
X166953333Y-67202857D02*
X166953333Y-67536190D01*
X166834285Y-67012380D02*
X166715238Y-67369523D01*
X167024761Y-67369523D01*
X168302857Y-67536190D02*
X168302857Y-67036190D01*
X168421904Y-67036190D01*
X168493333Y-67060000D01*
X168540952Y-67107619D01*
X168564761Y-67155238D01*
X168588571Y-67250476D01*
X168588571Y-67321904D01*
X168564761Y-67417142D01*
X168540952Y-67464761D01*
X168493333Y-67512380D01*
X168421904Y-67536190D01*
X168302857Y-67536190D01*
X169064761Y-67536190D02*
X168779047Y-67536190D01*
X168921904Y-67536190D02*
X168921904Y-67036190D01*
X168874285Y-67107619D01*
X168826666Y-67155238D01*
X168779047Y-67179047D01*
X169517142Y-67036190D02*
X169279047Y-67036190D01*
X169255238Y-67274285D01*
X169279047Y-67250476D01*
X169326666Y-67226666D01*
X169445714Y-67226666D01*
X169493333Y-67250476D01*
X169517142Y-67274285D01*
X169540952Y-67321904D01*
X169540952Y-67440952D01*
X169517142Y-67488571D01*
X169493333Y-67512380D01*
X169445714Y-67536190D01*
X169326666Y-67536190D01*
X169279047Y-67512380D01*
X169255238Y-67488571D01*
X165762857Y-70076190D02*
X165762857Y-69576190D01*
X165881904Y-69576190D01*
X165953333Y-69600000D01*
X166000952Y-69647619D01*
X166024761Y-69695238D01*
X166048571Y-69790476D01*
X166048571Y-69861904D01*
X166024761Y-69957142D01*
X166000952Y-70004761D01*
X165953333Y-70052380D01*
X165881904Y-70076190D01*
X165762857Y-70076190D01*
X166524761Y-70076190D02*
X166239047Y-70076190D01*
X166381904Y-70076190D02*
X166381904Y-69576190D01*
X166334285Y-69647619D01*
X166286666Y-69695238D01*
X166239047Y-69719047D01*
X166715238Y-69623809D02*
X166739047Y-69600000D01*
X166786666Y-69576190D01*
X166905714Y-69576190D01*
X166953333Y-69600000D01*
X166977142Y-69623809D01*
X167000952Y-69671428D01*
X167000952Y-69719047D01*
X166977142Y-69790476D01*
X166691428Y-70076190D01*
X167000952Y-70076190D01*
X168302857Y-70076190D02*
X168302857Y-69576190D01*
X168421904Y-69576190D01*
X168493333Y-69600000D01*
X168540952Y-69647619D01*
X168564761Y-69695238D01*
X168588571Y-69790476D01*
X168588571Y-69861904D01*
X168564761Y-69957142D01*
X168540952Y-70004761D01*
X168493333Y-70052380D01*
X168421904Y-70076190D01*
X168302857Y-70076190D01*
X169064761Y-70076190D02*
X168779047Y-70076190D01*
X168921904Y-70076190D02*
X168921904Y-69576190D01*
X168874285Y-69647619D01*
X168826666Y-69695238D01*
X168779047Y-69719047D01*
X169231428Y-69576190D02*
X169540952Y-69576190D01*
X169374285Y-69766666D01*
X169445714Y-69766666D01*
X169493333Y-69790476D01*
X169517142Y-69814285D01*
X169540952Y-69861904D01*
X169540952Y-69980952D01*
X169517142Y-70028571D01*
X169493333Y-70052380D01*
X169445714Y-70076190D01*
X169302857Y-70076190D01*
X169255238Y-70052380D01*
X169231428Y-70028571D01*
X165762857Y-62456190D02*
X165762857Y-61956190D01*
X165881904Y-61956190D01*
X165953333Y-61980000D01*
X166000952Y-62027619D01*
X166024761Y-62075238D01*
X166048571Y-62170476D01*
X166048571Y-62241904D01*
X166024761Y-62337142D01*
X166000952Y-62384761D01*
X165953333Y-62432380D01*
X165881904Y-62456190D01*
X165762857Y-62456190D01*
X166524761Y-62456190D02*
X166239047Y-62456190D01*
X166381904Y-62456190D02*
X166381904Y-61956190D01*
X166334285Y-62027619D01*
X166286666Y-62075238D01*
X166239047Y-62099047D01*
X166810476Y-62170476D02*
X166762857Y-62146666D01*
X166739047Y-62122857D01*
X166715238Y-62075238D01*
X166715238Y-62051428D01*
X166739047Y-62003809D01*
X166762857Y-61980000D01*
X166810476Y-61956190D01*
X166905714Y-61956190D01*
X166953333Y-61980000D01*
X166977142Y-62003809D01*
X167000952Y-62051428D01*
X167000952Y-62075238D01*
X166977142Y-62122857D01*
X166953333Y-62146666D01*
X166905714Y-62170476D01*
X166810476Y-62170476D01*
X166762857Y-62194285D01*
X166739047Y-62218095D01*
X166715238Y-62265714D01*
X166715238Y-62360952D01*
X166739047Y-62408571D01*
X166762857Y-62432380D01*
X166810476Y-62456190D01*
X166905714Y-62456190D01*
X166953333Y-62432380D01*
X166977142Y-62408571D01*
X167000952Y-62360952D01*
X167000952Y-62265714D01*
X166977142Y-62218095D01*
X166953333Y-62194285D01*
X166905714Y-62170476D01*
X168302857Y-62456190D02*
X168302857Y-61956190D01*
X168421904Y-61956190D01*
X168493333Y-61980000D01*
X168540952Y-62027619D01*
X168564761Y-62075238D01*
X168588571Y-62170476D01*
X168588571Y-62241904D01*
X168564761Y-62337142D01*
X168540952Y-62384761D01*
X168493333Y-62432380D01*
X168421904Y-62456190D01*
X168302857Y-62456190D01*
X169064761Y-62456190D02*
X168779047Y-62456190D01*
X168921904Y-62456190D02*
X168921904Y-61956190D01*
X168874285Y-62027619D01*
X168826666Y-62075238D01*
X168779047Y-62099047D01*
X169302857Y-62456190D02*
X169398095Y-62456190D01*
X169445714Y-62432380D01*
X169469523Y-62408571D01*
X169517142Y-62337142D01*
X169540952Y-62241904D01*
X169540952Y-62051428D01*
X169517142Y-62003809D01*
X169493333Y-61980000D01*
X169445714Y-61956190D01*
X169350476Y-61956190D01*
X169302857Y-61980000D01*
X169279047Y-62003809D01*
X169255238Y-62051428D01*
X169255238Y-62170476D01*
X169279047Y-62218095D01*
X169302857Y-62241904D01*
X169350476Y-62265714D01*
X169445714Y-62265714D01*
X169493333Y-62241904D01*
X169517142Y-62218095D01*
X169540952Y-62170476D01*
X165762857Y-64996190D02*
X165762857Y-64496190D01*
X165881904Y-64496190D01*
X165953333Y-64520000D01*
X166000952Y-64567619D01*
X166024761Y-64615238D01*
X166048571Y-64710476D01*
X166048571Y-64781904D01*
X166024761Y-64877142D01*
X166000952Y-64924761D01*
X165953333Y-64972380D01*
X165881904Y-64996190D01*
X165762857Y-64996190D01*
X166524761Y-64996190D02*
X166239047Y-64996190D01*
X166381904Y-64996190D02*
X166381904Y-64496190D01*
X166334285Y-64567619D01*
X166286666Y-64615238D01*
X166239047Y-64639047D01*
X166953333Y-64496190D02*
X166858095Y-64496190D01*
X166810476Y-64520000D01*
X166786666Y-64543809D01*
X166739047Y-64615238D01*
X166715238Y-64710476D01*
X166715238Y-64900952D01*
X166739047Y-64948571D01*
X166762857Y-64972380D01*
X166810476Y-64996190D01*
X166905714Y-64996190D01*
X166953333Y-64972380D01*
X166977142Y-64948571D01*
X167000952Y-64900952D01*
X167000952Y-64781904D01*
X166977142Y-64734285D01*
X166953333Y-64710476D01*
X166905714Y-64686666D01*
X166810476Y-64686666D01*
X166762857Y-64710476D01*
X166739047Y-64734285D01*
X166715238Y-64781904D01*
X168302857Y-64996190D02*
X168302857Y-64496190D01*
X168421904Y-64496190D01*
X168493333Y-64520000D01*
X168540952Y-64567619D01*
X168564761Y-64615238D01*
X168588571Y-64710476D01*
X168588571Y-64781904D01*
X168564761Y-64877142D01*
X168540952Y-64924761D01*
X168493333Y-64972380D01*
X168421904Y-64996190D01*
X168302857Y-64996190D01*
X169064761Y-64996190D02*
X168779047Y-64996190D01*
X168921904Y-64996190D02*
X168921904Y-64496190D01*
X168874285Y-64567619D01*
X168826666Y-64615238D01*
X168779047Y-64639047D01*
X169231428Y-64496190D02*
X169564761Y-64496190D01*
X169350476Y-64996190D01*
X165762857Y-57376190D02*
X165762857Y-56876190D01*
X165881904Y-56876190D01*
X165953333Y-56900000D01*
X166000952Y-56947619D01*
X166024761Y-56995238D01*
X166048571Y-57090476D01*
X166048571Y-57161904D01*
X166024761Y-57257142D01*
X166000952Y-57304761D01*
X165953333Y-57352380D01*
X165881904Y-57376190D01*
X165762857Y-57376190D01*
X166239047Y-56923809D02*
X166262857Y-56900000D01*
X166310476Y-56876190D01*
X166429523Y-56876190D01*
X166477142Y-56900000D01*
X166500952Y-56923809D01*
X166524761Y-56971428D01*
X166524761Y-57019047D01*
X166500952Y-57090476D01*
X166215238Y-57376190D01*
X166524761Y-57376190D01*
X166715238Y-56923809D02*
X166739047Y-56900000D01*
X166786666Y-56876190D01*
X166905714Y-56876190D01*
X166953333Y-56900000D01*
X166977142Y-56923809D01*
X167000952Y-56971428D01*
X167000952Y-57019047D01*
X166977142Y-57090476D01*
X166691428Y-57376190D01*
X167000952Y-57376190D01*
X168302857Y-57376190D02*
X168302857Y-56876190D01*
X168421904Y-56876190D01*
X168493333Y-56900000D01*
X168540952Y-56947619D01*
X168564761Y-56995238D01*
X168588571Y-57090476D01*
X168588571Y-57161904D01*
X168564761Y-57257142D01*
X168540952Y-57304761D01*
X168493333Y-57352380D01*
X168421904Y-57376190D01*
X168302857Y-57376190D01*
X168779047Y-56923809D02*
X168802857Y-56900000D01*
X168850476Y-56876190D01*
X168969523Y-56876190D01*
X169017142Y-56900000D01*
X169040952Y-56923809D01*
X169064761Y-56971428D01*
X169064761Y-57019047D01*
X169040952Y-57090476D01*
X168755238Y-57376190D01*
X169064761Y-57376190D01*
X169231428Y-56876190D02*
X169540952Y-56876190D01*
X169374285Y-57066666D01*
X169445714Y-57066666D01*
X169493333Y-57090476D01*
X169517142Y-57114285D01*
X169540952Y-57161904D01*
X169540952Y-57280952D01*
X169517142Y-57328571D01*
X169493333Y-57352380D01*
X169445714Y-57376190D01*
X169302857Y-57376190D01*
X169255238Y-57352380D01*
X169231428Y-57328571D01*
X165762857Y-59916190D02*
X165762857Y-59416190D01*
X165881904Y-59416190D01*
X165953333Y-59440000D01*
X166000952Y-59487619D01*
X166024761Y-59535238D01*
X166048571Y-59630476D01*
X166048571Y-59701904D01*
X166024761Y-59797142D01*
X166000952Y-59844761D01*
X165953333Y-59892380D01*
X165881904Y-59916190D01*
X165762857Y-59916190D01*
X166239047Y-59463809D02*
X166262857Y-59440000D01*
X166310476Y-59416190D01*
X166429523Y-59416190D01*
X166477142Y-59440000D01*
X166500952Y-59463809D01*
X166524761Y-59511428D01*
X166524761Y-59559047D01*
X166500952Y-59630476D01*
X166215238Y-59916190D01*
X166524761Y-59916190D01*
X166834285Y-59416190D02*
X166881904Y-59416190D01*
X166929523Y-59440000D01*
X166953333Y-59463809D01*
X166977142Y-59511428D01*
X167000952Y-59606666D01*
X167000952Y-59725714D01*
X166977142Y-59820952D01*
X166953333Y-59868571D01*
X166929523Y-59892380D01*
X166881904Y-59916190D01*
X166834285Y-59916190D01*
X166786666Y-59892380D01*
X166762857Y-59868571D01*
X166739047Y-59820952D01*
X166715238Y-59725714D01*
X166715238Y-59606666D01*
X166739047Y-59511428D01*
X166762857Y-59463809D01*
X166786666Y-59440000D01*
X166834285Y-59416190D01*
X168302857Y-59916190D02*
X168302857Y-59416190D01*
X168421904Y-59416190D01*
X168493333Y-59440000D01*
X168540952Y-59487619D01*
X168564761Y-59535238D01*
X168588571Y-59630476D01*
X168588571Y-59701904D01*
X168564761Y-59797142D01*
X168540952Y-59844761D01*
X168493333Y-59892380D01*
X168421904Y-59916190D01*
X168302857Y-59916190D01*
X168779047Y-59463809D02*
X168802857Y-59440000D01*
X168850476Y-59416190D01*
X168969523Y-59416190D01*
X169017142Y-59440000D01*
X169040952Y-59463809D01*
X169064761Y-59511428D01*
X169064761Y-59559047D01*
X169040952Y-59630476D01*
X168755238Y-59916190D01*
X169064761Y-59916190D01*
X169540952Y-59916190D02*
X169255238Y-59916190D01*
X169398095Y-59916190D02*
X169398095Y-59416190D01*
X169350476Y-59487619D01*
X169302857Y-59535238D01*
X169255238Y-59559047D01*
X165762857Y-52296190D02*
X165762857Y-51796190D01*
X165881904Y-51796190D01*
X165953333Y-51820000D01*
X166000952Y-51867619D01*
X166024761Y-51915238D01*
X166048571Y-52010476D01*
X166048571Y-52081904D01*
X166024761Y-52177142D01*
X166000952Y-52224761D01*
X165953333Y-52272380D01*
X165881904Y-52296190D01*
X165762857Y-52296190D01*
X166239047Y-51843809D02*
X166262857Y-51820000D01*
X166310476Y-51796190D01*
X166429523Y-51796190D01*
X166477142Y-51820000D01*
X166500952Y-51843809D01*
X166524761Y-51891428D01*
X166524761Y-51939047D01*
X166500952Y-52010476D01*
X166215238Y-52296190D01*
X166524761Y-52296190D01*
X166953333Y-51796190D02*
X166858095Y-51796190D01*
X166810476Y-51820000D01*
X166786666Y-51843809D01*
X166739047Y-51915238D01*
X166715238Y-52010476D01*
X166715238Y-52200952D01*
X166739047Y-52248571D01*
X166762857Y-52272380D01*
X166810476Y-52296190D01*
X166905714Y-52296190D01*
X166953333Y-52272380D01*
X166977142Y-52248571D01*
X167000952Y-52200952D01*
X167000952Y-52081904D01*
X166977142Y-52034285D01*
X166953333Y-52010476D01*
X166905714Y-51986666D01*
X166810476Y-51986666D01*
X166762857Y-52010476D01*
X166739047Y-52034285D01*
X166715238Y-52081904D01*
X168302857Y-52296190D02*
X168302857Y-51796190D01*
X168421904Y-51796190D01*
X168493333Y-51820000D01*
X168540952Y-51867619D01*
X168564761Y-51915238D01*
X168588571Y-52010476D01*
X168588571Y-52081904D01*
X168564761Y-52177142D01*
X168540952Y-52224761D01*
X168493333Y-52272380D01*
X168421904Y-52296190D01*
X168302857Y-52296190D01*
X168779047Y-51843809D02*
X168802857Y-51820000D01*
X168850476Y-51796190D01*
X168969523Y-51796190D01*
X169017142Y-51820000D01*
X169040952Y-51843809D01*
X169064761Y-51891428D01*
X169064761Y-51939047D01*
X169040952Y-52010476D01*
X168755238Y-52296190D01*
X169064761Y-52296190D01*
X169231428Y-51796190D02*
X169564761Y-51796190D01*
X169350476Y-52296190D01*
X165762857Y-54836190D02*
X165762857Y-54336190D01*
X165881904Y-54336190D01*
X165953333Y-54360000D01*
X166000952Y-54407619D01*
X166024761Y-54455238D01*
X166048571Y-54550476D01*
X166048571Y-54621904D01*
X166024761Y-54717142D01*
X166000952Y-54764761D01*
X165953333Y-54812380D01*
X165881904Y-54836190D01*
X165762857Y-54836190D01*
X166239047Y-54383809D02*
X166262857Y-54360000D01*
X166310476Y-54336190D01*
X166429523Y-54336190D01*
X166477142Y-54360000D01*
X166500952Y-54383809D01*
X166524761Y-54431428D01*
X166524761Y-54479047D01*
X166500952Y-54550476D01*
X166215238Y-54836190D01*
X166524761Y-54836190D01*
X166953333Y-54502857D02*
X166953333Y-54836190D01*
X166834285Y-54312380D02*
X166715238Y-54669523D01*
X167024761Y-54669523D01*
X168302857Y-54836190D02*
X168302857Y-54336190D01*
X168421904Y-54336190D01*
X168493333Y-54360000D01*
X168540952Y-54407619D01*
X168564761Y-54455238D01*
X168588571Y-54550476D01*
X168588571Y-54621904D01*
X168564761Y-54717142D01*
X168540952Y-54764761D01*
X168493333Y-54812380D01*
X168421904Y-54836190D01*
X168302857Y-54836190D01*
X168779047Y-54383809D02*
X168802857Y-54360000D01*
X168850476Y-54336190D01*
X168969523Y-54336190D01*
X169017142Y-54360000D01*
X169040952Y-54383809D01*
X169064761Y-54431428D01*
X169064761Y-54479047D01*
X169040952Y-54550476D01*
X168755238Y-54836190D01*
X169064761Y-54836190D01*
X169517142Y-54336190D02*
X169279047Y-54336190D01*
X169255238Y-54574285D01*
X169279047Y-54550476D01*
X169326666Y-54526666D01*
X169445714Y-54526666D01*
X169493333Y-54550476D01*
X169517142Y-54574285D01*
X169540952Y-54621904D01*
X169540952Y-54740952D01*
X169517142Y-54788571D01*
X169493333Y-54812380D01*
X169445714Y-54836190D01*
X169326666Y-54836190D01*
X169279047Y-54812380D01*
X169255238Y-54788571D01*
X165762857Y-49756190D02*
X165762857Y-49256190D01*
X165881904Y-49256190D01*
X165953333Y-49280000D01*
X166000952Y-49327619D01*
X166024761Y-49375238D01*
X166048571Y-49470476D01*
X166048571Y-49541904D01*
X166024761Y-49637142D01*
X166000952Y-49684761D01*
X165953333Y-49732380D01*
X165881904Y-49756190D01*
X165762857Y-49756190D01*
X166239047Y-49303809D02*
X166262857Y-49280000D01*
X166310476Y-49256190D01*
X166429523Y-49256190D01*
X166477142Y-49280000D01*
X166500952Y-49303809D01*
X166524761Y-49351428D01*
X166524761Y-49399047D01*
X166500952Y-49470476D01*
X166215238Y-49756190D01*
X166524761Y-49756190D01*
X166810476Y-49470476D02*
X166762857Y-49446666D01*
X166739047Y-49422857D01*
X166715238Y-49375238D01*
X166715238Y-49351428D01*
X166739047Y-49303809D01*
X166762857Y-49280000D01*
X166810476Y-49256190D01*
X166905714Y-49256190D01*
X166953333Y-49280000D01*
X166977142Y-49303809D01*
X167000952Y-49351428D01*
X167000952Y-49375238D01*
X166977142Y-49422857D01*
X166953333Y-49446666D01*
X166905714Y-49470476D01*
X166810476Y-49470476D01*
X166762857Y-49494285D01*
X166739047Y-49518095D01*
X166715238Y-49565714D01*
X166715238Y-49660952D01*
X166739047Y-49708571D01*
X166762857Y-49732380D01*
X166810476Y-49756190D01*
X166905714Y-49756190D01*
X166953333Y-49732380D01*
X166977142Y-49708571D01*
X167000952Y-49660952D01*
X167000952Y-49565714D01*
X166977142Y-49518095D01*
X166953333Y-49494285D01*
X166905714Y-49470476D01*
X168302857Y-49756190D02*
X168302857Y-49256190D01*
X168421904Y-49256190D01*
X168493333Y-49280000D01*
X168540952Y-49327619D01*
X168564761Y-49375238D01*
X168588571Y-49470476D01*
X168588571Y-49541904D01*
X168564761Y-49637142D01*
X168540952Y-49684761D01*
X168493333Y-49732380D01*
X168421904Y-49756190D01*
X168302857Y-49756190D01*
X168779047Y-49303809D02*
X168802857Y-49280000D01*
X168850476Y-49256190D01*
X168969523Y-49256190D01*
X169017142Y-49280000D01*
X169040952Y-49303809D01*
X169064761Y-49351428D01*
X169064761Y-49399047D01*
X169040952Y-49470476D01*
X168755238Y-49756190D01*
X169064761Y-49756190D01*
X169302857Y-49756190D02*
X169398095Y-49756190D01*
X169445714Y-49732380D01*
X169469523Y-49708571D01*
X169517142Y-49637142D01*
X169540952Y-49541904D01*
X169540952Y-49351428D01*
X169517142Y-49303809D01*
X169493333Y-49280000D01*
X169445714Y-49256190D01*
X169350476Y-49256190D01*
X169302857Y-49280000D01*
X169279047Y-49303809D01*
X169255238Y-49351428D01*
X169255238Y-49470476D01*
X169279047Y-49518095D01*
X169302857Y-49541904D01*
X169350476Y-49565714D01*
X169445714Y-49565714D01*
X169493333Y-49541904D01*
X169517142Y-49518095D01*
X169540952Y-49470476D01*
X168302857Y-47216190D02*
X168302857Y-46716190D01*
X168421904Y-46716190D01*
X168493333Y-46740000D01*
X168540952Y-46787619D01*
X168564761Y-46835238D01*
X168588571Y-46930476D01*
X168588571Y-47001904D01*
X168564761Y-47097142D01*
X168540952Y-47144761D01*
X168493333Y-47192380D01*
X168421904Y-47216190D01*
X168302857Y-47216190D01*
X168755238Y-46716190D02*
X169064761Y-46716190D01*
X168898095Y-46906666D01*
X168969523Y-46906666D01*
X169017142Y-46930476D01*
X169040952Y-46954285D01*
X169064761Y-47001904D01*
X169064761Y-47120952D01*
X169040952Y-47168571D01*
X169017142Y-47192380D01*
X168969523Y-47216190D01*
X168826666Y-47216190D01*
X168779047Y-47192380D01*
X168755238Y-47168571D01*
X169540952Y-47216190D02*
X169255238Y-47216190D01*
X169398095Y-47216190D02*
X169398095Y-46716190D01*
X169350476Y-46787619D01*
X169302857Y-46835238D01*
X169255238Y-46859047D01*
X165762857Y-47216190D02*
X165762857Y-46716190D01*
X165881904Y-46716190D01*
X165953333Y-46740000D01*
X166000952Y-46787619D01*
X166024761Y-46835238D01*
X166048571Y-46930476D01*
X166048571Y-47001904D01*
X166024761Y-47097142D01*
X166000952Y-47144761D01*
X165953333Y-47192380D01*
X165881904Y-47216190D01*
X165762857Y-47216190D01*
X166215238Y-46716190D02*
X166524761Y-46716190D01*
X166358095Y-46906666D01*
X166429523Y-46906666D01*
X166477142Y-46930476D01*
X166500952Y-46954285D01*
X166524761Y-47001904D01*
X166524761Y-47120952D01*
X166500952Y-47168571D01*
X166477142Y-47192380D01*
X166429523Y-47216190D01*
X166286666Y-47216190D01*
X166239047Y-47192380D01*
X166215238Y-47168571D01*
X166834285Y-46716190D02*
X166881904Y-46716190D01*
X166929523Y-46740000D01*
X166953333Y-46763809D01*
X166977142Y-46811428D01*
X167000952Y-46906666D01*
X167000952Y-47025714D01*
X166977142Y-47120952D01*
X166953333Y-47168571D01*
X166929523Y-47192380D01*
X166881904Y-47216190D01*
X166834285Y-47216190D01*
X166786666Y-47192380D01*
X166762857Y-47168571D01*
X166739047Y-47120952D01*
X166715238Y-47025714D01*
X166715238Y-46906666D01*
X166739047Y-46811428D01*
X166762857Y-46763809D01*
X166786666Y-46740000D01*
X166834285Y-46716190D01*
X166901904Y-89896190D02*
X167211428Y-89896190D01*
X167044761Y-90086666D01*
X167116190Y-90086666D01*
X167163809Y-90110476D01*
X167187619Y-90134285D01*
X167211428Y-90181904D01*
X167211428Y-90300952D01*
X167187619Y-90348571D01*
X167163809Y-90372380D01*
X167116190Y-90396190D01*
X166973333Y-90396190D01*
X166925714Y-90372380D01*
X166901904Y-90348571D01*
X167425714Y-90348571D02*
X167449523Y-90372380D01*
X167425714Y-90396190D01*
X167401904Y-90372380D01*
X167425714Y-90348571D01*
X167425714Y-90396190D01*
X167616190Y-89896190D02*
X167925714Y-89896190D01*
X167759047Y-90086666D01*
X167830476Y-90086666D01*
X167878095Y-90110476D01*
X167901904Y-90134285D01*
X167925714Y-90181904D01*
X167925714Y-90300952D01*
X167901904Y-90348571D01*
X167878095Y-90372380D01*
X167830476Y-90396190D01*
X167687619Y-90396190D01*
X167640000Y-90372380D01*
X167616190Y-90348571D01*
X168068571Y-89896190D02*
X168235238Y-90396190D01*
X168401904Y-89896190D01*
X167544761Y-92436190D02*
X167306666Y-92436190D01*
X167282857Y-92674285D01*
X167306666Y-92650476D01*
X167354285Y-92626666D01*
X167473333Y-92626666D01*
X167520952Y-92650476D01*
X167544761Y-92674285D01*
X167568571Y-92721904D01*
X167568571Y-92840952D01*
X167544761Y-92888571D01*
X167520952Y-92912380D01*
X167473333Y-92936190D01*
X167354285Y-92936190D01*
X167306666Y-92912380D01*
X167282857Y-92888571D01*
X167711428Y-92436190D02*
X167878095Y-92936190D01*
X168044761Y-92436190D01*
X167259047Y-95000000D02*
X167211428Y-94976190D01*
X167140000Y-94976190D01*
X167068571Y-95000000D01*
X167020952Y-95047619D01*
X166997142Y-95095238D01*
X166973333Y-95190476D01*
X166973333Y-95261904D01*
X166997142Y-95357142D01*
X167020952Y-95404761D01*
X167068571Y-95452380D01*
X167140000Y-95476190D01*
X167187619Y-95476190D01*
X167259047Y-95452380D01*
X167282857Y-95428571D01*
X167282857Y-95261904D01*
X167187619Y-95261904D01*
X167497142Y-95476190D02*
X167497142Y-94976190D01*
X167782857Y-95476190D01*
X167782857Y-94976190D01*
X168020952Y-95476190D02*
X168020952Y-94976190D01*
X168140000Y-94976190D01*
X168211428Y-95000000D01*
X168259047Y-95047619D01*
X168282857Y-95095238D01*
X168306666Y-95190476D01*
X168306666Y-95261904D01*
X168282857Y-95357142D01*
X168259047Y-95404761D01*
X168211428Y-95452380D01*
X168140000Y-95476190D01*
X168020952Y-95476190D01*
X167092380Y-97516190D02*
X167259047Y-98016190D01*
X167425714Y-97516190D01*
X167592380Y-98016190D02*
X167592380Y-97516190D01*
X167830476Y-98016190D02*
X167830476Y-97516190D01*
X168116190Y-98016190D01*
X168116190Y-97516190D01*
X137822857Y-44676190D02*
X137822857Y-44176190D01*
X137941904Y-44176190D01*
X138013333Y-44200000D01*
X138060952Y-44247619D01*
X138084761Y-44295238D01*
X138108571Y-44390476D01*
X138108571Y-44461904D01*
X138084761Y-44557142D01*
X138060952Y-44604761D01*
X138013333Y-44652380D01*
X137941904Y-44676190D01*
X137822857Y-44676190D01*
X138560952Y-44176190D02*
X138322857Y-44176190D01*
X138299047Y-44414285D01*
X138322857Y-44390476D01*
X138370476Y-44366666D01*
X138489523Y-44366666D01*
X138537142Y-44390476D01*
X138560952Y-44414285D01*
X138584761Y-44461904D01*
X138584761Y-44580952D01*
X138560952Y-44628571D01*
X138537142Y-44652380D01*
X138489523Y-44676190D01*
X138370476Y-44676190D01*
X138322857Y-44652380D01*
X138299047Y-44628571D01*
X138751428Y-44176190D02*
X139060952Y-44176190D01*
X138894285Y-44366666D01*
X138965714Y-44366666D01*
X139013333Y-44390476D01*
X139037142Y-44414285D01*
X139060952Y-44461904D01*
X139060952Y-44580952D01*
X139037142Y-44628571D01*
X139013333Y-44652380D01*
X138965714Y-44676190D01*
X138822857Y-44676190D01*
X138775238Y-44652380D01*
X138751428Y-44628571D01*
X135282857Y-44676190D02*
X135282857Y-44176190D01*
X135401904Y-44176190D01*
X135473333Y-44200000D01*
X135520952Y-44247619D01*
X135544761Y-44295238D01*
X135568571Y-44390476D01*
X135568571Y-44461904D01*
X135544761Y-44557142D01*
X135520952Y-44604761D01*
X135473333Y-44652380D01*
X135401904Y-44676190D01*
X135282857Y-44676190D01*
X136020952Y-44176190D02*
X135782857Y-44176190D01*
X135759047Y-44414285D01*
X135782857Y-44390476D01*
X135830476Y-44366666D01*
X135949523Y-44366666D01*
X135997142Y-44390476D01*
X136020952Y-44414285D01*
X136044761Y-44461904D01*
X136044761Y-44580952D01*
X136020952Y-44628571D01*
X135997142Y-44652380D01*
X135949523Y-44676190D01*
X135830476Y-44676190D01*
X135782857Y-44652380D01*
X135759047Y-44628571D01*
X136235238Y-44223809D02*
X136259047Y-44200000D01*
X136306666Y-44176190D01*
X136425714Y-44176190D01*
X136473333Y-44200000D01*
X136497142Y-44223809D01*
X136520952Y-44271428D01*
X136520952Y-44319047D01*
X136497142Y-44390476D01*
X136211428Y-44676190D01*
X136520952Y-44676190D01*
X132742857Y-44676190D02*
X132742857Y-44176190D01*
X132861904Y-44176190D01*
X132933333Y-44200000D01*
X132980952Y-44247619D01*
X133004761Y-44295238D01*
X133028571Y-44390476D01*
X133028571Y-44461904D01*
X133004761Y-44557142D01*
X132980952Y-44604761D01*
X132933333Y-44652380D01*
X132861904Y-44676190D01*
X132742857Y-44676190D01*
X133480952Y-44176190D02*
X133242857Y-44176190D01*
X133219047Y-44414285D01*
X133242857Y-44390476D01*
X133290476Y-44366666D01*
X133409523Y-44366666D01*
X133457142Y-44390476D01*
X133480952Y-44414285D01*
X133504761Y-44461904D01*
X133504761Y-44580952D01*
X133480952Y-44628571D01*
X133457142Y-44652380D01*
X133409523Y-44676190D01*
X133290476Y-44676190D01*
X133242857Y-44652380D01*
X133219047Y-44628571D01*
X133980952Y-44676190D02*
X133695238Y-44676190D01*
X133838095Y-44676190D02*
X133838095Y-44176190D01*
X133790476Y-44247619D01*
X133742857Y-44295238D01*
X133695238Y-44319047D01*
X130202857Y-44676190D02*
X130202857Y-44176190D01*
X130321904Y-44176190D01*
X130393333Y-44200000D01*
X130440952Y-44247619D01*
X130464761Y-44295238D01*
X130488571Y-44390476D01*
X130488571Y-44461904D01*
X130464761Y-44557142D01*
X130440952Y-44604761D01*
X130393333Y-44652380D01*
X130321904Y-44676190D01*
X130202857Y-44676190D01*
X130940952Y-44176190D02*
X130702857Y-44176190D01*
X130679047Y-44414285D01*
X130702857Y-44390476D01*
X130750476Y-44366666D01*
X130869523Y-44366666D01*
X130917142Y-44390476D01*
X130940952Y-44414285D01*
X130964761Y-44461904D01*
X130964761Y-44580952D01*
X130940952Y-44628571D01*
X130917142Y-44652380D01*
X130869523Y-44676190D01*
X130750476Y-44676190D01*
X130702857Y-44652380D01*
X130679047Y-44628571D01*
X131274285Y-44176190D02*
X131321904Y-44176190D01*
X131369523Y-44200000D01*
X131393333Y-44223809D01*
X131417142Y-44271428D01*
X131440952Y-44366666D01*
X131440952Y-44485714D01*
X131417142Y-44580952D01*
X131393333Y-44628571D01*
X131369523Y-44652380D01*
X131321904Y-44676190D01*
X131274285Y-44676190D01*
X131226666Y-44652380D01*
X131202857Y-44628571D01*
X131179047Y-44580952D01*
X131155238Y-44485714D01*
X131155238Y-44366666D01*
X131179047Y-44271428D01*
X131202857Y-44223809D01*
X131226666Y-44200000D01*
X131274285Y-44176190D01*
X127662857Y-44676190D02*
X127662857Y-44176190D01*
X127781904Y-44176190D01*
X127853333Y-44200000D01*
X127900952Y-44247619D01*
X127924761Y-44295238D01*
X127948571Y-44390476D01*
X127948571Y-44461904D01*
X127924761Y-44557142D01*
X127900952Y-44604761D01*
X127853333Y-44652380D01*
X127781904Y-44676190D01*
X127662857Y-44676190D01*
X128377142Y-44342857D02*
X128377142Y-44676190D01*
X128258095Y-44152380D02*
X128139047Y-44509523D01*
X128448571Y-44509523D01*
X128662857Y-44676190D02*
X128758095Y-44676190D01*
X128805714Y-44652380D01*
X128829523Y-44628571D01*
X128877142Y-44557142D01*
X128900952Y-44461904D01*
X128900952Y-44271428D01*
X128877142Y-44223809D01*
X128853333Y-44200000D01*
X128805714Y-44176190D01*
X128710476Y-44176190D01*
X128662857Y-44200000D01*
X128639047Y-44223809D01*
X128615238Y-44271428D01*
X128615238Y-44390476D01*
X128639047Y-44438095D01*
X128662857Y-44461904D01*
X128710476Y-44485714D01*
X128805714Y-44485714D01*
X128853333Y-44461904D01*
X128877142Y-44438095D01*
X128900952Y-44390476D01*
X125122857Y-44676190D02*
X125122857Y-44176190D01*
X125241904Y-44176190D01*
X125313333Y-44200000D01*
X125360952Y-44247619D01*
X125384761Y-44295238D01*
X125408571Y-44390476D01*
X125408571Y-44461904D01*
X125384761Y-44557142D01*
X125360952Y-44604761D01*
X125313333Y-44652380D01*
X125241904Y-44676190D01*
X125122857Y-44676190D01*
X125837142Y-44342857D02*
X125837142Y-44676190D01*
X125718095Y-44152380D02*
X125599047Y-44509523D01*
X125908571Y-44509523D01*
X126170476Y-44390476D02*
X126122857Y-44366666D01*
X126099047Y-44342857D01*
X126075238Y-44295238D01*
X126075238Y-44271428D01*
X126099047Y-44223809D01*
X126122857Y-44200000D01*
X126170476Y-44176190D01*
X126265714Y-44176190D01*
X126313333Y-44200000D01*
X126337142Y-44223809D01*
X126360952Y-44271428D01*
X126360952Y-44295238D01*
X126337142Y-44342857D01*
X126313333Y-44366666D01*
X126265714Y-44390476D01*
X126170476Y-44390476D01*
X126122857Y-44414285D01*
X126099047Y-44438095D01*
X126075238Y-44485714D01*
X126075238Y-44580952D01*
X126099047Y-44628571D01*
X126122857Y-44652380D01*
X126170476Y-44676190D01*
X126265714Y-44676190D01*
X126313333Y-44652380D01*
X126337142Y-44628571D01*
X126360952Y-44580952D01*
X126360952Y-44485714D01*
X126337142Y-44438095D01*
X126313333Y-44414285D01*
X126265714Y-44390476D01*
X122832857Y-85173333D02*
X123070952Y-85173333D01*
X122785238Y-85316190D02*
X122951904Y-84816190D01*
X123118571Y-85316190D01*
X123547142Y-85316190D02*
X123261428Y-85316190D01*
X123404285Y-85316190D02*
X123404285Y-84816190D01*
X123356666Y-84887619D01*
X123309047Y-84935238D01*
X123261428Y-84959047D01*
X120292857Y-85173333D02*
X120530952Y-85173333D01*
X120245238Y-85316190D02*
X120411904Y-84816190D01*
X120578571Y-85316190D01*
X120840476Y-84816190D02*
X120888095Y-84816190D01*
X120935714Y-84840000D01*
X120959523Y-84863809D01*
X120983333Y-84911428D01*
X121007142Y-85006666D01*
X121007142Y-85125714D01*
X120983333Y-85220952D01*
X120959523Y-85268571D01*
X120935714Y-85292380D01*
X120888095Y-85316190D01*
X120840476Y-85316190D01*
X120792857Y-85292380D01*
X120769047Y-85268571D01*
X120745238Y-85220952D01*
X120721428Y-85125714D01*
X120721428Y-85006666D01*
X120745238Y-84911428D01*
X120769047Y-84863809D01*
X120792857Y-84840000D01*
X120840476Y-84816190D01*
X122832857Y-82633333D02*
X123070952Y-82633333D01*
X122785238Y-82776190D02*
X122951904Y-82276190D01*
X123118571Y-82776190D01*
X123237619Y-82276190D02*
X123547142Y-82276190D01*
X123380476Y-82466666D01*
X123451904Y-82466666D01*
X123499523Y-82490476D01*
X123523333Y-82514285D01*
X123547142Y-82561904D01*
X123547142Y-82680952D01*
X123523333Y-82728571D01*
X123499523Y-82752380D01*
X123451904Y-82776190D01*
X123309047Y-82776190D01*
X123261428Y-82752380D01*
X123237619Y-82728571D01*
X120292857Y-82633333D02*
X120530952Y-82633333D01*
X120245238Y-82776190D02*
X120411904Y-82276190D01*
X120578571Y-82776190D01*
X120721428Y-82323809D02*
X120745238Y-82300000D01*
X120792857Y-82276190D01*
X120911904Y-82276190D01*
X120959523Y-82300000D01*
X120983333Y-82323809D01*
X121007142Y-82371428D01*
X121007142Y-82419047D01*
X120983333Y-82490476D01*
X120697619Y-82776190D01*
X121007142Y-82776190D01*
X122832857Y-80093333D02*
X123070952Y-80093333D01*
X122785238Y-80236190D02*
X122951904Y-79736190D01*
X123118571Y-80236190D01*
X123523333Y-79736190D02*
X123285238Y-79736190D01*
X123261428Y-79974285D01*
X123285238Y-79950476D01*
X123332857Y-79926666D01*
X123451904Y-79926666D01*
X123499523Y-79950476D01*
X123523333Y-79974285D01*
X123547142Y-80021904D01*
X123547142Y-80140952D01*
X123523333Y-80188571D01*
X123499523Y-80212380D01*
X123451904Y-80236190D01*
X123332857Y-80236190D01*
X123285238Y-80212380D01*
X123261428Y-80188571D01*
X120292857Y-80093333D02*
X120530952Y-80093333D01*
X120245238Y-80236190D02*
X120411904Y-79736190D01*
X120578571Y-80236190D01*
X120959523Y-79902857D02*
X120959523Y-80236190D01*
X120840476Y-79712380D02*
X120721428Y-80069523D01*
X121030952Y-80069523D01*
X122832857Y-77553333D02*
X123070952Y-77553333D01*
X122785238Y-77696190D02*
X122951904Y-77196190D01*
X123118571Y-77696190D01*
X123237619Y-77196190D02*
X123570952Y-77196190D01*
X123356666Y-77696190D01*
X120292857Y-77553333D02*
X120530952Y-77553333D01*
X120245238Y-77696190D02*
X120411904Y-77196190D01*
X120578571Y-77696190D01*
X120959523Y-77196190D02*
X120864285Y-77196190D01*
X120816666Y-77220000D01*
X120792857Y-77243809D01*
X120745238Y-77315238D01*
X120721428Y-77410476D01*
X120721428Y-77600952D01*
X120745238Y-77648571D01*
X120769047Y-77672380D01*
X120816666Y-77696190D01*
X120911904Y-77696190D01*
X120959523Y-77672380D01*
X120983333Y-77648571D01*
X121007142Y-77600952D01*
X121007142Y-77481904D01*
X120983333Y-77434285D01*
X120959523Y-77410476D01*
X120911904Y-77386666D01*
X120816666Y-77386666D01*
X120769047Y-77410476D01*
X120745238Y-77434285D01*
X120721428Y-77481904D01*
X122832857Y-75013333D02*
X123070952Y-75013333D01*
X122785238Y-75156190D02*
X122951904Y-74656190D01*
X123118571Y-75156190D01*
X123309047Y-75156190D02*
X123404285Y-75156190D01*
X123451904Y-75132380D01*
X123475714Y-75108571D01*
X123523333Y-75037142D01*
X123547142Y-74941904D01*
X123547142Y-74751428D01*
X123523333Y-74703809D01*
X123499523Y-74680000D01*
X123451904Y-74656190D01*
X123356666Y-74656190D01*
X123309047Y-74680000D01*
X123285238Y-74703809D01*
X123261428Y-74751428D01*
X123261428Y-74870476D01*
X123285238Y-74918095D01*
X123309047Y-74941904D01*
X123356666Y-74965714D01*
X123451904Y-74965714D01*
X123499523Y-74941904D01*
X123523333Y-74918095D01*
X123547142Y-74870476D01*
X120292857Y-75013333D02*
X120530952Y-75013333D01*
X120245238Y-75156190D02*
X120411904Y-74656190D01*
X120578571Y-75156190D01*
X120816666Y-74870476D02*
X120769047Y-74846666D01*
X120745238Y-74822857D01*
X120721428Y-74775238D01*
X120721428Y-74751428D01*
X120745238Y-74703809D01*
X120769047Y-74680000D01*
X120816666Y-74656190D01*
X120911904Y-74656190D01*
X120959523Y-74680000D01*
X120983333Y-74703809D01*
X121007142Y-74751428D01*
X121007142Y-74775238D01*
X120983333Y-74822857D01*
X120959523Y-74846666D01*
X120911904Y-74870476D01*
X120816666Y-74870476D01*
X120769047Y-74894285D01*
X120745238Y-74918095D01*
X120721428Y-74965714D01*
X120721428Y-75060952D01*
X120745238Y-75108571D01*
X120769047Y-75132380D01*
X120816666Y-75156190D01*
X120911904Y-75156190D01*
X120959523Y-75132380D01*
X120983333Y-75108571D01*
X121007142Y-75060952D01*
X121007142Y-74965714D01*
X120983333Y-74918095D01*
X120959523Y-74894285D01*
X120911904Y-74870476D01*
X122594761Y-72473333D02*
X122832857Y-72473333D01*
X122547142Y-72616190D02*
X122713809Y-72116190D01*
X122880476Y-72616190D01*
X123309047Y-72616190D02*
X123023333Y-72616190D01*
X123166190Y-72616190D02*
X123166190Y-72116190D01*
X123118571Y-72187619D01*
X123070952Y-72235238D01*
X123023333Y-72259047D01*
X123785238Y-72616190D02*
X123499523Y-72616190D01*
X123642380Y-72616190D02*
X123642380Y-72116190D01*
X123594761Y-72187619D01*
X123547142Y-72235238D01*
X123499523Y-72259047D01*
X120054761Y-72473333D02*
X120292857Y-72473333D01*
X120007142Y-72616190D02*
X120173809Y-72116190D01*
X120340476Y-72616190D01*
X120769047Y-72616190D02*
X120483333Y-72616190D01*
X120626190Y-72616190D02*
X120626190Y-72116190D01*
X120578571Y-72187619D01*
X120530952Y-72235238D01*
X120483333Y-72259047D01*
X121078571Y-72116190D02*
X121126190Y-72116190D01*
X121173809Y-72140000D01*
X121197619Y-72163809D01*
X121221428Y-72211428D01*
X121245238Y-72306666D01*
X121245238Y-72425714D01*
X121221428Y-72520952D01*
X121197619Y-72568571D01*
X121173809Y-72592380D01*
X121126190Y-72616190D01*
X121078571Y-72616190D01*
X121030952Y-72592380D01*
X121007142Y-72568571D01*
X120983333Y-72520952D01*
X120959523Y-72425714D01*
X120959523Y-72306666D01*
X120983333Y-72211428D01*
X121007142Y-72163809D01*
X121030952Y-72140000D01*
X121078571Y-72116190D01*
X122594761Y-69933333D02*
X122832857Y-69933333D01*
X122547142Y-70076190D02*
X122713809Y-69576190D01*
X122880476Y-70076190D01*
X123309047Y-70076190D02*
X123023333Y-70076190D01*
X123166190Y-70076190D02*
X123166190Y-69576190D01*
X123118571Y-69647619D01*
X123070952Y-69695238D01*
X123023333Y-69719047D01*
X123475714Y-69576190D02*
X123785238Y-69576190D01*
X123618571Y-69766666D01*
X123690000Y-69766666D01*
X123737619Y-69790476D01*
X123761428Y-69814285D01*
X123785238Y-69861904D01*
X123785238Y-69980952D01*
X123761428Y-70028571D01*
X123737619Y-70052380D01*
X123690000Y-70076190D01*
X123547142Y-70076190D01*
X123499523Y-70052380D01*
X123475714Y-70028571D01*
X120054761Y-69933333D02*
X120292857Y-69933333D01*
X120007142Y-70076190D02*
X120173809Y-69576190D01*
X120340476Y-70076190D01*
X120769047Y-70076190D02*
X120483333Y-70076190D01*
X120626190Y-70076190D02*
X120626190Y-69576190D01*
X120578571Y-69647619D01*
X120530952Y-69695238D01*
X120483333Y-69719047D01*
X120959523Y-69623809D02*
X120983333Y-69600000D01*
X121030952Y-69576190D01*
X121150000Y-69576190D01*
X121197619Y-69600000D01*
X121221428Y-69623809D01*
X121245238Y-69671428D01*
X121245238Y-69719047D01*
X121221428Y-69790476D01*
X120935714Y-70076190D01*
X121245238Y-70076190D01*
X122594761Y-67393333D02*
X122832857Y-67393333D01*
X122547142Y-67536190D02*
X122713809Y-67036190D01*
X122880476Y-67536190D01*
X123309047Y-67536190D02*
X123023333Y-67536190D01*
X123166190Y-67536190D02*
X123166190Y-67036190D01*
X123118571Y-67107619D01*
X123070952Y-67155238D01*
X123023333Y-67179047D01*
X123761428Y-67036190D02*
X123523333Y-67036190D01*
X123499523Y-67274285D01*
X123523333Y-67250476D01*
X123570952Y-67226666D01*
X123690000Y-67226666D01*
X123737619Y-67250476D01*
X123761428Y-67274285D01*
X123785238Y-67321904D01*
X123785238Y-67440952D01*
X123761428Y-67488571D01*
X123737619Y-67512380D01*
X123690000Y-67536190D01*
X123570952Y-67536190D01*
X123523333Y-67512380D01*
X123499523Y-67488571D01*
X120054761Y-67393333D02*
X120292857Y-67393333D01*
X120007142Y-67536190D02*
X120173809Y-67036190D01*
X120340476Y-67536190D01*
X120769047Y-67536190D02*
X120483333Y-67536190D01*
X120626190Y-67536190D02*
X120626190Y-67036190D01*
X120578571Y-67107619D01*
X120530952Y-67155238D01*
X120483333Y-67179047D01*
X121197619Y-67202857D02*
X121197619Y-67536190D01*
X121078571Y-67012380D02*
X120959523Y-67369523D01*
X121269047Y-67369523D01*
X122582857Y-64996190D02*
X122582857Y-64496190D01*
X122701904Y-64496190D01*
X122773333Y-64520000D01*
X122820952Y-64567619D01*
X122844761Y-64615238D01*
X122868571Y-64710476D01*
X122868571Y-64781904D01*
X122844761Y-64877142D01*
X122820952Y-64924761D01*
X122773333Y-64972380D01*
X122701904Y-64996190D01*
X122582857Y-64996190D01*
X123035238Y-64496190D02*
X123344761Y-64496190D01*
X123178095Y-64686666D01*
X123249523Y-64686666D01*
X123297142Y-64710476D01*
X123320952Y-64734285D01*
X123344761Y-64781904D01*
X123344761Y-64900952D01*
X123320952Y-64948571D01*
X123297142Y-64972380D01*
X123249523Y-64996190D01*
X123106666Y-64996190D01*
X123059047Y-64972380D01*
X123035238Y-64948571D01*
X123511428Y-64496190D02*
X123820952Y-64496190D01*
X123654285Y-64686666D01*
X123725714Y-64686666D01*
X123773333Y-64710476D01*
X123797142Y-64734285D01*
X123820952Y-64781904D01*
X123820952Y-64900952D01*
X123797142Y-64948571D01*
X123773333Y-64972380D01*
X123725714Y-64996190D01*
X123582857Y-64996190D01*
X123535238Y-64972380D01*
X123511428Y-64948571D01*
X120042857Y-64996190D02*
X120042857Y-64496190D01*
X120161904Y-64496190D01*
X120233333Y-64520000D01*
X120280952Y-64567619D01*
X120304761Y-64615238D01*
X120328571Y-64710476D01*
X120328571Y-64781904D01*
X120304761Y-64877142D01*
X120280952Y-64924761D01*
X120233333Y-64972380D01*
X120161904Y-64996190D01*
X120042857Y-64996190D01*
X120495238Y-64496190D02*
X120804761Y-64496190D01*
X120638095Y-64686666D01*
X120709523Y-64686666D01*
X120757142Y-64710476D01*
X120780952Y-64734285D01*
X120804761Y-64781904D01*
X120804761Y-64900952D01*
X120780952Y-64948571D01*
X120757142Y-64972380D01*
X120709523Y-64996190D01*
X120566666Y-64996190D01*
X120519047Y-64972380D01*
X120495238Y-64948571D01*
X120995238Y-64543809D02*
X121019047Y-64520000D01*
X121066666Y-64496190D01*
X121185714Y-64496190D01*
X121233333Y-64520000D01*
X121257142Y-64543809D01*
X121280952Y-64591428D01*
X121280952Y-64639047D01*
X121257142Y-64710476D01*
X120971428Y-64996190D01*
X121280952Y-64996190D01*
X122582857Y-62456190D02*
X122582857Y-61956190D01*
X122701904Y-61956190D01*
X122773333Y-61980000D01*
X122820952Y-62027619D01*
X122844761Y-62075238D01*
X122868571Y-62170476D01*
X122868571Y-62241904D01*
X122844761Y-62337142D01*
X122820952Y-62384761D01*
X122773333Y-62432380D01*
X122701904Y-62456190D01*
X122582857Y-62456190D01*
X123035238Y-61956190D02*
X123344761Y-61956190D01*
X123178095Y-62146666D01*
X123249523Y-62146666D01*
X123297142Y-62170476D01*
X123320952Y-62194285D01*
X123344761Y-62241904D01*
X123344761Y-62360952D01*
X123320952Y-62408571D01*
X123297142Y-62432380D01*
X123249523Y-62456190D01*
X123106666Y-62456190D01*
X123059047Y-62432380D01*
X123035238Y-62408571D01*
X123797142Y-61956190D02*
X123559047Y-61956190D01*
X123535238Y-62194285D01*
X123559047Y-62170476D01*
X123606666Y-62146666D01*
X123725714Y-62146666D01*
X123773333Y-62170476D01*
X123797142Y-62194285D01*
X123820952Y-62241904D01*
X123820952Y-62360952D01*
X123797142Y-62408571D01*
X123773333Y-62432380D01*
X123725714Y-62456190D01*
X123606666Y-62456190D01*
X123559047Y-62432380D01*
X123535238Y-62408571D01*
X120042857Y-62456190D02*
X120042857Y-61956190D01*
X120161904Y-61956190D01*
X120233333Y-61980000D01*
X120280952Y-62027619D01*
X120304761Y-62075238D01*
X120328571Y-62170476D01*
X120328571Y-62241904D01*
X120304761Y-62337142D01*
X120280952Y-62384761D01*
X120233333Y-62432380D01*
X120161904Y-62456190D01*
X120042857Y-62456190D01*
X120495238Y-61956190D02*
X120804761Y-61956190D01*
X120638095Y-62146666D01*
X120709523Y-62146666D01*
X120757142Y-62170476D01*
X120780952Y-62194285D01*
X120804761Y-62241904D01*
X120804761Y-62360952D01*
X120780952Y-62408571D01*
X120757142Y-62432380D01*
X120709523Y-62456190D01*
X120566666Y-62456190D01*
X120519047Y-62432380D01*
X120495238Y-62408571D01*
X121233333Y-62122857D02*
X121233333Y-62456190D01*
X121114285Y-61932380D02*
X120995238Y-62289523D01*
X121304761Y-62289523D01*
X122582857Y-59916190D02*
X122582857Y-59416190D01*
X122701904Y-59416190D01*
X122773333Y-59440000D01*
X122820952Y-59487619D01*
X122844761Y-59535238D01*
X122868571Y-59630476D01*
X122868571Y-59701904D01*
X122844761Y-59797142D01*
X122820952Y-59844761D01*
X122773333Y-59892380D01*
X122701904Y-59916190D01*
X122582857Y-59916190D01*
X123035238Y-59416190D02*
X123344761Y-59416190D01*
X123178095Y-59606666D01*
X123249523Y-59606666D01*
X123297142Y-59630476D01*
X123320952Y-59654285D01*
X123344761Y-59701904D01*
X123344761Y-59820952D01*
X123320952Y-59868571D01*
X123297142Y-59892380D01*
X123249523Y-59916190D01*
X123106666Y-59916190D01*
X123059047Y-59892380D01*
X123035238Y-59868571D01*
X123511428Y-59416190D02*
X123844761Y-59416190D01*
X123630476Y-59916190D01*
X120042857Y-59916190D02*
X120042857Y-59416190D01*
X120161904Y-59416190D01*
X120233333Y-59440000D01*
X120280952Y-59487619D01*
X120304761Y-59535238D01*
X120328571Y-59630476D01*
X120328571Y-59701904D01*
X120304761Y-59797142D01*
X120280952Y-59844761D01*
X120233333Y-59892380D01*
X120161904Y-59916190D01*
X120042857Y-59916190D01*
X120495238Y-59416190D02*
X120804761Y-59416190D01*
X120638095Y-59606666D01*
X120709523Y-59606666D01*
X120757142Y-59630476D01*
X120780952Y-59654285D01*
X120804761Y-59701904D01*
X120804761Y-59820952D01*
X120780952Y-59868571D01*
X120757142Y-59892380D01*
X120709523Y-59916190D01*
X120566666Y-59916190D01*
X120519047Y-59892380D01*
X120495238Y-59868571D01*
X121233333Y-59416190D02*
X121138095Y-59416190D01*
X121090476Y-59440000D01*
X121066666Y-59463809D01*
X121019047Y-59535238D01*
X120995238Y-59630476D01*
X120995238Y-59820952D01*
X121019047Y-59868571D01*
X121042857Y-59892380D01*
X121090476Y-59916190D01*
X121185714Y-59916190D01*
X121233333Y-59892380D01*
X121257142Y-59868571D01*
X121280952Y-59820952D01*
X121280952Y-59701904D01*
X121257142Y-59654285D01*
X121233333Y-59630476D01*
X121185714Y-59606666D01*
X121090476Y-59606666D01*
X121042857Y-59630476D01*
X121019047Y-59654285D01*
X120995238Y-59701904D01*
X122582857Y-57376190D02*
X122582857Y-56876190D01*
X122701904Y-56876190D01*
X122773333Y-56900000D01*
X122820952Y-56947619D01*
X122844761Y-56995238D01*
X122868571Y-57090476D01*
X122868571Y-57161904D01*
X122844761Y-57257142D01*
X122820952Y-57304761D01*
X122773333Y-57352380D01*
X122701904Y-57376190D01*
X122582857Y-57376190D01*
X123035238Y-56876190D02*
X123344761Y-56876190D01*
X123178095Y-57066666D01*
X123249523Y-57066666D01*
X123297142Y-57090476D01*
X123320952Y-57114285D01*
X123344761Y-57161904D01*
X123344761Y-57280952D01*
X123320952Y-57328571D01*
X123297142Y-57352380D01*
X123249523Y-57376190D01*
X123106666Y-57376190D01*
X123059047Y-57352380D01*
X123035238Y-57328571D01*
X123582857Y-57376190D02*
X123678095Y-57376190D01*
X123725714Y-57352380D01*
X123749523Y-57328571D01*
X123797142Y-57257142D01*
X123820952Y-57161904D01*
X123820952Y-56971428D01*
X123797142Y-56923809D01*
X123773333Y-56900000D01*
X123725714Y-56876190D01*
X123630476Y-56876190D01*
X123582857Y-56900000D01*
X123559047Y-56923809D01*
X123535238Y-56971428D01*
X123535238Y-57090476D01*
X123559047Y-57138095D01*
X123582857Y-57161904D01*
X123630476Y-57185714D01*
X123725714Y-57185714D01*
X123773333Y-57161904D01*
X123797142Y-57138095D01*
X123820952Y-57090476D01*
X120042857Y-57376190D02*
X120042857Y-56876190D01*
X120161904Y-56876190D01*
X120233333Y-56900000D01*
X120280952Y-56947619D01*
X120304761Y-56995238D01*
X120328571Y-57090476D01*
X120328571Y-57161904D01*
X120304761Y-57257142D01*
X120280952Y-57304761D01*
X120233333Y-57352380D01*
X120161904Y-57376190D01*
X120042857Y-57376190D01*
X120495238Y-56876190D02*
X120804761Y-56876190D01*
X120638095Y-57066666D01*
X120709523Y-57066666D01*
X120757142Y-57090476D01*
X120780952Y-57114285D01*
X120804761Y-57161904D01*
X120804761Y-57280952D01*
X120780952Y-57328571D01*
X120757142Y-57352380D01*
X120709523Y-57376190D01*
X120566666Y-57376190D01*
X120519047Y-57352380D01*
X120495238Y-57328571D01*
X121090476Y-57090476D02*
X121042857Y-57066666D01*
X121019047Y-57042857D01*
X120995238Y-56995238D01*
X120995238Y-56971428D01*
X121019047Y-56923809D01*
X121042857Y-56900000D01*
X121090476Y-56876190D01*
X121185714Y-56876190D01*
X121233333Y-56900000D01*
X121257142Y-56923809D01*
X121280952Y-56971428D01*
X121280952Y-56995238D01*
X121257142Y-57042857D01*
X121233333Y-57066666D01*
X121185714Y-57090476D01*
X121090476Y-57090476D01*
X121042857Y-57114285D01*
X121019047Y-57138095D01*
X120995238Y-57185714D01*
X120995238Y-57280952D01*
X121019047Y-57328571D01*
X121042857Y-57352380D01*
X121090476Y-57376190D01*
X121185714Y-57376190D01*
X121233333Y-57352380D01*
X121257142Y-57328571D01*
X121280952Y-57280952D01*
X121280952Y-57185714D01*
X121257142Y-57138095D01*
X121233333Y-57114285D01*
X121185714Y-57090476D01*
X122582857Y-54836190D02*
X122582857Y-54336190D01*
X122701904Y-54336190D01*
X122773333Y-54360000D01*
X122820952Y-54407619D01*
X122844761Y-54455238D01*
X122868571Y-54550476D01*
X122868571Y-54621904D01*
X122844761Y-54717142D01*
X122820952Y-54764761D01*
X122773333Y-54812380D01*
X122701904Y-54836190D01*
X122582857Y-54836190D01*
X123297142Y-54502857D02*
X123297142Y-54836190D01*
X123178095Y-54312380D02*
X123059047Y-54669523D01*
X123368571Y-54669523D01*
X123820952Y-54836190D02*
X123535238Y-54836190D01*
X123678095Y-54836190D02*
X123678095Y-54336190D01*
X123630476Y-54407619D01*
X123582857Y-54455238D01*
X123535238Y-54479047D01*
X120042857Y-54836190D02*
X120042857Y-54336190D01*
X120161904Y-54336190D01*
X120233333Y-54360000D01*
X120280952Y-54407619D01*
X120304761Y-54455238D01*
X120328571Y-54550476D01*
X120328571Y-54621904D01*
X120304761Y-54717142D01*
X120280952Y-54764761D01*
X120233333Y-54812380D01*
X120161904Y-54836190D01*
X120042857Y-54836190D01*
X120757142Y-54502857D02*
X120757142Y-54836190D01*
X120638095Y-54312380D02*
X120519047Y-54669523D01*
X120828571Y-54669523D01*
X121114285Y-54336190D02*
X121161904Y-54336190D01*
X121209523Y-54360000D01*
X121233333Y-54383809D01*
X121257142Y-54431428D01*
X121280952Y-54526666D01*
X121280952Y-54645714D01*
X121257142Y-54740952D01*
X121233333Y-54788571D01*
X121209523Y-54812380D01*
X121161904Y-54836190D01*
X121114285Y-54836190D01*
X121066666Y-54812380D01*
X121042857Y-54788571D01*
X121019047Y-54740952D01*
X120995238Y-54645714D01*
X120995238Y-54526666D01*
X121019047Y-54431428D01*
X121042857Y-54383809D01*
X121066666Y-54360000D01*
X121114285Y-54336190D01*
X122582857Y-52296190D02*
X122582857Y-51796190D01*
X122701904Y-51796190D01*
X122773333Y-51820000D01*
X122820952Y-51867619D01*
X122844761Y-51915238D01*
X122868571Y-52010476D01*
X122868571Y-52081904D01*
X122844761Y-52177142D01*
X122820952Y-52224761D01*
X122773333Y-52272380D01*
X122701904Y-52296190D01*
X122582857Y-52296190D01*
X123297142Y-51962857D02*
X123297142Y-52296190D01*
X123178095Y-51772380D02*
X123059047Y-52129523D01*
X123368571Y-52129523D01*
X123511428Y-51796190D02*
X123820952Y-51796190D01*
X123654285Y-51986666D01*
X123725714Y-51986666D01*
X123773333Y-52010476D01*
X123797142Y-52034285D01*
X123820952Y-52081904D01*
X123820952Y-52200952D01*
X123797142Y-52248571D01*
X123773333Y-52272380D01*
X123725714Y-52296190D01*
X123582857Y-52296190D01*
X123535238Y-52272380D01*
X123511428Y-52248571D01*
X120042857Y-52296190D02*
X120042857Y-51796190D01*
X120161904Y-51796190D01*
X120233333Y-51820000D01*
X120280952Y-51867619D01*
X120304761Y-51915238D01*
X120328571Y-52010476D01*
X120328571Y-52081904D01*
X120304761Y-52177142D01*
X120280952Y-52224761D01*
X120233333Y-52272380D01*
X120161904Y-52296190D01*
X120042857Y-52296190D01*
X120757142Y-51962857D02*
X120757142Y-52296190D01*
X120638095Y-51772380D02*
X120519047Y-52129523D01*
X120828571Y-52129523D01*
X120995238Y-51843809D02*
X121019047Y-51820000D01*
X121066666Y-51796190D01*
X121185714Y-51796190D01*
X121233333Y-51820000D01*
X121257142Y-51843809D01*
X121280952Y-51891428D01*
X121280952Y-51939047D01*
X121257142Y-52010476D01*
X120971428Y-52296190D01*
X121280952Y-52296190D01*
X122582857Y-49756190D02*
X122582857Y-49256190D01*
X122701904Y-49256190D01*
X122773333Y-49280000D01*
X122820952Y-49327619D01*
X122844761Y-49375238D01*
X122868571Y-49470476D01*
X122868571Y-49541904D01*
X122844761Y-49637142D01*
X122820952Y-49684761D01*
X122773333Y-49732380D01*
X122701904Y-49756190D01*
X122582857Y-49756190D01*
X123297142Y-49422857D02*
X123297142Y-49756190D01*
X123178095Y-49232380D02*
X123059047Y-49589523D01*
X123368571Y-49589523D01*
X123797142Y-49256190D02*
X123559047Y-49256190D01*
X123535238Y-49494285D01*
X123559047Y-49470476D01*
X123606666Y-49446666D01*
X123725714Y-49446666D01*
X123773333Y-49470476D01*
X123797142Y-49494285D01*
X123820952Y-49541904D01*
X123820952Y-49660952D01*
X123797142Y-49708571D01*
X123773333Y-49732380D01*
X123725714Y-49756190D01*
X123606666Y-49756190D01*
X123559047Y-49732380D01*
X123535238Y-49708571D01*
X120042857Y-49756190D02*
X120042857Y-49256190D01*
X120161904Y-49256190D01*
X120233333Y-49280000D01*
X120280952Y-49327619D01*
X120304761Y-49375238D01*
X120328571Y-49470476D01*
X120328571Y-49541904D01*
X120304761Y-49637142D01*
X120280952Y-49684761D01*
X120233333Y-49732380D01*
X120161904Y-49756190D01*
X120042857Y-49756190D01*
X120757142Y-49422857D02*
X120757142Y-49756190D01*
X120638095Y-49232380D02*
X120519047Y-49589523D01*
X120828571Y-49589523D01*
X121233333Y-49422857D02*
X121233333Y-49756190D01*
X121114285Y-49232380D02*
X120995238Y-49589523D01*
X121304761Y-49589523D01*
X122582857Y-47216190D02*
X122582857Y-46716190D01*
X122701904Y-46716190D01*
X122773333Y-46740000D01*
X122820952Y-46787619D01*
X122844761Y-46835238D01*
X122868571Y-46930476D01*
X122868571Y-47001904D01*
X122844761Y-47097142D01*
X122820952Y-47144761D01*
X122773333Y-47192380D01*
X122701904Y-47216190D01*
X122582857Y-47216190D01*
X123297142Y-46882857D02*
X123297142Y-47216190D01*
X123178095Y-46692380D02*
X123059047Y-47049523D01*
X123368571Y-47049523D01*
X123511428Y-46716190D02*
X123844761Y-46716190D01*
X123630476Y-47216190D01*
X120042857Y-47216190D02*
X120042857Y-46716190D01*
X120161904Y-46716190D01*
X120233333Y-46740000D01*
X120280952Y-46787619D01*
X120304761Y-46835238D01*
X120328571Y-46930476D01*
X120328571Y-47001904D01*
X120304761Y-47097142D01*
X120280952Y-47144761D01*
X120233333Y-47192380D01*
X120161904Y-47216190D01*
X120042857Y-47216190D01*
X120757142Y-46882857D02*
X120757142Y-47216190D01*
X120638095Y-46692380D02*
X120519047Y-47049523D01*
X120828571Y-47049523D01*
X121233333Y-46716190D02*
X121138095Y-46716190D01*
X121090476Y-46740000D01*
X121066666Y-46763809D01*
X121019047Y-46835238D01*
X120995238Y-46930476D01*
X120995238Y-47120952D01*
X121019047Y-47168571D01*
X121042857Y-47192380D01*
X121090476Y-47216190D01*
X121185714Y-47216190D01*
X121233333Y-47192380D01*
X121257142Y-47168571D01*
X121280952Y-47120952D01*
X121280952Y-47001904D01*
X121257142Y-46954285D01*
X121233333Y-46930476D01*
X121185714Y-46906666D01*
X121090476Y-46906666D01*
X121042857Y-46930476D01*
X121019047Y-46954285D01*
X120995238Y-47001904D01*
D11*
X153360714Y-90618571D02*
X154289285Y-90618571D01*
X153789285Y-91190000D01*
X154003571Y-91190000D01*
X154146428Y-91261428D01*
X154217857Y-91332857D01*
X154289285Y-91475714D01*
X154289285Y-91832857D01*
X154217857Y-91975714D01*
X154146428Y-92047142D01*
X154003571Y-92118571D01*
X153575000Y-92118571D01*
X153432142Y-92047142D01*
X153360714Y-91975714D01*
X154932142Y-91975714D02*
X155003571Y-92047142D01*
X154932142Y-92118571D01*
X154860714Y-92047142D01*
X154932142Y-91975714D01*
X154932142Y-92118571D01*
X155503571Y-90618571D02*
X156432142Y-90618571D01*
X155932142Y-91190000D01*
X156146428Y-91190000D01*
X156289285Y-91261428D01*
X156360714Y-91332857D01*
X156432142Y-91475714D01*
X156432142Y-91832857D01*
X156360714Y-91975714D01*
X156289285Y-92047142D01*
X156146428Y-92118571D01*
X155717857Y-92118571D01*
X155575000Y-92047142D01*
X155503571Y-91975714D01*
X156860714Y-90618571D02*
X157360714Y-92118571D01*
X157860714Y-90618571D01*
X155924285Y-93158571D02*
X155210000Y-93158571D01*
X155138571Y-93872857D01*
X155210000Y-93801428D01*
X155352857Y-93730000D01*
X155710000Y-93730000D01*
X155852857Y-93801428D01*
X155924285Y-93872857D01*
X155995714Y-94015714D01*
X155995714Y-94372857D01*
X155924285Y-94515714D01*
X155852857Y-94587142D01*
X155710000Y-94658571D01*
X155352857Y-94658571D01*
X155210000Y-94587142D01*
X155138571Y-94515714D01*
X156424285Y-93158571D02*
X156924285Y-94658571D01*
X157424285Y-93158571D01*
X154432142Y-95770000D02*
X154289285Y-95698571D01*
X154075000Y-95698571D01*
X153860714Y-95770000D01*
X153717857Y-95912857D01*
X153646428Y-96055714D01*
X153575000Y-96341428D01*
X153575000Y-96555714D01*
X153646428Y-96841428D01*
X153717857Y-96984285D01*
X153860714Y-97127142D01*
X154075000Y-97198571D01*
X154217857Y-97198571D01*
X154432142Y-97127142D01*
X154503571Y-97055714D01*
X154503571Y-96555714D01*
X154217857Y-96555714D01*
X155146428Y-97198571D02*
X155146428Y-95698571D01*
X156003571Y-97198571D01*
X156003571Y-95698571D01*
X156717857Y-97198571D02*
X156717857Y-95698571D01*
X157075000Y-95698571D01*
X157289285Y-95770000D01*
X157432142Y-95912857D01*
X157503571Y-96055714D01*
X157575000Y-96341428D01*
X157575000Y-96555714D01*
X157503571Y-96841428D01*
X157432142Y-96984285D01*
X157289285Y-97127142D01*
X157075000Y-97198571D01*
X156717857Y-97198571D01*
X154567142Y-98238571D02*
X155067142Y-99738571D01*
X155567142Y-98238571D01*
X156067142Y-99738571D02*
X156067142Y-98238571D01*
X156781428Y-99738571D02*
X156781428Y-98238571D01*
X157638571Y-99738571D01*
X157638571Y-98238571D01*
D14*
X166624047Y-106321428D02*
X167385952Y-106321428D01*
X165743095Y-107402380D02*
X165743095Y-108211904D01*
X165790714Y-108307142D01*
X165838333Y-108354761D01*
X165933571Y-108402380D01*
X166124047Y-108402380D01*
X166219285Y-108354761D01*
X166266904Y-108307142D01*
X166314523Y-108211904D01*
X166314523Y-107402380D01*
X166743095Y-108354761D02*
X166885952Y-108402380D01*
X167124047Y-108402380D01*
X167219285Y-108354761D01*
X167266904Y-108307142D01*
X167314523Y-108211904D01*
X167314523Y-108116666D01*
X167266904Y-108021428D01*
X167219285Y-107973809D01*
X167124047Y-107926190D01*
X166933571Y-107878571D01*
X166838333Y-107830952D01*
X166790714Y-107783333D01*
X166743095Y-107688095D01*
X166743095Y-107592857D01*
X166790714Y-107497619D01*
X166838333Y-107450000D01*
X166933571Y-107402380D01*
X167171666Y-107402380D01*
X167314523Y-107450000D01*
X168076428Y-107878571D02*
X168219285Y-107926190D01*
X168266904Y-107973809D01*
X168314523Y-108069047D01*
X168314523Y-108211904D01*
X168266904Y-108307142D01*
X168219285Y-108354761D01*
X168124047Y-108402380D01*
X167743095Y-108402380D01*
X167743095Y-107402380D01*
X168076428Y-107402380D01*
X168171666Y-107450000D01*
X168219285Y-107497619D01*
X168266904Y-107592857D01*
X168266904Y-107688095D01*
X168219285Y-107783333D01*
X168171666Y-107830952D01*
X168076428Y-107878571D01*
X167743095Y-107878571D01*
X166624047Y-109721428D02*
X167385952Y-109721428D01*
X167005000Y-110102380D02*
X167005000Y-109340476D01*
D15*
X175181190Y-107767380D02*
X175181190Y-106767380D01*
X175514523Y-107481666D01*
X175847857Y-106767380D01*
X175847857Y-107767380D01*
X176324047Y-107767380D02*
X176324047Y-107100714D01*
X176324047Y-106767380D02*
X176276428Y-106815000D01*
X176324047Y-106862619D01*
X176371666Y-106815000D01*
X176324047Y-106767380D01*
X176324047Y-106862619D01*
X177228809Y-107719761D02*
X177133571Y-107767380D01*
X176943095Y-107767380D01*
X176847857Y-107719761D01*
X176800238Y-107672142D01*
X176752619Y-107576904D01*
X176752619Y-107291190D01*
X176800238Y-107195952D01*
X176847857Y-107148333D01*
X176943095Y-107100714D01*
X177133571Y-107100714D01*
X177228809Y-107148333D01*
X177657380Y-107767380D02*
X177657380Y-107100714D01*
X177657380Y-107291190D02*
X177705000Y-107195952D01*
X177752619Y-107148333D01*
X177847857Y-107100714D01*
X177943095Y-107100714D01*
X178419285Y-107767380D02*
X178324047Y-107719761D01*
X178276428Y-107672142D01*
X178228809Y-107576904D01*
X178228809Y-107291190D01*
X178276428Y-107195952D01*
X178324047Y-107148333D01*
X178419285Y-107100714D01*
X178562142Y-107100714D01*
X178657380Y-107148333D01*
X178705000Y-107195952D01*
X178752619Y-107291190D01*
X178752619Y-107576904D01*
X178705000Y-107672142D01*
X178657380Y-107719761D01*
X178562142Y-107767380D01*
X178419285Y-107767380D01*
X179943095Y-106767380D02*
X179943095Y-107576904D01*
X179990714Y-107672142D01*
X180038333Y-107719761D01*
X180133571Y-107767380D01*
X180324047Y-107767380D01*
X180419285Y-107719761D01*
X180466904Y-107672142D01*
X180514523Y-107576904D01*
X180514523Y-106767380D01*
X180943095Y-107719761D02*
X181085952Y-107767380D01*
X181324047Y-107767380D01*
X181419285Y-107719761D01*
X181466904Y-107672142D01*
X181514523Y-107576904D01*
X181514523Y-107481666D01*
X181466904Y-107386428D01*
X181419285Y-107338809D01*
X181324047Y-107291190D01*
X181133571Y-107243571D01*
X181038333Y-107195952D01*
X180990714Y-107148333D01*
X180943095Y-107053095D01*
X180943095Y-106957857D01*
X180990714Y-106862619D01*
X181038333Y-106815000D01*
X181133571Y-106767380D01*
X181371666Y-106767380D01*
X181514523Y-106815000D01*
X182276428Y-107243571D02*
X182419285Y-107291190D01*
X182466904Y-107338809D01*
X182514523Y-107434047D01*
X182514523Y-107576904D01*
X182466904Y-107672142D01*
X182419285Y-107719761D01*
X182324047Y-107767380D01*
X181943095Y-107767380D01*
X181943095Y-106767380D01*
X182276428Y-106767380D01*
X182371666Y-106815000D01*
X182419285Y-106862619D01*
X182466904Y-106957857D01*
X182466904Y-107053095D01*
X182419285Y-107148333D01*
X182371666Y-107195952D01*
X182276428Y-107243571D01*
X181943095Y-107243571D01*
X184038333Y-107243571D02*
X184181190Y-107291190D01*
X184228809Y-107338809D01*
X184276428Y-107434047D01*
X184276428Y-107576904D01*
X184228809Y-107672142D01*
X184181190Y-107719761D01*
X184085952Y-107767380D01*
X183705000Y-107767380D01*
X183705000Y-106767380D01*
X184038333Y-106767380D01*
X184133571Y-106815000D01*
X184181190Y-106862619D01*
X184228809Y-106957857D01*
X184228809Y-107053095D01*
X184181190Y-107148333D01*
X184133571Y-107195952D01*
X184038333Y-107243571D01*
X183705000Y-107243571D01*
D11*
X157194285Y-107128571D02*
X156480000Y-107128571D01*
X156408571Y-107842857D01*
X156480000Y-107771428D01*
X156622857Y-107700000D01*
X156980000Y-107700000D01*
X157122857Y-107771428D01*
X157194285Y-107842857D01*
X157265714Y-107985714D01*
X157265714Y-108342857D01*
X157194285Y-108485714D01*
X157122857Y-108557142D01*
X156980000Y-108628571D01*
X156622857Y-108628571D01*
X156480000Y-108557142D01*
X156408571Y-108485714D01*
X157694285Y-107128571D02*
X158194285Y-108628571D01*
X158694285Y-107128571D01*
X122817142Y-105858571D02*
X123317142Y-107358571D01*
X123817142Y-105858571D01*
X124317142Y-107358571D02*
X124317142Y-105858571D01*
X125031428Y-107358571D02*
X125031428Y-105858571D01*
X125888571Y-107358571D01*
X125888571Y-105858571D01*
D12*
X178409285Y-93684285D02*
X178409285Y-92934285D01*
X178587857Y-92934285D01*
X178695000Y-92970000D01*
X178766428Y-93041428D01*
X178802142Y-93112857D01*
X178837857Y-93255714D01*
X178837857Y-93362857D01*
X178802142Y-93505714D01*
X178766428Y-93577142D01*
X178695000Y-93648571D01*
X178587857Y-93684285D01*
X178409285Y-93684285D01*
X179159285Y-93398571D02*
X179730714Y-93398571D01*
X175922857Y-92934285D02*
X175565714Y-92934285D01*
X175530000Y-93291428D01*
X175565714Y-93255714D01*
X175637142Y-93220000D01*
X175815714Y-93220000D01*
X175887142Y-93255714D01*
X175922857Y-93291428D01*
X175958571Y-93362857D01*
X175958571Y-93541428D01*
X175922857Y-93612857D01*
X175887142Y-93648571D01*
X175815714Y-93684285D01*
X175637142Y-93684285D01*
X175565714Y-93648571D01*
X175530000Y-93612857D01*
X176172857Y-92934285D02*
X176422857Y-93684285D01*
X176672857Y-92934285D01*
X176922857Y-93398571D02*
X177494285Y-93398571D01*
X177208571Y-93684285D02*
X177208571Y-93112857D01*
D11*
X123711053Y-108289440D02*
X122996768Y-108289440D01*
X122925339Y-109003726D01*
X122996768Y-108932297D01*
X123139625Y-108860869D01*
X123496768Y-108860869D01*
X123639625Y-108932297D01*
X123711053Y-109003726D01*
X123782482Y-109146583D01*
X123782482Y-109503726D01*
X123711053Y-109646583D01*
X123639625Y-109718011D01*
X123496768Y-109789440D01*
X123139625Y-109789440D01*
X122996768Y-109718011D01*
X122925339Y-109646583D01*
X124211053Y-108289440D02*
X124711053Y-109789440D01*
X125211053Y-108289440D01*
D12*
X183578571Y-92970000D02*
X183507142Y-92934285D01*
X183400000Y-92934285D01*
X183292857Y-92970000D01*
X183221428Y-93041428D01*
X183185714Y-93112857D01*
X183150000Y-93255714D01*
X183150000Y-93362857D01*
X183185714Y-93505714D01*
X183221428Y-93577142D01*
X183292857Y-93648571D01*
X183400000Y-93684285D01*
X183471428Y-93684285D01*
X183578571Y-93648571D01*
X183614285Y-93612857D01*
X183614285Y-93362857D01*
X183471428Y-93362857D01*
X183935714Y-93684285D02*
X183935714Y-92934285D01*
X184364285Y-93684285D01*
X184364285Y-92934285D01*
X184721428Y-93684285D02*
X184721428Y-92934285D01*
X184900000Y-92934285D01*
X185007142Y-92970000D01*
X185078571Y-93041428D01*
X185114285Y-93112857D01*
X185150000Y-93255714D01*
X185150000Y-93362857D01*
X185114285Y-93505714D01*
X185078571Y-93577142D01*
X185007142Y-93648571D01*
X184900000Y-93684285D01*
X184721428Y-93684285D01*
X180949285Y-93684285D02*
X180949285Y-92934285D01*
X181127857Y-92934285D01*
X181235000Y-92970000D01*
X181306428Y-93041428D01*
X181342142Y-93112857D01*
X181377857Y-93255714D01*
X181377857Y-93362857D01*
X181342142Y-93505714D01*
X181306428Y-93577142D01*
X181235000Y-93648571D01*
X181127857Y-93684285D01*
X180949285Y-93684285D01*
X181699285Y-93398571D02*
X182270714Y-93398571D01*
X181985000Y-93684285D02*
X181985000Y-93112857D01*
D16*
X120015000Y-109220000D02*
X118745000Y-109220000D01*
X120015000Y-104140000D02*
X118745000Y-104140000D01*
X163195000Y-109220000D02*
X161925000Y-109220000D01*
X163195000Y-106680000D02*
X161925000Y-106680000D01*
X120015000Y-106680000D02*
X118745000Y-106680000D01*
D10*
X119380000Y-102810000D02*
X121980000Y-102810000D01*
X116780000Y-105410000D02*
X116780000Y-102810000D01*
X116780000Y-102810000D02*
X119380000Y-102810000D01*
X121980000Y-102810000D02*
X121980000Y-110550000D01*
X116780000Y-105410000D02*
X116780000Y-110550000D01*
X116780000Y-110550000D02*
X121980000Y-110550000D01*
X162560000Y-105350000D02*
X165160000Y-105350000D01*
X159960000Y-107950000D02*
X159960000Y-105350000D01*
X159960000Y-105350000D02*
X162560000Y-105350000D01*
X165160000Y-105350000D02*
X165160000Y-110550000D01*
X159960000Y-107950000D02*
X159960000Y-110550000D01*
X159960000Y-110550000D02*
X165160000Y-110550000D01*
D17*
G36*
X145872601Y-56800758D02*
G01*
X146693081Y-56978997D01*
X146911644Y-57048270D01*
X147056034Y-57110553D01*
X147093367Y-57146738D01*
X147032824Y-57212938D01*
X146886023Y-57351259D01*
X146677310Y-57539198D01*
X146508894Y-57686941D01*
X145945238Y-58176460D01*
X144725800Y-58197340D01*
X144204823Y-58210494D01*
X143792665Y-58234364D01*
X143452637Y-58275751D01*
X143148051Y-58341453D01*
X142842219Y-58438269D01*
X142498455Y-58572998D01*
X142341891Y-58639121D01*
X142002612Y-58812636D01*
X141607299Y-59058409D01*
X141201295Y-59344250D01*
X140829949Y-59637970D01*
X140538604Y-59907379D01*
X140505506Y-59942718D01*
X139923874Y-60672169D01*
X139481795Y-61438131D01*
X139176047Y-62248775D01*
X139003409Y-63112270D01*
X138958914Y-63865905D01*
X139026477Y-64776510D01*
X139230415Y-65639891D01*
X139567647Y-66450533D01*
X140035092Y-67202918D01*
X140629670Y-67891529D01*
X141348299Y-68510848D01*
X141685440Y-68748352D01*
X142044554Y-68982952D01*
X142324701Y-69153305D01*
X142565597Y-69279436D01*
X142806957Y-69381367D01*
X143088499Y-69479123D01*
X143215243Y-69519645D01*
X144131023Y-69741386D01*
X145020514Y-69820109D01*
X145885542Y-69755613D01*
X146727931Y-69547699D01*
X147549506Y-69196165D01*
X147886840Y-69006823D01*
X148155461Y-68855723D01*
X148385647Y-68745313D01*
X148544461Y-68690470D01*
X148589539Y-68689415D01*
X148706981Y-68669417D01*
X148874025Y-68567473D01*
X148937557Y-68514803D01*
X149094301Y-68350354D01*
X149164615Y-68184619D01*
X149180990Y-67964076D01*
X149196286Y-67766220D01*
X149233465Y-67661846D01*
X149255931Y-67655071D01*
X149422527Y-67645056D01*
X149596681Y-67527638D01*
X149742372Y-67334298D01*
X149807461Y-67173114D01*
X149862618Y-66979943D01*
X149948879Y-66688819D01*
X150053980Y-66340738D01*
X150155060Y-66010985D01*
X150267841Y-65655238D01*
X150349597Y-65424219D01*
X150407724Y-65302261D01*
X150449617Y-65273697D01*
X150481422Y-65319581D01*
X150511331Y-65495216D01*
X150517746Y-65782083D01*
X150503024Y-66148171D01*
X150469522Y-66561467D01*
X150419596Y-66989959D01*
X150355605Y-67401636D01*
X150311541Y-67626777D01*
X150162521Y-68173652D01*
X149956149Y-68646794D01*
X149666297Y-69097241D01*
X149376651Y-69452892D01*
X149185069Y-69652109D01*
X148975069Y-69822632D01*
X148719481Y-69980265D01*
X148391137Y-70140811D01*
X147962868Y-70320073D01*
X147727564Y-70412115D01*
X146786337Y-70729844D01*
X145899126Y-70931832D01*
X145037247Y-71022120D01*
X144172017Y-71004752D01*
X143797478Y-70965915D01*
X142800226Y-70767536D01*
X141852774Y-70435323D01*
X140964920Y-69975394D01*
X140146461Y-69393869D01*
X139407198Y-68696869D01*
X138756926Y-67890511D01*
X138669470Y-67763187D01*
X138199364Y-66939928D01*
X137841899Y-66033228D01*
X137631395Y-65226690D01*
X137543273Y-64605784D01*
X137513424Y-63909549D01*
X137540273Y-63194173D01*
X137622245Y-62515841D01*
X137720136Y-62060788D01*
X138046511Y-61115240D01*
X138490393Y-60243596D01*
X139040263Y-59452377D01*
X139684603Y-58748107D01*
X140411894Y-58137310D01*
X141210619Y-57626509D01*
X142069259Y-57222227D01*
X142976295Y-56930987D01*
X143920210Y-56759314D01*
X144889485Y-56713729D01*
X145872601Y-56800758D01*
G37*
X145872601Y-56800758D02*
X146693081Y-56978997D01*
X146911644Y-57048270D01*
X147056034Y-57110553D01*
X147093367Y-57146738D01*
X147032824Y-57212938D01*
X146886023Y-57351259D01*
X146677310Y-57539198D01*
X146508894Y-57686941D01*
X145945238Y-58176460D01*
X144725800Y-58197340D01*
X144204823Y-58210494D01*
X143792665Y-58234364D01*
X143452637Y-58275751D01*
X143148051Y-58341453D01*
X142842219Y-58438269D01*
X142498455Y-58572998D01*
X142341891Y-58639121D01*
X142002612Y-58812636D01*
X141607299Y-59058409D01*
X141201295Y-59344250D01*
X140829949Y-59637970D01*
X140538604Y-59907379D01*
X140505506Y-59942718D01*
X139923874Y-60672169D01*
X139481795Y-61438131D01*
X139176047Y-62248775D01*
X139003409Y-63112270D01*
X138958914Y-63865905D01*
X139026477Y-64776510D01*
X139230415Y-65639891D01*
X139567647Y-66450533D01*
X140035092Y-67202918D01*
X140629670Y-67891529D01*
X141348299Y-68510848D01*
X141685440Y-68748352D01*
X142044554Y-68982952D01*
X142324701Y-69153305D01*
X142565597Y-69279436D01*
X142806957Y-69381367D01*
X143088499Y-69479123D01*
X143215243Y-69519645D01*
X144131023Y-69741386D01*
X145020514Y-69820109D01*
X145885542Y-69755613D01*
X146727931Y-69547699D01*
X147549506Y-69196165D01*
X147886840Y-69006823D01*
X148155461Y-68855723D01*
X148385647Y-68745313D01*
X148544461Y-68690470D01*
X148589539Y-68689415D01*
X148706981Y-68669417D01*
X148874025Y-68567473D01*
X148937557Y-68514803D01*
X149094301Y-68350354D01*
X149164615Y-68184619D01*
X149180990Y-67964076D01*
X149196286Y-67766220D01*
X149233465Y-67661846D01*
X149255931Y-67655071D01*
X149422527Y-67645056D01*
X149596681Y-67527638D01*
X149742372Y-67334298D01*
X149807461Y-67173114D01*
X149862618Y-66979943D01*
X149948879Y-66688819D01*
X150053980Y-66340738D01*
X150155060Y-66010985D01*
X150267841Y-65655238D01*
X150349597Y-65424219D01*
X150407724Y-65302261D01*
X150449617Y-65273697D01*
X150481422Y-65319581D01*
X150511331Y-65495216D01*
X150517746Y-65782083D01*
X150503024Y-66148171D01*
X150469522Y-66561467D01*
X150419596Y-66989959D01*
X150355605Y-67401636D01*
X150311541Y-67626777D01*
X150162521Y-68173652D01*
X149956149Y-68646794D01*
X149666297Y-69097241D01*
X149376651Y-69452892D01*
X149185069Y-69652109D01*
X148975069Y-69822632D01*
X148719481Y-69980265D01*
X148391137Y-70140811D01*
X147962868Y-70320073D01*
X147727564Y-70412115D01*
X146786337Y-70729844D01*
X145899126Y-70931832D01*
X145037247Y-71022120D01*
X144172017Y-71004752D01*
X143797478Y-70965915D01*
X142800226Y-70767536D01*
X141852774Y-70435323D01*
X140964920Y-69975394D01*
X140146461Y-69393869D01*
X139407198Y-68696869D01*
X138756926Y-67890511D01*
X138669470Y-67763187D01*
X138199364Y-66939928D01*
X137841899Y-66033228D01*
X137631395Y-65226690D01*
X137543273Y-64605784D01*
X137513424Y-63909549D01*
X137540273Y-63194173D01*
X137622245Y-62515841D01*
X137720136Y-62060788D01*
X138046511Y-61115240D01*
X138490393Y-60243596D01*
X139040263Y-59452377D01*
X139684603Y-58748107D01*
X140411894Y-58137310D01*
X141210619Y-57626509D01*
X142069259Y-57222227D01*
X142976295Y-56930987D01*
X143920210Y-56759314D01*
X144889485Y-56713729D01*
X145872601Y-56800758D01*
G36*
X151225274Y-68319669D02*
G01*
X151148392Y-68484069D01*
X151025798Y-68696686D01*
X150877646Y-68922920D01*
X150724091Y-69128168D01*
X150703037Y-69153583D01*
X150423193Y-69401425D01*
X150058352Y-69606381D01*
X149668755Y-69735207D01*
X149638023Y-69741285D01*
X149464001Y-69766640D01*
X149370310Y-69766391D01*
X149365100Y-69761361D01*
X149419085Y-69648244D01*
X149560081Y-69480702D01*
X149756652Y-69288912D01*
X149977359Y-69103051D01*
X150190767Y-68953294D01*
X150232331Y-68928910D01*
X150506399Y-68759041D01*
X150776499Y-68566238D01*
X150918134Y-68450053D01*
X151082342Y-68315567D01*
X151201066Y-68242029D01*
X151236288Y-68238089D01*
X151225274Y-68319669D01*
G37*
X151225274Y-68319669D02*
X151148392Y-68484069D01*
X151025798Y-68696686D01*
X150877646Y-68922920D01*
X150724091Y-69128168D01*
X150703037Y-69153583D01*
X150423193Y-69401425D01*
X150058352Y-69606381D01*
X149668755Y-69735207D01*
X149638023Y-69741285D01*
X149464001Y-69766640D01*
X149370310Y-69766391D01*
X149365100Y-69761361D01*
X149419085Y-69648244D01*
X149560081Y-69480702D01*
X149756652Y-69288912D01*
X149977359Y-69103051D01*
X150190767Y-68953294D01*
X150232331Y-68928910D01*
X150506399Y-68759041D01*
X150776499Y-68566238D01*
X150918134Y-68450053D01*
X151082342Y-68315567D01*
X151201066Y-68242029D01*
X151236288Y-68238089D01*
X151225274Y-68319669D01*
G36*
X144402080Y-59510793D02*
G01*
X144393412Y-59576455D01*
X144389541Y-59586921D01*
X144381583Y-59735956D01*
X144414679Y-59873661D01*
X144546206Y-60031361D01*
X144773195Y-60121762D01*
X145063662Y-60147877D01*
X145385620Y-60112720D01*
X145707081Y-60019305D01*
X145996061Y-59870646D01*
X146189253Y-59706446D01*
X146323239Y-59558394D01*
X146843453Y-59743211D01*
X147308864Y-59925912D01*
X147676214Y-60116687D01*
X147991538Y-60344198D01*
X148300868Y-60637107D01*
X148332547Y-60670362D01*
X148733655Y-61176792D01*
X149034951Y-61748526D01*
X149241124Y-62399825D01*
X149356861Y-63144949D01*
X149387634Y-63880272D01*
X149386880Y-64826404D01*
X149081540Y-65400800D01*
X148935052Y-65683716D01*
X148846005Y-65892434D01*
X148801404Y-66080142D01*
X148788256Y-66300025D01*
X148792929Y-66582198D01*
X148795217Y-66866361D01*
X148786679Y-67092007D01*
X148769096Y-67221807D01*
X148761669Y-67237189D01*
X148707834Y-67206995D01*
X148622330Y-67074658D01*
X148521120Y-66875578D01*
X148420169Y-66645155D01*
X148335442Y-66418791D01*
X148282903Y-66231885D01*
X148273467Y-66154627D01*
X148254893Y-65993327D01*
X148207523Y-65961457D01*
X148143684Y-66048820D01*
X148075706Y-66245220D01*
X148053496Y-66336576D01*
X148014735Y-66634909D01*
X148002199Y-67025033D01*
X148014811Y-67455765D01*
X148051490Y-67875922D01*
X148091518Y-68139576D01*
X148109464Y-68283186D01*
X148083466Y-68394250D01*
X147991572Y-68511216D01*
X147811830Y-68672531D01*
X147764250Y-68712790D01*
X147536657Y-68887762D01*
X147290149Y-69037152D01*
X146994965Y-69174561D01*
X146621347Y-69313594D01*
X146139537Y-69467853D01*
X146059008Y-69492267D01*
X145340816Y-69636344D01*
X144592520Y-69652071D01*
X143853713Y-69538884D01*
X143796999Y-69524452D01*
X143165131Y-69329986D01*
X142597535Y-69098798D01*
X142131284Y-68846388D01*
X142056461Y-68796793D01*
X141873816Y-68664873D01*
X141752792Y-68565472D01*
X141723266Y-68529573D01*
X141761180Y-68453271D01*
X141858588Y-68297909D01*
X141944429Y-68170149D01*
X142110826Y-67968468D01*
X145246275Y-67968468D01*
X145300708Y-67973868D01*
X145429623Y-67877547D01*
X145588410Y-67719384D01*
X145905483Y-67352917D01*
X146163114Y-66982719D01*
X146395938Y-66555233D01*
X146535426Y-66255062D01*
X146792792Y-65598083D01*
X146951165Y-65011909D01*
X147008239Y-64507242D01*
X146981924Y-64182052D01*
X146909724Y-63807493D01*
X146900163Y-64328659D01*
X146824945Y-64977524D01*
X146620642Y-65639457D01*
X146283768Y-66322805D01*
X145810843Y-67035914D01*
X145720371Y-67155870D01*
X145503370Y-67455047D01*
X145350254Y-67697747D01*
X145263673Y-67872657D01*
X145246275Y-67968468D01*
X142110826Y-67968468D01*
X142170617Y-67896000D01*
X142498477Y-67573511D01*
X142902488Y-67225114D01*
X143357126Y-66873242D01*
X143678455Y-66645963D01*
X144011039Y-66398575D01*
X144267546Y-66147787D01*
X144505571Y-65835009D01*
X144569379Y-65739591D01*
X144742346Y-65468295D01*
X144847989Y-65269695D01*
X144902743Y-65097444D01*
X144923045Y-64905193D01*
X144925558Y-64735185D01*
X144876830Y-64264836D01*
X144725751Y-63882307D01*
X144582145Y-63684715D01*
X144514539Y-63559975D01*
X144560526Y-63446481D01*
X144731965Y-63322695D01*
X144802810Y-63283919D01*
X144962389Y-63223271D01*
X145184988Y-63184254D01*
X145499912Y-63163278D01*
X145838392Y-63157072D01*
X146211067Y-63150992D01*
X146471075Y-63134569D01*
X146651200Y-63102989D01*
X146784228Y-63051437D01*
X146857303Y-63007420D01*
X147072550Y-62862361D01*
X146694924Y-62823872D01*
X146469185Y-62790602D01*
X146305340Y-62747659D01*
X146258247Y-62722159D01*
X146271863Y-62690021D01*
X146385580Y-62703497D01*
X146694669Y-62707400D01*
X147030041Y-62591705D01*
X147358366Y-62369610D01*
X147454401Y-62280324D01*
X147662596Y-62058566D01*
X147752660Y-61916218D01*
X147719500Y-61840981D01*
X147558024Y-61820558D01*
X147272693Y-61841623D01*
X146867920Y-61906513D01*
X146571540Y-62011161D01*
X146348346Y-62171504D01*
X146223191Y-62316717D01*
X146031847Y-62492879D01*
X145876198Y-62534926D01*
X145789712Y-62538027D01*
X145707346Y-62554364D01*
X145603853Y-62596165D01*
X145453988Y-62675655D01*
X145232503Y-62805063D01*
X144914152Y-62996614D01*
X144878943Y-63017890D01*
X144637701Y-63153012D01*
X144312695Y-63320111D01*
X143931366Y-63506630D01*
X143521156Y-63700012D01*
X143109509Y-63887697D01*
X142723867Y-64057128D01*
X142391672Y-64195749D01*
X142140366Y-64291000D01*
X142017707Y-64327200D01*
X141757154Y-64312196D01*
X141415761Y-64180956D01*
X140997726Y-63935378D01*
X140722550Y-63741852D01*
X140469982Y-63536560D01*
X140313077Y-63368366D01*
X140267679Y-63266928D01*
X140319169Y-63140409D01*
X140478542Y-62974952D01*
X140753151Y-62764521D01*
X141150348Y-62503084D01*
X141344167Y-62383503D01*
X141648549Y-62183003D01*
X141832944Y-62021836D01*
X141912900Y-61886249D01*
X141914669Y-61878839D01*
X141974891Y-61627886D01*
X142703342Y-61627886D01*
X142760732Y-61657010D01*
X142835695Y-61565046D01*
X142841468Y-61550830D01*
X142927062Y-61462388D01*
X143104044Y-61348696D01*
X143267736Y-61265675D01*
X143463331Y-61163779D01*
X143529833Y-61102337D01*
X143479187Y-61085796D01*
X143323335Y-61118601D01*
X143089352Y-61199271D01*
X142902959Y-61272393D01*
X142787046Y-61318918D01*
X142769413Y-61326635D01*
X142743876Y-61391620D01*
X142709924Y-61496748D01*
X142703342Y-61627886D01*
X141974891Y-61627886D01*
X142048085Y-61322884D01*
X142187406Y-60888283D01*
X142351671Y-60551424D01*
X142559922Y-60288697D01*
X142831199Y-60076490D01*
X143184542Y-59891192D01*
X143638993Y-59709193D01*
X143674949Y-59696015D01*
X144010381Y-59576517D01*
X144230254Y-59507817D01*
X144354257Y-59486911D01*
X144402080Y-59510793D01*
G37*
X144402080Y-59510793D02*
X144393412Y-59576455D01*
X144389541Y-59586921D01*
X144381583Y-59735956D01*
X144414679Y-59873661D01*
X144546206Y-60031361D01*
X144773195Y-60121762D01*
X145063662Y-60147877D01*
X145385620Y-60112720D01*
X145707081Y-60019305D01*
X145996061Y-59870646D01*
X146189253Y-59706446D01*
X146323239Y-59558394D01*
X146843453Y-59743211D01*
X147308864Y-59925912D01*
X147676214Y-60116687D01*
X147991538Y-60344198D01*
X148300868Y-60637107D01*
X148332547Y-60670362D01*
X148733655Y-61176792D01*
X149034951Y-61748526D01*
X149241124Y-62399825D01*
X149356861Y-63144949D01*
X149387634Y-63880272D01*
X149386880Y-64826404D01*
X149081540Y-65400800D01*
X148935052Y-65683716D01*
X148846005Y-65892434D01*
X148801404Y-66080142D01*
X148788256Y-66300025D01*
X148792929Y-66582198D01*
X148795217Y-66866361D01*
X148786679Y-67092007D01*
X148769096Y-67221807D01*
X148761669Y-67237189D01*
X148707834Y-67206995D01*
X148622330Y-67074658D01*
X148521120Y-66875578D01*
X148420169Y-66645155D01*
X148335442Y-66418791D01*
X148282903Y-66231885D01*
X148273467Y-66154627D01*
X148254893Y-65993327D01*
X148207523Y-65961457D01*
X148143684Y-66048820D01*
X148075706Y-66245220D01*
X148053496Y-66336576D01*
X148014735Y-66634909D01*
X148002199Y-67025033D01*
X148014811Y-67455765D01*
X148051490Y-67875922D01*
X148091518Y-68139576D01*
X148109464Y-68283186D01*
X148083466Y-68394250D01*
X147991572Y-68511216D01*
X147811830Y-68672531D01*
X147764250Y-68712790D01*
X147536657Y-68887762D01*
X147290149Y-69037152D01*
X146994965Y-69174561D01*
X146621347Y-69313594D01*
X146139537Y-69467853D01*
X146059008Y-69492267D01*
X145340816Y-69636344D01*
X144592520Y-69652071D01*
X143853713Y-69538884D01*
X143796999Y-69524452D01*
X143165131Y-69329986D01*
X142597535Y-69098798D01*
X142131284Y-68846388D01*
X142056461Y-68796793D01*
X141873816Y-68664873D01*
X141752792Y-68565472D01*
X141723266Y-68529573D01*
X141761180Y-68453271D01*
X141858588Y-68297909D01*
X141944429Y-68170149D01*
X142110826Y-67968468D01*
X145246275Y-67968468D01*
X145300708Y-67973868D01*
X145429623Y-67877547D01*
X145588410Y-67719384D01*
X145905483Y-67352917D01*
X146163114Y-66982719D01*
X146395938Y-66555233D01*
X146535426Y-66255062D01*
X146792792Y-65598083D01*
X146951165Y-65011909D01*
X147008239Y-64507242D01*
X146981924Y-64182052D01*
X146909724Y-63807493D01*
X146900163Y-64328659D01*
X146824945Y-64977524D01*
X146620642Y-65639457D01*
X146283768Y-66322805D01*
X145810843Y-67035914D01*
X145720371Y-67155870D01*
X145503370Y-67455047D01*
X145350254Y-67697747D01*
X145263673Y-67872657D01*
X145246275Y-67968468D01*
X142110826Y-67968468D01*
X142170617Y-67896000D01*
X142498477Y-67573511D01*
X142902488Y-67225114D01*
X143357126Y-66873242D01*
X143678455Y-66645963D01*
X144011039Y-66398575D01*
X144267546Y-66147787D01*
X144505571Y-65835009D01*
X144569379Y-65739591D01*
X144742346Y-65468295D01*
X144847989Y-65269695D01*
X144902743Y-65097444D01*
X144923045Y-64905193D01*
X144925558Y-64735185D01*
X144876830Y-64264836D01*
X144725751Y-63882307D01*
X144582145Y-63684715D01*
X144514539Y-63559975D01*
X144560526Y-63446481D01*
X144731965Y-63322695D01*
X144802810Y-63283919D01*
X144962389Y-63223271D01*
X145184988Y-63184254D01*
X145499912Y-63163278D01*
X145838392Y-63157072D01*
X146211067Y-63150992D01*
X146471075Y-63134569D01*
X146651200Y-63102989D01*
X146784228Y-63051437D01*
X146857303Y-63007420D01*
X147072550Y-62862361D01*
X146694924Y-62823872D01*
X146469185Y-62790602D01*
X146305340Y-62747659D01*
X146258247Y-62722159D01*
X146271863Y-62690021D01*
X146385580Y-62703497D01*
X146694669Y-62707400D01*
X147030041Y-62591705D01*
X147358366Y-62369610D01*
X147454401Y-62280324D01*
X147662596Y-62058566D01*
X147752660Y-61916218D01*
X147719500Y-61840981D01*
X147558024Y-61820558D01*
X147272693Y-61841623D01*
X146867920Y-61906513D01*
X146571540Y-62011161D01*
X146348346Y-62171504D01*
X146223191Y-62316717D01*
X146031847Y-62492879D01*
X145876198Y-62534926D01*
X145789712Y-62538027D01*
X145707346Y-62554364D01*
X145603853Y-62596165D01*
X145453988Y-62675655D01*
X145232503Y-62805063D01*
X144914152Y-62996614D01*
X144878943Y-63017890D01*
X144637701Y-63153012D01*
X144312695Y-63320111D01*
X143931366Y-63506630D01*
X143521156Y-63700012D01*
X143109509Y-63887697D01*
X142723867Y-64057128D01*
X142391672Y-64195749D01*
X142140366Y-64291000D01*
X142017707Y-64327200D01*
X141757154Y-64312196D01*
X141415761Y-64180956D01*
X140997726Y-63935378D01*
X140722550Y-63741852D01*
X140469982Y-63536560D01*
X140313077Y-63368366D01*
X140267679Y-63266928D01*
X140319169Y-63140409D01*
X140478542Y-62974952D01*
X140753151Y-62764521D01*
X141150348Y-62503084D01*
X141344167Y-62383503D01*
X141648549Y-62183003D01*
X141832944Y-62021836D01*
X141912900Y-61886249D01*
X141914669Y-61878839D01*
X141974891Y-61627886D01*
X142703342Y-61627886D01*
X142760732Y-61657010D01*
X142835695Y-61565046D01*
X142841468Y-61550830D01*
X142927062Y-61462388D01*
X143104044Y-61348696D01*
X143267736Y-61265675D01*
X143463331Y-61163779D01*
X143529833Y-61102337D01*
X143479187Y-61085796D01*
X143323335Y-61118601D01*
X143089352Y-61199271D01*
X142902959Y-61272393D01*
X142787046Y-61318918D01*
X142769413Y-61326635D01*
X142743876Y-61391620D01*
X142709924Y-61496748D01*
X142703342Y-61627886D01*
X141974891Y-61627886D01*
X142048085Y-61322884D01*
X142187406Y-60888283D01*
X142351671Y-60551424D01*
X142559922Y-60288697D01*
X142831199Y-60076490D01*
X143184542Y-59891192D01*
X143638993Y-59709193D01*
X143674949Y-59696015D01*
X144010381Y-59576517D01*
X144230254Y-59507817D01*
X144354257Y-59486911D01*
X144402080Y-59510793D01*
G36*
X148453356Y-67029278D02*
G01*
X148608989Y-67314005D01*
X148751489Y-67565663D01*
X148858486Y-67745100D01*
X148888816Y-67791460D01*
X148991906Y-68035893D01*
X148950732Y-68264804D01*
X148832759Y-68416296D01*
X148690083Y-68538616D01*
X148601558Y-68563822D01*
X148521443Y-68500673D01*
X148503371Y-68479378D01*
X148295683Y-68125491D01*
X148171994Y-67662769D01*
X148130667Y-67085077D01*
X148130665Y-67082564D01*
X148130283Y-66427550D01*
X148453356Y-67029278D01*
G37*
X148453356Y-67029278D02*
X148608989Y-67314005D01*
X148751489Y-67565663D01*
X148858486Y-67745100D01*
X148888816Y-67791460D01*
X148991906Y-68035893D01*
X148950732Y-68264804D01*
X148832759Y-68416296D01*
X148690083Y-68538616D01*
X148601558Y-68563822D01*
X148521443Y-68500673D01*
X148503371Y-68479378D01*
X148295683Y-68125491D01*
X148171994Y-67662769D01*
X148130667Y-67085077D01*
X148130665Y-67082564D01*
X148130283Y-66427550D01*
X148453356Y-67029278D01*
G36*
X151532092Y-66548933D02*
G01*
X151520125Y-66632462D01*
X151516962Y-66645888D01*
X151395025Y-66969873D01*
X151192369Y-67324858D01*
X150945098Y-67655014D01*
X150717410Y-67882204D01*
X150539300Y-68022813D01*
X150409186Y-68115672D01*
X150366148Y-68137865D01*
X150358792Y-68074607D01*
X150383430Y-67913149D01*
X150410033Y-67792163D01*
X150467848Y-67609176D01*
X150560169Y-67441419D01*
X150710681Y-67256289D01*
X150943070Y-67021180D01*
X151031261Y-66937005D01*
X151271598Y-66711985D01*
X151424241Y-66578857D01*
X151505601Y-66527786D01*
X151532092Y-66548933D01*
G37*
X151532092Y-66548933D02*
X151520125Y-66632462D01*
X151516962Y-66645888D01*
X151395025Y-66969873D01*
X151192369Y-67324858D01*
X150945098Y-67655014D01*
X150717410Y-67882204D01*
X150539300Y-68022813D01*
X150409186Y-68115672D01*
X150366148Y-68137865D01*
X150358792Y-68074607D01*
X150383430Y-67913149D01*
X150410033Y-67792163D01*
X150467848Y-67609176D01*
X150560169Y-67441419D01*
X150710681Y-67256289D01*
X150943070Y-67021180D01*
X151031261Y-66937005D01*
X151271598Y-66711985D01*
X151424241Y-66578857D01*
X151505601Y-66527786D01*
X151532092Y-66548933D01*
G36*
X149390618Y-65149166D02*
G01*
X149400979Y-65330348D01*
X149409722Y-65593081D01*
X149413223Y-65757707D01*
X149433701Y-66137365D01*
X149477348Y-66511077D01*
X149536295Y-66814315D01*
X149546724Y-66852338D01*
X149612041Y-67108633D01*
X149625049Y-67267763D01*
X149588187Y-67367432D01*
X149580663Y-67377025D01*
X149428008Y-67470974D01*
X149257290Y-67459950D01*
X149166233Y-67391876D01*
X149011232Y-67087968D01*
X148936734Y-66700899D01*
X148943203Y-66269088D01*
X149031106Y-65830953D01*
X149143729Y-65536003D01*
X149253398Y-65310215D01*
X149337847Y-65147555D01*
X149379562Y-65081685D01*
X149380204Y-65081535D01*
X149390618Y-65149166D01*
G37*
X149390618Y-65149166D02*
X149400979Y-65330348D01*
X149409722Y-65593081D01*
X149413223Y-65757707D01*
X149433701Y-66137365D01*
X149477348Y-66511077D01*
X149536295Y-66814315D01*
X149546724Y-66852338D01*
X149612041Y-67108633D01*
X149625049Y-67267763D01*
X149588187Y-67367432D01*
X149580663Y-67377025D01*
X149428008Y-67470974D01*
X149257290Y-67459950D01*
X149166233Y-67391876D01*
X149011232Y-67087968D01*
X148936734Y-66700899D01*
X148943203Y-66269088D01*
X149031106Y-65830953D01*
X149143729Y-65536003D01*
X149253398Y-65310215D01*
X149337847Y-65147555D01*
X149379562Y-65081685D01*
X149380204Y-65081535D01*
X149390618Y-65149166D01*
G36*
X148594158Y-57820981D02*
G01*
X148841696Y-57978756D01*
X149133445Y-58199445D01*
X149451515Y-58468107D01*
X149778016Y-58769803D01*
X150095057Y-59089592D01*
X150384750Y-59412534D01*
X150577009Y-59652738D01*
X151036512Y-60366465D01*
X151423664Y-61179297D01*
X151723321Y-62056492D01*
X151848809Y-62570243D01*
X151906130Y-62976429D01*
X151935106Y-63476536D01*
X151936450Y-64021860D01*
X151910874Y-64563694D01*
X151859092Y-65053331D01*
X151808327Y-65335859D01*
X151724316Y-65689728D01*
X151650035Y-65932339D01*
X151569242Y-66095655D01*
X151465699Y-66211641D01*
X151323165Y-66312263D01*
X151307303Y-66322003D01*
X151111397Y-66430536D01*
X151000598Y-66455547D01*
X150943881Y-66401266D01*
X150933630Y-66372965D01*
X150914553Y-66258214D01*
X150891336Y-66044176D01*
X150868956Y-65776838D01*
X150868643Y-65772536D01*
X150825727Y-65447915D01*
X150751803Y-65122250D01*
X150679746Y-64909265D01*
X150599451Y-64677137D01*
X150546802Y-64402180D01*
X150515672Y-64044860D01*
X150504972Y-63781185D01*
X150413422Y-62851717D01*
X150196471Y-61989202D01*
X149855689Y-61198788D01*
X149576045Y-60737117D01*
X149283632Y-60355985D01*
X148921005Y-59953873D01*
X148531162Y-59574426D01*
X148157102Y-59261292D01*
X148036876Y-59174763D01*
X147829250Y-59028509D01*
X147679503Y-58914054D01*
X147618557Y-58855099D01*
X147618395Y-58854000D01*
X147654695Y-58776422D01*
X147748862Y-58612722D01*
X147878792Y-58398398D01*
X148022384Y-58168953D01*
X148157535Y-57959888D01*
X148262144Y-57806702D01*
X148303275Y-57753932D01*
X148408721Y-57741059D01*
X148594158Y-57820981D01*
G37*
X148594158Y-57820981D02*
X148841696Y-57978756D01*
X149133445Y-58199445D01*
X149451515Y-58468107D01*
X149778016Y-58769803D01*
X150095057Y-59089592D01*
X150384750Y-59412534D01*
X150577009Y-59652738D01*
X151036512Y-60366465D01*
X151423664Y-61179297D01*
X151723321Y-62056492D01*
X151848809Y-62570243D01*
X151906130Y-62976429D01*
X151935106Y-63476536D01*
X151936450Y-64021860D01*
X151910874Y-64563694D01*
X151859092Y-65053331D01*
X151808327Y-65335859D01*
X151724316Y-65689728D01*
X151650035Y-65932339D01*
X151569242Y-66095655D01*
X151465699Y-66211641D01*
X151323165Y-66312263D01*
X151307303Y-66322003D01*
X151111397Y-66430536D01*
X151000598Y-66455547D01*
X150943881Y-66401266D01*
X150933630Y-66372965D01*
X150914553Y-66258214D01*
X150891336Y-66044176D01*
X150868956Y-65776838D01*
X150868643Y-65772536D01*
X150825727Y-65447915D01*
X150751803Y-65122250D01*
X150679746Y-64909265D01*
X150599451Y-64677137D01*
X150546802Y-64402180D01*
X150515672Y-64044860D01*
X150504972Y-63781185D01*
X150413422Y-62851717D01*
X150196471Y-61989202D01*
X149855689Y-61198788D01*
X149576045Y-60737117D01*
X149283632Y-60355985D01*
X148921005Y-59953873D01*
X148531162Y-59574426D01*
X148157102Y-59261292D01*
X148036876Y-59174763D01*
X147829250Y-59028509D01*
X147679503Y-58914054D01*
X147618557Y-58855099D01*
X147618395Y-58854000D01*
X147654695Y-58776422D01*
X147748862Y-58612722D01*
X147878792Y-58398398D01*
X148022384Y-58168953D01*
X148157535Y-57959888D01*
X148262144Y-57806702D01*
X148303275Y-57753932D01*
X148408721Y-57741059D01*
X148594158Y-57820981D01*
G36*
X140184425Y-62301140D02*
G01*
X140301039Y-62430754D01*
X140443118Y-62597893D01*
X140534728Y-62717623D01*
X140553480Y-62752192D01*
X140501736Y-62816021D01*
X140378168Y-62916622D01*
X140202115Y-63044662D01*
X140126134Y-62771063D01*
X140075103Y-62542051D01*
X140050211Y-62341631D01*
X140049747Y-62321585D01*
X140056764Y-62228002D01*
X140093912Y-62217822D01*
X140184425Y-62301140D01*
G37*
X140184425Y-62301140D02*
X140301039Y-62430754D01*
X140443118Y-62597893D01*
X140534728Y-62717623D01*
X140553480Y-62752192D01*
X140501736Y-62816021D01*
X140378168Y-62916622D01*
X140202115Y-63044662D01*
X140126134Y-62771063D01*
X140075103Y-62542051D01*
X140050211Y-62341631D01*
X140049747Y-62321585D01*
X140056764Y-62228002D01*
X140093912Y-62217822D01*
X140184425Y-62301140D01*
G36*
X145962924Y-62704587D02*
G01*
X146130703Y-62786267D01*
X146291791Y-62872182D01*
X146395045Y-62895436D01*
X146526853Y-62935675D01*
X146563094Y-62970530D01*
X146521061Y-63004067D01*
X146372317Y-63026407D01*
X146155300Y-63037294D01*
X145908446Y-63036469D01*
X145670192Y-63023677D01*
X145478974Y-62998659D01*
X145404343Y-62978280D01*
X145315469Y-62932731D01*
X145334493Y-62879823D01*
X145438731Y-62801447D01*
X145696867Y-62694169D01*
X145962924Y-62704587D01*
G37*
X145962924Y-62704587D02*
X146130703Y-62786267D01*
X146291791Y-62872182D01*
X146395045Y-62895436D01*
X146526853Y-62935675D01*
X146563094Y-62970530D01*
X146521061Y-63004067D01*
X146372317Y-63026407D01*
X146155300Y-63037294D01*
X145908446Y-63036469D01*
X145670192Y-63023677D01*
X145478974Y-62998659D01*
X145404343Y-62978280D01*
X145315469Y-62932731D01*
X145334493Y-62879823D01*
X145438731Y-62801447D01*
X145696867Y-62694169D01*
X145962924Y-62704587D01*
G36*
X147618395Y-61949020D02*
G01*
X147561598Y-62048579D01*
X147417469Y-62187768D01*
X147225403Y-62334608D01*
X147024795Y-62457118D01*
X146947524Y-62493603D01*
X146649959Y-62588832D01*
X146442454Y-62591257D01*
X146336023Y-62500949D01*
X146328421Y-62359252D01*
X146436380Y-62231762D01*
X146596110Y-62135312D01*
X146756304Y-62073654D01*
X146975391Y-62014703D01*
X147212157Y-61965970D01*
X147425385Y-61934965D01*
X147573862Y-61929198D01*
X147618395Y-61949020D01*
G37*
X147618395Y-61949020D02*
X147561598Y-62048579D01*
X147417469Y-62187768D01*
X147225403Y-62334608D01*
X147024795Y-62457118D01*
X146947524Y-62493603D01*
X146649959Y-62588832D01*
X146442454Y-62591257D01*
X146336023Y-62500949D01*
X146328421Y-62359252D01*
X146436380Y-62231762D01*
X146596110Y-62135312D01*
X146756304Y-62073654D01*
X146975391Y-62014703D01*
X147212157Y-61965970D01*
X147425385Y-61934965D01*
X147573862Y-61929198D01*
X147618395Y-61949020D01*
G36*
X147819390Y-56869995D02*
G01*
X147815688Y-56879710D01*
X147763121Y-56979485D01*
X147647538Y-57178565D01*
X147483557Y-57453129D01*
X147285793Y-57779355D01*
X147068864Y-58133420D01*
X146847386Y-58491502D01*
X146635978Y-58829780D01*
X146449255Y-59124431D01*
X146301834Y-59351633D01*
X146266606Y-59404341D01*
X146082409Y-59631911D01*
X145866230Y-59790826D01*
X145571789Y-59910783D01*
X145400267Y-59960276D01*
X145148463Y-60024415D01*
X144988467Y-60049782D01*
X144871837Y-60036567D01*
X144750135Y-59984955D01*
X144707220Y-59962959D01*
X144569708Y-59847058D01*
X144540341Y-59668990D01*
X144541156Y-59656977D01*
X144587839Y-59451078D01*
X144707248Y-59253865D01*
X144917258Y-59045118D01*
X145235744Y-58804616D01*
X145383051Y-58704600D01*
X145662815Y-58506033D01*
X146005723Y-58244058D01*
X146367430Y-57953414D01*
X146689720Y-57680954D01*
X146984896Y-57426997D01*
X147259665Y-57196718D01*
X147486055Y-57013155D01*
X147636094Y-56899342D01*
X147651496Y-56888915D01*
X147791278Y-56802048D01*
X147838231Y-56796246D01*
X147819390Y-56869995D01*
G37*
X147819390Y-56869995D02*
X147815688Y-56879710D01*
X147763121Y-56979485D01*
X147647538Y-57178565D01*
X147483557Y-57453129D01*
X147285793Y-57779355D01*
X147068864Y-58133420D01*
X146847386Y-58491502D01*
X146635978Y-58829780D01*
X146449255Y-59124431D01*
X146301834Y-59351633D01*
X146266606Y-59404341D01*
X146082409Y-59631911D01*
X145866230Y-59790826D01*
X145571789Y-59910783D01*
X145400267Y-59960276D01*
X145148463Y-60024415D01*
X144988467Y-60049782D01*
X144871837Y-60036567D01*
X144750135Y-59984955D01*
X144707220Y-59962959D01*
X144569708Y-59847058D01*
X144540341Y-59668990D01*
X144541156Y-59656977D01*
X144587839Y-59451078D01*
X144707248Y-59253865D01*
X144917258Y-59045118D01*
X145235744Y-58804616D01*
X145383051Y-58704600D01*
X145662815Y-58506033D01*
X146005723Y-58244058D01*
X146367430Y-57953414D01*
X146689720Y-57680954D01*
X146984896Y-57426997D01*
X147259665Y-57196718D01*
X147486055Y-57013155D01*
X147636094Y-56899342D01*
X147651496Y-56888915D01*
X147791278Y-56802048D01*
X147838231Y-56796246D01*
X147819390Y-56869995D01*
G36*
X146930759Y-58703498D02*
G01*
X147050870Y-58797007D01*
X147054642Y-58800425D01*
X147200145Y-58916517D01*
X147305805Y-58976596D01*
X147306653Y-59037889D01*
X147236965Y-59167798D01*
X147125165Y-59328196D01*
X146999675Y-59480951D01*
X146888916Y-59587934D01*
X146829981Y-59614936D01*
X146732829Y-59584812D01*
X146588949Y-59530801D01*
X146396466Y-59454409D01*
X146619941Y-59083673D01*
X146743032Y-58880872D01*
X146833754Y-58734002D01*
X146867296Y-58682325D01*
X146930759Y-58703498D01*
G37*
X146930759Y-58703498D02*
X147050870Y-58797007D01*
X147054642Y-58800425D01*
X147200145Y-58916517D01*
X147305805Y-58976596D01*
X147306653Y-59037889D01*
X147236965Y-59167798D01*
X147125165Y-59328196D01*
X146999675Y-59480951D01*
X146888916Y-59587934D01*
X146829981Y-59614936D01*
X146732829Y-59584812D01*
X146588949Y-59530801D01*
X146396466Y-59454409D01*
X146619941Y-59083673D01*
X146743032Y-58880872D01*
X146833754Y-58734002D01*
X146867296Y-58682325D01*
X146930759Y-58703498D01*
G36*
X147283938Y-58511198D02*
G01*
X147320162Y-58537235D01*
X147465122Y-58657320D01*
X147541925Y-58746117D01*
X147545616Y-58758718D01*
X147489889Y-58842903D01*
X147341529Y-58839064D01*
X147288361Y-58821702D01*
X147110834Y-58718644D01*
X147005629Y-58589451D01*
X146999823Y-58471523D01*
X147017573Y-58447684D01*
X147118362Y-58425036D01*
X147283938Y-58511198D01*
G37*
X147283938Y-58511198D02*
X147320162Y-58537235D01*
X147465122Y-58657320D01*
X147541925Y-58746117D01*
X147545616Y-58758718D01*
X147489889Y-58842903D01*
X147341529Y-58839064D01*
X147288361Y-58821702D01*
X147110834Y-58718644D01*
X147005629Y-58589451D01*
X146999823Y-58471523D01*
X147017573Y-58447684D01*
X147118362Y-58425036D01*
X147283938Y-58511198D01*
G36*
X148564527Y-57037580D02*
G01*
X148526521Y-57129230D01*
X148425414Y-57306234D01*
X148280572Y-57539452D01*
X148111364Y-57799743D01*
X147937155Y-58057969D01*
X147777313Y-58284988D01*
X147651203Y-58451659D01*
X147578194Y-58528844D01*
X147571995Y-58530988D01*
X147459800Y-58488563D01*
X147318858Y-58393247D01*
X147206016Y-58284454D01*
X147196142Y-58183613D01*
X147255055Y-58056883D01*
X147345900Y-57941667D01*
X147508341Y-57783273D01*
X147716979Y-57601470D01*
X147946412Y-57416033D01*
X148171239Y-57246732D01*
X148366061Y-57113340D01*
X148505476Y-57035629D01*
X148564084Y-57033371D01*
X148564527Y-57037580D01*
G37*
X148564527Y-57037580D02*
X148526521Y-57129230D01*
X148425414Y-57306234D01*
X148280572Y-57539452D01*
X148111364Y-57799743D01*
X147937155Y-58057969D01*
X147777313Y-58284988D01*
X147651203Y-58451659D01*
X147578194Y-58528844D01*
X147571995Y-58530988D01*
X147459800Y-58488563D01*
X147318858Y-58393247D01*
X147206016Y-58284454D01*
X147196142Y-58183613D01*
X147255055Y-58056883D01*
X147345900Y-57941667D01*
X147508341Y-57783273D01*
X147716979Y-57601470D01*
X147946412Y-57416033D01*
X148171239Y-57246732D01*
X148366061Y-57113340D01*
X148505476Y-57035629D01*
X148564084Y-57033371D01*
X148564527Y-57037580D01*
G36*
X147738936Y-57411106D02*
G01*
X147727564Y-57439298D01*
X147662164Y-57508728D01*
X147650490Y-57512077D01*
X147619230Y-57455768D01*
X147618395Y-57439298D01*
X147674344Y-57369315D01*
X147695470Y-57366518D01*
X147738936Y-57411106D01*
G37*
X147738936Y-57411106D02*
X147727564Y-57439298D01*
X147662164Y-57508728D01*
X147650490Y-57512077D01*
X147619230Y-57455768D01*
X147618395Y-57439298D01*
X147674344Y-57369315D01*
X147695470Y-57366518D01*
X147738936Y-57411106D01*
D10*
X170240000Y-97790000D02*
X170240000Y-46930000D01*
X165040000Y-100390000D02*
X165040000Y-46930000D01*
X170240000Y-100390000D02*
X167640000Y-100390000D01*
X170240000Y-97790000D02*
X170240000Y-100390000D01*
X167640000Y-100390000D02*
X165040000Y-100390000D01*
X124520000Y-85090000D02*
X124520000Y-46930000D01*
X119320000Y-87690000D02*
X119320000Y-46930000D01*
X124520000Y-87690000D02*
X121920000Y-87690000D01*
X124520000Y-85090000D02*
X124520000Y-87690000D01*
X121920000Y-87690000D02*
X119320000Y-87690000D01*
X124460000Y-47050000D02*
X124460000Y-44390000D01*
X124460000Y-47050000D02*
X139760000Y-47050000D01*
X139760000Y-47050000D02*
X139760000Y-44390000D01*
D11*
X115570000Y-107315000D02*
X115570000Y-108585000D01*
X114935000Y-107950000D02*
X116205000Y-107950000D01*
D10*
X175805000Y-108500000D02*
X176255000Y-108500000D01*
X175805000Y-110350000D02*
X175805000Y-108500000D01*
X183605000Y-112900000D02*
X183605000Y-112650000D01*
X175805000Y-112900000D02*
X175805000Y-112650000D01*
X183605000Y-110350000D02*
X183605000Y-108500000D01*
X183605000Y-108500000D02*
X183155000Y-108500000D01*
X178005000Y-107950000D02*
X178455000Y-107950000D01*
X178005000Y-107950000D02*
X178005000Y-108400000D01*
D11*
X114935000Y-104140000D02*
X116205000Y-104140000D01*
D10*
X105470000Y-95420000D02*
X104420000Y-95420000D01*
X104420000Y-96470000D02*
X104420000Y-95420000D01*
X113820000Y-101520000D02*
X113820000Y-110320000D01*
X113820000Y-110320000D02*
X104620000Y-110320000D01*
X111120000Y-95620000D02*
X113820000Y-95620000D01*
X113820000Y-95620000D02*
X113820000Y-97520000D01*
X104620000Y-110320000D02*
X104620000Y-95620000D01*
X104620000Y-95620000D02*
X107220000Y-95620000D01*
X186195000Y-98915000D02*
X186195000Y-94655000D01*
X186195000Y-94655000D02*
X173875000Y-94655000D01*
X173875000Y-94655000D02*
X173875000Y-98915000D01*
X186195000Y-103015000D02*
X186195000Y-111375000D01*
X186195000Y-111375000D02*
X173875000Y-111375000D01*
X173875000Y-111375000D02*
X173875000Y-103015000D01*
X181285000Y-94435000D02*
X181785000Y-93935000D01*
X181785000Y-93935000D02*
X180785000Y-93935000D01*
X180785000Y-93935000D02*
X181285000Y-94435000D01*
D18*
X100965000Y-98425000D02*
X100965000Y-98425000D01*
D11*
X100965000Y-95885000D02*
X100965000Y-97155000D01*
X100965000Y-93980000D02*
X100965000Y-95250000D01*
X100072037Y-99288994D02*
G75*
G02X101777800Y-99364800I892963J863994D01*
G01*
X102235000Y-94615000D02*
G75*
G03X102235000Y-94615000I-1270000J0D01*
G01*
X100965000Y-100965000D02*
X100965000Y-99060000D01*
X102235000Y-102235000D02*
G75*
G03X102235000Y-102235000I-1270000J0D01*
G01*
X100965000Y-101600000D02*
X100965000Y-102870000D01*
X101600000Y-102235000D02*
X100330000Y-102235000D01*
D12*
X115422380Y-106112857D02*
X114422380Y-106112857D01*
X114422380Y-105874761D01*
X114470000Y-105731904D01*
X114565238Y-105636666D01*
X114660476Y-105589047D01*
X114850952Y-105541428D01*
X114993809Y-105541428D01*
X115184285Y-105589047D01*
X115279523Y-105636666D01*
X115374761Y-105731904D01*
X115422380Y-105874761D01*
X115422380Y-106112857D01*
X115327142Y-104541428D02*
X115374761Y-104589047D01*
X115422380Y-104731904D01*
X115422380Y-104827142D01*
X115374761Y-104970000D01*
X115279523Y-105065238D01*
X115184285Y-105112857D01*
X114993809Y-105160476D01*
X114850952Y-105160476D01*
X114660476Y-105112857D01*
X114565238Y-105065238D01*
X114470000Y-104970000D01*
X114422380Y-104827142D01*
X114422380Y-104731904D01*
X114470000Y-104589047D01*
X114517619Y-104541428D01*
X186802380Y-107922857D02*
X187611904Y-107922857D01*
X187707142Y-107875238D01*
X187754761Y-107827619D01*
X187802380Y-107732380D01*
X187802380Y-107541904D01*
X187754761Y-107446666D01*
X187707142Y-107399047D01*
X187611904Y-107351428D01*
X186802380Y-107351428D01*
X187754761Y-106922857D02*
X187802380Y-106780000D01*
X187802380Y-106541904D01*
X187754761Y-106446666D01*
X187707142Y-106399047D01*
X187611904Y-106351428D01*
X187516666Y-106351428D01*
X187421428Y-106399047D01*
X187373809Y-106446666D01*
X187326190Y-106541904D01*
X187278571Y-106732380D01*
X187230952Y-106827619D01*
X187183333Y-106875238D01*
X187088095Y-106922857D01*
X186992857Y-106922857D01*
X186897619Y-106875238D01*
X186850000Y-106827619D01*
X186802380Y-106732380D01*
X186802380Y-106494285D01*
X186850000Y-106351428D01*
X187278571Y-105589523D02*
X187326190Y-105446666D01*
X187373809Y-105399047D01*
X187469047Y-105351428D01*
X187611904Y-105351428D01*
X187707142Y-105399047D01*
X187754761Y-105446666D01*
X187802380Y-105541904D01*
X187802380Y-105922857D01*
X186802380Y-105922857D01*
X186802380Y-105589523D01*
X186850000Y-105494285D01*
X186897619Y-105446666D01*
X186992857Y-105399047D01*
X187088095Y-105399047D01*
X187183333Y-105446666D01*
X187230952Y-105494285D01*
X187278571Y-105589523D01*
X187278571Y-105922857D01*
X187278571Y-103827619D02*
X187326190Y-103684761D01*
X187373809Y-103637142D01*
X187469047Y-103589523D01*
X187611904Y-103589523D01*
X187707142Y-103637142D01*
X187754761Y-103684761D01*
X187802380Y-103780000D01*
X187802380Y-104160952D01*
X186802380Y-104160952D01*
X186802380Y-103827619D01*
X186850000Y-103732380D01*
X186897619Y-103684761D01*
X186992857Y-103637142D01*
X187088095Y-103637142D01*
X187183333Y-103684761D01*
X187230952Y-103732380D01*
X187278571Y-103827619D01*
X187278571Y-104160952D01*
M02*
